<?xml version="1.0" encoding="utf-8" standalone="no"?>
<!DOCTYPE svg PUBLIC "-//W3C//DTD SVG 1.1//EN"
  "http://www.w3.org/Graphics/SVG/1.1/DTD/svg11.dtd">
<svg xmlns:xlink="http://www.w3.org/1999/xlink" width="504pt" height="432pt" viewBox="0 0 504 432" xmlns="http://www.w3.org/2000/svg" version="1.1">
 <metadata>
  <rdf:RDF xmlns:dc="http://purl.org/dc/elements/1.1/" xmlns:cc="http://creativecommons.org/ns#" xmlns:rdf="http://www.w3.org/1999/02/22-rdf-syntax-ns#">
   <cc:Work>
    <dc:type rdf:resource="http://purl.org/dc/dcmitype/StillImage"/>
    <dc:date>2022-01-30T21:18:08.202942</dc:date>
    <dc:format>image/svg+xml</dc:format>
    <dc:creator>
     <cc:Agent>
      <dc:title>Matplotlib v3.5.1, https://matplotlib.org/</dc:title>
     </cc:Agent>
    </dc:creator>
   </cc:Work>
  </rdf:RDF>
 </metadata>
 <defs>
  <style type="text/css">*{stroke-linejoin: round; stroke-linecap: butt}</style>
 </defs>
 <g id="figure_1">
  <g id="patch_1">
   <path d="M 0 432 
L 504 432 
L 504 0 
L 0 0 
z
" style="fill: #ffffff"/>
  </g>
  <g id="axes_1">
   <g id="patch_2">
    <path d="M 63 384.48 
L 453.6 384.48 
L 453.6 51.84 
L 63 51.84 
z
" style="fill: #ffffff"/>
   </g>
   <g id="matplotlib.axis_1">
    <g id="xtick_1">
     <g id="line2d_1">
      <defs>
       <path id="m9d9ec659cc" d="M 0 0 
L 0 3.5 
" style="stroke: #000000; stroke-width: 0.8"/>
      </defs>
      <g>
       <use xlink:href="#m9d9ec659cc" x="80.754545" y="384.48" style="stroke: #000000; stroke-width: 0.8"/>
      </g>
     </g>
     <g id="text_1">
      <!-- 0 -->
      <g transform="translate(77.573295 399.078438)scale(0.1 -0.1)">
       <defs>
        <path id="DejaVuSans-30" d="M 2034 4250 
Q 1547 4250 1301 3770 
Q 1056 3291 1056 2328 
Q 1056 1369 1301 889 
Q 1547 409 2034 409 
Q 2525 409 2770 889 
Q 3016 1369 3016 2328 
Q 3016 3291 2770 3770 
Q 2525 4250 2034 4250 
z
M 2034 4750 
Q 2819 4750 3233 4129 
Q 3647 3509 3647 2328 
Q 3647 1150 3233 529 
Q 2819 -91 2034 -91 
Q 1250 -91 836 529 
Q 422 1150 422 2328 
Q 422 3509 836 4129 
Q 1250 4750 2034 4750 
z
" transform="scale(0.015625)"/>
       </defs>
       <use xlink:href="#DejaVuSans-30"/>
      </g>
     </g>
    </g>
    <g id="xtick_2">
     <g id="line2d_2">
      <g>
       <use xlink:href="#m9d9ec659cc" x="151.772727" y="384.48" style="stroke: #000000; stroke-width: 0.8"/>
      </g>
     </g>
     <g id="text_2">
      <!-- 200 -->
      <g transform="translate(142.228977 399.078438)scale(0.1 -0.1)">
       <defs>
        <path id="DejaVuSans-32" d="M 1228 531 
L 3431 531 
L 3431 0 
L 469 0 
L 469 531 
Q 828 903 1448 1529 
Q 2069 2156 2228 2338 
Q 2531 2678 2651 2914 
Q 2772 3150 2772 3378 
Q 2772 3750 2511 3984 
Q 2250 4219 1831 4219 
Q 1534 4219 1204 4116 
Q 875 4013 500 3803 
L 500 4441 
Q 881 4594 1212 4672 
Q 1544 4750 1819 4750 
Q 2544 4750 2975 4387 
Q 3406 4025 3406 3419 
Q 3406 3131 3298 2873 
Q 3191 2616 2906 2266 
Q 2828 2175 2409 1742 
Q 1991 1309 1228 531 
z
" transform="scale(0.015625)"/>
       </defs>
       <use xlink:href="#DejaVuSans-32"/>
       <use xlink:href="#DejaVuSans-30" x="63.623047"/>
       <use xlink:href="#DejaVuSans-30" x="127.246094"/>
      </g>
     </g>
    </g>
    <g id="xtick_3">
     <g id="line2d_3">
      <g>
       <use xlink:href="#m9d9ec659cc" x="222.790909" y="384.48" style="stroke: #000000; stroke-width: 0.8"/>
      </g>
     </g>
     <g id="text_3">
      <!-- 400 -->
      <g transform="translate(213.247159 399.078438)scale(0.1 -0.1)">
       <defs>
        <path id="DejaVuSans-34" d="M 2419 4116 
L 825 1625 
L 2419 1625 
L 2419 4116 
z
M 2253 4666 
L 3047 4666 
L 3047 1625 
L 3713 1625 
L 3713 1100 
L 3047 1100 
L 3047 0 
L 2419 0 
L 2419 1100 
L 313 1100 
L 313 1709 
L 2253 4666 
z
" transform="scale(0.015625)"/>
       </defs>
       <use xlink:href="#DejaVuSans-34"/>
       <use xlink:href="#DejaVuSans-30" x="63.623047"/>
       <use xlink:href="#DejaVuSans-30" x="127.246094"/>
      </g>
     </g>
    </g>
    <g id="xtick_4">
     <g id="line2d_4">
      <g>
       <use xlink:href="#m9d9ec659cc" x="293.809091" y="384.48" style="stroke: #000000; stroke-width: 0.8"/>
      </g>
     </g>
     <g id="text_4">
      <!-- 600 -->
      <g transform="translate(284.265341 399.078438)scale(0.1 -0.1)">
       <defs>
        <path id="DejaVuSans-36" d="M 2113 2584 
Q 1688 2584 1439 2293 
Q 1191 2003 1191 1497 
Q 1191 994 1439 701 
Q 1688 409 2113 409 
Q 2538 409 2786 701 
Q 3034 994 3034 1497 
Q 3034 2003 2786 2293 
Q 2538 2584 2113 2584 
z
M 3366 4563 
L 3366 3988 
Q 3128 4100 2886 4159 
Q 2644 4219 2406 4219 
Q 1781 4219 1451 3797 
Q 1122 3375 1075 2522 
Q 1259 2794 1537 2939 
Q 1816 3084 2150 3084 
Q 2853 3084 3261 2657 
Q 3669 2231 3669 1497 
Q 3669 778 3244 343 
Q 2819 -91 2113 -91 
Q 1303 -91 875 529 
Q 447 1150 447 2328 
Q 447 3434 972 4092 
Q 1497 4750 2381 4750 
Q 2619 4750 2861 4703 
Q 3103 4656 3366 4563 
z
" transform="scale(0.015625)"/>
       </defs>
       <use xlink:href="#DejaVuSans-36"/>
       <use xlink:href="#DejaVuSans-30" x="63.623047"/>
       <use xlink:href="#DejaVuSans-30" x="127.246094"/>
      </g>
     </g>
    </g>
    <g id="xtick_5">
     <g id="line2d_5">
      <g>
       <use xlink:href="#m9d9ec659cc" x="364.827273" y="384.48" style="stroke: #000000; stroke-width: 0.8"/>
      </g>
     </g>
     <g id="text_5">
      <!-- 800 -->
      <g transform="translate(355.283523 399.078438)scale(0.1 -0.1)">
       <defs>
        <path id="DejaVuSans-38" d="M 2034 2216 
Q 1584 2216 1326 1975 
Q 1069 1734 1069 1313 
Q 1069 891 1326 650 
Q 1584 409 2034 409 
Q 2484 409 2743 651 
Q 3003 894 3003 1313 
Q 3003 1734 2745 1975 
Q 2488 2216 2034 2216 
z
M 1403 2484 
Q 997 2584 770 2862 
Q 544 3141 544 3541 
Q 544 4100 942 4425 
Q 1341 4750 2034 4750 
Q 2731 4750 3128 4425 
Q 3525 4100 3525 3541 
Q 3525 3141 3298 2862 
Q 3072 2584 2669 2484 
Q 3125 2378 3379 2068 
Q 3634 1759 3634 1313 
Q 3634 634 3220 271 
Q 2806 -91 2034 -91 
Q 1263 -91 848 271 
Q 434 634 434 1313 
Q 434 1759 690 2068 
Q 947 2378 1403 2484 
z
M 1172 3481 
Q 1172 3119 1398 2916 
Q 1625 2713 2034 2713 
Q 2441 2713 2670 2916 
Q 2900 3119 2900 3481 
Q 2900 3844 2670 4047 
Q 2441 4250 2034 4250 
Q 1625 4250 1398 4047 
Q 1172 3844 1172 3481 
z
" transform="scale(0.015625)"/>
       </defs>
       <use xlink:href="#DejaVuSans-38"/>
       <use xlink:href="#DejaVuSans-30" x="63.623047"/>
       <use xlink:href="#DejaVuSans-30" x="127.246094"/>
      </g>
     </g>
    </g>
    <g id="text_6">
     <!-- time [ms] -->
     <g transform="translate(234.038281 412.756563)scale(0.1 -0.1)">
      <defs>
       <path id="DejaVuSans-74" d="M 1172 4494 
L 1172 3500 
L 2356 3500 
L 2356 3053 
L 1172 3053 
L 1172 1153 
Q 1172 725 1289 603 
Q 1406 481 1766 481 
L 2356 481 
L 2356 0 
L 1766 0 
Q 1100 0 847 248 
Q 594 497 594 1153 
L 594 3053 
L 172 3053 
L 172 3500 
L 594 3500 
L 594 4494 
L 1172 4494 
z
" transform="scale(0.015625)"/>
       <path id="DejaVuSans-69" d="M 603 3500 
L 1178 3500 
L 1178 0 
L 603 0 
L 603 3500 
z
M 603 4863 
L 1178 4863 
L 1178 4134 
L 603 4134 
L 603 4863 
z
" transform="scale(0.015625)"/>
       <path id="DejaVuSans-6d" d="M 3328 2828 
Q 3544 3216 3844 3400 
Q 4144 3584 4550 3584 
Q 5097 3584 5394 3201 
Q 5691 2819 5691 2113 
L 5691 0 
L 5113 0 
L 5113 2094 
Q 5113 2597 4934 2840 
Q 4756 3084 4391 3084 
Q 3944 3084 3684 2787 
Q 3425 2491 3425 1978 
L 3425 0 
L 2847 0 
L 2847 2094 
Q 2847 2600 2669 2842 
Q 2491 3084 2119 3084 
Q 1678 3084 1418 2786 
Q 1159 2488 1159 1978 
L 1159 0 
L 581 0 
L 581 3500 
L 1159 3500 
L 1159 2956 
Q 1356 3278 1631 3431 
Q 1906 3584 2284 3584 
Q 2666 3584 2933 3390 
Q 3200 3197 3328 2828 
z
" transform="scale(0.015625)"/>
       <path id="DejaVuSans-65" d="M 3597 1894 
L 3597 1613 
L 953 1613 
Q 991 1019 1311 708 
Q 1631 397 2203 397 
Q 2534 397 2845 478 
Q 3156 559 3463 722 
L 3463 178 
Q 3153 47 2828 -22 
Q 2503 -91 2169 -91 
Q 1331 -91 842 396 
Q 353 884 353 1716 
Q 353 2575 817 3079 
Q 1281 3584 2069 3584 
Q 2775 3584 3186 3129 
Q 3597 2675 3597 1894 
z
M 3022 2063 
Q 3016 2534 2758 2815 
Q 2500 3097 2075 3097 
Q 1594 3097 1305 2825 
Q 1016 2553 972 2059 
L 3022 2063 
z
" transform="scale(0.015625)"/>
       <path id="DejaVuSans-20" transform="scale(0.015625)"/>
       <path id="DejaVuSans-5b" d="M 550 4863 
L 1875 4863 
L 1875 4416 
L 1125 4416 
L 1125 -397 
L 1875 -397 
L 1875 -844 
L 550 -844 
L 550 4863 
z
" transform="scale(0.015625)"/>
       <path id="DejaVuSans-73" d="M 2834 3397 
L 2834 2853 
Q 2591 2978 2328 3040 
Q 2066 3103 1784 3103 
Q 1356 3103 1142 2972 
Q 928 2841 928 2578 
Q 928 2378 1081 2264 
Q 1234 2150 1697 2047 
L 1894 2003 
Q 2506 1872 2764 1633 
Q 3022 1394 3022 966 
Q 3022 478 2636 193 
Q 2250 -91 1575 -91 
Q 1294 -91 989 -36 
Q 684 19 347 128 
L 347 722 
Q 666 556 975 473 
Q 1284 391 1588 391 
Q 1994 391 2212 530 
Q 2431 669 2431 922 
Q 2431 1156 2273 1281 
Q 2116 1406 1581 1522 
L 1381 1569 
Q 847 1681 609 1914 
Q 372 2147 372 2553 
Q 372 3047 722 3315 
Q 1072 3584 1716 3584 
Q 2034 3584 2315 3537 
Q 2597 3491 2834 3397 
z
" transform="scale(0.015625)"/>
       <path id="DejaVuSans-5d" d="M 1947 4863 
L 1947 -844 
L 622 -844 
L 622 -397 
L 1369 -397 
L 1369 4416 
L 622 4416 
L 622 4863 
L 1947 4863 
z
" transform="scale(0.015625)"/>
      </defs>
      <use xlink:href="#DejaVuSans-74"/>
      <use xlink:href="#DejaVuSans-69" x="39.208984"/>
      <use xlink:href="#DejaVuSans-6d" x="66.992188"/>
      <use xlink:href="#DejaVuSans-65" x="164.404297"/>
      <use xlink:href="#DejaVuSans-20" x="225.927734"/>
      <use xlink:href="#DejaVuSans-5b" x="257.714844"/>
      <use xlink:href="#DejaVuSans-6d" x="296.728516"/>
      <use xlink:href="#DejaVuSans-73" x="394.140625"/>
      <use xlink:href="#DejaVuSans-5d" x="446.240234"/>
     </g>
    </g>
   </g>
   <g id="matplotlib.axis_2">
    <g id="ytick_1">
     <g id="line2d_6">
      <defs>
       <path id="m14c0122a6d" d="M 0 0 
L -3.5 0 
" style="stroke: #000000; stroke-width: 0.8"/>
      </defs>
      <g>
       <use xlink:href="#m14c0122a6d" x="63" y="382.295315" style="stroke: #000000; stroke-width: 0.8"/>
      </g>
     </g>
     <g id="text_7">
      <!-- −80 -->
      <g transform="translate(34.895313 386.094533)scale(0.1 -0.1)">
       <defs>
        <path id="DejaVuSans-2212" d="M 678 2272 
L 4684 2272 
L 4684 1741 
L 678 1741 
L 678 2272 
z
" transform="scale(0.015625)"/>
       </defs>
       <use xlink:href="#DejaVuSans-2212"/>
       <use xlink:href="#DejaVuSans-38" x="83.789062"/>
       <use xlink:href="#DejaVuSans-30" x="147.412109"/>
      </g>
     </g>
    </g>
    <g id="ytick_2">
     <g id="line2d_7">
      <g>
       <use xlink:href="#m14c0122a6d" x="63" y="329.597056" style="stroke: #000000; stroke-width: 0.8"/>
      </g>
     </g>
     <g id="text_8">
      <!-- −60 -->
      <g transform="translate(34.895313 333.396274)scale(0.1 -0.1)">
       <use xlink:href="#DejaVuSans-2212"/>
       <use xlink:href="#DejaVuSans-36" x="83.789062"/>
       <use xlink:href="#DejaVuSans-30" x="147.412109"/>
      </g>
     </g>
    </g>
    <g id="ytick_3">
     <g id="line2d_8">
      <g>
       <use xlink:href="#m14c0122a6d" x="63" y="276.898797" style="stroke: #000000; stroke-width: 0.8"/>
      </g>
     </g>
     <g id="text_9">
      <!-- −40 -->
      <g transform="translate(34.895313 280.698016)scale(0.1 -0.1)">
       <use xlink:href="#DejaVuSans-2212"/>
       <use xlink:href="#DejaVuSans-34" x="83.789062"/>
       <use xlink:href="#DejaVuSans-30" x="147.412109"/>
      </g>
     </g>
    </g>
    <g id="ytick_4">
     <g id="line2d_9">
      <g>
       <use xlink:href="#m14c0122a6d" x="63" y="224.200538" style="stroke: #000000; stroke-width: 0.8"/>
      </g>
     </g>
     <g id="text_10">
      <!-- −20 -->
      <g transform="translate(34.895313 227.999757)scale(0.1 -0.1)">
       <use xlink:href="#DejaVuSans-2212"/>
       <use xlink:href="#DejaVuSans-32" x="83.789062"/>
       <use xlink:href="#DejaVuSans-30" x="147.412109"/>
      </g>
     </g>
    </g>
    <g id="ytick_5">
     <g id="line2d_10">
      <g>
       <use xlink:href="#m14c0122a6d" x="63" y="171.502279" style="stroke: #000000; stroke-width: 0.8"/>
      </g>
     </g>
     <g id="text_11">
      <!-- 0 -->
      <g transform="translate(49.6375 175.301498)scale(0.1 -0.1)">
       <use xlink:href="#DejaVuSans-30"/>
      </g>
     </g>
    </g>
    <g id="ytick_6">
     <g id="line2d_11">
      <g>
       <use xlink:href="#m14c0122a6d" x="63" y="118.80402" style="stroke: #000000; stroke-width: 0.8"/>
      </g>
     </g>
     <g id="text_12">
      <!-- 20 -->
      <g transform="translate(43.275 122.603239)scale(0.1 -0.1)">
       <use xlink:href="#DejaVuSans-32"/>
       <use xlink:href="#DejaVuSans-30" x="63.623047"/>
      </g>
     </g>
    </g>
    <g id="ytick_7">
     <g id="line2d_12">
      <g>
       <use xlink:href="#m14c0122a6d" x="63" y="66.105761" style="stroke: #000000; stroke-width: 0.8"/>
      </g>
     </g>
     <g id="text_13">
      <!-- 40 -->
      <g transform="translate(43.275 69.90498)scale(0.1 -0.1)">
       <use xlink:href="#DejaVuSans-34"/>
       <use xlink:href="#DejaVuSans-30" x="63.623047"/>
      </g>
     </g>
    </g>
    <g id="text_14">
     <!-- voltage [mV] -->
     <g transform="translate(28.815625 250.624062)rotate(-90)scale(0.1 -0.1)">
      <defs>
       <path id="DejaVuSans-76" d="M 191 3500 
L 800 3500 
L 1894 563 
L 2988 3500 
L 3597 3500 
L 2284 0 
L 1503 0 
L 191 3500 
z
" transform="scale(0.015625)"/>
       <path id="DejaVuSans-6f" d="M 1959 3097 
Q 1497 3097 1228 2736 
Q 959 2375 959 1747 
Q 959 1119 1226 758 
Q 1494 397 1959 397 
Q 2419 397 2687 759 
Q 2956 1122 2956 1747 
Q 2956 2369 2687 2733 
Q 2419 3097 1959 3097 
z
M 1959 3584 
Q 2709 3584 3137 3096 
Q 3566 2609 3566 1747 
Q 3566 888 3137 398 
Q 2709 -91 1959 -91 
Q 1206 -91 779 398 
Q 353 888 353 1747 
Q 353 2609 779 3096 
Q 1206 3584 1959 3584 
z
" transform="scale(0.015625)"/>
       <path id="DejaVuSans-6c" d="M 603 4863 
L 1178 4863 
L 1178 0 
L 603 0 
L 603 4863 
z
" transform="scale(0.015625)"/>
       <path id="DejaVuSans-61" d="M 2194 1759 
Q 1497 1759 1228 1600 
Q 959 1441 959 1056 
Q 959 750 1161 570 
Q 1363 391 1709 391 
Q 2188 391 2477 730 
Q 2766 1069 2766 1631 
L 2766 1759 
L 2194 1759 
z
M 3341 1997 
L 3341 0 
L 2766 0 
L 2766 531 
Q 2569 213 2275 61 
Q 1981 -91 1556 -91 
Q 1019 -91 701 211 
Q 384 513 384 1019 
Q 384 1609 779 1909 
Q 1175 2209 1959 2209 
L 2766 2209 
L 2766 2266 
Q 2766 2663 2505 2880 
Q 2244 3097 1772 3097 
Q 1472 3097 1187 3025 
Q 903 2953 641 2809 
L 641 3341 
Q 956 3463 1253 3523 
Q 1550 3584 1831 3584 
Q 2591 3584 2966 3190 
Q 3341 2797 3341 1997 
z
" transform="scale(0.015625)"/>
       <path id="DejaVuSans-67" d="M 2906 1791 
Q 2906 2416 2648 2759 
Q 2391 3103 1925 3103 
Q 1463 3103 1205 2759 
Q 947 2416 947 1791 
Q 947 1169 1205 825 
Q 1463 481 1925 481 
Q 2391 481 2648 825 
Q 2906 1169 2906 1791 
z
M 3481 434 
Q 3481 -459 3084 -895 
Q 2688 -1331 1869 -1331 
Q 1566 -1331 1297 -1286 
Q 1028 -1241 775 -1147 
L 775 -588 
Q 1028 -725 1275 -790 
Q 1522 -856 1778 -856 
Q 2344 -856 2625 -561 
Q 2906 -266 2906 331 
L 2906 616 
Q 2728 306 2450 153 
Q 2172 0 1784 0 
Q 1141 0 747 490 
Q 353 981 353 1791 
Q 353 2603 747 3093 
Q 1141 3584 1784 3584 
Q 2172 3584 2450 3431 
Q 2728 3278 2906 2969 
L 2906 3500 
L 3481 3500 
L 3481 434 
z
" transform="scale(0.015625)"/>
       <path id="DejaVuSans-56" d="M 1831 0 
L 50 4666 
L 709 4666 
L 2188 738 
L 3669 4666 
L 4325 4666 
L 2547 0 
L 1831 0 
z
" transform="scale(0.015625)"/>
      </defs>
      <use xlink:href="#DejaVuSans-76"/>
      <use xlink:href="#DejaVuSans-6f" x="59.179688"/>
      <use xlink:href="#DejaVuSans-6c" x="120.361328"/>
      <use xlink:href="#DejaVuSans-74" x="148.144531"/>
      <use xlink:href="#DejaVuSans-61" x="187.353516"/>
      <use xlink:href="#DejaVuSans-67" x="248.632812"/>
      <use xlink:href="#DejaVuSans-65" x="312.109375"/>
      <use xlink:href="#DejaVuSans-20" x="373.632812"/>
      <use xlink:href="#DejaVuSans-5b" x="405.419922"/>
      <use xlink:href="#DejaVuSans-6d" x="444.433594"/>
      <use xlink:href="#DejaVuSans-56" x="541.845703"/>
      <use xlink:href="#DejaVuSans-5d" x="610.253906"/>
     </g>
    </g>
   </g>
   <g id="line2d_13">
    <path d="M 80.754545 342.77162 
L 81.952977 342.634868 
L 83.763941 342.691783 
L 87.749836 342.69916 
L 151.772727 342.702322 
L 152.314241 298.009456 
L 152.420768 249.188998 
L 152.562805 66.96 
L 152.678209 92.273609 
L 153.565936 369.36 
L 153.610323 369.259083 
L 153.8145 367.874963 
L 154.293873 363.103136 
L 154.959668 353.947077 
L 157.42755 314.90768 
L 157.613973 303.73802 
L 157.738255 281.688805 
L 157.835905 218.894087 
L 157.969064 91.413837 
L 158.031205 104.616331 
L 158.883423 368.933935 
L 158.945564 368.749754 
L 159.203005 366.76303 
L 159.717886 361.068456 
L 160.534595 349.095939 
L 161.8218 330.896595 
L 162.514227 320.490533 
L 162.771668 312.941244 
L 162.940336 300.904171 
L 163.064618 272.831282 
L 163.162268 188.110478 
L 163.268795 92.337637 
L 163.322059 101.887089 
L 163.863573 297.730155 
L 164.147645 368.756605 
L 164.183155 368.902052 
L 164.245295 368.71998 
L 164.493859 366.809141 
L 165.008741 361.134329 
L 165.834327 349.038234 
L 167.112655 330.971426 
L 167.813959 320.454962 
L 168.0714 312.895924 
L 168.240068 300.819327 
L 168.36435 272.584127 
L 168.462 187.362031 
L 168.568527 92.41484 
L 168.621791 102.110002 
L 169.172182 301.697017 
L 169.4385 368.670443 
L 169.482886 368.899944 
L 169.545027 368.713919 
L 169.802468 366.719027 
L 170.31735 361.006535 
L 171.151814 348.74813 
L 172.430141 330.727697 
L 173.113691 320.436517 
L 173.371132 312.859298 
L 173.5398 300.723153 
L 173.664082 272.24475 
L 173.761732 186.206332 
L 173.868259 92.431703 
L 173.921523 102.346881 
L 174.480791 305.783766 
L 174.729355 368.560567 
L 174.782618 368.899944 
L 174.844759 368.709703 
L 175.1022 366.711649 
L 175.617082 360.995732 
L 176.451545 348.735219 
L 177.729873 330.716894 
L 178.413423 320.419654 
L 178.670864 312.8232 
L 178.839532 300.625661 
L 178.963814 271.896415 
L 179.061464 185.0168 
L 179.167991 92.449094 
L 179.221255 102.586394 
L 179.7894 309.974069 
L 180.029086 368.572952 
L 180.08235 368.900208 
L 180.144491 368.705224 
L 180.401932 366.704271 
L 180.916814 360.985193 
L 181.751277 348.722835 
L 183.029605 330.706354 
L 183.713155 320.402527 
L 183.970595 312.786838 
L 184.139264 300.527115 
L 184.263545 271.539911 
L 184.361195 183.806348 
L 184.467723 92.473072 
L 184.520986 102.829597 
L 185.098009 314.256593 
L 185.328818 368.585072 
L 185.382082 368.900208 
L 185.444223 368.701008 
L 185.701664 366.69663 
L 186.216545 360.974653 
L 187.051009 348.710187 
L 188.329336 330.695814 
L 189.012886 320.385664 
L 189.270327 312.750213 
L 189.438995 300.426988 
L 189.563277 271.178137 
L 189.660927 182.591073 
L 189.767455 92.502846 
L 189.820718 103.075171 
L 190.406618 318.611577 
L 190.619673 368.450692 
L 190.681814 368.899944 
L 190.743955 368.696529 
L 191.010273 366.60757 
L 191.525155 360.848704 
L 192.368495 348.423509 
L 193.637945 330.569339 
L 194.312618 320.368273 
L 194.570059 312.713588 
L 194.738727 300.326335 
L 194.863009 270.812938 
L 194.969536 167.960561 
L 195.058309 92.489408 
L 195.12045 103.32338 
L 195.715227 323.012935 
L 195.919405 368.466238 
L 195.981545 368.899944 
L 196.043686 368.69205 
L 196.310005 366.599929 
L 196.833764 360.722228 
L 197.703736 347.86359 
L 198.955432 330.32719 
L 199.61235 320.351146 
L 199.869791 312.676435 
L 200.038459 300.224627 
L 200.162741 270.440362 
L 200.269268 166.692351 
L 200.358041 92.459897 
L 200.420182 103.575804 
L 201.023836 327.423516 
L 201.219136 368.480993 
L 201.281277 368.899417 
L 201.343418 368.68757 
L 201.609736 366.592287 
L 202.133495 360.711162 
L 202.994591 347.987431 
L 204.255164 330.316387 
L 204.912082 320.333492 
L 205.169523 312.638756 
L 205.338191 300.121339 
L 205.462473 270.060144 
L 205.569 165.41563 
L 205.657773 92.4375 
L 205.719914 103.830073 
L 206.332445 331.7951 
L 206.518868 368.495749 
L 206.581009 368.899154 
L 206.634273 368.729729 
L 206.873959 366.907687 
L 207.388841 361.27477 
L 208.187795 349.618969 
L 209.510509 330.88342 
L 210.202936 320.501073 
L 210.460377 312.99526 
L 210.629045 301.088352 
L 210.753327 273.540864 
L 210.850977 190.680941 
L 210.957505 92.422218 
L 211.019645 104.085396 
L 211.641055 336.073408 
L 211.827477 368.641986 
L 211.880741 368.898627 
L 211.934005 368.725513 
L 212.182568 366.820207 
L 212.69745 361.150138 
L 213.514159 349.194484 
L 214.810241 330.872617 
L 215.502668 320.483946 
L 215.760109 312.959161 
L 215.928777 300.99165 
L 216.053059 273.20017 
L 216.150709 189.497338 
L 216.257236 92.415894 
L 216.319377 104.340192 
L 216.949664 340.194676 
L 217.127209 368.652526 
L 217.171595 368.899154 
L 217.233736 368.721297 
L 217.4823 366.81283 
L 217.997182 361.139599 
L 218.822768 349.044558 
L 220.101095 330.977223 
L 220.8024 320.466819 
L 221.059841 312.923327 
L 221.228509 300.895213 
L 221.352791 272.858158 
L 221.450441 188.314315 
L 221.556968 92.416421 
L 221.610232 101.924241 
L 222.151745 297.785752 
L 222.426941 368.662539 
L 222.471327 368.899417 
L 222.533468 368.717081 
L 222.782032 366.805452 
L 223.296914 361.129059 
L 224.1225 349.031647 
L 225.418582 330.735865 
L 226.111009 320.263931 
L 226.36845 312.488829 
L 226.537118 299.70634 
L 226.652523 272.513511 
L 226.750173 187.126575 
L 226.8567 92.422481 
L 226.909964 102.1627 
L 227.460355 301.772639 
L 227.726673 368.672288 
L 227.771059 368.899944 
L 227.8332 368.712865 
L 228.090641 366.717182 
L 228.605523 361.003901 
L 229.439986 348.744968 
L 230.718314 330.725062 
L 231.401864 320.432565 
L 231.659305 312.850867 
L 231.827973 300.701019 
L 231.952255 272.166493 
L 232.049905 185.938625 
L 232.156432 92.435392 
L 232.209695 102.400897 
L 232.768964 305.86255 
L 233.017527 368.563466 
L 233.070791 368.899944 
L 233.132932 368.70865 
L 233.390373 366.709805 
L 233.905255 360.993361 
L 234.739718 348.732321 
L 236.018045 330.714522 
L 236.701595 320.415702 
L 236.959036 312.815032 
L 237.127705 300.603528 
L 237.251986 271.816313 
L 237.349636 184.743876 
L 237.456164 92.453837 
L 237.509427 102.641464 
L 238.077573 310.055224 
L 238.317259 368.575586 
L 238.370523 368.900208 
L 238.432664 368.704434 
L 238.690105 366.702427 
L 239.204986 360.982821 
L 240.03945 348.719936 
L 241.317777 330.703983 
L 242.001327 320.398838 
L 242.258768 312.77867 
L 242.427436 300.504455 
L 242.551718 271.457965 
L 242.649368 183.530604 
L 242.755895 92.479395 
L 242.809159 102.885194 
L 243.386182 314.339592 
L 243.616991 368.587707 
L 243.670255 368.900208 
L 243.732395 368.699954 
L 243.989836 366.695049 
L 244.504718 360.972282 
L 245.348059 348.570273 
L 246.617509 330.69318 
L 247.301059 320.381711 
L 247.5585 312.742045 
L 247.727168 300.404065 
L 247.85145 271.095665 
L 247.9491 182.314144 
L 248.055627 92.510751 
L 248.108891 103.131294 
L 248.694791 318.696421 
L 248.907845 368.45438 
L 248.969986 368.899944 
L 249.032127 368.695738 
L 249.298445 366.605989 
L 249.822205 360.73066 
L 250.692177 347.873602 
L 251.943873 330.335622 
L 252.600791 320.364321 
L 252.858232 312.705156 
L 253.0269 300.303148 
L 253.151182 270.728621 
L 253.257709 167.671827 
L 253.346482 92.48203 
L 253.408623 103.380821 
L 254.0034 323.09936 
L 254.207577 368.469663 
L 254.269718 368.899681 
L 254.331859 368.691259 
L 254.598177 366.598348 
L 255.121936 360.719593 
L 255.983032 347.997443 
L 257.22585 330.556164 
L 257.900523 320.347194 
L 258.157964 312.668004 
L 258.326632 300.201176 
L 258.450914 270.3542 
L 258.557441 166.401009 
L 258.646214 92.4541 
L 258.708355 103.634036 
L 259.312009 327.509941 
L 259.507309 368.484418 
L 259.56945 368.899417 
L 259.631591 368.686516 
L 259.897909 366.590443 
L 260.421668 360.70879 
L 261.291641 347.848044 
L 262.525582 330.545361 
L 263.200255 320.32954 
L 263.457695 312.630324 
L 263.626364 300.097624 
L 263.750645 269.972665 
L 263.857173 165.123761 
L 263.945945 92.433284 
L 264.008086 103.888305 
L 264.620618 331.880208 
L 264.807041 368.499174 
L 264.869182 368.89889 
L 264.922445 368.728938 
L 265.171009 366.826004 
L 265.685891 361.15857 
L 266.511477 349.067218 
L 267.807559 330.76564 
L 268.499986 320.312149 
L 268.757427 312.592645 
L 268.926095 299.994072 
L 269.050377 269.591129 
L 269.156905 163.856025 
L 269.245677 92.42011 
L 269.298941 101.503972 
L 269.8227 290.196939 
L 270.133405 368.811411 
L 270.168914 368.898627 
L 270.222177 368.724722 
L 270.470741 366.818626 
L 270.985623 361.147767 
L 271.802332 349.191586 
L 273.098414 330.870246 
L 273.790841 320.479993 
L 274.048282 312.950993 
L 274.21695 300.969781 
L 274.341232 273.122176 
L 274.438882 189.226574 
L 274.545409 92.41563 
L 274.598673 101.740851 
L 275.131309 293.978303 
L 275.424259 368.749227 
L 275.459768 368.899154 
L 275.521909 368.720507 
L 275.770473 366.811249 
L 276.285355 361.137227 
L 277.110941 349.041659 
L 278.389268 330.974852 
L 279.090573 320.462867 
L 279.348014 312.914895 
L 279.516682 300.873079 
L 279.640964 272.779637 
L 279.738614 188.043446 
L 279.845141 92.416948 
L 279.898405 101.978784 
L 280.439918 297.861901 
L 280.715114 368.664646 
L 280.7595 368.899681 
L 280.821641 368.716291 
L 281.079082 366.722979 
L 281.593964 361.012069 
L 282.428427 348.754717 
L 283.706755 330.73323 
L 284.390305 320.44574 
L 284.647745 312.878797 
L 284.816414 300.776114 
L 284.940695 272.434464 
L 285.038345 186.855601 
L 285.144873 92.424853 
L 285.198136 102.21698 
L 285.748527 301.849841 
L 286.014845 368.674396 
L 286.059232 368.899944 
L 286.121373 368.711811 
L 286.378814 366.715601 
L 286.893695 361.001529 
L 287.728159 348.74207 
L 289.006486 330.722691 
L 289.690036 320.428876 
L 289.947477 312.842698 
L 290.116145 300.678886 
L 290.240427 272.086919 
L 290.338077 185.666754 
L 290.444605 92.439081 
L 290.497868 102.455439 
L 291.057136 305.942125 
L 291.3057 368.566364 
L 291.358964 368.900208 
L 291.421105 368.707596 
L 291.678545 366.708224 
L 292.193427 360.99099 
L 293.027891 348.729422 
L 294.315095 330.596478 
L 294.989768 320.411749 
L 295.247209 312.8066 
L 295.415877 300.581131 
L 295.540159 271.735158 
L 295.637809 184.46808 
L 295.744336 92.459107 
L 295.7976 102.696797 
L 296.365745 310.136906 
L 296.605432 368.578485 
L 296.658695 368.900208 
L 296.720836 368.70338 
L 296.978277 366.700846 
L 297.493159 360.98045 
L 298.327623 348.717038 
L 299.60595 330.701611 
L 300.2895 320.394886 
L 300.546941 312.770238 
L 300.715609 300.481531 
L 300.839891 271.375756 
L 300.937541 183.254465 
L 301.044068 92.485983 
L 301.097332 102.94079 
L 301.674355 314.422592 
L 301.905164 368.590342 
L 301.958427 368.900208 
L 302.020568 368.699164 
L 302.286886 366.611786 
L 302.810645 360.738828 
L 303.671741 348.020104 
L 304.914559 330.575399 
L 305.589232 320.377759 
L 305.846673 312.733613 
L 306.015341 300.381404 
L 306.139623 271.012928 
L 306.24615 168.647219 
L 306.334923 92.508116 
L 306.397064 103.187682 
L 306.982964 318.781265 
L 307.196018 368.457806 
L 307.258159 368.899944 
L 307.3203 368.694684 
L 307.586618 366.604145 
L 308.110377 360.728025 
L 308.971473 348.007456 
L 310.214291 330.564596 
L 310.888964 320.360632 
L 311.146405 312.696724 
L 311.315073 300.280224 
L 311.439355 270.64404 
L 311.545882 167.384121 
L 311.634655 92.47518 
L 311.696795 103.437998 
L 312.291573 323.185259 
L 312.49575 368.473088 
L 312.557891 368.899681 
L 312.620032 368.690205 
L 312.88635 366.596503 
L 313.410109 360.717222 
L 314.280082 347.857793 
L 315.531777 330.322184 
L 316.188695 320.342978 
L 316.446136 312.659308 
L 316.614805 300.177726 
L 316.739086 270.268302 
L 316.845614 166.110773 
L 316.934386 92.44883 
L 316.996527 103.69174 
L 317.600182 327.596103 
L 317.795482 368.487844 
L 317.857623 368.899417 
L 317.910886 368.7321 
L 318.150573 366.911639 
L 318.665455 361.280566 
L 319.464409 349.625819 
L 320.787123 330.889481 
L 321.488427 320.325588 
L 321.745868 312.621629 
L 321.914536 300.07391 
L 322.038818 269.885449 
L 322.145345 164.833288 
L 322.234118 92.429596 
L 322.296259 103.946537 
L 322.908791 331.965052 
L 323.095214 368.502599 
L 323.157355 368.89889 
L 323.210618 368.727884 
L 323.459182 366.824423 
L 323.974064 361.155935 
L 324.790773 349.201335 
L 326.095732 330.763005 
L 326.779282 320.493168 
L 327.036723 312.978923 
L 327.205391 301.044349 
L 327.329673 273.385667 
L 327.427323 190.141311 
L 327.53385 92.418265 
L 327.595991 104.201596 
L 328.2174 336.2373 
L 328.403823 368.646729 
L 328.457086 368.898363 
L 328.51035 368.723669 
L 328.758914 366.816782 
L 329.273795 361.145395 
L 329.318182 360.568086 
L 329.335936 361.472915 
L 329.531236 365.485361 
L 329.620009 365.674284 
L 329.664395 365.616579 
L 329.815309 365.006333 
L 330.214786 362.173538 
L 332.176664 347.333445 
L 332.869091 344.093293 
L 333.428359 342.428555 
L 333.889977 341.681293 
L 334.262823 341.45311 
L 334.609036 341.489999 
L 335.061777 341.78063 
L 336.553159 342.876753 
L 337.156814 342.973982 
L 338.097805 342.863315 
L 339.580309 342.667805 
L 342.092577 342.704167 
L 435.845455 342.702322 
L 435.845455 342.702322 
" clip-path="url(#pc876888dc8)" style="fill: none; stroke: #1f77b4; stroke-width: 1.5; stroke-linecap: square"/>
   </g>
   <g id="line2d_14">
    <path d="M 80.754545 342.77162 
L 81.686659 342.594029 
L 82.893968 342.601937 
L 85.94775 342.686171 
L 94.709618 342.673426 
L 151.772727 342.673547 
L 152.314241 297.983296 
L 152.420768 249.1102 
L 152.562805 66.991828 
L 152.678209 92.334909 
L 153.565936 369.353586 
L 153.610323 369.251523 
L 153.8145 367.864954 
L 154.293873 363.087815 
L 154.959668 353.926504 
L 157.42755 314.904909 
L 157.613973 303.742632 
L 157.738255 281.712959 
L 157.835905 218.990084 
L 157.969064 91.426905 
L 158.031205 104.603949 
L 158.883423 368.927503 
L 158.954441 368.695306 
L 159.238514 366.426369 
L 159.762273 360.476015 
L 160.658877 347.16533 
L 161.883941 330.077814 
L 162.523105 320.305798 
L 162.780545 312.557845 
L 162.949214 299.867631 
L 163.073495 269.070009 
L 163.180023 162.027868 
L 163.268795 92.352334 
L 163.322059 101.781556 
L 163.863573 297.558785 
L 164.147645 368.746814 
L 164.183155 368.895317 
L 164.245295 368.715063 
L 164.493859 366.803451 
L 165.008741 361.12541 
L 165.82545 349.163938 
L 167.121532 330.851701 
L 167.813959 320.462621 
L 168.0714 312.923627 
L 168.240068 300.904472 
L 168.36435 272.896169 
L 168.462 188.443915 
L 168.568527 92.426268 
L 168.621791 101.906887 
L 169.163305 297.737721 
L 169.447377 368.748025 
L 169.482886 368.893186 
L 169.545027 368.710704 
L 169.793591 366.797108 
L 170.308473 361.116409 
L 171.125182 349.153176 
L 172.421264 330.843219 
L 173.113691 320.451173 
L 173.371132 312.90158 
L 173.5398 300.847949 
L 173.664082 272.699529 
L 173.761732 187.773424 
L 173.868259 92.433617 
L 173.921523 102.046865 
L 174.471914 301.582996 
L 174.738232 368.661059 
L 174.782618 368.893213 
L 174.844759 368.708056 
L 175.1022 366.711858 
L 175.617082 360.99534 
L 176.451545 348.734161 
L 177.729873 330.721367 
L 178.413423 320.440989 
L 178.670864 312.880197 
L 178.839532 300.790719 
L 178.963814 272.496022 
L 179.061464 187.072865 
L 179.167991 92.438773 
L 179.221255 102.187802 
L 179.771645 301.784335 
L 180.037964 368.666772 
L 180.08235 368.893342 
L 180.144491 368.705518 
L 180.401932 366.707421 
L 180.916814 360.989052 
L 181.751277 348.72666 
L 183.029605 330.715054 
L 183.713155 320.430904 
L 183.970595 312.858861 
L 184.139264 300.733397 
L 184.263545 272.29158 
L 184.361195 186.373188 
L 184.467723 92.446054 
L 184.520986 102.328004 
L 185.080255 305.731858 
L 185.328818 368.552929 
L 185.382082 368.893471 
L 185.444223 368.70302 
L 185.701664 366.703052 
L 186.216545 360.98286 
L 187.051009 348.719276 
L 188.329336 330.708837 
L 189.012886 320.420965 
L 189.270327 312.837731 
L 189.438995 300.676383 
L 189.563277 272.087349 
L 189.660927 185.67493 
L 189.767455 92.454801 
L 189.820718 102.468118 
L 190.379986 305.935787 
L 190.62855 368.56032 
L 190.681814 368.893574 
L 190.743955 368.700529 
L 191.001395 366.698707 
L 191.516277 360.976703 
L 192.350741 348.711937 
L 193.629068 330.702654 
L 194.312618 320.411068 
L 194.570059 312.816597 
L 194.738727 300.619101 
L 194.863009 271.881872 
L 194.960659 184.973515 
L 195.067186 92.465549 
L 195.12045 102.609346 
L 195.688595 309.982837 
L 195.928282 368.567502 
L 195.981545 368.8936 
L 196.043686 368.698005 
L 196.301127 366.694343 
L 196.816009 360.970522 
L 197.650473 348.704569 
L 198.919923 330.811846 
L 199.61235 320.401108 
L 199.869791 312.795307 
L 200.038459 300.561072 
L 200.162741 271.672465 
L 200.260391 184.261968 
L 200.366918 92.479104 
L 200.420182 102.752333 
L 200.997205 314.115096 
L 201.228014 368.574623 
L 201.281277 368.893585 
L 201.343418 368.695446 
L 201.600859 366.689938 
L 202.115741 360.964282 
L 202.950205 348.697135 
L 204.219655 330.805576 
L 204.912082 320.391051 
L 205.169523 312.773805 
L 205.338191 300.502359 
L 205.462473 271.460234 
L 205.560123 183.544387 
L 205.66665 92.494781 
L 205.719914 102.896542 
L 206.296936 314.331008 
L 206.527745 368.581721 
L 206.581009 368.893557 
L 206.64315 368.692874 
L 206.909468 366.603951 
L 207.433227 360.72695 
L 208.294323 348.005392 
L 209.546018 330.452812 
L 210.211814 320.380925 
L 210.469255 312.752125 
L 210.637923 300.443097 
L 210.762205 271.245842 
L 210.859855 182.824382 
L 210.966382 92.512534 
L 211.019645 103.041915 
L 211.605545 318.535495 
L 211.8186 368.442042 
L 211.880741 368.893512 
L 211.942882 368.690293 
L 212.2092 366.599485 
L 212.732959 360.720622 
L 213.594055 347.997939 
L 214.84575 330.446498 
L 215.511545 320.370789 
L 215.768986 312.73042 
L 215.937655 300.383731 
L 216.061936 271.030887 
L 216.168464 168.717014 
L 216.257236 92.525752 
L 216.319377 103.188191 
L 216.905277 318.756291 
L 217.118332 368.451218 
L 217.180473 368.893417 
L 217.242614 368.68767 
L 217.508932 366.594969 
L 218.032691 360.714225 
L 218.902664 347.853786 
L 220.145482 330.440124 
L 220.811277 320.360574 
L 221.068718 312.708553 
L 221.237386 300.323907 
L 221.361668 270.813389 
L 221.468195 167.970323 
L 221.556968 92.505352 
L 221.619109 103.336009 
L 222.213886 323.005719 
L 222.418064 368.460273 
L 222.480205 368.89327 
L 222.542345 368.68501 
L 222.808664 366.590416 
L 223.332423 360.707776 
L 224.202395 347.8462 
L 225.445214 330.433707 
L 226.111009 320.350307 
L 226.36845 312.686584 
L 226.537118 300.263715 
L 226.6614 270.593344 
L 226.767927 167.219581 
L 226.8567 92.487279 
L 226.918841 103.485282 
L 227.513618 323.230133 
L 227.717795 368.46919 
L 227.779936 368.893072 
L 227.842077 368.682321 
L 228.108395 366.585836 
L 228.632155 360.701291 
L 229.502127 347.838575 
L 230.744945 330.427254 
L 231.410741 320.339966 
L 231.668182 312.664431 
L 231.83685 300.202902 
L 231.961132 270.370048 
L 232.067659 166.462202 
L 232.156432 92.471091 
L 232.218573 103.636186 
L 232.822227 327.487499 
L 233.017527 368.47804 
L 233.079668 368.892848 
L 233.141809 368.679615 
L 233.408127 366.581238 
L 233.931886 360.69478 
L 234.801859 347.83092 
L 236.044677 330.420772 
L 236.710473 320.329557 
L 236.967914 312.642082 
L 237.136582 300.141375 
L 237.260864 270.143617 
L 237.367391 165.70197 
L 237.456164 92.457685 
L 237.518305 103.787375 
L 238.121959 327.712273 
L 238.317259 368.486799 
L 238.3794 368.892616 
L 238.432664 368.723636 
L 238.67235 366.899921 
L 239.187232 361.263039 
L 239.995064 349.466788 
L 241.3089 330.876234 
L 242.010205 320.319185 
L 242.267645 312.619773 
L 242.436314 300.079836 
L 242.560595 269.916935 
L 242.667123 164.945813 
L 242.755895 92.446815 
L 242.818036 103.938305 
L 243.430568 331.927618 
L 243.616991 368.495441 
L 243.679132 368.892375 
L 243.732395 368.721159 
L 243.980959 366.815634 
L 244.495841 361.142781 
L 245.31255 349.18483 
L 246.608632 330.869856 
L 247.309936 320.308906 
L 247.567377 312.597662 
L 247.736045 300.018808 
L 247.860327 269.691989 
L 247.966855 164.197762 
L 248.055627 92.438635 
L 248.108891 101.454601 
L 248.623773 286.735516 
L 248.943355 368.803707 
L 248.978864 368.892087 
L 249.032127 368.718661 
L 249.280691 366.811191 
L 249.795573 361.136455 
L 250.612282 349.177234 
L 251.908364 330.863475 
L 252.600791 320.483602 
L 252.858232 312.970172 
L 253.0269 301.032006 
L 253.151182 273.351673 
L 253.248832 190.029187 
L 253.355359 92.433385 
L 253.4175 104.23985 
L 254.038909 336.266224 
L 254.225332 368.641893 
L 254.278595 368.891756 
L 254.331859 368.716149 
L 254.580423 366.806746 
L 255.095305 361.130126 
L 255.912014 349.169638 
L 257.208095 330.857097 
L 257.900523 320.473481 
L 258.157964 312.948865 
L 258.326632 300.974962 
L 258.450914 273.150066 
L 258.548564 189.329935 
L 258.655091 92.431544 
L 258.708355 101.734665 
L 259.240991 293.946859 
L 259.533941 368.742525 
L 259.56945 368.892748 
L 259.631591 368.713634 
L 259.880155 366.802333 
L 260.395036 361.123846 
L 261.211745 349.162102 
L 262.507827 330.85077 
L 263.200255 320.463407 
L 263.457695 312.927602 
L 263.626364 300.917975 
L 263.750645 272.94824 
L 263.848295 188.631564 
L 263.954823 92.431651 
L 264.008086 101.87479 
L 264.5496 297.692996 
L 264.833673 368.746841 
L 264.869182 368.892959 
L 264.931323 368.711114 
L 265.179886 366.797926 
L 265.694768 361.117574 
L 266.511477 349.154577 
L 267.807559 330.844442 
L 268.499986 320.453291 
L 268.757427 312.906224 
L 268.926095 300.860618 
L 269.050377 272.744817 
L 269.148027 187.929811 
L 269.254555 92.433323 
L 269.307818 102.015835 
L 269.849332 297.890271 
L 270.124527 368.65976 
L 270.168914 368.89316 
L 270.231055 368.708598 
L 270.488495 366.712817 
L 271.003377 360.9967 
L 271.837841 348.735784 
L 273.116168 330.722737 
L 273.799718 320.443191 
L 274.057159 312.884867 
L 274.225827 300.803278 
L 274.350109 272.540808 
L 274.447759 187.227253 
L 274.554286 92.437481 
L 274.60755 102.156898 
L 275.157941 301.74026 
L 275.424259 368.665525 
L 275.468645 368.893314 
L 275.530786 368.706072 
L 275.788227 366.70839 
L 276.303109 360.990424 
L 277.137573 348.728297 
L 278.4159 330.716432 
L 279.09945 320.433108 
L 279.356891 312.863533 
L 279.525559 300.745957 
L 279.649841 272.336433 
L 279.747491 186.526544 
L 279.854018 92.44427 
L 279.907282 102.297229 
L 280.46655 305.68702 
L 280.715114 368.551284 
L 280.768377 368.893445 
L 280.830518 368.703569 
L 281.087959 366.704012 
L 281.602841 360.984219 
L 282.437305 348.720898 
L 283.715632 330.710202 
L 284.399182 320.423146 
L 284.656623 312.842369 
L 284.825291 300.688916 
L 284.949573 272.132262 
L 285.047223 185.828372 
L 285.15375 92.452754 
L 285.207014 102.437302 
L 285.766282 305.890956 
L 286.014845 368.558721 
L 286.068109 368.893559 
L 286.13025 368.701077 
L 286.387691 366.699659 
L 286.902573 360.978053 
L 287.737036 348.713545 
L 289.015364 330.70401 
L 289.698914 320.413242 
L 289.956355 312.821246 
L 290.125023 300.631742 
L 290.249305 271.927261 
L 290.346955 185.128273 
L 290.453482 92.462908 
L 290.506745 102.578203 
L 291.074891 309.936768 
L 291.314577 368.565935 
L 291.367841 368.8936 
L 291.429982 368.698564 
L 291.687423 366.695307 
L 292.202305 360.971886 
L 293.036768 348.706195 
L 294.306218 330.813217 
L 294.998645 320.403306 
L 295.256086 312.800004 
L 295.424755 300.573891 
L 295.549036 271.71878 
L 295.646686 184.418941 
L 295.753214 92.475933 
L 295.806477 102.720812 
L 296.374623 310.147309 
L 296.614309 368.57306 
L 296.667573 368.893589 
L 296.729714 368.696009 
L 296.987155 366.690906 
L 297.502036 360.965654 
L 298.3365 348.698769 
L 299.60595 330.806954 
L 300.298377 320.393265 
L 300.555818 312.778542 
L 300.724486 300.5153 
L 300.848768 271.507028 
L 300.946418 183.701948 
L 301.052945 92.491176 
L 301.106209 102.864855 
L 301.683232 314.283601 
L 301.914041 368.580166 
L 301.967305 368.893563 
L 302.029445 368.693437 
L 302.295764 366.604927 
L 302.819523 360.728334 
L 303.680618 348.007022 
L 304.932314 330.454193 
L 305.598109 320.383144 
L 305.85555 312.756878 
L 306.024218 300.456096 
L 306.1485 271.292881 
L 306.24615 182.982298 
L 306.352677 92.508464 
L 306.405941 103.009936 
L 306.991841 318.487223 
L 307.204895 368.440017 
L 307.267036 368.893525 
L 307.329177 368.690862 
L 307.595495 366.600467 
L 308.119255 360.722013 
L 308.98035 347.999577 
L 310.232045 330.447886 
L 310.897841 320.373015 
L 311.155282 312.735185 
L 311.32395 300.396765 
L 311.448232 271.078124 
L 311.545882 182.261894 
L 311.652409 92.528089 
L 311.705673 103.1561 
L 312.291573 318.707929 
L 312.504627 368.44922 
L 312.566768 368.893443 
L 312.628909 368.688248 
L 312.895227 366.595961 
L 313.418986 360.71563 
L 314.280082 347.992061 
L 315.531777 330.441523 
L 316.197573 320.362813 
L 316.455014 312.713342 
L 316.623682 300.337009 
L 316.747964 270.861029 
L 316.854491 168.133489 
L 316.943264 92.509632 
L 317.005405 103.303643 
L 317.600182 322.95695 
L 317.804359 368.458315 
L 317.8665 368.893306 
L 317.928641 368.685591 
L 318.194959 366.591409 
L 318.718718 360.709182 
L 319.588691 347.847854 
L 320.831509 330.435107 
L 321.497305 320.352547 
L 321.754745 312.69138 
L 321.923414 300.276874 
L 322.047695 270.641533 
L 322.154223 167.38322 
L 322.242995 92.490968 
L 322.305136 103.452677 
L 322.899914 323.181274 
L 323.104091 368.467263 
L 323.166232 368.893121 
L 323.228373 368.68291 
L 323.494691 366.586836 
L 324.01845 360.702706 
L 324.888423 347.840239 
L 326.131241 330.428662 
L 326.797036 320.342224 
L 327.054477 312.669271 
L 327.223145 300.216194 
L 327.347427 270.418928 
L 327.453955 166.627687 
L 327.542727 92.474425 
L 327.604868 103.603188 
L 328.208523 327.438408 
L 328.403823 368.476119 
L 328.465964 368.892899 
L 328.528105 368.680205 
L 328.794423 366.58224 
L 329.318182 360.6962 
L 329.353691 362.364161 
L 329.548991 365.654566 
L 329.611132 365.755485 
L 329.664395 365.689478 
L 329.815309 365.066671 
L 330.214786 362.221009 
L 332.167786 347.390341 
L 332.860214 344.120337 
L 333.419482 342.432657 
L 333.8811 341.668301 
L 334.253945 341.428568 
L 334.609036 341.460894 
L 335.070655 341.757281 
L 336.544282 342.844364 
L 337.174568 342.94618 
L 338.097805 342.835817 
L 339.882136 342.626209 
L 342.314509 342.67957 
L 349.132255 342.67406 
L 435.845455 342.673547 
L 435.845455 342.673547 
" clip-path="url(#pc876888dc8)" style="fill: none; stroke: #ff0000; stroke-width: 1.5; stroke-linecap: square"/>
   </g>
   <g id="patch_3">
    <path d="M 63 384.48 
L 63 51.84 
" style="fill: none; stroke: #000000; stroke-width: 0.8; stroke-linejoin: miter; stroke-linecap: square"/>
   </g>
   <g id="patch_4">
    <path d="M 453.6 384.48 
L 453.6 51.84 
" style="fill: none; stroke: #000000; stroke-width: 0.8; stroke-linejoin: miter; stroke-linecap: square"/>
   </g>
   <g id="patch_5">
    <path d="M 63 384.48 
L 453.6 384.48 
" style="fill: none; stroke: #000000; stroke-width: 0.8; stroke-linejoin: miter; stroke-linecap: square"/>
   </g>
   <g id="patch_6">
    <path d="M 63 51.84 
L 453.6 51.84 
" style="fill: none; stroke: #000000; stroke-width: 0.8; stroke-linejoin: miter; stroke-linecap: square"/>
   </g>
   <g id="legend_1">
    <g id="patch_7">
     <path d="M 383.460938 89.19625 
L 446.6 89.19625 
Q 448.6 89.19625 448.6 87.19625 
L 448.6 58.84 
Q 448.6 56.84 446.6 56.84 
L 383.460938 56.84 
Q 381.460938 56.84 381.460938 58.84 
L 381.460938 87.19625 
Q 381.460938 89.19625 383.460938 89.19625 
z
" style="fill: #ffffff; opacity: 0.8; stroke: #cccccc; stroke-linejoin: miter"/>
    </g>
    <g id="line2d_15">
     <path d="M 385.460938 64.938437 
L 395.460938 64.938437 
L 405.460938 64.938437 
" style="fill: none; stroke: #1f77b4; stroke-width: 1.5; stroke-linecap: square"/>
    </g>
    <g id="text_15">
     <!-- target -->
     <g transform="translate(413.460938 68.438437)scale(0.1 -0.1)">
      <defs>
       <path id="DejaVuSans-72" d="M 2631 2963 
Q 2534 3019 2420 3045 
Q 2306 3072 2169 3072 
Q 1681 3072 1420 2755 
Q 1159 2438 1159 1844 
L 1159 0 
L 581 0 
L 581 3500 
L 1159 3500 
L 1159 2956 
Q 1341 3275 1631 3429 
Q 1922 3584 2338 3584 
Q 2397 3584 2469 3576 
Q 2541 3569 2628 3553 
L 2631 2963 
z
" transform="scale(0.015625)"/>
      </defs>
      <use xlink:href="#DejaVuSans-74"/>
      <use xlink:href="#DejaVuSans-61" x="39.208984"/>
      <use xlink:href="#DejaVuSans-72" x="100.488281"/>
      <use xlink:href="#DejaVuSans-67" x="139.851562"/>
      <use xlink:href="#DejaVuSans-65" x="203.328125"/>
      <use xlink:href="#DejaVuSans-74" x="264.851562"/>
     </g>
    </g>
    <g id="line2d_16">
     <path d="M 385.460938 79.616562 
L 395.460938 79.616562 
L 405.460938 79.616562 
" style="fill: none; stroke: #ff0000; stroke-width: 1.5; stroke-linecap: square"/>
    </g>
    <g id="text_16">
     <!-- model -->
     <g transform="translate(413.460938 83.116562)scale(0.1 -0.1)">
      <defs>
       <path id="DejaVuSans-64" d="M 2906 2969 
L 2906 4863 
L 3481 4863 
L 3481 0 
L 2906 0 
L 2906 525 
Q 2725 213 2448 61 
Q 2172 -91 1784 -91 
Q 1150 -91 751 415 
Q 353 922 353 1747 
Q 353 2572 751 3078 
Q 1150 3584 1784 3584 
Q 2172 3584 2448 3432 
Q 2725 3281 2906 2969 
z
M 947 1747 
Q 947 1113 1208 752 
Q 1469 391 1925 391 
Q 2381 391 2643 752 
Q 2906 1113 2906 1747 
Q 2906 2381 2643 2742 
Q 2381 3103 1925 3103 
Q 1469 3103 1208 2742 
Q 947 2381 947 1747 
z
" transform="scale(0.015625)"/>
      </defs>
      <use xlink:href="#DejaVuSans-6d"/>
      <use xlink:href="#DejaVuSans-6f" x="97.412109"/>
      <use xlink:href="#DejaVuSans-64" x="158.59375"/>
      <use xlink:href="#DejaVuSans-65" x="222.070312"/>
      <use xlink:href="#DejaVuSans-6c" x="283.59375"/>
     </g>
    </g>
   </g>
  </g>
 </g>
 <defs>
  <clipPath id="pc876888dc8">
   <rect x="63" y="51.84" width="390.6" height="332.64"/>
  </clipPath>
 </defs>
</svg>
