<?xml version="1.0" encoding="utf-8" standalone="no"?>
<!DOCTYPE svg PUBLIC "-//W3C//DTD SVG 1.1//EN"
  "http://www.w3.org/Graphics/SVG/1.1/DTD/svg11.dtd">
<svg xmlns:xlink="http://www.w3.org/1999/xlink" width="504pt" height="432pt" viewBox="0 0 504 432" xmlns="http://www.w3.org/2000/svg" version="1.1">
 <metadata>
  <rdf:RDF xmlns:dc="http://purl.org/dc/elements/1.1/" xmlns:cc="http://creativecommons.org/ns#" xmlns:rdf="http://www.w3.org/1999/02/22-rdf-syntax-ns#">
   <cc:Work>
    <dc:type rdf:resource="http://purl.org/dc/dcmitype/StillImage"/>
    <dc:date>2022-01-30T23:46:22.845956</dc:date>
    <dc:format>image/svg+xml</dc:format>
    <dc:creator>
     <cc:Agent>
      <dc:title>Matplotlib v3.5.1, https://matplotlib.org/</dc:title>
     </cc:Agent>
    </dc:creator>
   </cc:Work>
  </rdf:RDF>
 </metadata>
 <defs>
  <style type="text/css">*{stroke-linejoin: round; stroke-linecap: butt}</style>
 </defs>
 <g id="figure_1">
  <g id="patch_1">
   <path d="M 0 432 
L 504 432 
L 504 0 
L 0 0 
z
" style="fill: #ffffff"/>
  </g>
  <g id="axes_1">
   <g id="patch_2">
    <path d="M 63 384.48 
L 453.6 384.48 
L 453.6 51.84 
L 63 51.84 
z
" style="fill: #ffffff"/>
   </g>
   <g id="matplotlib.axis_1">
    <g id="xtick_1">
     <g id="line2d_1">
      <defs>
       <path id="m25509318cd" d="M 0 0 
L 0 3.5 
" style="stroke: #000000; stroke-width: 0.8"/>
      </defs>
      <g>
       <use xlink:href="#m25509318cd" x="80.754545" y="384.48" style="stroke: #000000; stroke-width: 0.8"/>
      </g>
     </g>
     <g id="text_1">
      <!-- 0 -->
      <g transform="translate(77.573295 399.078438)scale(0.1 -0.1)">
       <defs>
        <path id="DejaVuSans-30" d="M 2034 4250 
Q 1547 4250 1301 3770 
Q 1056 3291 1056 2328 
Q 1056 1369 1301 889 
Q 1547 409 2034 409 
Q 2525 409 2770 889 
Q 3016 1369 3016 2328 
Q 3016 3291 2770 3770 
Q 2525 4250 2034 4250 
z
M 2034 4750 
Q 2819 4750 3233 4129 
Q 3647 3509 3647 2328 
Q 3647 1150 3233 529 
Q 2819 -91 2034 -91 
Q 1250 -91 836 529 
Q 422 1150 422 2328 
Q 422 3509 836 4129 
Q 1250 4750 2034 4750 
z
" transform="scale(0.015625)"/>
       </defs>
       <use xlink:href="#DejaVuSans-30"/>
      </g>
     </g>
    </g>
    <g id="xtick_2">
     <g id="line2d_2">
      <g>
       <use xlink:href="#m25509318cd" x="151.772727" y="384.48" style="stroke: #000000; stroke-width: 0.8"/>
      </g>
     </g>
     <g id="text_2">
      <!-- 200 -->
      <g transform="translate(142.228977 399.078438)scale(0.1 -0.1)">
       <defs>
        <path id="DejaVuSans-32" d="M 1228 531 
L 3431 531 
L 3431 0 
L 469 0 
L 469 531 
Q 828 903 1448 1529 
Q 2069 2156 2228 2338 
Q 2531 2678 2651 2914 
Q 2772 3150 2772 3378 
Q 2772 3750 2511 3984 
Q 2250 4219 1831 4219 
Q 1534 4219 1204 4116 
Q 875 4013 500 3803 
L 500 4441 
Q 881 4594 1212 4672 
Q 1544 4750 1819 4750 
Q 2544 4750 2975 4387 
Q 3406 4025 3406 3419 
Q 3406 3131 3298 2873 
Q 3191 2616 2906 2266 
Q 2828 2175 2409 1742 
Q 1991 1309 1228 531 
z
" transform="scale(0.015625)"/>
       </defs>
       <use xlink:href="#DejaVuSans-32"/>
       <use xlink:href="#DejaVuSans-30" x="63.623047"/>
       <use xlink:href="#DejaVuSans-30" x="127.246094"/>
      </g>
     </g>
    </g>
    <g id="xtick_3">
     <g id="line2d_3">
      <g>
       <use xlink:href="#m25509318cd" x="222.790909" y="384.48" style="stroke: #000000; stroke-width: 0.8"/>
      </g>
     </g>
     <g id="text_3">
      <!-- 400 -->
      <g transform="translate(213.247159 399.078438)scale(0.1 -0.1)">
       <defs>
        <path id="DejaVuSans-34" d="M 2419 4116 
L 825 1625 
L 2419 1625 
L 2419 4116 
z
M 2253 4666 
L 3047 4666 
L 3047 1625 
L 3713 1625 
L 3713 1100 
L 3047 1100 
L 3047 0 
L 2419 0 
L 2419 1100 
L 313 1100 
L 313 1709 
L 2253 4666 
z
" transform="scale(0.015625)"/>
       </defs>
       <use xlink:href="#DejaVuSans-34"/>
       <use xlink:href="#DejaVuSans-30" x="63.623047"/>
       <use xlink:href="#DejaVuSans-30" x="127.246094"/>
      </g>
     </g>
    </g>
    <g id="xtick_4">
     <g id="line2d_4">
      <g>
       <use xlink:href="#m25509318cd" x="293.809091" y="384.48" style="stroke: #000000; stroke-width: 0.8"/>
      </g>
     </g>
     <g id="text_4">
      <!-- 600 -->
      <g transform="translate(284.265341 399.078438)scale(0.1 -0.1)">
       <defs>
        <path id="DejaVuSans-36" d="M 2113 2584 
Q 1688 2584 1439 2293 
Q 1191 2003 1191 1497 
Q 1191 994 1439 701 
Q 1688 409 2113 409 
Q 2538 409 2786 701 
Q 3034 994 3034 1497 
Q 3034 2003 2786 2293 
Q 2538 2584 2113 2584 
z
M 3366 4563 
L 3366 3988 
Q 3128 4100 2886 4159 
Q 2644 4219 2406 4219 
Q 1781 4219 1451 3797 
Q 1122 3375 1075 2522 
Q 1259 2794 1537 2939 
Q 1816 3084 2150 3084 
Q 2853 3084 3261 2657 
Q 3669 2231 3669 1497 
Q 3669 778 3244 343 
Q 2819 -91 2113 -91 
Q 1303 -91 875 529 
Q 447 1150 447 2328 
Q 447 3434 972 4092 
Q 1497 4750 2381 4750 
Q 2619 4750 2861 4703 
Q 3103 4656 3366 4563 
z
" transform="scale(0.015625)"/>
       </defs>
       <use xlink:href="#DejaVuSans-36"/>
       <use xlink:href="#DejaVuSans-30" x="63.623047"/>
       <use xlink:href="#DejaVuSans-30" x="127.246094"/>
      </g>
     </g>
    </g>
    <g id="xtick_5">
     <g id="line2d_5">
      <g>
       <use xlink:href="#m25509318cd" x="364.827273" y="384.48" style="stroke: #000000; stroke-width: 0.8"/>
      </g>
     </g>
     <g id="text_5">
      <!-- 800 -->
      <g transform="translate(355.283523 399.078438)scale(0.1 -0.1)">
       <defs>
        <path id="DejaVuSans-38" d="M 2034 2216 
Q 1584 2216 1326 1975 
Q 1069 1734 1069 1313 
Q 1069 891 1326 650 
Q 1584 409 2034 409 
Q 2484 409 2743 651 
Q 3003 894 3003 1313 
Q 3003 1734 2745 1975 
Q 2488 2216 2034 2216 
z
M 1403 2484 
Q 997 2584 770 2862 
Q 544 3141 544 3541 
Q 544 4100 942 4425 
Q 1341 4750 2034 4750 
Q 2731 4750 3128 4425 
Q 3525 4100 3525 3541 
Q 3525 3141 3298 2862 
Q 3072 2584 2669 2484 
Q 3125 2378 3379 2068 
Q 3634 1759 3634 1313 
Q 3634 634 3220 271 
Q 2806 -91 2034 -91 
Q 1263 -91 848 271 
Q 434 634 434 1313 
Q 434 1759 690 2068 
Q 947 2378 1403 2484 
z
M 1172 3481 
Q 1172 3119 1398 2916 
Q 1625 2713 2034 2713 
Q 2441 2713 2670 2916 
Q 2900 3119 2900 3481 
Q 2900 3844 2670 4047 
Q 2441 4250 2034 4250 
Q 1625 4250 1398 4047 
Q 1172 3844 1172 3481 
z
" transform="scale(0.015625)"/>
       </defs>
       <use xlink:href="#DejaVuSans-38"/>
       <use xlink:href="#DejaVuSans-30" x="63.623047"/>
       <use xlink:href="#DejaVuSans-30" x="127.246094"/>
      </g>
     </g>
    </g>
    <g id="text_6">
     <!-- time [ms] -->
     <g transform="translate(234.038281 412.756563)scale(0.1 -0.1)">
      <defs>
       <path id="DejaVuSans-74" d="M 1172 4494 
L 1172 3500 
L 2356 3500 
L 2356 3053 
L 1172 3053 
L 1172 1153 
Q 1172 725 1289 603 
Q 1406 481 1766 481 
L 2356 481 
L 2356 0 
L 1766 0 
Q 1100 0 847 248 
Q 594 497 594 1153 
L 594 3053 
L 172 3053 
L 172 3500 
L 594 3500 
L 594 4494 
L 1172 4494 
z
" transform="scale(0.015625)"/>
       <path id="DejaVuSans-69" d="M 603 3500 
L 1178 3500 
L 1178 0 
L 603 0 
L 603 3500 
z
M 603 4863 
L 1178 4863 
L 1178 4134 
L 603 4134 
L 603 4863 
z
" transform="scale(0.015625)"/>
       <path id="DejaVuSans-6d" d="M 3328 2828 
Q 3544 3216 3844 3400 
Q 4144 3584 4550 3584 
Q 5097 3584 5394 3201 
Q 5691 2819 5691 2113 
L 5691 0 
L 5113 0 
L 5113 2094 
Q 5113 2597 4934 2840 
Q 4756 3084 4391 3084 
Q 3944 3084 3684 2787 
Q 3425 2491 3425 1978 
L 3425 0 
L 2847 0 
L 2847 2094 
Q 2847 2600 2669 2842 
Q 2491 3084 2119 3084 
Q 1678 3084 1418 2786 
Q 1159 2488 1159 1978 
L 1159 0 
L 581 0 
L 581 3500 
L 1159 3500 
L 1159 2956 
Q 1356 3278 1631 3431 
Q 1906 3584 2284 3584 
Q 2666 3584 2933 3390 
Q 3200 3197 3328 2828 
z
" transform="scale(0.015625)"/>
       <path id="DejaVuSans-65" d="M 3597 1894 
L 3597 1613 
L 953 1613 
Q 991 1019 1311 708 
Q 1631 397 2203 397 
Q 2534 397 2845 478 
Q 3156 559 3463 722 
L 3463 178 
Q 3153 47 2828 -22 
Q 2503 -91 2169 -91 
Q 1331 -91 842 396 
Q 353 884 353 1716 
Q 353 2575 817 3079 
Q 1281 3584 2069 3584 
Q 2775 3584 3186 3129 
Q 3597 2675 3597 1894 
z
M 3022 2063 
Q 3016 2534 2758 2815 
Q 2500 3097 2075 3097 
Q 1594 3097 1305 2825 
Q 1016 2553 972 2059 
L 3022 2063 
z
" transform="scale(0.015625)"/>
       <path id="DejaVuSans-20" transform="scale(0.015625)"/>
       <path id="DejaVuSans-5b" d="M 550 4863 
L 1875 4863 
L 1875 4416 
L 1125 4416 
L 1125 -397 
L 1875 -397 
L 1875 -844 
L 550 -844 
L 550 4863 
z
" transform="scale(0.015625)"/>
       <path id="DejaVuSans-73" d="M 2834 3397 
L 2834 2853 
Q 2591 2978 2328 3040 
Q 2066 3103 1784 3103 
Q 1356 3103 1142 2972 
Q 928 2841 928 2578 
Q 928 2378 1081 2264 
Q 1234 2150 1697 2047 
L 1894 2003 
Q 2506 1872 2764 1633 
Q 3022 1394 3022 966 
Q 3022 478 2636 193 
Q 2250 -91 1575 -91 
Q 1294 -91 989 -36 
Q 684 19 347 128 
L 347 722 
Q 666 556 975 473 
Q 1284 391 1588 391 
Q 1994 391 2212 530 
Q 2431 669 2431 922 
Q 2431 1156 2273 1281 
Q 2116 1406 1581 1522 
L 1381 1569 
Q 847 1681 609 1914 
Q 372 2147 372 2553 
Q 372 3047 722 3315 
Q 1072 3584 1716 3584 
Q 2034 3584 2315 3537 
Q 2597 3491 2834 3397 
z
" transform="scale(0.015625)"/>
       <path id="DejaVuSans-5d" d="M 1947 4863 
L 1947 -844 
L 622 -844 
L 622 -397 
L 1369 -397 
L 1369 4416 
L 622 4416 
L 622 4863 
L 1947 4863 
z
" transform="scale(0.015625)"/>
      </defs>
      <use xlink:href="#DejaVuSans-74"/>
      <use xlink:href="#DejaVuSans-69" x="39.208984"/>
      <use xlink:href="#DejaVuSans-6d" x="66.992188"/>
      <use xlink:href="#DejaVuSans-65" x="164.404297"/>
      <use xlink:href="#DejaVuSans-20" x="225.927734"/>
      <use xlink:href="#DejaVuSans-5b" x="257.714844"/>
      <use xlink:href="#DejaVuSans-6d" x="296.728516"/>
      <use xlink:href="#DejaVuSans-73" x="394.140625"/>
      <use xlink:href="#DejaVuSans-5d" x="446.240234"/>
     </g>
    </g>
   </g>
   <g id="matplotlib.axis_2">
    <g id="ytick_1">
     <g id="line2d_6">
      <defs>
       <path id="mf8b567b0ca" d="M 0 0 
L -3.5 0 
" style="stroke: #000000; stroke-width: 0.8"/>
      </defs>
      <g>
       <use xlink:href="#mf8b567b0ca" x="63" y="381.539791" style="stroke: #000000; stroke-width: 0.8"/>
      </g>
     </g>
     <g id="text_7">
      <!-- −80 -->
      <g transform="translate(34.895313 385.33901)scale(0.1 -0.1)">
       <defs>
        <path id="DejaVuSans-2212" d="M 678 2272 
L 4684 2272 
L 4684 1741 
L 678 1741 
L 678 2272 
z
" transform="scale(0.015625)"/>
       </defs>
       <use xlink:href="#DejaVuSans-2212"/>
       <use xlink:href="#DejaVuSans-38" x="83.789062"/>
       <use xlink:href="#DejaVuSans-30" x="147.412109"/>
      </g>
     </g>
    </g>
    <g id="ytick_2">
     <g id="line2d_7">
      <g>
       <use xlink:href="#mf8b567b0ca" x="63" y="328.967794" style="stroke: #000000; stroke-width: 0.8"/>
      </g>
     </g>
     <g id="text_8">
      <!-- −60 -->
      <g transform="translate(34.895313 332.767013)scale(0.1 -0.1)">
       <use xlink:href="#DejaVuSans-2212"/>
       <use xlink:href="#DejaVuSans-36" x="83.789062"/>
       <use xlink:href="#DejaVuSans-30" x="147.412109"/>
      </g>
     </g>
    </g>
    <g id="ytick_3">
     <g id="line2d_8">
      <g>
       <use xlink:href="#mf8b567b0ca" x="63" y="276.395797" style="stroke: #000000; stroke-width: 0.8"/>
      </g>
     </g>
     <g id="text_9">
      <!-- −40 -->
      <g transform="translate(34.895313 280.195016)scale(0.1 -0.1)">
       <use xlink:href="#DejaVuSans-2212"/>
       <use xlink:href="#DejaVuSans-34" x="83.789062"/>
       <use xlink:href="#DejaVuSans-30" x="147.412109"/>
      </g>
     </g>
    </g>
    <g id="ytick_4">
     <g id="line2d_9">
      <g>
       <use xlink:href="#mf8b567b0ca" x="63" y="223.8238" style="stroke: #000000; stroke-width: 0.8"/>
      </g>
     </g>
     <g id="text_10">
      <!-- −20 -->
      <g transform="translate(34.895313 227.623018)scale(0.1 -0.1)">
       <use xlink:href="#DejaVuSans-2212"/>
       <use xlink:href="#DejaVuSans-32" x="83.789062"/>
       <use xlink:href="#DejaVuSans-30" x="147.412109"/>
      </g>
     </g>
    </g>
    <g id="ytick_5">
     <g id="line2d_10">
      <g>
       <use xlink:href="#mf8b567b0ca" x="63" y="171.251802" style="stroke: #000000; stroke-width: 0.8"/>
      </g>
     </g>
     <g id="text_11">
      <!-- 0 -->
      <g transform="translate(49.6375 175.051021)scale(0.1 -0.1)">
       <use xlink:href="#DejaVuSans-30"/>
      </g>
     </g>
    </g>
    <g id="ytick_6">
     <g id="line2d_11">
      <g>
       <use xlink:href="#mf8b567b0ca" x="63" y="118.679805" style="stroke: #000000; stroke-width: 0.8"/>
      </g>
     </g>
     <g id="text_12">
      <!-- 20 -->
      <g transform="translate(43.275 122.479024)scale(0.1 -0.1)">
       <use xlink:href="#DejaVuSans-32"/>
       <use xlink:href="#DejaVuSans-30" x="63.623047"/>
      </g>
     </g>
    </g>
    <g id="ytick_7">
     <g id="line2d_12">
      <g>
       <use xlink:href="#mf8b567b0ca" x="63" y="66.107808" style="stroke: #000000; stroke-width: 0.8"/>
      </g>
     </g>
     <g id="text_13">
      <!-- 40 -->
      <g transform="translate(43.275 69.907027)scale(0.1 -0.1)">
       <use xlink:href="#DejaVuSans-34"/>
       <use xlink:href="#DejaVuSans-30" x="63.623047"/>
      </g>
     </g>
    </g>
    <g id="text_14">
     <!-- voltage [mV] -->
     <g transform="translate(28.815625 250.624062)rotate(-90)scale(0.1 -0.1)">
      <defs>
       <path id="DejaVuSans-76" d="M 191 3500 
L 800 3500 
L 1894 563 
L 2988 3500 
L 3597 3500 
L 2284 0 
L 1503 0 
L 191 3500 
z
" transform="scale(0.015625)"/>
       <path id="DejaVuSans-6f" d="M 1959 3097 
Q 1497 3097 1228 2736 
Q 959 2375 959 1747 
Q 959 1119 1226 758 
Q 1494 397 1959 397 
Q 2419 397 2687 759 
Q 2956 1122 2956 1747 
Q 2956 2369 2687 2733 
Q 2419 3097 1959 3097 
z
M 1959 3584 
Q 2709 3584 3137 3096 
Q 3566 2609 3566 1747 
Q 3566 888 3137 398 
Q 2709 -91 1959 -91 
Q 1206 -91 779 398 
Q 353 888 353 1747 
Q 353 2609 779 3096 
Q 1206 3584 1959 3584 
z
" transform="scale(0.015625)"/>
       <path id="DejaVuSans-6c" d="M 603 4863 
L 1178 4863 
L 1178 0 
L 603 0 
L 603 4863 
z
" transform="scale(0.015625)"/>
       <path id="DejaVuSans-61" d="M 2194 1759 
Q 1497 1759 1228 1600 
Q 959 1441 959 1056 
Q 959 750 1161 570 
Q 1363 391 1709 391 
Q 2188 391 2477 730 
Q 2766 1069 2766 1631 
L 2766 1759 
L 2194 1759 
z
M 3341 1997 
L 3341 0 
L 2766 0 
L 2766 531 
Q 2569 213 2275 61 
Q 1981 -91 1556 -91 
Q 1019 -91 701 211 
Q 384 513 384 1019 
Q 384 1609 779 1909 
Q 1175 2209 1959 2209 
L 2766 2209 
L 2766 2266 
Q 2766 2663 2505 2880 
Q 2244 3097 1772 3097 
Q 1472 3097 1187 3025 
Q 903 2953 641 2809 
L 641 3341 
Q 956 3463 1253 3523 
Q 1550 3584 1831 3584 
Q 2591 3584 2966 3190 
Q 3341 2797 3341 1997 
z
" transform="scale(0.015625)"/>
       <path id="DejaVuSans-67" d="M 2906 1791 
Q 2906 2416 2648 2759 
Q 2391 3103 1925 3103 
Q 1463 3103 1205 2759 
Q 947 2416 947 1791 
Q 947 1169 1205 825 
Q 1463 481 1925 481 
Q 2391 481 2648 825 
Q 2906 1169 2906 1791 
z
M 3481 434 
Q 3481 -459 3084 -895 
Q 2688 -1331 1869 -1331 
Q 1566 -1331 1297 -1286 
Q 1028 -1241 775 -1147 
L 775 -588 
Q 1028 -725 1275 -790 
Q 1522 -856 1778 -856 
Q 2344 -856 2625 -561 
Q 2906 -266 2906 331 
L 2906 616 
Q 2728 306 2450 153 
Q 2172 0 1784 0 
Q 1141 0 747 490 
Q 353 981 353 1791 
Q 353 2603 747 3093 
Q 1141 3584 1784 3584 
Q 2172 3584 2450 3431 
Q 2728 3278 2906 2969 
L 2906 3500 
L 3481 3500 
L 3481 434 
z
" transform="scale(0.015625)"/>
       <path id="DejaVuSans-56" d="M 1831 0 
L 50 4666 
L 709 4666 
L 2188 738 
L 3669 4666 
L 4325 4666 
L 2547 0 
L 1831 0 
z
" transform="scale(0.015625)"/>
      </defs>
      <use xlink:href="#DejaVuSans-76"/>
      <use xlink:href="#DejaVuSans-6f" x="59.179688"/>
      <use xlink:href="#DejaVuSans-6c" x="120.361328"/>
      <use xlink:href="#DejaVuSans-74" x="148.144531"/>
      <use xlink:href="#DejaVuSans-61" x="187.353516"/>
      <use xlink:href="#DejaVuSans-67" x="248.632812"/>
      <use xlink:href="#DejaVuSans-65" x="312.109375"/>
      <use xlink:href="#DejaVuSans-20" x="373.632812"/>
      <use xlink:href="#DejaVuSans-5b" x="405.419922"/>
      <use xlink:href="#DejaVuSans-6d" x="444.433594"/>
      <use xlink:href="#DejaVuSans-56" x="541.845703"/>
      <use xlink:href="#DejaVuSans-5d" x="610.253906"/>
     </g>
    </g>
   </g>
   <g id="line2d_13">
    <path d="M 80.754545 342.110793 
L 81.952977 341.974369 
L 83.772818 342.03141 
L 85.965505 342.050336 
L 151.772727 342.041661 
L 152.314241 297.455876 
L 152.420768 248.752389 
L 152.562805 66.96 
L 152.678209 92.212959 
L 153.565936 368.635469 
L 153.610323 368.534794 
L 153.8145 367.15399 
L 154.293873 362.393596 
L 154.959668 353.259474 
L 157.42755 314.313613 
L 157.613973 303.170715 
L 157.738255 281.174329 
L 157.835905 218.530062 
L 157.969064 91.355247 
L 158.031205 104.526109 
L 158.883423 368.210424 
L 158.945564 368.026685 
L 159.203005 366.044721 
L 159.717886 360.363791 
L 160.534595 348.419959 
L 161.8218 330.26422 
L 162.514227 319.88309 
L 162.771668 312.351889 
L 162.940336 300.343656 
L 163.064618 272.338027 
L 163.162268 187.820209 
L 163.268795 92.276834 
L 163.322059 101.803405 
L 163.863573 297.177245 
L 164.147645 368.03352 
L 164.183155 368.178618 
L 164.245295 367.996982 
L 164.493859 366.090721 
L 165.008741 360.429506 
L 165.834327 348.362392 
L 167.112655 330.338872 
L 167.813959 319.847604 
L 168.0714 312.306677 
L 168.240068 300.259015 
L 168.36435 272.091465 
L 168.462 187.073555 
L 168.568527 92.353852 
L 168.621791 102.025785 
L 169.172182 301.134602 
L 169.4385 367.947564 
L 169.482886 368.176515 
L 169.545027 367.990936 
L 169.802468 366.000823 
L 170.31735 360.302019 
L 171.151814 348.072984 
L 172.430141 330.095726 
L 173.113691 319.829204 
L 173.371132 312.270139 
L 173.5398 300.163071 
L 173.664082 271.752901 
L 173.761732 185.920625 
L 173.868259 92.370675 
L 173.921523 102.262096 
L 174.480791 305.21156 
L 174.729355 367.837952 
L 174.782618 368.176515 
L 174.844759 367.98673 
L 175.1022 365.993463 
L 175.617082 360.291242 
L 176.451545 348.060104 
L 177.729873 330.084949 
L 178.413423 319.812381 
L 178.670864 312.234127 
L 178.839532 300.065813 
L 178.963814 271.4054 
L 179.061464 184.733944 
L 179.167991 92.388024 
L 179.221255 102.501036 
L 179.7894 309.391822 
L 180.029086 367.850306 
L 180.08235 368.176778 
L 180.144491 367.982262 
L 180.401932 365.986103 
L 180.916814 360.280727 
L 181.751277 348.047749 
L 183.029605 330.074435 
L 183.713155 319.795295 
L 183.970595 312.197853 
L 184.139264 299.967503 
L 184.263545 271.04975 
L 184.361195 183.526391 
L 184.467723 92.411944 
L 184.520986 102.743656 
L 185.098009 313.664086 
L 185.328818 367.862398 
L 185.382082 368.176778 
L 185.444223 367.978056 
L 185.701664 365.97848 
L 186.216545 360.270213 
L 187.051009 348.035132 
L 188.329336 330.06392 
L 189.012886 319.778472 
L 189.270327 312.161315 
L 189.438995 299.867617 
L 189.563277 270.688844 
L 189.660927 182.314028 
L 189.767455 92.441647 
L 189.820718 102.988641 
L 190.406618 318.008636 
L 190.619673 367.728339 
L 190.681814 368.176515 
L 190.743955 367.973587 
L 191.010273 365.889634 
L 191.525155 360.144566 
L 192.368495 347.74914 
L 193.637945 329.937747 
L 194.312618 319.761123 
L 194.570059 312.124778 
L 194.738727 299.767204 
L 194.863009 270.32452 
L 194.969536 167.71857 
L 195.058309 92.428241 
L 195.12045 103.236255 
L 195.715227 322.399449 
L 195.919405 367.743848 
L 195.981545 368.176515 
L 196.043686 367.969119 
L 196.310005 365.882011 
L 196.833764 360.018393 
L 197.703736 347.190563 
L 198.955432 329.696179 
L 199.61235 319.744037 
L 199.869791 312.087714 
L 200.038459 299.66574 
L 200.162741 269.952836 
L 200.269268 166.453399 
L 200.358041 92.398801 
L 200.420182 103.488075 
L 201.023836 326.799462 
L 201.219136 367.758568 
L 201.281277 368.17599 
L 201.343418 367.96465 
L 201.609736 365.874388 
L 202.133495 360.007353 
L 202.994591 347.314107 
L 204.255164 329.685402 
L 204.912082 319.726426 
L 205.169523 312.050125 
L 205.338191 299.562699 
L 205.462473 269.573529 
L 205.569 165.179737 
L 205.657773 92.376458 
L 205.719914 103.741735 
L 206.332445 331.160572 
L 206.518868 367.773288 
L 206.581009 368.175727 
L 206.634273 368.006708 
L 206.873959 366.189031 
L 207.388841 360.56961 
L 208.187795 348.941736 
L 209.510509 330.251077 
L 210.202936 319.893605 
L 210.460377 312.405775 
L 210.629045 300.527395 
L 210.753327 273.045909 
L 210.850977 190.384513 
L 210.957505 92.361212 
L 211.019645 103.996446 
L 211.641055 335.42863 
L 211.827477 367.919175 
L 211.880741 368.175201 
L 211.934005 368.002502 
L 212.182568 366.101762 
L 212.69745 360.445277 
L 213.514159 348.518268 
L 214.810241 330.240299 
L 215.502668 319.876519 
L 215.760109 312.369763 
L 215.928777 300.430925 
L 216.053059 272.706031 
L 216.150709 189.203746 
L 216.257236 92.354903 
L 216.319377 104.250632 
L 216.949664 339.540023 
L 217.127209 367.92969 
L 217.171595 368.175727 
L 217.233736 367.998296 
L 217.4823 366.094401 
L 217.997182 360.434763 
L 218.822768 348.368701 
L 220.101095 330.344655 
L 220.8024 319.859433 
L 221.059841 312.334014 
L 221.228509 300.334719 
L 221.352791 272.364839 
L 221.450441 188.023558 
L 221.556968 92.355429 
L 221.610232 101.840469 
L 222.151745 297.232708 
L 222.426941 367.939679 
L 222.471327 368.17599 
L 222.533468 367.994091 
L 222.782032 366.087041 
L 223.296914 360.424249 
L 224.1225 348.355821 
L 225.418582 330.103875 
L 226.111009 319.657031 
L 226.36845 311.900558 
L 226.537118 299.148694 
L 226.652523 272.021018 
L 226.750173 186.838664 
L 226.8567 92.361475 
L 226.909964 102.078357 
L 227.460355 301.210042 
L 227.726673 367.949404 
L 227.771059 368.176515 
L 227.8332 367.989885 
L 228.090641 365.998983 
L 228.605523 360.29939 
L 229.439986 348.069829 
L 230.718314 330.093098 
L 231.401864 319.825261 
L 231.659305 312.261728 
L 231.827973 300.140991 
L 231.952255 271.674832 
L 232.049905 185.653559 
L 232.156432 92.374355 
L 232.209695 102.315982 
L 232.768964 305.290155 
L 233.017527 367.840843 
L 233.070791 368.176515 
L 233.132932 367.985679 
L 233.390373 365.991623 
L 233.905255 360.288876 
L 234.739718 348.057212 
L 236.018045 330.082583 
L 236.701595 319.808438 
L 236.959036 312.225979 
L 237.127705 300.043733 
L 237.251986 271.325491 
L 237.349636 184.461673 
L 237.456164 92.392755 
L 237.509427 102.555974 
L 238.077573 309.472783 
L 238.317259 367.852935 
L 238.370523 368.176778 
L 238.432664 367.981473 
L 238.690105 365.984263 
L 239.204986 360.278361 
L 240.03945 348.044858 
L 241.317777 330.072069 
L 242.001327 319.791615 
L 242.258768 312.189704 
L 242.427436 299.944897 
L 242.551718 270.968001 
L 242.649368 183.251308 
L 242.755895 92.418253 
L 242.809159 102.799119 
L 243.386182 313.746887 
L 243.616991 367.865026 
L 243.670255 368.176778 
L 243.732395 367.977005 
L 243.989836 365.976903 
L 244.504718 360.267847 
L 245.348059 347.895553 
L 246.617509 330.061292 
L 247.301059 319.774529 
L 247.5585 312.153167 
L 247.727168 299.844748 
L 247.85145 270.606569 
L 247.9491 182.037763 
L 248.055627 92.449533 
L 248.108891 103.04463 
L 248.694791 318.093277 
L 248.907845 367.732019 
L 248.969986 368.176515 
L 249.032127 367.972799 
L 249.298445 365.888056 
L 249.822205 360.026804 
L 250.692177 347.200551 
L 251.943873 329.704591 
L 252.600791 319.75718 
L 252.858232 312.116366 
L 253.0269 299.744072 
L 253.151182 270.240405 
L 253.257709 167.430528 
L 253.346482 92.420881 
L 253.408623 103.293559 
L 254.0034 322.485667 
L 254.207577 367.747265 
L 254.269718 368.176253 
L 254.331859 367.96833 
L 254.598177 365.880433 
L 255.121936 360.015764 
L 255.983032 347.324096 
L 257.22585 329.924604 
L 257.900523 319.740094 
L 258.157964 312.079303 
L 258.326632 299.642345 
L 258.450914 269.866881 
L 258.557441 166.162754 
L 258.646214 92.393018 
L 258.708355 103.546167 
L 259.312009 326.88568 
L 259.507309 367.761985 
L 259.56945 368.17599 
L 259.631591 367.963599 
L 259.897909 365.872548 
L 260.421668 360.004987 
L 261.291641 347.175054 
L 262.525582 329.913827 
L 263.200255 319.722483 
L 263.457695 312.041714 
L 263.626364 299.539042 
L 263.750645 269.486259 
L 263.857173 164.888567 
L 263.945945 92.372252 
L 264.008086 103.799827 
L 264.620618 331.245476 
L 264.807041 367.776705 
L 264.869182 368.175464 
L 264.922445 368.005919 
L 265.171009 366.107544 
L 265.685891 360.453689 
L 266.511477 348.391307 
L 267.807559 330.133578 
L 268.499986 319.705134 
L 268.757427 312.004125 
L 268.926095 299.435738 
L 269.050377 269.105638 
L 269.156905 163.623868 
L 269.245677 92.359109 
L 269.298941 101.421207 
L 269.8227 289.662078 
L 270.133405 368.088194 
L 270.168914 368.175201 
L 270.222177 368.001714 
L 270.470741 366.100184 
L 270.985623 360.442912 
L 271.802332 348.515377 
L 273.098414 330.237934 
L 273.790841 319.872576 
L 274.048282 312.361615 
L 274.21695 300.409108 
L 274.341232 272.628225 
L 274.438882 188.933631 
L 274.545409 92.35464 
L 274.598673 101.657518 
L 275.131309 293.434381 
L 275.424259 368.026159 
L 275.459768 368.175727 
L 275.521909 367.997508 
L 275.770473 366.092824 
L 276.285355 360.432397 
L 277.110941 348.36581 
L 278.389268 330.342289 
L 279.090573 319.85549 
L 279.348014 312.325603 
L 279.516682 300.312638 
L 279.640964 272.286507 
L 279.738614 187.753337 
L 279.845141 92.355955 
L 279.898405 101.894881 
L 280.439918 297.308675 
L 280.715114 367.941781 
L 280.7595 368.176253 
L 280.821641 367.993302 
L 281.079082 366.004766 
L 281.593964 360.307539 
L 282.428427 348.079555 
L 283.706755 330.101246 
L 284.390305 319.838404 
L 284.647745 312.289591 
L 284.816414 300.215906 
L 284.940695 271.94216 
L 285.038345 186.568338 
L 285.144873 92.363841 
L 285.198136 102.132506 
L 285.748527 301.28706 
L 286.014845 367.951507 
L 286.059232 368.176515 
L 286.121373 367.988833 
L 286.378814 365.997406 
L 286.893695 360.297024 
L 287.728159 348.066938 
L 289.006486 330.090732 
L 289.690036 319.821581 
L 289.947477 312.253579 
L 290.116145 300.118911 
L 290.240427 271.595448 
L 290.338077 185.38234 
L 290.444605 92.378035 
L 290.497868 102.370394 
L 291.057136 305.369539 
L 291.3057 367.843735 
L 291.358964 368.176778 
L 291.421105 367.984628 
L 291.678545 365.990046 
L 292.193427 360.28651 
L 293.027891 348.054321 
L 294.315095 329.964822 
L 294.989768 319.804495 
L 295.247209 312.217567 
L 295.415877 300.02139 
L 295.540159 271.24453 
L 295.637809 184.186538 
L 295.744336 92.398012 
L 295.7976 102.611174 
L 296.365745 309.55427 
L 296.605432 367.855826 
L 296.658695 368.176778 
L 296.720836 367.980422 
L 296.978277 365.982686 
L 297.493159 360.275996 
L 298.327623 348.041966 
L 299.60595 330.069703 
L 300.2895 319.787672 
L 300.546941 312.181293 
L 300.715609 299.922029 
L 300.839891 270.885989 
L 300.937541 182.975831 
L 301.044068 92.424824 
L 301.097332 102.854583 
L 301.674355 313.829688 
L 301.905164 367.867655 
L 301.958427 368.176778 
L 302.020568 367.976216 
L 302.286886 365.893839 
L 302.810645 360.034953 
L 303.671741 347.346702 
L 304.914559 329.943793 
L 305.589232 319.770586 
L 305.846673 312.144755 
L 306.015341 299.822142 
L 306.139623 270.524031 
L 306.24615 168.403583 
L 306.334923 92.446904 
L 306.397064 103.100882 
L 306.982964 318.177917 
L 307.196018 367.735436 
L 307.258159 368.176515 
L 307.3203 367.971747 
L 307.586618 365.886216 
L 308.110377 360.024176 
L 308.971473 347.334084 
L 310.214291 329.933016 
L 310.888964 319.7535 
L 311.146405 312.107955 
L 311.315073 299.721203 
L 311.439355 270.156027 
L 311.545882 167.143511 
L 311.634655 92.414047 
L 311.696795 103.350599 
L 312.291573 322.571359 
L 312.49575 367.750682 
L 312.557891 368.176253 
L 312.620032 367.967279 
L 312.88635 365.878593 
L 313.410109 360.013399 
L 314.280082 347.18478 
L 315.531777 329.691185 
L 316.188695 319.735889 
L 316.446136 312.070629 
L 316.614805 299.618951 
L 316.739086 269.781188 
L 316.845614 165.873214 
L 316.934386 92.387761 
L 316.996527 103.603734 
L 317.600182 326.971635 
L 317.795482 367.765402 
L 317.857623 368.17599 
L 317.910886 368.009074 
L 318.150573 366.192974 
L 318.665455 360.575393 
L 319.464409 348.94857 
L 320.787123 330.257122 
L 321.488427 319.71854 
L 321.745868 312.03304 
L 321.914536 299.515384 
L 322.038818 269.399253 
L 322.145345 164.59879 
L 322.234118 92.368572 
L 322.296259 103.857919 
L 322.908791 331.330117 
L 323.095214 367.780123 
L 323.157355 368.175464 
L 323.210618 368.004868 
L 323.459182 366.105967 
L 323.974064 360.45106 
L 324.790773 348.525103 
L 326.095732 330.13095 
L 326.779282 319.885719 
L 327.036723 312.389478 
L 327.205391 300.483497 
L 327.329673 272.891085 
L 327.427323 189.846176 
L 327.53385 92.357269 
L 327.595991 104.112368 
L 328.2174 335.592129 
L 328.403823 367.923907 
L 328.457086 368.174938 
L 328.51035 368.000662 
L 328.758914 366.098344 
L 329.273795 360.440546 
L 329.318182 359.86462 
L 329.335936 360.767281 
L 329.531236 364.770113 
L 329.620009 364.958583 
L 329.664395 364.901017 
L 329.815309 364.292233 
L 330.214786 361.466226 
L 332.176664 346.661688 
L 332.869091 343.429299 
L 333.428359 341.76855 
L 333.889977 341.023079 
L 334.262823 340.795442 
L 334.609036 340.832242 
L 335.061777 341.122177 
L 336.553159 342.215675 
L 337.156814 342.31267 
L 338.097805 342.202269 
L 339.580309 342.007227 
L 342.101455 342.043501 
L 345.714505 342.039558 
L 435.845455 342.041661 
L 435.845455 342.041661 
" clip-path="url(#p556ea20e95)" style="fill: none; stroke: #1f77b4; stroke-width: 1.5; stroke-linecap: square"/>
   </g>
   <g id="line2d_14">
    <path d="M 80.754545 342.110793 
L 81.118514 333.063768 
L 81.704414 319.513637 
L 81.881959 308.08329 
L 81.997364 284.437104 
L 82.086136 207.022034 
L 82.192664 69.810186 
L 82.263682 81.024083 
L 82.601018 198.262008 
L 83.186918 369.36 
L 83.21355 369.304747 
L 83.399973 368.263143 
L 83.905977 364.185081 
L 84.722686 355.410636 
L 85.770205 344.852817 
L 86.489264 339.79728 
L 87.110673 336.865157 
L 87.625555 335.398395 
L 88.016155 334.85416 
L 88.335736 334.749625 
L 88.673073 334.891166 
L 89.409886 335.541403 
L 90.004664 335.891948 
L 90.555055 335.954036 
L 91.540432 335.779621 
L 92.676723 335.679359 
L 115.100714 335.734936 
L 151.772727 335.734938 
L 152.323118 291.180736 
L 152.420768 232.092394 
L 152.54505 73.985016 
L 152.633823 90.46292 
L 153.264109 313.787809 
L 153.486041 367.014589 
L 153.512673 367.075053 
L 153.557059 366.889868 
L 153.823377 364.429527 
L 154.4004 357.089785 
L 156.264627 331.770843 
L 157.383164 318.489909 
L 157.62285 312.011969 
L 157.782641 301.113129 
L 157.898045 276.330819 
L 157.995695 192.448159 
L 158.102223 91.919654 
L 158.155486 100.795971 
L 158.590473 253.285 
L 158.998827 366.715646 
L 159.043214 366.567242 
L 159.274023 364.446566 
L 159.851045 357.114877 
L 161.706395 331.949306 
L 162.904827 317.89004 
L 163.135636 311.439505 
L 163.295427 299.964766 
L 163.410832 272.892491 
L 163.508482 180.845765 
L 163.606132 92.720658 
L 163.659395 101.226452 
L 164.06775 245.201586 
L 164.502736 366.68748 
L 164.547123 366.531866 
L 164.786809 364.30622 
L 165.372709 356.796881 
L 167.165918 332.387482 
L 168.426491 317.519794 
L 168.6573 310.624824 
L 168.808214 298.813673 
L 168.923618 268.717992 
L 169.021268 166.616843 
L 169.110041 92.783289 
L 169.163305 101.302433 
L 169.571659 245.290383 
L 170.006645 366.68529 
L 170.051032 366.528175 
L 170.290718 364.300997 
L 170.876618 356.789843 
L 172.669827 332.382563 
L 173.9304 317.51488 
L 174.161209 310.615849 
L 174.312123 298.79111 
L 174.427527 268.637769 
L 174.525177 166.365959 
L 174.61395 92.787302 
L 174.667214 101.349521 
L 175.084445 248.206243 
L 175.510555 366.685116 
L 175.554941 366.526952 
L 175.794627 364.298932 
L 176.380527 356.787056 
L 178.164859 332.476891 
L 179.434309 317.511436 
L 179.665118 310.607989 
L 179.816032 298.769149 
L 179.931436 268.555784 
L 180.029086 166.102124 
L 180.117859 92.786981 
L 180.171123 101.394146 
L 180.588355 248.259907 
L 181.014464 366.685095 
L 181.05885 366.525923 
L 181.298536 364.29712 
L 181.884436 356.784609 
L 183.668768 332.47506 
L 184.938218 317.508121 
L 185.169027 310.600247 
L 185.319941 298.747318 
L 185.435345 268.473703 
L 185.532995 165.837138 
L 185.621768 92.786488 
L 185.675032 101.438501 
L 186.101141 251.17471 
L 186.518373 366.685085 
L 186.562759 366.524914 
L 186.802445 364.295336 
L 187.388345 356.782201 
L 189.172677 332.473257 
L 190.442127 317.504832 
L 190.672936 310.59255 
L 190.82385 298.725591 
L 190.939255 268.391819 
L 191.036905 165.57268 
L 191.125677 92.78616 
L 191.178941 101.482728 
L 191.60505 251.227857 
L 192.022282 366.685069 
L 192.066668 366.523909 
L 192.306355 364.293561 
L 192.892255 356.779805 
L 194.676586 332.471462 
L 195.946036 317.501552 
L 196.176845 310.584869 
L 196.327759 298.703902 
L 196.443164 268.310052 
L 196.540814 165.308897 
L 196.629586 92.786059 
L 196.68285 101.526978 
L 197.117836 254.14903 
L 197.526191 366.685046 
L 197.570577 366.522902 
L 197.810264 364.291788 
L 198.396164 356.777412 
L 200.180495 332.469671 
L 201.449945 317.498276 
L 201.671877 310.984297 
L 201.831668 298.682233 
L 201.947073 268.228346 
L 202.044723 165.046363 
L 202.133495 92.78614 
L 202.186759 101.571099 
L 202.621745 254.202145 
L 203.0301 366.685022 
L 203.074486 366.521899 
L 203.314173 364.290024 
L 203.900073 356.77503 
L 205.684405 332.467887 
L 206.953855 317.494998 
L 207.175786 310.976948 
L 207.335577 298.660494 
L 207.450982 268.14635 
L 207.548632 164.784087 
L 207.637405 92.786398 
L 207.690668 101.615165 
L 208.134532 257.134579 
L 208.534009 366.684991 
L 208.578395 366.5209 
L 208.818082 364.288268 
L 209.403982 356.772661 
L 211.188314 332.466112 
L 212.457764 317.491725 
L 212.679695 310.969606 
L 212.839486 298.638681 
L 212.954891 268.063732 
L 213.052541 164.521229 
L 213.141314 92.786837 
L 213.194577 101.659302 
L 213.638441 257.187766 
L 214.037918 366.684956 
L 214.082305 366.519901 
L 214.321991 364.286516 
L 214.907891 356.770297 
L 216.692223 332.46434 
L 217.961673 317.488445 
L 218.183605 310.96224 
L 218.343395 298.616752 
L 218.4588 267.980555 
L 218.55645 164.257125 
L 218.645223 92.78756 
L 218.698486 101.703638 
L 219.151227 260.137321 
L 219.541827 366.684916 
L 219.577336 366.570376 
L 219.781514 364.753446 
L 220.340782 357.78708 
L 222.347045 330.851033 
L 223.412318 318.487196 
L 223.660882 312.076903 
L 223.820673 301.7706 
L 223.944955 275.852356 
L 224.042605 191.921781 
L 224.149132 92.788606 
L 224.202395 101.748013 
L 224.655136 260.190891 
L 225.045736 366.684872 
L 225.081245 366.569493 
L 225.285423 364.751755 
L 225.844691 357.784767 
L 227.850955 330.84932 
L 228.916227 318.484298 
L 229.164791 312.070454 
L 229.324582 301.753161 
L 229.448864 275.787123 
L 229.546514 191.674296 
L 229.653041 92.789846 
L 229.706305 101.792525 
L 230.167923 263.16358 
L 230.549645 366.684821 
L 230.585155 366.568604 
L 230.789332 364.750057 
L 231.3486 357.782442 
L 233.345986 330.941049 
L 234.420136 318.48139 
L 234.6687 312.063983 
L 234.828491 301.73566 
L 234.952773 275.721649 
L 235.050423 191.425939 
L 235.15695 92.791327 
L 235.210214 101.837322 
L 235.671832 263.218077 
L 236.053555 366.684765 
L 236.089064 366.567708 
L 236.293241 364.748349 
L 236.852509 357.780105 
L 238.849895 330.939316 
L 239.924045 318.478472 
L 240.172609 312.057492 
L 240.3324 301.718109 
L 240.456682 275.655948 
L 240.554332 191.177417 
L 240.660859 92.793066 
L 240.714123 101.882093 
L 241.184618 266.220434 
L 241.557464 366.684707 
L 241.592973 366.566814 
L 241.79715 364.746647 
L 242.356418 357.777776 
L 244.353805 330.937587 
L 245.427955 318.475562 
L 245.676518 312.05102 
L 245.836309 301.700602 
L 245.960591 275.590383 
L 246.058241 190.92995 
L 246.164768 92.795031 
L 246.218032 101.926668 
L 246.688527 266.275007 
L 247.061373 366.684642 
L 247.096882 366.565923 
L 247.301059 364.744956 
L 247.860327 357.775462 
L 249.857714 330.935867 
L 250.931864 318.472659 
L 251.180427 312.044559 
L 251.340218 301.683116 
L 251.455623 278.872906 
L 251.553273 203.606256 
L 251.668677 92.797273 
L 251.730818 104.487251 
L 252.316718 314.537194 
L 252.53865 366.602313 
L 252.565282 366.68457 
L 252.618545 366.454935 
L 252.902618 363.689849 
L 253.51515 355.583251 
L 255.095305 333.820568 
L 256.524545 316.717618 
L 256.7376 309.618861 
L 256.888514 295.859383 
L 256.995041 262.529977 
L 257.110445 123.550825 
L 257.172586 92.799672 
L 257.234727 104.535406 
L 257.820627 314.612317 
L 258.042559 366.603564 
L 258.069191 366.684491 
L 258.122455 366.45382 
L 258.406527 363.688016 
L 259.019059 355.580828 
L 260.599214 333.818735 
L 262.028455 316.71397 
L 262.241509 309.610264 
L 262.392423 295.833005 
L 262.49895 262.432942 
L 262.614355 123.349254 
L 262.676495 92.802377 
L 262.738636 104.584176 
L 263.324536 314.688248 
L 263.546468 366.604813 
L 263.5731 366.684403 
L 263.626364 366.452691 
L 263.910436 363.686161 
L 264.522968 355.578376 
L 266.103123 333.816882 
L 267.532364 316.710284 
L 267.745418 309.601577 
L 267.896332 295.806347 
L 268.002859 262.334863 
L 268.118264 123.146522 
L 268.180405 92.805402 
L 268.242545 104.633533 
L 268.828445 314.765 
L 269.050377 366.606066 
L 269.077009 366.684309 
L 269.130273 366.451547 
L 269.423223 363.584642 
L 270.044632 355.312919 
L 271.589277 334.013785 
L 273.04515 316.507562 
L 273.258205 309.117179 
L 273.400241 295.779487 
L 273.506768 262.235984 
L 273.622173 122.943275 
L 273.684314 92.808768 
L 273.746455 104.683275 
L 274.332355 314.842419 
L 274.554286 366.607316 
L 274.580918 366.684205 
L 274.634182 366.450388 
L 274.927132 363.582734 
L 275.548541 355.310404 
L 277.093186 334.011883 
L 278.549059 316.503717 
L 278.762114 309.107889 
L 278.90415 295.75239 
L 279.010677 262.136031 
L 279.126082 122.740253 
L 279.188223 92.812616 
L 279.250364 104.733286 
L 279.836264 314.920135 
L 280.058195 366.608562 
L 280.084827 366.684097 
L 280.138091 366.449223 
L 280.431041 363.580817 
L 281.05245 355.307878 
L 282.597095 334.009973 
L 284.052968 316.499868 
L 284.266023 309.098595 
L 284.408059 295.725278 
L 284.514586 262.035737 
L 284.629991 122.537331 
L 284.692132 92.816589 
L 284.754273 104.78334 
L 285.340173 314.997841 
L 285.562105 366.609801 
L 285.588736 366.683986 
L 285.642 366.44806 
L 285.93495 363.578902 
L 286.556359 355.305356 
L 288.101005 334.008065 
L 289.556877 316.496004 
L 289.769932 309.089245 
L 289.911968 295.697986 
L 290.018495 261.934734 
L 290.142777 112.810307 
L 290.196041 92.820732 
L 290.258182 104.833521 
L 290.852959 319.173524 
L 291.057136 366.53066 
L 291.092645 366.683872 
L 291.145909 366.446898 
L 291.438859 363.576992 
L 292.060268 355.302839 
L 293.604914 334.006162 
L 295.060786 316.492131 
L 295.273841 309.079861 
L 295.415877 295.670579 
L 295.522405 261.833273 
L 295.646686 112.647323 
L 295.69995 92.825201 
L 295.762091 104.883955 
L 296.356868 319.252681 
L 296.561045 366.532555 
L 296.596555 366.683743 
L 296.649818 366.445728 
L 296.942768 363.575075 
L 297.564177 355.300313 
L 299.108823 334.004251 
L 300.564695 316.488243 
L 300.77775 309.07044 
L 300.919786 295.643055 
L 301.026314 261.731304 
L 301.150595 112.484028 
L 301.203859 92.829828 
L 301.266 104.934657 
L 301.860777 319.332332 
L 302.064955 366.534441 
L 302.100464 366.683606 
L 302.153727 366.444549 
L 302.446677 363.573147 
L 303.068086 355.297775 
L 304.612732 334.002331 
L 306.068605 316.484319 
L 306.281659 309.060923 
L 306.423695 295.615237 
L 306.530223 261.62821 
L 306.654505 112.320202 
L 306.707768 92.834659 
L 306.769909 104.985747 
L 307.364686 319.412501 
L 307.568864 366.536335 
L 307.604373 366.683469 
L 307.657636 366.443367 
L 307.950586 363.571213 
L 308.571995 355.295227 
L 310.116641 334.000404 
L 311.572514 316.480379 
L 311.785568 309.051362 
L 311.927605 295.58728 
L 312.034132 261.524576 
L 312.158414 112.156879 
L 312.211677 92.839758 
L 312.273818 105.037022 
L 312.868595 319.4929 
L 313.072773 366.538212 
L 313.108282 366.683321 
L 313.161545 366.442178 
L 313.454495 363.569273 
L 314.075905 355.292671 
L 315.62055 333.998471 
L 317.076423 316.476428 
L 317.289477 309.041774 
L 317.431514 295.55924 
L 317.538041 261.420617 
L 317.715586 92.845191 
L 317.848745 129.523308 
L 318.585559 366.617003 
L 318.612191 366.683169 
L 318.656577 366.500059 
L 318.914018 364.059796 
L 319.508795 356.33636 
L 321.213232 333.011509 
L 322.544823 317.243065 
L 322.766755 310.403185 
L 322.917668 298.18526 
L 323.033073 266.328134 
L 323.1396 145.242055 
L 323.219495 92.850917 
L 323.272759 102.580458 
L 323.787641 282.558896 
L 324.1161 366.683006 
L 324.124977 366.667135 
L 324.222627 366.013085 
L 324.666491 361.106397 
L 325.492077 349.111176 
L 326.521841 335.209164 
L 328.128627 315.384965 
L 328.323927 307.420196 
L 328.465964 290.519489 
L 328.572491 241.472068 
L 328.723405 92.856872 
L 328.812177 113.714313 
L 329.628886 369.003965 
L 329.664395 368.91979 
L 329.87745 367.616541 
L 330.410086 363.014075 
L 332.789195 340.327204 
L 333.419482 337.203346 
L 333.943241 335.6025 
L 334.351595 334.955631 
L 334.680055 334.797916 
L 335.008514 334.893082 
L 335.567782 335.346133 
L 336.295718 335.84745 
L 336.846109 335.949865 
L 337.653941 335.836595 
L 338.967777 335.684793 
L 346.486827 335.735005 
L 435.845455 335.734938 
L 435.845455 335.734938 
" clip-path="url(#p556ea20e95)" style="fill: none; stroke: #ff0000; stroke-width: 1.5; stroke-linecap: square"/>
   </g>
   <g id="patch_3">
    <path d="M 63 384.48 
L 63 51.84 
" style="fill: none; stroke: #000000; stroke-width: 0.8; stroke-linejoin: miter; stroke-linecap: square"/>
   </g>
   <g id="patch_4">
    <path d="M 453.6 384.48 
L 453.6 51.84 
" style="fill: none; stroke: #000000; stroke-width: 0.8; stroke-linejoin: miter; stroke-linecap: square"/>
   </g>
   <g id="patch_5">
    <path d="M 63 384.48 
L 453.6 384.48 
" style="fill: none; stroke: #000000; stroke-width: 0.8; stroke-linejoin: miter; stroke-linecap: square"/>
   </g>
   <g id="patch_6">
    <path d="M 63 51.84 
L 453.6 51.84 
" style="fill: none; stroke: #000000; stroke-width: 0.8; stroke-linejoin: miter; stroke-linecap: square"/>
   </g>
   <g id="legend_1">
    <g id="patch_7">
     <path d="M 383.460938 89.19625 
L 446.6 89.19625 
Q 448.6 89.19625 448.6 87.19625 
L 448.6 58.84 
Q 448.6 56.84 446.6 56.84 
L 383.460938 56.84 
Q 381.460938 56.84 381.460938 58.84 
L 381.460938 87.19625 
Q 381.460938 89.19625 383.460938 89.19625 
z
" style="fill: #ffffff; opacity: 0.8; stroke: #cccccc; stroke-linejoin: miter"/>
    </g>
    <g id="line2d_15">
     <path d="M 385.460938 64.938437 
L 395.460938 64.938437 
L 405.460938 64.938437 
" style="fill: none; stroke: #1f77b4; stroke-width: 1.5; stroke-linecap: square"/>
    </g>
    <g id="text_15">
     <!-- target -->
     <g transform="translate(413.460938 68.438437)scale(0.1 -0.1)">
      <defs>
       <path id="DejaVuSans-72" d="M 2631 2963 
Q 2534 3019 2420 3045 
Q 2306 3072 2169 3072 
Q 1681 3072 1420 2755 
Q 1159 2438 1159 1844 
L 1159 0 
L 581 0 
L 581 3500 
L 1159 3500 
L 1159 2956 
Q 1341 3275 1631 3429 
Q 1922 3584 2338 3584 
Q 2397 3584 2469 3576 
Q 2541 3569 2628 3553 
L 2631 2963 
z
" transform="scale(0.015625)"/>
      </defs>
      <use xlink:href="#DejaVuSans-74"/>
      <use xlink:href="#DejaVuSans-61" x="39.208984"/>
      <use xlink:href="#DejaVuSans-72" x="100.488281"/>
      <use xlink:href="#DejaVuSans-67" x="139.851562"/>
      <use xlink:href="#DejaVuSans-65" x="203.328125"/>
      <use xlink:href="#DejaVuSans-74" x="264.851562"/>
     </g>
    </g>
    <g id="line2d_16">
     <path d="M 385.460938 79.616562 
L 395.460938 79.616562 
L 405.460938 79.616562 
" style="fill: none; stroke: #ff0000; stroke-width: 1.5; stroke-linecap: square"/>
    </g>
    <g id="text_16">
     <!-- model -->
     <g transform="translate(413.460938 83.116562)scale(0.1 -0.1)">
      <defs>
       <path id="DejaVuSans-64" d="M 2906 2969 
L 2906 4863 
L 3481 4863 
L 3481 0 
L 2906 0 
L 2906 525 
Q 2725 213 2448 61 
Q 2172 -91 1784 -91 
Q 1150 -91 751 415 
Q 353 922 353 1747 
Q 353 2572 751 3078 
Q 1150 3584 1784 3584 
Q 2172 3584 2448 3432 
Q 2725 3281 2906 2969 
z
M 947 1747 
Q 947 1113 1208 752 
Q 1469 391 1925 391 
Q 2381 391 2643 752 
Q 2906 1113 2906 1747 
Q 2906 2381 2643 2742 
Q 2381 3103 1925 3103 
Q 1469 3103 1208 2742 
Q 947 2381 947 1747 
z
" transform="scale(0.015625)"/>
      </defs>
      <use xlink:href="#DejaVuSans-6d"/>
      <use xlink:href="#DejaVuSans-6f" x="97.412109"/>
      <use xlink:href="#DejaVuSans-64" x="158.59375"/>
      <use xlink:href="#DejaVuSans-65" x="222.070312"/>
      <use xlink:href="#DejaVuSans-6c" x="283.59375"/>
     </g>
    </g>
   </g>
  </g>
 </g>
 <defs>
  <clipPath id="p556ea20e95">
   <rect x="63" y="51.84" width="390.6" height="332.64"/>
  </clipPath>
 </defs>
</svg>
