<?xml version="1.0" encoding="utf-8" standalone="no"?>
<!DOCTYPE svg PUBLIC "-//W3C//DTD SVG 1.1//EN"
  "http://www.w3.org/Graphics/SVG/1.1/DTD/svg11.dtd">
<svg xmlns:xlink="http://www.w3.org/1999/xlink" width="504pt" height="432pt" viewBox="0 0 504 432" xmlns="http://www.w3.org/2000/svg" version="1.1">
 <metadata>
  <rdf:RDF xmlns:dc="http://purl.org/dc/elements/1.1/" xmlns:cc="http://creativecommons.org/ns#" xmlns:rdf="http://www.w3.org/1999/02/22-rdf-syntax-ns#">
   <cc:Work>
    <dc:type rdf:resource="http://purl.org/dc/dcmitype/StillImage"/>
    <dc:date>2022-01-31T19:03:52.445459</dc:date>
    <dc:format>image/svg+xml</dc:format>
    <dc:creator>
     <cc:Agent>
      <dc:title>Matplotlib v3.5.1, https://matplotlib.org/</dc:title>
     </cc:Agent>
    </dc:creator>
   </cc:Work>
  </rdf:RDF>
 </metadata>
 <defs>
  <style type="text/css">*{stroke-linejoin: round; stroke-linecap: butt}</style>
 </defs>
 <g id="figure_1">
  <g id="patch_1">
   <path d="M 0 432 
L 504 432 
L 504 0 
L 0 0 
z
" style="fill: #ffffff"/>
  </g>
  <g id="axes_1">
   <g id="patch_2">
    <path d="M 63 384.48 
L 453.6 384.48 
L 453.6 51.84 
L 63 51.84 
z
" style="fill: #ffffff"/>
   </g>
   <g id="matplotlib.axis_1">
    <g id="xtick_1">
     <g id="line2d_1">
      <defs>
       <path id="m6d6b9faf6c" d="M 0 0 
L 0 3.5 
" style="stroke: #000000; stroke-width: 0.8"/>
      </defs>
      <g>
       <use xlink:href="#m6d6b9faf6c" x="80.754545" y="384.48" style="stroke: #000000; stroke-width: 0.8"/>
      </g>
     </g>
     <g id="text_1">
      <!-- 0 -->
      <g transform="translate(77.573295 399.078438)scale(0.1 -0.1)">
       <defs>
        <path id="DejaVuSans-30" d="M 2034 4250 
Q 1547 4250 1301 3770 
Q 1056 3291 1056 2328 
Q 1056 1369 1301 889 
Q 1547 409 2034 409 
Q 2525 409 2770 889 
Q 3016 1369 3016 2328 
Q 3016 3291 2770 3770 
Q 2525 4250 2034 4250 
z
M 2034 4750 
Q 2819 4750 3233 4129 
Q 3647 3509 3647 2328 
Q 3647 1150 3233 529 
Q 2819 -91 2034 -91 
Q 1250 -91 836 529 
Q 422 1150 422 2328 
Q 422 3509 836 4129 
Q 1250 4750 2034 4750 
z
" transform="scale(0.015625)"/>
       </defs>
       <use xlink:href="#DejaVuSans-30"/>
      </g>
     </g>
    </g>
    <g id="xtick_2">
     <g id="line2d_2">
      <g>
       <use xlink:href="#m6d6b9faf6c" x="151.772727" y="384.48" style="stroke: #000000; stroke-width: 0.8"/>
      </g>
     </g>
     <g id="text_2">
      <!-- 200 -->
      <g transform="translate(142.228977 399.078438)scale(0.1 -0.1)">
       <defs>
        <path id="DejaVuSans-32" d="M 1228 531 
L 3431 531 
L 3431 0 
L 469 0 
L 469 531 
Q 828 903 1448 1529 
Q 2069 2156 2228 2338 
Q 2531 2678 2651 2914 
Q 2772 3150 2772 3378 
Q 2772 3750 2511 3984 
Q 2250 4219 1831 4219 
Q 1534 4219 1204 4116 
Q 875 4013 500 3803 
L 500 4441 
Q 881 4594 1212 4672 
Q 1544 4750 1819 4750 
Q 2544 4750 2975 4387 
Q 3406 4025 3406 3419 
Q 3406 3131 3298 2873 
Q 3191 2616 2906 2266 
Q 2828 2175 2409 1742 
Q 1991 1309 1228 531 
z
" transform="scale(0.015625)"/>
       </defs>
       <use xlink:href="#DejaVuSans-32"/>
       <use xlink:href="#DejaVuSans-30" x="63.623047"/>
       <use xlink:href="#DejaVuSans-30" x="127.246094"/>
      </g>
     </g>
    </g>
    <g id="xtick_3">
     <g id="line2d_3">
      <g>
       <use xlink:href="#m6d6b9faf6c" x="222.790909" y="384.48" style="stroke: #000000; stroke-width: 0.8"/>
      </g>
     </g>
     <g id="text_3">
      <!-- 400 -->
      <g transform="translate(213.247159 399.078438)scale(0.1 -0.1)">
       <defs>
        <path id="DejaVuSans-34" d="M 2419 4116 
L 825 1625 
L 2419 1625 
L 2419 4116 
z
M 2253 4666 
L 3047 4666 
L 3047 1625 
L 3713 1625 
L 3713 1100 
L 3047 1100 
L 3047 0 
L 2419 0 
L 2419 1100 
L 313 1100 
L 313 1709 
L 2253 4666 
z
" transform="scale(0.015625)"/>
       </defs>
       <use xlink:href="#DejaVuSans-34"/>
       <use xlink:href="#DejaVuSans-30" x="63.623047"/>
       <use xlink:href="#DejaVuSans-30" x="127.246094"/>
      </g>
     </g>
    </g>
    <g id="xtick_4">
     <g id="line2d_4">
      <g>
       <use xlink:href="#m6d6b9faf6c" x="293.809091" y="384.48" style="stroke: #000000; stroke-width: 0.8"/>
      </g>
     </g>
     <g id="text_4">
      <!-- 600 -->
      <g transform="translate(284.265341 399.078438)scale(0.1 -0.1)">
       <defs>
        <path id="DejaVuSans-36" d="M 2113 2584 
Q 1688 2584 1439 2293 
Q 1191 2003 1191 1497 
Q 1191 994 1439 701 
Q 1688 409 2113 409 
Q 2538 409 2786 701 
Q 3034 994 3034 1497 
Q 3034 2003 2786 2293 
Q 2538 2584 2113 2584 
z
M 3366 4563 
L 3366 3988 
Q 3128 4100 2886 4159 
Q 2644 4219 2406 4219 
Q 1781 4219 1451 3797 
Q 1122 3375 1075 2522 
Q 1259 2794 1537 2939 
Q 1816 3084 2150 3084 
Q 2853 3084 3261 2657 
Q 3669 2231 3669 1497 
Q 3669 778 3244 343 
Q 2819 -91 2113 -91 
Q 1303 -91 875 529 
Q 447 1150 447 2328 
Q 447 3434 972 4092 
Q 1497 4750 2381 4750 
Q 2619 4750 2861 4703 
Q 3103 4656 3366 4563 
z
" transform="scale(0.015625)"/>
       </defs>
       <use xlink:href="#DejaVuSans-36"/>
       <use xlink:href="#DejaVuSans-30" x="63.623047"/>
       <use xlink:href="#DejaVuSans-30" x="127.246094"/>
      </g>
     </g>
    </g>
    <g id="xtick_5">
     <g id="line2d_5">
      <g>
       <use xlink:href="#m6d6b9faf6c" x="364.827273" y="384.48" style="stroke: #000000; stroke-width: 0.8"/>
      </g>
     </g>
     <g id="text_5">
      <!-- 800 -->
      <g transform="translate(355.283523 399.078438)scale(0.1 -0.1)">
       <defs>
        <path id="DejaVuSans-38" d="M 2034 2216 
Q 1584 2216 1326 1975 
Q 1069 1734 1069 1313 
Q 1069 891 1326 650 
Q 1584 409 2034 409 
Q 2484 409 2743 651 
Q 3003 894 3003 1313 
Q 3003 1734 2745 1975 
Q 2488 2216 2034 2216 
z
M 1403 2484 
Q 997 2584 770 2862 
Q 544 3141 544 3541 
Q 544 4100 942 4425 
Q 1341 4750 2034 4750 
Q 2731 4750 3128 4425 
Q 3525 4100 3525 3541 
Q 3525 3141 3298 2862 
Q 3072 2584 2669 2484 
Q 3125 2378 3379 2068 
Q 3634 1759 3634 1313 
Q 3634 634 3220 271 
Q 2806 -91 2034 -91 
Q 1263 -91 848 271 
Q 434 634 434 1313 
Q 434 1759 690 2068 
Q 947 2378 1403 2484 
z
M 1172 3481 
Q 1172 3119 1398 2916 
Q 1625 2713 2034 2713 
Q 2441 2713 2670 2916 
Q 2900 3119 2900 3481 
Q 2900 3844 2670 4047 
Q 2441 4250 2034 4250 
Q 1625 4250 1398 4047 
Q 1172 3844 1172 3481 
z
" transform="scale(0.015625)"/>
       </defs>
       <use xlink:href="#DejaVuSans-38"/>
       <use xlink:href="#DejaVuSans-30" x="63.623047"/>
       <use xlink:href="#DejaVuSans-30" x="127.246094"/>
      </g>
     </g>
    </g>
    <g id="text_6">
     <!-- time [ms] -->
     <g transform="translate(234.038281 412.756563)scale(0.1 -0.1)">
      <defs>
       <path id="DejaVuSans-74" d="M 1172 4494 
L 1172 3500 
L 2356 3500 
L 2356 3053 
L 1172 3053 
L 1172 1153 
Q 1172 725 1289 603 
Q 1406 481 1766 481 
L 2356 481 
L 2356 0 
L 1766 0 
Q 1100 0 847 248 
Q 594 497 594 1153 
L 594 3053 
L 172 3053 
L 172 3500 
L 594 3500 
L 594 4494 
L 1172 4494 
z
" transform="scale(0.015625)"/>
       <path id="DejaVuSans-69" d="M 603 3500 
L 1178 3500 
L 1178 0 
L 603 0 
L 603 3500 
z
M 603 4863 
L 1178 4863 
L 1178 4134 
L 603 4134 
L 603 4863 
z
" transform="scale(0.015625)"/>
       <path id="DejaVuSans-6d" d="M 3328 2828 
Q 3544 3216 3844 3400 
Q 4144 3584 4550 3584 
Q 5097 3584 5394 3201 
Q 5691 2819 5691 2113 
L 5691 0 
L 5113 0 
L 5113 2094 
Q 5113 2597 4934 2840 
Q 4756 3084 4391 3084 
Q 3944 3084 3684 2787 
Q 3425 2491 3425 1978 
L 3425 0 
L 2847 0 
L 2847 2094 
Q 2847 2600 2669 2842 
Q 2491 3084 2119 3084 
Q 1678 3084 1418 2786 
Q 1159 2488 1159 1978 
L 1159 0 
L 581 0 
L 581 3500 
L 1159 3500 
L 1159 2956 
Q 1356 3278 1631 3431 
Q 1906 3584 2284 3584 
Q 2666 3584 2933 3390 
Q 3200 3197 3328 2828 
z
" transform="scale(0.015625)"/>
       <path id="DejaVuSans-65" d="M 3597 1894 
L 3597 1613 
L 953 1613 
Q 991 1019 1311 708 
Q 1631 397 2203 397 
Q 2534 397 2845 478 
Q 3156 559 3463 722 
L 3463 178 
Q 3153 47 2828 -22 
Q 2503 -91 2169 -91 
Q 1331 -91 842 396 
Q 353 884 353 1716 
Q 353 2575 817 3079 
Q 1281 3584 2069 3584 
Q 2775 3584 3186 3129 
Q 3597 2675 3597 1894 
z
M 3022 2063 
Q 3016 2534 2758 2815 
Q 2500 3097 2075 3097 
Q 1594 3097 1305 2825 
Q 1016 2553 972 2059 
L 3022 2063 
z
" transform="scale(0.015625)"/>
       <path id="DejaVuSans-20" transform="scale(0.015625)"/>
       <path id="DejaVuSans-5b" d="M 550 4863 
L 1875 4863 
L 1875 4416 
L 1125 4416 
L 1125 -397 
L 1875 -397 
L 1875 -844 
L 550 -844 
L 550 4863 
z
" transform="scale(0.015625)"/>
       <path id="DejaVuSans-73" d="M 2834 3397 
L 2834 2853 
Q 2591 2978 2328 3040 
Q 2066 3103 1784 3103 
Q 1356 3103 1142 2972 
Q 928 2841 928 2578 
Q 928 2378 1081 2264 
Q 1234 2150 1697 2047 
L 1894 2003 
Q 2506 1872 2764 1633 
Q 3022 1394 3022 966 
Q 3022 478 2636 193 
Q 2250 -91 1575 -91 
Q 1294 -91 989 -36 
Q 684 19 347 128 
L 347 722 
Q 666 556 975 473 
Q 1284 391 1588 391 
Q 1994 391 2212 530 
Q 2431 669 2431 922 
Q 2431 1156 2273 1281 
Q 2116 1406 1581 1522 
L 1381 1569 
Q 847 1681 609 1914 
Q 372 2147 372 2553 
Q 372 3047 722 3315 
Q 1072 3584 1716 3584 
Q 2034 3584 2315 3537 
Q 2597 3491 2834 3397 
z
" transform="scale(0.015625)"/>
       <path id="DejaVuSans-5d" d="M 1947 4863 
L 1947 -844 
L 622 -844 
L 622 -397 
L 1369 -397 
L 1369 4416 
L 622 4416 
L 622 4863 
L 1947 4863 
z
" transform="scale(0.015625)"/>
      </defs>
      <use xlink:href="#DejaVuSans-74"/>
      <use xlink:href="#DejaVuSans-69" x="39.208984"/>
      <use xlink:href="#DejaVuSans-6d" x="66.992188"/>
      <use xlink:href="#DejaVuSans-65" x="164.404297"/>
      <use xlink:href="#DejaVuSans-20" x="225.927734"/>
      <use xlink:href="#DejaVuSans-5b" x="257.714844"/>
      <use xlink:href="#DejaVuSans-6d" x="296.728516"/>
      <use xlink:href="#DejaVuSans-73" x="394.140625"/>
      <use xlink:href="#DejaVuSans-5d" x="446.240234"/>
     </g>
    </g>
   </g>
   <g id="matplotlib.axis_2">
    <g id="ytick_1">
     <g id="line2d_6">
      <defs>
       <path id="mb666aba55e" d="M 0 0 
L -3.5 0 
" style="stroke: #000000; stroke-width: 0.8"/>
      </defs>
      <g>
       <use xlink:href="#mb666aba55e" x="63" y="378.78193" style="stroke: #000000; stroke-width: 0.8"/>
      </g>
     </g>
     <g id="text_7">
      <!-- −80 -->
      <g transform="translate(34.895313 382.581149)scale(0.1 -0.1)">
       <defs>
        <path id="DejaVuSans-2212" d="M 678 2272 
L 4684 2272 
L 4684 1741 
L 678 1741 
L 678 2272 
z
" transform="scale(0.015625)"/>
       </defs>
       <use xlink:href="#DejaVuSans-2212"/>
       <use xlink:href="#DejaVuSans-38" x="83.789062"/>
       <use xlink:href="#DejaVuSans-30" x="147.412109"/>
      </g>
     </g>
    </g>
    <g id="ytick_2">
     <g id="line2d_7">
      <g>
       <use xlink:href="#mb666aba55e" x="63" y="328.52727" style="stroke: #000000; stroke-width: 0.8"/>
      </g>
     </g>
     <g id="text_8">
      <!-- −60 -->
      <g transform="translate(34.895313 332.326489)scale(0.1 -0.1)">
       <use xlink:href="#DejaVuSans-2212"/>
       <use xlink:href="#DejaVuSans-36" x="83.789062"/>
       <use xlink:href="#DejaVuSans-30" x="147.412109"/>
      </g>
     </g>
    </g>
    <g id="ytick_3">
     <g id="line2d_8">
      <g>
       <use xlink:href="#mb666aba55e" x="63" y="278.27261" style="stroke: #000000; stroke-width: 0.8"/>
      </g>
     </g>
     <g id="text_9">
      <!-- −40 -->
      <g transform="translate(34.895313 282.071829)scale(0.1 -0.1)">
       <use xlink:href="#DejaVuSans-2212"/>
       <use xlink:href="#DejaVuSans-34" x="83.789062"/>
       <use xlink:href="#DejaVuSans-30" x="147.412109"/>
      </g>
     </g>
    </g>
    <g id="ytick_4">
     <g id="line2d_9">
      <g>
       <use xlink:href="#mb666aba55e" x="63" y="228.01795" style="stroke: #000000; stroke-width: 0.8"/>
      </g>
     </g>
     <g id="text_10">
      <!-- −20 -->
      <g transform="translate(34.895313 231.817169)scale(0.1 -0.1)">
       <use xlink:href="#DejaVuSans-2212"/>
       <use xlink:href="#DejaVuSans-32" x="83.789062"/>
       <use xlink:href="#DejaVuSans-30" x="147.412109"/>
      </g>
     </g>
    </g>
    <g id="ytick_5">
     <g id="line2d_10">
      <g>
       <use xlink:href="#mb666aba55e" x="63" y="177.76329" style="stroke: #000000; stroke-width: 0.8"/>
      </g>
     </g>
     <g id="text_11">
      <!-- 0 -->
      <g transform="translate(49.6375 181.562509)scale(0.1 -0.1)">
       <use xlink:href="#DejaVuSans-30"/>
      </g>
     </g>
    </g>
    <g id="ytick_6">
     <g id="line2d_11">
      <g>
       <use xlink:href="#mb666aba55e" x="63" y="127.50863" style="stroke: #000000; stroke-width: 0.8"/>
      </g>
     </g>
     <g id="text_12">
      <!-- 20 -->
      <g transform="translate(43.275 131.307849)scale(0.1 -0.1)">
       <use xlink:href="#DejaVuSans-32"/>
       <use xlink:href="#DejaVuSans-30" x="63.623047"/>
      </g>
     </g>
    </g>
    <g id="ytick_7">
     <g id="line2d_12">
      <g>
       <use xlink:href="#mb666aba55e" x="63" y="77.25397" style="stroke: #000000; stroke-width: 0.8"/>
      </g>
     </g>
     <g id="text_13">
      <!-- 40 -->
      <g transform="translate(43.275 81.053189)scale(0.1 -0.1)">
       <use xlink:href="#DejaVuSans-34"/>
       <use xlink:href="#DejaVuSans-30" x="63.623047"/>
      </g>
     </g>
    </g>
    <g id="text_14">
     <!-- voltage [mV] -->
     <g transform="translate(28.815625 250.624062)rotate(-90)scale(0.1 -0.1)">
      <defs>
       <path id="DejaVuSans-76" d="M 191 3500 
L 800 3500 
L 1894 563 
L 2988 3500 
L 3597 3500 
L 2284 0 
L 1503 0 
L 191 3500 
z
" transform="scale(0.015625)"/>
       <path id="DejaVuSans-6f" d="M 1959 3097 
Q 1497 3097 1228 2736 
Q 959 2375 959 1747 
Q 959 1119 1226 758 
Q 1494 397 1959 397 
Q 2419 397 2687 759 
Q 2956 1122 2956 1747 
Q 2956 2369 2687 2733 
Q 2419 3097 1959 3097 
z
M 1959 3584 
Q 2709 3584 3137 3096 
Q 3566 2609 3566 1747 
Q 3566 888 3137 398 
Q 2709 -91 1959 -91 
Q 1206 -91 779 398 
Q 353 888 353 1747 
Q 353 2609 779 3096 
Q 1206 3584 1959 3584 
z
" transform="scale(0.015625)"/>
       <path id="DejaVuSans-6c" d="M 603 4863 
L 1178 4863 
L 1178 0 
L 603 0 
L 603 4863 
z
" transform="scale(0.015625)"/>
       <path id="DejaVuSans-61" d="M 2194 1759 
Q 1497 1759 1228 1600 
Q 959 1441 959 1056 
Q 959 750 1161 570 
Q 1363 391 1709 391 
Q 2188 391 2477 730 
Q 2766 1069 2766 1631 
L 2766 1759 
L 2194 1759 
z
M 3341 1997 
L 3341 0 
L 2766 0 
L 2766 531 
Q 2569 213 2275 61 
Q 1981 -91 1556 -91 
Q 1019 -91 701 211 
Q 384 513 384 1019 
Q 384 1609 779 1909 
Q 1175 2209 1959 2209 
L 2766 2209 
L 2766 2266 
Q 2766 2663 2505 2880 
Q 2244 3097 1772 3097 
Q 1472 3097 1187 3025 
Q 903 2953 641 2809 
L 641 3341 
Q 956 3463 1253 3523 
Q 1550 3584 1831 3584 
Q 2591 3584 2966 3190 
Q 3341 2797 3341 1997 
z
" transform="scale(0.015625)"/>
       <path id="DejaVuSans-67" d="M 2906 1791 
Q 2906 2416 2648 2759 
Q 2391 3103 1925 3103 
Q 1463 3103 1205 2759 
Q 947 2416 947 1791 
Q 947 1169 1205 825 
Q 1463 481 1925 481 
Q 2391 481 2648 825 
Q 2906 1169 2906 1791 
z
M 3481 434 
Q 3481 -459 3084 -895 
Q 2688 -1331 1869 -1331 
Q 1566 -1331 1297 -1286 
Q 1028 -1241 775 -1147 
L 775 -588 
Q 1028 -725 1275 -790 
Q 1522 -856 1778 -856 
Q 2344 -856 2625 -561 
Q 2906 -266 2906 331 
L 2906 616 
Q 2728 306 2450 153 
Q 2172 0 1784 0 
Q 1141 0 747 490 
Q 353 981 353 1791 
Q 353 2603 747 3093 
Q 1141 3584 1784 3584 
Q 2172 3584 2450 3431 
Q 2728 3278 2906 2969 
L 2906 3500 
L 3481 3500 
L 3481 434 
z
" transform="scale(0.015625)"/>
       <path id="DejaVuSans-56" d="M 1831 0 
L 50 4666 
L 709 4666 
L 2188 738 
L 3669 4666 
L 4325 4666 
L 2547 0 
L 1831 0 
z
" transform="scale(0.015625)"/>
      </defs>
      <use xlink:href="#DejaVuSans-76"/>
      <use xlink:href="#DejaVuSans-6f" x="59.179688"/>
      <use xlink:href="#DejaVuSans-6c" x="120.361328"/>
      <use xlink:href="#DejaVuSans-74" x="148.144531"/>
      <use xlink:href="#DejaVuSans-61" x="187.353516"/>
      <use xlink:href="#DejaVuSans-67" x="248.632812"/>
      <use xlink:href="#DejaVuSans-65" x="312.109375"/>
      <use xlink:href="#DejaVuSans-20" x="373.632812"/>
      <use xlink:href="#DejaVuSans-5b" x="405.419922"/>
      <use xlink:href="#DejaVuSans-6d" x="444.433594"/>
      <use xlink:href="#DejaVuSans-56" x="541.845703"/>
      <use xlink:href="#DejaVuSans-5d" x="610.253906"/>
     </g>
    </g>
   </g>
   <g id="line2d_13">
    <path d="M 80.754545 341.090935 
L 81.979609 340.95977 
L 151.772727 341.02485 
L 152.314241 298.404376 
L 152.420768 251.847705 
L 152.562805 78.068598 
L 152.678209 102.208424 
L 153.565936 366.446421 
L 153.610323 366.350184 
L 153.8145 365.030245 
L 154.293873 360.479685 
L 154.959668 351.74819 
L 157.42755 314.519035 
L 157.613973 303.867308 
L 157.738255 282.840507 
L 157.835905 222.957557 
L 157.969064 101.388519 
L 158.031205 113.978819 
L 158.883423 366.040112 
L 158.945564 365.864472 
L 159.203005 363.969872 
L 159.717886 358.539353 
L 160.534595 347.121997 
L 161.8218 329.76655 
L 162.514227 319.843014 
L 162.771668 312.643782 
L 162.940336 301.164864 
L 163.064618 274.393704 
L 163.162268 193.601373 
L 163.268795 102.269484 
L 163.322059 111.376131 
L 163.863573 298.138026 
L 164.147645 365.871005 
L 164.183155 366.009708 
L 164.245295 365.836078 
L 164.493859 364.013844 
L 165.008741 358.602171 
L 165.834327 347.066968 
L 167.112655 329.837912 
L 167.813959 319.809092 
L 168.0714 312.600563 
L 168.240068 301.083954 
L 168.36435 274.15801 
L 168.462 192.887631 
L 168.568527 102.343107 
L 168.621791 111.588708 
L 169.172182 301.920945 
L 169.4385 365.788839 
L 169.482886 366.007698 
L 169.545027 365.830299 
L 169.802468 363.927909 
L 170.31735 358.480304 
L 171.151814 346.790316 
L 172.430141 329.605484 
L 173.113691 319.791503 
L 173.371132 312.565636 
L 173.5398 300.992239 
L 173.664082 273.83437 
L 173.761732 191.785521 
L 173.868259 102.359188 
L 173.921523 111.814603 
L 174.480791 305.818194 
L 174.729355 365.684058 
L 174.782618 366.007698 
L 174.844759 365.826279 
L 175.1022 363.920873 
L 175.617082 358.470002 
L 176.451545 346.778004 
L 177.729873 329.595182 
L 178.413423 319.775421 
L 178.670864 312.531212 
L 178.839532 300.899268 
L 178.963814 273.502187 
L 179.061464 190.651148 
L 179.167991 102.375772 
L 179.221255 112.04301 
L 179.7894 309.814194 
L 180.029086 365.695868 
L 180.08235 366.007949 
L 180.144491 365.822007 
L 180.401932 363.913838 
L 180.916814 358.459951 
L 181.751277 346.766194 
L 183.029605 329.585131 
L 183.713155 319.759088 
L 183.970595 312.496536 
L 184.139264 300.805292 
L 184.263545 273.162214 
L 184.361195 189.496824 
L 184.467723 102.398638 
L 184.520986 112.274935 
L 185.098009 313.898139 
L 185.328818 365.707426 
L 185.382082 366.007949 
L 185.444223 365.817987 
L 185.701664 363.906551 
L 186.216545 358.4499 
L 187.051009 346.754133 
L 188.329336 329.57508 
L 189.012886 319.743007 
L 189.270327 312.461609 
L 189.438995 300.709808 
L 189.563277 272.817216 
L 189.660927 188.337901 
L 189.767455 102.427032 
L 189.820718 112.509122 
L 190.406618 318.051184 
L 190.619673 365.579277 
L 190.681814 366.007698 
L 190.743955 365.813715 
L 191.010273 363.82162 
L 191.525155 358.329791 
L 192.368495 346.480747 
L 193.637945 329.454469 
L 194.312618 319.726423 
L 194.570059 312.426682 
L 194.738727 300.613822 
L 194.863009 272.468951 
L 194.969536 174.3858 
L 195.058309 102.414217 
L 195.12045 112.745821 
L 195.715227 322.248453 
L 195.919405 365.594102 
L 195.981545 366.007698 
L 196.043686 365.809443 
L 196.310005 363.814333 
L 196.833764 358.20918 
L 197.703736 345.946792 
L 198.955432 329.223548 
L 199.61235 319.71009 
L 199.869791 312.391253 
L 200.038459 300.51683 
L 200.162741 272.11365 
L 200.269268 173.176397 
L 200.358041 102.386074 
L 200.420182 112.986541 
L 201.023836 326.454517 
L 201.219136 365.608174 
L 201.281277 366.007196 
L 201.343418 365.805172 
L 201.609736 363.807046 
L 202.133495 358.198626 
L 202.994591 346.06489 
L 204.255164 329.213246 
L 204.912082 319.693255 
L 205.169523 312.355321 
L 205.338191 300.418331 
L 205.462473 271.751063 
L 205.569 171.958877 
L 205.657773 102.364716 
L 205.719914 113.22902 
L 206.332445 330.623392 
L 206.518868 365.622245 
L 206.581009 366.006944 
L 206.634273 365.845376 
L 206.873959 364.107821 
L 207.388841 358.7361 
L 208.187795 347.620774 
L 209.510509 329.753986 
L 210.202936 319.853065 
L 210.460377 312.695293 
L 210.629045 301.340504 
L 210.753327 275.070383 
L 210.850977 196.052645 
L 210.957505 102.350142 
L 211.019645 113.472504 
L 211.641055 334.703317 
L 211.827477 365.761701 
L 211.880741 366.006442 
L 211.934005 365.841355 
L 212.182568 364.024398 
L 212.69745 358.617248 
L 213.514159 347.215973 
L 214.810241 329.743684 
L 215.502668 319.836732 
L 215.760109 312.660869 
L 215.928777 301.248287 
L 216.053059 274.745487 
L 216.150709 194.923925 
L 216.257236 102.344112 
L 216.319377 113.715485 
L 216.949664 338.633482 
L 217.127209 365.771752 
L 217.171595 366.006944 
L 217.233736 365.837335 
L 217.4823 364.017362 
L 217.997182 358.607197 
L 218.822768 347.072999 
L 220.101095 329.84344 
L 220.8024 319.820399 
L 221.059841 312.626696 
L 221.228509 301.156321 
L 221.352791 274.419334 
L 221.450441 193.795758 
L 221.556968 102.344614 
L 221.610232 111.41156 
L 222.151745 298.191045 
L 222.426941 365.781301 
L 222.471327 366.007196 
L 222.533468 365.833314 
L 222.782032 364.010327 
L 223.296914 358.597146 
L 224.1225 347.060686 
L 225.418582 329.613273 
L 226.111009 319.626919 
L 226.36845 312.212346 
L 226.537118 300.022576 
L 226.652523 274.090669 
L 226.750173 192.663093 
L 226.8567 102.350394 
L 226.909964 111.638962 
L 227.460355 301.993061 
L 227.726673 365.790598 
L 227.771059 366.007698 
L 227.8332 365.829294 
L 228.090641 363.92615 
L 228.605523 358.477791 
L 229.439986 346.787301 
L 230.718314 329.602971 
L 231.401864 319.787733 
L 231.659305 312.557596 
L 231.827973 300.971132 
L 231.952255 273.759742 
L 232.049905 191.530228 
L 232.156432 102.362706 
L 232.209695 111.866114 
L 232.768964 305.893325 
L 233.017527 365.686822 
L 233.070791 366.007698 
L 233.132932 365.825274 
L 233.390373 363.919114 
L 233.905255 358.46774 
L 234.739718 346.77524 
L 236.018045 329.59292 
L 236.701595 319.771652 
L 236.959036 312.523422 
L 237.127705 300.878161 
L 237.251986 273.425799 
L 237.349636 190.390879 
L 237.456164 102.380295 
L 237.509427 112.095526 
L 238.077573 309.891586 
L 238.317259 365.698381 
L 238.370523 366.007949 
L 238.432664 365.821253 
L 238.698982 363.834435 
L 239.213864 358.347883 
L 240.057205 346.502106 
L 241.317777 329.582869 
L 242.001327 319.75557 
L 242.258768 312.488747 
L 242.427436 300.783683 
L 242.551718 273.084068 
L 242.649368 189.233866 
L 242.755895 102.404669 
L 242.809159 112.327954 
L 243.386182 313.97729 
L 243.616991 365.709939 
L 243.670255 366.007949 
L 243.732395 365.816982 
L 243.989836 363.905043 
L 244.504718 358.447638 
L 245.348059 346.620707 
L 246.617509 329.572567 
L 247.301059 319.739238 
L 247.5585 312.45382 
L 247.727168 300.687947 
L 247.85145 272.738567 
L 247.9491 188.073813 
L 248.055627 102.43457 
L 248.108891 112.562643 
L 248.694791 318.132094 
L 248.907845 365.582795 
L 248.969986 366.007698 
L 249.032127 365.812961 
L 249.298445 363.820113 
L 249.822205 358.217221 
L 250.692177 345.95634 
L 251.943873 329.231589 
L 252.600791 319.722654 
L 252.858232 312.418641 
L 253.0269 300.59171 
L 253.151182 272.388543 
L 253.257709 174.110455 
L 253.346482 102.407181 
L 253.408623 112.800599 
L 254.0034 322.330871 
L 254.207577 365.597369 
L 254.269718 366.007447 
L 254.331859 365.80869 
L 254.598177 363.812826 
L 255.121936 358.206667 
L 255.983032 346.074438 
L 257.22585 329.441905 
L 257.900523 319.706321 
L 258.157964 312.383212 
L 258.326632 300.494467 
L 258.450914 272.031484 
L 258.557441 172.898564 
L 258.646214 102.380546 
L 258.708355 113.042073 
L 259.312009 326.536934 
L 259.507309 365.61144 
L 259.56945 366.007196 
L 259.631591 365.804167 
L 259.897909 363.805288 
L 260.421668 358.196365 
L 261.291641 345.931966 
L 262.525582 329.431603 
L 263.200255 319.689486 
L 263.457695 312.34728 
L 263.626364 300.395717 
L 263.750645 271.66764 
L 263.857173 171.680542 
L 263.945945 102.360696 
L 264.008086 113.284551 
L 264.620618 330.704553 
L 264.807041 365.625511 
L 264.869182 366.006693 
L 264.922445 365.844622 
L 265.171009 364.029926 
L 265.685891 358.625289 
L 266.511477 347.094608 
L 267.807559 329.641667 
L 268.499986 319.672902 
L 268.757427 312.311348 
L 268.926095 300.296966 
L 269.050377 271.303796 
L 269.156905 170.47159 
L 269.245677 102.348132 
L 269.298941 111.010779 
L 269.8227 290.954122 
L 270.133405 365.92327 
L 270.168914 366.006442 
L 270.222177 365.840601 
L 270.470741 364.02289 
L 270.985623 358.614986 
L 271.802332 347.213209 
L 273.098414 329.741423 
L 273.790841 319.832963 
L 274.048282 312.653079 
L 274.21695 301.227431 
L 274.341232 274.67111 
L 274.438882 194.665716 
L 274.545409 102.343861 
L 274.598673 111.236674 
L 275.131309 294.560145 
L 275.424259 365.86397 
L 275.459768 366.006944 
L 275.521909 365.836581 
L 275.770473 364.015855 
L 276.285355 358.604935 
L 277.110941 347.070235 
L 278.389268 329.841178 
L 279.090573 319.81663 
L 279.348014 312.618655 
L 279.516682 301.135214 
L 279.640964 274.344455 
L 279.738614 193.537449 
L 279.845141 102.345117 
L 279.898405 111.463574 
L 280.439918 298.263663 
L 280.715114 365.783311 
L 280.7595 366.007447 
L 280.821641 365.832561 
L 281.079082 363.931678 
L 281.593964 358.485581 
L 282.428427 346.796598 
L 283.706755 329.610761 
L 284.390305 319.800297 
L 284.647745 312.584231 
L 284.816414 301.042745 
L 284.940695 274.015287 
L 285.038345 192.404684 
L 285.144873 102.352655 
L 285.198136 111.690725 
L 285.748527 302.066684 
L 286.014845 365.792608 
L 286.059232 366.007698 
L 286.121373 365.828289 
L 286.378814 363.924642 
L 286.902573 358.365723 
L 287.754791 346.392802 
L 289.006486 329.60071 
L 289.690036 319.784216 
L 289.947477 312.549806 
L 290.116145 300.950025 
L 290.240427 273.683857 
L 290.338077 191.270964 
L 290.444605 102.366224 
L 290.497868 111.918127 
L 291.057136 305.96921 
L 291.3057 365.689586 
L 291.358964 366.007949 
L 291.421105 365.824269 
L 291.678545 363.917607 
L 292.193427 358.465479 
L 293.027891 346.772476 
L 294.315095 329.48035 
L 294.989768 319.767883 
L 295.247209 312.515382 
L 295.415877 300.856803 
L 295.540159 273.348407 
L 295.637809 190.127871 
L 295.744336 102.385321 
L 295.7976 112.148293 
L 296.365745 309.969481 
L 296.605432 365.701145 
L 296.658695 366.007949 
L 296.720836 365.820248 
L 296.978277 363.910571 
L 297.493159 358.455428 
L 298.327623 346.760666 
L 299.60595 329.580608 
L 300.2895 319.751801 
L 300.546941 312.480706 
L 300.715609 300.761822 
L 300.839891 273.005671 
L 300.937541 188.970532 
L 301.044068 102.410951 
L 301.097332 112.380973 
L 301.674355 314.056441 
L 301.905164 365.712452 
L 301.958427 366.007949 
L 302.020568 365.816228 
L 302.286886 363.825641 
L 302.810645 358.22501 
L 303.671741 346.096048 
L 304.914559 329.460248 
L 305.589232 319.735469 
L 305.846673 312.445779 
L 306.015341 300.666338 
L 306.139623 272.659667 
L 306.24615 175.040618 
L 306.334923 102.432057 
L 306.397064 112.616416 
L 306.982964 318.213004 
L 307.196018 365.586061 
L 307.258159 366.007698 
L 307.3203 365.811956 
L 307.586618 363.818354 
L 308.110377 358.214708 
L 308.971473 346.083987 
L 310.214291 329.449946 
L 310.888964 319.719136 
L 311.146405 312.410601 
L 311.315073 300.569849 
L 311.439355 272.307885 
L 311.545882 173.83609 
L 311.634655 102.400648 
L 311.696795 112.855125 
L 312.291573 322.412786 
L 312.49575 365.600635 
L 312.557891 366.007447 
L 312.620032 365.807685 
L 312.88635 363.811067 
L 313.410109 358.204406 
L 314.280082 345.941264 
L 315.531777 329.218774 
L 316.188695 319.702301 
L 316.446136 312.37492 
L 316.614805 300.472104 
L 316.739086 271.949569 
L 316.845614 172.621786 
L 316.934386 102.375521 
L 316.996527 113.097101 
L 317.600182 326.619101 
L 317.795482 365.614707 
L 317.857623 366.007196 
L 317.910886 365.847637 
L 318.15945 364.035454 
L 318.674332 358.633078 
L 319.491041 347.234819 
L 320.796 329.649457 
L 321.488427 319.685717 
L 321.745868 312.338988 
L 321.914536 300.373102 
L 322.038818 271.584469 
L 322.145345 171.403538 
L 322.234118 102.357178 
L 322.296259 113.340083 
L 322.908791 330.785463 
L 323.095214 365.628778 
L 323.157355 366.006693 
L 323.210618 365.843617 
L 323.459182 364.028418 
L 323.974064 358.622776 
L 324.790773 347.222506 
L 326.095732 329.639154 
L 326.779282 319.845526 
L 327.036723 312.679714 
L 327.205391 301.298542 
L 327.329673 274.922383 
L 327.427323 195.538037 
L 327.53385 102.346373 
L 327.595991 113.583315 
L 328.2174 334.859609 
L 328.403823 365.766224 
L 328.457086 366.00619 
L 328.51035 365.839596 
L 328.758914 364.021131 
L 329.273795 358.612725 
L 329.318182 358.062185 
L 329.335936 358.925058 
L 329.531236 362.751447 
L 329.620009 362.93161 
L 329.664395 362.876581 
L 329.815309 362.294633 
L 330.214786 359.593193 
L 332.176664 345.44123 
L 332.869091 342.351322 
L 333.428359 340.763777 
L 333.889977 340.051166 
L 334.262823 339.833564 
L 334.617914 339.872008 
L 335.106164 340.181577 
L 336.562036 341.194208 
L 337.218955 341.28341 
L 338.124436 341.173604 
L 339.926523 340.979872 
L 342.154718 341.027614 
L 345.909805 341.02284 
L 435.845455 341.02485 
L 435.845455 341.02485 
" clip-path="url(#p00dbe8efdc)" style="fill: none; stroke: #1f77b4; stroke-width: 1.5; stroke-linecap: square"/>
   </g>
   <g id="line2d_14">
    <path d="M 80.754545 341.090935 
L 81.038618 342.899901 
L 81.331568 343.660181 
L 81.535745 343.724919 
L 81.766555 343.513559 
L 82.272559 342.646911 
L 82.858459 341.823277 
L 83.249059 341.620975 
L 83.648536 341.672019 
L 85.246445 342.126794 
L 88.522159 342.024107 
L 139.513214 342.014579 
L 151.772727 342.014579 
L 152.243223 306.205896 
L 152.314241 259.818125 
L 152.420768 66.96 
L 152.527295 82.017892 
L 152.846877 183.355351 
L 153.415023 369.36 
L 153.52155 369.128767 
L 153.921027 367.595498 
L 154.373768 364.902319 
L 154.933036 360.080966 
L 157.489691 335.853248 
L 158.262014 329.367214 
L 158.492823 325.139623 
L 158.643736 317.3461 
L 158.741386 299.673467 
L 158.812405 240.006903 
L 158.910055 73.062033 
L 158.98995 83.628713 
L 159.265145 171.681381 
L 159.8688 369.310082 
L 159.948695 369.142188 
L 160.339295 367.661392 
L 160.792036 365.002089 
L 161.351305 360.219072 
L 163.952345 335.680594 
L 164.742423 329.130941 
L 164.964355 325.113552 
L 165.115268 317.565255 
L 165.221795 297.627232 
L 165.292814 229.490426 
L 165.390464 73.238487 
L 165.461482 83.047192 
L 165.718923 164.739588 
L 166.340332 369.307236 
L 166.420227 369.146508 
L 166.80195 367.709936 
L 167.254691 365.075773 
L 167.805082 360.408058 
L 170.503773 335.111542 
L 171.222832 329.057836 
L 171.444764 324.956169 
L 171.5868 317.876506 
L 171.693327 298.96597 
L 171.764345 236.727699 
L 171.861995 73.222897 
L 171.941891 84.222305 
L 172.225964 175.646545 
L 172.820741 369.307115 
L 172.900636 369.131008 
L 173.291236 367.64344 
L 173.743977 364.974898 
L 174.303245 360.181492 
L 176.886532 335.784427 
L 177.694364 329.102163 
L 177.916295 325.060616 
L 178.067209 317.414441 
L 178.173736 296.983186 
L 178.244755 225.964354 
L 178.342405 73.284072 
L 178.413423 83.416098 
L 178.679741 168.366391 
L 179.292273 369.307521 
L 179.372168 369.141485 
L 179.762768 367.660417 
L 180.215509 365.000614 
L 180.774777 360.217052 
L 183.375818 335.681569 
L 184.165895 329.14662 
L 184.387827 325.163077 
L 184.538741 317.735117 
L 184.645268 298.372544 
L 184.716286 233.566235 
L 184.813936 73.223866 
L 184.893832 84.591138 
L 185.186782 179.195724 
L 185.772682 369.306435 
L 185.861455 369.100056 
L 186.260932 367.55127 
L 186.713673 364.83572 
L 187.281818 359.901728 
L 189.740823 336.489329 
L 190.672936 328.742099 
L 190.885991 324.474077 
L 191.028027 316.414673 
L 191.125677 296.329518 
L 191.196695 222.30675 
L 191.285468 73.247472 
L 191.356486 81.864884 
L 191.596173 156.691934 
L 192.244214 369.307552 
L 192.315232 369.162217 
L 192.696955 367.735412 
L 193.149695 365.114526 
L 193.700086 360.461774 
L 196.425409 334.956925 
L 197.126714 329.016702 
L 197.348645 324.859808 
L 197.490682 317.592309 
L 197.597209 297.761695 
L 197.668227 230.250896 
L 197.765877 73.241113 
L 197.836895 82.978015 
L 198.094336 164.631562 
L 198.715745 369.306992 
L 198.795641 369.147261 
L 199.177364 367.71116 
L 199.630105 365.077634 
L 200.180495 360.410636 
L 202.879186 335.113611 
L 203.598245 329.062013 
L 203.820177 324.966657 
L 203.962214 317.907943 
L 204.068741 299.097819 
L 204.139759 237.427482 
L 204.237409 73.225769 
L 204.317305 84.139807 
L 204.601377 175.522722 
L 205.196155 369.307228 
L 205.284927 369.105975 
L 205.684405 367.560825 
L 206.137145 364.850113 
L 206.705291 359.921534 
L 209.173173 336.438231 
L 210.087532 328.883514 
L 210.300586 324.811328 
L 210.442623 317.447908 
L 210.54915 297.131042 
L 210.620168 226.787675 
L 210.717818 73.274529 
L 210.788836 83.333433 
L 211.055155 168.237546 
L 211.667686 369.307457 
L 211.747582 369.142567 
L 212.138182 367.662176 
L 212.590923 365.00328 
L 213.150191 360.220741 
L 215.751232 335.684297 
L 216.541309 329.151205 
L 216.763241 325.173581 
L 216.914155 317.767741 
L 217.020682 298.51025 
L 217.0917 234.306011 
L 217.18935 73.222128 
L 217.269245 84.506139 
L 217.562195 179.070005 
L 218.148095 369.306617 
L 218.236868 369.10117 
L 218.636345 367.553066 
L 219.089086 364.838424 
L 219.657232 359.905448 
L 222.125114 336.426239 
L 223.039473 328.862726 
L 223.252527 324.762359 
L 223.394564 317.301275 
L 223.501091 296.479691 
L 223.572109 223.148232 
L 223.660882 73.255352 
L 223.7319 81.788261 
L 223.971586 156.564096 
L 224.619627 369.307578 
L 224.690645 369.163261 
L 225.072368 367.737114 
L 225.525109 365.117118 
L 226.0755 360.465372 
L 228.800823 334.95964 
L 229.502127 329.021381 
L 229.724059 324.870914 
L 229.866095 317.625309 
L 229.972623 297.90407 
L 230.043641 231.02662 
L 230.141291 73.235836 
L 230.212309 82.897298 
L 230.46975 164.503345 
L 231.091159 369.306822 
L 231.171055 369.148326 
L 231.552777 367.712881 
L 232.005518 365.08025 
L 232.555909 360.414259 
L 235.2546 335.116332 
L 235.973659 329.066653 
L 236.195591 324.977577 
L 236.337627 317.939859 
L 236.444155 299.230635 
L 236.515173 238.128015 
L 236.612823 73.229139 
L 236.692718 84.055905 
L 236.976791 175.396267 
L 237.571568 369.307336 
L 237.660341 369.107081 
L 238.059818 367.562611 
L 238.512559 364.852805 
L 239.080705 359.92524 
L 241.548586 336.440994 
L 242.471823 328.773142 
L 242.684877 324.549398 
L 242.826914 316.649493 
L 242.924564 297.27889 
L 242.995582 227.601479 
L 243.093232 73.265488 
L 243.16425 83.251025 
L 243.430568 168.108732 
L 244.0431 369.30738 
L 244.122995 369.14365 
L 244.504718 367.705337 
L 244.957459 365.068784 
L 245.50785 360.398383 
L 248.197664 335.169377 
L 248.9256 329.04643 
L 249.147532 324.930017 
L 249.289568 317.800166 
L 249.396095 298.64689 
L 249.467114 235.036387 
L 249.564764 73.221614 
L 249.644659 84.42177 
L 249.928732 175.945269 
L 250.523509 369.306773 
L 250.603405 369.128424 
L 250.994005 367.639266 
L 251.446745 364.968578 
L 252.006014 360.172762 
L 254.5893 335.777991 
L 255.397132 329.091335 
L 255.619064 325.035364 
L 255.769977 317.334879 
L 255.876505 296.629773 
L 255.947523 223.989667 
L 256.036295 73.264555 
L 256.107314 81.711177 
L 256.347 156.435077 
L 256.995041 369.307587 
L 257.066059 369.164312 
L 257.447782 367.738827 
L 257.900523 365.119726 
L 258.450914 360.468992 
L 261.176236 334.962374 
L 261.877541 329.026056 
L 262.099473 324.881971 
L 262.241509 317.658111 
L 262.348036 298.044852 
L 262.419055 231.790557 
L 262.516705 73.231531 
L 262.587723 82.816862 
L 262.845164 164.375169 
L 263.466573 369.30663 
L 263.546468 369.149389 
L 263.928191 367.714598 
L 264.380932 365.082861 
L 264.931323 360.417875 
L 267.630014 335.119049 
L 268.349073 329.071284 
L 268.571005 324.98847 
L 268.721918 317.1867 
L 268.819568 299.362098 
L 268.890586 238.816605 
L 268.988236 73.233198 
L 269.068132 83.972565 
L 269.343327 172.253557 
L 269.946982 369.307427 
L 270.026877 369.134233 
L 270.417477 367.648657 
L 270.870218 364.982797 
L 271.429486 360.19241 
L 274.02165 335.727924 
L 274.820605 329.115868 
L 275.042536 325.092433 
L 275.19345 317.514549 
L 275.299977 297.423351 
L 275.370995 228.394286 
L 275.468645 73.257283 
L 275.539664 83.169892 
L 275.805982 167.981482 
L 276.418514 369.307292 
L 276.498409 369.14472 
L 276.880132 367.707062 
L 277.332873 365.071405 
L 277.883264 360.402011 
L 280.573077 335.172091 
L 281.301014 329.051043 
L 281.522945 324.940868 
L 281.664982 317.832136 
L 281.771509 298.781468 
L 281.842527 235.750648 
L 281.940177 73.221756 
L 282.020073 84.338251 
L 282.304145 175.820493 
L 282.898923 369.306919 
L 282.978818 369.129499 
L 283.369418 367.641003 
L 283.822159 364.971208 
L 284.381427 360.176395 
L 286.964714 335.780673 
L 287.772545 329.095855 
L 287.994477 325.045916 
L 288.145391 317.368152 
L 288.251918 296.778226 
L 288.322936 224.822921 
L 288.411709 73.274908 
L 288.482727 81.634666 
L 288.722414 156.306599 
L 289.370455 369.307573 
L 289.441473 369.165352 
L 289.823195 367.740525 
L 290.275936 365.122312 
L 290.826327 360.472581 
L 293.560527 334.899945 
L 294.252955 329.030686 
L 294.474886 324.892915 
L 294.616923 317.690554 
L 294.72345 298.183272 
L 294.794468 232.540841 
L 294.892118 73.227748 
L 294.963136 82.737458 
L 295.220577 164.248185 
L 295.841986 369.306426 
L 295.921882 369.15045 
L 296.303605 367.716313 
L 296.756345 365.085469 
L 297.306736 360.421488 
L 300.005427 335.121759 
L 300.724486 329.075879 
L 300.946418 324.999252 
L 301.097332 317.22084 
L 301.194982 299.49161 
L 301.266 239.493656 
L 301.36365 73.238317 
L 301.443545 83.889926 
L 301.718741 172.127642 
L 302.322395 369.307493 
L 302.402291 369.135312 
L 302.792891 367.650403 
L 303.245632 364.985443 
L 303.8049 360.196067 
L 306.397064 335.73062 
L 307.196018 329.120389 
L 307.41795 325.10282 
L 307.568864 317.547054 
L 307.675391 297.565221 
L 307.746409 229.173604 
L 307.844059 73.249877 
L 307.915077 83.089687 
L 308.181395 167.855279 
L 308.793927 369.307188 
L 308.873823 369.145782 
L 309.255545 367.708773 
L 309.708286 365.074007 
L 310.258677 360.405613 
L 312.957368 335.109846 
L 313.676427 329.055618 
L 313.898359 324.951624 
L 314.040395 317.863799 
L 314.146923 298.913717 
L 314.217941 236.451753 
L 314.315591 73.222633 
L 314.395486 84.255454 
L 314.679559 175.696399 
L 315.274336 369.307057 
L 315.354232 369.130571 
L 315.744832 367.642735 
L 316.197573 364.97383 
L 316.756841 360.180018 
L 319.340127 335.783343 
L 320.147959 329.100355 
L 320.369891 325.056419 
L 320.520805 317.401245 
L 320.627332 296.924902 
L 320.69835 225.639941 
L 320.787123 73.286162 
L 320.867018 83.448687 
L 321.133336 168.417133 
L 321.745868 369.307539 
L 321.825764 369.141056 
L 322.216364 367.65972 
L 322.669105 364.999558 
L 323.228373 360.21559 
L 325.829414 335.68049 
L 326.619491 329.144824 
L 326.841423 325.158977 
L 326.992336 317.72237 
L 327.098864 298.318434 
L 327.169882 233.273149 
L 327.267532 73.224747 
L 327.33855 82.65908 
L 327.595991 164.122387 
L 328.226277 369.306357 
L 328.297295 369.151502 
L 328.679018 367.718016 
L 329.131759 365.088058 
L 329.318182 363.680896 
L 329.335936 364.395445 
L 329.406955 365.142714 
L 329.460218 364.986757 
L 329.762045 362.956704 
L 330.774055 354.499387 
L 331.723923 347.452695 
L 332.425227 343.771995 
L 332.975618 341.93343 
L 333.366218 341.277948 
L 333.650291 341.163049 
L 333.943241 341.299067 
L 335.336973 342.267517 
L 335.93175 342.152518 
L 337.014777 341.948044 
L 338.435141 342.026941 
L 341.071691 342.011123 
L 360.912395 342.014579 
L 435.845455 342.014579 
L 435.845455 342.014579 
" clip-path="url(#p00dbe8efdc)" style="fill: none; stroke: #ff0000; stroke-width: 1.5; stroke-linecap: square"/>
   </g>
   <g id="patch_3">
    <path d="M 63 384.48 
L 63 51.84 
" style="fill: none; stroke: #000000; stroke-width: 0.8; stroke-linejoin: miter; stroke-linecap: square"/>
   </g>
   <g id="patch_4">
    <path d="M 453.6 384.48 
L 453.6 51.84 
" style="fill: none; stroke: #000000; stroke-width: 0.8; stroke-linejoin: miter; stroke-linecap: square"/>
   </g>
   <g id="patch_5">
    <path d="M 63 384.48 
L 453.6 384.48 
" style="fill: none; stroke: #000000; stroke-width: 0.8; stroke-linejoin: miter; stroke-linecap: square"/>
   </g>
   <g id="patch_6">
    <path d="M 63 51.84 
L 453.6 51.84 
" style="fill: none; stroke: #000000; stroke-width: 0.8; stroke-linejoin: miter; stroke-linecap: square"/>
   </g>
   <g id="legend_1">
    <g id="patch_7">
     <path d="M 383.460938 89.19625 
L 446.6 89.19625 
Q 448.6 89.19625 448.6 87.19625 
L 448.6 58.84 
Q 448.6 56.84 446.6 56.84 
L 383.460938 56.84 
Q 381.460938 56.84 381.460938 58.84 
L 381.460938 87.19625 
Q 381.460938 89.19625 383.460938 89.19625 
z
" style="fill: #ffffff; opacity: 0.8; stroke: #cccccc; stroke-linejoin: miter"/>
    </g>
    <g id="line2d_15">
     <path d="M 385.460938 64.938437 
L 395.460938 64.938437 
L 405.460938 64.938437 
" style="fill: none; stroke: #1f77b4; stroke-width: 1.5; stroke-linecap: square"/>
    </g>
    <g id="text_15">
     <!-- target -->
     <g transform="translate(413.460938 68.438437)scale(0.1 -0.1)">
      <defs>
       <path id="DejaVuSans-72" d="M 2631 2963 
Q 2534 3019 2420 3045 
Q 2306 3072 2169 3072 
Q 1681 3072 1420 2755 
Q 1159 2438 1159 1844 
L 1159 0 
L 581 0 
L 581 3500 
L 1159 3500 
L 1159 2956 
Q 1341 3275 1631 3429 
Q 1922 3584 2338 3584 
Q 2397 3584 2469 3576 
Q 2541 3569 2628 3553 
L 2631 2963 
z
" transform="scale(0.015625)"/>
      </defs>
      <use xlink:href="#DejaVuSans-74"/>
      <use xlink:href="#DejaVuSans-61" x="39.208984"/>
      <use xlink:href="#DejaVuSans-72" x="100.488281"/>
      <use xlink:href="#DejaVuSans-67" x="139.851562"/>
      <use xlink:href="#DejaVuSans-65" x="203.328125"/>
      <use xlink:href="#DejaVuSans-74" x="264.851562"/>
     </g>
    </g>
    <g id="line2d_16">
     <path d="M 385.460938 79.616562 
L 395.460938 79.616562 
L 405.460938 79.616562 
" style="fill: none; stroke: #ff0000; stroke-width: 1.5; stroke-linecap: square"/>
    </g>
    <g id="text_16">
     <!-- model -->
     <g transform="translate(413.460938 83.116562)scale(0.1 -0.1)">
      <defs>
       <path id="DejaVuSans-64" d="M 2906 2969 
L 2906 4863 
L 3481 4863 
L 3481 0 
L 2906 0 
L 2906 525 
Q 2725 213 2448 61 
Q 2172 -91 1784 -91 
Q 1150 -91 751 415 
Q 353 922 353 1747 
Q 353 2572 751 3078 
Q 1150 3584 1784 3584 
Q 2172 3584 2448 3432 
Q 2725 3281 2906 2969 
z
M 947 1747 
Q 947 1113 1208 752 
Q 1469 391 1925 391 
Q 2381 391 2643 752 
Q 2906 1113 2906 1747 
Q 2906 2381 2643 2742 
Q 2381 3103 1925 3103 
Q 1469 3103 1208 2742 
Q 947 2381 947 1747 
z
" transform="scale(0.015625)"/>
      </defs>
      <use xlink:href="#DejaVuSans-6d"/>
      <use xlink:href="#DejaVuSans-6f" x="97.412109"/>
      <use xlink:href="#DejaVuSans-64" x="158.59375"/>
      <use xlink:href="#DejaVuSans-65" x="222.070312"/>
      <use xlink:href="#DejaVuSans-6c" x="283.59375"/>
     </g>
    </g>
   </g>
  </g>
 </g>
 <defs>
  <clipPath id="p00dbe8efdc">
   <rect x="63" y="51.84" width="390.6" height="332.64"/>
  </clipPath>
 </defs>
</svg>
