<?xml version="1.0" encoding="utf-8" standalone="no"?>
<!DOCTYPE svg PUBLIC "-//W3C//DTD SVG 1.1//EN"
  "http://www.w3.org/Graphics/SVG/1.1/DTD/svg11.dtd">
<svg xmlns:xlink="http://www.w3.org/1999/xlink" width="504pt" height="432pt" viewBox="0 0 504 432" xmlns="http://www.w3.org/2000/svg" version="1.1">
 <metadata>
  <rdf:RDF xmlns:dc="http://purl.org/dc/elements/1.1/" xmlns:cc="http://creativecommons.org/ns#" xmlns:rdf="http://www.w3.org/1999/02/22-rdf-syntax-ns#">
   <cc:Work>
    <dc:type rdf:resource="http://purl.org/dc/dcmitype/StillImage"/>
    <dc:date>2022-02-01T15:38:07.548867</dc:date>
    <dc:format>image/svg+xml</dc:format>
    <dc:creator>
     <cc:Agent>
      <dc:title>Matplotlib v3.5.1, https://matplotlib.org/</dc:title>
     </cc:Agent>
    </dc:creator>
   </cc:Work>
  </rdf:RDF>
 </metadata>
 <defs>
  <style type="text/css">*{stroke-linejoin: round; stroke-linecap: butt}</style>
 </defs>
 <g id="figure_1">
  <g id="patch_1">
   <path d="M 0 432 
L 504 432 
L 504 0 
L 0 0 
z
" style="fill: #ffffff"/>
  </g>
  <g id="axes_1">
   <g id="patch_2">
    <path d="M 63 384.48 
L 453.6 384.48 
L 453.6 51.84 
L 63 51.84 
z
" style="fill: #ffffff"/>
   </g>
   <g id="matplotlib.axis_1">
    <g id="xtick_1">
     <g id="line2d_1">
      <defs>
       <path id="m75f4e40f71" d="M 0 0 
L 0 3.5 
" style="stroke: #000000; stroke-width: 0.8"/>
      </defs>
      <g>
       <use xlink:href="#m75f4e40f71" x="80.754545" y="384.48" style="stroke: #000000; stroke-width: 0.8"/>
      </g>
     </g>
     <g id="text_1">
      <!-- 0 -->
      <g transform="translate(77.573295 399.078438)scale(0.1 -0.1)">
       <defs>
        <path id="DejaVuSans-30" d="M 2034 4250 
Q 1547 4250 1301 3770 
Q 1056 3291 1056 2328 
Q 1056 1369 1301 889 
Q 1547 409 2034 409 
Q 2525 409 2770 889 
Q 3016 1369 3016 2328 
Q 3016 3291 2770 3770 
Q 2525 4250 2034 4250 
z
M 2034 4750 
Q 2819 4750 3233 4129 
Q 3647 3509 3647 2328 
Q 3647 1150 3233 529 
Q 2819 -91 2034 -91 
Q 1250 -91 836 529 
Q 422 1150 422 2328 
Q 422 3509 836 4129 
Q 1250 4750 2034 4750 
z
" transform="scale(0.015625)"/>
       </defs>
       <use xlink:href="#DejaVuSans-30"/>
      </g>
     </g>
    </g>
    <g id="xtick_2">
     <g id="line2d_2">
      <g>
       <use xlink:href="#m75f4e40f71" x="151.772727" y="384.48" style="stroke: #000000; stroke-width: 0.8"/>
      </g>
     </g>
     <g id="text_2">
      <!-- 200 -->
      <g transform="translate(142.228977 399.078438)scale(0.1 -0.1)">
       <defs>
        <path id="DejaVuSans-32" d="M 1228 531 
L 3431 531 
L 3431 0 
L 469 0 
L 469 531 
Q 828 903 1448 1529 
Q 2069 2156 2228 2338 
Q 2531 2678 2651 2914 
Q 2772 3150 2772 3378 
Q 2772 3750 2511 3984 
Q 2250 4219 1831 4219 
Q 1534 4219 1204 4116 
Q 875 4013 500 3803 
L 500 4441 
Q 881 4594 1212 4672 
Q 1544 4750 1819 4750 
Q 2544 4750 2975 4387 
Q 3406 4025 3406 3419 
Q 3406 3131 3298 2873 
Q 3191 2616 2906 2266 
Q 2828 2175 2409 1742 
Q 1991 1309 1228 531 
z
" transform="scale(0.015625)"/>
       </defs>
       <use xlink:href="#DejaVuSans-32"/>
       <use xlink:href="#DejaVuSans-30" x="63.623047"/>
       <use xlink:href="#DejaVuSans-30" x="127.246094"/>
      </g>
     </g>
    </g>
    <g id="xtick_3">
     <g id="line2d_3">
      <g>
       <use xlink:href="#m75f4e40f71" x="222.790909" y="384.48" style="stroke: #000000; stroke-width: 0.8"/>
      </g>
     </g>
     <g id="text_3">
      <!-- 400 -->
      <g transform="translate(213.247159 399.078438)scale(0.1 -0.1)">
       <defs>
        <path id="DejaVuSans-34" d="M 2419 4116 
L 825 1625 
L 2419 1625 
L 2419 4116 
z
M 2253 4666 
L 3047 4666 
L 3047 1625 
L 3713 1625 
L 3713 1100 
L 3047 1100 
L 3047 0 
L 2419 0 
L 2419 1100 
L 313 1100 
L 313 1709 
L 2253 4666 
z
" transform="scale(0.015625)"/>
       </defs>
       <use xlink:href="#DejaVuSans-34"/>
       <use xlink:href="#DejaVuSans-30" x="63.623047"/>
       <use xlink:href="#DejaVuSans-30" x="127.246094"/>
      </g>
     </g>
    </g>
    <g id="xtick_4">
     <g id="line2d_4">
      <g>
       <use xlink:href="#m75f4e40f71" x="293.809091" y="384.48" style="stroke: #000000; stroke-width: 0.8"/>
      </g>
     </g>
     <g id="text_4">
      <!-- 600 -->
      <g transform="translate(284.265341 399.078438)scale(0.1 -0.1)">
       <defs>
        <path id="DejaVuSans-36" d="M 2113 2584 
Q 1688 2584 1439 2293 
Q 1191 2003 1191 1497 
Q 1191 994 1439 701 
Q 1688 409 2113 409 
Q 2538 409 2786 701 
Q 3034 994 3034 1497 
Q 3034 2003 2786 2293 
Q 2538 2584 2113 2584 
z
M 3366 4563 
L 3366 3988 
Q 3128 4100 2886 4159 
Q 2644 4219 2406 4219 
Q 1781 4219 1451 3797 
Q 1122 3375 1075 2522 
Q 1259 2794 1537 2939 
Q 1816 3084 2150 3084 
Q 2853 3084 3261 2657 
Q 3669 2231 3669 1497 
Q 3669 778 3244 343 
Q 2819 -91 2113 -91 
Q 1303 -91 875 529 
Q 447 1150 447 2328 
Q 447 3434 972 4092 
Q 1497 4750 2381 4750 
Q 2619 4750 2861 4703 
Q 3103 4656 3366 4563 
z
" transform="scale(0.015625)"/>
       </defs>
       <use xlink:href="#DejaVuSans-36"/>
       <use xlink:href="#DejaVuSans-30" x="63.623047"/>
       <use xlink:href="#DejaVuSans-30" x="127.246094"/>
      </g>
     </g>
    </g>
    <g id="xtick_5">
     <g id="line2d_5">
      <g>
       <use xlink:href="#m75f4e40f71" x="364.827273" y="384.48" style="stroke: #000000; stroke-width: 0.8"/>
      </g>
     </g>
     <g id="text_5">
      <!-- 800 -->
      <g transform="translate(355.283523 399.078438)scale(0.1 -0.1)">
       <defs>
        <path id="DejaVuSans-38" d="M 2034 2216 
Q 1584 2216 1326 1975 
Q 1069 1734 1069 1313 
Q 1069 891 1326 650 
Q 1584 409 2034 409 
Q 2484 409 2743 651 
Q 3003 894 3003 1313 
Q 3003 1734 2745 1975 
Q 2488 2216 2034 2216 
z
M 1403 2484 
Q 997 2584 770 2862 
Q 544 3141 544 3541 
Q 544 4100 942 4425 
Q 1341 4750 2034 4750 
Q 2731 4750 3128 4425 
Q 3525 4100 3525 3541 
Q 3525 3141 3298 2862 
Q 3072 2584 2669 2484 
Q 3125 2378 3379 2068 
Q 3634 1759 3634 1313 
Q 3634 634 3220 271 
Q 2806 -91 2034 -91 
Q 1263 -91 848 271 
Q 434 634 434 1313 
Q 434 1759 690 2068 
Q 947 2378 1403 2484 
z
M 1172 3481 
Q 1172 3119 1398 2916 
Q 1625 2713 2034 2713 
Q 2441 2713 2670 2916 
Q 2900 3119 2900 3481 
Q 2900 3844 2670 4047 
Q 2441 4250 2034 4250 
Q 1625 4250 1398 4047 
Q 1172 3844 1172 3481 
z
" transform="scale(0.015625)"/>
       </defs>
       <use xlink:href="#DejaVuSans-38"/>
       <use xlink:href="#DejaVuSans-30" x="63.623047"/>
       <use xlink:href="#DejaVuSans-30" x="127.246094"/>
      </g>
     </g>
    </g>
    <g id="text_6">
     <!-- time [ms] -->
     <g transform="translate(234.038281 412.756563)scale(0.1 -0.1)">
      <defs>
       <path id="DejaVuSans-74" d="M 1172 4494 
L 1172 3500 
L 2356 3500 
L 2356 3053 
L 1172 3053 
L 1172 1153 
Q 1172 725 1289 603 
Q 1406 481 1766 481 
L 2356 481 
L 2356 0 
L 1766 0 
Q 1100 0 847 248 
Q 594 497 594 1153 
L 594 3053 
L 172 3053 
L 172 3500 
L 594 3500 
L 594 4494 
L 1172 4494 
z
" transform="scale(0.015625)"/>
       <path id="DejaVuSans-69" d="M 603 3500 
L 1178 3500 
L 1178 0 
L 603 0 
L 603 3500 
z
M 603 4863 
L 1178 4863 
L 1178 4134 
L 603 4134 
L 603 4863 
z
" transform="scale(0.015625)"/>
       <path id="DejaVuSans-6d" d="M 3328 2828 
Q 3544 3216 3844 3400 
Q 4144 3584 4550 3584 
Q 5097 3584 5394 3201 
Q 5691 2819 5691 2113 
L 5691 0 
L 5113 0 
L 5113 2094 
Q 5113 2597 4934 2840 
Q 4756 3084 4391 3084 
Q 3944 3084 3684 2787 
Q 3425 2491 3425 1978 
L 3425 0 
L 2847 0 
L 2847 2094 
Q 2847 2600 2669 2842 
Q 2491 3084 2119 3084 
Q 1678 3084 1418 2786 
Q 1159 2488 1159 1978 
L 1159 0 
L 581 0 
L 581 3500 
L 1159 3500 
L 1159 2956 
Q 1356 3278 1631 3431 
Q 1906 3584 2284 3584 
Q 2666 3584 2933 3390 
Q 3200 3197 3328 2828 
z
" transform="scale(0.015625)"/>
       <path id="DejaVuSans-65" d="M 3597 1894 
L 3597 1613 
L 953 1613 
Q 991 1019 1311 708 
Q 1631 397 2203 397 
Q 2534 397 2845 478 
Q 3156 559 3463 722 
L 3463 178 
Q 3153 47 2828 -22 
Q 2503 -91 2169 -91 
Q 1331 -91 842 396 
Q 353 884 353 1716 
Q 353 2575 817 3079 
Q 1281 3584 2069 3584 
Q 2775 3584 3186 3129 
Q 3597 2675 3597 1894 
z
M 3022 2063 
Q 3016 2534 2758 2815 
Q 2500 3097 2075 3097 
Q 1594 3097 1305 2825 
Q 1016 2553 972 2059 
L 3022 2063 
z
" transform="scale(0.015625)"/>
       <path id="DejaVuSans-20" transform="scale(0.015625)"/>
       <path id="DejaVuSans-5b" d="M 550 4863 
L 1875 4863 
L 1875 4416 
L 1125 4416 
L 1125 -397 
L 1875 -397 
L 1875 -844 
L 550 -844 
L 550 4863 
z
" transform="scale(0.015625)"/>
       <path id="DejaVuSans-73" d="M 2834 3397 
L 2834 2853 
Q 2591 2978 2328 3040 
Q 2066 3103 1784 3103 
Q 1356 3103 1142 2972 
Q 928 2841 928 2578 
Q 928 2378 1081 2264 
Q 1234 2150 1697 2047 
L 1894 2003 
Q 2506 1872 2764 1633 
Q 3022 1394 3022 966 
Q 3022 478 2636 193 
Q 2250 -91 1575 -91 
Q 1294 -91 989 -36 
Q 684 19 347 128 
L 347 722 
Q 666 556 975 473 
Q 1284 391 1588 391 
Q 1994 391 2212 530 
Q 2431 669 2431 922 
Q 2431 1156 2273 1281 
Q 2116 1406 1581 1522 
L 1381 1569 
Q 847 1681 609 1914 
Q 372 2147 372 2553 
Q 372 3047 722 3315 
Q 1072 3584 1716 3584 
Q 2034 3584 2315 3537 
Q 2597 3491 2834 3397 
z
" transform="scale(0.015625)"/>
       <path id="DejaVuSans-5d" d="M 1947 4863 
L 1947 -844 
L 622 -844 
L 622 -397 
L 1369 -397 
L 1369 4416 
L 622 4416 
L 622 4863 
L 1947 4863 
z
" transform="scale(0.015625)"/>
      </defs>
      <use xlink:href="#DejaVuSans-74"/>
      <use xlink:href="#DejaVuSans-69" x="39.208984"/>
      <use xlink:href="#DejaVuSans-6d" x="66.992188"/>
      <use xlink:href="#DejaVuSans-65" x="164.404297"/>
      <use xlink:href="#DejaVuSans-20" x="225.927734"/>
      <use xlink:href="#DejaVuSans-5b" x="257.714844"/>
      <use xlink:href="#DejaVuSans-6d" x="296.728516"/>
      <use xlink:href="#DejaVuSans-73" x="394.140625"/>
      <use xlink:href="#DejaVuSans-5d" x="446.240234"/>
     </g>
    </g>
   </g>
   <g id="matplotlib.axis_2">
    <g id="ytick_1">
     <g id="line2d_6">
      <defs>
       <path id="m5ac98fe622" d="M 0 0 
L -3.5 0 
" style="stroke: #000000; stroke-width: 0.8"/>
      </defs>
      <g>
       <use xlink:href="#m5ac98fe622" x="63" y="381.326425" style="stroke: #000000; stroke-width: 0.8"/>
      </g>
     </g>
     <g id="text_7">
      <!-- −80 -->
      <g transform="translate(34.895313 385.125644)scale(0.1 -0.1)">
       <defs>
        <path id="DejaVuSans-2212" d="M 678 2272 
L 4684 2272 
L 4684 1741 
L 678 1741 
L 678 2272 
z
" transform="scale(0.015625)"/>
       </defs>
       <use xlink:href="#DejaVuSans-2212"/>
       <use xlink:href="#DejaVuSans-38" x="83.789062"/>
       <use xlink:href="#DejaVuSans-30" x="147.412109"/>
      </g>
     </g>
    </g>
    <g id="ytick_2">
     <g id="line2d_7">
      <g>
       <use xlink:href="#m5ac98fe622" x="63" y="328.790085" style="stroke: #000000; stroke-width: 0.8"/>
      </g>
     </g>
     <g id="text_8">
      <!-- −60 -->
      <g transform="translate(34.895313 332.589304)scale(0.1 -0.1)">
       <use xlink:href="#DejaVuSans-2212"/>
       <use xlink:href="#DejaVuSans-36" x="83.789062"/>
       <use xlink:href="#DejaVuSans-30" x="147.412109"/>
      </g>
     </g>
    </g>
    <g id="ytick_3">
     <g id="line2d_8">
      <g>
       <use xlink:href="#m5ac98fe622" x="63" y="276.253745" style="stroke: #000000; stroke-width: 0.8"/>
      </g>
     </g>
     <g id="text_9">
      <!-- −40 -->
      <g transform="translate(34.895313 280.052964)scale(0.1 -0.1)">
       <use xlink:href="#DejaVuSans-2212"/>
       <use xlink:href="#DejaVuSans-34" x="83.789062"/>
       <use xlink:href="#DejaVuSans-30" x="147.412109"/>
      </g>
     </g>
    </g>
    <g id="ytick_4">
     <g id="line2d_9">
      <g>
       <use xlink:href="#m5ac98fe622" x="63" y="223.717405" style="stroke: #000000; stroke-width: 0.8"/>
      </g>
     </g>
     <g id="text_10">
      <!-- −20 -->
      <g transform="translate(34.895313 227.516624)scale(0.1 -0.1)">
       <use xlink:href="#DejaVuSans-2212"/>
       <use xlink:href="#DejaVuSans-32" x="83.789062"/>
       <use xlink:href="#DejaVuSans-30" x="147.412109"/>
      </g>
     </g>
    </g>
    <g id="ytick_5">
     <g id="line2d_10">
      <g>
       <use xlink:href="#m5ac98fe622" x="63" y="171.181066" style="stroke: #000000; stroke-width: 0.8"/>
      </g>
     </g>
     <g id="text_11">
      <!-- 0 -->
      <g transform="translate(49.6375 174.980284)scale(0.1 -0.1)">
       <use xlink:href="#DejaVuSans-30"/>
      </g>
     </g>
    </g>
    <g id="ytick_6">
     <g id="line2d_11">
      <g>
       <use xlink:href="#m5ac98fe622" x="63" y="118.644726" style="stroke: #000000; stroke-width: 0.8"/>
      </g>
     </g>
     <g id="text_12">
      <!-- 20 -->
      <g transform="translate(43.275 122.443945)scale(0.1 -0.1)">
       <use xlink:href="#DejaVuSans-32"/>
       <use xlink:href="#DejaVuSans-30" x="63.623047"/>
      </g>
     </g>
    </g>
    <g id="ytick_7">
     <g id="line2d_12">
      <g>
       <use xlink:href="#m5ac98fe622" x="63" y="66.108386" style="stroke: #000000; stroke-width: 0.8"/>
      </g>
     </g>
     <g id="text_13">
      <!-- 40 -->
      <g transform="translate(43.275 69.907605)scale(0.1 -0.1)">
       <use xlink:href="#DejaVuSans-34"/>
       <use xlink:href="#DejaVuSans-30" x="63.623047"/>
      </g>
     </g>
    </g>
    <g id="text_14">
     <!-- voltage [mV] -->
     <g transform="translate(28.815625 250.624062)rotate(-90)scale(0.1 -0.1)">
      <defs>
       <path id="DejaVuSans-76" d="M 191 3500 
L 800 3500 
L 1894 563 
L 2988 3500 
L 3597 3500 
L 2284 0 
L 1503 0 
L 191 3500 
z
" transform="scale(0.015625)"/>
       <path id="DejaVuSans-6f" d="M 1959 3097 
Q 1497 3097 1228 2736 
Q 959 2375 959 1747 
Q 959 1119 1226 758 
Q 1494 397 1959 397 
Q 2419 397 2687 759 
Q 2956 1122 2956 1747 
Q 2956 2369 2687 2733 
Q 2419 3097 1959 3097 
z
M 1959 3584 
Q 2709 3584 3137 3096 
Q 3566 2609 3566 1747 
Q 3566 888 3137 398 
Q 2709 -91 1959 -91 
Q 1206 -91 779 398 
Q 353 888 353 1747 
Q 353 2609 779 3096 
Q 1206 3584 1959 3584 
z
" transform="scale(0.015625)"/>
       <path id="DejaVuSans-6c" d="M 603 4863 
L 1178 4863 
L 1178 0 
L 603 0 
L 603 4863 
z
" transform="scale(0.015625)"/>
       <path id="DejaVuSans-61" d="M 2194 1759 
Q 1497 1759 1228 1600 
Q 959 1441 959 1056 
Q 959 750 1161 570 
Q 1363 391 1709 391 
Q 2188 391 2477 730 
Q 2766 1069 2766 1631 
L 2766 1759 
L 2194 1759 
z
M 3341 1997 
L 3341 0 
L 2766 0 
L 2766 531 
Q 2569 213 2275 61 
Q 1981 -91 1556 -91 
Q 1019 -91 701 211 
Q 384 513 384 1019 
Q 384 1609 779 1909 
Q 1175 2209 1959 2209 
L 2766 2209 
L 2766 2266 
Q 2766 2663 2505 2880 
Q 2244 3097 1772 3097 
Q 1472 3097 1187 3025 
Q 903 2953 641 2809 
L 641 3341 
Q 956 3463 1253 3523 
Q 1550 3584 1831 3584 
Q 2591 3584 2966 3190 
Q 3341 2797 3341 1997 
z
" transform="scale(0.015625)"/>
       <path id="DejaVuSans-67" d="M 2906 1791 
Q 2906 2416 2648 2759 
Q 2391 3103 1925 3103 
Q 1463 3103 1205 2759 
Q 947 2416 947 1791 
Q 947 1169 1205 825 
Q 1463 481 1925 481 
Q 2391 481 2648 825 
Q 2906 1169 2906 1791 
z
M 3481 434 
Q 3481 -459 3084 -895 
Q 2688 -1331 1869 -1331 
Q 1566 -1331 1297 -1286 
Q 1028 -1241 775 -1147 
L 775 -588 
Q 1028 -725 1275 -790 
Q 1522 -856 1778 -856 
Q 2344 -856 2625 -561 
Q 2906 -266 2906 331 
L 2906 616 
Q 2728 306 2450 153 
Q 2172 0 1784 0 
Q 1141 0 747 490 
Q 353 981 353 1791 
Q 353 2603 747 3093 
Q 1141 3584 1784 3584 
Q 2172 3584 2450 3431 
Q 2728 3278 2906 2969 
L 2906 3500 
L 3481 3500 
L 3481 434 
z
" transform="scale(0.015625)"/>
       <path id="DejaVuSans-56" d="M 1831 0 
L 50 4666 
L 709 4666 
L 2188 738 
L 3669 4666 
L 4325 4666 
L 2547 0 
L 1831 0 
z
" transform="scale(0.015625)"/>
      </defs>
      <use xlink:href="#DejaVuSans-76"/>
      <use xlink:href="#DejaVuSans-6f" x="59.179688"/>
      <use xlink:href="#DejaVuSans-6c" x="120.361328"/>
      <use xlink:href="#DejaVuSans-74" x="148.144531"/>
      <use xlink:href="#DejaVuSans-61" x="187.353516"/>
      <use xlink:href="#DejaVuSans-67" x="248.632812"/>
      <use xlink:href="#DejaVuSans-65" x="312.109375"/>
      <use xlink:href="#DejaVuSans-20" x="373.632812"/>
      <use xlink:href="#DejaVuSans-5b" x="405.419922"/>
      <use xlink:href="#DejaVuSans-6d" x="444.433594"/>
      <use xlink:href="#DejaVuSans-56" x="541.845703"/>
      <use xlink:href="#DejaVuSans-5d" x="610.253906"/>
     </g>
    </g>
   </g>
   <g id="line2d_13">
    <path d="M 80.754545 341.92417 
L 81.952977 341.787838 
L 83.772818 341.84484 
L 85.965505 341.863753 
L 151.772727 341.855085 
L 152.314241 297.29954 
L 152.420768 248.629087 
L 152.562805 66.96 
L 152.678209 92.195831 
L 153.565936 368.430855 
L 153.610323 368.330248 
L 153.8145 366.950381 
L 154.293873 362.193215 
L 154.959668 353.065289 
L 157.42755 314.145843 
L 157.613973 303.010503 
L 157.738255 281.029036 
L 157.835905 218.427259 
L 157.969064 91.3387 
L 158.031205 104.50063 
L 158.883423 368.006099 
L 158.945564 367.822484 
L 159.203005 365.841864 
L 159.717886 360.164787 
L 160.534595 348.229056 
L 161.8218 330.085631 
L 162.514227 319.711543 
L 162.771668 312.185449 
L 162.940336 300.185361 
L 163.064618 272.198728 
L 163.162268 187.738235 
L 163.268795 92.259662 
L 163.322059 101.779773 
L 163.863573 297.021098 
L 164.147645 367.829314 
L 164.183155 367.974314 
L 164.245295 367.792801 
L 164.493859 365.887833 
L 165.008741 360.230458 
L 165.834327 348.171529 
L 167.112655 330.160233 
L 167.813959 319.676081 
L 168.0714 312.140268 
L 168.240068 300.100778 
L 168.36435 271.952332 
L 168.462 186.992087 
L 168.568527 92.336628 
L 168.621791 102.002001 
L 169.172182 300.975771 
L 169.4385 367.743417 
L 169.482886 367.972213 
L 169.545027 367.786759 
L 169.802468 365.797996 
L 170.31735 360.103057 
L 171.151814 347.882316 
L 172.430141 329.917252 
L 173.113691 319.657693 
L 173.371132 312.103755 
L 173.5398 300.004899 
L 173.664082 271.613998 
L 173.761732 185.839939 
L 173.868259 92.35344 
L 173.921523 102.238152 
L 174.480791 305.049964 
L 174.729355 367.633879 
L 174.782618 367.972213 
L 174.844759 367.782556 
L 175.1022 365.790641 
L 175.617082 360.092287 
L 176.451545 347.869445 
L 177.729873 329.906482 
L 178.413423 319.640881 
L 178.670864 312.067768 
L 178.839532 299.907707 
L 178.963814 271.266733 
L 179.061464 184.654062 
L 179.167991 92.370777 
L 179.221255 102.47693 
L 179.7894 309.227391 
L 180.029086 367.646225 
L 180.08235 367.972475 
L 180.144491 367.778091 
L 180.401932 365.783286 
L 180.916814 360.08178 
L 181.751277 347.857099 
L 183.029605 329.895975 
L 183.713155 319.623807 
L 183.970595 312.031518 
L 184.139264 299.809464 
L 184.263545 270.911325 
L 184.361195 183.447329 
L 184.467723 92.394681 
L 184.520986 102.719385 
L 185.098009 313.496757 
L 185.328818 367.658308 
L 185.382082 367.972475 
L 185.444223 367.773888 
L 185.701664 365.775668 
L 186.216545 360.071272 
L 187.051009 347.84449 
L 188.329336 329.885468 
L 189.012886 319.606996 
L 189.270327 311.995005 
L 189.438995 299.709645 
L 189.563277 270.550663 
L 189.660927 182.235788 
L 189.767455 92.424364 
L 189.820718 102.964204 
L 190.406618 317.83836 
L 190.619673 367.52434 
L 190.681814 367.972213 
L 190.743955 367.769422 
L 191.010273 365.686882 
L 191.525155 359.945711 
L 192.368495 347.558692 
L 193.637945 329.759381 
L 194.312618 319.589659 
L 194.570059 311.958492 
L 194.738727 299.6093 
L 194.863009 270.186586 
L 194.969536 167.65023 
L 195.058309 92.410967 
L 195.12045 103.211651 
L 195.715227 322.226195 
L 195.919405 367.539839 
L 195.981545 367.972213 
L 196.043686 367.764957 
L 196.310005 365.679264 
L 196.833764 359.819623 
L 197.703736 347.000494 
L 198.955432 329.517976 
L 199.61235 319.572584 
L 199.869791 311.921454 
L 200.038459 299.507905 
L 200.162741 269.815154 
L 200.269268 166.385916 
L 200.358041 92.381547 
L 200.420182 103.4633 
L 201.023836 326.623224 
L 201.219136 367.554549 
L 201.281277 367.971687 
L 201.343418 367.760491 
L 201.609736 365.671646 
L 202.133495 359.808591 
L 202.994591 347.123954 
L 204.255164 329.507206 
L 204.912082 319.554985 
L 205.169523 311.883891 
L 205.338191 299.404934 
L 205.462473 269.436104 
L 205.569 165.113118 
L 205.657773 92.359219 
L 205.719914 103.716787 
L 206.332445 330.981376 
L 206.518868 367.569259 
L 206.581009 367.971425 
L 206.634273 367.80252 
L 206.873959 365.986076 
L 207.388841 360.370467 
L 208.187795 348.750479 
L 209.510509 330.072497 
L 210.202936 319.72205 
L 210.460377 312.239299 
L 210.629045 300.368976 
L 210.753327 272.90613 
L 210.850977 190.3008 
L 210.957505 92.343983 
L 211.019645 103.971326 
L 211.641055 335.246539 
L 211.827477 367.715047 
L 211.880741 367.970899 
L 211.934005 367.798317 
L 212.182568 365.898866 
L 212.69745 360.246219 
L 213.514159 348.327299 
L 214.810241 330.061727 
L 215.502668 319.704976 
L 215.760109 312.203312 
L 215.928777 300.272572 
L 216.053059 272.566482 
L 216.150709 189.120833 
L 216.257236 92.337679 
L 216.319377 104.225339 
L 216.949664 339.355143 
L 217.127209 367.725555 
L 217.171595 367.971425 
L 217.233736 367.794114 
L 217.4823 365.891511 
L 217.997182 360.235711 
L 218.822768 348.177833 
L 220.101095 330.166012 
L 220.8024 319.687901 
L 221.059841 312.167587 
L 221.228509 300.17643 
L 221.352791 272.225521 
L 221.450441 187.941445 
L 221.556968 92.338204 
L 221.610232 101.816811 
L 222.151745 297.076524 
L 222.426941 367.735536 
L 222.471327 367.971687 
L 222.533468 367.789912 
L 222.782032 365.884156 
L 223.296914 360.225204 
L 224.1225 348.164962 
L 225.418582 329.925395 
L 226.111009 319.485637 
L 226.36845 311.734425 
L 226.537118 298.99121 
L 226.652523 271.881934 
L 226.750173 186.757355 
L 226.8567 92.344246 
L 226.909964 102.054538 
L 227.460355 301.05116 
L 227.726673 367.745256 
L 227.771059 367.972213 
L 227.8332 367.785709 
L 228.090641 365.796157 
L 228.605523 360.10043 
L 229.439986 347.879164 
L 230.718314 329.914625 
L 231.401864 319.653753 
L 231.659305 312.09535 
L 231.827973 299.982834 
L 231.952255 271.535982 
L 232.049905 185.573054 
L 232.156432 92.357117 
L 232.209695 102.292002 
L 232.768964 305.128506 
L 233.017527 367.636768 
L 233.070791 367.972213 
L 233.132932 367.781506 
L 233.390373 365.788802 
L 233.905255 360.089923 
L 234.739718 347.866555 
L 236.018045 329.904118 
L 236.701595 319.636941 
L 236.959036 312.059625 
L 237.127705 299.885642 
L 237.251986 271.186878 
L 237.349636 184.381977 
L 237.456164 92.375505 
L 237.509427 102.53183 
L 238.077573 309.308297 
L 238.317259 367.648851 
L 238.370523 367.972475 
L 238.432664 367.777303 
L 238.690105 365.781447 
L 239.204986 360.079416 
L 240.03945 347.854209 
L 241.317777 329.893611 
L 242.001327 319.62013 
L 242.258768 312.023375 
L 242.427436 299.786873 
L 242.551718 270.829631 
L 242.649368 183.172433 
L 242.755895 92.400985 
L 242.809159 102.774811 
L 243.386182 313.579501 
L 243.616991 367.660935 
L 243.670255 367.972475 
L 243.732395 367.772837 
L 243.989836 365.774092 
L 244.504718 360.068908 
L 245.348059 347.705006 
L 246.617509 329.882841 
L 247.301059 319.603055 
L 247.5585 311.986862 
L 247.727168 299.686792 
L 247.85145 270.468443 
L 247.9491 181.95971 
L 248.055627 92.432244 
L 248.108891 103.020156 
L 248.694791 317.922943 
L 248.907845 367.528018 
L 248.969986 367.972213 
L 249.032127 367.768634 
L 249.298445 365.685306 
L 249.822205 359.828029 
L 250.692177 347.010476 
L 251.943873 329.526382 
L 252.600791 319.585718 
L 252.858232 311.950087 
L 253.0269 299.586184 
L 253.151182 270.102528 
L 253.257709 167.362383 
L 253.346482 92.403612 
L 253.408623 103.268915 
L 254.0034 322.312354 
L 254.207577 367.543253 
L 254.269718 367.97195 
L 254.331859 367.764169 
L 254.598177 365.677688 
L 255.121936 359.816997 
L 255.983032 347.133936 
L 257.22585 329.746246 
L 257.900523 319.568644 
L 258.157964 311.913049 
L 258.326632 299.484527 
L 258.450914 269.729257 
L 258.557441 166.095469 
L 258.646214 92.375768 
L 258.708355 103.521352 
L 259.312009 326.709383 
L 259.507309 367.557964 
L 259.56945 367.971687 
L 259.631591 367.75944 
L 259.897909 365.669808 
L 260.421668 359.806227 
L 261.291641 346.984996 
L 262.525582 329.735476 
L 263.200255 319.551044 
L 263.457695 311.875485 
L 263.626364 299.381293 
L 263.750645 269.348894 
L 263.857173 164.822146 
L 263.945945 92.355016 
L 264.008086 103.77484 
L 264.620618 331.066222 
L 264.807041 367.572674 
L 264.869182 367.971162 
L 264.922445 367.801732 
L 265.171009 365.904645 
L 265.685891 360.254624 
L 266.511477 348.200424 
L 267.807559 329.955078 
L 268.499986 319.533707 
L 268.757427 311.837922 
L 268.926095 299.278059 
L 269.050377 268.968531 
L 269.156905 163.558305 
L 269.245677 92.341882 
L 269.298941 101.397833 
L 269.8227 289.511028 
L 270.133405 367.883952 
L 270.168914 367.970899 
L 270.222177 367.797529 
L 270.470741 365.89729 
L 270.985623 360.243854 
L 271.802332 348.32441 
L 273.098414 330.059363 
L 273.790841 319.701036 
L 274.048282 312.195169 
L 274.21695 300.250769 
L 274.341232 272.488728 
L 274.438882 188.850902 
L 274.545409 92.337416 
L 274.598673 101.633984 
L 275.131309 293.280773 
L 275.424259 367.821959 
L 275.459768 367.971425 
L 275.521909 367.793326 
L 275.770473 365.889935 
L 276.285355 360.233347 
L 277.110941 348.174944 
L 278.389268 330.163648 
L 279.090573 319.683961 
L 279.348014 312.159181 
L 279.516682 300.154365 
L 279.640964 272.147242 
L 279.738614 187.671408 
L 279.845141 92.33873 
L 279.898405 101.871186 
L 280.439918 297.152439 
L 280.715114 367.737638 
L 280.7595 367.97195 
L 280.821641 367.789123 
L 281.079082 365.801936 
L 281.593964 360.108573 
L 282.428427 347.888883 
L 283.706755 329.922769 
L 284.390305 319.666887 
L 284.647745 312.123194 
L 284.816414 300.057698 
L 284.940695 271.803129 
L 285.038345 186.487213 
L 285.144873 92.34661 
L 285.198136 102.10865 
L 285.748527 301.128126 
L 286.014845 367.747357 
L 286.059232 367.972213 
L 286.121373 367.784658 
L 286.378814 365.794581 
L 286.893695 360.098066 
L 287.728159 347.876275 
L 289.006486 329.912261 
L 289.690036 319.650075 
L 289.947477 312.087207 
L 290.116145 299.960769 
L 290.240427 271.456652 
L 290.338077 185.302019 
L 290.444605 92.360795 
L 290.497868 102.346377 
L 291.057136 305.207836 
L 291.3057 367.639658 
L 291.358964 367.972475 
L 291.421105 367.780455 
L 291.678545 365.787226 
L 292.193427 360.087559 
L 293.027891 347.863666 
L 294.315095 329.786437 
L 294.989768 319.633001 
L 295.247209 312.051219 
L 295.415877 299.863314 
L 295.540159 271.105972 
L 295.637809 184.107028 
L 295.744336 92.380759 
L 295.7976 102.586993 
L 296.365745 309.389728 
L 296.605432 367.651741 
L 296.658695 367.972475 
L 296.720836 367.776252 
L 296.978277 365.779871 
L 297.493159 360.077051 
L 298.327623 347.85132 
L 299.60595 329.891247 
L 300.2895 319.616189 
L 300.546941 312.014969 
L 300.715609 299.76402 
L 300.839891 270.747674 
L 300.937541 182.897142 
L 301.044068 92.407552 
L 301.097332 102.830237 
L 301.674355 313.662246 
L 301.905164 367.663562 
L 301.958427 367.972475 
L 302.020568 367.772049 
L 302.286886 365.691085 
L 302.810645 359.836172 
L 303.671741 347.156527 
L 304.914559 329.765422 
L 305.589232 319.599115 
L 305.846673 311.978456 
L 306.015341 299.664201 
L 306.139623 270.385961 
L 306.24615 168.334778 
L 306.334923 92.429618 
L 306.397064 103.076369 
L 306.982964 318.007527 
L 307.196018 367.531433 
L 307.258159 367.972213 
L 307.3203 367.767584 
L 307.586618 365.683467 
L 308.110377 359.825402 
L 308.971473 347.143918 
L 310.214291 329.754652 
L 310.888964 319.582041 
L 311.146405 311.941681 
L 311.315073 299.563331 
L 311.439355 270.018207 
L 311.545882 167.075561 
L 311.634655 92.396782 
L 311.696795 103.325917 
L 312.291573 322.397989 
L 312.49575 367.546668 
L 312.557891 367.97195 
L 312.620032 367.763118 
L 312.88635 365.675849 
L 313.410109 359.814632 
L 314.280082 346.994715 
L 315.531777 329.512985 
L 316.188695 319.564441 
L 316.446136 311.90438 
L 316.614805 299.461148 
L 316.739086 269.643623 
L 316.845614 165.806125 
L 316.934386 92.370514 
L 316.996527 103.57888 
L 317.600182 326.79528 
L 317.795482 367.561378 
L 317.857623 367.971687 
L 317.910886 367.804884 
L 318.150573 365.990017 
L 318.665455 360.376246 
L 319.464409 348.757309 
L 320.787123 330.078539 
L 321.488427 319.547104 
L 321.745868 311.866817 
L 321.914536 299.357651 
L 322.038818 269.261946 
L 322.145345 164.532566 
L 322.234118 92.351338 
L 322.296259 103.832893 
L 322.908791 331.150805 
L 323.095214 367.576089 
L 323.157355 367.971162 
L 323.210618 367.800681 
L 323.459182 365.903069 
L 323.974064 360.251998 
L 324.790773 348.334129 
L 326.095732 329.952452 
L 326.779282 319.71417 
L 327.036723 312.223013 
L 327.205391 300.325108 
L 327.329673 272.75141 
L 327.427323 189.762827 
L 327.53385 92.340043 
L 327.595991 104.087169 
L 328.2174 335.409927 
L 328.403823 367.719776 
L 328.457086 367.970637 
L 328.51035 367.796479 
L 328.758914 365.895451 
L 329.273795 360.24149 
L 329.318182 359.665955 
L 329.335936 360.568004 
L 329.531236 364.568121 
L 329.620009 364.756463 
L 329.664395 364.698936 
L 329.815309 364.090565 
L 330.214786 361.266474 
L 332.176664 346.471978 
L 332.869091 343.241781 
L 333.428359 341.582158 
L 333.889977 340.837193 
L 334.262823 340.609711 
L 334.609036 340.646486 
L 335.061777 340.936224 
L 336.553159 342.02898 
L 337.156814 342.12591 
L 338.097805 342.015583 
L 339.580309 341.820673 
L 342.101455 341.856923 
L 345.723382 341.852983 
L 435.845455 341.855085 
L 435.845455 341.855085 
" clip-path="url(#paf250ee6e9)" style="fill: none; stroke: #1f77b4; stroke-width: 1.5; stroke-linecap: square"/>
   </g>
   <g id="line2d_14">
    <path d="M 80.754545 341.92417 
L 81.083005 337.482539 
L 81.491359 334.600052 
L 81.775432 333.79283 
L 81.917468 333.800375 
L 82.068382 334.135605 
L 82.316945 335.36671 
L 83.222427 340.439376 
L 83.479868 340.700485 
L 83.7018 340.626318 
L 84.074645 340.202651 
L 84.944618 339.203241 
L 85.4595 338.96768 
L 86.027645 338.966185 
L 88.255841 339.187283 
L 92.028682 339.160189 
L 151.772727 339.159329 
L 152.331995 295.614399 
L 152.420768 236.945884 
L 152.536173 66.980738 
L 152.624945 83.381174 
L 153.175336 276.805467 
L 153.477164 369.36 
L 153.52155 369.213519 
L 153.841132 367.084908 
L 154.347136 362.219555 
L 155.154968 351.819126 
L 156.202486 339.182773 
L 156.992564 332.327629 
L 157.596218 328.735091 
L 157.924677 327.812203 
L 158.066714 327.7915 
L 158.075591 327.799983 
L 158.217627 328.111723 
L 158.430682 329.244188 
L 159.353918 335.116305 
L 159.495955 335.069926 
L 159.700132 334.670059 
L 160.152873 333.142235 
L 160.836423 331.013638 
L 161.164882 330.597884 
L 161.377936 330.626703 
L 161.608745 330.928509 
L 162.0171 331.92451 
L 162.50535 332.904641 
L 162.789423 333.063101 
L 163.055741 332.95022 
L 163.48185 332.4638 
L 164.174277 331.722259 
L 164.538245 331.64123 
L 164.928845 331.802642 
L 166.047382 332.393605 
L 166.553386 332.306748 
L 167.831714 331.991403 
L 168.737195 332.143376 
L 169.651555 332.196572 
L 172.154945 332.140965 
L 174.249982 332.119962 
L 212.253586 332.13128 
L 329.318182 332.13128 
L 329.602255 343.757937 
L 329.841941 346.753842 
L 329.957345 346.97184 
L 329.992855 346.949072 
L 330.126014 346.622253 
L 330.472227 344.973448 
L 331.333323 340.987781 
L 331.857082 339.532282 
L 332.283191 338.932023 
L 332.664914 338.740099 
L 333.082145 338.78745 
L 334.893109 339.257797 
L 342.110332 339.160468 
L 435.845455 339.159329 
L 435.845455 339.159329 
" clip-path="url(#paf250ee6e9)" style="fill: none; stroke: #ff0000; stroke-width: 1.5; stroke-linecap: square"/>
   </g>
   <g id="patch_3">
    <path d="M 63 384.48 
L 63 51.84 
" style="fill: none; stroke: #000000; stroke-width: 0.8; stroke-linejoin: miter; stroke-linecap: square"/>
   </g>
   <g id="patch_4">
    <path d="M 453.6 384.48 
L 453.6 51.84 
" style="fill: none; stroke: #000000; stroke-width: 0.8; stroke-linejoin: miter; stroke-linecap: square"/>
   </g>
   <g id="patch_5">
    <path d="M 63 384.48 
L 453.6 384.48 
" style="fill: none; stroke: #000000; stroke-width: 0.8; stroke-linejoin: miter; stroke-linecap: square"/>
   </g>
   <g id="patch_6">
    <path d="M 63 51.84 
L 453.6 51.84 
" style="fill: none; stroke: #000000; stroke-width: 0.8; stroke-linejoin: miter; stroke-linecap: square"/>
   </g>
   <g id="legend_1">
    <g id="patch_7">
     <path d="M 383.460938 89.19625 
L 446.6 89.19625 
Q 448.6 89.19625 448.6 87.19625 
L 448.6 58.84 
Q 448.6 56.84 446.6 56.84 
L 383.460938 56.84 
Q 381.460938 56.84 381.460938 58.84 
L 381.460938 87.19625 
Q 381.460938 89.19625 383.460938 89.19625 
z
" style="fill: #ffffff; opacity: 0.8; stroke: #cccccc; stroke-linejoin: miter"/>
    </g>
    <g id="line2d_15">
     <path d="M 385.460938 64.938437 
L 395.460938 64.938437 
L 405.460938 64.938437 
" style="fill: none; stroke: #1f77b4; stroke-width: 1.5; stroke-linecap: square"/>
    </g>
    <g id="text_15">
     <!-- target -->
     <g transform="translate(413.460938 68.438437)scale(0.1 -0.1)">
      <defs>
       <path id="DejaVuSans-72" d="M 2631 2963 
Q 2534 3019 2420 3045 
Q 2306 3072 2169 3072 
Q 1681 3072 1420 2755 
Q 1159 2438 1159 1844 
L 1159 0 
L 581 0 
L 581 3500 
L 1159 3500 
L 1159 2956 
Q 1341 3275 1631 3429 
Q 1922 3584 2338 3584 
Q 2397 3584 2469 3576 
Q 2541 3569 2628 3553 
L 2631 2963 
z
" transform="scale(0.015625)"/>
      </defs>
      <use xlink:href="#DejaVuSans-74"/>
      <use xlink:href="#DejaVuSans-61" x="39.208984"/>
      <use xlink:href="#DejaVuSans-72" x="100.488281"/>
      <use xlink:href="#DejaVuSans-67" x="139.851562"/>
      <use xlink:href="#DejaVuSans-65" x="203.328125"/>
      <use xlink:href="#DejaVuSans-74" x="264.851562"/>
     </g>
    </g>
    <g id="line2d_16">
     <path d="M 385.460938 79.616562 
L 395.460938 79.616562 
L 405.460938 79.616562 
" style="fill: none; stroke: #ff0000; stroke-width: 1.5; stroke-linecap: square"/>
    </g>
    <g id="text_16">
     <!-- model -->
     <g transform="translate(413.460938 83.116562)scale(0.1 -0.1)">
      <defs>
       <path id="DejaVuSans-64" d="M 2906 2969 
L 2906 4863 
L 3481 4863 
L 3481 0 
L 2906 0 
L 2906 525 
Q 2725 213 2448 61 
Q 2172 -91 1784 -91 
Q 1150 -91 751 415 
Q 353 922 353 1747 
Q 353 2572 751 3078 
Q 1150 3584 1784 3584 
Q 2172 3584 2448 3432 
Q 2725 3281 2906 2969 
z
M 947 1747 
Q 947 1113 1208 752 
Q 1469 391 1925 391 
Q 2381 391 2643 752 
Q 2906 1113 2906 1747 
Q 2906 2381 2643 2742 
Q 2381 3103 1925 3103 
Q 1469 3103 1208 2742 
Q 947 2381 947 1747 
z
" transform="scale(0.015625)"/>
      </defs>
      <use xlink:href="#DejaVuSans-6d"/>
      <use xlink:href="#DejaVuSans-6f" x="97.412109"/>
      <use xlink:href="#DejaVuSans-64" x="158.59375"/>
      <use xlink:href="#DejaVuSans-65" x="222.070312"/>
      <use xlink:href="#DejaVuSans-6c" x="283.59375"/>
     </g>
    </g>
   </g>
  </g>
 </g>
 <defs>
  <clipPath id="paf250ee6e9">
   <rect x="63" y="51.84" width="390.6" height="332.64"/>
  </clipPath>
 </defs>
</svg>
