<?xml version="1.0" encoding="utf-8" standalone="no"?>
<!DOCTYPE svg PUBLIC "-//W3C//DTD SVG 1.1//EN"
  "http://www.w3.org/Graphics/SVG/1.1/DTD/svg11.dtd">
<svg xmlns:xlink="http://www.w3.org/1999/xlink" width="504pt" height="432pt" viewBox="0 0 504 432" xmlns="http://www.w3.org/2000/svg" version="1.1">
 <metadata>
  <rdf:RDF xmlns:dc="http://purl.org/dc/elements/1.1/" xmlns:cc="http://creativecommons.org/ns#" xmlns:rdf="http://www.w3.org/1999/02/22-rdf-syntax-ns#">
   <cc:Work>
    <dc:type rdf:resource="http://purl.org/dc/dcmitype/StillImage"/>
    <dc:date>2021-12-29T18:08:50.871417</dc:date>
    <dc:format>image/svg+xml</dc:format>
    <dc:creator>
     <cc:Agent>
      <dc:title>Matplotlib v3.5.0, https://matplotlib.org/</dc:title>
     </cc:Agent>
    </dc:creator>
   </cc:Work>
  </rdf:RDF>
 </metadata>
 <defs>
  <style type="text/css">*{stroke-linejoin: round; stroke-linecap: butt}</style>
 </defs>
 <g id="figure_1">
  <g id="patch_1">
   <path d="M 0 432 
L 504 432 
L 504 0 
L 0 0 
z
" style="fill: #ffffff"/>
  </g>
  <g id="axes_1">
   <g id="patch_2">
    <path d="M 63 384.48 
L 453.6 384.48 
L 453.6 51.84 
L 63 51.84 
z
" style="fill: #ffffff"/>
   </g>
   <g id="matplotlib.axis_1">
    <g id="xtick_1">
     <g id="line2d_1">
      <defs>
       <path id="m7fca16f3b2" d="M 0 0 
L 0 3.5 
" style="stroke: #000000; stroke-width: 0.8"/>
      </defs>
      <g>
       <use xlink:href="#m7fca16f3b2" x="80.754545" y="384.48" style="stroke: #000000; stroke-width: 0.8"/>
      </g>
     </g>
     <g id="text_1">
      <!-- 0 -->
      <g transform="translate(77.573295 399.078438)scale(0.1 -0.1)">
       <defs>
        <path id="DejaVuSans-30" d="M 2034 4250 
Q 1547 4250 1301 3770 
Q 1056 3291 1056 2328 
Q 1056 1369 1301 889 
Q 1547 409 2034 409 
Q 2525 409 2770 889 
Q 3016 1369 3016 2328 
Q 3016 3291 2770 3770 
Q 2525 4250 2034 4250 
z
M 2034 4750 
Q 2819 4750 3233 4129 
Q 3647 3509 3647 2328 
Q 3647 1150 3233 529 
Q 2819 -91 2034 -91 
Q 1250 -91 836 529 
Q 422 1150 422 2328 
Q 422 3509 836 4129 
Q 1250 4750 2034 4750 
z
" transform="scale(0.015625)"/>
       </defs>
       <use xlink:href="#DejaVuSans-30"/>
      </g>
     </g>
    </g>
    <g id="xtick_2">
     <g id="line2d_2">
      <g>
       <use xlink:href="#m7fca16f3b2" x="151.772727" y="384.48" style="stroke: #000000; stroke-width: 0.8"/>
      </g>
     </g>
     <g id="text_2">
      <!-- 200 -->
      <g transform="translate(142.228977 399.078438)scale(0.1 -0.1)">
       <defs>
        <path id="DejaVuSans-32" d="M 1228 531 
L 3431 531 
L 3431 0 
L 469 0 
L 469 531 
Q 828 903 1448 1529 
Q 2069 2156 2228 2338 
Q 2531 2678 2651 2914 
Q 2772 3150 2772 3378 
Q 2772 3750 2511 3984 
Q 2250 4219 1831 4219 
Q 1534 4219 1204 4116 
Q 875 4013 500 3803 
L 500 4441 
Q 881 4594 1212 4672 
Q 1544 4750 1819 4750 
Q 2544 4750 2975 4387 
Q 3406 4025 3406 3419 
Q 3406 3131 3298 2873 
Q 3191 2616 2906 2266 
Q 2828 2175 2409 1742 
Q 1991 1309 1228 531 
z
" transform="scale(0.015625)"/>
       </defs>
       <use xlink:href="#DejaVuSans-32"/>
       <use xlink:href="#DejaVuSans-30" x="63.623047"/>
       <use xlink:href="#DejaVuSans-30" x="127.246094"/>
      </g>
     </g>
    </g>
    <g id="xtick_3">
     <g id="line2d_3">
      <g>
       <use xlink:href="#m7fca16f3b2" x="222.790909" y="384.48" style="stroke: #000000; stroke-width: 0.8"/>
      </g>
     </g>
     <g id="text_3">
      <!-- 400 -->
      <g transform="translate(213.247159 399.078438)scale(0.1 -0.1)">
       <defs>
        <path id="DejaVuSans-34" d="M 2419 4116 
L 825 1625 
L 2419 1625 
L 2419 4116 
z
M 2253 4666 
L 3047 4666 
L 3047 1625 
L 3713 1625 
L 3713 1100 
L 3047 1100 
L 3047 0 
L 2419 0 
L 2419 1100 
L 313 1100 
L 313 1709 
L 2253 4666 
z
" transform="scale(0.015625)"/>
       </defs>
       <use xlink:href="#DejaVuSans-34"/>
       <use xlink:href="#DejaVuSans-30" x="63.623047"/>
       <use xlink:href="#DejaVuSans-30" x="127.246094"/>
      </g>
     </g>
    </g>
    <g id="xtick_4">
     <g id="line2d_4">
      <g>
       <use xlink:href="#m7fca16f3b2" x="293.809091" y="384.48" style="stroke: #000000; stroke-width: 0.8"/>
      </g>
     </g>
     <g id="text_4">
      <!-- 600 -->
      <g transform="translate(284.265341 399.078438)scale(0.1 -0.1)">
       <defs>
        <path id="DejaVuSans-36" d="M 2113 2584 
Q 1688 2584 1439 2293 
Q 1191 2003 1191 1497 
Q 1191 994 1439 701 
Q 1688 409 2113 409 
Q 2538 409 2786 701 
Q 3034 994 3034 1497 
Q 3034 2003 2786 2293 
Q 2538 2584 2113 2584 
z
M 3366 4563 
L 3366 3988 
Q 3128 4100 2886 4159 
Q 2644 4219 2406 4219 
Q 1781 4219 1451 3797 
Q 1122 3375 1075 2522 
Q 1259 2794 1537 2939 
Q 1816 3084 2150 3084 
Q 2853 3084 3261 2657 
Q 3669 2231 3669 1497 
Q 3669 778 3244 343 
Q 2819 -91 2113 -91 
Q 1303 -91 875 529 
Q 447 1150 447 2328 
Q 447 3434 972 4092 
Q 1497 4750 2381 4750 
Q 2619 4750 2861 4703 
Q 3103 4656 3366 4563 
z
" transform="scale(0.015625)"/>
       </defs>
       <use xlink:href="#DejaVuSans-36"/>
       <use xlink:href="#DejaVuSans-30" x="63.623047"/>
       <use xlink:href="#DejaVuSans-30" x="127.246094"/>
      </g>
     </g>
    </g>
    <g id="xtick_5">
     <g id="line2d_5">
      <g>
       <use xlink:href="#m7fca16f3b2" x="364.827273" y="384.48" style="stroke: #000000; stroke-width: 0.8"/>
      </g>
     </g>
     <g id="text_5">
      <!-- 800 -->
      <g transform="translate(355.283523 399.078438)scale(0.1 -0.1)">
       <defs>
        <path id="DejaVuSans-38" d="M 2034 2216 
Q 1584 2216 1326 1975 
Q 1069 1734 1069 1313 
Q 1069 891 1326 650 
Q 1584 409 2034 409 
Q 2484 409 2743 651 
Q 3003 894 3003 1313 
Q 3003 1734 2745 1975 
Q 2488 2216 2034 2216 
z
M 1403 2484 
Q 997 2584 770 2862 
Q 544 3141 544 3541 
Q 544 4100 942 4425 
Q 1341 4750 2034 4750 
Q 2731 4750 3128 4425 
Q 3525 4100 3525 3541 
Q 3525 3141 3298 2862 
Q 3072 2584 2669 2484 
Q 3125 2378 3379 2068 
Q 3634 1759 3634 1313 
Q 3634 634 3220 271 
Q 2806 -91 2034 -91 
Q 1263 -91 848 271 
Q 434 634 434 1313 
Q 434 1759 690 2068 
Q 947 2378 1403 2484 
z
M 1172 3481 
Q 1172 3119 1398 2916 
Q 1625 2713 2034 2713 
Q 2441 2713 2670 2916 
Q 2900 3119 2900 3481 
Q 2900 3844 2670 4047 
Q 2441 4250 2034 4250 
Q 1625 4250 1398 4047 
Q 1172 3844 1172 3481 
z
" transform="scale(0.015625)"/>
       </defs>
       <use xlink:href="#DejaVuSans-38"/>
       <use xlink:href="#DejaVuSans-30" x="63.623047"/>
       <use xlink:href="#DejaVuSans-30" x="127.246094"/>
      </g>
     </g>
    </g>
    <g id="text_6">
     <!-- time [ms] -->
     <g transform="translate(234.038281 412.756563)scale(0.1 -0.1)">
      <defs>
       <path id="DejaVuSans-74" d="M 1172 4494 
L 1172 3500 
L 2356 3500 
L 2356 3053 
L 1172 3053 
L 1172 1153 
Q 1172 725 1289 603 
Q 1406 481 1766 481 
L 2356 481 
L 2356 0 
L 1766 0 
Q 1100 0 847 248 
Q 594 497 594 1153 
L 594 3053 
L 172 3053 
L 172 3500 
L 594 3500 
L 594 4494 
L 1172 4494 
z
" transform="scale(0.015625)"/>
       <path id="DejaVuSans-69" d="M 603 3500 
L 1178 3500 
L 1178 0 
L 603 0 
L 603 3500 
z
M 603 4863 
L 1178 4863 
L 1178 4134 
L 603 4134 
L 603 4863 
z
" transform="scale(0.015625)"/>
       <path id="DejaVuSans-6d" d="M 3328 2828 
Q 3544 3216 3844 3400 
Q 4144 3584 4550 3584 
Q 5097 3584 5394 3201 
Q 5691 2819 5691 2113 
L 5691 0 
L 5113 0 
L 5113 2094 
Q 5113 2597 4934 2840 
Q 4756 3084 4391 3084 
Q 3944 3084 3684 2787 
Q 3425 2491 3425 1978 
L 3425 0 
L 2847 0 
L 2847 2094 
Q 2847 2600 2669 2842 
Q 2491 3084 2119 3084 
Q 1678 3084 1418 2786 
Q 1159 2488 1159 1978 
L 1159 0 
L 581 0 
L 581 3500 
L 1159 3500 
L 1159 2956 
Q 1356 3278 1631 3431 
Q 1906 3584 2284 3584 
Q 2666 3584 2933 3390 
Q 3200 3197 3328 2828 
z
" transform="scale(0.015625)"/>
       <path id="DejaVuSans-65" d="M 3597 1894 
L 3597 1613 
L 953 1613 
Q 991 1019 1311 708 
Q 1631 397 2203 397 
Q 2534 397 2845 478 
Q 3156 559 3463 722 
L 3463 178 
Q 3153 47 2828 -22 
Q 2503 -91 2169 -91 
Q 1331 -91 842 396 
Q 353 884 353 1716 
Q 353 2575 817 3079 
Q 1281 3584 2069 3584 
Q 2775 3584 3186 3129 
Q 3597 2675 3597 1894 
z
M 3022 2063 
Q 3016 2534 2758 2815 
Q 2500 3097 2075 3097 
Q 1594 3097 1305 2825 
Q 1016 2553 972 2059 
L 3022 2063 
z
" transform="scale(0.015625)"/>
       <path id="DejaVuSans-20" transform="scale(0.015625)"/>
       <path id="DejaVuSans-5b" d="M 550 4863 
L 1875 4863 
L 1875 4416 
L 1125 4416 
L 1125 -397 
L 1875 -397 
L 1875 -844 
L 550 -844 
L 550 4863 
z
" transform="scale(0.015625)"/>
       <path id="DejaVuSans-73" d="M 2834 3397 
L 2834 2853 
Q 2591 2978 2328 3040 
Q 2066 3103 1784 3103 
Q 1356 3103 1142 2972 
Q 928 2841 928 2578 
Q 928 2378 1081 2264 
Q 1234 2150 1697 2047 
L 1894 2003 
Q 2506 1872 2764 1633 
Q 3022 1394 3022 966 
Q 3022 478 2636 193 
Q 2250 -91 1575 -91 
Q 1294 -91 989 -36 
Q 684 19 347 128 
L 347 722 
Q 666 556 975 473 
Q 1284 391 1588 391 
Q 1994 391 2212 530 
Q 2431 669 2431 922 
Q 2431 1156 2273 1281 
Q 2116 1406 1581 1522 
L 1381 1569 
Q 847 1681 609 1914 
Q 372 2147 372 2553 
Q 372 3047 722 3315 
Q 1072 3584 1716 3584 
Q 2034 3584 2315 3537 
Q 2597 3491 2834 3397 
z
" transform="scale(0.015625)"/>
       <path id="DejaVuSans-5d" d="M 1947 4863 
L 1947 -844 
L 622 -844 
L 622 -397 
L 1369 -397 
L 1369 4416 
L 622 4416 
L 622 4863 
L 1947 4863 
z
" transform="scale(0.015625)"/>
      </defs>
      <use xlink:href="#DejaVuSans-74"/>
      <use xlink:href="#DejaVuSans-69" x="39.208984"/>
      <use xlink:href="#DejaVuSans-6d" x="66.992188"/>
      <use xlink:href="#DejaVuSans-65" x="164.404297"/>
      <use xlink:href="#DejaVuSans-20" x="225.927734"/>
      <use xlink:href="#DejaVuSans-5b" x="257.714844"/>
      <use xlink:href="#DejaVuSans-6d" x="296.728516"/>
      <use xlink:href="#DejaVuSans-73" x="394.140625"/>
      <use xlink:href="#DejaVuSans-5d" x="446.240234"/>
     </g>
    </g>
   </g>
   <g id="matplotlib.axis_2">
    <g id="ytick_1">
     <g id="line2d_6">
      <defs>
       <path id="mf2975036a9" d="M 0 0 
L -3.5 0 
" style="stroke: #000000; stroke-width: 0.8"/>
      </defs>
      <g>
       <use xlink:href="#mf2975036a9" x="63" y="381.031958" style="stroke: #000000; stroke-width: 0.8"/>
      </g>
     </g>
     <g id="text_7">
      <!-- −80 -->
      <g transform="translate(34.895313 384.831177)scale(0.1 -0.1)">
       <defs>
        <path id="DejaVuSans-2212" d="M 678 2272 
L 4684 2272 
L 4684 1741 
L 678 1741 
L 678 2272 
z
" transform="scale(0.015625)"/>
       </defs>
       <use xlink:href="#DejaVuSans-2212"/>
       <use xlink:href="#DejaVuSans-38" x="83.789062"/>
       <use xlink:href="#DejaVuSans-30" x="147.412109"/>
      </g>
     </g>
    </g>
    <g id="ytick_2">
     <g id="line2d_7">
      <g>
       <use xlink:href="#mf2975036a9" x="63" y="328.544829" style="stroke: #000000; stroke-width: 0.8"/>
      </g>
     </g>
     <g id="text_8">
      <!-- −60 -->
      <g transform="translate(34.895313 332.344048)scale(0.1 -0.1)">
       <use xlink:href="#DejaVuSans-2212"/>
       <use xlink:href="#DejaVuSans-36" x="83.789062"/>
       <use xlink:href="#DejaVuSans-30" x="147.412109"/>
      </g>
     </g>
    </g>
    <g id="ytick_3">
     <g id="line2d_8">
      <g>
       <use xlink:href="#mf2975036a9" x="63" y="276.0577" style="stroke: #000000; stroke-width: 0.8"/>
      </g>
     </g>
     <g id="text_9">
      <!-- −40 -->
      <g transform="translate(34.895313 279.856919)scale(0.1 -0.1)">
       <use xlink:href="#DejaVuSans-2212"/>
       <use xlink:href="#DejaVuSans-34" x="83.789062"/>
       <use xlink:href="#DejaVuSans-30" x="147.412109"/>
      </g>
     </g>
    </g>
    <g id="ytick_4">
     <g id="line2d_9">
      <g>
       <use xlink:href="#mf2975036a9" x="63" y="223.570571" style="stroke: #000000; stroke-width: 0.8"/>
      </g>
     </g>
     <g id="text_10">
      <!-- −20 -->
      <g transform="translate(34.895313 227.36979)scale(0.1 -0.1)">
       <use xlink:href="#DejaVuSans-2212"/>
       <use xlink:href="#DejaVuSans-32" x="83.789062"/>
       <use xlink:href="#DejaVuSans-30" x="147.412109"/>
      </g>
     </g>
    </g>
    <g id="ytick_5">
     <g id="line2d_10">
      <g>
       <use xlink:href="#mf2975036a9" x="63" y="171.083442" style="stroke: #000000; stroke-width: 0.8"/>
      </g>
     </g>
     <g id="text_11">
      <!-- 0 -->
      <g transform="translate(49.6375 174.882661)scale(0.1 -0.1)">
       <use xlink:href="#DejaVuSans-30"/>
      </g>
     </g>
    </g>
    <g id="ytick_6">
     <g id="line2d_11">
      <g>
       <use xlink:href="#mf2975036a9" x="63" y="118.596313" style="stroke: #000000; stroke-width: 0.8"/>
      </g>
     </g>
     <g id="text_12">
      <!-- 20 -->
      <g transform="translate(43.275 122.395531)scale(0.1 -0.1)">
       <use xlink:href="#DejaVuSans-32"/>
       <use xlink:href="#DejaVuSans-30" x="63.623047"/>
      </g>
     </g>
    </g>
    <g id="ytick_7">
     <g id="line2d_12">
      <g>
       <use xlink:href="#mf2975036a9" x="63" y="66.109184" style="stroke: #000000; stroke-width: 0.8"/>
      </g>
     </g>
     <g id="text_13">
      <!-- 40 -->
      <g transform="translate(43.275 69.908402)scale(0.1 -0.1)">
       <use xlink:href="#DejaVuSans-34"/>
       <use xlink:href="#DejaVuSans-30" x="63.623047"/>
      </g>
     </g>
    </g>
    <g id="text_14">
     <!-- voltage [mV] -->
     <g transform="translate(28.815625 250.624062)rotate(-90)scale(0.1 -0.1)">
      <defs>
       <path id="DejaVuSans-76" d="M 191 3500 
L 800 3500 
L 1894 563 
L 2988 3500 
L 3597 3500 
L 2284 0 
L 1503 0 
L 191 3500 
z
" transform="scale(0.015625)"/>
       <path id="DejaVuSans-6f" d="M 1959 3097 
Q 1497 3097 1228 2736 
Q 959 2375 959 1747 
Q 959 1119 1226 758 
Q 1494 397 1959 397 
Q 2419 397 2687 759 
Q 2956 1122 2956 1747 
Q 2956 2369 2687 2733 
Q 2419 3097 1959 3097 
z
M 1959 3584 
Q 2709 3584 3137 3096 
Q 3566 2609 3566 1747 
Q 3566 888 3137 398 
Q 2709 -91 1959 -91 
Q 1206 -91 779 398 
Q 353 888 353 1747 
Q 353 2609 779 3096 
Q 1206 3584 1959 3584 
z
" transform="scale(0.015625)"/>
       <path id="DejaVuSans-6c" d="M 603 4863 
L 1178 4863 
L 1178 0 
L 603 0 
L 603 4863 
z
" transform="scale(0.015625)"/>
       <path id="DejaVuSans-61" d="M 2194 1759 
Q 1497 1759 1228 1600 
Q 959 1441 959 1056 
Q 959 750 1161 570 
Q 1363 391 1709 391 
Q 2188 391 2477 730 
Q 2766 1069 2766 1631 
L 2766 1759 
L 2194 1759 
z
M 3341 1997 
L 3341 0 
L 2766 0 
L 2766 531 
Q 2569 213 2275 61 
Q 1981 -91 1556 -91 
Q 1019 -91 701 211 
Q 384 513 384 1019 
Q 384 1609 779 1909 
Q 1175 2209 1959 2209 
L 2766 2209 
L 2766 2266 
Q 2766 2663 2505 2880 
Q 2244 3097 1772 3097 
Q 1472 3097 1187 3025 
Q 903 2953 641 2809 
L 641 3341 
Q 956 3463 1253 3523 
Q 1550 3584 1831 3584 
Q 2591 3584 2966 3190 
Q 3341 2797 3341 1997 
z
" transform="scale(0.015625)"/>
       <path id="DejaVuSans-67" d="M 2906 1791 
Q 2906 2416 2648 2759 
Q 2391 3103 1925 3103 
Q 1463 3103 1205 2759 
Q 947 2416 947 1791 
Q 947 1169 1205 825 
Q 1463 481 1925 481 
Q 2391 481 2648 825 
Q 2906 1169 2906 1791 
z
M 3481 434 
Q 3481 -459 3084 -895 
Q 2688 -1331 1869 -1331 
Q 1566 -1331 1297 -1286 
Q 1028 -1241 775 -1147 
L 775 -588 
Q 1028 -725 1275 -790 
Q 1522 -856 1778 -856 
Q 2344 -856 2625 -561 
Q 2906 -266 2906 331 
L 2906 616 
Q 2728 306 2450 153 
Q 2172 0 1784 0 
Q 1141 0 747 490 
Q 353 981 353 1791 
Q 353 2603 747 3093 
Q 1141 3584 1784 3584 
Q 2172 3584 2450 3431 
Q 2728 3278 2906 2969 
L 2906 3500 
L 3481 3500 
L 3481 434 
z
" transform="scale(0.015625)"/>
       <path id="DejaVuSans-56" d="M 1831 0 
L 50 4666 
L 709 4666 
L 2188 738 
L 3669 4666 
L 4325 4666 
L 2547 0 
L 1831 0 
z
" transform="scale(0.015625)"/>
      </defs>
      <use xlink:href="#DejaVuSans-76"/>
      <use xlink:href="#DejaVuSans-6f" x="59.179688"/>
      <use xlink:href="#DejaVuSans-6c" x="120.361328"/>
      <use xlink:href="#DejaVuSans-74" x="148.144531"/>
      <use xlink:href="#DejaVuSans-61" x="187.353516"/>
      <use xlink:href="#DejaVuSans-67" x="248.632812"/>
      <use xlink:href="#DejaVuSans-65" x="312.109375"/>
      <use xlink:href="#DejaVuSans-20" x="373.632812"/>
      <use xlink:href="#DejaVuSans-5b" x="405.419922"/>
      <use xlink:href="#DejaVuSans-6d" x="444.433594"/>
      <use xlink:href="#DejaVuSans-56" x="541.845703"/>
      <use xlink:href="#DejaVuSans-5d" x="610.253906"/>
     </g>
    </g>
   </g>
   <g id="line2d_13">
    <path d="M 80.754545 341.666611 
L 81.961855 341.530145 
L 83.772818 341.587356 
L 85.974382 341.606251 
L 151.772727 341.597591 
L 152.314241 297.083781 
L 152.420768 248.458918 
L 152.562805 66.96 
L 152.678209 92.172192 
L 153.565936 368.148467 
L 153.610323 368.047954 
L 153.8145 366.66938 
L 154.293873 361.916671 
L 154.959668 352.797294 
L 157.42755 313.914304 
L 157.613973 302.789395 
L 157.738255 280.828518 
L 157.835905 218.285379 
L 157.969064 91.315865 
L 158.031205 104.465465 
L 158.883423 367.724109 
L 158.945564 367.540666 
L 159.203005 365.561902 
L 159.717886 359.890142 
L 160.534595 347.965592 
L 161.8218 329.839162 
L 162.514227 319.474791 
L 162.771668 311.955747 
L 162.940336 299.966899 
L 163.064618 272.006481 
L 163.162268 187.625102 
L 163.268795 92.235964 
L 163.322059 101.747157 
L 163.863573 296.8056 
L 164.147645 367.54749 
L 164.183155 367.692354 
L 164.245295 367.511011 
L 164.493859 365.607828 
L 165.008741 359.955751 
L 165.834327 347.908118 
L 167.112655 329.913693 
L 167.813959 319.439362 
L 168.0714 311.910608 
L 168.240068 299.882395 
L 168.36435 271.760316 
L 168.462 186.879653 
L 168.568527 92.312858 
L 168.621791 101.969178 
L 169.172182 300.756568 
L 169.4385 367.461673 
L 169.482886 367.690255 
L 169.545027 367.504975 
L 169.802468 365.518075 
L 170.31735 359.82847 
L 171.151814 347.619177 
L 172.430141 329.67094 
L 173.113691 319.420991 
L 173.371132 311.874129 
L 173.5398 299.786606 
L 173.664082 271.422299 
L 173.761732 185.728584 
L 173.868259 92.329654 
L 173.921523 102.205107 
L 174.480791 304.826945 
L 174.729355 367.352238 
L 174.782618 367.690255 
L 174.844759 367.500776 
L 175.1022 365.510727 
L 175.617082 359.81771 
L 176.451545 347.606317 
L 177.729873 329.66018 
L 178.413423 319.404195 
L 178.670864 311.838176 
L 178.839532 299.689505 
L 178.963814 271.075359 
L 179.061464 184.543819 
L 179.167991 92.346975 
L 179.221255 102.443661 
L 179.7894 309.000459 
L 180.029086 367.364572 
L 180.08235 367.690517 
L 180.144491 367.496315 
L 180.401932 365.503378 
L 180.916814 359.807213 
L 181.751277 347.593983 
L 183.029605 329.649683 
L 183.713155 319.387137 
L 183.970595 311.80196 
L 184.139264 299.591354 
L 184.263545 270.720284 
L 184.361195 183.338215 
L 184.467723 92.370856 
L 184.520986 102.685889 
L 185.098009 313.265826 
L 185.328818 367.376644 
L 185.382082 367.690517 
L 185.444223 367.492116 
L 185.701664 365.495768 
L 186.216545 359.796715 
L 187.051009 347.581386 
L 188.329336 329.639186 
L 189.012886 319.370341 
L 189.270327 311.765481 
L 189.438995 299.491628 
L 189.563277 270.35996 
L 189.660927 182.12781 
L 189.767455 92.400511 
L 189.820718 102.930479 
L 190.406618 317.603362 
L 190.619673 367.242802 
L 190.681814 367.690255 
L 190.743955 367.487654 
L 191.010273 365.407065 
L 191.525155 359.671271 
L 192.368495 347.295856 
L 193.637945 329.513217 
L 194.312618 319.353021 
L 194.570059 311.729003 
L 194.738727 299.391378 
L 194.863009 269.996224 
L 194.969536 167.555913 
L 195.058309 92.387127 
L 195.12045 103.177694 
L 195.715227 321.987087 
L 195.919405 367.258286 
L 195.981545 367.690255 
L 196.043686 367.483193 
L 196.310005 365.399454 
L 196.833764 359.545302 
L 197.703736 346.73818 
L 198.955432 329.272038 
L 199.61235 319.335962 
L 199.869791 311.691999 
L 200.038459 299.290078 
L 200.162741 269.62514 
L 200.269268 166.292784 
L 200.358041 92.357734 
L 200.420182 103.429107 
L 201.023836 326.379997 
L 201.219136 367.272982 
L 201.281277 367.68973 
L 201.343418 367.478732 
L 201.609736 365.391843 
L 202.133495 359.53428 
L 202.994591 346.861525 
L 204.255164 329.261278 
L 204.912082 319.318379 
L 205.169523 311.654471 
L 205.338191 299.187203 
L 205.462473 269.246445 
L 205.569 165.021178 
L 205.657773 92.335427 
L 205.719914 103.682357 
L 206.332445 330.734067 
L 206.518868 367.287678 
L 206.581009 367.689467 
L 206.634273 367.520721 
L 206.873959 365.705979 
L 207.388841 360.09563 
L 208.187795 348.486526 
L 209.510509 329.82604 
L 210.202936 319.485288 
L 210.460377 312.009546 
L 210.629045 300.150342 
L 210.753327 272.71322 
L 210.850977 190.185266 
L 210.957505 92.320206 
L 211.019645 103.936658 
L 211.641055 334.995235 
L 211.827477 367.43333 
L 211.880741 367.688943 
L 211.934005 367.516522 
L 212.182568 365.61885 
L 212.69745 359.971498 
L 213.514159 348.063743 
L 214.810241 329.81528 
L 215.502668 319.46823 
L 215.760109 311.973593 
L 215.928777 300.054028 
L 216.053059 272.373891 
L 216.150709 189.006405 
L 216.257236 92.313908 
L 216.319377 104.190433 
L 216.949664 339.099991 
L 217.127209 367.443828 
L 217.171595 367.689467 
L 217.233736 367.512323 
L 217.4823 365.611502 
L 217.997182 359.961 
L 218.822768 347.914417 
L 220.101095 329.919467 
L 220.8024 319.451171 
L 221.059841 311.937901 
L 221.228509 299.957977 
L 221.352791 272.033249 
L 221.450441 187.828122 
L 221.556968 92.314433 
L 221.610232 101.78416 
L 222.151745 296.860974 
L 222.426941 367.4538 
L 222.471327 367.68973 
L 222.533468 367.508124 
L 222.782032 365.604154 
L 223.296914 359.950503 
L 224.1225 347.901557 
L 225.418582 329.679076 
L 226.111009 319.249096 
L 226.36845 311.505145 
L 226.537118 298.773867 
L 226.652523 271.689983 
L 226.750173 186.645141 
L 226.8567 92.320469 
L 226.909964 102.021665 
L 227.460355 300.831887 
L 227.726673 367.46351 
L 227.771059 367.690255 
L 227.8332 367.503925 
L 228.090641 365.516238 
L 228.605523 359.825846 
L 229.439986 347.616027 
L 230.718314 329.668316 
L 231.401864 319.417055 
L 231.659305 311.865732 
L 231.827973 299.764561 
L 231.952255 271.344356 
L 232.049905 185.46195 
L 232.156432 92.333328 
L 232.209695 102.258906 
L 232.768964 304.905413 
L 233.017527 367.355124 
L 233.070791 367.690255 
L 233.132932 367.499726 
L 233.390373 365.50889 
L 233.905255 359.815348 
L 234.739718 347.60343 
L 236.018045 329.657819 
L 236.701595 319.400259 
L 236.959036 311.83004 
L 237.127705 299.66746 
L 237.251986 270.995579 
L 237.349636 184.271988 
L 237.456164 92.351698 
L 237.509427 102.49851 
L 238.077573 309.081289 
L 238.317259 367.367196 
L 238.370523 367.690517 
L 238.432664 367.495527 
L 238.690105 365.501541 
L 239.204986 359.804851 
L 240.03945 347.591096 
L 241.317777 329.647321 
L 242.001327 319.383463 
L 242.258768 311.793824 
L 242.427436 299.568785 
L 242.551718 270.638666 
L 242.649368 183.063576 
L 242.755895 92.377155 
L 242.809159 102.741263 
L 243.386182 313.348493 
L 243.616991 367.379268 
L 243.670255 367.690517 
L 243.732395 367.491066 
L 243.989836 365.494193 
L 244.504718 359.794353 
L 245.348059 347.442032 
L 246.617509 329.636561 
L 247.301059 319.366405 
L 247.5585 311.757346 
L 247.727168 299.468797 
L 247.85145 270.277817 
L 247.9491 181.85199 
L 248.055627 92.408385 
L 248.108891 102.986378 
L 248.694791 317.687866 
L 248.907845 367.246476 
L 248.969986 367.690255 
L 249.032127 367.486867 
L 249.298445 365.40549 
L 249.822205 359.5537 
L 250.692177 346.748153 
L 251.943873 329.280436 
L 252.600791 319.349084 
L 252.858232 311.720605 
L 253.0269 299.368284 
L 253.151182 269.912244 
L 253.257709 167.268336 
L 253.346482 92.379779 
L 253.408623 103.234905 
L 254.0034 322.073166 
L 254.207577 367.261697 
L 254.269718 367.689992 
L 254.331859 367.482406 
L 254.598177 365.397879 
L 255.121936 359.542678 
L 255.983032 346.871497 
L 257.22585 329.500095 
L 257.900523 319.332026 
L 258.157964 311.683601 
L 258.326632 299.266721 
L 258.450914 269.539323 
L 258.557441 166.002609 
L 258.646214 92.351961 
L 258.708355 103.487105 
L 259.312009 326.466076 
L 259.507309 367.276394 
L 259.56945 367.68973 
L 259.631591 367.477682 
L 259.897909 365.390006 
L 260.421668 359.531918 
L 261.291641 346.722696 
L 262.525582 329.489335 
L 263.200255 319.314442 
L 263.457695 311.646073 
L 263.626364 299.163584 
L 263.750645 269.159317 
L 263.857173 164.730478 
L 263.945945 92.331228 
L 264.008086 103.740356 
L 264.620618 330.818834 
L 264.807041 367.29109 
L 264.869182 367.689205 
L 264.922445 367.519934 
L 265.171009 365.624624 
L 265.685891 359.979895 
L 266.511477 347.936986 
L 267.807559 329.708731 
L 268.499986 319.297122 
L 268.757427 311.608545 
L 268.926095 299.060447 
L 269.050377 268.77931 
L 269.156905 163.467822 
L 269.245677 92.318107 
L 269.298941 101.365576 
L 269.8227 289.302564 
L 270.133405 367.602076 
L 270.168914 367.688943 
L 270.222177 367.515735 
L 270.470741 365.617276 
L 270.985623 359.969136 
L 271.802332 348.060856 
L 273.098414 329.812918 
L 273.790841 319.464293 
L 274.048282 311.965457 
L 274.21695 300.032246 
L 274.341232 272.29621 
L 274.438882 188.736727 
L 274.545409 92.313645 
L 274.598673 101.601505 
L 275.131309 293.068778 
L 275.424259 367.540142 
L 275.459768 367.689467 
L 275.521909 367.511536 
L 275.770473 365.609927 
L 276.285355 359.958638 
L 277.110941 347.91153 
L 278.389268 329.917105 
L 279.090573 319.447235 
L 279.348014 311.929503 
L 279.516682 299.935932 
L 279.640964 271.955043 
L 279.738614 187.558338 
L 279.845141 92.314957 
L 279.898405 101.838485 
L 280.439918 296.936817 
L 280.715114 367.4559 
L 280.7595 367.689992 
L 280.821641 367.507337 
L 281.079082 365.522011 
L 281.593964 359.833981 
L 282.428427 347.625737 
L 283.706755 329.676451 
L 284.390305 319.430177 
L 284.647745 311.89355 
L 284.816414 299.839356 
L 284.940695 271.611253 
L 285.038345 186.375252 
L 285.144873 92.322831 
L 285.198136 102.075726 
L 285.748527 300.908781 
L 286.014845 367.46561 
L 286.059232 367.690255 
L 286.121373 367.502876 
L 286.378814 365.514663 
L 286.893695 359.823484 
L 287.728159 347.613141 
L 289.006486 329.665954 
L 289.690036 319.413381 
L 289.947477 311.857596 
L 290.116145 299.742517 
L 290.240427 271.2651 
L 290.338077 185.191169 
L 290.444605 92.337002 
L 290.497868 102.313231 
L 291.057136 304.984669 
L 291.3057 367.358011 
L 291.358964 367.690517 
L 291.421105 367.498677 
L 291.678545 365.507315 
L 292.193427 359.812986 
L 293.027891 347.600544 
L 294.315095 329.540247 
L 294.989768 319.396322 
L 295.247209 311.821642 
L 295.415877 299.645153 
L 295.540159 270.914749 
L 295.637809 183.997296 
L 295.744336 92.356947 
L 295.7976 102.553622 
L 296.365745 309.162644 
L 296.605432 367.370083 
L 296.658695 367.690517 
L 296.720836 367.494478 
L 296.978277 365.499967 
L 297.493159 359.802489 
L 298.327623 347.588209 
L 299.60595 329.644959 
L 300.2895 319.379527 
L 300.546941 311.785426 
L 300.715609 299.545953 
L 300.839891 270.556786 
L 300.937541 182.788544 
L 301.044068 92.383716 
L 301.097332 102.796637 
L 301.674355 313.43116 
L 301.905164 367.381893 
L 301.958427 367.690517 
L 302.020568 367.490279 
L 302.286886 365.411264 
L 302.810645 359.561835 
L 303.671741 346.894067 
L 304.914559 329.519253 
L 305.589232 319.362468 
L 305.846673 311.748948 
L 306.015341 299.446227 
L 306.139623 270.195412 
L 306.24615 168.23982 
L 306.334923 92.40576 
L 306.397064 103.042539 
L 306.982964 317.772371 
L 307.196018 367.249888 
L 307.258159 367.690255 
L 307.3203 367.485817 
L 307.586618 365.403653 
L 308.110377 359.551076 
L 308.971473 346.88147 
L 310.214291 329.508493 
L 310.888964 319.34541 
L 311.146405 311.712207 
L 311.315073 299.345452 
L 311.439355 269.828003 
L 311.545882 166.981783 
L 311.634655 92.372956 
L 311.696795 103.291853 
L 312.291573 322.15872 
L 312.49575 367.265109 
L 312.557891 367.689992 
L 312.620032 367.481356 
L 312.88635 365.396042 
L 313.410109 359.540316 
L 314.280082 346.732407 
L 315.531777 329.267052 
L 316.188695 319.327827 
L 316.446136 311.674941 
L 316.614805 299.243364 
L 316.739086 269.453769 
L 316.845614 165.713536 
L 316.934386 92.346712 
L 316.996527 103.544579 
L 317.600182 326.551893 
L 317.795482 367.279805 
L 317.857623 367.68973 
L 317.910886 367.523083 
L 318.150573 365.709915 
L 318.665455 360.101403 
L 319.464409 348.49335 
L 320.787123 329.832076 
L 321.488427 319.310506 
L 321.745868 311.637413 
L 321.914536 299.139965 
L 322.038818 269.07245 
L 322.145345 164.441169 
L 322.234118 92.327554 
L 322.296259 103.798354 
L 322.908791 330.903338 
L 323.095214 367.294502 
L 323.157355 367.689205 
L 323.210618 367.518884 
L 323.459182 365.623049 
L 323.974064 359.977271 
L 324.790773 348.070566 
L 326.095732 329.706107 
L 326.779282 319.477415 
L 327.036723 311.993275 
L 327.205391 300.106515 
L 327.329673 272.558645 
L 327.427323 189.647798 
L 327.53385 92.31627 
L 327.595991 104.052392 
L 328.2174 335.15847 
L 328.403823 367.438054 
L 328.457086 367.68868 
L 328.51035 367.514685 
L 328.758914 365.615439 
L 329.273795 359.966774 
L 329.318182 359.391777 
L 329.335936 360.292981 
L 329.531236 364.289351 
L 329.620009 364.477518 
L 329.664395 364.420044 
L 329.815309 363.812243 
L 330.214786 360.990798 
L 332.176664 346.21016 
L 332.869091 342.982988 
L 333.428359 341.32492 
L 333.889977 340.580653 
L 334.262823 340.353383 
L 334.609036 340.390124 
L 335.061777 340.679591 
L 336.553159 341.771323 
L 337.156814 341.868162 
L 338.097805 341.757939 
L 339.580309 341.563212 
L 342.101455 341.599428 
L 345.723382 341.595491 
L 435.845455 341.597591 
L 435.845455 341.597591 
" clip-path="url(#p8adb5115b1)" style="fill: none; stroke: #1f77b4; stroke-width: 1.5; stroke-linecap: square"/>
   </g>
   <g id="line2d_14">
    <path d="M 80.754545 341.666611 
L 81.047495 338.699025 
L 81.375955 337.296381 
L 81.597886 337.061826 
L 81.757677 337.179396 
L 82.015118 337.726303 
L 82.964986 339.995599 
L 83.3112 340.190052 
L 83.728432 340.150096 
L 85.388482 339.798419 
L 89.907014 339.83024 
L 151.772727 339.83126 
L 152.101186 325.110541 
L 152.314241 311.790078 
L 152.429645 288.373498 
L 152.509541 217.29994 
L 152.607191 69.948382 
L 152.687086 83.588453 
L 153.166459 256.822587 
L 153.503795 369.36 
L 153.592568 369.036706 
L 154.000923 366.244404 
L 154.533559 360.938552 
L 156.752877 336.587117 
L 157.303268 333.59533 
L 157.702745 332.482588 
L 157.960186 332.282078 
L 158.164364 332.398293 
L 158.475068 332.90704 
L 159.203005 334.140507 
L 159.513709 334.235955 
L 159.886555 334.088607 
L 160.934073 333.58326 
L 161.52885 333.60864 
L 163.046864 333.774752 
L 165.834327 333.738042 
L 187.938736 333.733403 
L 329.318182 333.733404 
L 329.575623 343.815751 
L 329.806432 346.375895 
L 329.912959 346.528245 
L 329.948468 346.499845 
L 330.090505 346.140979 
L 330.525491 344.178511 
L 331.217918 341.466284 
L 331.7328 340.297316 
L 332.158909 339.819161 
L 332.585018 339.662626 
L 333.19755 339.710059 
L 334.680055 339.8582 
L 354.831464 339.831272 
L 435.845455 339.83126 
L 435.845455 339.83126 
" clip-path="url(#p8adb5115b1)" style="fill: none; stroke: #ff0000; stroke-width: 1.5; stroke-linecap: square"/>
   </g>
   <g id="patch_3">
    <path d="M 63 384.48 
L 63 51.84 
" style="fill: none; stroke: #000000; stroke-width: 0.8; stroke-linejoin: miter; stroke-linecap: square"/>
   </g>
   <g id="patch_4">
    <path d="M 453.6 384.48 
L 453.6 51.84 
" style="fill: none; stroke: #000000; stroke-width: 0.8; stroke-linejoin: miter; stroke-linecap: square"/>
   </g>
   <g id="patch_5">
    <path d="M 63 384.48 
L 453.6 384.48 
" style="fill: none; stroke: #000000; stroke-width: 0.8; stroke-linejoin: miter; stroke-linecap: square"/>
   </g>
   <g id="patch_6">
    <path d="M 63 51.84 
L 453.6 51.84 
" style="fill: none; stroke: #000000; stroke-width: 0.8; stroke-linejoin: miter; stroke-linecap: square"/>
   </g>
   <g id="legend_1">
    <g id="patch_7">
     <path d="M 383.460938 89.19625 
L 446.6 89.19625 
Q 448.6 89.19625 448.6 87.19625 
L 448.6 58.84 
Q 448.6 56.84 446.6 56.84 
L 383.460938 56.84 
Q 381.460938 56.84 381.460938 58.84 
L 381.460938 87.19625 
Q 381.460938 89.19625 383.460938 89.19625 
z
" style="fill: #ffffff; opacity: 0.8; stroke: #cccccc; stroke-linejoin: miter"/>
    </g>
    <g id="line2d_15">
     <path d="M 385.460938 64.938437 
L 395.460938 64.938437 
L 405.460938 64.938437 
" style="fill: none; stroke: #1f77b4; stroke-width: 1.5; stroke-linecap: square"/>
    </g>
    <g id="text_15">
     <!-- target -->
     <g transform="translate(413.460938 68.438437)scale(0.1 -0.1)">
      <defs>
       <path id="DejaVuSans-72" d="M 2631 2963 
Q 2534 3019 2420 3045 
Q 2306 3072 2169 3072 
Q 1681 3072 1420 2755 
Q 1159 2438 1159 1844 
L 1159 0 
L 581 0 
L 581 3500 
L 1159 3500 
L 1159 2956 
Q 1341 3275 1631 3429 
Q 1922 3584 2338 3584 
Q 2397 3584 2469 3576 
Q 2541 3569 2628 3553 
L 2631 2963 
z
" transform="scale(0.015625)"/>
      </defs>
      <use xlink:href="#DejaVuSans-74"/>
      <use xlink:href="#DejaVuSans-61" x="39.208984"/>
      <use xlink:href="#DejaVuSans-72" x="100.488281"/>
      <use xlink:href="#DejaVuSans-67" x="139.851562"/>
      <use xlink:href="#DejaVuSans-65" x="203.328125"/>
      <use xlink:href="#DejaVuSans-74" x="264.851562"/>
     </g>
    </g>
    <g id="line2d_16">
     <path d="M 385.460938 79.616562 
L 395.460938 79.616562 
L 405.460938 79.616562 
" style="fill: none; stroke: #ff0000; stroke-width: 1.5; stroke-linecap: square"/>
    </g>
    <g id="text_16">
     <!-- model -->
     <g transform="translate(413.460938 83.116562)scale(0.1 -0.1)">
      <defs>
       <path id="DejaVuSans-64" d="M 2906 2969 
L 2906 4863 
L 3481 4863 
L 3481 0 
L 2906 0 
L 2906 525 
Q 2725 213 2448 61 
Q 2172 -91 1784 -91 
Q 1150 -91 751 415 
Q 353 922 353 1747 
Q 353 2572 751 3078 
Q 1150 3584 1784 3584 
Q 2172 3584 2448 3432 
Q 2725 3281 2906 2969 
z
M 947 1747 
Q 947 1113 1208 752 
Q 1469 391 1925 391 
Q 2381 391 2643 752 
Q 2906 1113 2906 1747 
Q 2906 2381 2643 2742 
Q 2381 3103 1925 3103 
Q 1469 3103 1208 2742 
Q 947 2381 947 1747 
z
" transform="scale(0.015625)"/>
      </defs>
      <use xlink:href="#DejaVuSans-6d"/>
      <use xlink:href="#DejaVuSans-6f" x="97.412109"/>
      <use xlink:href="#DejaVuSans-64" x="158.59375"/>
      <use xlink:href="#DejaVuSans-65" x="222.070312"/>
      <use xlink:href="#DejaVuSans-6c" x="283.59375"/>
     </g>
    </g>
   </g>
  </g>
 </g>
 <defs>
  <clipPath id="p8adb5115b1">
   <rect x="63" y="51.84" width="390.6" height="332.64"/>
  </clipPath>
 </defs>
</svg>
