<?xml version="1.0" encoding="utf-8" standalone="no"?>
<!DOCTYPE svg PUBLIC "-//W3C//DTD SVG 1.1//EN"
  "http://www.w3.org/Graphics/SVG/1.1/DTD/svg11.dtd">
<svg xmlns:xlink="http://www.w3.org/1999/xlink" width="504pt" height="432pt" viewBox="0 0 504 432" xmlns="http://www.w3.org/2000/svg" version="1.1">
 <metadata>
  <rdf:RDF xmlns:dc="http://purl.org/dc/elements/1.1/" xmlns:cc="http://creativecommons.org/ns#" xmlns:rdf="http://www.w3.org/1999/02/22-rdf-syntax-ns#">
   <cc:Work>
    <dc:type rdf:resource="http://purl.org/dc/dcmitype/StillImage"/>
    <dc:date>2022-01-31T18:23:36.263951</dc:date>
    <dc:format>image/svg+xml</dc:format>
    <dc:creator>
     <cc:Agent>
      <dc:title>Matplotlib v3.5.1, https://matplotlib.org/</dc:title>
     </cc:Agent>
    </dc:creator>
   </cc:Work>
  </rdf:RDF>
 </metadata>
 <defs>
  <style type="text/css">*{stroke-linejoin: round; stroke-linecap: butt}</style>
 </defs>
 <g id="figure_1">
  <g id="patch_1">
   <path d="M 0 432 
L 504 432 
L 504 0 
L 0 0 
z
" style="fill: #ffffff"/>
  </g>
  <g id="axes_1">
   <g id="patch_2">
    <path d="M 63 384.48 
L 453.6 384.48 
L 453.6 51.84 
L 63 51.84 
z
" style="fill: #ffffff"/>
   </g>
   <g id="matplotlib.axis_1">
    <g id="xtick_1">
     <g id="line2d_1">
      <defs>
       <path id="m7e8726d41a" d="M 0 0 
L 0 3.5 
" style="stroke: #000000; stroke-width: 0.8"/>
      </defs>
      <g>
       <use xlink:href="#m7e8726d41a" x="80.754545" y="384.48" style="stroke: #000000; stroke-width: 0.8"/>
      </g>
     </g>
     <g id="text_1">
      <!-- 0 -->
      <g transform="translate(77.573295 399.078438)scale(0.1 -0.1)">
       <defs>
        <path id="DejaVuSans-30" d="M 2034 4250 
Q 1547 4250 1301 3770 
Q 1056 3291 1056 2328 
Q 1056 1369 1301 889 
Q 1547 409 2034 409 
Q 2525 409 2770 889 
Q 3016 1369 3016 2328 
Q 3016 3291 2770 3770 
Q 2525 4250 2034 4250 
z
M 2034 4750 
Q 2819 4750 3233 4129 
Q 3647 3509 3647 2328 
Q 3647 1150 3233 529 
Q 2819 -91 2034 -91 
Q 1250 -91 836 529 
Q 422 1150 422 2328 
Q 422 3509 836 4129 
Q 1250 4750 2034 4750 
z
" transform="scale(0.015625)"/>
       </defs>
       <use xlink:href="#DejaVuSans-30"/>
      </g>
     </g>
    </g>
    <g id="xtick_2">
     <g id="line2d_2">
      <g>
       <use xlink:href="#m7e8726d41a" x="151.772727" y="384.48" style="stroke: #000000; stroke-width: 0.8"/>
      </g>
     </g>
     <g id="text_2">
      <!-- 200 -->
      <g transform="translate(142.228977 399.078438)scale(0.1 -0.1)">
       <defs>
        <path id="DejaVuSans-32" d="M 1228 531 
L 3431 531 
L 3431 0 
L 469 0 
L 469 531 
Q 828 903 1448 1529 
Q 2069 2156 2228 2338 
Q 2531 2678 2651 2914 
Q 2772 3150 2772 3378 
Q 2772 3750 2511 3984 
Q 2250 4219 1831 4219 
Q 1534 4219 1204 4116 
Q 875 4013 500 3803 
L 500 4441 
Q 881 4594 1212 4672 
Q 1544 4750 1819 4750 
Q 2544 4750 2975 4387 
Q 3406 4025 3406 3419 
Q 3406 3131 3298 2873 
Q 3191 2616 2906 2266 
Q 2828 2175 2409 1742 
Q 1991 1309 1228 531 
z
" transform="scale(0.015625)"/>
       </defs>
       <use xlink:href="#DejaVuSans-32"/>
       <use xlink:href="#DejaVuSans-30" x="63.623047"/>
       <use xlink:href="#DejaVuSans-30" x="127.246094"/>
      </g>
     </g>
    </g>
    <g id="xtick_3">
     <g id="line2d_3">
      <g>
       <use xlink:href="#m7e8726d41a" x="222.790909" y="384.48" style="stroke: #000000; stroke-width: 0.8"/>
      </g>
     </g>
     <g id="text_3">
      <!-- 400 -->
      <g transform="translate(213.247159 399.078438)scale(0.1 -0.1)">
       <defs>
        <path id="DejaVuSans-34" d="M 2419 4116 
L 825 1625 
L 2419 1625 
L 2419 4116 
z
M 2253 4666 
L 3047 4666 
L 3047 1625 
L 3713 1625 
L 3713 1100 
L 3047 1100 
L 3047 0 
L 2419 0 
L 2419 1100 
L 313 1100 
L 313 1709 
L 2253 4666 
z
" transform="scale(0.015625)"/>
       </defs>
       <use xlink:href="#DejaVuSans-34"/>
       <use xlink:href="#DejaVuSans-30" x="63.623047"/>
       <use xlink:href="#DejaVuSans-30" x="127.246094"/>
      </g>
     </g>
    </g>
    <g id="xtick_4">
     <g id="line2d_4">
      <g>
       <use xlink:href="#m7e8726d41a" x="293.809091" y="384.48" style="stroke: #000000; stroke-width: 0.8"/>
      </g>
     </g>
     <g id="text_4">
      <!-- 600 -->
      <g transform="translate(284.265341 399.078438)scale(0.1 -0.1)">
       <defs>
        <path id="DejaVuSans-36" d="M 2113 2584 
Q 1688 2584 1439 2293 
Q 1191 2003 1191 1497 
Q 1191 994 1439 701 
Q 1688 409 2113 409 
Q 2538 409 2786 701 
Q 3034 994 3034 1497 
Q 3034 2003 2786 2293 
Q 2538 2584 2113 2584 
z
M 3366 4563 
L 3366 3988 
Q 3128 4100 2886 4159 
Q 2644 4219 2406 4219 
Q 1781 4219 1451 3797 
Q 1122 3375 1075 2522 
Q 1259 2794 1537 2939 
Q 1816 3084 2150 3084 
Q 2853 3084 3261 2657 
Q 3669 2231 3669 1497 
Q 3669 778 3244 343 
Q 2819 -91 2113 -91 
Q 1303 -91 875 529 
Q 447 1150 447 2328 
Q 447 3434 972 4092 
Q 1497 4750 2381 4750 
Q 2619 4750 2861 4703 
Q 3103 4656 3366 4563 
z
" transform="scale(0.015625)"/>
       </defs>
       <use xlink:href="#DejaVuSans-36"/>
       <use xlink:href="#DejaVuSans-30" x="63.623047"/>
       <use xlink:href="#DejaVuSans-30" x="127.246094"/>
      </g>
     </g>
    </g>
    <g id="xtick_5">
     <g id="line2d_5">
      <g>
       <use xlink:href="#m7e8726d41a" x="364.827273" y="384.48" style="stroke: #000000; stroke-width: 0.8"/>
      </g>
     </g>
     <g id="text_5">
      <!-- 800 -->
      <g transform="translate(355.283523 399.078438)scale(0.1 -0.1)">
       <defs>
        <path id="DejaVuSans-38" d="M 2034 2216 
Q 1584 2216 1326 1975 
Q 1069 1734 1069 1313 
Q 1069 891 1326 650 
Q 1584 409 2034 409 
Q 2484 409 2743 651 
Q 3003 894 3003 1313 
Q 3003 1734 2745 1975 
Q 2488 2216 2034 2216 
z
M 1403 2484 
Q 997 2584 770 2862 
Q 544 3141 544 3541 
Q 544 4100 942 4425 
Q 1341 4750 2034 4750 
Q 2731 4750 3128 4425 
Q 3525 4100 3525 3541 
Q 3525 3141 3298 2862 
Q 3072 2584 2669 2484 
Q 3125 2378 3379 2068 
Q 3634 1759 3634 1313 
Q 3634 634 3220 271 
Q 2806 -91 2034 -91 
Q 1263 -91 848 271 
Q 434 634 434 1313 
Q 434 1759 690 2068 
Q 947 2378 1403 2484 
z
M 1172 3481 
Q 1172 3119 1398 2916 
Q 1625 2713 2034 2713 
Q 2441 2713 2670 2916 
Q 2900 3119 2900 3481 
Q 2900 3844 2670 4047 
Q 2441 4250 2034 4250 
Q 1625 4250 1398 4047 
Q 1172 3844 1172 3481 
z
" transform="scale(0.015625)"/>
       </defs>
       <use xlink:href="#DejaVuSans-38"/>
       <use xlink:href="#DejaVuSans-30" x="63.623047"/>
       <use xlink:href="#DejaVuSans-30" x="127.246094"/>
      </g>
     </g>
    </g>
    <g id="text_6">
     <!-- time [ms] -->
     <g transform="translate(234.038281 412.756563)scale(0.1 -0.1)">
      <defs>
       <path id="DejaVuSans-74" d="M 1172 4494 
L 1172 3500 
L 2356 3500 
L 2356 3053 
L 1172 3053 
L 1172 1153 
Q 1172 725 1289 603 
Q 1406 481 1766 481 
L 2356 481 
L 2356 0 
L 1766 0 
Q 1100 0 847 248 
Q 594 497 594 1153 
L 594 3053 
L 172 3053 
L 172 3500 
L 594 3500 
L 594 4494 
L 1172 4494 
z
" transform="scale(0.015625)"/>
       <path id="DejaVuSans-69" d="M 603 3500 
L 1178 3500 
L 1178 0 
L 603 0 
L 603 3500 
z
M 603 4863 
L 1178 4863 
L 1178 4134 
L 603 4134 
L 603 4863 
z
" transform="scale(0.015625)"/>
       <path id="DejaVuSans-6d" d="M 3328 2828 
Q 3544 3216 3844 3400 
Q 4144 3584 4550 3584 
Q 5097 3584 5394 3201 
Q 5691 2819 5691 2113 
L 5691 0 
L 5113 0 
L 5113 2094 
Q 5113 2597 4934 2840 
Q 4756 3084 4391 3084 
Q 3944 3084 3684 2787 
Q 3425 2491 3425 1978 
L 3425 0 
L 2847 0 
L 2847 2094 
Q 2847 2600 2669 2842 
Q 2491 3084 2119 3084 
Q 1678 3084 1418 2786 
Q 1159 2488 1159 1978 
L 1159 0 
L 581 0 
L 581 3500 
L 1159 3500 
L 1159 2956 
Q 1356 3278 1631 3431 
Q 1906 3584 2284 3584 
Q 2666 3584 2933 3390 
Q 3200 3197 3328 2828 
z
" transform="scale(0.015625)"/>
       <path id="DejaVuSans-65" d="M 3597 1894 
L 3597 1613 
L 953 1613 
Q 991 1019 1311 708 
Q 1631 397 2203 397 
Q 2534 397 2845 478 
Q 3156 559 3463 722 
L 3463 178 
Q 3153 47 2828 -22 
Q 2503 -91 2169 -91 
Q 1331 -91 842 396 
Q 353 884 353 1716 
Q 353 2575 817 3079 
Q 1281 3584 2069 3584 
Q 2775 3584 3186 3129 
Q 3597 2675 3597 1894 
z
M 3022 2063 
Q 3016 2534 2758 2815 
Q 2500 3097 2075 3097 
Q 1594 3097 1305 2825 
Q 1016 2553 972 2059 
L 3022 2063 
z
" transform="scale(0.015625)"/>
       <path id="DejaVuSans-20" transform="scale(0.015625)"/>
       <path id="DejaVuSans-5b" d="M 550 4863 
L 1875 4863 
L 1875 4416 
L 1125 4416 
L 1125 -397 
L 1875 -397 
L 1875 -844 
L 550 -844 
L 550 4863 
z
" transform="scale(0.015625)"/>
       <path id="DejaVuSans-73" d="M 2834 3397 
L 2834 2853 
Q 2591 2978 2328 3040 
Q 2066 3103 1784 3103 
Q 1356 3103 1142 2972 
Q 928 2841 928 2578 
Q 928 2378 1081 2264 
Q 1234 2150 1697 2047 
L 1894 2003 
Q 2506 1872 2764 1633 
Q 3022 1394 3022 966 
Q 3022 478 2636 193 
Q 2250 -91 1575 -91 
Q 1294 -91 989 -36 
Q 684 19 347 128 
L 347 722 
Q 666 556 975 473 
Q 1284 391 1588 391 
Q 1994 391 2212 530 
Q 2431 669 2431 922 
Q 2431 1156 2273 1281 
Q 2116 1406 1581 1522 
L 1381 1569 
Q 847 1681 609 1914 
Q 372 2147 372 2553 
Q 372 3047 722 3315 
Q 1072 3584 1716 3584 
Q 2034 3584 2315 3537 
Q 2597 3491 2834 3397 
z
" transform="scale(0.015625)"/>
       <path id="DejaVuSans-5d" d="M 1947 4863 
L 1947 -844 
L 622 -844 
L 622 -397 
L 1369 -397 
L 1369 4416 
L 622 4416 
L 622 4863 
L 1947 4863 
z
" transform="scale(0.015625)"/>
      </defs>
      <use xlink:href="#DejaVuSans-74"/>
      <use xlink:href="#DejaVuSans-69" x="39.208984"/>
      <use xlink:href="#DejaVuSans-6d" x="66.992188"/>
      <use xlink:href="#DejaVuSans-65" x="164.404297"/>
      <use xlink:href="#DejaVuSans-20" x="225.927734"/>
      <use xlink:href="#DejaVuSans-5b" x="257.714844"/>
      <use xlink:href="#DejaVuSans-6d" x="296.728516"/>
      <use xlink:href="#DejaVuSans-73" x="394.140625"/>
      <use xlink:href="#DejaVuSans-5d" x="446.240234"/>
     </g>
    </g>
   </g>
   <g id="matplotlib.axis_2">
    <g id="ytick_1">
     <g id="line2d_6">
      <defs>
       <path id="m8066be2f8f" d="M 0 0 
L -3.5 0 
" style="stroke: #000000; stroke-width: 0.8"/>
      </defs>
      <g>
       <use xlink:href="#m8066be2f8f" x="63" y="378.052841" style="stroke: #000000; stroke-width: 0.8"/>
      </g>
     </g>
     <g id="text_7">
      <!-- −80 -->
      <g transform="translate(34.895313 381.852059)scale(0.1 -0.1)">
       <defs>
        <path id="DejaVuSans-2212" d="M 678 2272 
L 4684 2272 
L 4684 1741 
L 678 1741 
L 678 2272 
z
" transform="scale(0.015625)"/>
       </defs>
       <use xlink:href="#DejaVuSans-2212"/>
       <use xlink:href="#DejaVuSans-38" x="83.789062"/>
       <use xlink:href="#DejaVuSans-30" x="147.412109"/>
      </g>
     </g>
    </g>
    <g id="ytick_2">
     <g id="line2d_7">
      <g>
       <use xlink:href="#m8066be2f8f" x="63" y="328.521763" style="stroke: #000000; stroke-width: 0.8"/>
      </g>
     </g>
     <g id="text_8">
      <!-- −60 -->
      <g transform="translate(34.895313 332.320982)scale(0.1 -0.1)">
       <use xlink:href="#DejaVuSans-2212"/>
       <use xlink:href="#DejaVuSans-36" x="83.789062"/>
       <use xlink:href="#DejaVuSans-30" x="147.412109"/>
      </g>
     </g>
    </g>
    <g id="ytick_3">
     <g id="line2d_8">
      <g>
       <use xlink:href="#m8066be2f8f" x="63" y="278.990686" style="stroke: #000000; stroke-width: 0.8"/>
      </g>
     </g>
     <g id="text_9">
      <!-- −40 -->
      <g transform="translate(34.895313 282.789905)scale(0.1 -0.1)">
       <use xlink:href="#DejaVuSans-2212"/>
       <use xlink:href="#DejaVuSans-34" x="83.789062"/>
       <use xlink:href="#DejaVuSans-30" x="147.412109"/>
      </g>
     </g>
    </g>
    <g id="ytick_4">
     <g id="line2d_9">
      <g>
       <use xlink:href="#m8066be2f8f" x="63" y="229.459608" style="stroke: #000000; stroke-width: 0.8"/>
      </g>
     </g>
     <g id="text_10">
      <!-- −20 -->
      <g transform="translate(34.895313 233.258827)scale(0.1 -0.1)">
       <use xlink:href="#DejaVuSans-2212"/>
       <use xlink:href="#DejaVuSans-32" x="83.789062"/>
       <use xlink:href="#DejaVuSans-30" x="147.412109"/>
      </g>
     </g>
    </g>
    <g id="ytick_5">
     <g id="line2d_10">
      <g>
       <use xlink:href="#m8066be2f8f" x="63" y="179.928531" style="stroke: #000000; stroke-width: 0.8"/>
      </g>
     </g>
     <g id="text_11">
      <!-- 0 -->
      <g transform="translate(49.6375 183.72775)scale(0.1 -0.1)">
       <use xlink:href="#DejaVuSans-30"/>
      </g>
     </g>
    </g>
    <g id="ytick_6">
     <g id="line2d_11">
      <g>
       <use xlink:href="#m8066be2f8f" x="63" y="130.397453" style="stroke: #000000; stroke-width: 0.8"/>
      </g>
     </g>
     <g id="text_12">
      <!-- 20 -->
      <g transform="translate(43.275 134.196672)scale(0.1 -0.1)">
       <use xlink:href="#DejaVuSans-32"/>
       <use xlink:href="#DejaVuSans-30" x="63.623047"/>
      </g>
     </g>
    </g>
    <g id="ytick_7">
     <g id="line2d_12">
      <g>
       <use xlink:href="#m8066be2f8f" x="63" y="80.866376" style="stroke: #000000; stroke-width: 0.8"/>
      </g>
     </g>
     <g id="text_13">
      <!-- 40 -->
      <g transform="translate(43.275 84.665595)scale(0.1 -0.1)">
       <use xlink:href="#DejaVuSans-34"/>
       <use xlink:href="#DejaVuSans-30" x="63.623047"/>
      </g>
     </g>
    </g>
    <g id="text_14">
     <!-- voltage [mV] -->
     <g transform="translate(28.815625 250.624062)rotate(-90)scale(0.1 -0.1)">
      <defs>
       <path id="DejaVuSans-76" d="M 191 3500 
L 800 3500 
L 1894 563 
L 2988 3500 
L 3597 3500 
L 2284 0 
L 1503 0 
L 191 3500 
z
" transform="scale(0.015625)"/>
       <path id="DejaVuSans-6f" d="M 1959 3097 
Q 1497 3097 1228 2736 
Q 959 2375 959 1747 
Q 959 1119 1226 758 
Q 1494 397 1959 397 
Q 2419 397 2687 759 
Q 2956 1122 2956 1747 
Q 2956 2369 2687 2733 
Q 2419 3097 1959 3097 
z
M 1959 3584 
Q 2709 3584 3137 3096 
Q 3566 2609 3566 1747 
Q 3566 888 3137 398 
Q 2709 -91 1959 -91 
Q 1206 -91 779 398 
Q 353 888 353 1747 
Q 353 2609 779 3096 
Q 1206 3584 1959 3584 
z
" transform="scale(0.015625)"/>
       <path id="DejaVuSans-6c" d="M 603 4863 
L 1178 4863 
L 1178 0 
L 603 0 
L 603 4863 
z
" transform="scale(0.015625)"/>
       <path id="DejaVuSans-61" d="M 2194 1759 
Q 1497 1759 1228 1600 
Q 959 1441 959 1056 
Q 959 750 1161 570 
Q 1363 391 1709 391 
Q 2188 391 2477 730 
Q 2766 1069 2766 1631 
L 2766 1759 
L 2194 1759 
z
M 3341 1997 
L 3341 0 
L 2766 0 
L 2766 531 
Q 2569 213 2275 61 
Q 1981 -91 1556 -91 
Q 1019 -91 701 211 
Q 384 513 384 1019 
Q 384 1609 779 1909 
Q 1175 2209 1959 2209 
L 2766 2209 
L 2766 2266 
Q 2766 2663 2505 2880 
Q 2244 3097 1772 3097 
Q 1472 3097 1187 3025 
Q 903 2953 641 2809 
L 641 3341 
Q 956 3463 1253 3523 
Q 1550 3584 1831 3584 
Q 2591 3584 2966 3190 
Q 3341 2797 3341 1997 
z
" transform="scale(0.015625)"/>
       <path id="DejaVuSans-67" d="M 2906 1791 
Q 2906 2416 2648 2759 
Q 2391 3103 1925 3103 
Q 1463 3103 1205 2759 
Q 947 2416 947 1791 
Q 947 1169 1205 825 
Q 1463 481 1925 481 
Q 2391 481 2648 825 
Q 2906 1169 2906 1791 
z
M 3481 434 
Q 3481 -459 3084 -895 
Q 2688 -1331 1869 -1331 
Q 1566 -1331 1297 -1286 
Q 1028 -1241 775 -1147 
L 775 -588 
Q 1028 -725 1275 -790 
Q 1522 -856 1778 -856 
Q 2344 -856 2625 -561 
Q 2906 -266 2906 331 
L 2906 616 
Q 2728 306 2450 153 
Q 2172 0 1784 0 
Q 1141 0 747 490 
Q 353 981 353 1791 
Q 353 2603 747 3093 
Q 1141 3584 1784 3584 
Q 2172 3584 2450 3431 
Q 2728 3278 2906 2969 
L 2906 3500 
L 3481 3500 
L 3481 434 
z
" transform="scale(0.015625)"/>
       <path id="DejaVuSans-56" d="M 1831 0 
L 50 4666 
L 709 4666 
L 2188 738 
L 3669 4666 
L 4325 4666 
L 2547 0 
L 1831 0 
z
" transform="scale(0.015625)"/>
      </defs>
      <use xlink:href="#DejaVuSans-76"/>
      <use xlink:href="#DejaVuSans-6f" x="59.179688"/>
      <use xlink:href="#DejaVuSans-6c" x="120.361328"/>
      <use xlink:href="#DejaVuSans-74" x="148.144531"/>
      <use xlink:href="#DejaVuSans-61" x="187.353516"/>
      <use xlink:href="#DejaVuSans-67" x="248.632812"/>
      <use xlink:href="#DejaVuSans-65" x="312.109375"/>
      <use xlink:href="#DejaVuSans-20" x="373.632812"/>
      <use xlink:href="#DejaVuSans-5b" x="405.419922"/>
      <use xlink:href="#DejaVuSans-6d" x="444.433594"/>
      <use xlink:href="#DejaVuSans-56" x="541.845703"/>
      <use xlink:href="#DejaVuSans-5d" x="610.253906"/>
     </g>
    </g>
   </g>
   <g id="line2d_13">
    <path d="M 80.754545 340.904533 
L 81.997364 340.775009 
L 83.870468 340.833208 
L 86.098664 340.846334 
L 151.772727 340.839399 
L 152.314241 298.832588 
L 152.420768 252.946255 
L 152.562805 81.669275 
L 152.678209 105.461528 
L 153.565936 365.894942 
L 153.610323 365.80009 
L 153.8145 364.499157 
L 154.293873 360.014118 
L 154.959668 351.408341 
L 157.42755 314.715223 
L 157.613973 304.216864 
L 157.738255 283.492813 
L 157.835905 224.472077 
L 157.969064 104.653428 
L 158.031205 117.062449 
L 158.883423 365.494484 
L 158.945564 365.321373 
L 159.203005 363.454051 
L 159.717886 358.101723 
L 160.534595 346.848757 
L 161.8218 329.7432 
L 162.514227 319.962545 
L 162.771668 312.866971 
L 162.940336 301.55333 
L 163.064618 275.16763 
L 163.162268 195.538572 
L 163.268795 105.521708 
L 163.322059 114.497235 
L 163.863573 298.570073 
L 164.147645 365.327812 
L 164.183155 365.464517 
L 164.245295 365.293388 
L 164.493859 363.497391 
L 165.008741 358.163637 
L 165.834327 346.794521 
L 167.112655 329.813534 
L 167.813959 319.929112 
L 168.0714 312.824374 
L 168.240068 301.473585 
L 168.36435 274.935329 
L 168.462 194.835107 
L 168.568527 105.594271 
L 168.621791 114.706751 
L 169.172182 302.298525 
L 169.4385 365.246828 
L 169.482886 365.462536 
L 169.545027 365.287691 
L 169.802468 363.412693 
L 170.31735 358.043524 
L 171.151814 346.521852 
L 172.430141 329.584453 
L 173.113691 319.911776 
L 173.371132 312.78995 
L 173.5398 301.383191 
L 173.664082 274.616349 
L 173.761732 193.748865 
L 173.868259 105.610121 
L 173.921523 114.929393 
L 174.480791 306.13966 
L 174.729355 365.143556 
L 174.782618 365.462536 
L 174.844759 365.283729 
L 175.1022 363.405758 
L 175.617082 358.03337 
L 176.451545 346.509717 
L 177.729873 329.574299 
L 178.413423 319.895926 
L 178.670864 312.756021 
L 178.839532 301.291558 
L 178.963814 274.288948 
L 179.061464 192.630825 
L 179.167991 105.626466 
L 179.221255 115.154512 
L 179.7894 310.078124 
L 180.029086 365.155196 
L 180.08235 365.462784 
L 180.144491 365.279519 
L 180.401932 363.398824 
L 180.916814 358.023464 
L 181.751277 346.498077 
L 183.029605 329.564392 
L 183.713155 319.879829 
L 183.970595 312.721845 
L 184.139264 301.198935 
L 184.263545 273.953871 
L 184.361195 191.493121 
L 184.467723 105.649003 
L 184.520986 115.383098 
L 185.098009 314.103267 
L 185.328818 365.166588 
L 185.382082 365.462784 
L 185.444223 365.275556 
L 185.701664 363.391642 
L 186.216545 358.013557 
L 187.051009 346.48619 
L 188.329336 329.554486 
L 189.012886 319.863979 
L 189.270327 312.687421 
L 189.438995 301.104826 
L 189.563277 273.61384 
L 189.660927 190.350885 
L 189.767455 105.676988 
L 189.820718 115.613913 
L 190.406618 318.196515 
L 190.619673 365.040284 
L 190.681814 365.462536 
L 190.743955 365.271346 
L 191.010273 363.307934 
L 191.525155 357.895178 
L 192.368495 346.216741 
L 193.637945 329.435612 
L 194.312618 319.847633 
L 194.570059 312.652997 
L 194.738727 301.010222 
L 194.863009 273.270589 
L 194.969536 176.599671 
L 195.058309 105.664358 
L 195.12045 115.847204 
L 195.715227 322.33335 
L 195.919405 365.054895 
L 195.981545 365.462536 
L 196.043686 365.267136 
L 196.310005 363.300752 
L 196.833764 357.776304 
L 197.703736 345.690473 
L 198.955432 329.208016 
L 199.61235 319.831536 
L 199.869791 312.618077 
L 200.038459 300.914627 
L 200.162741 272.920405 
L 200.269268 175.407681 
L 200.358041 105.63662 
L 200.420182 116.084458 
L 201.023836 326.478854 
L 201.219136 365.068764 
L 201.281277 365.462041 
L 201.343418 365.262926 
L 201.609736 363.29357 
L 202.133495 357.765902 
L 202.994591 345.806871 
L 204.255164 329.197862 
L 204.912082 319.814943 
L 205.169523 312.582663 
L 205.338191 300.817546 
L 205.462473 272.563038 
L 205.569 174.207691 
L 205.657773 105.615569 
L 205.719914 116.323445 
L 206.332445 330.587705 
L 206.518868 365.082633 
L 206.581009 365.461793 
L 206.634273 365.302551 
L 206.873959 363.590014 
L 207.388841 358.295637 
L 208.187795 347.340353 
L 209.510509 329.730817 
L 210.202936 319.972452 
L 210.460377 312.91774 
L 210.629045 301.726441 
L 210.753327 275.834566 
L 210.850977 197.954549 
L 210.957505 105.601205 
L 211.019645 116.563423 
L 211.641055 334.608885 
L 211.827477 365.220082 
L 211.880741 365.461298 
L 211.934005 365.298588 
L 212.182568 363.507792 
L 212.69745 358.178496 
L 213.514159 346.94138 
L 214.810241 329.720663 
L 215.502668 319.956354 
L 215.760109 312.883811 
L 215.928777 301.635551 
L 216.053059 275.514347 
L 216.150709 196.842081 
L 216.257236 105.595262 
L 216.319377 116.802906 
L 216.949664 338.482463 
L 217.127209 365.229988 
L 217.171595 365.461793 
L 217.233736 365.294626 
L 217.4823 363.500858 
L 217.997182 358.16859 
L 218.822768 346.800464 
L 220.101095 329.818982 
L 220.8024 319.940256 
L 221.059841 312.85013 
L 221.228509 301.54491 
L 221.352791 275.19289 
L 221.450441 195.730158 
L 221.556968 105.595757 
L 221.610232 114.532154 
L 222.151745 298.622328 
L 222.426941 365.239399 
L 222.471327 365.462041 
L 222.533468 365.290663 
L 222.782032 363.493923 
L 223.296914 358.158683 
L 224.1225 346.788329 
L 225.418582 329.59213 
L 226.111009 319.749562 
L 226.36845 312.441747 
L 226.537118 300.427488 
L 226.652523 274.868957 
L 226.750173 194.613802 
L 226.8567 105.601453 
L 226.909964 114.756282 
L 227.460355 302.369602 
L 227.726673 365.248562 
L 227.771059 365.462536 
L 227.8332 365.286701 
L 228.090641 363.410959 
L 228.605523 358.041047 
L 229.439986 346.51888 
L 230.718314 329.581976 
L 231.401864 319.908061 
L 231.659305 312.782025 
L 231.827973 301.362388 
L 231.952255 274.542795 
L 232.049905 193.497248 
L 232.156432 105.613588 
L 232.209695 114.980163 
L 232.768964 306.213709 
L 233.017527 365.14628 
L 233.070791 365.462536 
L 233.132932 365.282738 
L 233.390373 363.404025 
L 233.905255 358.031141 
L 234.739718 346.506993 
L 236.018045 329.57207 
L 236.701595 319.892211 
L 236.959036 312.748344 
L 237.127705 301.270755 
L 237.251986 274.213661 
L 237.349636 192.374304 
L 237.456164 105.630924 
L 237.509427 115.206272 
L 238.077573 310.154401 
L 238.317259 365.157672 
L 238.370523 365.462784 
L 238.432664 365.278776 
L 238.698982 363.320565 
L 239.213864 357.913009 
L 240.057205 346.237791 
L 241.317777 329.562164 
L 242.001327 319.876361 
L 242.258768 312.714168 
L 242.427436 301.177637 
L 242.551718 273.87685 
L 242.649368 191.23395 
L 242.755895 105.654947 
L 242.809159 115.435353 
L 243.386182 314.181278 
L 243.616991 365.169065 
L 243.670255 365.462784 
L 243.732395 365.274566 
L 243.989836 363.390156 
L 244.504718 358.011329 
L 245.348059 346.354685 
L 246.617509 329.55201 
L 247.301059 319.860264 
L 247.5585 312.679743 
L 247.727168 301.08328 
L 247.85145 273.536324 
L 247.9491 190.090599 
L 248.055627 105.684418 
L 248.108891 115.666663 
L 248.694791 318.27626 
L 248.907845 365.043751 
L 248.969986 365.462536 
L 249.032127 365.270603 
L 249.298445 363.306448 
L 249.822205 357.784229 
L 250.692177 345.699884 
L 251.943873 329.215941 
L 252.600791 319.843919 
L 252.858232 312.645072 
L 253.0269 300.988428 
L 253.151182 273.19134 
L 253.257709 176.32829 
L 253.346482 105.657423 
L 253.408623 115.901193 
L 254.0034 322.414581 
L 254.207577 365.058115 
L 254.269718 365.462289 
L 254.331859 365.266393 
L 254.598177 363.299266 
L 255.121936 357.773827 
L 255.983032 345.816282 
L 257.22585 329.423229 
L 257.900523 319.827821 
L 258.157964 312.610152 
L 258.326632 300.892585 
L 258.450914 272.839421 
L 258.557441 175.133848 
L 258.646214 105.631172 
L 258.708355 116.13919 
L 259.312009 326.560085 
L 259.507309 365.071984 
L 259.56945 365.462041 
L 259.631591 365.261935 
L 259.897909 363.291837 
L 260.421668 357.763673 
L 261.291641 345.675861 
L 262.525582 329.413075 
L 263.200255 319.811228 
L 263.457695 312.574738 
L 263.626364 300.795257 
L 263.750645 272.480816 
L 263.857173 173.933364 
L 263.945945 105.611607 
L 264.008086 116.378177 
L 264.620618 330.667697 
L 264.807041 365.085852 
L 264.869182 365.461546 
L 264.922445 365.301808 
L 265.171009 363.513241 
L 265.685891 358.186421 
L 266.511477 346.821763 
L 267.807559 329.620115 
L 268.499986 319.794883 
L 268.757427 312.539323 
L 268.926095 300.697928 
L 269.050377 272.122211 
L 269.156905 172.741819 
L 269.245677 105.599224 
L 269.298941 114.137144 
L 269.8227 291.489606 
L 270.133405 365.379324 
L 270.168914 365.461298 
L 270.222177 365.297845 
L 270.470741 363.506306 
L 270.985623 358.176267 
L 271.802332 346.938656 
L 273.098414 329.718434 
L 273.790841 319.952639 
L 274.048282 312.876134 
L 274.21695 301.614996 
L 274.341232 275.441041 
L 274.438882 196.587591 
L 274.545409 105.595014 
L 274.598673 114.359786 
L 275.131309 295.043708 
L 275.424259 365.320877 
L 275.468645 365.460555 
L 275.521909 365.293883 
L 275.770473 363.499372 
L 276.285355 358.166361 
L 277.110941 346.79774 
L 278.389268 329.816753 
L 279.090573 319.936542 
L 279.348014 312.842205 
L 279.516682 301.524107 
L 279.640964 275.119089 
L 279.738614 195.475568 
L 279.845141 105.596252 
L 279.898405 114.583419 
L 280.439918 298.693901 
L 280.715114 365.24138 
L 280.7595 365.462289 
L 280.821641 365.28992 
L 281.079082 363.416407 
L 281.593964 358.048724 
L 282.428427 346.528044 
L 283.706755 329.589653 
L 284.390305 319.920444 
L 284.647745 312.808277 
L 284.816414 301.432969 
L 284.940695 274.794661 
L 285.038345 194.359113 
L 285.144873 105.603682 
L 285.198136 114.807299 
L 285.748527 302.442165 
L 286.014845 365.250543 
L 286.059232 365.462536 
L 286.121373 365.28571 
L 286.378814 363.409473 
L 286.902573 357.930593 
L 287.754791 346.130061 
L 289.006486 329.579747 
L 289.690036 319.904594 
L 289.947477 312.774348 
L 290.116145 301.341585 
L 290.240427 274.468003 
L 290.338077 193.241717 
L 290.444605 105.617055 
L 290.497868 115.031427 
L 291.057136 306.288501 
L 291.3057 365.149004 
L 291.358964 365.462784 
L 291.421105 365.281748 
L 291.678545 363.402539 
L 292.193427 358.028912 
L 293.027891 346.504269 
L 294.315095 329.46112 
L 294.989768 319.888496 
L 295.247209 312.740419 
L 295.415877 301.249704 
L 295.540159 274.137383 
L 295.637809 192.115083 
L 295.744336 105.635877 
L 295.7976 115.25828 
L 296.365745 310.231175 
L 296.605432 365.160397 
L 296.658695 365.462784 
L 296.720836 365.277785 
L 296.978277 363.395604 
L 297.493159 358.019006 
L 298.327623 346.492629 
L 299.60595 329.559935 
L 300.2895 319.872647 
L 300.546941 312.706243 
L 300.715609 301.156091 
L 300.839891 273.799581 
L 300.937541 190.974407 
L 301.044068 105.661138 
L 301.097332 115.487608 
L 301.674355 314.25929 
L 301.905164 365.171541 
L 301.958427 365.462784 
L 302.020568 365.273823 
L 302.286886 363.311897 
L 302.810645 357.791906 
L 303.671741 345.83758 
L 304.914559 329.441308 
L 305.589232 319.856549 
L 305.846673 312.671818 
L 306.015341 301.061982 
L 306.139623 273.45856 
L 306.24615 177.245061 
L 306.334923 105.681941 
L 306.397064 115.719662 
L 306.982964 318.356005 
L 307.196018 365.04697 
L 307.258159 365.462536 
L 307.3203 365.269613 
L 307.586618 363.304715 
L 308.110377 357.781752 
L 308.971473 345.825693 
L 310.214291 329.431154 
L 310.888964 319.840451 
L 311.146405 312.637147 
L 311.315073 300.966882 
L 311.439355 273.111842 
L 311.545882 176.057875 
L 311.634655 105.650984 
L 311.696795 115.954934 
L 312.291573 322.495317 
L 312.49575 365.061334 
L 312.557891 365.462289 
L 312.620032 365.265402 
L 312.88635 363.297533 
L 313.410109 357.771598 
L 314.280082 345.685025 
L 315.531777 329.203311 
L 316.188695 319.823858 
L 316.446136 312.60198 
L 316.614805 300.870544 
L 316.739086 272.758686 
L 316.845614 174.861056 
L 316.934386 105.626219 
L 316.996527 116.193426 
L 317.600182 326.641068 
L 317.795482 365.075203 
L 317.857623 365.462041 
L 317.910886 365.30478 
L 318.15945 363.518689 
L 318.674332 358.194098 
L 319.491041 346.959955 
L 320.796 329.627792 
L 321.488427 319.807513 
L 321.745868 312.566565 
L 321.914536 300.772968 
L 322.038818 272.398842 
L 322.145345 173.660348 
L 322.234118 105.60814 
L 322.296259 116.432909 
L 322.908791 330.747442 
L 323.095214 365.089072 
L 323.157355 365.461546 
L 323.210618 365.300817 
L 323.459182 363.511755 
L 323.974064 358.183944 
L 324.790773 346.947819 
L 326.095732 329.617638 
L 326.779282 319.965022 
L 327.036723 312.902386 
L 327.205391 301.685083 
L 327.329673 275.688697 
L 327.427323 197.447351 
L 327.53385 105.597491 
L 327.595991 116.67264 
L 328.2174 334.762927 
L 328.403823 365.224539 
L 328.457086 365.46105 
L 328.51035 365.296855 
L 328.758914 363.504573 
L 329.273795 358.174038 
L 329.318182 357.631425 
L 329.335936 358.481874 
L 329.531236 362.25317 
L 329.620009 362.430739 
L 329.664395 362.376502 
L 329.815309 361.802932 
L 330.214786 359.140389 
L 332.176664 345.19219 
L 332.869091 342.146772 
L 333.428359 340.582085 
L 333.889977 339.879735 
L 334.262823 339.665265 
L 334.626791 339.706624 
L 335.115041 340.015202 
L 336.482141 340.979077 
L 337.121305 341.094237 
L 338.133314 340.984525 
L 339.9354 340.794821 
L 435.845455 340.839399 
L 435.845455 340.839399 
" clip-path="url(#p130bbeea3f)" style="fill: none; stroke: #1f77b4; stroke-width: 1.5; stroke-linecap: square"/>
   </g>
   <g id="line2d_14">
    <path d="M 80.754545 340.904533 
L 81.020864 346.836047 
L 81.269427 348.715375 
L 81.375955 348.808229 
L 81.411464 348.780595 
L 81.571255 348.423434 
L 81.979609 346.780388 
L 82.796318 343.684775 
L 83.222427 342.819294 
L 83.515377 342.624389 
L 83.746186 342.723342 
L 84.056891 343.147499 
L 84.811459 344.249395 
L 85.139918 344.320393 
L 85.539395 344.147085 
L 86.604668 343.600812 
L 87.163936 343.637375 
L 88.655318 343.848765 
L 91.620327 343.789847 
L 108.682445 343.778746 
L 151.772727 343.778742 
L 152.189959 312.305675 
L 152.260977 266.46507 
L 152.358627 66.96 
L 152.474032 80.201878 
L 152.74035 156.811949 
L 153.406145 369.36 
L 153.503795 369.215799 
L 153.894395 368.187503 
L 154.329382 366.363984 
L 154.826509 363.20999 
L 155.501182 357.300203 
L 157.5252 338.81064 
L 157.969064 333.840014 
L 158.173241 328.848775 
L 158.3064 319.417374 
L 158.395173 294.33604 
L 158.457314 189.675957 
L 158.528332 70.094616 
L 158.590473 75.333804 
L 158.768018 119.598424 
L 159.549218 369.339247 
L 159.6735 369.130983 
L 160.072977 368.019167 
L 160.507964 366.102301 
L 161.013968 362.762862 
L 161.733027 356.300176 
L 163.437464 340.706658 
L 164.049995 334.644731 
L 164.280805 329.867388 
L 164.422841 321.715521 
L 164.520491 300.274525 
L 164.582632 225.773138 
L 164.671405 70.12617 
L 164.733545 76.371414 
L 164.928845 127.326685 
L 165.683414 369.338704 
L 165.789941 369.171999 
L 166.189418 368.086403 
L 166.624405 366.206477 
L 167.121532 362.98165 
L 167.822836 356.750416 
L 169.624923 340.27371 
L 170.193068 334.546172 
L 170.423877 329.634598 
L 170.565914 320.980838 
L 170.663564 296.815068 
L 170.725705 205.032494 
L 170.8056 70.104222 
L 170.867741 76.058782 
L 171.054164 123.87981 
L 171.817609 369.338412 
L 171.933014 369.157568 
L 172.332491 368.062672 
L 172.767477 366.169655 
L 173.273482 362.860198 
L 173.983664 356.509754 
L 175.732486 340.514723 
L 176.327264 334.574003 
L 176.558073 329.701616 
L 176.700109 321.19514 
L 176.797759 297.852535 
L 176.8599 211.337574 
L 176.939795 70.099598 
L 177.001936 75.75341 
L 177.188359 123.260737 
L 177.960682 369.337926 
L 178.067209 369.161666 
L 178.466686 368.069402 
L 178.901673 366.18009 
L 179.407677 362.875313 
L 180.117859 356.528881 
L 181.866682 340.531204 
L 182.461459 334.601712 
L 182.692268 329.767358 
L 182.834305 321.403336 
L 182.931955 298.839993 
L 182.994095 217.316961 
L 183.073991 70.115325 
L 183.145009 76.859085 
L 183.340309 128.28391 
L 184.094877 369.33848 
L 184.201405 369.165748 
L 184.600882 368.076112 
L 185.035868 366.190501 
L 185.541873 362.890401 
L 186.252055 356.547991 
L 188.009755 340.473042 
L 188.595655 334.62913 
L 188.826464 329.832087 
L 188.9685 321.607265 
L 189.06615 299.783254 
L 189.128291 222.89867 
L 189.217064 70.146074 
L 189.279205 76.541207 
L 189.474505 127.663025 
L 190.229073 369.338712 
L 190.3356 369.169791 
L 190.735077 368.082765 
L 191.170064 366.200828 
L 191.676068 362.905378 
L 192.38625 356.566976 
L 194.14395 340.489382 
L 194.72985 334.656252 
L 194.960659 329.895877 
L 195.102695 321.805565 
L 195.200345 300.684349 
L 195.262486 228.171567 
L 195.351259 70.11445 
L 195.422277 77.701586 
L 195.635332 135.612073 
L 196.363268 369.338604 
L 196.460918 369.192015 
L 196.851518 368.149311 
L 197.286505 366.304375 
L 197.783632 363.123395 
L 198.467182 357.103872 
L 200.375795 339.673584 
L 200.899555 334.168335 
L 201.112609 329.354651 
L 201.254645 320.057116 
L 201.343418 297.292962 
L 201.405559 207.932495 
L 201.485455 70.099736 
L 201.547595 75.919431 
L 201.734018 123.598681 
L 202.497464 369.338147 
L 202.612868 369.159431 
L 203.012345 368.065729 
L 203.447332 366.174395 
L 203.953336 362.867063 
L 204.663518 356.518439 
L 206.412341 340.522205 
L 207.007118 334.586613 
L 207.237927 329.731588 
L 207.379964 321.290195 
L 207.477614 298.306633 
L 207.539755 214.095578 
L 207.61965 70.10438 
L 207.690668 77.036571 
L 207.894845 131.477189 
L 208.640536 369.338207 
L 208.738186 369.181883 
L 209.137664 368.10272 
L 209.57265 366.231829 
L 210.069777 363.018278 
L 210.762205 356.88343 
L 212.5998 340.088355 
L 213.150191 334.488092 
L 213.372123 329.796835 
L 213.514159 321.496347 
L 213.611809 299.272487 
L 213.67395 219.887456 
L 213.753845 70.129472 
L 213.824864 76.714602 
L 214.020164 128.003051 
L 214.774732 369.338634 
L 214.881259 369.167565 
L 215.280736 368.079101 
L 215.715723 366.195141 
L 216.221727 362.897129 
L 216.931909 356.556518 
L 218.689609 340.480389 
L 219.275509 334.641342 
L 219.506318 329.860852 
L 219.648355 321.696821 
L 219.746005 300.191725 
L 219.808145 225.29286 
L 219.896918 70.129842 
L 219.959059 76.400827 
L 220.154359 127.385516 
L 220.908927 369.338699 
L 221.015455 369.171593 
L 221.414932 368.085734 
L 221.849918 366.205438 
L 222.355923 362.912066 
L 223.066105 356.57546 
L 224.832682 340.421979 
L 225.418582 334.543441 
L 225.649391 329.628031 
L 225.791427 320.959555 
L 225.889077 296.709835 
L 225.951218 204.390148 
L 226.031114 70.105731 
L 226.093255 76.089303 
L 226.279677 123.941101 
L 227.043123 369.338456 
L 227.158527 369.157163 
L 227.558005 368.062007 
L 227.992991 366.168623 
L 228.498995 362.858704 
L 229.209177 356.507864 
L 230.958 340.513095 
L 231.552777 334.571246 
L 231.783586 329.695005 
L 231.925623 321.174127 
L 232.023273 297.751984 
L 232.085414 210.724552 
L 232.165309 70.099119 
L 232.22745 75.783326 
L 232.413873 123.321847 
L 233.186195 369.337859 
L 233.292723 369.161264 
L 233.6922 368.068741 
L 234.127186 366.179066 
L 234.633191 362.873829 
L 235.343373 356.527003 
L 237.092195 340.529584 
L 237.686973 334.598991 
L 237.917782 329.760914 
L 238.059818 321.382973 
L 238.157468 298.744714 
L 238.219609 216.746093 
L 238.299505 70.112985 
L 238.370523 76.890885 
L 238.565823 128.345497 
L 239.320391 369.338436 
L 239.426918 369.165346 
L 239.826395 368.07545 
L 240.261382 366.189474 
L 240.767386 362.888913 
L 241.477568 356.546105 
L 243.235268 340.471417 
L 243.821168 334.626435 
L 244.051977 329.825741 
L 244.194014 321.587333 
L 244.291664 299.691964 
L 244.353805 222.362703 
L 244.4337 70.147165 
L 244.504718 76.572384 
L 244.700018 127.724387 
L 245.454586 369.338707 
L 245.561114 369.16939 
L 245.960591 368.082106 
L 246.395577 366.199804 
L 246.901582 362.903893 
L 247.611764 356.565093 
L 249.369464 340.487763 
L 249.955364 334.653569 
L 250.186173 329.889581 
L 250.328209 321.78604 
L 250.425859 300.596656 
L 250.488 227.65935 
L 250.576773 70.116715 
L 250.647791 77.735047 
L 250.860845 135.674856 
L 251.588782 369.33863 
L 251.686432 369.191625 
L 252.085909 368.118856 
L 252.520895 366.256928 
L 253.018023 363.054595 
L 253.71045 356.929758 
L 255.5658 339.977453 
L 256.107314 334.428641 
L 256.329245 329.658366 
L 256.471282 321.057467 
L 256.568932 297.191107 
L 256.631073 207.313563 
L 256.710968 70.100375 
L 256.773109 75.949528 
L 256.959532 123.659628 
L 257.722977 369.338214 
L 257.838382 369.159025 
L 258.237859 368.065064 
L 258.672845 366.173362 
L 259.17885 362.865567 
L 259.889032 356.516547 
L 261.637855 340.520576 
L 262.232632 334.58388 
L 262.463441 329.72511 
L 262.605477 321.269677 
L 262.703127 298.208721 
L 262.765268 213.50183 
L 262.845164 70.102971 
L 262.907305 75.646314 
L 263.093727 123.040933 
L 263.86605 369.338151 
L 263.972577 369.163115 
L 264.372055 368.071782 
L 264.807041 366.183783 
L 265.313045 362.880664 
L 266.023227 356.535657 
L 267.780927 340.46241 
L 268.366827 334.611476 
L 268.597636 329.790458 
L 268.739673 321.476248 
L 268.837323 299.179296 
L 268.899464 219.332774 
L 268.979359 70.125898 
L 269.050377 76.746046 
L 269.245677 128.064365 
L 270.000245 369.338608 
L 270.106773 369.167169 
L 270.50625 368.078449 
L 270.941236 366.194129 
L 271.447241 362.895661 
L 272.157423 356.554658 
L 273.915123 340.478787 
L 274.501023 334.638679 
L 274.731832 329.85458 
L 274.873868 321.677311 
L 274.971518 300.102979 
L 275.033659 224.773879 
L 275.122432 70.133094 
L 275.184573 76.431602 
L 275.379873 127.446574 
L 276.134441 369.338707 
L 276.240968 369.171196 
L 276.640445 368.085081 
L 277.075432 366.204424 
L 277.581436 362.910594 
L 278.291618 356.573593 
L 280.058195 340.420368 
L 280.644095 334.540717 
L 280.874905 329.621439 
L 281.016941 320.938135 
L 281.114591 296.603804 
L 281.176732 203.738974 
L 281.256627 70.10737 
L 281.318768 76.12015 
L 281.505191 124.002955 
L 282.268636 369.338494 
L 282.384041 369.156754 
L 282.783518 368.061336 
L 283.218505 366.167583 
L 283.724509 362.857199 
L 284.434691 356.50596 
L 286.183514 340.511455 
L 286.778291 334.568465 
L 287.0091 329.688333 
L 287.151136 321.152908 
L 287.248786 297.650381 
L 287.310927 210.105009 
L 287.390823 70.098843 
L 287.452964 75.813654 
L 287.639386 123.383728 
L 288.402832 369.33788 
L 288.518236 369.160857 
L 288.917714 368.068072 
L 289.3527 366.178027 
L 289.858705 362.872324 
L 290.568886 356.525098 
L 292.317709 340.527941 
L 292.912486 334.596235 
L 293.143295 329.754387 
L 293.285332 321.36234 
L 293.382982 298.64812 
L 293.445123 216.160138 
L 293.525018 70.110739 
L 293.596036 76.923334 
L 293.791336 128.408253 
L 294.545905 369.338387 
L 294.652432 369.164937 
L 295.051909 368.074777 
L 295.486895 366.18843 
L 295.9929 362.887399 
L 296.703082 356.544188 
L 298.460782 340.469765 
L 299.046682 334.623693 
L 299.277491 329.819279 
L 299.419527 321.56701 
L 299.517177 299.598831 
L 299.579318 221.816718 
L 299.659214 70.142883 
L 299.730232 76.603961 
L 299.925532 127.786417 
L 300.6801 369.338697 
L 300.786627 369.168985 
L 301.186105 368.081438 
L 301.621091 366.198768 
L 302.127095 362.902389 
L 302.837277 356.563187 
L 304.594977 340.486123 
L 305.180877 334.650851 
L 305.411686 329.883198 
L 305.553723 321.766234 
L 305.651373 300.507034 
L 305.713514 227.135615 
L 305.802286 70.119313 
L 305.873305 77.769199 
L 306.086359 135.738883 
L 306.814295 369.33865 
L 306.911945 369.191223 
L 307.311423 368.11819 
L 307.746409 366.255893 
L 308.243536 363.053095 
L 308.935964 356.927843 
L 310.791314 339.975766 
L 311.332827 334.425774 
L 311.554759 329.651586 
L 311.696795 321.035791 
L 311.794445 297.085997 
L 311.856586 206.676382 
L 311.936482 70.101285 
L 311.998623 75.980219 
L 312.185045 123.72162 
L 312.948491 369.338276 
L 313.063895 369.158614 
L 313.463373 368.064388 
L 313.898359 366.172315 
L 314.404364 362.864051 
L 315.114545 356.514628 
L 316.863368 340.518924 
L 317.458145 334.581105 
L 317.688955 329.718526 
L 317.830991 321.248809 
L 317.928641 298.109082 
L 317.990782 212.895204 
L 318.070677 70.101784 
L 318.132818 75.676462 
L 318.319241 123.102965 
L 319.091564 369.338089 
L 319.198091 369.162705 
L 319.597568 368.071109 
L 320.032555 366.182739 
L 320.538559 362.879151 
L 321.248741 356.533741 
L 322.997564 340.535387 
L 323.592341 334.608726 
L 323.82315 329.783962 
L 323.965186 321.455759 
L 324.062836 299.084245 
L 324.124977 218.768942 
L 324.204873 70.122563 
L 324.275891 76.777652 
L 324.471191 128.125828 
L 325.225759 369.338579 
L 325.332286 369.166774 
L 325.731764 368.0778 
L 326.16675 366.193121 
L 326.672755 362.894199 
L 327.382936 356.552804 
L 329.140636 340.47719 
L 329.318182 338.942639 
L 329.327059 339.407705 
L 329.602255 347.344925 
L 329.841941 349.644416 
L 329.939591 349.757974 
L 329.983977 349.719134 
L 330.143768 349.291801 
L 330.614264 347.139211 
L 331.395464 343.89065 
L 331.839327 342.832649 
L 332.150032 342.547851 
L 332.371964 342.606914 
L 332.647159 342.953328 
L 333.58815 344.34255 
L 333.898855 344.341557 
L 334.351595 344.073447 
L 335.168305 343.60622 
L 335.683186 343.59398 
L 337.698327 343.820873 
L 339.296236 343.762049 
L 342.580827 343.776298 
L 364.401164 343.778742 
L 435.845455 343.778742 
L 435.845455 343.778742 
" clip-path="url(#p130bbeea3f)" style="fill: none; stroke: #ff0000; stroke-width: 1.5; stroke-linecap: square"/>
   </g>
   <g id="patch_3">
    <path d="M 63 384.48 
L 63 51.84 
" style="fill: none; stroke: #000000; stroke-width: 0.8; stroke-linejoin: miter; stroke-linecap: square"/>
   </g>
   <g id="patch_4">
    <path d="M 453.6 384.48 
L 453.6 51.84 
" style="fill: none; stroke: #000000; stroke-width: 0.8; stroke-linejoin: miter; stroke-linecap: square"/>
   </g>
   <g id="patch_5">
    <path d="M 63 384.48 
L 453.6 384.48 
" style="fill: none; stroke: #000000; stroke-width: 0.8; stroke-linejoin: miter; stroke-linecap: square"/>
   </g>
   <g id="patch_6">
    <path d="M 63 51.84 
L 453.6 51.84 
" style="fill: none; stroke: #000000; stroke-width: 0.8; stroke-linejoin: miter; stroke-linecap: square"/>
   </g>
   <g id="legend_1">
    <g id="patch_7">
     <path d="M 383.460938 89.19625 
L 446.6 89.19625 
Q 448.6 89.19625 448.6 87.19625 
L 448.6 58.84 
Q 448.6 56.84 446.6 56.84 
L 383.460938 56.84 
Q 381.460938 56.84 381.460938 58.84 
L 381.460938 87.19625 
Q 381.460938 89.19625 383.460938 89.19625 
z
" style="fill: #ffffff; opacity: 0.8; stroke: #cccccc; stroke-linejoin: miter"/>
    </g>
    <g id="line2d_15">
     <path d="M 385.460938 64.938437 
L 395.460938 64.938437 
L 405.460938 64.938437 
" style="fill: none; stroke: #1f77b4; stroke-width: 1.5; stroke-linecap: square"/>
    </g>
    <g id="text_15">
     <!-- target -->
     <g transform="translate(413.460938 68.438437)scale(0.1 -0.1)">
      <defs>
       <path id="DejaVuSans-72" d="M 2631 2963 
Q 2534 3019 2420 3045 
Q 2306 3072 2169 3072 
Q 1681 3072 1420 2755 
Q 1159 2438 1159 1844 
L 1159 0 
L 581 0 
L 581 3500 
L 1159 3500 
L 1159 2956 
Q 1341 3275 1631 3429 
Q 1922 3584 2338 3584 
Q 2397 3584 2469 3576 
Q 2541 3569 2628 3553 
L 2631 2963 
z
" transform="scale(0.015625)"/>
      </defs>
      <use xlink:href="#DejaVuSans-74"/>
      <use xlink:href="#DejaVuSans-61" x="39.208984"/>
      <use xlink:href="#DejaVuSans-72" x="100.488281"/>
      <use xlink:href="#DejaVuSans-67" x="139.851562"/>
      <use xlink:href="#DejaVuSans-65" x="203.328125"/>
      <use xlink:href="#DejaVuSans-74" x="264.851562"/>
     </g>
    </g>
    <g id="line2d_16">
     <path d="M 385.460938 79.616562 
L 395.460938 79.616562 
L 405.460938 79.616562 
" style="fill: none; stroke: #ff0000; stroke-width: 1.5; stroke-linecap: square"/>
    </g>
    <g id="text_16">
     <!-- model -->
     <g transform="translate(413.460938 83.116562)scale(0.1 -0.1)">
      <defs>
       <path id="DejaVuSans-64" d="M 2906 2969 
L 2906 4863 
L 3481 4863 
L 3481 0 
L 2906 0 
L 2906 525 
Q 2725 213 2448 61 
Q 2172 -91 1784 -91 
Q 1150 -91 751 415 
Q 353 922 353 1747 
Q 353 2572 751 3078 
Q 1150 3584 1784 3584 
Q 2172 3584 2448 3432 
Q 2725 3281 2906 2969 
z
M 947 1747 
Q 947 1113 1208 752 
Q 1469 391 1925 391 
Q 2381 391 2643 752 
Q 2906 1113 2906 1747 
Q 2906 2381 2643 2742 
Q 2381 3103 1925 3103 
Q 1469 3103 1208 2742 
Q 947 2381 947 1747 
z
" transform="scale(0.015625)"/>
      </defs>
      <use xlink:href="#DejaVuSans-6d"/>
      <use xlink:href="#DejaVuSans-6f" x="97.412109"/>
      <use xlink:href="#DejaVuSans-64" x="158.59375"/>
      <use xlink:href="#DejaVuSans-65" x="222.070312"/>
      <use xlink:href="#DejaVuSans-6c" x="283.59375"/>
     </g>
    </g>
   </g>
  </g>
 </g>
 <defs>
  <clipPath id="p130bbeea3f">
   <rect x="63" y="51.84" width="390.6" height="332.64"/>
  </clipPath>
 </defs>
</svg>
