<?xml version="1.0" encoding="utf-8" standalone="no"?>
<!DOCTYPE svg PUBLIC "-//W3C//DTD SVG 1.1//EN"
  "http://www.w3.org/Graphics/SVG/1.1/DTD/svg11.dtd">
<svg xmlns:xlink="http://www.w3.org/1999/xlink" width="504pt" height="432pt" viewBox="0 0 504 432" xmlns="http://www.w3.org/2000/svg" version="1.1">
 <metadata>
  <rdf:RDF xmlns:dc="http://purl.org/dc/elements/1.1/" xmlns:cc="http://creativecommons.org/ns#" xmlns:rdf="http://www.w3.org/1999/02/22-rdf-syntax-ns#">
   <cc:Work>
    <dc:type rdf:resource="http://purl.org/dc/dcmitype/StillImage"/>
    <dc:date>2022-01-31T18:46:29.076453</dc:date>
    <dc:format>image/svg+xml</dc:format>
    <dc:creator>
     <cc:Agent>
      <dc:title>Matplotlib v3.5.1, https://matplotlib.org/</dc:title>
     </cc:Agent>
    </dc:creator>
   </cc:Work>
  </rdf:RDF>
 </metadata>
 <defs>
  <style type="text/css">*{stroke-linejoin: round; stroke-linecap: butt}</style>
 </defs>
 <g id="figure_1">
  <g id="patch_1">
   <path d="M 0 432 
L 504 432 
L 504 0 
L 0 0 
z
" style="fill: #ffffff"/>
  </g>
  <g id="axes_1">
   <g id="patch_2">
    <path d="M 63 384.48 
L 453.6 384.48 
L 453.6 51.84 
L 63 51.84 
z
" style="fill: #ffffff"/>
   </g>
   <g id="matplotlib.axis_1">
    <g id="xtick_1">
     <g id="line2d_1">
      <defs>
       <path id="m23d598c68d" d="M 0 0 
L 0 3.5 
" style="stroke: #000000; stroke-width: 0.8"/>
      </defs>
      <g>
       <use xlink:href="#m23d598c68d" x="80.754545" y="384.48" style="stroke: #000000; stroke-width: 0.8"/>
      </g>
     </g>
     <g id="text_1">
      <!-- 0 -->
      <g transform="translate(77.573295 399.078438)scale(0.1 -0.1)">
       <defs>
        <path id="DejaVuSans-30" d="M 2034 4250 
Q 1547 4250 1301 3770 
Q 1056 3291 1056 2328 
Q 1056 1369 1301 889 
Q 1547 409 2034 409 
Q 2525 409 2770 889 
Q 3016 1369 3016 2328 
Q 3016 3291 2770 3770 
Q 2525 4250 2034 4250 
z
M 2034 4750 
Q 2819 4750 3233 4129 
Q 3647 3509 3647 2328 
Q 3647 1150 3233 529 
Q 2819 -91 2034 -91 
Q 1250 -91 836 529 
Q 422 1150 422 2328 
Q 422 3509 836 4129 
Q 1250 4750 2034 4750 
z
" transform="scale(0.015625)"/>
       </defs>
       <use xlink:href="#DejaVuSans-30"/>
      </g>
     </g>
    </g>
    <g id="xtick_2">
     <g id="line2d_2">
      <g>
       <use xlink:href="#m23d598c68d" x="151.772727" y="384.48" style="stroke: #000000; stroke-width: 0.8"/>
      </g>
     </g>
     <g id="text_2">
      <!-- 200 -->
      <g transform="translate(142.228977 399.078438)scale(0.1 -0.1)">
       <defs>
        <path id="DejaVuSans-32" d="M 1228 531 
L 3431 531 
L 3431 0 
L 469 0 
L 469 531 
Q 828 903 1448 1529 
Q 2069 2156 2228 2338 
Q 2531 2678 2651 2914 
Q 2772 3150 2772 3378 
Q 2772 3750 2511 3984 
Q 2250 4219 1831 4219 
Q 1534 4219 1204 4116 
Q 875 4013 500 3803 
L 500 4441 
Q 881 4594 1212 4672 
Q 1544 4750 1819 4750 
Q 2544 4750 2975 4387 
Q 3406 4025 3406 3419 
Q 3406 3131 3298 2873 
Q 3191 2616 2906 2266 
Q 2828 2175 2409 1742 
Q 1991 1309 1228 531 
z
" transform="scale(0.015625)"/>
       </defs>
       <use xlink:href="#DejaVuSans-32"/>
       <use xlink:href="#DejaVuSans-30" x="63.623047"/>
       <use xlink:href="#DejaVuSans-30" x="127.246094"/>
      </g>
     </g>
    </g>
    <g id="xtick_3">
     <g id="line2d_3">
      <g>
       <use xlink:href="#m23d598c68d" x="222.790909" y="384.48" style="stroke: #000000; stroke-width: 0.8"/>
      </g>
     </g>
     <g id="text_3">
      <!-- 400 -->
      <g transform="translate(213.247159 399.078438)scale(0.1 -0.1)">
       <defs>
        <path id="DejaVuSans-34" d="M 2419 4116 
L 825 1625 
L 2419 1625 
L 2419 4116 
z
M 2253 4666 
L 3047 4666 
L 3047 1625 
L 3713 1625 
L 3713 1100 
L 3047 1100 
L 3047 0 
L 2419 0 
L 2419 1100 
L 313 1100 
L 313 1709 
L 2253 4666 
z
" transform="scale(0.015625)"/>
       </defs>
       <use xlink:href="#DejaVuSans-34"/>
       <use xlink:href="#DejaVuSans-30" x="63.623047"/>
       <use xlink:href="#DejaVuSans-30" x="127.246094"/>
      </g>
     </g>
    </g>
    <g id="xtick_4">
     <g id="line2d_4">
      <g>
       <use xlink:href="#m23d598c68d" x="293.809091" y="384.48" style="stroke: #000000; stroke-width: 0.8"/>
      </g>
     </g>
     <g id="text_4">
      <!-- 600 -->
      <g transform="translate(284.265341 399.078438)scale(0.1 -0.1)">
       <defs>
        <path id="DejaVuSans-36" d="M 2113 2584 
Q 1688 2584 1439 2293 
Q 1191 2003 1191 1497 
Q 1191 994 1439 701 
Q 1688 409 2113 409 
Q 2538 409 2786 701 
Q 3034 994 3034 1497 
Q 3034 2003 2786 2293 
Q 2538 2584 2113 2584 
z
M 3366 4563 
L 3366 3988 
Q 3128 4100 2886 4159 
Q 2644 4219 2406 4219 
Q 1781 4219 1451 3797 
Q 1122 3375 1075 2522 
Q 1259 2794 1537 2939 
Q 1816 3084 2150 3084 
Q 2853 3084 3261 2657 
Q 3669 2231 3669 1497 
Q 3669 778 3244 343 
Q 2819 -91 2113 -91 
Q 1303 -91 875 529 
Q 447 1150 447 2328 
Q 447 3434 972 4092 
Q 1497 4750 2381 4750 
Q 2619 4750 2861 4703 
Q 3103 4656 3366 4563 
z
" transform="scale(0.015625)"/>
       </defs>
       <use xlink:href="#DejaVuSans-36"/>
       <use xlink:href="#DejaVuSans-30" x="63.623047"/>
       <use xlink:href="#DejaVuSans-30" x="127.246094"/>
      </g>
     </g>
    </g>
    <g id="xtick_5">
     <g id="line2d_5">
      <g>
       <use xlink:href="#m23d598c68d" x="364.827273" y="384.48" style="stroke: #000000; stroke-width: 0.8"/>
      </g>
     </g>
     <g id="text_5">
      <!-- 800 -->
      <g transform="translate(355.283523 399.078438)scale(0.1 -0.1)">
       <defs>
        <path id="DejaVuSans-38" d="M 2034 2216 
Q 1584 2216 1326 1975 
Q 1069 1734 1069 1313 
Q 1069 891 1326 650 
Q 1584 409 2034 409 
Q 2484 409 2743 651 
Q 3003 894 3003 1313 
Q 3003 1734 2745 1975 
Q 2488 2216 2034 2216 
z
M 1403 2484 
Q 997 2584 770 2862 
Q 544 3141 544 3541 
Q 544 4100 942 4425 
Q 1341 4750 2034 4750 
Q 2731 4750 3128 4425 
Q 3525 4100 3525 3541 
Q 3525 3141 3298 2862 
Q 3072 2584 2669 2484 
Q 3125 2378 3379 2068 
Q 3634 1759 3634 1313 
Q 3634 634 3220 271 
Q 2806 -91 2034 -91 
Q 1263 -91 848 271 
Q 434 634 434 1313 
Q 434 1759 690 2068 
Q 947 2378 1403 2484 
z
M 1172 3481 
Q 1172 3119 1398 2916 
Q 1625 2713 2034 2713 
Q 2441 2713 2670 2916 
Q 2900 3119 2900 3481 
Q 2900 3844 2670 4047 
Q 2441 4250 2034 4250 
Q 1625 4250 1398 4047 
Q 1172 3844 1172 3481 
z
" transform="scale(0.015625)"/>
       </defs>
       <use xlink:href="#DejaVuSans-38"/>
       <use xlink:href="#DejaVuSans-30" x="63.623047"/>
       <use xlink:href="#DejaVuSans-30" x="127.246094"/>
      </g>
     </g>
    </g>
    <g id="text_6">
     <!-- time [ms] -->
     <g transform="translate(234.038281 412.756563)scale(0.1 -0.1)">
      <defs>
       <path id="DejaVuSans-74" d="M 1172 4494 
L 1172 3500 
L 2356 3500 
L 2356 3053 
L 1172 3053 
L 1172 1153 
Q 1172 725 1289 603 
Q 1406 481 1766 481 
L 2356 481 
L 2356 0 
L 1766 0 
Q 1100 0 847 248 
Q 594 497 594 1153 
L 594 3053 
L 172 3053 
L 172 3500 
L 594 3500 
L 594 4494 
L 1172 4494 
z
" transform="scale(0.015625)"/>
       <path id="DejaVuSans-69" d="M 603 3500 
L 1178 3500 
L 1178 0 
L 603 0 
L 603 3500 
z
M 603 4863 
L 1178 4863 
L 1178 4134 
L 603 4134 
L 603 4863 
z
" transform="scale(0.015625)"/>
       <path id="DejaVuSans-6d" d="M 3328 2828 
Q 3544 3216 3844 3400 
Q 4144 3584 4550 3584 
Q 5097 3584 5394 3201 
Q 5691 2819 5691 2113 
L 5691 0 
L 5113 0 
L 5113 2094 
Q 5113 2597 4934 2840 
Q 4756 3084 4391 3084 
Q 3944 3084 3684 2787 
Q 3425 2491 3425 1978 
L 3425 0 
L 2847 0 
L 2847 2094 
Q 2847 2600 2669 2842 
Q 2491 3084 2119 3084 
Q 1678 3084 1418 2786 
Q 1159 2488 1159 1978 
L 1159 0 
L 581 0 
L 581 3500 
L 1159 3500 
L 1159 2956 
Q 1356 3278 1631 3431 
Q 1906 3584 2284 3584 
Q 2666 3584 2933 3390 
Q 3200 3197 3328 2828 
z
" transform="scale(0.015625)"/>
       <path id="DejaVuSans-65" d="M 3597 1894 
L 3597 1613 
L 953 1613 
Q 991 1019 1311 708 
Q 1631 397 2203 397 
Q 2534 397 2845 478 
Q 3156 559 3463 722 
L 3463 178 
Q 3153 47 2828 -22 
Q 2503 -91 2169 -91 
Q 1331 -91 842 396 
Q 353 884 353 1716 
Q 353 2575 817 3079 
Q 1281 3584 2069 3584 
Q 2775 3584 3186 3129 
Q 3597 2675 3597 1894 
z
M 3022 2063 
Q 3016 2534 2758 2815 
Q 2500 3097 2075 3097 
Q 1594 3097 1305 2825 
Q 1016 2553 972 2059 
L 3022 2063 
z
" transform="scale(0.015625)"/>
       <path id="DejaVuSans-20" transform="scale(0.015625)"/>
       <path id="DejaVuSans-5b" d="M 550 4863 
L 1875 4863 
L 1875 4416 
L 1125 4416 
L 1125 -397 
L 1875 -397 
L 1875 -844 
L 550 -844 
L 550 4863 
z
" transform="scale(0.015625)"/>
       <path id="DejaVuSans-73" d="M 2834 3397 
L 2834 2853 
Q 2591 2978 2328 3040 
Q 2066 3103 1784 3103 
Q 1356 3103 1142 2972 
Q 928 2841 928 2578 
Q 928 2378 1081 2264 
Q 1234 2150 1697 2047 
L 1894 2003 
Q 2506 1872 2764 1633 
Q 3022 1394 3022 966 
Q 3022 478 2636 193 
Q 2250 -91 1575 -91 
Q 1294 -91 989 -36 
Q 684 19 347 128 
L 347 722 
Q 666 556 975 473 
Q 1284 391 1588 391 
Q 1994 391 2212 530 
Q 2431 669 2431 922 
Q 2431 1156 2273 1281 
Q 2116 1406 1581 1522 
L 1381 1569 
Q 847 1681 609 1914 
Q 372 2147 372 2553 
Q 372 3047 722 3315 
Q 1072 3584 1716 3584 
Q 2034 3584 2315 3537 
Q 2597 3491 2834 3397 
z
" transform="scale(0.015625)"/>
       <path id="DejaVuSans-5d" d="M 1947 4863 
L 1947 -844 
L 622 -844 
L 622 -397 
L 1369 -397 
L 1369 4416 
L 622 4416 
L 622 4863 
L 1947 4863 
z
" transform="scale(0.015625)"/>
      </defs>
      <use xlink:href="#DejaVuSans-74"/>
      <use xlink:href="#DejaVuSans-69" x="39.208984"/>
      <use xlink:href="#DejaVuSans-6d" x="66.992188"/>
      <use xlink:href="#DejaVuSans-65" x="164.404297"/>
      <use xlink:href="#DejaVuSans-20" x="225.927734"/>
      <use xlink:href="#DejaVuSans-5b" x="257.714844"/>
      <use xlink:href="#DejaVuSans-6d" x="296.728516"/>
      <use xlink:href="#DejaVuSans-73" x="394.140625"/>
      <use xlink:href="#DejaVuSans-5d" x="446.240234"/>
     </g>
    </g>
   </g>
   <g id="matplotlib.axis_2">
    <g id="ytick_1">
     <g id="line2d_6">
      <defs>
       <path id="m10684a5ece" d="M 0 0 
L -3.5 0 
" style="stroke: #000000; stroke-width: 0.8"/>
      </defs>
      <g>
       <use xlink:href="#m10684a5ece" x="63" y="379.631785" style="stroke: #000000; stroke-width: 0.8"/>
      </g>
     </g>
     <g id="text_7">
      <!-- −80 -->
      <g transform="translate(34.895313 383.431003)scale(0.1 -0.1)">
       <defs>
        <path id="DejaVuSans-2212" d="M 678 2272 
L 4684 2272 
L 4684 1741 
L 678 1741 
L 678 2272 
z
" transform="scale(0.015625)"/>
       </defs>
       <use xlink:href="#DejaVuSans-2212"/>
       <use xlink:href="#DejaVuSans-38" x="83.789062"/>
       <use xlink:href="#DejaVuSans-30" x="147.412109"/>
      </g>
     </g>
    </g>
    <g id="ytick_2">
     <g id="line2d_7">
      <g>
       <use xlink:href="#m10684a5ece" x="63" y="328.024773" style="stroke: #000000; stroke-width: 0.8"/>
      </g>
     </g>
     <g id="text_8">
      <!-- −60 -->
      <g transform="translate(34.895313 331.823992)scale(0.1 -0.1)">
       <use xlink:href="#DejaVuSans-2212"/>
       <use xlink:href="#DejaVuSans-36" x="83.789062"/>
       <use xlink:href="#DejaVuSans-30" x="147.412109"/>
      </g>
     </g>
    </g>
    <g id="ytick_3">
     <g id="line2d_8">
      <g>
       <use xlink:href="#m10684a5ece" x="63" y="276.417762" style="stroke: #000000; stroke-width: 0.8"/>
      </g>
     </g>
     <g id="text_9">
      <!-- −40 -->
      <g transform="translate(34.895313 280.216981)scale(0.1 -0.1)">
       <use xlink:href="#DejaVuSans-2212"/>
       <use xlink:href="#DejaVuSans-34" x="83.789062"/>
       <use xlink:href="#DejaVuSans-30" x="147.412109"/>
      </g>
     </g>
    </g>
    <g id="ytick_4">
     <g id="line2d_9">
      <g>
       <use xlink:href="#m10684a5ece" x="63" y="224.81075" style="stroke: #000000; stroke-width: 0.8"/>
      </g>
     </g>
     <g id="text_10">
      <!-- −20 -->
      <g transform="translate(34.895313 228.609969)scale(0.1 -0.1)">
       <use xlink:href="#DejaVuSans-2212"/>
       <use xlink:href="#DejaVuSans-32" x="83.789062"/>
       <use xlink:href="#DejaVuSans-30" x="147.412109"/>
      </g>
     </g>
    </g>
    <g id="ytick_5">
     <g id="line2d_10">
      <g>
       <use xlink:href="#m10684a5ece" x="63" y="173.203739" style="stroke: #000000; stroke-width: 0.8"/>
      </g>
     </g>
     <g id="text_11">
      <!-- 0 -->
      <g transform="translate(49.6375 177.002958)scale(0.1 -0.1)">
       <use xlink:href="#DejaVuSans-30"/>
      </g>
     </g>
    </g>
    <g id="ytick_6">
     <g id="line2d_11">
      <g>
       <use xlink:href="#m10684a5ece" x="63" y="121.596727" style="stroke: #000000; stroke-width: 0.8"/>
      </g>
     </g>
     <g id="text_12">
      <!-- 20 -->
      <g transform="translate(43.275 125.395946)scale(0.1 -0.1)">
       <use xlink:href="#DejaVuSans-32"/>
       <use xlink:href="#DejaVuSans-30" x="63.623047"/>
      </g>
     </g>
    </g>
    <g id="ytick_7">
     <g id="line2d_12">
      <g>
       <use xlink:href="#m10684a5ece" x="63" y="69.989716" style="stroke: #000000; stroke-width: 0.8"/>
      </g>
     </g>
     <g id="text_13">
      <!-- 40 -->
      <g transform="translate(43.275 73.788935)scale(0.1 -0.1)">
       <use xlink:href="#DejaVuSans-34"/>
       <use xlink:href="#DejaVuSans-30" x="63.623047"/>
      </g>
     </g>
    </g>
    <g id="text_14">
     <!-- voltage [mV] -->
     <g transform="translate(28.815625 250.624062)rotate(-90)scale(0.1 -0.1)">
      <defs>
       <path id="DejaVuSans-76" d="M 191 3500 
L 800 3500 
L 1894 563 
L 2988 3500 
L 3597 3500 
L 2284 0 
L 1503 0 
L 191 3500 
z
" transform="scale(0.015625)"/>
       <path id="DejaVuSans-6f" d="M 1959 3097 
Q 1497 3097 1228 2736 
Q 959 2375 959 1747 
Q 959 1119 1226 758 
Q 1494 397 1959 397 
Q 2419 397 2687 759 
Q 2956 1122 2956 1747 
Q 2956 2369 2687 2733 
Q 2419 3097 1959 3097 
z
M 1959 3584 
Q 2709 3584 3137 3096 
Q 3566 2609 3566 1747 
Q 3566 888 3137 398 
Q 2709 -91 1959 -91 
Q 1206 -91 779 398 
Q 353 888 353 1747 
Q 353 2609 779 3096 
Q 1206 3584 1959 3584 
z
" transform="scale(0.015625)"/>
       <path id="DejaVuSans-6c" d="M 603 4863 
L 1178 4863 
L 1178 0 
L 603 0 
L 603 4863 
z
" transform="scale(0.015625)"/>
       <path id="DejaVuSans-61" d="M 2194 1759 
Q 1497 1759 1228 1600 
Q 959 1441 959 1056 
Q 959 750 1161 570 
Q 1363 391 1709 391 
Q 2188 391 2477 730 
Q 2766 1069 2766 1631 
L 2766 1759 
L 2194 1759 
z
M 3341 1997 
L 3341 0 
L 2766 0 
L 2766 531 
Q 2569 213 2275 61 
Q 1981 -91 1556 -91 
Q 1019 -91 701 211 
Q 384 513 384 1019 
Q 384 1609 779 1909 
Q 1175 2209 1959 2209 
L 2766 2209 
L 2766 2266 
Q 2766 2663 2505 2880 
Q 2244 3097 1772 3097 
Q 1472 3097 1187 3025 
Q 903 2953 641 2809 
L 641 3341 
Q 956 3463 1253 3523 
Q 1550 3584 1831 3584 
Q 2591 3584 2966 3190 
Q 3341 2797 3341 1997 
z
" transform="scale(0.015625)"/>
       <path id="DejaVuSans-67" d="M 2906 1791 
Q 2906 2416 2648 2759 
Q 2391 3103 1925 3103 
Q 1463 3103 1205 2759 
Q 947 2416 947 1791 
Q 947 1169 1205 825 
Q 1463 481 1925 481 
Q 2391 481 2648 825 
Q 2906 1169 2906 1791 
z
M 3481 434 
Q 3481 -459 3084 -895 
Q 2688 -1331 1869 -1331 
Q 1566 -1331 1297 -1286 
Q 1028 -1241 775 -1147 
L 775 -588 
Q 1028 -725 1275 -790 
Q 1522 -856 1778 -856 
Q 2344 -856 2625 -561 
Q 2906 -266 2906 331 
L 2906 616 
Q 2728 306 2450 153 
Q 2172 0 1784 0 
Q 1141 0 747 490 
Q 353 981 353 1791 
Q 353 2603 747 3093 
Q 1141 3584 1784 3584 
Q 2172 3584 2450 3431 
Q 2728 3278 2906 2969 
L 2906 3500 
L 3481 3500 
L 3481 434 
z
" transform="scale(0.015625)"/>
       <path id="DejaVuSans-56" d="M 1831 0 
L 50 4666 
L 709 4666 
L 2188 738 
L 3669 4666 
L 4325 4666 
L 2547 0 
L 1831 0 
z
" transform="scale(0.015625)"/>
      </defs>
      <use xlink:href="#DejaVuSans-76"/>
      <use xlink:href="#DejaVuSans-6f" x="59.179688"/>
      <use xlink:href="#DejaVuSans-6c" x="120.361328"/>
      <use xlink:href="#DejaVuSans-74" x="148.144531"/>
      <use xlink:href="#DejaVuSans-61" x="187.353516"/>
      <use xlink:href="#DejaVuSans-67" x="248.632812"/>
      <use xlink:href="#DejaVuSans-65" x="312.109375"/>
      <use xlink:href="#DejaVuSans-20" x="373.632812"/>
      <use xlink:href="#DejaVuSans-5b" x="405.419922"/>
      <use xlink:href="#DejaVuSans-6d" x="444.433594"/>
      <use xlink:href="#DejaVuSans-56" x="541.845703"/>
      <use xlink:href="#DejaVuSans-5d" x="610.253906"/>
     </g>
    </g>
   </g>
   <g id="line2d_13">
    <path d="M 80.754545 340.926526 
L 81.970732 340.79209 
L 83.79945 340.849632 
L 86.009891 340.86692 
L 90.102314 340.858921 
L 151.772727 340.858663 
L 152.314241 297.091273 
L 152.420768 249.281763 
L 152.562805 70.826266 
L 152.678209 95.615694 
L 153.565936 366.964328 
L 153.610323 366.8655 
L 153.8145 365.510042 
L 154.293873 360.837027 
L 154.959668 351.870567 
L 157.42755 313.639577 
L 157.613973 302.701213 
L 157.738255 281.108581 
L 157.835905 219.614182 
L 157.969064 94.773725 
L 158.031205 107.70283 
L 158.883423 366.547085 
L 158.945564 366.366718 
L 159.203005 364.421134 
L 159.717886 358.84448 
L 160.534595 347.119883 
L 161.8218 329.297402 
L 162.514227 319.106824 
L 162.771668 311.713861 
L 162.940336 299.926046 
L 163.064618 272.434475 
L 163.162268 189.468024 
L 163.268795 95.678396 
L 163.322059 105.030103 
L 163.863573 296.817755 
L 164.147645 366.373427 
L 164.183155 366.515863 
L 164.245295 366.33756 
L 164.493859 364.46629 
L 165.008741 358.908989 
L 165.834327 347.063374 
L 167.112655 329.370684 
L 167.813959 319.071989 
L 168.0714 311.669479 
L 168.240068 299.842958 
L 168.36435 272.192438 
L 168.462 188.735075 
L 168.568527 95.754 
L 168.621791 105.2484 
L 169.172182 300.702473 
L 169.4385 366.28905 
L 169.482886 366.513798 
L 169.545027 366.331626 
L 169.802468 364.378042 
L 170.31735 358.783842 
L 171.151814 346.779277 
L 172.430141 329.132002 
L 173.113691 319.053926 
L 173.371132 311.633612 
L 173.5398 299.748776 
L 173.664082 271.860089 
L 173.761732 187.603308 
L 173.868259 95.770515 
L 173.921523 105.480374 
L 174.480791 304.704597 
L 174.729355 366.181449 
L 174.782618 366.513798 
L 174.844759 366.327497 
L 175.1022 364.370817 
L 175.617082 358.773263 
L 176.451545 346.766633 
L 177.729873 329.121422 
L 178.413423 319.037412 
L 178.670864 311.598261 
L 178.839532 299.653303 
L 178.963814 271.518966 
L 179.061464 186.438409 
L 179.167991 95.787545 
L 179.221255 105.714928 
L 179.7894 308.808128 
L 180.029086 366.193577 
L 180.08235 366.514056 
L 180.144491 366.32311 
L 180.401932 364.363592 
L 180.916814 358.762941 
L 181.751277 346.754506 
L 183.029605 329.111101 
L 183.713155 319.02064 
L 183.970595 311.562653 
L 184.139264 299.556797 
L 184.263545 271.169845 
L 184.361195 185.253021 
L 184.467723 95.811026 
L 184.520986 105.953094 
L 185.098009 313.001972 
L 185.328818 366.205446 
L 185.382082 366.514056 
L 185.444223 366.318982 
L 185.701664 364.356109 
L 186.216545 358.75262 
L 187.051009 346.74212 
L 188.329336 329.100779 
L 189.012886 319.004126 
L 189.270327 311.526786 
L 189.438995 299.458744 
L 189.563277 270.815563 
L 189.660927 184.062912 
L 189.767455 95.840184 
L 189.820718 106.193583 
L 190.406618 317.266776 
L 190.619673 366.073849 
L 190.681814 366.513798 
L 190.743955 366.314595 
L 191.010273 364.268893 
L 191.525155 358.629279 
L 192.368495 346.461378 
L 193.637945 328.976923 
L 194.312618 318.987095 
L 194.570059 311.490919 
L 194.738727 299.360175 
L 194.863009 270.457926 
L 194.969536 169.735361 
L 195.058309 95.827024 
L 195.12045 106.436652 
L 195.715227 321.576993 
L 195.919405 366.089073 
L 195.981545 366.513798 
L 196.043686 366.310209 
L 196.310005 364.26141 
L 196.833764 358.505422 
L 197.703736 345.913054 
L 198.955432 328.739788 
L 199.61235 318.970323 
L 199.869791 311.454536 
L 200.038459 299.260573 
L 200.162741 270.093064 
L 200.269268 168.493412 
L 200.358041 95.798124 
L 200.420182 106.683849 
L 201.023836 325.896242 
L 201.219136 366.103523 
L 201.281277 366.513282 
L 201.343418 366.305822 
L 201.609736 364.253927 
L 202.133495 358.494585 
L 202.994591 346.03433 
L 204.255164 328.729209 
L 204.912082 318.953035 
L 205.169523 311.417637 
L 205.338191 299.159423 
L 205.462473 269.72072 
L 205.569 167.243129 
L 205.657773 95.776191 
L 205.719914 106.932853 
L 206.332445 330.177302 
L 206.518868 366.117973 
L 206.581009 366.513024 
L 206.634273 366.347108 
L 206.873959 364.562795 
L 207.388841 359.046522 
L 208.187795 347.632083 
L 209.510509 329.2845 
L 210.202936 319.117145 
L 210.460377 311.766758 
L 210.629045 300.106412 
L 210.753327 273.129363 
L 210.850977 191.985259 
L 210.957505 95.761225 
L 211.019645 107.182889 
L 211.641055 334.367017 
L 211.827477 366.261182 
L 211.880741 366.512508 
L 211.934005 366.342979 
L 212.182568 364.477128 
L 212.69745 358.924471 
L 213.514159 347.216389 
L 214.810241 329.273921 
L 215.502668 319.100373 
L 215.760109 311.731408 
L 215.928777 300.011713 
L 216.053059 272.795724 
L 216.150709 190.826166 
L 216.257236 95.755033 
L 216.319377 107.432409 
L 216.949664 338.402943 
L 217.127209 366.271503 
L 217.171595 366.513024 
L 217.233736 366.338851 
L 217.4823 364.469903 
L 217.997182 358.91415 
L 218.822768 347.069567 
L 220.101095 329.376361 
L 220.8024 319.0836 
L 221.059841 311.696315 
L 221.228509 299.917272 
L 221.352791 272.460794 
L 221.450441 189.66764 
L 221.556968 95.755549 
L 221.610232 105.066486 
L 222.151745 296.872201 
L 222.426941 366.281309 
L 222.471327 366.513282 
L 222.533468 366.334722 
L 222.782032 364.462678 
L 223.296914 358.903828 
L 224.1225 347.056923 
L 225.418582 329.140001 
L 226.111009 318.884913 
L 226.36845 311.270815 
L 226.537118 298.753018 
L 226.652523 272.123284 
L 226.750173 188.504495 
L 226.8567 95.761483 
L 226.909964 105.300007 
L 227.460355 300.776529 
L 227.726673 366.290856 
L 227.771059 366.513798 
L 227.8332 366.330593 
L 228.090641 364.376236 
L 228.605523 358.781262 
L 229.439986 346.776181 
L 230.718314 329.129421 
L 231.401864 319.050056 
L 231.659305 311.625355 
L 231.827973 299.727101 
L 231.952255 271.783452 
L 232.049905 187.341144 
L 232.156432 95.774127 
L 232.209695 105.533271 
L 232.768964 304.781749 
L 233.017527 366.184288 
L 233.070791 366.513798 
L 233.132932 366.326465 
L 233.390373 364.369011 
L 233.905255 358.77094 
L 234.739718 346.763795 
L 236.018045 329.1191 
L 236.701595 319.033542 
L 236.959036 311.590262 
L 237.127705 299.631628 
L 237.251986 271.440524 
L 237.349636 186.171136 
L 237.456164 95.79219 
L 237.509427 105.768857 
L 238.077573 308.887603 
L 238.317259 366.196157 
L 238.370523 366.514056 
L 238.432664 366.322336 
L 238.690105 364.361786 
L 239.204986 358.760619 
L 240.03945 346.751667 
L 241.317777 329.108778 
L 242.001327 319.017027 
L 242.258768 311.554654 
L 242.427436 299.534606 
L 242.551718 271.089596 
L 242.649368 184.982988 
L 242.755895 95.817219 
L 242.809159 106.007539 
L 243.386182 313.083253 
L 243.616991 366.208027 
L 243.670255 366.514056 
L 243.732395 366.31795 
L 243.989836 364.354561 
L 244.504718 358.750298 
L 245.348059 346.605104 
L 246.617509 329.098199 
L 247.301059 319.000255 
L 247.5585 311.518787 
L 247.727168 299.436295 
L 247.85145 270.734798 
L 247.9491 183.791717 
L 248.055627 95.847925 
L 248.108891 106.248544 
L 248.694791 317.349863 
L 248.907845 366.077461 
L 248.969986 366.513798 
L 249.032127 366.313821 
L 249.298445 364.267345 
L 249.822205 358.513679 
L 250.692177 345.922859 
L 251.943873 328.748045 
L 252.600791 318.983225 
L 252.858232 311.482662 
L 253.0269 299.337468 
L 253.151182 270.375355 
L 253.257709 169.452606 
L 253.346482 95.819799 
L 253.408623 106.492903 
L 254.0034 321.661629 
L 254.207577 366.092427 
L 254.269718 366.51354 
L 254.331859 366.309435 
L 254.598177 364.259862 
L 255.121936 358.502842 
L 255.983032 346.044135 
L 257.22585 328.964021 
L 257.900523 318.966453 
L 258.157964 311.446279 
L 258.326632 299.237608 
L 258.450914 270.008687 
L 258.557441 168.208103 
L 258.646214 95.792448 
L 258.708355 106.740875 
L 259.312009 325.980878 
L 259.507309 366.106877 
L 259.56945 366.513282 
L 259.631591 366.30479 
L 259.897909 364.252121 
L 260.421668 358.492263 
L 261.291641 345.897829 
L 262.525582 328.953441 
L 263.200255 318.949164 
L 263.457695 311.40938 
L 263.626364 299.1362 
L 263.750645 269.635052 
L 263.857173 166.957304 
L 263.945945 95.772063 
L 264.008086 106.989879 
L 264.620618 330.260647 
L 264.807041 366.121327 
L 264.869182 366.512766 
L 264.922445 366.346334 
L 265.171009 364.482804 
L 265.685891 358.932728 
L 266.511477 347.091758 
L 267.807559 329.169159 
L 268.499986 318.932134 
L 268.757427 311.372481 
L 268.926095 299.034793 
L 269.050377 269.261417 
L 269.156905 165.71582 
L 269.245677 95.759161 
L 269.298941 104.65492 
L 269.8227 289.440533 
L 270.133405 366.427099 
L 270.168914 366.512508 
L 270.222177 366.342205 
L 270.470741 364.475579 
L 270.985623 358.922149 
L 271.802332 347.21355 
L 273.098414 329.271599 
L 273.790841 319.096502 
L 274.048282 311.723408 
L 274.21695 299.990296 
L 274.341232 272.719345 
L 274.438882 190.561009 
L 274.545409 95.754775 
L 274.598673 104.886893 
L 275.131309 293.143594 
L 275.424259 366.366202 
L 275.459768 366.513024 
L 275.521909 366.338077 
L 275.770473 364.468354 
L 276.285355 358.911828 
L 277.110941 347.066728 
L 278.389268 329.374039 
L 279.090573 319.07973 
L 279.348014 311.688058 
L 279.516682 299.895598 
L 279.640964 272.3839 
L 279.738614 189.40238 
L 279.845141 95.756065 
L 279.898405 105.119899 
L 280.439918 296.946773 
L 280.715114 366.283373 
L 280.7595 366.51354 
L 280.821641 366.333948 
L 281.079082 364.381913 
L 281.593964 358.789261 
L 282.428427 346.785728 
L 283.706755 329.13742 
L 284.390305 319.062958 
L 284.647745 311.652707 
L 284.816414 299.800641 
L 284.940695 272.045874 
L 285.038345 188.239132 
L 285.144873 95.763806 
L 285.198136 105.353163 
L 285.748527 300.852133 
L 286.014845 366.29292 
L 286.059232 366.513798 
L 286.121373 366.329561 
L 286.378814 364.374688 
L 286.893695 358.77894 
L 287.728159 346.773342 
L 289.006486 329.127099 
L 289.690036 319.046443 
L 289.947477 311.617356 
L 290.116145 299.705426 
L 290.240427 271.705526 
L 290.338077 187.074904 
L 290.444605 95.77774 
L 290.497868 105.586684 
L 291.057136 304.859676 
L 291.3057 366.187126 
L 291.358964 366.514056 
L 291.421105 366.325433 
L 291.678545 364.367463 
L 292.193427 358.768618 
L 293.027891 346.760957 
L 294.315095 329.0035 
L 294.989768 319.029671 
L 295.247209 311.582005 
L 295.415877 299.609695 
L 295.540159 271.361049 
L 295.637809 185.901051 
L 295.744336 95.79735 
L 295.7976 105.823044 
L 296.365745 308.967594 
L 296.605432 366.198996 
L 296.658695 366.514056 
L 296.720836 366.321304 
L 296.978277 364.360238 
L 297.493159 358.758297 
L 298.327623 346.748829 
L 299.60595 329.106456 
L 300.2895 319.013157 
L 300.546941 311.546396 
L 300.715609 299.512157 
L 300.839891 271.009089 
L 300.937541 184.712567 
L 301.044068 95.82367 
L 301.097332 106.061985 
L 301.674355 313.164534 
L 301.905164 366.210607 
L 301.958427 366.514056 
L 302.020568 366.317176 
L 302.286886 364.273022 
L 302.810645 358.521679 
L 303.671741 346.066326 
L 304.914559 328.982857 
L 305.589232 318.996385 
L 305.846673 311.51053 
L 306.015341 299.414104 
L 306.139623 270.653775 
L 306.24615 170.4078 
L 306.334923 95.845345 
L 306.397064 106.303764 
L 306.982964 317.43295 
L 307.196018 366.080816 
L 307.258159 366.513798 
L 307.3203 366.312789 
L 307.586618 364.265539 
L 308.110377 358.511099 
L 308.971473 346.053941 
L 310.214291 328.972278 
L 310.888964 318.979612 
L 311.146405 311.474405 
L 311.315073 299.315019 
L 311.439355 270.292526 
L 311.545882 169.170857 
L 311.634655 95.81309 
L 311.696795 106.548897 
L 312.291573 321.745748 
L 312.49575 366.095782 
L 312.557891 366.51354 
L 312.620032 366.308402 
L 312.88635 364.258056 
L 313.410109 358.50052 
L 314.280082 345.907377 
L 315.531777 328.734886 
L 316.188695 318.962324 
L 316.446136 311.437764 
L 316.614805 299.214643 
L 316.739086 269.924568 
L 316.845614 167.923877 
L 316.934386 95.787287 
L 316.996527 106.797385 
L 317.600182 326.065255 
L 317.795482 366.110232 
L 317.857623 366.513282 
L 317.910886 366.34943 
L 318.15945 364.488481 
L 318.674332 358.940727 
L 319.491041 347.235741 
L 320.796 329.177158 
L 321.488427 318.945294 
L 321.745868 311.400865 
L 321.914536 299.112977 
L 322.038818 269.549643 
L 322.145345 166.672846 
L 322.234118 95.76845 
L 322.296259 107.046905 
L 322.908791 330.343734 
L 323.095214 366.124682 
L 323.157355 366.512766 
L 323.210618 366.345301 
L 323.459182 364.481256 
L 323.974064 358.930148 
L 324.790773 347.223098 
L 326.095732 329.166578 
L 326.779282 319.109404 
L 327.036723 311.75076 
L 327.205391 300.06332 
L 327.329673 272.97738 
L 327.427323 191.456803 
L 327.53385 95.757355 
L 327.595991 107.296683 
L 328.2174 334.527515 
L 328.403823 366.265827 
L 328.457086 366.51225 
L 328.51035 366.341173 
L 328.758914 364.473773 
L 329.273795 358.919827 
L 329.318182 358.354472 
L 329.335936 359.240564 
L 329.531236 363.169922 
L 329.620009 363.354933 
L 329.664395 363.298424 
L 329.815309 362.700814 
L 330.214786 359.926679 
L 332.176664 345.393887 
L 332.869091 342.22083 
L 333.428359 340.590564 
L 333.889977 339.858777 
L 334.262823 339.635319 
L 334.617914 339.674798 
L 335.106164 339.992697 
L 336.553159 341.029482 
L 337.156814 341.124697 
L 338.106682 341.014516 
L 339.908768 340.812733 
L 342.0837 340.860211 
L 345.776645 340.856599 
L 435.845455 340.858663 
L 435.845455 340.858663 
" clip-path="url(#pdd8a3e64ae)" style="fill: none; stroke: #1f77b4; stroke-width: 1.5; stroke-linecap: square"/>
   </g>
   <g id="line2d_14">
    <path d="M 80.754545 340.926526 
L 81.074127 335.538859 
L 81.997364 322.489468 
L 82.157155 314.533249 
L 82.272559 295.530462 
L 82.352455 235.859993 
L 82.458982 68.088359 
L 82.547755 81.979553 
L 82.911723 205.066578 
L 83.426605 369.36 
L 83.515377 369.11041 
L 83.923732 367.171409 
L 84.429736 363.594605 
L 85.193182 356.308378 
L 86.347227 345.677175 
L 87.066286 341.063438 
L 87.669941 338.495156 
L 88.131559 337.378203 
L 88.477773 337.017284 
L 88.761845 337.008677 
L 89.108059 337.250205 
L 90.182209 338.126988 
L 90.661582 338.150646 
L 91.780118 337.868774 
L 92.650091 337.828932 
L 95.721627 337.893889 
L 107.111168 337.898954 
L 151.772727 337.898975 
L 152.287609 296.95607 
L 152.367505 241.811936 
L 152.482909 66.96 
L 152.571682 82.137396 
L 152.980036 220.032162 
L 153.441655 368.331752 
L 153.548182 367.902319 
L 153.974291 365.025262 
L 154.506927 359.745517 
L 157.116845 331.005805 
L 157.880291 323.649966 
L 158.119977 318.745132 
L 158.279768 309.973004 
L 158.386295 290.359862 
L 158.466191 227.007278 
L 158.572718 77.027979 
L 158.652614 90.474259 
L 159.158618 262.703231 
L 159.487077 368.201107 
L 159.57585 367.86622 
L 159.984205 365.119954 
L 160.516841 359.879118 
L 161.759659 344.386587 
L 162.656264 335.214645 
L 164.06775 321.615079 
L 164.26305 315.916663 
L 164.396209 304.826181 
L 164.493859 274.764334 
L 164.573755 157.083078 
L 164.65365 77.465272 
L 164.706914 85.757508 
L 164.982109 180.274044 
L 165.559132 368.192703 
L 165.621273 367.995231 
L 165.985241 365.669967 
L 166.491245 360.957622 
L 167.325709 350.630035 
L 168.382105 338.457243 
L 169.411868 329.419698 
L 170.033277 323.342136 
L 170.272964 318.415867 
L 170.423877 310.246243 
L 170.539282 288.693534 
L 170.619177 219.96655 
L 170.725705 77.427258 
L 170.796723 89.637122 
L 171.231709 238.719331 
L 171.631186 368.190891 
L 171.737714 367.777147 
L 172.163823 364.83757 
L 172.705336 359.380844 
L 175.146586 332.23499 
L 176.123086 323.12475 
L 176.353895 318.204064 
L 176.504809 309.640134 
L 176.611336 289.579221 
L 176.691232 224.09721 
L 176.797759 77.412176 
L 176.868777 88.995309 
L 177.259377 223.673996 
L 177.712118 368.191625 
L 177.809768 367.790319 
L 178.235877 364.857821 
L 178.777391 359.40911 
L 181.227518 332.180937 
L 182.195141 323.159515 
L 182.42595 318.284397 
L 182.576864 309.872437 
L 182.683391 290.425902 
L 182.763286 228.008534 
L 182.869814 77.44827 
L 182.949709 90.719576 
L 183.455714 263.139517 
L 183.784173 368.192372 
L 183.872945 367.850722 
L 184.290177 365.024271 
L 184.822814 359.744598 
L 187.4061 331.31074 
L 188.258318 323.318978 
L 188.489127 318.645963 
L 188.648918 310.098884 
L 188.755445 291.23999 
L 188.835341 231.73343 
L 188.950745 77.463894 
L 189.030641 92.513025 
L 189.598786 288.604848 
L 189.856227 368.191907 
L 189.891736 368.114995 
L 190.149177 366.629583 
L 190.619673 362.71872 
L 191.276591 355.107405 
L 192.723586 338.029081 
L 193.806614 328.605438 
L 194.348127 323.101683 
L 194.578936 318.150135 
L 194.72985 309.483041 
L 194.836377 289.001777 
L 194.916273 221.416516 
L 195.0228 77.417965 
L 195.093818 89.415525 
L 195.51105 232.769127 
L 195.937159 368.190492 
L 196.034809 367.781643 
L 196.460918 364.844478 
L 197.002432 359.390483 
L 199.443682 332.241954 
L 200.420182 323.136769 
L 200.650991 318.231968 
L 200.801905 309.721038 
L 200.908432 289.875366 
L 200.988327 225.469082 
L 201.094855 77.418094 
L 201.17475 91.153919 
L 201.698509 269.816293 
L 202.009214 368.192036 
L 202.080232 367.934443 
L 202.470832 365.368165 
L 202.985714 360.43027 
L 203.926705 348.659573 
L 204.903205 337.732695 
L 206.021741 328.042376 
L 206.509991 322.912886 
L 206.731923 318.013374 
L 206.882836 309.080101 
L 206.989364 287.485654 
L 207.069259 214.275577 
L 207.166909 77.473609 
L 207.237927 88.153205 
L 207.593018 210.972138 
L 208.081268 368.19233 
L 208.170041 367.855133 
L 208.578395 365.103409 
L 209.111032 359.855836 
L 211.738705 331.022624 
L 212.555414 323.33068 
L 212.786223 318.672039 
L 212.946014 310.176631 
L 213.052541 291.516756 
L 213.132436 232.99457 
L 213.247841 77.442766 
L 213.327736 92.274633 
L 213.887005 284.626116 
L 214.153323 368.191447 
L 214.197709 368.082593 
L 214.499536 366.267814 
L 214.987786 362.009679 
L 215.697968 353.519622 
L 216.958541 338.647313 
L 217.961673 329.800054 
L 218.618591 323.486294 
L 218.858277 318.747404 
L 219.018068 310.399574 
L 219.133473 289.310588 
L 219.213368 222.85473 
L 219.319895 77.412257 
L 219.390914 89.191295 
L 219.799268 229.646089 
L 220.234255 368.191148 
L 220.331905 367.786264 
L 220.758014 364.851581 
L 221.299527 359.400398 
L 223.749655 332.17465 
L 224.717277 323.148872 
L 224.948086 318.259874 
L 225.099 309.801666 
L 225.205527 290.169033 
L 225.285423 226.824836 
L 225.39195 77.431182 
L 225.471845 90.923203 
L 225.986727 266.427171 
L 226.306309 368.19228 
L 226.386205 367.893273 
L 226.794559 365.162422 
L 227.318318 360.039998 
L 228.401345 346.463467 
L 229.324582 336.561615 
L 230.940245 320.50584 
L 231.117791 314.022512 
L 231.242073 300.239205 
L 231.330845 261.745529 
L 231.472882 77.488147 
L 231.597164 106.559276 
L 232.378364 368.192152 
L 232.476014 367.812356 
L 232.893245 364.96514 
L 233.425882 359.661765 
L 235.973659 331.546716 
L 236.861386 323.217853 
L 237.092195 318.41805 
L 237.243109 310.254016 
L 237.358514 288.727021 
L 237.438409 220.127548 
L 237.544936 77.427524 
L 237.615955 89.614198 
L 238.050941 238.692156 
L 238.450418 368.190779 
L 238.556945 367.77757 
L 238.983055 364.838221 
L 239.524568 359.381752 
L 241.965818 332.235663 
L 242.942318 323.126028 
L 243.173127 318.207129 
L 243.324041 309.649126 
L 243.430568 289.612269 
L 243.510464 224.250222 
L 243.616991 77.41274 
L 243.688009 88.971257 
L 244.078609 223.644194 
L 244.53135 368.191673 
L 244.629 367.790812 
L 245.055109 364.858579 
L 245.596623 359.410169 
L 248.04675 332.181704 
L 249.014373 323.160834 
L 249.245182 318.287454 
L 249.396095 309.881271 
L 249.502623 290.457964 
L 249.582518 228.15634 
L 249.689045 77.450922 
L 249.768941 90.693986 
L 250.274945 263.107744 
L 250.603405 368.192372 
L 250.692177 367.851217 
L 251.109409 365.025037 
L 251.642045 359.745672 
L 254.225332 331.311522 
L 255.07755 323.320294 
L 255.308359 318.6489 
L 255.46815 310.107647 
L 255.574677 291.271218 
L 255.654573 231.8758 
L 255.769977 77.461155 
L 255.849873 92.486194 
L 256.418018 288.565196 
L 256.675459 368.191865 
L 256.710968 368.115358 
L 256.968409 366.630222 
L 257.438905 362.719658 
L 258.095823 355.108619 
L 259.542818 338.030004 
L 260.616968 328.681354 
L 261.167359 323.103051 
L 261.398168 318.153336 
L 261.549082 309.492394 
L 261.655609 289.036356 
L 261.735505 221.578495 
L 261.842032 77.417014 
L 261.91305 89.39049 
L 262.330282 232.7388 
L 262.756391 368.190569 
L 262.854041 367.782158 
L 263.28015 364.84527 
L 263.821664 359.391588 
L 266.262914 332.24275 
L 267.239414 323.138123 
L 267.470223 318.235097 
L 267.621136 309.730086 
L 267.727664 289.908442 
L 267.807559 225.622254 
L 267.914086 77.419209 
L 267.993982 91.12783 
L 268.517741 269.782806 
L 268.828445 368.192074 
L 268.899464 367.934924 
L 269.290064 365.368914 
L 269.804945 360.43133 
L 270.745936 348.660772 
L 271.722436 337.73361 
L 272.840973 328.043187 
L 273.329223 322.914289 
L 273.551155 318.016622 
L 273.702068 309.089804 
L 273.808595 287.522896 
L 273.888491 214.451149 
L 273.986141 77.477023 
L 274.057159 88.128877 
L 274.403373 207.987373 
L 274.9005 368.192315 
L 274.989273 367.855635 
L 275.397627 365.104181 
L 275.930264 359.856923 
L 278.557936 331.023414 
L 279.374645 323.33201 
L 279.605455 318.674999 
L 279.765245 310.185448 
L 279.871773 291.547764 
L 279.951668 233.135569 
L 280.067073 77.440797 
L 280.146968 92.247729 
L 280.706236 284.58782 
L 280.972555 368.19138 
L 281.016941 368.082992 
L 281.318768 366.268486 
L 281.807018 362.010659 
L 282.5172 353.52085 
L 283.777773 338.648256 
L 284.780905 329.80084 
L 285.437823 323.487603 
L 285.677509 318.750373 
L 285.8373 310.408326 
L 285.952705 289.345471 
L 286.0326 223.016075 
L 286.139127 77.411983 
L 286.210145 89.166005 
L 286.609623 226.755588 
L 287.053486 368.191215 
L 287.151136 367.786784 
L 287.577245 364.852382 
L 288.118759 359.401516 
L 290.568886 332.175457 
L 291.536509 323.150238 
L 291.767318 318.263023 
L 291.918232 309.810759 
L 292.024759 290.202056 
L 292.104655 226.976905 
L 292.211182 77.432938 
L 292.291077 90.897344 
L 292.805959 266.39466 
L 293.125541 368.192297 
L 293.205436 367.893762 
L 293.613791 365.163184 
L 294.13755 360.04107 
L 295.220577 346.46462 
L 296.143814 336.562498 
L 297.759477 320.507966 
L 297.937023 314.028112 
L 298.061305 300.257997 
L 298.150077 261.826922 
L 298.292114 77.484838 
L 298.416395 106.52791 
L 299.197595 368.192127 
L 299.295245 367.812863 
L 299.712477 364.965918 
L 300.245114 359.662854 
L 302.792891 331.547501 
L 303.680618 323.219185 
L 303.911427 318.421084 
L 304.062341 310.262582 
L 304.177745 288.761588 
L 304.257641 220.290568 
L 304.364168 77.42615 
L 304.435186 89.589214 
L 304.861295 235.822253 
L 305.26965 368.190694 
L 305.376177 367.778081 
L 305.802286 364.839005 
L 306.3438 359.382846 
L 308.78505 332.236451 
L 309.76155 323.127379 
L 309.992359 318.210256 
L 310.143273 309.658187 
L 310.2498 289.645441 
L 310.329695 224.403842 
L 310.436223 77.413241 
L 310.507241 88.946953 
L 310.897841 223.614022 
L 311.350582 368.19172 
L 311.448232 367.791313 
L 311.874341 364.85935 
L 312.415855 359.411246 
L 314.865982 332.182483 
L 315.833605 323.162157 
L 316.064414 318.290504 
L 316.215327 309.89007 
L 316.321855 290.489875 
L 316.40175 228.302731 
L 316.508277 77.453494 
L 316.588173 90.668554 
L 317.0853 260.093696 
L 317.422636 368.192371 
L 317.511409 367.851711 
L 317.928641 365.025803 
L 318.461277 359.746747 
L 321.044564 331.312302 
L 321.896782 323.321599 
L 322.127591 318.651806 
L 322.287382 310.116313 
L 322.393909 291.302086 
L 322.473805 232.0165 
L 322.589209 77.45856 
L 322.669105 92.459658 
L 323.23725 288.526033 
L 323.494691 368.191821 
L 323.5302 368.115716 
L 323.787641 366.630852 
L 324.258136 362.720584 
L 324.915055 355.109815 
L 326.36205 338.030914 
L 327.4362 328.682146 
L 327.986591 323.104405 
L 328.2174 318.156505 
L 328.368314 309.501653 
L 328.474841 289.070584 
L 328.554736 221.738825 
L 328.661264 77.416195 
L 328.732282 89.365661 
L 329.149514 232.708705 
L 329.575623 369.261757 
L 329.68215 368.952712 
L 330.108259 366.825202 
L 330.632018 362.948159 
L 331.501991 354.452695 
L 332.505123 345.447475 
L 333.224182 340.918466 
L 333.827836 338.421523 
L 334.289455 337.356735 
L 334.635668 337.029796 
L 334.919741 337.040214 
L 335.292586 337.31538 
L 336.260209 338.104631 
L 336.739582 338.153012 
L 337.556291 337.951341 
L 338.47065 337.82366 
L 345.323905 337.898812 
L 432.330055 337.898975 
L 435.845455 337.898975 
L 435.845455 337.898975 
" clip-path="url(#pdd8a3e64ae)" style="fill: none; stroke: #ff0000; stroke-width: 1.5; stroke-linecap: square"/>
   </g>
   <g id="patch_3">
    <path d="M 63 384.48 
L 63 51.84 
" style="fill: none; stroke: #000000; stroke-width: 0.8; stroke-linejoin: miter; stroke-linecap: square"/>
   </g>
   <g id="patch_4">
    <path d="M 453.6 384.48 
L 453.6 51.84 
" style="fill: none; stroke: #000000; stroke-width: 0.8; stroke-linejoin: miter; stroke-linecap: square"/>
   </g>
   <g id="patch_5">
    <path d="M 63 384.48 
L 453.6 384.48 
" style="fill: none; stroke: #000000; stroke-width: 0.8; stroke-linejoin: miter; stroke-linecap: square"/>
   </g>
   <g id="patch_6">
    <path d="M 63 51.84 
L 453.6 51.84 
" style="fill: none; stroke: #000000; stroke-width: 0.8; stroke-linejoin: miter; stroke-linecap: square"/>
   </g>
   <g id="legend_1">
    <g id="patch_7">
     <path d="M 383.460938 89.19625 
L 446.6 89.19625 
Q 448.6 89.19625 448.6 87.19625 
L 448.6 58.84 
Q 448.6 56.84 446.6 56.84 
L 383.460938 56.84 
Q 381.460938 56.84 381.460938 58.84 
L 381.460938 87.19625 
Q 381.460938 89.19625 383.460938 89.19625 
z
" style="fill: #ffffff; opacity: 0.8; stroke: #cccccc; stroke-linejoin: miter"/>
    </g>
    <g id="line2d_15">
     <path d="M 385.460938 64.938437 
L 395.460938 64.938437 
L 405.460938 64.938437 
" style="fill: none; stroke: #1f77b4; stroke-width: 1.5; stroke-linecap: square"/>
    </g>
    <g id="text_15">
     <!-- target -->
     <g transform="translate(413.460938 68.438437)scale(0.1 -0.1)">
      <defs>
       <path id="DejaVuSans-72" d="M 2631 2963 
Q 2534 3019 2420 3045 
Q 2306 3072 2169 3072 
Q 1681 3072 1420 2755 
Q 1159 2438 1159 1844 
L 1159 0 
L 581 0 
L 581 3500 
L 1159 3500 
L 1159 2956 
Q 1341 3275 1631 3429 
Q 1922 3584 2338 3584 
Q 2397 3584 2469 3576 
Q 2541 3569 2628 3553 
L 2631 2963 
z
" transform="scale(0.015625)"/>
      </defs>
      <use xlink:href="#DejaVuSans-74"/>
      <use xlink:href="#DejaVuSans-61" x="39.208984"/>
      <use xlink:href="#DejaVuSans-72" x="100.488281"/>
      <use xlink:href="#DejaVuSans-67" x="139.851562"/>
      <use xlink:href="#DejaVuSans-65" x="203.328125"/>
      <use xlink:href="#DejaVuSans-74" x="264.851562"/>
     </g>
    </g>
    <g id="line2d_16">
     <path d="M 385.460938 79.616562 
L 395.460938 79.616562 
L 405.460938 79.616562 
" style="fill: none; stroke: #ff0000; stroke-width: 1.5; stroke-linecap: square"/>
    </g>
    <g id="text_16">
     <!-- model -->
     <g transform="translate(413.460938 83.116562)scale(0.1 -0.1)">
      <defs>
       <path id="DejaVuSans-64" d="M 2906 2969 
L 2906 4863 
L 3481 4863 
L 3481 0 
L 2906 0 
L 2906 525 
Q 2725 213 2448 61 
Q 2172 -91 1784 -91 
Q 1150 -91 751 415 
Q 353 922 353 1747 
Q 353 2572 751 3078 
Q 1150 3584 1784 3584 
Q 2172 3584 2448 3432 
Q 2725 3281 2906 2969 
z
M 947 1747 
Q 947 1113 1208 752 
Q 1469 391 1925 391 
Q 2381 391 2643 752 
Q 2906 1113 2906 1747 
Q 2906 2381 2643 2742 
Q 2381 3103 1925 3103 
Q 1469 3103 1208 2742 
Q 947 2381 947 1747 
z
" transform="scale(0.015625)"/>
      </defs>
      <use xlink:href="#DejaVuSans-6d"/>
      <use xlink:href="#DejaVuSans-6f" x="97.412109"/>
      <use xlink:href="#DejaVuSans-64" x="158.59375"/>
      <use xlink:href="#DejaVuSans-65" x="222.070312"/>
      <use xlink:href="#DejaVuSans-6c" x="283.59375"/>
     </g>
    </g>
   </g>
  </g>
 </g>
 <defs>
  <clipPath id="pdd8a3e64ae">
   <rect x="63" y="51.84" width="390.6" height="332.64"/>
  </clipPath>
 </defs>
</svg>
