<?xml version="1.0" encoding="utf-8" standalone="no"?>
<!DOCTYPE svg PUBLIC "-//W3C//DTD SVG 1.1//EN"
  "http://www.w3.org/Graphics/SVG/1.1/DTD/svg11.dtd">
<svg xmlns:xlink="http://www.w3.org/1999/xlink" width="504pt" height="432pt" viewBox="0 0 504 432" xmlns="http://www.w3.org/2000/svg" version="1.1">
 <metadata>
  <rdf:RDF xmlns:dc="http://purl.org/dc/elements/1.1/" xmlns:cc="http://creativecommons.org/ns#" xmlns:rdf="http://www.w3.org/1999/02/22-rdf-syntax-ns#">
   <cc:Work>
    <dc:type rdf:resource="http://purl.org/dc/dcmitype/StillImage"/>
    <dc:date>2022-01-31T18:32:25.270492</dc:date>
    <dc:format>image/svg+xml</dc:format>
    <dc:creator>
     <cc:Agent>
      <dc:title>Matplotlib v3.5.1, https://matplotlib.org/</dc:title>
     </cc:Agent>
    </dc:creator>
   </cc:Work>
  </rdf:RDF>
 </metadata>
 <defs>
  <style type="text/css">*{stroke-linejoin: round; stroke-linecap: butt}</style>
 </defs>
 <g id="figure_1">
  <g id="patch_1">
   <path d="M 0 432 
L 504 432 
L 504 0 
L 0 0 
z
" style="fill: #ffffff"/>
  </g>
  <g id="axes_1">
   <g id="patch_2">
    <path d="M 63 384.48 
L 453.6 384.48 
L 453.6 51.84 
L 63 51.84 
z
" style="fill: #ffffff"/>
   </g>
   <g id="matplotlib.axis_1">
    <g id="xtick_1">
     <g id="line2d_1">
      <defs>
       <path id="meeb04ac73c" d="M 0 0 
L 0 3.5 
" style="stroke: #000000; stroke-width: 0.8"/>
      </defs>
      <g>
       <use xlink:href="#meeb04ac73c" x="80.754545" y="384.48" style="stroke: #000000; stroke-width: 0.8"/>
      </g>
     </g>
     <g id="text_1">
      <!-- 0 -->
      <g transform="translate(77.573295 399.078438)scale(0.1 -0.1)">
       <defs>
        <path id="DejaVuSans-30" d="M 2034 4250 
Q 1547 4250 1301 3770 
Q 1056 3291 1056 2328 
Q 1056 1369 1301 889 
Q 1547 409 2034 409 
Q 2525 409 2770 889 
Q 3016 1369 3016 2328 
Q 3016 3291 2770 3770 
Q 2525 4250 2034 4250 
z
M 2034 4750 
Q 2819 4750 3233 4129 
Q 3647 3509 3647 2328 
Q 3647 1150 3233 529 
Q 2819 -91 2034 -91 
Q 1250 -91 836 529 
Q 422 1150 422 2328 
Q 422 3509 836 4129 
Q 1250 4750 2034 4750 
z
" transform="scale(0.015625)"/>
       </defs>
       <use xlink:href="#DejaVuSans-30"/>
      </g>
     </g>
    </g>
    <g id="xtick_2">
     <g id="line2d_2">
      <g>
       <use xlink:href="#meeb04ac73c" x="151.772727" y="384.48" style="stroke: #000000; stroke-width: 0.8"/>
      </g>
     </g>
     <g id="text_2">
      <!-- 200 -->
      <g transform="translate(142.228977 399.078438)scale(0.1 -0.1)">
       <defs>
        <path id="DejaVuSans-32" d="M 1228 531 
L 3431 531 
L 3431 0 
L 469 0 
L 469 531 
Q 828 903 1448 1529 
Q 2069 2156 2228 2338 
Q 2531 2678 2651 2914 
Q 2772 3150 2772 3378 
Q 2772 3750 2511 3984 
Q 2250 4219 1831 4219 
Q 1534 4219 1204 4116 
Q 875 4013 500 3803 
L 500 4441 
Q 881 4594 1212 4672 
Q 1544 4750 1819 4750 
Q 2544 4750 2975 4387 
Q 3406 4025 3406 3419 
Q 3406 3131 3298 2873 
Q 3191 2616 2906 2266 
Q 2828 2175 2409 1742 
Q 1991 1309 1228 531 
z
" transform="scale(0.015625)"/>
       </defs>
       <use xlink:href="#DejaVuSans-32"/>
       <use xlink:href="#DejaVuSans-30" x="63.623047"/>
       <use xlink:href="#DejaVuSans-30" x="127.246094"/>
      </g>
     </g>
    </g>
    <g id="xtick_3">
     <g id="line2d_3">
      <g>
       <use xlink:href="#meeb04ac73c" x="222.790909" y="384.48" style="stroke: #000000; stroke-width: 0.8"/>
      </g>
     </g>
     <g id="text_3">
      <!-- 400 -->
      <g transform="translate(213.247159 399.078438)scale(0.1 -0.1)">
       <defs>
        <path id="DejaVuSans-34" d="M 2419 4116 
L 825 1625 
L 2419 1625 
L 2419 4116 
z
M 2253 4666 
L 3047 4666 
L 3047 1625 
L 3713 1625 
L 3713 1100 
L 3047 1100 
L 3047 0 
L 2419 0 
L 2419 1100 
L 313 1100 
L 313 1709 
L 2253 4666 
z
" transform="scale(0.015625)"/>
       </defs>
       <use xlink:href="#DejaVuSans-34"/>
       <use xlink:href="#DejaVuSans-30" x="63.623047"/>
       <use xlink:href="#DejaVuSans-30" x="127.246094"/>
      </g>
     </g>
    </g>
    <g id="xtick_4">
     <g id="line2d_4">
      <g>
       <use xlink:href="#meeb04ac73c" x="293.809091" y="384.48" style="stroke: #000000; stroke-width: 0.8"/>
      </g>
     </g>
     <g id="text_4">
      <!-- 600 -->
      <g transform="translate(284.265341 399.078438)scale(0.1 -0.1)">
       <defs>
        <path id="DejaVuSans-36" d="M 2113 2584 
Q 1688 2584 1439 2293 
Q 1191 2003 1191 1497 
Q 1191 994 1439 701 
Q 1688 409 2113 409 
Q 2538 409 2786 701 
Q 3034 994 3034 1497 
Q 3034 2003 2786 2293 
Q 2538 2584 2113 2584 
z
M 3366 4563 
L 3366 3988 
Q 3128 4100 2886 4159 
Q 2644 4219 2406 4219 
Q 1781 4219 1451 3797 
Q 1122 3375 1075 2522 
Q 1259 2794 1537 2939 
Q 1816 3084 2150 3084 
Q 2853 3084 3261 2657 
Q 3669 2231 3669 1497 
Q 3669 778 3244 343 
Q 2819 -91 2113 -91 
Q 1303 -91 875 529 
Q 447 1150 447 2328 
Q 447 3434 972 4092 
Q 1497 4750 2381 4750 
Q 2619 4750 2861 4703 
Q 3103 4656 3366 4563 
z
" transform="scale(0.015625)"/>
       </defs>
       <use xlink:href="#DejaVuSans-36"/>
       <use xlink:href="#DejaVuSans-30" x="63.623047"/>
       <use xlink:href="#DejaVuSans-30" x="127.246094"/>
      </g>
     </g>
    </g>
    <g id="xtick_5">
     <g id="line2d_5">
      <g>
       <use xlink:href="#meeb04ac73c" x="364.827273" y="384.48" style="stroke: #000000; stroke-width: 0.8"/>
      </g>
     </g>
     <g id="text_5">
      <!-- 800 -->
      <g transform="translate(355.283523 399.078438)scale(0.1 -0.1)">
       <defs>
        <path id="DejaVuSans-38" d="M 2034 2216 
Q 1584 2216 1326 1975 
Q 1069 1734 1069 1313 
Q 1069 891 1326 650 
Q 1584 409 2034 409 
Q 2484 409 2743 651 
Q 3003 894 3003 1313 
Q 3003 1734 2745 1975 
Q 2488 2216 2034 2216 
z
M 1403 2484 
Q 997 2584 770 2862 
Q 544 3141 544 3541 
Q 544 4100 942 4425 
Q 1341 4750 2034 4750 
Q 2731 4750 3128 4425 
Q 3525 4100 3525 3541 
Q 3525 3141 3298 2862 
Q 3072 2584 2669 2484 
Q 3125 2378 3379 2068 
Q 3634 1759 3634 1313 
Q 3634 634 3220 271 
Q 2806 -91 2034 -91 
Q 1263 -91 848 271 
Q 434 634 434 1313 
Q 434 1759 690 2068 
Q 947 2378 1403 2484 
z
M 1172 3481 
Q 1172 3119 1398 2916 
Q 1625 2713 2034 2713 
Q 2441 2713 2670 2916 
Q 2900 3119 2900 3481 
Q 2900 3844 2670 4047 
Q 2441 4250 2034 4250 
Q 1625 4250 1398 4047 
Q 1172 3844 1172 3481 
z
" transform="scale(0.015625)"/>
       </defs>
       <use xlink:href="#DejaVuSans-38"/>
       <use xlink:href="#DejaVuSans-30" x="63.623047"/>
       <use xlink:href="#DejaVuSans-30" x="127.246094"/>
      </g>
     </g>
    </g>
    <g id="text_6">
     <!-- time [ms] -->
     <g transform="translate(234.038281 412.756563)scale(0.1 -0.1)">
      <defs>
       <path id="DejaVuSans-74" d="M 1172 4494 
L 1172 3500 
L 2356 3500 
L 2356 3053 
L 1172 3053 
L 1172 1153 
Q 1172 725 1289 603 
Q 1406 481 1766 481 
L 2356 481 
L 2356 0 
L 1766 0 
Q 1100 0 847 248 
Q 594 497 594 1153 
L 594 3053 
L 172 3053 
L 172 3500 
L 594 3500 
L 594 4494 
L 1172 4494 
z
" transform="scale(0.015625)"/>
       <path id="DejaVuSans-69" d="M 603 3500 
L 1178 3500 
L 1178 0 
L 603 0 
L 603 3500 
z
M 603 4863 
L 1178 4863 
L 1178 4134 
L 603 4134 
L 603 4863 
z
" transform="scale(0.015625)"/>
       <path id="DejaVuSans-6d" d="M 3328 2828 
Q 3544 3216 3844 3400 
Q 4144 3584 4550 3584 
Q 5097 3584 5394 3201 
Q 5691 2819 5691 2113 
L 5691 0 
L 5113 0 
L 5113 2094 
Q 5113 2597 4934 2840 
Q 4756 3084 4391 3084 
Q 3944 3084 3684 2787 
Q 3425 2491 3425 1978 
L 3425 0 
L 2847 0 
L 2847 2094 
Q 2847 2600 2669 2842 
Q 2491 3084 2119 3084 
Q 1678 3084 1418 2786 
Q 1159 2488 1159 1978 
L 1159 0 
L 581 0 
L 581 3500 
L 1159 3500 
L 1159 2956 
Q 1356 3278 1631 3431 
Q 1906 3584 2284 3584 
Q 2666 3584 2933 3390 
Q 3200 3197 3328 2828 
z
" transform="scale(0.015625)"/>
       <path id="DejaVuSans-65" d="M 3597 1894 
L 3597 1613 
L 953 1613 
Q 991 1019 1311 708 
Q 1631 397 2203 397 
Q 2534 397 2845 478 
Q 3156 559 3463 722 
L 3463 178 
Q 3153 47 2828 -22 
Q 2503 -91 2169 -91 
Q 1331 -91 842 396 
Q 353 884 353 1716 
Q 353 2575 817 3079 
Q 1281 3584 2069 3584 
Q 2775 3584 3186 3129 
Q 3597 2675 3597 1894 
z
M 3022 2063 
Q 3016 2534 2758 2815 
Q 2500 3097 2075 3097 
Q 1594 3097 1305 2825 
Q 1016 2553 972 2059 
L 3022 2063 
z
" transform="scale(0.015625)"/>
       <path id="DejaVuSans-20" transform="scale(0.015625)"/>
       <path id="DejaVuSans-5b" d="M 550 4863 
L 1875 4863 
L 1875 4416 
L 1125 4416 
L 1125 -397 
L 1875 -397 
L 1875 -844 
L 550 -844 
L 550 4863 
z
" transform="scale(0.015625)"/>
       <path id="DejaVuSans-73" d="M 2834 3397 
L 2834 2853 
Q 2591 2978 2328 3040 
Q 2066 3103 1784 3103 
Q 1356 3103 1142 2972 
Q 928 2841 928 2578 
Q 928 2378 1081 2264 
Q 1234 2150 1697 2047 
L 1894 2003 
Q 2506 1872 2764 1633 
Q 3022 1394 3022 966 
Q 3022 478 2636 193 
Q 2250 -91 1575 -91 
Q 1294 -91 989 -36 
Q 684 19 347 128 
L 347 722 
Q 666 556 975 473 
Q 1284 391 1588 391 
Q 1994 391 2212 530 
Q 2431 669 2431 922 
Q 2431 1156 2273 1281 
Q 2116 1406 1581 1522 
L 1381 1569 
Q 847 1681 609 1914 
Q 372 2147 372 2553 
Q 372 3047 722 3315 
Q 1072 3584 1716 3584 
Q 2034 3584 2315 3537 
Q 2597 3491 2834 3397 
z
" transform="scale(0.015625)"/>
       <path id="DejaVuSans-5d" d="M 1947 4863 
L 1947 -844 
L 622 -844 
L 622 -397 
L 1369 -397 
L 1369 4416 
L 622 4416 
L 622 4863 
L 1947 4863 
z
" transform="scale(0.015625)"/>
      </defs>
      <use xlink:href="#DejaVuSans-74"/>
      <use xlink:href="#DejaVuSans-69" x="39.208984"/>
      <use xlink:href="#DejaVuSans-6d" x="66.992188"/>
      <use xlink:href="#DejaVuSans-65" x="164.404297"/>
      <use xlink:href="#DejaVuSans-20" x="225.927734"/>
      <use xlink:href="#DejaVuSans-5b" x="257.714844"/>
      <use xlink:href="#DejaVuSans-6d" x="296.728516"/>
      <use xlink:href="#DejaVuSans-73" x="394.140625"/>
      <use xlink:href="#DejaVuSans-5d" x="446.240234"/>
     </g>
    </g>
   </g>
   <g id="matplotlib.axis_2">
    <g id="ytick_1">
     <g id="line2d_6">
      <defs>
       <path id="mad07ef7f63" d="M 0 0 
L -3.5 0 
" style="stroke: #000000; stroke-width: 0.8"/>
      </defs>
      <g>
       <use xlink:href="#mad07ef7f63" x="63" y="376.595056" style="stroke: #000000; stroke-width: 0.8"/>
      </g>
     </g>
     <g id="text_7">
      <!-- −80 -->
      <g transform="translate(34.895313 380.394274)scale(0.1 -0.1)">
       <defs>
        <path id="DejaVuSans-2212" d="M 678 2272 
L 4684 2272 
L 4684 1741 
L 678 1741 
L 678 2272 
z
" transform="scale(0.015625)"/>
       </defs>
       <use xlink:href="#DejaVuSans-2212"/>
       <use xlink:href="#DejaVuSans-38" x="83.789062"/>
       <use xlink:href="#DejaVuSans-30" x="147.412109"/>
      </g>
     </g>
    </g>
    <g id="ytick_2">
     <g id="line2d_7">
      <g>
       <use xlink:href="#mad07ef7f63" x="63" y="328.463366" style="stroke: #000000; stroke-width: 0.8"/>
      </g>
     </g>
     <g id="text_8">
      <!-- −60 -->
      <g transform="translate(34.895313 332.262585)scale(0.1 -0.1)">
       <use xlink:href="#DejaVuSans-2212"/>
       <use xlink:href="#DejaVuSans-36" x="83.789062"/>
       <use xlink:href="#DejaVuSans-30" x="147.412109"/>
      </g>
     </g>
    </g>
    <g id="ytick_3">
     <g id="line2d_8">
      <g>
       <use xlink:href="#mad07ef7f63" x="63" y="280.331677" style="stroke: #000000; stroke-width: 0.8"/>
      </g>
     </g>
     <g id="text_9">
      <!-- −40 -->
      <g transform="translate(34.895313 284.130895)scale(0.1 -0.1)">
       <use xlink:href="#DejaVuSans-2212"/>
       <use xlink:href="#DejaVuSans-34" x="83.789062"/>
       <use xlink:href="#DejaVuSans-30" x="147.412109"/>
      </g>
     </g>
    </g>
    <g id="ytick_4">
     <g id="line2d_9">
      <g>
       <use xlink:href="#mad07ef7f63" x="63" y="232.199987" style="stroke: #000000; stroke-width: 0.8"/>
      </g>
     </g>
     <g id="text_10">
      <!-- −20 -->
      <g transform="translate(34.895313 235.999206)scale(0.1 -0.1)">
       <use xlink:href="#DejaVuSans-2212"/>
       <use xlink:href="#DejaVuSans-32" x="83.789062"/>
       <use xlink:href="#DejaVuSans-30" x="147.412109"/>
      </g>
     </g>
    </g>
    <g id="ytick_5">
     <g id="line2d_10">
      <g>
       <use xlink:href="#mad07ef7f63" x="63" y="184.068298" style="stroke: #000000; stroke-width: 0.8"/>
      </g>
     </g>
     <g id="text_11">
      <!-- 0 -->
      <g transform="translate(49.6375 187.867516)scale(0.1 -0.1)">
       <use xlink:href="#DejaVuSans-30"/>
      </g>
     </g>
    </g>
    <g id="ytick_6">
     <g id="line2d_11">
      <g>
       <use xlink:href="#mad07ef7f63" x="63" y="135.936608" style="stroke: #000000; stroke-width: 0.8"/>
      </g>
     </g>
     <g id="text_12">
      <!-- 20 -->
      <g transform="translate(43.275 139.735827)scale(0.1 -0.1)">
       <use xlink:href="#DejaVuSans-32"/>
       <use xlink:href="#DejaVuSans-30" x="63.623047"/>
      </g>
     </g>
    </g>
    <g id="ytick_7">
     <g id="line2d_12">
      <g>
       <use xlink:href="#mad07ef7f63" x="63" y="87.804919" style="stroke: #000000; stroke-width: 0.8"/>
      </g>
     </g>
     <g id="text_13">
      <!-- 40 -->
      <g transform="translate(43.275 91.604137)scale(0.1 -0.1)">
       <use xlink:href="#DejaVuSans-34"/>
       <use xlink:href="#DejaVuSans-30" x="63.623047"/>
      </g>
     </g>
    </g>
    <g id="text_14">
     <!-- voltage [mV] -->
     <g transform="translate(28.815625 250.624062)rotate(-90)scale(0.1 -0.1)">
      <defs>
       <path id="DejaVuSans-76" d="M 191 3500 
L 800 3500 
L 1894 563 
L 2988 3500 
L 3597 3500 
L 2284 0 
L 1503 0 
L 191 3500 
z
" transform="scale(0.015625)"/>
       <path id="DejaVuSans-6f" d="M 1959 3097 
Q 1497 3097 1228 2736 
Q 959 2375 959 1747 
Q 959 1119 1226 758 
Q 1494 397 1959 397 
Q 2419 397 2687 759 
Q 2956 1122 2956 1747 
Q 2956 2369 2687 2733 
Q 2419 3097 1959 3097 
z
M 1959 3584 
Q 2709 3584 3137 3096 
Q 3566 2609 3566 1747 
Q 3566 888 3137 398 
Q 2709 -91 1959 -91 
Q 1206 -91 779 398 
Q 353 888 353 1747 
Q 353 2609 779 3096 
Q 1206 3584 1959 3584 
z
" transform="scale(0.015625)"/>
       <path id="DejaVuSans-6c" d="M 603 4863 
L 1178 4863 
L 1178 0 
L 603 0 
L 603 4863 
z
" transform="scale(0.015625)"/>
       <path id="DejaVuSans-61" d="M 2194 1759 
Q 1497 1759 1228 1600 
Q 959 1441 959 1056 
Q 959 750 1161 570 
Q 1363 391 1709 391 
Q 2188 391 2477 730 
Q 2766 1069 2766 1631 
L 2766 1759 
L 2194 1759 
z
M 3341 1997 
L 3341 0 
L 2766 0 
L 2766 531 
Q 2569 213 2275 61 
Q 1981 -91 1556 -91 
Q 1019 -91 701 211 
Q 384 513 384 1019 
Q 384 1609 779 1909 
Q 1175 2209 1959 2209 
L 2766 2209 
L 2766 2266 
Q 2766 2663 2505 2880 
Q 2244 3097 1772 3097 
Q 1472 3097 1187 3025 
Q 903 2953 641 2809 
L 641 3341 
Q 956 3463 1253 3523 
Q 1550 3584 1831 3584 
Q 2591 3584 2966 3190 
Q 3341 2797 3341 1997 
z
" transform="scale(0.015625)"/>
       <path id="DejaVuSans-67" d="M 2906 1791 
Q 2906 2416 2648 2759 
Q 2391 3103 1925 3103 
Q 1463 3103 1205 2759 
Q 947 2416 947 1791 
Q 947 1169 1205 825 
Q 1463 481 1925 481 
Q 2391 481 2648 825 
Q 2906 1169 2906 1791 
z
M 3481 434 
Q 3481 -459 3084 -895 
Q 2688 -1331 1869 -1331 
Q 1566 -1331 1297 -1286 
Q 1028 -1241 775 -1147 
L 775 -588 
Q 1028 -725 1275 -790 
Q 1522 -856 1778 -856 
Q 2344 -856 2625 -561 
Q 2906 -266 2906 331 
L 2906 616 
Q 2728 306 2450 153 
Q 2172 0 1784 0 
Q 1141 0 747 490 
Q 353 981 353 1791 
Q 353 2603 747 3093 
Q 1141 3584 1784 3584 
Q 2172 3584 2450 3431 
Q 2728 3278 2906 2969 
L 2906 3500 
L 3481 3500 
L 3481 434 
z
" transform="scale(0.015625)"/>
       <path id="DejaVuSans-56" d="M 1831 0 
L 50 4666 
L 709 4666 
L 2188 738 
L 3669 4666 
L 4325 4666 
L 2547 0 
L 1831 0 
z
" transform="scale(0.015625)"/>
      </defs>
      <use xlink:href="#DejaVuSans-76"/>
      <use xlink:href="#DejaVuSans-6f" x="59.179688"/>
      <use xlink:href="#DejaVuSans-6c" x="120.361328"/>
      <use xlink:href="#DejaVuSans-74" x="148.144531"/>
      <use xlink:href="#DejaVuSans-61" x="187.353516"/>
      <use xlink:href="#DejaVuSans-67" x="248.632812"/>
      <use xlink:href="#DejaVuSans-65" x="312.109375"/>
      <use xlink:href="#DejaVuSans-20" x="373.632812"/>
      <use xlink:href="#DejaVuSans-5b" x="405.419922"/>
      <use xlink:href="#DejaVuSans-6d" x="444.433594"/>
      <use xlink:href="#DejaVuSans-56" x="541.845703"/>
      <use xlink:href="#DejaVuSans-5d" x="610.253906"/>
     </g>
    </g>
   </g>
   <g id="line2d_13">
    <path d="M 80.754545 340.496288 
L 82.006241 340.370183 
L 151.772727 340.432995 
L 152.314241 299.612991 
L 152.420768 255.023072 
L 152.562805 88.585133 
L 152.678209 111.70519 
L 153.565936 364.780651 
L 153.610323 364.688479 
L 153.8145 363.4243 
L 154.293873 359.065976 
L 154.959668 350.703335 
L 157.42755 315.046898 
L 157.613973 304.845146 
L 157.738255 284.706607 
L 157.835905 227.353367 
L 157.969064 110.919922 
L 158.031205 122.978354 
L 158.883423 364.391506 
L 158.945564 364.223286 
L 159.203005 362.408721 
L 159.717886 357.207611 
L 160.534595 346.272573 
L 161.8218 329.650294 
L 162.514227 320.14597 
L 162.771668 313.250864 
L 162.940336 302.256864 
L 163.064618 276.616632 
L 163.162268 199.237312 
L 163.268795 111.76367 
L 163.322059 120.485614 
L 163.863573 299.357893 
L 164.147645 364.229543 
L 164.183155 364.362387 
L 164.245295 364.196092 
L 164.493859 362.450837 
L 165.008741 357.267776 
L 165.834327 346.219868 
L 167.112655 329.718641 
L 167.813959 320.113481 
L 168.0714 313.209471 
L 168.240068 302.179372 
L 168.36435 276.390895 
L 168.462 198.553722 
L 168.568527 111.834183 
L 168.621791 120.689211 
L 169.172182 302.981006 
L 169.4385 364.150848 
L 169.482886 364.360461 
L 169.545027 364.190557 
L 169.802468 362.368531 
L 170.31735 357.151056 
L 171.151814 345.954903 
L 172.430141 329.496032 
L 173.113691 320.096635 
L 173.371132 313.17602 
L 173.5398 302.091532 
L 173.664082 276.080926 
L 173.761732 197.49817 
L 173.868259 111.849585 
L 173.921523 120.905563 
L 174.480791 306.713618 
L 174.729355 364.050493 
L 174.782618 364.360461 
L 174.844759 364.186706 
L 175.1022 362.361793 
L 175.617082 357.141189 
L 176.451545 345.943111 
L 177.729873 329.486165 
L 178.413423 320.081232 
L 178.670864 313.143049 
L 178.839532 302.002489 
L 178.963814 275.762776 
L 179.061464 196.411718 
L 179.167991 111.865469 
L 179.221255 121.124321 
L 179.7894 310.54081 
L 180.029086 364.061804 
L 180.08235 364.360702 
L 180.144491 364.182615 
L 180.401932 362.355055 
L 180.916814 357.131563 
L 181.751277 345.9318 
L 183.029605 329.476538 
L 183.713155 320.06559 
L 183.970595 313.109838 
L 184.139264 301.912482 
L 184.263545 275.437165 
L 184.361195 195.306157 
L 184.467723 111.887369 
L 184.520986 121.346449 
L 185.098009 314.452231 
L 185.328818 364.072875 
L 185.382082 364.360702 
L 185.444223 364.178764 
L 185.701664 362.348076 
L 186.216545 357.121937 
L 187.051009 345.920249 
L 188.329336 329.466912 
L 189.012886 320.050187 
L 189.270327 313.076387 
L 189.438995 301.821032 
L 189.563277 275.106741 
L 189.660927 194.196192 
L 189.767455 111.914563 
L 189.820718 121.570743 
L 190.406618 318.429834 
L 190.619673 363.950139 
L 190.681814 364.360461 
L 190.743955 364.174673 
L 191.010273 362.266733 
L 191.525155 357.006902 
L 192.368495 345.658412 
L 193.637945 329.351396 
L 194.312618 320.034304 
L 194.570059 313.042935 
L 194.738727 301.729101 
L 194.863009 274.773188 
L 194.969536 180.833487 
L 195.058309 111.90229 
L 195.12045 121.797443 
L 195.715227 322.449793 
L 195.919405 363.964338 
L 195.981545 364.360461 
L 196.043686 364.170582 
L 196.310005 362.259754 
L 196.833764 356.891386 
L 197.703736 345.147013 
L 198.955432 329.130231 
L 199.61235 320.018661 
L 199.869791 313.009003 
L 200.038459 301.636206 
L 200.162741 274.432897 
L 200.269268 179.675174 
L 200.358041 111.875336 
L 200.420182 122.027994 
L 201.023836 326.478175 
L 201.219136 363.977815 
L 201.281277 364.35998 
L 201.343418 364.166491 
L 201.609736 362.252775 
L 202.133495 356.881278 
L 202.994591 345.260122 
L 204.255164 329.120364 
L 204.912082 320.002537 
L 205.169523 312.974588 
L 205.338191 301.541868 
L 205.462473 274.085627 
L 205.569 178.509088 
L 205.657773 111.85488 
L 205.719914 122.260229 
L 206.332445 330.470939 
L 206.518868 363.991291 
L 206.581009 364.359739 
L 206.634273 364.204996 
L 206.882836 362.467923 
L 207.397718 357.292082 
L 208.214427 346.374371 
L 209.510509 329.638261 
L 210.202936 320.155596 
L 210.460377 313.300199 
L 210.629045 302.425085 
L 210.753327 277.264725 
L 210.850977 201.585032 
L 210.957505 111.840922 
L 211.019645 122.493427 
L 211.641055 334.37851 
L 211.827477 364.124857 
L 211.880741 364.359258 
L 211.934005 364.201146 
L 212.182568 362.460944 
L 212.69745 357.282215 
L 213.514159 346.362579 
L 214.810241 329.628394 
L 215.502668 320.139953 
L 215.760109 313.267229 
L 215.928777 302.336763 
L 216.053059 276.953554 
L 216.150709 200.503994 
L 216.257236 111.835146 
L 216.319377 122.726144 
L 216.949664 338.142649 
L 217.127209 364.134483 
L 217.171595 364.359739 
L 217.233736 364.197295 
L 217.4823 362.454206 
L 217.997182 357.272589 
L 218.822768 346.225644 
L 220.101095 329.723935 
L 220.8024 320.12431 
L 221.059841 313.2345 
L 221.228509 302.248682 
L 221.352791 276.641179 
L 221.450441 199.423486 
L 221.556968 111.835627 
L 221.610232 120.519547 
L 222.151745 299.408672 
L 222.426941 364.143628 
L 222.471327 364.35998 
L 222.533468 364.193444 
L 222.790909 362.373826 
L 223.314668 357.053108 
L 224.149132 345.838425 
L 225.418582 329.503492 
L 226.111009 319.939003 
L 226.36845 312.837654 
L 226.537118 301.162831 
L 226.652523 276.326398 
L 226.750173 198.33867 
L 226.8567 111.841162 
L 226.909964 120.737343 
L 227.460355 303.050075 
L 227.726673 364.152533 
L 227.771059 364.360461 
L 227.8332 364.189594 
L 228.090641 362.366847 
L 228.605523 357.14865 
L 229.439986 345.952015 
L 230.718314 329.493625 
L 231.401864 320.093025 
L 231.659305 313.168318 
L 231.827973 302.071317 
L 231.952255 276.009451 
L 232.049905 197.253661 
L 232.156432 111.852955 
L 232.209695 120.954898 
L 232.768964 306.785575 
L 233.017527 364.053141 
L 233.070791 364.360461 
L 233.132932 364.185743 
L 233.390373 362.360108 
L 233.905255 357.139023 
L 234.739718 345.940464 
L 236.018045 329.483999 
L 236.701595 320.077623 
L 236.959036 313.135589 
L 237.127705 301.982273 
L 237.251986 275.689616 
L 237.349636 196.162444 
L 237.456164 111.869801 
L 237.509427 121.174619 
L 238.077573 310.614932 
L 238.317259 364.064211 
L 238.370523 364.360702 
L 238.432664 364.181893 
L 238.698982 362.279007 
L 239.213864 357.024229 
L 240.057205 345.678868 
L 241.317777 329.474372 
L 242.001327 320.06222 
L 242.258768 313.102378 
L 242.427436 301.891786 
L 242.551718 275.36232 
L 242.649368 195.054308 
L 242.755895 111.893145 
L 242.809159 121.397228 
L 243.386182 314.528039 
L 243.616991 364.075281 
L 243.670255 364.360702 
L 243.732395 364.177802 
L 243.989836 362.346632 
L 244.504718 357.119771 
L 245.348059 345.792459 
L 246.617509 329.464505 
L 247.301059 320.046578 
L 247.5585 313.068927 
L 247.727168 301.800095 
L 247.85145 275.031415 
L 247.9491 193.94326 
L 248.055627 111.921783 
L 248.108891 121.622003 
L 248.694791 318.507326 
L 248.907845 363.953508 
L 248.969986 364.360461 
L 249.032127 364.173951 
L 249.298445 362.265289 
L 249.822205 356.899087 
L 250.692177 345.156158 
L 251.943873 329.137932 
L 252.600791 320.030694 
L 252.858232 313.035234 
L 253.0269 301.707923 
L 253.151182 274.696178 
L 253.257709 180.569774 
L 253.346482 111.895551 
L 253.408623 121.849907 
L 254.0034 322.528729 
L 254.207577 363.967466 
L 254.269718 364.360221 
L 254.331859 364.16986 
L 254.598177 362.25831 
L 255.121936 356.888979 
L 255.983032 345.269267 
L 257.22585 329.339363 
L 257.900523 320.015051 
L 258.157964 313.001302 
L 258.326632 301.614788 
L 258.450914 274.354202 
L 258.557441 179.409078 
L 258.646214 111.870041 
L 258.708355 122.081179 
L 259.312009 326.557111 
L 259.507309 363.980943 
L 259.56945 364.35998 
L 259.631591 364.165528 
L 259.906786 362.176005 
L 260.430545 356.772741 
L 261.309395 344.883251 
L 262.552214 329.012308 
L 263.200255 319.998927 
L 263.457695 312.966887 
L 263.626364 301.520209 
L 263.750645 274.005729 
L 263.857173 178.24251 
L 263.945945 111.851029 
L 264.008086 122.313415 
L 264.620618 330.548672 
L 264.807041 363.99442 
L 264.869182 364.359499 
L 264.922445 364.204274 
L 265.171009 362.466239 
L 265.685891 357.289916 
L 266.511477 346.246341 
L 267.807559 329.530686 
L 268.499986 319.983044 
L 268.757427 312.932473 
L 268.926095 301.42563 
L 269.050377 273.657255 
L 269.156905 177.08463 
L 269.245677 111.838996 
L 269.298941 120.135696 
L 269.8227 292.477468 
L 270.133405 364.2796 
L 270.168914 364.359258 
L 270.222177 364.200424 
L 270.470741 362.4595 
L 270.985623 357.280049 
L 271.802332 346.359932 
L 273.098414 329.626228 
L 273.790841 320.136343 
L 274.048282 313.259769 
L 274.21695 302.316788 
L 274.341232 276.882319 
L 274.438882 200.256693 
L 274.545409 111.834905 
L 274.598673 120.352048 
L 275.131309 295.931157 
L 275.424259 364.222805 
L 275.468645 364.358536 
L 275.521909 364.196573 
L 275.770473 362.452762 
L 276.285355 357.270423 
L 277.110941 346.222997 
L 278.389268 329.721769 
L 279.090573 320.1207 
L 279.348014 313.226798 
L 279.516682 302.228467 
L 279.640964 276.569463 
L 279.738614 199.176089 
L 279.845141 111.836109 
L 279.898405 120.569363 
L 280.439918 299.478222 
L 280.715114 364.145553 
L 280.7595 364.360221 
L 280.821641 364.192723 
L 281.079082 362.372141 
L 281.593964 357.15611 
L 282.428427 345.96092 
L 283.706755 329.501085 
L 284.390305 320.105058 
L 284.647745 313.193828 
L 284.816414 302.139904 
L 284.940695 276.254201 
L 285.038345 198.091177 
L 285.144873 111.843328 
L 285.198136 120.786918 
L 285.748527 303.120588 
L 286.014845 364.154458 
L 286.059232 364.360461 
L 286.121373 364.188631 
L 286.378814 362.365403 
L 286.902573 357.041316 
L 287.754791 345.574182 
L 289.006486 329.491459 
L 289.690036 320.089655 
L 289.947477 313.160858 
L 290.116145 302.051102 
L 290.240427 275.936772 
L 290.338077 197.00535 
L 290.444605 111.856324 
L 290.497868 121.004714 
L 291.057136 306.858254 
L 291.3057 364.055788 
L 291.358964 364.360702 
L 291.421105 364.184781 
L 291.678545 362.358664 
L 292.193427 357.136857 
L 293.027891 345.937817 
L 294.315095 329.376184 
L 294.989768 320.074013 
L 295.247209 313.127888 
L 295.415877 301.961817 
L 295.540159 275.615493 
L 295.637809 195.910546 
L 295.744336 111.874614 
L 295.7976 121.225157 
L 296.365745 310.689536 
L 296.605432 364.066858 
L 296.658695 364.360702 
L 296.720836 364.18093 
L 296.987155 362.277563 
L 297.510914 356.916414 
L 298.372009 345.301275 
L 299.632582 329.155259 
L 300.298377 319.887984 
L 300.555818 312.72671 
L 300.724486 300.852141 
L 300.839891 275.287235 
L 300.937541 194.802098 
L 301.044068 111.899161 
L 301.097332 121.448007 
L 301.674355 314.603846 
L 301.905164 364.077688 
L 301.958427 364.360702 
L 302.020568 364.17708 
L 302.286886 362.270584 
L 302.810645 356.906547 
L 303.671741 345.289964 
L 304.914559 329.356931 
L 305.589232 320.042968 
L 305.846673 313.061225 
L 306.015341 301.779398 
L 306.139623 274.955848 
L 306.24615 181.460643 
L 306.334923 111.919376 
L 306.397064 121.673504 
L 306.982964 318.584818 
L 307.196018 363.956637 
L 307.258159 364.360461 
L 307.3203 364.172989 
L 307.586618 362.263604 
L 308.110377 356.89668 
L 308.971473 345.278413 
L 310.214291 329.347064 
L 310.888964 320.027325 
L 311.146405 313.027533 
L 311.315073 301.686985 
L 311.439355 274.618926 
L 311.545882 180.306999 
L 311.634655 111.889294 
L 311.696795 121.902129 
L 312.291573 322.607183 
L 312.49575 363.970595 
L 312.557891 364.360221 
L 312.620032 364.168897 
L 312.88635 362.256625 
L 313.410109 356.886813 
L 314.280082 345.141719 
L 315.531777 329.125658 
L 316.188695 320.011201 
L 316.446136 312.99336 
L 316.614805 301.593369 
L 316.739086 274.275747 
L 316.845614 179.143993 
L 316.934386 111.865228 
L 316.996527 122.133884 
L 317.600182 326.635806 
L 317.795482 363.984072 
L 317.857623 364.35998 
L 317.910886 364.207162 
L 318.15945 362.471533 
L 318.674332 357.297377 
L 319.491041 346.380628 
L 320.796 329.538147 
L 321.488427 319.995317 
L 321.745868 312.958946 
L 321.914536 301.49855 
L 322.038818 273.926071 
L 322.145345 177.977208 
L 322.234118 111.84766 
L 322.296259 122.3666 
L 322.908791 330.626164 
L 323.095214 363.997549 
L 323.157355 364.359499 
L 323.210618 364.203311 
L 323.459182 362.464795 
L 323.974064 357.28751 
L 324.790773 346.368836 
L 326.095732 329.52828 
L 326.779282 320.148376 
L 327.036723 313.285278 
L 327.205391 302.384895 
L 327.329673 277.122978 
L 327.427323 201.092163 
L 327.53385 111.837312 
L 327.595991 122.599558 
L 328.2174 334.5282 
L 328.403823 364.129189 
L 328.457086 364.359018 
L 328.51035 364.199461 
L 328.758914 362.457816 
L 329.273795 357.277883 
L 329.318182 356.750601 
L 329.335936 357.577022 
L 329.531236 361.241769 
L 329.620009 361.414321 
L 329.664395 361.361617 
L 329.815309 360.804252 
L 330.214786 358.216933 
L 332.176664 344.662808 
L 332.869091 341.703431 
L 333.428359 340.182951 
L 333.889977 339.500444 
L 334.2717 339.290349 
L 334.644545 339.338962 
L 335.159427 339.66722 
L 336.402245 340.538163 
L 337.032532 340.677264 
L 337.893627 340.612767 
L 339.953155 340.389436 
L 342.270123 340.437568 
L 346.122859 340.43107 
L 435.845455 340.432995 
L 435.845455 340.432995 
" clip-path="url(#p729b92754c)" style="fill: none; stroke: #1f77b4; stroke-width: 1.5; stroke-linecap: square"/>
   </g>
   <g id="line2d_14">
    <path d="M 80.754545 340.496288 
L 81.100759 360.260778 
L 81.375955 365.557003 
L 81.65115 367.247235 
L 81.935223 367.817538 
L 82.23705 367.967776 
L 82.636527 367.892847 
L 83.302323 367.505696 
L 84.518509 366.503967 
L 87.6078 363.880049 
L 88.832864 363.172994 
L 89.9514 362.779607 
L 91.149832 362.5983 
L 92.738864 362.602037 
L 99.574364 362.837336 
L 139.957077 362.81908 
L 151.772727 362.81908 
L 152.243223 325.933082 
L 152.331995 294.371059 
L 152.385259 186.101779 
L 152.4474 66.96 
L 152.518418 70.733481 
L 152.660455 92.932456 
L 153.068809 208.819566 
L 153.441655 346.051281 
L 153.592568 368.895155 
L 153.71685 368.833321 
L 154.169591 368.334451 
L 154.604577 367.510213 
L 155.057318 366.134849 
L 155.554445 363.848808 
L 156.1581 359.906794 
L 157.03695 352.482289 
L 158.048959 342.240444 
L 158.386295 336.567537 
L 158.572718 329.496997 
L 158.697 314.891229 
L 158.776895 270.456208 
L 158.874545 73.024636 
L 159.007705 89.054963 
L 159.309532 175.878963 
L 159.957573 368.877748 
L 160.037468 368.830741 
L 160.481332 368.343867 
L 160.916318 367.525768 
L 161.369059 366.159187 
L 161.866186 363.884821 
L 162.460964 360.023216 
L 163.330936 352.710515 
L 164.369577 342.260297 
L 164.706914 336.658464 
L 164.902214 329.245307 
L 165.026495 314.049562 
L 165.106391 265.719429 
L 165.204041 73.020147 
L 165.319445 86.255222 
L 165.585764 160.558816 
L 166.278191 368.87756 
L 166.358086 368.83388 
L 166.80195 368.349753 
L 167.236936 367.535496 
L 167.689677 366.174385 
L 168.186805 363.907188 
L 168.781582 360.053743 
L 169.651555 352.74789 
L 170.690195 342.312701 
L 171.027532 336.759078 
L 171.222832 329.510947 
L 171.347114 315.04216 
L 171.427009 271.493769 
L 171.533536 73.053072 
L 171.657818 88.958506 
L 171.959645 175.81799 
L 172.607686 368.877301 
L 172.687582 368.830302 
L 173.131445 368.343091 
L 173.566432 367.524487 
L 174.019173 366.157187 
L 174.5163 363.881886 
L 175.111077 360.019236 
L 175.98105 352.705773 
L 177.019691 342.254573 
L 177.357027 336.64867 
L 177.552327 329.220871 
L 177.676609 313.959097 
L 177.756505 265.175685 
L 177.854155 73.020036 
L 177.969559 86.328881 
L 178.235877 160.679516 
L 178.928305 368.877554 
L 179.0082 368.833571 
L 179.452064 368.349177 
L 179.88705 367.534544 
L 180.339791 366.172897 
L 180.836918 363.904998 
L 181.431695 360.050754 
L 182.301668 352.744241 
L 183.340309 342.307694 
L 183.677645 336.749678 
L 183.872945 329.486562 
L 183.997227 314.953004 
L 184.077123 270.991741 
L 184.18365 73.059813 
L 184.307932 89.040227 
L 184.609759 175.939853 
L 185.2578 368.877249 
L 185.337695 368.829996 
L 185.781559 368.342523 
L 186.216545 367.523548 
L 186.669286 366.155723 
L 187.166414 363.879733 
L 187.761191 360.016301 
L 188.631164 352.702192 
L 189.669805 342.249614 
L 190.007141 336.639217 
L 190.202441 329.195793 
L 190.326723 313.863916 
L 190.406618 264.590834 
L 190.504268 73.019895 
L 190.619673 86.405512 
L 190.885991 160.803247 
L 191.578418 368.877553 
L 191.658314 368.833267 
L 192.102177 368.348609 
L 192.537164 367.533605 
L 192.989905 366.17143 
L 193.487032 363.902839 
L 194.081809 360.047809 
L 194.951782 352.740645 
L 195.990423 342.30274 
L 196.327759 336.740303 
L 196.523059 329.462147 
L 196.647341 314.863285 
L 196.727236 270.484117 
L 196.824886 73.062744 
L 196.958045 89.122368 
L 197.26875 178.803706 
L 197.899036 368.877258 
L 197.996686 368.822702 
L 198.44055 368.329075 
L 198.875536 367.501349 
L 199.328277 366.121093 
L 199.825405 363.828868 
L 200.429059 359.880607 
L 201.316786 352.375416 
L 202.328795 342.132311 
L 202.666132 336.41289 
L 202.852555 329.17031 
L 202.976836 313.767074 
L 203.056732 263.988011 
L 203.154382 73.020461 
L 203.260909 84.803128 
L 203.509473 152.595511 
L 204.228532 368.877547 
L 204.308427 368.832956 
L 204.752291 368.34803 
L 205.187277 367.532648 
L 205.640018 366.169935 
L 206.137145 363.900639 
L 206.731923 360.044807 
L 207.601895 352.73698 
L 208.640536 342.297694 
L 208.977873 336.730722 
L 209.173173 329.43717 
L 209.297455 314.771083 
L 209.37735 269.957058 
L 209.475 73.054457 
L 209.599282 87.39533 
L 209.883355 167.918505 
L 210.54915 368.877318 
L 210.637923 368.829373 
L 211.081786 368.341369 
L 211.516773 367.521642 
L 211.969514 366.152746 
L 212.466641 363.875356 
L 213.061418 360.010338 
L 213.940268 352.614218 
L 214.970032 342.239523 
L 215.307368 336.61993 
L 215.502668 329.144563 
L 215.62695 313.669083 
L 215.706845 263.372434 
L 215.804495 73.021542 
L 215.911023 84.878043 
L 216.159586 152.722325 
L 216.878645 368.877538 
L 216.958541 368.832647 
L 217.402405 368.347453 
L 217.837391 367.531693 
L 218.290132 366.168443 
L 218.787259 363.898444 
L 219.382036 360.041812 
L 220.252009 352.733323 
L 221.29065 342.292655 
L 221.627986 336.721148 
L 221.823286 329.412187 
L 221.947568 314.678727 
L 222.027464 269.425434 
L 222.125114 73.046891 
L 222.249395 87.475671 
L 222.533468 168.043882 
L 223.199264 368.877372 
L 223.288036 368.829061 
L 223.7319 368.34079 
L 224.166886 367.520686 
L 224.619627 366.151253 
L 225.116755 363.873162 
L 225.711532 360.007349 
L 226.590382 352.610569 
L 227.620145 342.234461 
L 227.957482 336.610248 
L 228.152782 329.118808 
L 228.277064 313.570929 
L 228.348082 274.701486 
L 228.454609 73.023407 
L 228.587768 90.273183 
L 228.916227 185.927888 
L 229.528759 368.877524 
L 229.626409 368.818341 
L 230.07915 368.307997 
L 230.514136 367.46662 
L 230.966877 366.067037 
L 231.464005 363.749681 
L 232.067659 359.772857 
L 232.964264 352.163604 
L 233.958518 342.062827 
L 234.286977 336.497387 
L 234.4734 329.387222 
L 234.597682 314.586238 
L 234.677577 268.892051 
L 234.775227 73.040647 
L 234.899509 87.555021 
L 235.183582 168.16755 
L 235.849377 368.87742 
L 235.93815 368.82875 
L 236.382014 368.340215 
L 236.817 367.519737 
L 237.269741 366.149772 
L 237.766868 363.870985 
L 238.370523 359.938101 
L 239.249373 352.526183 
L 240.270259 342.229443 
L 240.607595 336.600647 
L 240.802895 329.093253 
L 240.927177 313.473412 
L 240.998195 274.23544 
L 241.104723 73.026 
L 241.237882 90.357754 
L 241.566341 186.048534 
L 242.178873 368.877506 
L 242.276523 368.818023 
L 242.729264 368.307412 
L 243.16425 367.465657 
L 243.616991 366.065538 
L 244.114118 363.74749 
L 244.717773 359.769882 
L 245.614377 352.159999 
L 246.608632 342.057786 
L 246.937091 336.4877 
L 247.123514 329.362504 
L 247.247795 314.494104 
L 247.327691 268.354608 
L 247.425341 73.035186 
L 247.549623 87.634567 
L 247.833695 168.291302 
L 248.499491 368.877461 
L 248.588264 368.828439 
L 249.032127 368.339639 
L 249.467114 367.518786 
L 249.919855 366.148288 
L 250.416982 363.868803 
L 251.020636 359.935119 
L 251.899486 352.522555 
L 252.920373 342.224416 
L 253.257709 336.591026 
L 253.453009 329.067537 
L 253.577291 313.375135 
L 253.648309 273.765325 
L 253.754836 73.029406 
L 253.887995 90.442399 
L 254.216455 186.169302 
L 254.828986 368.877483 
L 254.917759 368.82479 
L 255.361623 368.332909 
L 255.796609 367.507676 
L 256.24935 366.130955 
L 256.746477 363.843344 
L 257.350132 359.900353 
L 258.237859 352.399422 
L 259.249868 342.165763 
L 259.587205 336.477946 
L 259.773627 329.337551 
L 259.897909 314.400276 
L 259.977805 267.801643 
L 260.075455 73.030391 
L 260.199736 87.715491 
L 260.483809 168.416817 
L 261.149605 368.877497 
L 261.238377 368.828124 
L 261.682241 368.339057 
L 262.117227 367.517824 
L 262.569968 366.146787 
L 263.067095 363.866598 
L 263.67075 359.932106 
L 264.5496 352.518888 
L 265.570486 342.219335 
L 265.907823 336.581297 
L 266.094245 329.599162 
L 266.218527 315.362713 
L 266.298423 273.282688 
L 266.40495 73.033689 
L 266.538109 90.528806 
L 266.866568 186.292647 
L 267.4791 368.877451 
L 267.567873 368.824468 
L 268.011736 368.332317 
L 268.446723 367.506698 
L 268.899464 366.129431 
L 269.396591 363.841106 
L 270.000245 359.8973 
L 270.887973 352.39571 
L 271.899982 342.160604 
L 272.237318 336.467932 
L 272.423741 329.311875 
L 272.548023 314.303441 
L 272.627918 267.230356 
L 272.725568 73.026523 
L 272.840973 86.052142 
L 273.107291 160.229983 
L 273.799718 368.877523 
L 273.879614 368.834674 
L 274.323477 368.351239 
L 274.758464 367.537952 
L 275.211205 366.178224 
L 275.708332 363.91284 
L 276.303109 360.061458 
L 277.173082 352.757317 
L 278.211723 342.325693 
L 278.549059 336.783522 
L 278.744359 329.574358 
L 278.868641 315.273042 
L 278.948536 272.786083 
L 279.055064 73.038258 
L 279.188223 90.615959 
L 279.525559 189.121618 
L 280.129214 368.877416 
L 280.226864 368.817052 
L 280.679605 368.305621 
L 281.114591 367.46271 
L 281.567332 366.06096 
L 282.064459 363.740795 
L 282.668114 359.760793 
L 283.564718 352.148985 
L 284.558973 342.042359 
L 284.887432 336.458032 
L 285.073855 329.286455 
L 285.198136 314.207419 
L 285.278032 266.662669 
L 285.375682 73.023712 
L 285.491086 86.129628 
L 285.757405 160.356294 
L 286.449832 368.877537 
L 286.529727 368.834365 
L 286.973591 368.35066 
L 287.408577 367.536996 
L 287.861318 366.17673 
L 288.358445 363.91064 
L 288.953223 360.058454 
L 289.823195 352.753648 
L 290.861836 342.320643 
L 291.199173 336.774033 
L 291.394473 329.549772 
L 291.518755 315.183985 
L 291.59865 272.290678 
L 291.705177 73.043453 
L 291.829459 88.826891 
L 292.131286 175.621215 
L 292.779327 368.877375 
L 292.859223 368.830794 
L 293.303086 368.344006 
L 293.738073 367.525997 
L 294.190814 366.159546 
L 294.687941 363.885355 
L 295.282718 360.023965 
L 296.152691 352.711544 
L 297.191332 342.262559 
L 297.528668 336.663886 
L 297.723968 329.261187 
L 297.84825 314.111846 
L 297.928145 266.096123 
L 298.025795 73.021755 
L 298.1412 86.206404 
L 298.407518 160.481206 
L 299.099945 368.877547 
L 299.179841 368.834058 
L 299.623705 368.350086 
L 300.058691 367.536047 
L 300.511432 366.175246 
L 301.008559 363.908456 
L 301.603336 360.055473 
L 302.473309 352.750006 
L 303.51195 342.315632 
L 303.849286 336.764614 
L 304.044586 329.525345 
L 304.168868 315.09482 
L 304.248764 271.790186 
L 304.355291 73.049329 
L 304.479573 88.909971 
L 304.7814 175.745531 
L 305.429441 368.877329 
L 305.509336 368.830483 
L 305.9532 368.343428 
L 306.388186 367.525043 
L 306.840927 366.158056 
L 307.338055 363.883164 
L 307.932832 360.020977 
L 308.802805 352.707898 
L 309.841445 342.257514 
L 310.178782 336.654275 
L 310.374082 329.235728 
L 310.498364 314.015428 
L 310.578259 265.518152 
L 310.675909 73.020505 
L 310.791314 86.283396 
L 311.057632 160.605942 
L 311.750059 368.877552 
L 311.829955 368.833751 
L 312.273818 368.349514 
L 312.708805 367.535101 
L 313.161545 366.173768 
L 313.658673 363.90628 
L 314.25345 360.052504 
L 315.123423 352.746378 
L 316.162064 342.310637 
L 316.4994 336.755217 
L 316.6947 329.500953 
L 316.818982 315.005659 
L 316.898877 271.288337 
L 317.005405 73.055755 
L 317.129686 88.992005 
L 317.431514 175.867954 
L 318.079555 368.877281 
L 318.15945 368.830177 
L 318.603314 368.342859 
L 319.0383 367.524103 
L 319.491041 366.156589 
L 319.988168 363.881006 
L 320.582945 360.018037 
L 321.452918 352.70431 
L 322.491559 342.252547 
L 322.828895 336.644809 
L 323.024195 329.21063 
L 323.148477 313.920244 
L 323.228373 264.939216 
L 323.326023 73.019966 
L 323.441427 86.359887 
L 323.707745 160.729637 
L 324.400173 368.877554 
L 324.480068 368.833447 
L 324.923932 368.348947 
L 325.358918 367.534163 
L 325.811659 366.172302 
L 326.308786 363.904122 
L 326.903564 360.049559 
L 327.773536 352.742782 
L 328.812177 342.305684 
L 329.149514 336.745884 
L 329.540114 324.709023 
L 329.637764 309.649243 
L 329.708782 255.888597 
L 329.806432 73.77093 
L 329.895205 83.36912 
L 330.117136 141.772662 
L 330.9516 369.359959 
L 332.407473 369.256358 
L 333.517132 368.979309 
L 334.520264 368.494421 
L 335.656555 367.684326 
L 337.378745 366.143287 
L 339.660205 364.146209 
L 340.947409 363.317158 
L 342.065945 362.854673 
L 343.219991 362.621263 
L 344.640355 362.576197 
L 356.908745 362.818428 
L 435.845455 362.81908 
L 435.845455 362.81908 
" clip-path="url(#p729b92754c)" style="fill: none; stroke: #ff0000; stroke-width: 1.5; stroke-linecap: square"/>
   </g>
   <g id="patch_3">
    <path d="M 63 384.48 
L 63 51.84 
" style="fill: none; stroke: #000000; stroke-width: 0.8; stroke-linejoin: miter; stroke-linecap: square"/>
   </g>
   <g id="patch_4">
    <path d="M 453.6 384.48 
L 453.6 51.84 
" style="fill: none; stroke: #000000; stroke-width: 0.8; stroke-linejoin: miter; stroke-linecap: square"/>
   </g>
   <g id="patch_5">
    <path d="M 63 384.48 
L 453.6 384.48 
" style="fill: none; stroke: #000000; stroke-width: 0.8; stroke-linejoin: miter; stroke-linecap: square"/>
   </g>
   <g id="patch_6">
    <path d="M 63 51.84 
L 453.6 51.84 
" style="fill: none; stroke: #000000; stroke-width: 0.8; stroke-linejoin: miter; stroke-linecap: square"/>
   </g>
   <g id="legend_1">
    <g id="patch_7">
     <path d="M 383.460938 89.19625 
L 446.6 89.19625 
Q 448.6 89.19625 448.6 87.19625 
L 448.6 58.84 
Q 448.6 56.84 446.6 56.84 
L 383.460938 56.84 
Q 381.460938 56.84 381.460938 58.84 
L 381.460938 87.19625 
Q 381.460938 89.19625 383.460938 89.19625 
z
" style="fill: #ffffff; opacity: 0.8; stroke: #cccccc; stroke-linejoin: miter"/>
    </g>
    <g id="line2d_15">
     <path d="M 385.460938 64.938437 
L 395.460938 64.938437 
L 405.460938 64.938437 
" style="fill: none; stroke: #1f77b4; stroke-width: 1.5; stroke-linecap: square"/>
    </g>
    <g id="text_15">
     <!-- target -->
     <g transform="translate(413.460938 68.438437)scale(0.1 -0.1)">
      <defs>
       <path id="DejaVuSans-72" d="M 2631 2963 
Q 2534 3019 2420 3045 
Q 2306 3072 2169 3072 
Q 1681 3072 1420 2755 
Q 1159 2438 1159 1844 
L 1159 0 
L 581 0 
L 581 3500 
L 1159 3500 
L 1159 2956 
Q 1341 3275 1631 3429 
Q 1922 3584 2338 3584 
Q 2397 3584 2469 3576 
Q 2541 3569 2628 3553 
L 2631 2963 
z
" transform="scale(0.015625)"/>
      </defs>
      <use xlink:href="#DejaVuSans-74"/>
      <use xlink:href="#DejaVuSans-61" x="39.208984"/>
      <use xlink:href="#DejaVuSans-72" x="100.488281"/>
      <use xlink:href="#DejaVuSans-67" x="139.851562"/>
      <use xlink:href="#DejaVuSans-65" x="203.328125"/>
      <use xlink:href="#DejaVuSans-74" x="264.851562"/>
     </g>
    </g>
    <g id="line2d_16">
     <path d="M 385.460938 79.616562 
L 395.460938 79.616562 
L 405.460938 79.616562 
" style="fill: none; stroke: #ff0000; stroke-width: 1.5; stroke-linecap: square"/>
    </g>
    <g id="text_16">
     <!-- model -->
     <g transform="translate(413.460938 83.116562)scale(0.1 -0.1)">
      <defs>
       <path id="DejaVuSans-64" d="M 2906 2969 
L 2906 4863 
L 3481 4863 
L 3481 0 
L 2906 0 
L 2906 525 
Q 2725 213 2448 61 
Q 2172 -91 1784 -91 
Q 1150 -91 751 415 
Q 353 922 353 1747 
Q 353 2572 751 3078 
Q 1150 3584 1784 3584 
Q 2172 3584 2448 3432 
Q 2725 3281 2906 2969 
z
M 947 1747 
Q 947 1113 1208 752 
Q 1469 391 1925 391 
Q 2381 391 2643 752 
Q 2906 1113 2906 1747 
Q 2906 2381 2643 2742 
Q 2381 3103 1925 3103 
Q 1469 3103 1208 2742 
Q 947 2381 947 1747 
z
" transform="scale(0.015625)"/>
      </defs>
      <use xlink:href="#DejaVuSans-6d"/>
      <use xlink:href="#DejaVuSans-6f" x="97.412109"/>
      <use xlink:href="#DejaVuSans-64" x="158.59375"/>
      <use xlink:href="#DejaVuSans-65" x="222.070312"/>
      <use xlink:href="#DejaVuSans-6c" x="283.59375"/>
     </g>
    </g>
   </g>
  </g>
 </g>
 <defs>
  <clipPath id="p729b92754c">
   <rect x="63" y="51.84" width="390.6" height="332.64"/>
  </clipPath>
 </defs>
</svg>
