<?xml version="1.0" encoding="utf-8" standalone="no"?>
<!DOCTYPE svg PUBLIC "-//W3C//DTD SVG 1.1//EN"
  "http://www.w3.org/Graphics/SVG/1.1/DTD/svg11.dtd">
<svg xmlns:xlink="http://www.w3.org/1999/xlink" width="504pt" height="432pt" viewBox="0 0 504 432" xmlns="http://www.w3.org/2000/svg" version="1.1">
 <metadata>
  <rdf:RDF xmlns:dc="http://purl.org/dc/elements/1.1/" xmlns:cc="http://creativecommons.org/ns#" xmlns:rdf="http://www.w3.org/1999/02/22-rdf-syntax-ns#">
   <cc:Work>
    <dc:type rdf:resource="http://purl.org/dc/dcmitype/StillImage"/>
    <dc:date>2022-01-30T19:40:55.290248</dc:date>
    <dc:format>image/svg+xml</dc:format>
    <dc:creator>
     <cc:Agent>
      <dc:title>Matplotlib v3.5.1, https://matplotlib.org/</dc:title>
     </cc:Agent>
    </dc:creator>
   </cc:Work>
  </rdf:RDF>
 </metadata>
 <defs>
  <style type="text/css">*{stroke-linejoin: round; stroke-linecap: butt}</style>
 </defs>
 <g id="figure_1">
  <g id="patch_1">
   <path d="M 0 432 
L 504 432 
L 504 0 
L 0 0 
z
" style="fill: #ffffff"/>
  </g>
  <g id="axes_1">
   <g id="patch_2">
    <path d="M 63 384.48 
L 453.6 384.48 
L 453.6 51.84 
L 63 51.84 
z
" style="fill: #ffffff"/>
   </g>
   <g id="matplotlib.axis_1">
    <g id="xtick_1">
     <g id="line2d_1">
      <defs>
       <path id="m932c33dcd4" d="M 0 0 
L 0 3.5 
" style="stroke: #000000; stroke-width: 0.8"/>
      </defs>
      <g>
       <use xlink:href="#m932c33dcd4" x="80.754545" y="384.48" style="stroke: #000000; stroke-width: 0.8"/>
      </g>
     </g>
     <g id="text_1">
      <!-- 0 -->
      <g transform="translate(77.573295 399.078438)scale(0.1 -0.1)">
       <defs>
        <path id="DejaVuSans-30" d="M 2034 4250 
Q 1547 4250 1301 3770 
Q 1056 3291 1056 2328 
Q 1056 1369 1301 889 
Q 1547 409 2034 409 
Q 2525 409 2770 889 
Q 3016 1369 3016 2328 
Q 3016 3291 2770 3770 
Q 2525 4250 2034 4250 
z
M 2034 4750 
Q 2819 4750 3233 4129 
Q 3647 3509 3647 2328 
Q 3647 1150 3233 529 
Q 2819 -91 2034 -91 
Q 1250 -91 836 529 
Q 422 1150 422 2328 
Q 422 3509 836 4129 
Q 1250 4750 2034 4750 
z
" transform="scale(0.015625)"/>
       </defs>
       <use xlink:href="#DejaVuSans-30"/>
      </g>
     </g>
    </g>
    <g id="xtick_2">
     <g id="line2d_2">
      <g>
       <use xlink:href="#m932c33dcd4" x="151.772727" y="384.48" style="stroke: #000000; stroke-width: 0.8"/>
      </g>
     </g>
     <g id="text_2">
      <!-- 200 -->
      <g transform="translate(142.228977 399.078438)scale(0.1 -0.1)">
       <defs>
        <path id="DejaVuSans-32" d="M 1228 531 
L 3431 531 
L 3431 0 
L 469 0 
L 469 531 
Q 828 903 1448 1529 
Q 2069 2156 2228 2338 
Q 2531 2678 2651 2914 
Q 2772 3150 2772 3378 
Q 2772 3750 2511 3984 
Q 2250 4219 1831 4219 
Q 1534 4219 1204 4116 
Q 875 4013 500 3803 
L 500 4441 
Q 881 4594 1212 4672 
Q 1544 4750 1819 4750 
Q 2544 4750 2975 4387 
Q 3406 4025 3406 3419 
Q 3406 3131 3298 2873 
Q 3191 2616 2906 2266 
Q 2828 2175 2409 1742 
Q 1991 1309 1228 531 
z
" transform="scale(0.015625)"/>
       </defs>
       <use xlink:href="#DejaVuSans-32"/>
       <use xlink:href="#DejaVuSans-30" x="63.623047"/>
       <use xlink:href="#DejaVuSans-30" x="127.246094"/>
      </g>
     </g>
    </g>
    <g id="xtick_3">
     <g id="line2d_3">
      <g>
       <use xlink:href="#m932c33dcd4" x="222.790909" y="384.48" style="stroke: #000000; stroke-width: 0.8"/>
      </g>
     </g>
     <g id="text_3">
      <!-- 400 -->
      <g transform="translate(213.247159 399.078438)scale(0.1 -0.1)">
       <defs>
        <path id="DejaVuSans-34" d="M 2419 4116 
L 825 1625 
L 2419 1625 
L 2419 4116 
z
M 2253 4666 
L 3047 4666 
L 3047 1625 
L 3713 1625 
L 3713 1100 
L 3047 1100 
L 3047 0 
L 2419 0 
L 2419 1100 
L 313 1100 
L 313 1709 
L 2253 4666 
z
" transform="scale(0.015625)"/>
       </defs>
       <use xlink:href="#DejaVuSans-34"/>
       <use xlink:href="#DejaVuSans-30" x="63.623047"/>
       <use xlink:href="#DejaVuSans-30" x="127.246094"/>
      </g>
     </g>
    </g>
    <g id="xtick_4">
     <g id="line2d_4">
      <g>
       <use xlink:href="#m932c33dcd4" x="293.809091" y="384.48" style="stroke: #000000; stroke-width: 0.8"/>
      </g>
     </g>
     <g id="text_4">
      <!-- 600 -->
      <g transform="translate(284.265341 399.078438)scale(0.1 -0.1)">
       <defs>
        <path id="DejaVuSans-36" d="M 2113 2584 
Q 1688 2584 1439 2293 
Q 1191 2003 1191 1497 
Q 1191 994 1439 701 
Q 1688 409 2113 409 
Q 2538 409 2786 701 
Q 3034 994 3034 1497 
Q 3034 2003 2786 2293 
Q 2538 2584 2113 2584 
z
M 3366 4563 
L 3366 3988 
Q 3128 4100 2886 4159 
Q 2644 4219 2406 4219 
Q 1781 4219 1451 3797 
Q 1122 3375 1075 2522 
Q 1259 2794 1537 2939 
Q 1816 3084 2150 3084 
Q 2853 3084 3261 2657 
Q 3669 2231 3669 1497 
Q 3669 778 3244 343 
Q 2819 -91 2113 -91 
Q 1303 -91 875 529 
Q 447 1150 447 2328 
Q 447 3434 972 4092 
Q 1497 4750 2381 4750 
Q 2619 4750 2861 4703 
Q 3103 4656 3366 4563 
z
" transform="scale(0.015625)"/>
       </defs>
       <use xlink:href="#DejaVuSans-36"/>
       <use xlink:href="#DejaVuSans-30" x="63.623047"/>
       <use xlink:href="#DejaVuSans-30" x="127.246094"/>
      </g>
     </g>
    </g>
    <g id="xtick_5">
     <g id="line2d_5">
      <g>
       <use xlink:href="#m932c33dcd4" x="364.827273" y="384.48" style="stroke: #000000; stroke-width: 0.8"/>
      </g>
     </g>
     <g id="text_5">
      <!-- 800 -->
      <g transform="translate(355.283523 399.078438)scale(0.1 -0.1)">
       <defs>
        <path id="DejaVuSans-38" d="M 2034 2216 
Q 1584 2216 1326 1975 
Q 1069 1734 1069 1313 
Q 1069 891 1326 650 
Q 1584 409 2034 409 
Q 2484 409 2743 651 
Q 3003 894 3003 1313 
Q 3003 1734 2745 1975 
Q 2488 2216 2034 2216 
z
M 1403 2484 
Q 997 2584 770 2862 
Q 544 3141 544 3541 
Q 544 4100 942 4425 
Q 1341 4750 2034 4750 
Q 2731 4750 3128 4425 
Q 3525 4100 3525 3541 
Q 3525 3141 3298 2862 
Q 3072 2584 2669 2484 
Q 3125 2378 3379 2068 
Q 3634 1759 3634 1313 
Q 3634 634 3220 271 
Q 2806 -91 2034 -91 
Q 1263 -91 848 271 
Q 434 634 434 1313 
Q 434 1759 690 2068 
Q 947 2378 1403 2484 
z
M 1172 3481 
Q 1172 3119 1398 2916 
Q 1625 2713 2034 2713 
Q 2441 2713 2670 2916 
Q 2900 3119 2900 3481 
Q 2900 3844 2670 4047 
Q 2441 4250 2034 4250 
Q 1625 4250 1398 4047 
Q 1172 3844 1172 3481 
z
" transform="scale(0.015625)"/>
       </defs>
       <use xlink:href="#DejaVuSans-38"/>
       <use xlink:href="#DejaVuSans-30" x="63.623047"/>
       <use xlink:href="#DejaVuSans-30" x="127.246094"/>
      </g>
     </g>
    </g>
    <g id="text_6">
     <!-- time [ms] -->
     <g transform="translate(234.038281 412.756563)scale(0.1 -0.1)">
      <defs>
       <path id="DejaVuSans-74" d="M 1172 4494 
L 1172 3500 
L 2356 3500 
L 2356 3053 
L 1172 3053 
L 1172 1153 
Q 1172 725 1289 603 
Q 1406 481 1766 481 
L 2356 481 
L 2356 0 
L 1766 0 
Q 1100 0 847 248 
Q 594 497 594 1153 
L 594 3053 
L 172 3053 
L 172 3500 
L 594 3500 
L 594 4494 
L 1172 4494 
z
" transform="scale(0.015625)"/>
       <path id="DejaVuSans-69" d="M 603 3500 
L 1178 3500 
L 1178 0 
L 603 0 
L 603 3500 
z
M 603 4863 
L 1178 4863 
L 1178 4134 
L 603 4134 
L 603 4863 
z
" transform="scale(0.015625)"/>
       <path id="DejaVuSans-6d" d="M 3328 2828 
Q 3544 3216 3844 3400 
Q 4144 3584 4550 3584 
Q 5097 3584 5394 3201 
Q 5691 2819 5691 2113 
L 5691 0 
L 5113 0 
L 5113 2094 
Q 5113 2597 4934 2840 
Q 4756 3084 4391 3084 
Q 3944 3084 3684 2787 
Q 3425 2491 3425 1978 
L 3425 0 
L 2847 0 
L 2847 2094 
Q 2847 2600 2669 2842 
Q 2491 3084 2119 3084 
Q 1678 3084 1418 2786 
Q 1159 2488 1159 1978 
L 1159 0 
L 581 0 
L 581 3500 
L 1159 3500 
L 1159 2956 
Q 1356 3278 1631 3431 
Q 1906 3584 2284 3584 
Q 2666 3584 2933 3390 
Q 3200 3197 3328 2828 
z
" transform="scale(0.015625)"/>
       <path id="DejaVuSans-65" d="M 3597 1894 
L 3597 1613 
L 953 1613 
Q 991 1019 1311 708 
Q 1631 397 2203 397 
Q 2534 397 2845 478 
Q 3156 559 3463 722 
L 3463 178 
Q 3153 47 2828 -22 
Q 2503 -91 2169 -91 
Q 1331 -91 842 396 
Q 353 884 353 1716 
Q 353 2575 817 3079 
Q 1281 3584 2069 3584 
Q 2775 3584 3186 3129 
Q 3597 2675 3597 1894 
z
M 3022 2063 
Q 3016 2534 2758 2815 
Q 2500 3097 2075 3097 
Q 1594 3097 1305 2825 
Q 1016 2553 972 2059 
L 3022 2063 
z
" transform="scale(0.015625)"/>
       <path id="DejaVuSans-20" transform="scale(0.015625)"/>
       <path id="DejaVuSans-5b" d="M 550 4863 
L 1875 4863 
L 1875 4416 
L 1125 4416 
L 1125 -397 
L 1875 -397 
L 1875 -844 
L 550 -844 
L 550 4863 
z
" transform="scale(0.015625)"/>
       <path id="DejaVuSans-73" d="M 2834 3397 
L 2834 2853 
Q 2591 2978 2328 3040 
Q 2066 3103 1784 3103 
Q 1356 3103 1142 2972 
Q 928 2841 928 2578 
Q 928 2378 1081 2264 
Q 1234 2150 1697 2047 
L 1894 2003 
Q 2506 1872 2764 1633 
Q 3022 1394 3022 966 
Q 3022 478 2636 193 
Q 2250 -91 1575 -91 
Q 1294 -91 989 -36 
Q 684 19 347 128 
L 347 722 
Q 666 556 975 473 
Q 1284 391 1588 391 
Q 1994 391 2212 530 
Q 2431 669 2431 922 
Q 2431 1156 2273 1281 
Q 2116 1406 1581 1522 
L 1381 1569 
Q 847 1681 609 1914 
Q 372 2147 372 2553 
Q 372 3047 722 3315 
Q 1072 3584 1716 3584 
Q 2034 3584 2315 3537 
Q 2597 3491 2834 3397 
z
" transform="scale(0.015625)"/>
       <path id="DejaVuSans-5d" d="M 1947 4863 
L 1947 -844 
L 622 -844 
L 622 -397 
L 1369 -397 
L 1369 4416 
L 622 4416 
L 622 4863 
L 1947 4863 
z
" transform="scale(0.015625)"/>
      </defs>
      <use xlink:href="#DejaVuSans-74"/>
      <use xlink:href="#DejaVuSans-69" x="39.208984"/>
      <use xlink:href="#DejaVuSans-6d" x="66.992188"/>
      <use xlink:href="#DejaVuSans-65" x="164.404297"/>
      <use xlink:href="#DejaVuSans-20" x="225.927734"/>
      <use xlink:href="#DejaVuSans-5b" x="257.714844"/>
      <use xlink:href="#DejaVuSans-6d" x="296.728516"/>
      <use xlink:href="#DejaVuSans-73" x="394.140625"/>
      <use xlink:href="#DejaVuSans-5d" x="446.240234"/>
     </g>
    </g>
   </g>
   <g id="matplotlib.axis_2">
    <g id="ytick_1">
     <g id="line2d_6">
      <defs>
       <path id="m8b0bb1fe7d" d="M 0 0 
L -3.5 0 
" style="stroke: #000000; stroke-width: 0.8"/>
      </defs>
      <g>
       <use xlink:href="#m8b0bb1fe7d" x="63" y="382.295315" style="stroke: #000000; stroke-width: 0.8"/>
      </g>
     </g>
     <g id="text_7">
      <!-- −80 -->
      <g transform="translate(34.895313 386.094533)scale(0.1 -0.1)">
       <defs>
        <path id="DejaVuSans-2212" d="M 678 2272 
L 4684 2272 
L 4684 1741 
L 678 1741 
L 678 2272 
z
" transform="scale(0.015625)"/>
       </defs>
       <use xlink:href="#DejaVuSans-2212"/>
       <use xlink:href="#DejaVuSans-38" x="83.789062"/>
       <use xlink:href="#DejaVuSans-30" x="147.412109"/>
      </g>
     </g>
    </g>
    <g id="ytick_2">
     <g id="line2d_7">
      <g>
       <use xlink:href="#m8b0bb1fe7d" x="63" y="329.597056" style="stroke: #000000; stroke-width: 0.8"/>
      </g>
     </g>
     <g id="text_8">
      <!-- −60 -->
      <g transform="translate(34.895313 333.396274)scale(0.1 -0.1)">
       <use xlink:href="#DejaVuSans-2212"/>
       <use xlink:href="#DejaVuSans-36" x="83.789062"/>
       <use xlink:href="#DejaVuSans-30" x="147.412109"/>
      </g>
     </g>
    </g>
    <g id="ytick_3">
     <g id="line2d_8">
      <g>
       <use xlink:href="#m8b0bb1fe7d" x="63" y="276.898797" style="stroke: #000000; stroke-width: 0.8"/>
      </g>
     </g>
     <g id="text_9">
      <!-- −40 -->
      <g transform="translate(34.895313 280.698016)scale(0.1 -0.1)">
       <use xlink:href="#DejaVuSans-2212"/>
       <use xlink:href="#DejaVuSans-34" x="83.789062"/>
       <use xlink:href="#DejaVuSans-30" x="147.412109"/>
      </g>
     </g>
    </g>
    <g id="ytick_4">
     <g id="line2d_9">
      <g>
       <use xlink:href="#m8b0bb1fe7d" x="63" y="224.200538" style="stroke: #000000; stroke-width: 0.8"/>
      </g>
     </g>
     <g id="text_10">
      <!-- −20 -->
      <g transform="translate(34.895313 227.999757)scale(0.1 -0.1)">
       <use xlink:href="#DejaVuSans-2212"/>
       <use xlink:href="#DejaVuSans-32" x="83.789062"/>
       <use xlink:href="#DejaVuSans-30" x="147.412109"/>
      </g>
     </g>
    </g>
    <g id="ytick_5">
     <g id="line2d_10">
      <g>
       <use xlink:href="#m8b0bb1fe7d" x="63" y="171.502279" style="stroke: #000000; stroke-width: 0.8"/>
      </g>
     </g>
     <g id="text_11">
      <!-- 0 -->
      <g transform="translate(49.6375 175.301498)scale(0.1 -0.1)">
       <use xlink:href="#DejaVuSans-30"/>
      </g>
     </g>
    </g>
    <g id="ytick_6">
     <g id="line2d_11">
      <g>
       <use xlink:href="#m8b0bb1fe7d" x="63" y="118.80402" style="stroke: #000000; stroke-width: 0.8"/>
      </g>
     </g>
     <g id="text_12">
      <!-- 20 -->
      <g transform="translate(43.275 122.603239)scale(0.1 -0.1)">
       <use xlink:href="#DejaVuSans-32"/>
       <use xlink:href="#DejaVuSans-30" x="63.623047"/>
      </g>
     </g>
    </g>
    <g id="ytick_7">
     <g id="line2d_12">
      <g>
       <use xlink:href="#m8b0bb1fe7d" x="63" y="66.105761" style="stroke: #000000; stroke-width: 0.8"/>
      </g>
     </g>
     <g id="text_13">
      <!-- 40 -->
      <g transform="translate(43.275 69.90498)scale(0.1 -0.1)">
       <use xlink:href="#DejaVuSans-34"/>
       <use xlink:href="#DejaVuSans-30" x="63.623047"/>
      </g>
     </g>
    </g>
    <g id="text_14">
     <!-- voltage [mV] -->
     <g transform="translate(28.815625 250.624062)rotate(-90)scale(0.1 -0.1)">
      <defs>
       <path id="DejaVuSans-76" d="M 191 3500 
L 800 3500 
L 1894 563 
L 2988 3500 
L 3597 3500 
L 2284 0 
L 1503 0 
L 191 3500 
z
" transform="scale(0.015625)"/>
       <path id="DejaVuSans-6f" d="M 1959 3097 
Q 1497 3097 1228 2736 
Q 959 2375 959 1747 
Q 959 1119 1226 758 
Q 1494 397 1959 397 
Q 2419 397 2687 759 
Q 2956 1122 2956 1747 
Q 2956 2369 2687 2733 
Q 2419 3097 1959 3097 
z
M 1959 3584 
Q 2709 3584 3137 3096 
Q 3566 2609 3566 1747 
Q 3566 888 3137 398 
Q 2709 -91 1959 -91 
Q 1206 -91 779 398 
Q 353 888 353 1747 
Q 353 2609 779 3096 
Q 1206 3584 1959 3584 
z
" transform="scale(0.015625)"/>
       <path id="DejaVuSans-6c" d="M 603 4863 
L 1178 4863 
L 1178 0 
L 603 0 
L 603 4863 
z
" transform="scale(0.015625)"/>
       <path id="DejaVuSans-61" d="M 2194 1759 
Q 1497 1759 1228 1600 
Q 959 1441 959 1056 
Q 959 750 1161 570 
Q 1363 391 1709 391 
Q 2188 391 2477 730 
Q 2766 1069 2766 1631 
L 2766 1759 
L 2194 1759 
z
M 3341 1997 
L 3341 0 
L 2766 0 
L 2766 531 
Q 2569 213 2275 61 
Q 1981 -91 1556 -91 
Q 1019 -91 701 211 
Q 384 513 384 1019 
Q 384 1609 779 1909 
Q 1175 2209 1959 2209 
L 2766 2209 
L 2766 2266 
Q 2766 2663 2505 2880 
Q 2244 3097 1772 3097 
Q 1472 3097 1187 3025 
Q 903 2953 641 2809 
L 641 3341 
Q 956 3463 1253 3523 
Q 1550 3584 1831 3584 
Q 2591 3584 2966 3190 
Q 3341 2797 3341 1997 
z
" transform="scale(0.015625)"/>
       <path id="DejaVuSans-67" d="M 2906 1791 
Q 2906 2416 2648 2759 
Q 2391 3103 1925 3103 
Q 1463 3103 1205 2759 
Q 947 2416 947 1791 
Q 947 1169 1205 825 
Q 1463 481 1925 481 
Q 2391 481 2648 825 
Q 2906 1169 2906 1791 
z
M 3481 434 
Q 3481 -459 3084 -895 
Q 2688 -1331 1869 -1331 
Q 1566 -1331 1297 -1286 
Q 1028 -1241 775 -1147 
L 775 -588 
Q 1028 -725 1275 -790 
Q 1522 -856 1778 -856 
Q 2344 -856 2625 -561 
Q 2906 -266 2906 331 
L 2906 616 
Q 2728 306 2450 153 
Q 2172 0 1784 0 
Q 1141 0 747 490 
Q 353 981 353 1791 
Q 353 2603 747 3093 
Q 1141 3584 1784 3584 
Q 2172 3584 2450 3431 
Q 2728 3278 2906 2969 
L 2906 3500 
L 3481 3500 
L 3481 434 
z
" transform="scale(0.015625)"/>
       <path id="DejaVuSans-56" d="M 1831 0 
L 50 4666 
L 709 4666 
L 2188 738 
L 3669 4666 
L 4325 4666 
L 2547 0 
L 1831 0 
z
" transform="scale(0.015625)"/>
      </defs>
      <use xlink:href="#DejaVuSans-76"/>
      <use xlink:href="#DejaVuSans-6f" x="59.179688"/>
      <use xlink:href="#DejaVuSans-6c" x="120.361328"/>
      <use xlink:href="#DejaVuSans-74" x="148.144531"/>
      <use xlink:href="#DejaVuSans-61" x="187.353516"/>
      <use xlink:href="#DejaVuSans-67" x="248.632812"/>
      <use xlink:href="#DejaVuSans-65" x="312.109375"/>
      <use xlink:href="#DejaVuSans-20" x="373.632812"/>
      <use xlink:href="#DejaVuSans-5b" x="405.419922"/>
      <use xlink:href="#DejaVuSans-6d" x="444.433594"/>
      <use xlink:href="#DejaVuSans-56" x="541.845703"/>
      <use xlink:href="#DejaVuSans-5d" x="610.253906"/>
     </g>
    </g>
   </g>
   <g id="line2d_13">
    <path d="M 80.754545 342.77162 
L 81.952977 342.634868 
L 83.763941 342.691783 
L 87.749836 342.69916 
L 151.772727 342.702322 
L 152.314241 298.009456 
L 152.420768 249.188998 
L 152.562805 66.96 
L 152.678209 92.273609 
L 153.565936 369.36 
L 153.610323 369.259083 
L 153.8145 367.874963 
L 154.293873 363.103136 
L 154.959668 353.947077 
L 157.42755 314.90768 
L 157.613973 303.73802 
L 157.738255 281.688805 
L 157.835905 218.894087 
L 157.969064 91.413837 
L 158.031205 104.616331 
L 158.883423 368.933935 
L 158.945564 368.749754 
L 159.203005 366.76303 
L 159.717886 361.068456 
L 160.534595 349.095939 
L 161.8218 330.896595 
L 162.514227 320.490533 
L 162.771668 312.941244 
L 162.940336 300.904171 
L 163.064618 272.831282 
L 163.162268 188.110478 
L 163.268795 92.337637 
L 163.322059 101.887089 
L 163.863573 297.730155 
L 164.147645 368.756605 
L 164.183155 368.902052 
L 164.245295 368.71998 
L 164.493859 366.809141 
L 165.008741 361.134329 
L 165.834327 349.038234 
L 167.112655 330.971426 
L 167.813959 320.454962 
L 168.0714 312.895924 
L 168.240068 300.819327 
L 168.36435 272.584127 
L 168.462 187.362031 
L 168.568527 92.41484 
L 168.621791 102.110002 
L 169.172182 301.697017 
L 169.4385 368.670443 
L 169.482886 368.899944 
L 169.545027 368.713919 
L 169.802468 366.719027 
L 170.31735 361.006535 
L 171.151814 348.74813 
L 172.430141 330.727697 
L 173.113691 320.436517 
L 173.371132 312.859298 
L 173.5398 300.723153 
L 173.664082 272.24475 
L 173.761732 186.206332 
L 173.868259 92.431703 
L 173.921523 102.346881 
L 174.480791 305.783766 
L 174.729355 368.560567 
L 174.782618 368.899944 
L 174.844759 368.709703 
L 175.1022 366.711649 
L 175.617082 360.995732 
L 176.451545 348.735219 
L 177.729873 330.716894 
L 178.413423 320.419654 
L 178.670864 312.8232 
L 178.839532 300.625661 
L 178.963814 271.896415 
L 179.061464 185.0168 
L 179.167991 92.449094 
L 179.221255 102.586394 
L 179.7894 309.974069 
L 180.029086 368.572952 
L 180.08235 368.900208 
L 180.144491 368.705224 
L 180.401932 366.704271 
L 180.916814 360.985193 
L 181.751277 348.722835 
L 183.029605 330.706354 
L 183.713155 320.402527 
L 183.970595 312.786838 
L 184.139264 300.527115 
L 184.263545 271.539911 
L 184.361195 183.806348 
L 184.467723 92.473072 
L 184.520986 102.829597 
L 185.098009 314.256593 
L 185.328818 368.585072 
L 185.382082 368.900208 
L 185.444223 368.701008 
L 185.701664 366.69663 
L 186.216545 360.974653 
L 187.051009 348.710187 
L 188.329336 330.695814 
L 189.012886 320.385664 
L 189.270327 312.750213 
L 189.438995 300.426988 
L 189.563277 271.178137 
L 189.660927 182.591073 
L 189.767455 92.502846 
L 189.820718 103.075171 
L 190.406618 318.611577 
L 190.619673 368.450692 
L 190.681814 368.899944 
L 190.743955 368.696529 
L 191.010273 366.60757 
L 191.525155 360.848704 
L 192.368495 348.423509 
L 193.637945 330.569339 
L 194.312618 320.368273 
L 194.570059 312.713588 
L 194.738727 300.326335 
L 194.863009 270.812938 
L 194.969536 167.960561 
L 195.058309 92.489408 
L 195.12045 103.32338 
L 195.715227 323.012935 
L 195.919405 368.466238 
L 195.981545 368.899944 
L 196.043686 368.69205 
L 196.310005 366.599929 
L 196.833764 360.722228 
L 197.703736 347.86359 
L 198.955432 330.32719 
L 199.61235 320.351146 
L 199.869791 312.676435 
L 200.038459 300.224627 
L 200.162741 270.440362 
L 200.269268 166.692351 
L 200.358041 92.459897 
L 200.420182 103.575804 
L 201.023836 327.423516 
L 201.219136 368.480993 
L 201.281277 368.899417 
L 201.343418 368.68757 
L 201.609736 366.592287 
L 202.133495 360.711162 
L 202.994591 347.987431 
L 204.255164 330.316387 
L 204.912082 320.333492 
L 205.169523 312.638756 
L 205.338191 300.121339 
L 205.462473 270.060144 
L 205.569 165.41563 
L 205.657773 92.4375 
L 205.719914 103.830073 
L 206.332445 331.7951 
L 206.518868 368.495749 
L 206.581009 368.899154 
L 206.634273 368.729729 
L 206.873959 366.907687 
L 207.388841 361.27477 
L 208.187795 349.618969 
L 209.510509 330.88342 
L 210.202936 320.501073 
L 210.460377 312.99526 
L 210.629045 301.088352 
L 210.753327 273.540864 
L 210.850977 190.680941 
L 210.957505 92.422218 
L 211.019645 104.085396 
L 211.641055 336.073408 
L 211.827477 368.641986 
L 211.880741 368.898627 
L 211.934005 368.725513 
L 212.182568 366.820207 
L 212.69745 361.150138 
L 213.514159 349.194484 
L 214.810241 330.872617 
L 215.502668 320.483946 
L 215.760109 312.959161 
L 215.928777 300.99165 
L 216.053059 273.20017 
L 216.150709 189.497338 
L 216.257236 92.415894 
L 216.319377 104.340192 
L 216.949664 340.194676 
L 217.127209 368.652526 
L 217.171595 368.899154 
L 217.233736 368.721297 
L 217.4823 366.81283 
L 217.997182 361.139599 
L 218.822768 349.044558 
L 220.101095 330.977223 
L 220.8024 320.466819 
L 221.059841 312.923327 
L 221.228509 300.895213 
L 221.352791 272.858158 
L 221.450441 188.314315 
L 221.556968 92.416421 
L 221.610232 101.924241 
L 222.151745 297.785752 
L 222.426941 368.662539 
L 222.471327 368.899417 
L 222.533468 368.717081 
L 222.782032 366.805452 
L 223.296914 361.129059 
L 224.1225 349.031647 
L 225.418582 330.735865 
L 226.111009 320.263931 
L 226.36845 312.488829 
L 226.537118 299.70634 
L 226.652523 272.513511 
L 226.750173 187.126575 
L 226.8567 92.422481 
L 226.909964 102.1627 
L 227.460355 301.772639 
L 227.726673 368.672288 
L 227.771059 368.899944 
L 227.8332 368.712865 
L 228.090641 366.717182 
L 228.605523 361.003901 
L 229.439986 348.744968 
L 230.718314 330.725062 
L 231.401864 320.432565 
L 231.659305 312.850867 
L 231.827973 300.701019 
L 231.952255 272.166493 
L 232.049905 185.938625 
L 232.156432 92.435392 
L 232.209695 102.400897 
L 232.768964 305.86255 
L 233.017527 368.563466 
L 233.070791 368.899944 
L 233.132932 368.70865 
L 233.390373 366.709805 
L 233.905255 360.993361 
L 234.739718 348.732321 
L 236.018045 330.714522 
L 236.701595 320.415702 
L 236.959036 312.815032 
L 237.127705 300.603528 
L 237.251986 271.816313 
L 237.349636 184.743876 
L 237.456164 92.453837 
L 237.509427 102.641464 
L 238.077573 310.055224 
L 238.317259 368.575586 
L 238.370523 368.900208 
L 238.432664 368.704434 
L 238.690105 366.702427 
L 239.204986 360.982821 
L 240.03945 348.719936 
L 241.317777 330.703983 
L 242.001327 320.398838 
L 242.258768 312.77867 
L 242.427436 300.504455 
L 242.551718 271.457965 
L 242.649368 183.530604 
L 242.755895 92.479395 
L 242.809159 102.885194 
L 243.386182 314.339592 
L 243.616991 368.587707 
L 243.670255 368.900208 
L 243.732395 368.699954 
L 243.989836 366.695049 
L 244.504718 360.972282 
L 245.348059 348.570273 
L 246.617509 330.69318 
L 247.301059 320.381711 
L 247.5585 312.742045 
L 247.727168 300.404065 
L 247.85145 271.095665 
L 247.9491 182.314144 
L 248.055627 92.510751 
L 248.108891 103.131294 
L 248.694791 318.696421 
L 248.907845 368.45438 
L 248.969986 368.899944 
L 249.032127 368.695738 
L 249.298445 366.605989 
L 249.822205 360.73066 
L 250.692177 347.873602 
L 251.943873 330.335622 
L 252.600791 320.364321 
L 252.858232 312.705156 
L 253.0269 300.303148 
L 253.151182 270.728621 
L 253.257709 167.671827 
L 253.346482 92.48203 
L 253.408623 103.380821 
L 254.0034 323.09936 
L 254.207577 368.469663 
L 254.269718 368.899681 
L 254.331859 368.691259 
L 254.598177 366.598348 
L 255.121936 360.719593 
L 255.983032 347.997443 
L 257.22585 330.556164 
L 257.900523 320.347194 
L 258.157964 312.668004 
L 258.326632 300.201176 
L 258.450914 270.3542 
L 258.557441 166.401009 
L 258.646214 92.4541 
L 258.708355 103.634036 
L 259.312009 327.509941 
L 259.507309 368.484418 
L 259.56945 368.899417 
L 259.631591 368.686516 
L 259.897909 366.590443 
L 260.421668 360.70879 
L 261.291641 347.848044 
L 262.525582 330.545361 
L 263.200255 320.32954 
L 263.457695 312.630324 
L 263.626364 300.097624 
L 263.750645 269.972665 
L 263.857173 165.123761 
L 263.945945 92.433284 
L 264.008086 103.888305 
L 264.620618 331.880208 
L 264.807041 368.499174 
L 264.869182 368.89889 
L 264.922445 368.728938 
L 265.171009 366.826004 
L 265.685891 361.15857 
L 266.511477 349.067218 
L 267.807559 330.76564 
L 268.499986 320.312149 
L 268.757427 312.592645 
L 268.926095 299.994072 
L 269.050377 269.591129 
L 269.156905 163.856025 
L 269.245677 92.42011 
L 269.298941 101.503972 
L 269.8227 290.196939 
L 270.133405 368.811411 
L 270.168914 368.898627 
L 270.222177 368.724722 
L 270.470741 366.818626 
L 270.985623 361.147767 
L 271.802332 349.191586 
L 273.098414 330.870246 
L 273.790841 320.479993 
L 274.048282 312.950993 
L 274.21695 300.969781 
L 274.341232 273.122176 
L 274.438882 189.226574 
L 274.545409 92.41563 
L 274.598673 101.740851 
L 275.131309 293.978303 
L 275.424259 368.749227 
L 275.459768 368.899154 
L 275.521909 368.720507 
L 275.770473 366.811249 
L 276.285355 361.137227 
L 277.110941 349.041659 
L 278.389268 330.974852 
L 279.090573 320.462867 
L 279.348014 312.914895 
L 279.516682 300.873079 
L 279.640964 272.779637 
L 279.738614 188.043446 
L 279.845141 92.416948 
L 279.898405 101.978784 
L 280.439918 297.861901 
L 280.715114 368.664646 
L 280.7595 368.899681 
L 280.821641 368.716291 
L 281.079082 366.722979 
L 281.593964 361.012069 
L 282.428427 348.754717 
L 283.706755 330.73323 
L 284.390305 320.44574 
L 284.647745 312.878797 
L 284.816414 300.776114 
L 284.940695 272.434464 
L 285.038345 186.855601 
L 285.144873 92.424853 
L 285.198136 102.21698 
L 285.748527 301.849841 
L 286.014845 368.674396 
L 286.059232 368.899944 
L 286.121373 368.711811 
L 286.378814 366.715601 
L 286.893695 361.001529 
L 287.728159 348.74207 
L 289.006486 330.722691 
L 289.690036 320.428876 
L 289.947477 312.842698 
L 290.116145 300.678886 
L 290.240427 272.086919 
L 290.338077 185.666754 
L 290.444605 92.439081 
L 290.497868 102.455439 
L 291.057136 305.942125 
L 291.3057 368.566364 
L 291.358964 368.900208 
L 291.421105 368.707596 
L 291.678545 366.708224 
L 292.193427 360.99099 
L 293.027891 348.729422 
L 294.315095 330.596478 
L 294.989768 320.411749 
L 295.247209 312.8066 
L 295.415877 300.581131 
L 295.540159 271.735158 
L 295.637809 184.46808 
L 295.744336 92.459107 
L 295.7976 102.696797 
L 296.365745 310.136906 
L 296.605432 368.578485 
L 296.658695 368.900208 
L 296.720836 368.70338 
L 296.978277 366.700846 
L 297.493159 360.98045 
L 298.327623 348.717038 
L 299.60595 330.701611 
L 300.2895 320.394886 
L 300.546941 312.770238 
L 300.715609 300.481531 
L 300.839891 271.375756 
L 300.937541 183.254465 
L 301.044068 92.485983 
L 301.097332 102.94079 
L 301.674355 314.422592 
L 301.905164 368.590342 
L 301.958427 368.900208 
L 302.020568 368.699164 
L 302.286886 366.611786 
L 302.810645 360.738828 
L 303.671741 348.020104 
L 304.914559 330.575399 
L 305.589232 320.377759 
L 305.846673 312.733613 
L 306.015341 300.381404 
L 306.139623 271.012928 
L 306.24615 168.647219 
L 306.334923 92.508116 
L 306.397064 103.187682 
L 306.982964 318.781265 
L 307.196018 368.457806 
L 307.258159 368.899944 
L 307.3203 368.694684 
L 307.586618 366.604145 
L 308.110377 360.728025 
L 308.971473 348.007456 
L 310.214291 330.564596 
L 310.888964 320.360632 
L 311.146405 312.696724 
L 311.315073 300.280224 
L 311.439355 270.64404 
L 311.545882 167.384121 
L 311.634655 92.47518 
L 311.696795 103.437998 
L 312.291573 323.185259 
L 312.49575 368.473088 
L 312.557891 368.899681 
L 312.620032 368.690205 
L 312.88635 366.596503 
L 313.410109 360.717222 
L 314.280082 347.857793 
L 315.531777 330.322184 
L 316.188695 320.342978 
L 316.446136 312.659308 
L 316.614805 300.177726 
L 316.739086 270.268302 
L 316.845614 166.110773 
L 316.934386 92.44883 
L 316.996527 103.69174 
L 317.600182 327.596103 
L 317.795482 368.487844 
L 317.857623 368.899417 
L 317.910886 368.7321 
L 318.150573 366.911639 
L 318.665455 361.280566 
L 319.464409 349.625819 
L 320.787123 330.889481 
L 321.488427 320.325588 
L 321.745868 312.621629 
L 321.914536 300.07391 
L 322.038818 269.885449 
L 322.145345 164.833288 
L 322.234118 92.429596 
L 322.296259 103.946537 
L 322.908791 331.965052 
L 323.095214 368.502599 
L 323.157355 368.89889 
L 323.210618 368.727884 
L 323.459182 366.824423 
L 323.974064 361.155935 
L 324.790773 349.201335 
L 326.095732 330.763005 
L 326.779282 320.493168 
L 327.036723 312.978923 
L 327.205391 301.044349 
L 327.329673 273.385667 
L 327.427323 190.141311 
L 327.53385 92.418265 
L 327.595991 104.201596 
L 328.2174 336.2373 
L 328.403823 368.646729 
L 328.457086 368.898363 
L 328.51035 368.723669 
L 328.758914 366.816782 
L 329.273795 361.145395 
L 329.318182 360.568086 
L 329.335936 361.472915 
L 329.531236 365.485361 
L 329.620009 365.674284 
L 329.664395 365.616579 
L 329.815309 365.006333 
L 330.214786 362.173538 
L 332.176664 347.333445 
L 332.869091 344.093293 
L 333.428359 342.428555 
L 333.889977 341.681293 
L 334.262823 341.45311 
L 334.609036 341.489999 
L 335.061777 341.78063 
L 336.553159 342.876753 
L 337.156814 342.973982 
L 338.097805 342.863315 
L 339.580309 342.667805 
L 342.092577 342.704167 
L 435.845455 342.702322 
L 435.845455 342.702322 
" clip-path="url(#p2d1f24bf79)" style="fill: none; stroke: #1f77b4; stroke-width: 1.5; stroke-linecap: square"/>
   </g>
   <g id="line2d_14">
    <path d="M 80.754545 342.77162 
L 81.091882 331.061902 
L 81.464727 317.840139 
L 81.615641 303.003825 
L 81.722168 264.336734 
L 81.828695 89.968102 
L 81.873082 67.628361 
L 81.9441 77.551071 
L 82.228173 173.548624 
L 82.876214 369.331496 
L 82.893968 369.304409 
L 83.027127 368.531541 
L 83.524255 364.181746 
L 84.394227 354.154698 
L 85.335218 344.310811 
L 86.0454 339.105148 
L 86.675686 335.976664 
L 87.181691 334.431844 
L 87.590045 333.804108 
L 87.90075 333.67464 
L 88.211455 333.792504 
L 88.735214 334.288095 
L 89.427641 334.851277 
L 89.907014 334.956987 
L 90.581686 334.841747 
L 91.9044 334.618879 
L 93.511186 334.697399 
L 96.174368 334.687349 
L 151.772727 334.693504 
L 152.331995 289.285464 
L 152.420768 234.680265 
L 152.553927 76.433952 
L 152.633823 92.08681 
L 153.255232 310.124633 
L 153.486041 366.991085 
L 153.503795 367.028765 
L 153.548182 366.843351 
L 153.805623 364.272171 
L 154.418155 355.997551 
L 155.909536 335.192063 
L 157.498568 316.04021 
L 157.693868 308.450833 
L 157.835905 292.675291 
L 157.942432 247.966006 
L 158.093345 93.087434 
L 158.199873 117.30782 
L 158.98995 366.672668 
L 159.025459 366.563442 
L 159.220759 364.699053 
L 159.806659 356.964024 
L 161.440077 334.368853 
L 162.984723 316.248295 
L 163.1889 308.824162 
L 163.330936 294.332481 
L 163.437464 255.378353 
L 163.597255 93.880403 
L 163.721536 123.901428 
L 164.493859 366.644513 
L 164.538245 366.473505 
L 164.777932 364.050796 
L 165.408218 355.441639 
L 166.819705 335.719813 
L 168.541895 314.867651 
L 168.728318 306.524116 
L 168.861477 288.887522 
L 168.959127 241.408804 
L 169.110041 93.950181 
L 169.198814 114.576841 
L 169.997768 366.642233 
L 170.051032 366.410264 
L 170.335105 363.421764 
L 171.0009 354.088603 
L 172.27035 336.332289 
L 173.326745 325.37938 
L 173.868259 318.710904 
L 174.116823 312.562528 
L 174.285491 301.817896 
L 174.400895 278.428196 
L 174.498545 200.097097 
L 174.61395 93.94475 
L 174.667214 103.571388 
L 175.173218 278.853066 
L 175.501677 366.641996 
L 175.528309 366.575571 
L 175.6881 365.141652 
L 176.247368 357.952912 
L 178.049455 333.273209 
L 179.460941 317.03645 
L 179.673995 310.274127 
L 179.824909 297.342131 
L 179.931436 266.730069 
L 180.037964 145.250916 
L 180.117859 93.935779 
L 180.171123 103.502293 
L 180.66825 275.65047 
L 181.005586 366.641897 
L 181.032218 366.576744 
L 181.183132 365.23882 
L 181.733523 358.214346 
L 183.588873 332.897439 
L 184.947095 317.408132 
L 185.169027 310.713918 
L 185.319941 298.640829 
L 185.435345 266.862825 
L 185.541873 145.628562 
L 185.621768 93.927414 
L 185.675032 103.433761 
L 186.172159 275.563532 
L 186.509495 366.641797 
L 186.536127 366.577914 
L 186.687041 365.241472 
L 187.237432 358.217971 
L 189.092782 332.900096 
L 190.459882 317.232319 
L 190.681814 310.298818 
L 190.832727 297.416207 
L 190.939255 266.994886 
L 191.045782 146.005569 
L 191.125677 93.919639 
L 191.178941 103.365774 
L 191.667191 272.423615 
L 192.013405 366.641666 
L 192.048914 366.533119 
L 192.244214 364.665615 
L 192.838991 356.787806 
L 194.4369 334.632923 
L 196.017055 316.053081 
L 196.221232 308.372927 
L 196.363268 292.960245 
L 196.469795 249.970351 
L 196.629586 93.912543 
L 196.727236 117.162256 
L 197.517314 366.641519 
L 197.552823 366.534517 
L 197.748123 364.668364 
L 198.334023 356.923351 
L 199.958564 334.439839 
L 201.520964 316.059062 
L 201.725141 308.387983 
L 201.867177 293.008135 
L 201.973705 250.165078 
L 202.133495 93.905928 
L 202.240023 120.157476 
L 203.021223 366.641367 
L 203.038977 366.615969 
L 203.145505 365.794871 
L 203.633755 359.866164 
L 205.906336 329.809624 
L 206.873959 319.03212 
L 207.1314 312.945219 
L 207.300068 302.896378 
L 207.42435 278.974773 
L 207.522 202.240959 
L 207.637405 93.899591 
L 207.690668 103.162628 
L 208.161164 266.207528 
L 208.525132 366.641212 
L 208.569518 366.483518 
L 208.800327 364.172259 
L 209.421736 355.734916 
L 210.877609 335.436027 
L 212.564291 315.166831 
L 212.750714 307.285535 
L 212.883873 291.322521 
L 212.9904 243.214449 
L 213.141314 93.893889 
L 213.230086 113.911368 
L 214.029041 366.641042 
L 214.082305 366.424512 
L 214.3575 363.551588 
L 215.014418 354.390325 
L 216.3105 336.252296 
L 217.375773 325.217886 
L 217.899532 318.74479 
L 218.148095 312.637732 
L 218.316764 302.033072 
L 218.432168 279.155124 
L 218.529818 202.952949 
L 218.645223 93.888556 
L 218.698486 103.026774 
L 219.160105 263.11579 
L 219.53295 366.640859 
L 219.577336 366.486775 
L 219.808145 364.178032 
L 220.429555 355.742496 
L 221.885427 335.441715 
L 223.572109 315.180519 
L 223.758532 307.3196 
L 223.891691 291.42863 
L 223.998218 243.660274 
L 224.149132 93.883794 
L 224.237905 113.742762 
L 225.036859 366.640648 
L 225.099 366.362137 
L 225.409705 363.021041 
L 226.111009 353.036867 
L 227.291686 336.567877 
L 228.32145 325.85497 
L 228.889595 319.048657 
L 229.147036 312.981605 
L 229.315705 302.996667 
L 229.439986 279.337769 
L 229.537636 203.672851 
L 229.653041 93.879622 
L 229.715182 105.362704 
L 230.292205 309.506893 
L 230.523014 366.57154 
L 230.549645 366.638912 
L 230.594032 366.429996 
L 230.869227 363.560719 
L 231.526145 354.40203 
L 232.831105 336.158481 
L 233.914132 324.951385 
L 234.420136 318.606249 
L 234.659823 312.666507 
L 234.828491 302.114886 
L 234.943895 279.430165 
L 235.041545 204.036953 
L 235.15695 93.876189 
L 235.219091 105.287898 
L 235.787236 305.505748 
L 236.0358 366.618876 
L 236.053555 366.639221 
L 236.089064 366.491727 
L 236.319873 364.186905 
L 236.941282 355.75415 
L 238.397155 335.450465 
L 240.083836 315.201531 
L 240.270259 307.371849 
L 240.403418 291.591213 
L 240.509945 244.340449 
L 240.660859 93.873185 
L 240.758509 116.465887 
L 241.548586 366.639854 
L 241.592973 366.493387 
L 241.823782 364.189905 
L 242.445191 355.758091 
L 243.901064 335.453426 
L 245.587745 315.208636 
L 245.774168 307.389498 
L 245.907327 291.646086 
L 246.013855 244.568905 
L 246.164768 93.87074 
L 246.262418 116.375925 
L 247.061373 366.639796 
L 247.096882 366.495054 
L 247.318814 364.294474 
L 247.931345 356.029386 
L 249.422727 335.255798 
L 251.082777 315.450783 
L 251.278077 307.407145 
L 251.411236 291.700811 
L 251.517764 244.796564 
L 251.668677 93.868852 
L 251.766327 116.286184 
L 252.565282 366.640059 
L 252.600791 366.496711 
L 252.822723 364.297474 
L 253.435255 356.033342 
L 254.926636 335.258762 
L 256.586686 315.457622 
L 256.781986 307.424605 
L 256.915145 291.75484 
L 257.021673 245.021241 
L 257.172586 93.867665 
L 257.270236 116.197459 
L 258.069191 366.640302 
L 258.1047 366.498344 
L 258.326632 364.300441 
L 258.939164 356.037255 
L 260.430545 335.261695 
L 262.099473 315.22981 
L 262.285895 307.441911 
L 262.419055 291.808379 
L 262.525582 245.243914 
L 262.676495 93.867141 
L 262.774145 116.109161 
L 263.5731 366.640539 
L 263.608609 366.499971 
L 263.830541 364.303402 
L 264.443073 356.041159 
L 265.934455 335.264623 
L 267.603382 315.236801 
L 267.789805 307.459201 
L 267.922964 291.861851 
L 268.029491 245.466352 
L 268.180405 93.867274 
L 268.278055 116.020143 
L 269.077009 366.640759 
L 269.112518 366.501604 
L 269.33445 364.306386 
L 269.946982 356.045096 
L 271.438364 335.267575 
L 273.107291 315.243848 
L 273.293714 307.476625 
L 273.426873 291.915717 
L 273.5334 245.69037 
L 273.684314 93.868011 
L 273.781964 115.93019 
L 274.580918 366.640975 
L 274.616427 366.503254 
L 274.838359 364.309406 
L 275.450891 356.049079 
L 276.942273 335.270562 
L 278.6112 315.250982 
L 278.797623 307.494263 
L 278.930782 291.970063 
L 279.037309 245.915798 
L 279.188223 93.869272 
L 279.285873 115.839479 
L 280.084827 366.641183 
L 280.120336 366.504917 
L 280.342268 364.312457 
L 280.9548 356.053105 
L 282.446182 335.273582 
L 284.115109 315.258183 
L 284.301532 307.512055 
L 284.434691 292.024795 
L 284.541218 246.141453 
L 284.692132 93.870905 
L 284.789782 115.74853 
L 285.588736 366.641379 
L 285.624245 366.506586 
L 285.8373 364.416265 
L 286.440955 356.323475 
L 287.967845 335.07706 
L 289.610141 315.498838 
L 289.805441 307.529727 
L 289.9386 292.078894 
L 290.045127 246.364281 
L 290.196041 93.872997 
L 290.293691 115.65834 
L 291.092645 366.641559 
L 291.128155 366.50824 
L 291.341209 364.4193 
L 291.944864 356.327493 
L 293.480632 334.980724 
L 295.105173 315.731905 
L 295.300473 308.115032 
L 295.442509 292.132362 
L 295.549036 246.58404 
L 295.69995 93.875887 
L 295.7976 115.568594 
L 296.596555 366.641715 
L 296.632064 366.509879 
L 296.845118 364.422322 
L 297.448773 356.331496 
L 298.984541 334.983709 
L 300.609082 315.738531 
L 300.804382 308.131434 
L 300.946418 292.185358 
L 301.052945 246.801793 
L 301.203859 93.879605 
L 301.301509 115.479437 
L 302.100464 366.641842 
L 302.14485 366.454004 
L 302.402291 363.811378 
L 303.041455 354.995558 
L 304.408555 335.891449 
L 305.544845 324.15105 
L 305.997586 318.195989 
L 306.228395 312.114102 
L 306.388186 301.524478 
L 306.503591 277.427528 
L 306.601241 196.210563 
L 306.707768 93.88414 
L 306.769909 104.312199 
L 307.311423 293.088679 
L 307.604373 366.641944 
L 307.657636 366.392204 
L 307.950586 363.285409 
L 308.625259 353.779225 
L 309.868077 336.407084 
L 310.915595 325.535588 
L 311.465986 318.820161 
L 311.71455 312.80323 
L 311.883218 302.50036 
L 312.0075 277.527463 
L 312.10515 196.596394 
L 312.211677 93.889373 
L 312.273818 104.238582 
L 312.806455 289.538379 
L 313.108282 366.642017 
L 313.161545 366.394163 
L 313.454495 363.28859 
L 314.129168 353.783258 
L 315.371986 336.410142 
L 316.419505 325.538266 
L 316.969895 318.824564 
L 317.218459 312.812849 
L 317.387127 302.527346 
L 317.511409 277.626987 
L 317.609059 196.980715 
L 317.715586 93.895353 
L 317.777727 104.165459 
L 318.310364 289.438217 
L 318.612191 366.642071 
L 318.656577 366.459373 
L 318.905141 363.924532 
L 319.544305 355.142409 
L 320.920282 335.900497 
L 322.056573 324.159421 
L 322.509314 318.210265 
L 322.749 311.784813 
L 322.908791 300.596004 
L 323.024195 274.166606 
L 323.121845 183.924265 
L 323.219495 93.90218 
L 323.281636 104.092766 
L 323.814273 289.338664 
L 324.1161 366.642106 
L 324.160486 366.461126 
L 324.40905 363.927559 
L 325.048214 355.146348 
L 326.424191 335.903476 
L 327.560482 324.162173 
L 328.013223 318.214968 
L 328.252909 311.795623 
L 328.4127 300.626985 
L 328.528105 274.277391 
L 328.625755 184.328827 
L 328.723405 93.909653 
L 328.785545 104.020762 
L 329.309305 285.890576 
L 329.628886 368.855009 
L 329.637764 368.844859 
L 329.735414 368.331331 
L 330.188155 364.373661 
L 331.022618 354.805557 
L 331.999118 344.499603 
L 332.7093 339.269017 
L 333.339586 336.125848 
L 333.854468 334.539063 
L 334.2717 333.88835 
L 334.591282 333.743947 
L 334.910864 333.850427 
L 335.452377 334.328698 
L 336.144805 334.847715 
L 336.641932 334.942599 
L 337.387623 334.813103 
L 338.621564 334.627117 
L 340.432527 334.704356 
L 345.181868 334.69421 
L 435.845455 334.693504 
L 435.845455 334.693504 
" clip-path="url(#p2d1f24bf79)" style="fill: none; stroke: #ff0000; stroke-width: 1.5; stroke-linecap: square"/>
   </g>
   <g id="patch_3">
    <path d="M 63 384.48 
L 63 51.84 
" style="fill: none; stroke: #000000; stroke-width: 0.8; stroke-linejoin: miter; stroke-linecap: square"/>
   </g>
   <g id="patch_4">
    <path d="M 453.6 384.48 
L 453.6 51.84 
" style="fill: none; stroke: #000000; stroke-width: 0.8; stroke-linejoin: miter; stroke-linecap: square"/>
   </g>
   <g id="patch_5">
    <path d="M 63 384.48 
L 453.6 384.48 
" style="fill: none; stroke: #000000; stroke-width: 0.8; stroke-linejoin: miter; stroke-linecap: square"/>
   </g>
   <g id="patch_6">
    <path d="M 63 51.84 
L 453.6 51.84 
" style="fill: none; stroke: #000000; stroke-width: 0.8; stroke-linejoin: miter; stroke-linecap: square"/>
   </g>
   <g id="legend_1">
    <g id="patch_7">
     <path d="M 383.460938 89.19625 
L 446.6 89.19625 
Q 448.6 89.19625 448.6 87.19625 
L 448.6 58.84 
Q 448.6 56.84 446.6 56.84 
L 383.460938 56.84 
Q 381.460938 56.84 381.460938 58.84 
L 381.460938 87.19625 
Q 381.460938 89.19625 383.460938 89.19625 
z
" style="fill: #ffffff; opacity: 0.8; stroke: #cccccc; stroke-linejoin: miter"/>
    </g>
    <g id="line2d_15">
     <path d="M 385.460938 64.938437 
L 395.460938 64.938437 
L 405.460938 64.938437 
" style="fill: none; stroke: #1f77b4; stroke-width: 1.5; stroke-linecap: square"/>
    </g>
    <g id="text_15">
     <!-- target -->
     <g transform="translate(413.460938 68.438437)scale(0.1 -0.1)">
      <defs>
       <path id="DejaVuSans-72" d="M 2631 2963 
Q 2534 3019 2420 3045 
Q 2306 3072 2169 3072 
Q 1681 3072 1420 2755 
Q 1159 2438 1159 1844 
L 1159 0 
L 581 0 
L 581 3500 
L 1159 3500 
L 1159 2956 
Q 1341 3275 1631 3429 
Q 1922 3584 2338 3584 
Q 2397 3584 2469 3576 
Q 2541 3569 2628 3553 
L 2631 2963 
z
" transform="scale(0.015625)"/>
      </defs>
      <use xlink:href="#DejaVuSans-74"/>
      <use xlink:href="#DejaVuSans-61" x="39.208984"/>
      <use xlink:href="#DejaVuSans-72" x="100.488281"/>
      <use xlink:href="#DejaVuSans-67" x="139.851562"/>
      <use xlink:href="#DejaVuSans-65" x="203.328125"/>
      <use xlink:href="#DejaVuSans-74" x="264.851562"/>
     </g>
    </g>
    <g id="line2d_16">
     <path d="M 385.460938 79.616562 
L 395.460938 79.616562 
L 405.460938 79.616562 
" style="fill: none; stroke: #ff0000; stroke-width: 1.5; stroke-linecap: square"/>
    </g>
    <g id="text_16">
     <!-- model -->
     <g transform="translate(413.460938 83.116562)scale(0.1 -0.1)">
      <defs>
       <path id="DejaVuSans-64" d="M 2906 2969 
L 2906 4863 
L 3481 4863 
L 3481 0 
L 2906 0 
L 2906 525 
Q 2725 213 2448 61 
Q 2172 -91 1784 -91 
Q 1150 -91 751 415 
Q 353 922 353 1747 
Q 353 2572 751 3078 
Q 1150 3584 1784 3584 
Q 2172 3584 2448 3432 
Q 2725 3281 2906 2969 
z
M 947 1747 
Q 947 1113 1208 752 
Q 1469 391 1925 391 
Q 2381 391 2643 752 
Q 2906 1113 2906 1747 
Q 2906 2381 2643 2742 
Q 2381 3103 1925 3103 
Q 1469 3103 1208 2742 
Q 947 2381 947 1747 
z
" transform="scale(0.015625)"/>
      </defs>
      <use xlink:href="#DejaVuSans-6d"/>
      <use xlink:href="#DejaVuSans-6f" x="97.412109"/>
      <use xlink:href="#DejaVuSans-64" x="158.59375"/>
      <use xlink:href="#DejaVuSans-65" x="222.070312"/>
      <use xlink:href="#DejaVuSans-6c" x="283.59375"/>
     </g>
    </g>
   </g>
  </g>
 </g>
 <defs>
  <clipPath id="p2d1f24bf79">
   <rect x="63" y="51.84" width="390.6" height="332.64"/>
  </clipPath>
 </defs>
</svg>
