<?xml version="1.0" encoding="utf-8" standalone="no"?>
<!DOCTYPE svg PUBLIC "-//W3C//DTD SVG 1.1//EN"
  "http://www.w3.org/Graphics/SVG/1.1/DTD/svg11.dtd">
<svg xmlns:xlink="http://www.w3.org/1999/xlink" width="504pt" height="432pt" viewBox="0 0 504 432" xmlns="http://www.w3.org/2000/svg" version="1.1">
 <metadata>
  <rdf:RDF xmlns:dc="http://purl.org/dc/elements/1.1/" xmlns:cc="http://creativecommons.org/ns#" xmlns:rdf="http://www.w3.org/1999/02/22-rdf-syntax-ns#">
   <cc:Work>
    <dc:type rdf:resource="http://purl.org/dc/dcmitype/StillImage"/>
    <dc:date>2022-01-31T18:31:20.435652</dc:date>
    <dc:format>image/svg+xml</dc:format>
    <dc:creator>
     <cc:Agent>
      <dc:title>Matplotlib v3.5.1, https://matplotlib.org/</dc:title>
     </cc:Agent>
    </dc:creator>
   </cc:Work>
  </rdf:RDF>
 </metadata>
 <defs>
  <style type="text/css">*{stroke-linejoin: round; stroke-linecap: butt}</style>
 </defs>
 <g id="figure_1">
  <g id="patch_1">
   <path d="M 0 432 
L 504 432 
L 504 0 
L 0 0 
z
" style="fill: #ffffff"/>
  </g>
  <g id="axes_1">
   <g id="patch_2">
    <path d="M 63 384.48 
L 453.6 384.48 
L 453.6 51.84 
L 63 51.84 
z
" style="fill: #ffffff"/>
   </g>
   <g id="matplotlib.axis_1">
    <g id="xtick_1">
     <g id="line2d_1">
      <defs>
       <path id="m17b2a710f5" d="M 0 0 
L 0 3.5 
" style="stroke: #000000; stroke-width: 0.8"/>
      </defs>
      <g>
       <use xlink:href="#m17b2a710f5" x="80.754545" y="384.48" style="stroke: #000000; stroke-width: 0.8"/>
      </g>
     </g>
     <g id="text_1">
      <!-- 0 -->
      <g transform="translate(77.573295 399.078438)scale(0.1 -0.1)">
       <defs>
        <path id="DejaVuSans-30" d="M 2034 4250 
Q 1547 4250 1301 3770 
Q 1056 3291 1056 2328 
Q 1056 1369 1301 889 
Q 1547 409 2034 409 
Q 2525 409 2770 889 
Q 3016 1369 3016 2328 
Q 3016 3291 2770 3770 
Q 2525 4250 2034 4250 
z
M 2034 4750 
Q 2819 4750 3233 4129 
Q 3647 3509 3647 2328 
Q 3647 1150 3233 529 
Q 2819 -91 2034 -91 
Q 1250 -91 836 529 
Q 422 1150 422 2328 
Q 422 3509 836 4129 
Q 1250 4750 2034 4750 
z
" transform="scale(0.015625)"/>
       </defs>
       <use xlink:href="#DejaVuSans-30"/>
      </g>
     </g>
    </g>
    <g id="xtick_2">
     <g id="line2d_2">
      <g>
       <use xlink:href="#m17b2a710f5" x="151.772727" y="384.48" style="stroke: #000000; stroke-width: 0.8"/>
      </g>
     </g>
     <g id="text_2">
      <!-- 200 -->
      <g transform="translate(142.228977 399.078438)scale(0.1 -0.1)">
       <defs>
        <path id="DejaVuSans-32" d="M 1228 531 
L 3431 531 
L 3431 0 
L 469 0 
L 469 531 
Q 828 903 1448 1529 
Q 2069 2156 2228 2338 
Q 2531 2678 2651 2914 
Q 2772 3150 2772 3378 
Q 2772 3750 2511 3984 
Q 2250 4219 1831 4219 
Q 1534 4219 1204 4116 
Q 875 4013 500 3803 
L 500 4441 
Q 881 4594 1212 4672 
Q 1544 4750 1819 4750 
Q 2544 4750 2975 4387 
Q 3406 4025 3406 3419 
Q 3406 3131 3298 2873 
Q 3191 2616 2906 2266 
Q 2828 2175 2409 1742 
Q 1991 1309 1228 531 
z
" transform="scale(0.015625)"/>
       </defs>
       <use xlink:href="#DejaVuSans-32"/>
       <use xlink:href="#DejaVuSans-30" x="63.623047"/>
       <use xlink:href="#DejaVuSans-30" x="127.246094"/>
      </g>
     </g>
    </g>
    <g id="xtick_3">
     <g id="line2d_3">
      <g>
       <use xlink:href="#m17b2a710f5" x="222.790909" y="384.48" style="stroke: #000000; stroke-width: 0.8"/>
      </g>
     </g>
     <g id="text_3">
      <!-- 400 -->
      <g transform="translate(213.247159 399.078438)scale(0.1 -0.1)">
       <defs>
        <path id="DejaVuSans-34" d="M 2419 4116 
L 825 1625 
L 2419 1625 
L 2419 4116 
z
M 2253 4666 
L 3047 4666 
L 3047 1625 
L 3713 1625 
L 3713 1100 
L 3047 1100 
L 3047 0 
L 2419 0 
L 2419 1100 
L 313 1100 
L 313 1709 
L 2253 4666 
z
" transform="scale(0.015625)"/>
       </defs>
       <use xlink:href="#DejaVuSans-34"/>
       <use xlink:href="#DejaVuSans-30" x="63.623047"/>
       <use xlink:href="#DejaVuSans-30" x="127.246094"/>
      </g>
     </g>
    </g>
    <g id="xtick_4">
     <g id="line2d_4">
      <g>
       <use xlink:href="#m17b2a710f5" x="293.809091" y="384.48" style="stroke: #000000; stroke-width: 0.8"/>
      </g>
     </g>
     <g id="text_4">
      <!-- 600 -->
      <g transform="translate(284.265341 399.078438)scale(0.1 -0.1)">
       <defs>
        <path id="DejaVuSans-36" d="M 2113 2584 
Q 1688 2584 1439 2293 
Q 1191 2003 1191 1497 
Q 1191 994 1439 701 
Q 1688 409 2113 409 
Q 2538 409 2786 701 
Q 3034 994 3034 1497 
Q 3034 2003 2786 2293 
Q 2538 2584 2113 2584 
z
M 3366 4563 
L 3366 3988 
Q 3128 4100 2886 4159 
Q 2644 4219 2406 4219 
Q 1781 4219 1451 3797 
Q 1122 3375 1075 2522 
Q 1259 2794 1537 2939 
Q 1816 3084 2150 3084 
Q 2853 3084 3261 2657 
Q 3669 2231 3669 1497 
Q 3669 778 3244 343 
Q 2819 -91 2113 -91 
Q 1303 -91 875 529 
Q 447 1150 447 2328 
Q 447 3434 972 4092 
Q 1497 4750 2381 4750 
Q 2619 4750 2861 4703 
Q 3103 4656 3366 4563 
z
" transform="scale(0.015625)"/>
       </defs>
       <use xlink:href="#DejaVuSans-36"/>
       <use xlink:href="#DejaVuSans-30" x="63.623047"/>
       <use xlink:href="#DejaVuSans-30" x="127.246094"/>
      </g>
     </g>
    </g>
    <g id="xtick_5">
     <g id="line2d_5">
      <g>
       <use xlink:href="#m17b2a710f5" x="364.827273" y="384.48" style="stroke: #000000; stroke-width: 0.8"/>
      </g>
     </g>
     <g id="text_5">
      <!-- 800 -->
      <g transform="translate(355.283523 399.078438)scale(0.1 -0.1)">
       <defs>
        <path id="DejaVuSans-38" d="M 2034 2216 
Q 1584 2216 1326 1975 
Q 1069 1734 1069 1313 
Q 1069 891 1326 650 
Q 1584 409 2034 409 
Q 2484 409 2743 651 
Q 3003 894 3003 1313 
Q 3003 1734 2745 1975 
Q 2488 2216 2034 2216 
z
M 1403 2484 
Q 997 2584 770 2862 
Q 544 3141 544 3541 
Q 544 4100 942 4425 
Q 1341 4750 2034 4750 
Q 2731 4750 3128 4425 
Q 3525 4100 3525 3541 
Q 3525 3141 3298 2862 
Q 3072 2584 2669 2484 
Q 3125 2378 3379 2068 
Q 3634 1759 3634 1313 
Q 3634 634 3220 271 
Q 2806 -91 2034 -91 
Q 1263 -91 848 271 
Q 434 634 434 1313 
Q 434 1759 690 2068 
Q 947 2378 1403 2484 
z
M 1172 3481 
Q 1172 3119 1398 2916 
Q 1625 2713 2034 2713 
Q 2441 2713 2670 2916 
Q 2900 3119 2900 3481 
Q 2900 3844 2670 4047 
Q 2441 4250 2034 4250 
Q 1625 4250 1398 4047 
Q 1172 3844 1172 3481 
z
" transform="scale(0.015625)"/>
       </defs>
       <use xlink:href="#DejaVuSans-38"/>
       <use xlink:href="#DejaVuSans-30" x="63.623047"/>
       <use xlink:href="#DejaVuSans-30" x="127.246094"/>
      </g>
     </g>
    </g>
    <g id="text_6">
     <!-- time [ms] -->
     <g transform="translate(234.038281 412.756563)scale(0.1 -0.1)">
      <defs>
       <path id="DejaVuSans-74" d="M 1172 4494 
L 1172 3500 
L 2356 3500 
L 2356 3053 
L 1172 3053 
L 1172 1153 
Q 1172 725 1289 603 
Q 1406 481 1766 481 
L 2356 481 
L 2356 0 
L 1766 0 
Q 1100 0 847 248 
Q 594 497 594 1153 
L 594 3053 
L 172 3053 
L 172 3500 
L 594 3500 
L 594 4494 
L 1172 4494 
z
" transform="scale(0.015625)"/>
       <path id="DejaVuSans-69" d="M 603 3500 
L 1178 3500 
L 1178 0 
L 603 0 
L 603 3500 
z
M 603 4863 
L 1178 4863 
L 1178 4134 
L 603 4134 
L 603 4863 
z
" transform="scale(0.015625)"/>
       <path id="DejaVuSans-6d" d="M 3328 2828 
Q 3544 3216 3844 3400 
Q 4144 3584 4550 3584 
Q 5097 3584 5394 3201 
Q 5691 2819 5691 2113 
L 5691 0 
L 5113 0 
L 5113 2094 
Q 5113 2597 4934 2840 
Q 4756 3084 4391 3084 
Q 3944 3084 3684 2787 
Q 3425 2491 3425 1978 
L 3425 0 
L 2847 0 
L 2847 2094 
Q 2847 2600 2669 2842 
Q 2491 3084 2119 3084 
Q 1678 3084 1418 2786 
Q 1159 2488 1159 1978 
L 1159 0 
L 581 0 
L 581 3500 
L 1159 3500 
L 1159 2956 
Q 1356 3278 1631 3431 
Q 1906 3584 2284 3584 
Q 2666 3584 2933 3390 
Q 3200 3197 3328 2828 
z
" transform="scale(0.015625)"/>
       <path id="DejaVuSans-65" d="M 3597 1894 
L 3597 1613 
L 953 1613 
Q 991 1019 1311 708 
Q 1631 397 2203 397 
Q 2534 397 2845 478 
Q 3156 559 3463 722 
L 3463 178 
Q 3153 47 2828 -22 
Q 2503 -91 2169 -91 
Q 1331 -91 842 396 
Q 353 884 353 1716 
Q 353 2575 817 3079 
Q 1281 3584 2069 3584 
Q 2775 3584 3186 3129 
Q 3597 2675 3597 1894 
z
M 3022 2063 
Q 3016 2534 2758 2815 
Q 2500 3097 2075 3097 
Q 1594 3097 1305 2825 
Q 1016 2553 972 2059 
L 3022 2063 
z
" transform="scale(0.015625)"/>
       <path id="DejaVuSans-20" transform="scale(0.015625)"/>
       <path id="DejaVuSans-5b" d="M 550 4863 
L 1875 4863 
L 1875 4416 
L 1125 4416 
L 1125 -397 
L 1875 -397 
L 1875 -844 
L 550 -844 
L 550 4863 
z
" transform="scale(0.015625)"/>
       <path id="DejaVuSans-73" d="M 2834 3397 
L 2834 2853 
Q 2591 2978 2328 3040 
Q 2066 3103 1784 3103 
Q 1356 3103 1142 2972 
Q 928 2841 928 2578 
Q 928 2378 1081 2264 
Q 1234 2150 1697 2047 
L 1894 2003 
Q 2506 1872 2764 1633 
Q 3022 1394 3022 966 
Q 3022 478 2636 193 
Q 2250 -91 1575 -91 
Q 1294 -91 989 -36 
Q 684 19 347 128 
L 347 722 
Q 666 556 975 473 
Q 1284 391 1588 391 
Q 1994 391 2212 530 
Q 2431 669 2431 922 
Q 2431 1156 2273 1281 
Q 2116 1406 1581 1522 
L 1381 1569 
Q 847 1681 609 1914 
Q 372 2147 372 2553 
Q 372 3047 722 3315 
Q 1072 3584 1716 3584 
Q 2034 3584 2315 3537 
Q 2597 3491 2834 3397 
z
" transform="scale(0.015625)"/>
       <path id="DejaVuSans-5d" d="M 1947 4863 
L 1947 -844 
L 622 -844 
L 622 -397 
L 1369 -397 
L 1369 4416 
L 622 4416 
L 622 4863 
L 1947 4863 
z
" transform="scale(0.015625)"/>
      </defs>
      <use xlink:href="#DejaVuSans-74"/>
      <use xlink:href="#DejaVuSans-69" x="39.208984"/>
      <use xlink:href="#DejaVuSans-6d" x="66.992188"/>
      <use xlink:href="#DejaVuSans-65" x="164.404297"/>
      <use xlink:href="#DejaVuSans-20" x="225.927734"/>
      <use xlink:href="#DejaVuSans-5b" x="257.714844"/>
      <use xlink:href="#DejaVuSans-6d" x="296.728516"/>
      <use xlink:href="#DejaVuSans-73" x="394.140625"/>
      <use xlink:href="#DejaVuSans-5d" x="446.240234"/>
     </g>
    </g>
   </g>
   <g id="matplotlib.axis_2">
    <g id="ytick_1">
     <g id="line2d_6">
      <defs>
       <path id="me5f275a3b4" d="M 0 0 
L -3.5 0 
" style="stroke: #000000; stroke-width: 0.8"/>
      </defs>
      <g>
       <use xlink:href="#me5f275a3b4" x="63" y="377.048743" style="stroke: #000000; stroke-width: 0.8"/>
      </g>
     </g>
     <g id="text_7">
      <!-- −80 -->
      <g transform="translate(34.895313 380.847962)scale(0.1 -0.1)">
       <defs>
        <path id="DejaVuSans-2212" d="M 678 2272 
L 4684 2272 
L 4684 1741 
L 678 1741 
L 678 2272 
z
" transform="scale(0.015625)"/>
       </defs>
       <use xlink:href="#DejaVuSans-2212"/>
       <use xlink:href="#DejaVuSans-38" x="83.789062"/>
       <use xlink:href="#DejaVuSans-30" x="147.412109"/>
      </g>
     </g>
    </g>
    <g id="ytick_2">
     <g id="line2d_7">
      <g>
       <use xlink:href="#me5f275a3b4" x="63" y="326.64277" style="stroke: #000000; stroke-width: 0.8"/>
      </g>
     </g>
     <g id="text_8">
      <!-- −60 -->
      <g transform="translate(34.895313 330.441988)scale(0.1 -0.1)">
       <use xlink:href="#DejaVuSans-2212"/>
       <use xlink:href="#DejaVuSans-36" x="83.789062"/>
       <use xlink:href="#DejaVuSans-30" x="147.412109"/>
      </g>
     </g>
    </g>
    <g id="ytick_3">
     <g id="line2d_8">
      <g>
       <use xlink:href="#me5f275a3b4" x="63" y="276.236796" style="stroke: #000000; stroke-width: 0.8"/>
      </g>
     </g>
     <g id="text_9">
      <!-- −40 -->
      <g transform="translate(34.895313 280.036015)scale(0.1 -0.1)">
       <use xlink:href="#DejaVuSans-2212"/>
       <use xlink:href="#DejaVuSans-34" x="83.789062"/>
       <use xlink:href="#DejaVuSans-30" x="147.412109"/>
      </g>
     </g>
    </g>
    <g id="ytick_4">
     <g id="line2d_9">
      <g>
       <use xlink:href="#me5f275a3b4" x="63" y="225.830822" style="stroke: #000000; stroke-width: 0.8"/>
      </g>
     </g>
     <g id="text_10">
      <!-- −20 -->
      <g transform="translate(34.895313 229.630041)scale(0.1 -0.1)">
       <use xlink:href="#DejaVuSans-2212"/>
       <use xlink:href="#DejaVuSans-32" x="83.789062"/>
       <use xlink:href="#DejaVuSans-30" x="147.412109"/>
      </g>
     </g>
    </g>
    <g id="ytick_5">
     <g id="line2d_10">
      <g>
       <use xlink:href="#me5f275a3b4" x="63" y="175.424848" style="stroke: #000000; stroke-width: 0.8"/>
      </g>
     </g>
     <g id="text_11">
      <!-- 0 -->
      <g transform="translate(49.6375 179.224067)scale(0.1 -0.1)">
       <use xlink:href="#DejaVuSans-30"/>
      </g>
     </g>
    </g>
    <g id="ytick_6">
     <g id="line2d_11">
      <g>
       <use xlink:href="#me5f275a3b4" x="63" y="125.018875" style="stroke: #000000; stroke-width: 0.8"/>
      </g>
     </g>
     <g id="text_12">
      <!-- 20 -->
      <g transform="translate(43.275 128.818093)scale(0.1 -0.1)">
       <use xlink:href="#DejaVuSans-32"/>
       <use xlink:href="#DejaVuSans-30" x="63.623047"/>
      </g>
     </g>
    </g>
    <g id="ytick_7">
     <g id="line2d_12">
      <g>
       <use xlink:href="#me5f275a3b4" x="63" y="74.612901" style="stroke: #000000; stroke-width: 0.8"/>
      </g>
     </g>
     <g id="text_13">
      <!-- 40 -->
      <g transform="translate(43.275 78.41212)scale(0.1 -0.1)">
       <use xlink:href="#DejaVuSans-34"/>
       <use xlink:href="#DejaVuSans-30" x="63.623047"/>
      </g>
     </g>
    </g>
    <g id="text_14">
     <!-- voltage [mV] -->
     <g transform="translate(28.815625 250.624062)rotate(-90)scale(0.1 -0.1)">
      <defs>
       <path id="DejaVuSans-76" d="M 191 3500 
L 800 3500 
L 1894 563 
L 2988 3500 
L 3597 3500 
L 2284 0 
L 1503 0 
L 191 3500 
z
" transform="scale(0.015625)"/>
       <path id="DejaVuSans-6f" d="M 1959 3097 
Q 1497 3097 1228 2736 
Q 959 2375 959 1747 
Q 959 1119 1226 758 
Q 1494 397 1959 397 
Q 2419 397 2687 759 
Q 2956 1122 2956 1747 
Q 2956 2369 2687 2733 
Q 2419 3097 1959 3097 
z
M 1959 3584 
Q 2709 3584 3137 3096 
Q 3566 2609 3566 1747 
Q 3566 888 3137 398 
Q 2709 -91 1959 -91 
Q 1206 -91 779 398 
Q 353 888 353 1747 
Q 353 2609 779 3096 
Q 1206 3584 1959 3584 
z
" transform="scale(0.015625)"/>
       <path id="DejaVuSans-6c" d="M 603 4863 
L 1178 4863 
L 1178 0 
L 603 0 
L 603 4863 
z
" transform="scale(0.015625)"/>
       <path id="DejaVuSans-61" d="M 2194 1759 
Q 1497 1759 1228 1600 
Q 959 1441 959 1056 
Q 959 750 1161 570 
Q 1363 391 1709 391 
Q 2188 391 2477 730 
Q 2766 1069 2766 1631 
L 2766 1759 
L 2194 1759 
z
M 3341 1997 
L 3341 0 
L 2766 0 
L 2766 531 
Q 2569 213 2275 61 
Q 1981 -91 1556 -91 
Q 1019 -91 701 211 
Q 384 513 384 1019 
Q 384 1609 779 1909 
Q 1175 2209 1959 2209 
L 2766 2209 
L 2766 2266 
Q 2766 2663 2505 2880 
Q 2244 3097 1772 3097 
Q 1472 3097 1187 3025 
Q 903 2953 641 2809 
L 641 3341 
Q 956 3463 1253 3523 
Q 1550 3584 1831 3584 
Q 2591 3584 2966 3190 
Q 3341 2797 3341 1997 
z
" transform="scale(0.015625)"/>
       <path id="DejaVuSans-67" d="M 2906 1791 
Q 2906 2416 2648 2759 
Q 2391 3103 1925 3103 
Q 1463 3103 1205 2759 
Q 947 2416 947 1791 
Q 947 1169 1205 825 
Q 1463 481 1925 481 
Q 2391 481 2648 825 
Q 2906 1169 2906 1791 
z
M 3481 434 
Q 3481 -459 3084 -895 
Q 2688 -1331 1869 -1331 
Q 1566 -1331 1297 -1286 
Q 1028 -1241 775 -1147 
L 775 -588 
Q 1028 -725 1275 -790 
Q 1522 -856 1778 -856 
Q 2344 -856 2625 -561 
Q 2906 -266 2906 331 
L 2906 616 
Q 2728 306 2450 153 
Q 2172 0 1784 0 
Q 1141 0 747 490 
Q 353 981 353 1791 
Q 353 2603 747 3093 
Q 1141 3584 1784 3584 
Q 2172 3584 2450 3431 
Q 2728 3278 2906 2969 
L 2906 3500 
L 3481 3500 
L 3481 434 
z
" transform="scale(0.015625)"/>
       <path id="DejaVuSans-56" d="M 1831 0 
L 50 4666 
L 709 4666 
L 2188 738 
L 3669 4666 
L 4325 4666 
L 2547 0 
L 1831 0 
z
" transform="scale(0.015625)"/>
      </defs>
      <use xlink:href="#DejaVuSans-76"/>
      <use xlink:href="#DejaVuSans-6f" x="59.179688"/>
      <use xlink:href="#DejaVuSans-6c" x="120.361328"/>
      <use xlink:href="#DejaVuSans-74" x="148.144531"/>
      <use xlink:href="#DejaVuSans-61" x="187.353516"/>
      <use xlink:href="#DejaVuSans-67" x="248.632812"/>
      <use xlink:href="#DejaVuSans-65" x="312.109375"/>
      <use xlink:href="#DejaVuSans-20" x="373.632812"/>
      <use xlink:href="#DejaVuSans-5b" x="405.419922"/>
      <use xlink:href="#DejaVuSans-6d" x="444.433594"/>
      <use xlink:href="#DejaVuSans-56" x="541.845703"/>
      <use xlink:href="#DejaVuSans-5d" x="610.253906"/>
     </g>
    </g>
   </g>
   <g id="line2d_13">
    <path d="M 80.754545 339.244263 
L 81.979609 339.112703 
L 151.772727 339.177979 
L 152.314241 296.429177 
L 152.420768 249.732327 
L 152.562805 75.429982 
L 152.678209 99.642491 
L 153.565936 364.676093 
L 153.610323 364.579566 
L 153.8145 363.255653 
L 154.293873 358.691392 
L 154.959668 349.933606 
L 157.42755 312.592356 
L 157.613973 301.908558 
L 157.738255 280.818447 
L 157.835905 220.755193 
L 157.969064 98.820118 
L 158.031205 111.448326 
L 158.883423 364.268561 
L 158.945564 364.092392 
L 159.203005 362.192087 
L 159.717886 356.745217 
L 160.534595 345.293484 
L 161.8218 327.885781 
L 162.514227 317.932365 
L 162.771668 310.711458 
L 162.940336 299.197977 
L 163.064618 272.346211 
L 163.162268 191.310619 
L 163.268795 99.703734 
L 163.322059 108.837801 
L 163.863573 296.162025 
L 164.147645 364.098945 
L 164.183155 364.238065 
L 164.245295 364.063913 
L 164.493859 362.236192 
L 165.008741 356.808225 
L 165.834327 345.238289 
L 167.112655 327.957357 
L 167.813959 317.898341 
L 168.0714 310.668108 
L 168.240068 299.116823 
L 168.36435 272.109807 
L 168.462 190.594728 
L 168.568527 99.777579 
L 168.621791 109.051018 
L 169.172182 299.956335 
L 169.4385 364.016531 
L 169.482886 364.236049 
L 169.545027 364.058116 
L 169.802468 362.149998 
L 170.31735 356.68599 
L 171.151814 344.960805 
L 172.430141 327.72423 
L 173.113691 317.880699 
L 173.371132 310.633076 
L 173.5398 299.024833 
L 173.664082 271.785192 
L 173.761732 189.4893 
L 173.868259 99.793709 
L 173.921523 109.277593 
L 174.480791 303.865318 
L 174.729355 363.911434 
L 174.782618 364.236049 
L 174.844759 364.054083 
L 175.1022 362.142941 
L 175.617082 356.675657 
L 176.451545 344.948455 
L 177.729873 327.713897 
L 178.413423 317.864569 
L 178.670864 310.598548 
L 178.839532 298.931581 
L 178.963814 271.452009 
L 179.061464 188.351511 
L 179.167991 99.810343 
L 179.221255 109.506688 
L 179.7894 307.873349 
L 180.029086 363.92328 
L 180.08235 364.236301 
L 180.144491 364.049799 
L 180.401932 362.135884 
L 180.916814 356.665576 
L 181.751277 344.93661 
L 183.029605 327.703815 
L 183.713155 317.848187 
L 183.970595 310.563768 
L 184.139264 298.837322 
L 184.263545 271.111012 
L 184.361195 187.193711 
L 184.467723 99.833278 
L 184.520986 109.739312 
L 185.098009 311.969591 
L 185.328818 363.934873 
L 185.382082 364.236301 
L 185.444223 364.045766 
L 185.701664 362.128575 
L 186.216545 356.655495 
L 187.051009 344.924512 
L 188.329336 327.693734 
L 189.012886 317.832057 
L 189.270327 310.528736 
L 189.438995 298.741551 
L 189.563277 270.764975 
L 189.660927 186.031299 
L 189.767455 99.861757 
L 189.820718 109.974204 
L 190.406618 316.13514 
L 190.619673 363.806338 
L 190.681814 364.236049 
L 190.743955 364.041482 
L 191.010273 362.043389 
L 191.525155 356.535024 
L 192.368495 344.650304 
L 193.637945 327.57276 
L 194.312618 317.815423 
L 194.570059 310.493704 
L 194.738727 298.645276 
L 194.863009 270.415662 
L 194.969536 172.037189 
L 195.058309 99.848904 
L 195.12045 110.211616 
L 195.715227 320.345047 
L 195.919405 363.821208 
L 195.981545 364.236049 
L 196.043686 364.037197 
L 196.310005 362.03608 
L 196.833764 356.41405 
L 197.703736 344.11474 
L 198.955432 327.341144 
L 199.61235 317.799042 
L 199.869791 310.458168 
L 200.038459 298.547992 
L 200.162741 270.059292 
L 200.269268 170.824144 
L 200.358041 99.820676 
L 200.420182 110.45306 
L 201.023836 324.563775 
L 201.219136 363.835321 
L 201.281277 364.235545 
L 201.343418 364.032913 
L 201.609736 362.028771 
L 202.133495 356.403465 
L 202.994591 344.233194 
L 204.255164 327.330811 
L 204.912082 317.782156 
L 205.169523 310.422127 
L 205.338191 298.449196 
L 205.462473 269.695613 
L 205.569 169.602958 
L 205.657773 99.799254 
L 205.719914 110.696269 
L 206.332445 328.745203 
L 206.518868 363.849435 
L 206.581009 364.235293 
L 206.634273 364.073238 
L 206.873959 362.330451 
L 207.388841 356.942557 
L 208.187795 345.793763 
L 209.510509 327.873179 
L 210.202936 317.942447 
L 210.460377 310.763124 
L 210.629045 299.374146 
L 210.753327 273.024927 
L 210.850977 193.769271 
L 210.957505 99.784636 
L 211.019645 110.940486 
L 211.641055 332.837412 
L 211.827477 363.989312 
L 211.880741 364.234789 
L 211.934005 364.069205 
L 212.182568 362.246777 
L 212.69745 356.823346 
L 213.514159 345.387743 
L 214.810241 327.862846 
L 215.502668 317.926065 
L 215.760109 310.728596 
L 215.928777 299.281651 
L 216.053059 272.699053 
L 216.150709 192.637153 
L 216.257236 99.778587 
L 216.319377 111.184199 
L 216.949664 336.779411 
L 217.127209 363.999393 
L 217.171595 364.235293 
L 217.233736 364.065173 
L 217.4823 362.23972 
L 217.997182 356.813265 
L 218.822768 345.244338 
L 220.101095 327.962902 
L 220.8024 317.909683 
L 221.059841 310.69432 
L 221.228509 299.189408 
L 221.352791 272.371918 
L 221.450441 191.505589 
L 221.556968 99.779091 
L 221.610232 108.873337 
L 222.151745 296.215204 
L 222.426941 364.00897 
L 222.471327 364.235545 
L 222.533468 364.06114 
L 222.782032 362.232664 
L 223.296914 356.803184 
L 224.1225 345.231989 
L 225.418582 327.732043 
L 226.111009 317.71562 
L 226.36845 310.278722 
L 226.537118 298.052249 
L 226.652523 272.042263 
L 226.750173 190.369514 
L 226.8567 99.784888 
L 226.909964 109.101424 
L 227.460355 300.028668 
L 227.726673 364.018295 
L 227.771059 364.236049 
L 227.8332 364.057108 
L 228.090641 362.148233 
L 228.605523 356.68347 
L 229.439986 344.95778 
L 230.718314 327.72171 
L 231.401864 317.876919 
L 231.659305 310.625011 
L 231.827973 299.003662 
L 231.952255 271.710339 
L 232.049905 189.233237 
L 232.156432 99.797237 
L 232.209695 109.329259 
L 232.768964 303.940675 
L 233.017527 363.914207 
L 233.070791 364.236049 
L 233.132932 364.053075 
L 233.390373 362.141177 
L 233.905255 356.673389 
L 234.739718 344.945683 
L 236.018045 327.711628 
L 236.701595 317.860789 
L 236.959036 310.590735 
L 237.127705 298.910411 
L 237.251986 271.375392 
L 237.349636 188.090458 
L 237.456164 99.81488 
L 237.509427 109.559362 
L 238.077573 307.950974 
L 238.317259 363.9258 
L 238.370523 364.236301 
L 238.432664 364.049043 
L 238.698982 362.056243 
L 239.213864 356.55317 
L 240.057205 344.671726 
L 241.317777 327.701547 
L 242.001327 317.844659 
L 242.258768 310.555955 
L 242.427436 298.815648 
L 242.551718 271.032631 
L 242.649368 186.929961 
L 242.755895 99.839326 
L 242.809159 109.79249 
L 243.386182 312.04898 
L 243.616991 363.937394 
L 243.670255 364.236301 
L 243.732395 364.044758 
L 243.989836 362.127063 
L 244.504718 356.653226 
L 245.348059 344.790684 
L 246.617509 327.691214 
L 247.301059 317.828277 
L 247.5585 310.520923 
L 247.727168 298.719624 
L 247.85145 270.68609 
L 247.9491 185.766415 
L 248.055627 99.869318 
L 248.108891 110.027886 
L 248.694791 316.216294 
L 248.907845 363.809866 
L 248.969986 364.236049 
L 249.032127 364.040726 
L 249.298445 362.041877 
L 249.822205 356.422115 
L 250.692177 344.124317 
L 251.943873 327.349209 
L 252.600791 317.811643 
L 252.858232 310.485639 
L 253.0269 298.623097 
L 253.151182 270.335012 
L 253.257709 171.761015 
L 253.346482 99.841847 
L 253.408623 110.266558 
L 254.0034 320.427713 
L 254.207577 363.824484 
L 254.269718 364.235797 
L 254.331859 364.036441 
L 254.598177 362.034568 
L 255.121936 356.41153 
L 255.983032 344.242771 
L 257.22585 327.560158 
L 257.900523 317.795261 
L 258.157964 310.450103 
L 258.326632 298.525561 
L 258.450914 269.976878 
L 258.557441 170.545474 
L 258.646214 99.815132 
L 258.708355 110.508759 
L 259.312009 324.646441 
L 259.507309 363.838598 
L 259.56945 364.235545 
L 259.631591 364.031905 
L 259.897909 362.027007 
L 260.421668 356.401196 
L 261.291641 344.099871 
L 262.525582 327.549825 
L 263.200255 317.778375 
L 263.457695 310.414062 
L 263.626364 298.426514 
L 263.750645 269.611939 
L 263.857173 169.323785 
L 263.945945 99.795221 
L 264.008086 110.751968 
L 264.620618 328.826608 
L 264.807041 363.852712 
L 264.869182 364.235041 
L 264.922445 364.072482 
L 265.171009 362.252322 
L 265.685891 356.831411 
L 266.511477 345.266013 
L 267.807559 327.760522 
L 268.499986 317.761741 
L 268.757427 310.378022 
L 268.926095 298.327466 
L 269.050377 269.246999 
L 269.156905 168.111194 
L 269.245677 99.78262 
L 269.298941 108.471349 
L 269.8227 288.956491 
L 270.133405 364.151367 
L 270.168914 364.234789 
L 270.222177 364.068449 
L 270.470741 362.245265 
L 270.985623 356.821078 
L 271.802332 345.384971 
L 273.098414 327.860578 
L 273.790841 317.922284 
L 274.048282 310.720783 
L 274.21695 299.260733 
L 274.341232 272.624452 
L 274.438882 192.378167 
L 274.545409 99.778335 
L 274.598673 108.697924 
L 275.131309 292.573372 
L 275.424259 364.091888 
L 275.459768 364.235293 
L 275.521909 364.064417 
L 275.770473 362.238208 
L 276.285355 356.810997 
L 277.110941 345.241566 
L 278.389268 327.960634 
L 279.090573 317.905902 
L 279.348014 310.686255 
L 279.516682 299.168238 
L 279.640964 272.296813 
L 279.738614 191.246502 
L 279.845141 99.779595 
L 279.898405 108.925507 
L 280.439918 296.28804 
L 280.715114 364.010986 
L 280.7595 364.235797 
L 280.821641 364.060384 
L 281.079082 362.153778 
L 281.593964 356.691283 
L 282.428427 344.967105 
L 283.706755 327.729522 
L 284.390305 317.88952 
L 284.647745 310.651726 
L 284.816414 299.075491 
L 284.940695 271.966654 
L 285.038345 190.110326 
L 285.144873 99.787156 
L 285.198136 109.153342 
L 285.748527 300.102512 
L 286.014845 364.020311 
L 286.059232 364.236049 
L 286.121373 364.0561 
L 286.378814 362.146721 
L 286.902573 356.571065 
L 287.754791 344.562093 
L 289.006486 327.719441 
L 289.690036 317.87339 
L 289.947477 310.617198 
L 290.116145 298.982492 
L 290.240427 271.634226 
L 290.338077 188.973193 
L 290.444605 99.800766 
L 290.497868 109.381429 
L 291.057136 304.016788 
L 291.3057 363.916979 
L 291.358964 364.236301 
L 291.421105 364.052067 
L 291.678545 362.139664 
L 292.193427 356.67112 
L 293.027891 344.94291 
L 294.315095 327.598719 
L 294.989768 317.857008 
L 295.247209 310.58267 
L 295.415877 298.888988 
L 295.540159 271.297767 
L 295.637809 187.826659 
L 295.744336 99.81992 
L 295.7976 109.612289 
L 296.365745 308.029104 
L 296.605432 363.928572 
L 296.658695 364.236301 
L 296.720836 364.048035 
L 296.978277 362.132608 
L 297.493159 356.661039 
L 298.327623 344.931065 
L 299.60595 327.699279 
L 300.2895 317.840878 
L 300.546941 310.54789 
L 300.715609 298.793721 
L 300.839891 270.953998 
L 300.937541 186.665834 
L 301.044068 99.845627 
L 301.097332 109.845668 
L 301.674355 312.128369 
L 301.905164 363.939914 
L 301.958427 364.236301 
L 302.020568 364.044002 
L 302.286886 362.047422 
L 302.810645 356.429928 
L 303.671741 344.264446 
L 304.914559 327.578557 
L 305.589232 317.824497 
L 305.846673 310.512858 
L 306.015341 298.69795 
L 306.139623 270.606953 
L 306.24615 172.693979 
L 306.334923 99.866798 
L 306.397064 110.08182 
L 306.982964 316.297448 
L 307.196018 363.813143 
L 307.258159 364.236049 
L 307.3203 364.039718 
L 307.586618 362.040113 
L 308.110377 356.419595 
L 308.971473 344.252349 
L 310.214291 327.568223 
L 310.888964 317.808115 
L 311.146405 310.477574 
L 311.315073 298.60117 
L 311.439355 270.254111 
L 311.545882 171.485823 
L 311.634655 99.835294 
L 311.696795 110.321249 
L 312.291573 320.509875 
L 312.49575 363.827761 
L 312.557891 364.235797 
L 312.620032 364.035433 
L 312.88635 362.032804 
L 313.410109 356.409261 
L 314.280082 344.109196 
L 315.531777 327.336356 
L 316.188695 317.791229 
L 316.446136 310.441786 
L 316.614805 298.503131 
L 316.739086 269.894716 
L 316.845614 170.267864 
L 316.934386 99.810091 
L 316.996527 110.563953 
L 317.600182 324.728855 
L 317.795482 363.841874 
L 317.857623 364.235545 
L 317.910886 364.075506 
L 318.15945 362.257866 
L 318.674332 356.839224 
L 319.491041 345.406645 
L 320.796 327.768335 
L 321.488427 317.774595 
L 321.745868 310.405745 
L 321.914536 298.403831 
L 322.038818 269.528517 
L 322.145345 169.045947 
L 322.234118 99.791693 
L 322.296259 110.807666 
L 322.908791 328.907762 
L 323.095214 363.855988 
L 323.157355 364.235041 
L 323.210618 364.071473 
L 323.459182 362.25081 
L 323.974064 356.828891 
L 324.790773 345.394296 
L 326.095732 327.758002 
L 326.779282 317.934886 
L 327.036723 310.747498 
L 327.205391 299.332057 
L 327.329673 272.876482 
L 327.427323 193.253114 
L 327.53385 99.780856 
L 327.595991 111.051631 
L 328.2174 332.994174 
L 328.403823 363.993848 
L 328.457086 364.234537 
L 328.51035 364.067441 
L 328.758914 362.243501 
L 329.273795 356.81881 
L 329.318182 356.266612 
L 329.335936 357.132083 
L 329.531236 360.969994 
L 329.620009 361.150699 
L 329.664395 361.095505 
L 329.815309 360.511804 
L 330.214786 357.80223 
L 332.176664 343.607656 
L 332.869091 340.508445 
L 333.428359 338.91612 
L 333.889977 338.201363 
L 334.262823 337.983106 
L 334.617914 338.021666 
L 335.106164 338.332167 
L 336.562036 339.347847 
L 337.218955 339.437318 
L 338.124436 339.327181 
L 339.926523 339.132866 
L 342.154718 339.180752 
L 345.900927 339.175963 
L 435.845455 339.177979 
L 435.845455 339.177979 
" clip-path="url(#pd103ceafac)" style="fill: none; stroke: #1f77b4; stroke-width: 1.5; stroke-linecap: square"/>
   </g>
   <g id="line2d_14">
    <path d="M 80.754545 339.244263 
L 80.905459 368.342164 
L 81.056373 369.330418 
L 81.269427 369.3533 
L 82.840705 369.080112 
L 87.590045 368.139097 
L 90.182209 367.985161 
L 95.774891 367.937418 
L 151.772727 367.935544 
L 152.163327 349.259287 
L 152.891264 321.564275 
L 152.980036 296.198395 
L 153.042177 179.045495 
L 153.104318 66.96 
L 153.166459 78.912369 
L 153.432777 197.426005 
L 153.91215 369.337261 
L 153.947659 369.33385 
L 154.604577 369.108197 
L 155.199355 368.686966 
L 155.749745 368.010805 
L 156.326768 366.919914 
L 157.019195 365.088677 
L 159.18525 358.969434 
L 159.797782 358.068353 
L 160.392559 357.574691 
L 161.076109 357.301829 
L 162.088118 357.16369 
L 164.573755 357.121086 
L 220.8024 357.11868 
L 329.318182 357.11868 
L 329.557868 365.784736 
L 329.797555 368.043898 
L 330.046118 368.636324 
L 330.330191 368.772435 
L 330.871705 368.715808 
L 334.395982 368.114736 
L 337.121305 367.974914 
L 343.6461 367.936351 
L 435.845455 367.935544 
L 435.845455 367.935544 
" clip-path="url(#pd103ceafac)" style="fill: none; stroke: #ff0000; stroke-width: 1.5; stroke-linecap: square"/>
   </g>
   <g id="patch_3">
    <path d="M 63 384.48 
L 63 51.84 
" style="fill: none; stroke: #000000; stroke-width: 0.8; stroke-linejoin: miter; stroke-linecap: square"/>
   </g>
   <g id="patch_4">
    <path d="M 453.6 384.48 
L 453.6 51.84 
" style="fill: none; stroke: #000000; stroke-width: 0.8; stroke-linejoin: miter; stroke-linecap: square"/>
   </g>
   <g id="patch_5">
    <path d="M 63 384.48 
L 453.6 384.48 
" style="fill: none; stroke: #000000; stroke-width: 0.8; stroke-linejoin: miter; stroke-linecap: square"/>
   </g>
   <g id="patch_6">
    <path d="M 63 51.84 
L 453.6 51.84 
" style="fill: none; stroke: #000000; stroke-width: 0.8; stroke-linejoin: miter; stroke-linecap: square"/>
   </g>
   <g id="legend_1">
    <g id="patch_7">
     <path d="M 383.460938 89.19625 
L 446.6 89.19625 
Q 448.6 89.19625 448.6 87.19625 
L 448.6 58.84 
Q 448.6 56.84 446.6 56.84 
L 383.460938 56.84 
Q 381.460938 56.84 381.460938 58.84 
L 381.460938 87.19625 
Q 381.460938 89.19625 383.460938 89.19625 
z
" style="fill: #ffffff; opacity: 0.8; stroke: #cccccc; stroke-linejoin: miter"/>
    </g>
    <g id="line2d_15">
     <path d="M 385.460938 64.938437 
L 395.460938 64.938437 
L 405.460938 64.938437 
" style="fill: none; stroke: #1f77b4; stroke-width: 1.5; stroke-linecap: square"/>
    </g>
    <g id="text_15">
     <!-- target -->
     <g transform="translate(413.460938 68.438437)scale(0.1 -0.1)">
      <defs>
       <path id="DejaVuSans-72" d="M 2631 2963 
Q 2534 3019 2420 3045 
Q 2306 3072 2169 3072 
Q 1681 3072 1420 2755 
Q 1159 2438 1159 1844 
L 1159 0 
L 581 0 
L 581 3500 
L 1159 3500 
L 1159 2956 
Q 1341 3275 1631 3429 
Q 1922 3584 2338 3584 
Q 2397 3584 2469 3576 
Q 2541 3569 2628 3553 
L 2631 2963 
z
" transform="scale(0.015625)"/>
      </defs>
      <use xlink:href="#DejaVuSans-74"/>
      <use xlink:href="#DejaVuSans-61" x="39.208984"/>
      <use xlink:href="#DejaVuSans-72" x="100.488281"/>
      <use xlink:href="#DejaVuSans-67" x="139.851562"/>
      <use xlink:href="#DejaVuSans-65" x="203.328125"/>
      <use xlink:href="#DejaVuSans-74" x="264.851562"/>
     </g>
    </g>
    <g id="line2d_16">
     <path d="M 385.460938 79.616562 
L 395.460938 79.616562 
L 405.460938 79.616562 
" style="fill: none; stroke: #ff0000; stroke-width: 1.5; stroke-linecap: square"/>
    </g>
    <g id="text_16">
     <!-- model -->
     <g transform="translate(413.460938 83.116562)scale(0.1 -0.1)">
      <defs>
       <path id="DejaVuSans-64" d="M 2906 2969 
L 2906 4863 
L 3481 4863 
L 3481 0 
L 2906 0 
L 2906 525 
Q 2725 213 2448 61 
Q 2172 -91 1784 -91 
Q 1150 -91 751 415 
Q 353 922 353 1747 
Q 353 2572 751 3078 
Q 1150 3584 1784 3584 
Q 2172 3584 2448 3432 
Q 2725 3281 2906 2969 
z
M 947 1747 
Q 947 1113 1208 752 
Q 1469 391 1925 391 
Q 2381 391 2643 752 
Q 2906 1113 2906 1747 
Q 2906 2381 2643 2742 
Q 2381 3103 1925 3103 
Q 1469 3103 1208 2742 
Q 947 2381 947 1747 
z
" transform="scale(0.015625)"/>
      </defs>
      <use xlink:href="#DejaVuSans-6d"/>
      <use xlink:href="#DejaVuSans-6f" x="97.412109"/>
      <use xlink:href="#DejaVuSans-64" x="158.59375"/>
      <use xlink:href="#DejaVuSans-65" x="222.070312"/>
      <use xlink:href="#DejaVuSans-6c" x="283.59375"/>
     </g>
    </g>
   </g>
  </g>
 </g>
 <defs>
  <clipPath id="pd103ceafac">
   <rect x="63" y="51.84" width="390.6" height="332.64"/>
  </clipPath>
 </defs>
</svg>
