<?xml version="1.0" encoding="utf-8" standalone="no"?>
<!DOCTYPE svg PUBLIC "-//W3C//DTD SVG 1.1//EN"
  "http://www.w3.org/Graphics/SVG/1.1/DTD/svg11.dtd">
<svg xmlns:xlink="http://www.w3.org/1999/xlink" width="504pt" height="432pt" viewBox="0 0 504 432" xmlns="http://www.w3.org/2000/svg" version="1.1">
 <metadata>
  <rdf:RDF xmlns:dc="http://purl.org/dc/elements/1.1/" xmlns:cc="http://creativecommons.org/ns#" xmlns:rdf="http://www.w3.org/1999/02/22-rdf-syntax-ns#">
   <cc:Work>
    <dc:type rdf:resource="http://purl.org/dc/dcmitype/StillImage"/>
    <dc:date>2022-01-31T18:22:30.431362</dc:date>
    <dc:format>image/svg+xml</dc:format>
    <dc:creator>
     <cc:Agent>
      <dc:title>Matplotlib v3.5.1, https://matplotlib.org/</dc:title>
     </cc:Agent>
    </dc:creator>
   </cc:Work>
  </rdf:RDF>
 </metadata>
 <defs>
  <style type="text/css">*{stroke-linejoin: round; stroke-linecap: butt}</style>
 </defs>
 <g id="figure_1">
  <g id="patch_1">
   <path d="M 0 432 
L 504 432 
L 504 0 
L 0 0 
z
" style="fill: #ffffff"/>
  </g>
  <g id="axes_1">
   <g id="patch_2">
    <path d="M 63 384.48 
L 453.6 384.48 
L 453.6 51.84 
L 63 51.84 
z
" style="fill: #ffffff"/>
   </g>
   <g id="matplotlib.axis_1">
    <g id="xtick_1">
     <g id="line2d_1">
      <defs>
       <path id="mbb91c25545" d="M 0 0 
L 0 3.5 
" style="stroke: #000000; stroke-width: 0.8"/>
      </defs>
      <g>
       <use xlink:href="#mbb91c25545" x="80.754545" y="384.48" style="stroke: #000000; stroke-width: 0.8"/>
      </g>
     </g>
     <g id="text_1">
      <!-- 0 -->
      <g transform="translate(77.573295 399.078438)scale(0.1 -0.1)">
       <defs>
        <path id="DejaVuSans-30" d="M 2034 4250 
Q 1547 4250 1301 3770 
Q 1056 3291 1056 2328 
Q 1056 1369 1301 889 
Q 1547 409 2034 409 
Q 2525 409 2770 889 
Q 3016 1369 3016 2328 
Q 3016 3291 2770 3770 
Q 2525 4250 2034 4250 
z
M 2034 4750 
Q 2819 4750 3233 4129 
Q 3647 3509 3647 2328 
Q 3647 1150 3233 529 
Q 2819 -91 2034 -91 
Q 1250 -91 836 529 
Q 422 1150 422 2328 
Q 422 3509 836 4129 
Q 1250 4750 2034 4750 
z
" transform="scale(0.015625)"/>
       </defs>
       <use xlink:href="#DejaVuSans-30"/>
      </g>
     </g>
    </g>
    <g id="xtick_2">
     <g id="line2d_2">
      <g>
       <use xlink:href="#mbb91c25545" x="151.772727" y="384.48" style="stroke: #000000; stroke-width: 0.8"/>
      </g>
     </g>
     <g id="text_2">
      <!-- 200 -->
      <g transform="translate(142.228977 399.078438)scale(0.1 -0.1)">
       <defs>
        <path id="DejaVuSans-32" d="M 1228 531 
L 3431 531 
L 3431 0 
L 469 0 
L 469 531 
Q 828 903 1448 1529 
Q 2069 2156 2228 2338 
Q 2531 2678 2651 2914 
Q 2772 3150 2772 3378 
Q 2772 3750 2511 3984 
Q 2250 4219 1831 4219 
Q 1534 4219 1204 4116 
Q 875 4013 500 3803 
L 500 4441 
Q 881 4594 1212 4672 
Q 1544 4750 1819 4750 
Q 2544 4750 2975 4387 
Q 3406 4025 3406 3419 
Q 3406 3131 3298 2873 
Q 3191 2616 2906 2266 
Q 2828 2175 2409 1742 
Q 1991 1309 1228 531 
z
" transform="scale(0.015625)"/>
       </defs>
       <use xlink:href="#DejaVuSans-32"/>
       <use xlink:href="#DejaVuSans-30" x="63.623047"/>
       <use xlink:href="#DejaVuSans-30" x="127.246094"/>
      </g>
     </g>
    </g>
    <g id="xtick_3">
     <g id="line2d_3">
      <g>
       <use xlink:href="#mbb91c25545" x="222.790909" y="384.48" style="stroke: #000000; stroke-width: 0.8"/>
      </g>
     </g>
     <g id="text_3">
      <!-- 400 -->
      <g transform="translate(213.247159 399.078438)scale(0.1 -0.1)">
       <defs>
        <path id="DejaVuSans-34" d="M 2419 4116 
L 825 1625 
L 2419 1625 
L 2419 4116 
z
M 2253 4666 
L 3047 4666 
L 3047 1625 
L 3713 1625 
L 3713 1100 
L 3047 1100 
L 3047 0 
L 2419 0 
L 2419 1100 
L 313 1100 
L 313 1709 
L 2253 4666 
z
" transform="scale(0.015625)"/>
       </defs>
       <use xlink:href="#DejaVuSans-34"/>
       <use xlink:href="#DejaVuSans-30" x="63.623047"/>
       <use xlink:href="#DejaVuSans-30" x="127.246094"/>
      </g>
     </g>
    </g>
    <g id="xtick_4">
     <g id="line2d_4">
      <g>
       <use xlink:href="#mbb91c25545" x="293.809091" y="384.48" style="stroke: #000000; stroke-width: 0.8"/>
      </g>
     </g>
     <g id="text_4">
      <!-- 600 -->
      <g transform="translate(284.265341 399.078438)scale(0.1 -0.1)">
       <defs>
        <path id="DejaVuSans-36" d="M 2113 2584 
Q 1688 2584 1439 2293 
Q 1191 2003 1191 1497 
Q 1191 994 1439 701 
Q 1688 409 2113 409 
Q 2538 409 2786 701 
Q 3034 994 3034 1497 
Q 3034 2003 2786 2293 
Q 2538 2584 2113 2584 
z
M 3366 4563 
L 3366 3988 
Q 3128 4100 2886 4159 
Q 2644 4219 2406 4219 
Q 1781 4219 1451 3797 
Q 1122 3375 1075 2522 
Q 1259 2794 1537 2939 
Q 1816 3084 2150 3084 
Q 2853 3084 3261 2657 
Q 3669 2231 3669 1497 
Q 3669 778 3244 343 
Q 2819 -91 2113 -91 
Q 1303 -91 875 529 
Q 447 1150 447 2328 
Q 447 3434 972 4092 
Q 1497 4750 2381 4750 
Q 2619 4750 2861 4703 
Q 3103 4656 3366 4563 
z
" transform="scale(0.015625)"/>
       </defs>
       <use xlink:href="#DejaVuSans-36"/>
       <use xlink:href="#DejaVuSans-30" x="63.623047"/>
       <use xlink:href="#DejaVuSans-30" x="127.246094"/>
      </g>
     </g>
    </g>
    <g id="xtick_5">
     <g id="line2d_5">
      <g>
       <use xlink:href="#mbb91c25545" x="364.827273" y="384.48" style="stroke: #000000; stroke-width: 0.8"/>
      </g>
     </g>
     <g id="text_5">
      <!-- 800 -->
      <g transform="translate(355.283523 399.078438)scale(0.1 -0.1)">
       <defs>
        <path id="DejaVuSans-38" d="M 2034 2216 
Q 1584 2216 1326 1975 
Q 1069 1734 1069 1313 
Q 1069 891 1326 650 
Q 1584 409 2034 409 
Q 2484 409 2743 651 
Q 3003 894 3003 1313 
Q 3003 1734 2745 1975 
Q 2488 2216 2034 2216 
z
M 1403 2484 
Q 997 2584 770 2862 
Q 544 3141 544 3541 
Q 544 4100 942 4425 
Q 1341 4750 2034 4750 
Q 2731 4750 3128 4425 
Q 3525 4100 3525 3541 
Q 3525 3141 3298 2862 
Q 3072 2584 2669 2484 
Q 3125 2378 3379 2068 
Q 3634 1759 3634 1313 
Q 3634 634 3220 271 
Q 2806 -91 2034 -91 
Q 1263 -91 848 271 
Q 434 634 434 1313 
Q 434 1759 690 2068 
Q 947 2378 1403 2484 
z
M 1172 3481 
Q 1172 3119 1398 2916 
Q 1625 2713 2034 2713 
Q 2441 2713 2670 2916 
Q 2900 3119 2900 3481 
Q 2900 3844 2670 4047 
Q 2441 4250 2034 4250 
Q 1625 4250 1398 4047 
Q 1172 3844 1172 3481 
z
" transform="scale(0.015625)"/>
       </defs>
       <use xlink:href="#DejaVuSans-38"/>
       <use xlink:href="#DejaVuSans-30" x="63.623047"/>
       <use xlink:href="#DejaVuSans-30" x="127.246094"/>
      </g>
     </g>
    </g>
    <g id="text_6">
     <!-- time [ms] -->
     <g transform="translate(234.038281 412.756563)scale(0.1 -0.1)">
      <defs>
       <path id="DejaVuSans-74" d="M 1172 4494 
L 1172 3500 
L 2356 3500 
L 2356 3053 
L 1172 3053 
L 1172 1153 
Q 1172 725 1289 603 
Q 1406 481 1766 481 
L 2356 481 
L 2356 0 
L 1766 0 
Q 1100 0 847 248 
Q 594 497 594 1153 
L 594 3053 
L 172 3053 
L 172 3500 
L 594 3500 
L 594 4494 
L 1172 4494 
z
" transform="scale(0.015625)"/>
       <path id="DejaVuSans-69" d="M 603 3500 
L 1178 3500 
L 1178 0 
L 603 0 
L 603 3500 
z
M 603 4863 
L 1178 4863 
L 1178 4134 
L 603 4134 
L 603 4863 
z
" transform="scale(0.015625)"/>
       <path id="DejaVuSans-6d" d="M 3328 2828 
Q 3544 3216 3844 3400 
Q 4144 3584 4550 3584 
Q 5097 3584 5394 3201 
Q 5691 2819 5691 2113 
L 5691 0 
L 5113 0 
L 5113 2094 
Q 5113 2597 4934 2840 
Q 4756 3084 4391 3084 
Q 3944 3084 3684 2787 
Q 3425 2491 3425 1978 
L 3425 0 
L 2847 0 
L 2847 2094 
Q 2847 2600 2669 2842 
Q 2491 3084 2119 3084 
Q 1678 3084 1418 2786 
Q 1159 2488 1159 1978 
L 1159 0 
L 581 0 
L 581 3500 
L 1159 3500 
L 1159 2956 
Q 1356 3278 1631 3431 
Q 1906 3584 2284 3584 
Q 2666 3584 2933 3390 
Q 3200 3197 3328 2828 
z
" transform="scale(0.015625)"/>
       <path id="DejaVuSans-65" d="M 3597 1894 
L 3597 1613 
L 953 1613 
Q 991 1019 1311 708 
Q 1631 397 2203 397 
Q 2534 397 2845 478 
Q 3156 559 3463 722 
L 3463 178 
Q 3153 47 2828 -22 
Q 2503 -91 2169 -91 
Q 1331 -91 842 396 
Q 353 884 353 1716 
Q 353 2575 817 3079 
Q 1281 3584 2069 3584 
Q 2775 3584 3186 3129 
Q 3597 2675 3597 1894 
z
M 3022 2063 
Q 3016 2534 2758 2815 
Q 2500 3097 2075 3097 
Q 1594 3097 1305 2825 
Q 1016 2553 972 2059 
L 3022 2063 
z
" transform="scale(0.015625)"/>
       <path id="DejaVuSans-20" transform="scale(0.015625)"/>
       <path id="DejaVuSans-5b" d="M 550 4863 
L 1875 4863 
L 1875 4416 
L 1125 4416 
L 1125 -397 
L 1875 -397 
L 1875 -844 
L 550 -844 
L 550 4863 
z
" transform="scale(0.015625)"/>
       <path id="DejaVuSans-73" d="M 2834 3397 
L 2834 2853 
Q 2591 2978 2328 3040 
Q 2066 3103 1784 3103 
Q 1356 3103 1142 2972 
Q 928 2841 928 2578 
Q 928 2378 1081 2264 
Q 1234 2150 1697 2047 
L 1894 2003 
Q 2506 1872 2764 1633 
Q 3022 1394 3022 966 
Q 3022 478 2636 193 
Q 2250 -91 1575 -91 
Q 1294 -91 989 -36 
Q 684 19 347 128 
L 347 722 
Q 666 556 975 473 
Q 1284 391 1588 391 
Q 1994 391 2212 530 
Q 2431 669 2431 922 
Q 2431 1156 2273 1281 
Q 2116 1406 1581 1522 
L 1381 1569 
Q 847 1681 609 1914 
Q 372 2147 372 2553 
Q 372 3047 722 3315 
Q 1072 3584 1716 3584 
Q 2034 3584 2315 3537 
Q 2597 3491 2834 3397 
z
" transform="scale(0.015625)"/>
       <path id="DejaVuSans-5d" d="M 1947 4863 
L 1947 -844 
L 622 -844 
L 622 -397 
L 1369 -397 
L 1369 4416 
L 622 4416 
L 622 4863 
L 1947 4863 
z
" transform="scale(0.015625)"/>
      </defs>
      <use xlink:href="#DejaVuSans-74"/>
      <use xlink:href="#DejaVuSans-69" x="39.208984"/>
      <use xlink:href="#DejaVuSans-6d" x="66.992188"/>
      <use xlink:href="#DejaVuSans-65" x="164.404297"/>
      <use xlink:href="#DejaVuSans-20" x="225.927734"/>
      <use xlink:href="#DejaVuSans-5b" x="257.714844"/>
      <use xlink:href="#DejaVuSans-6d" x="296.728516"/>
      <use xlink:href="#DejaVuSans-73" x="394.140625"/>
      <use xlink:href="#DejaVuSans-5d" x="446.240234"/>
     </g>
    </g>
   </g>
   <g id="matplotlib.axis_2">
    <g id="ytick_1">
     <g id="line2d_6">
      <defs>
       <path id="me30ddd0c2d" d="M 0 0 
L -3.5 0 
" style="stroke: #000000; stroke-width: 0.8"/>
      </defs>
      <g>
       <use xlink:href="#me30ddd0c2d" x="63" y="382.295315" style="stroke: #000000; stroke-width: 0.8"/>
      </g>
     </g>
     <g id="text_7">
      <!-- −80 -->
      <g transform="translate(34.895313 386.094533)scale(0.1 -0.1)">
       <defs>
        <path id="DejaVuSans-2212" d="M 678 2272 
L 4684 2272 
L 4684 1741 
L 678 1741 
L 678 2272 
z
" transform="scale(0.015625)"/>
       </defs>
       <use xlink:href="#DejaVuSans-2212"/>
       <use xlink:href="#DejaVuSans-38" x="83.789062"/>
       <use xlink:href="#DejaVuSans-30" x="147.412109"/>
      </g>
     </g>
    </g>
    <g id="ytick_2">
     <g id="line2d_7">
      <g>
       <use xlink:href="#me30ddd0c2d" x="63" y="329.597056" style="stroke: #000000; stroke-width: 0.8"/>
      </g>
     </g>
     <g id="text_8">
      <!-- −60 -->
      <g transform="translate(34.895313 333.396274)scale(0.1 -0.1)">
       <use xlink:href="#DejaVuSans-2212"/>
       <use xlink:href="#DejaVuSans-36" x="83.789062"/>
       <use xlink:href="#DejaVuSans-30" x="147.412109"/>
      </g>
     </g>
    </g>
    <g id="ytick_3">
     <g id="line2d_8">
      <g>
       <use xlink:href="#me30ddd0c2d" x="63" y="276.898797" style="stroke: #000000; stroke-width: 0.8"/>
      </g>
     </g>
     <g id="text_9">
      <!-- −40 -->
      <g transform="translate(34.895313 280.698016)scale(0.1 -0.1)">
       <use xlink:href="#DejaVuSans-2212"/>
       <use xlink:href="#DejaVuSans-34" x="83.789062"/>
       <use xlink:href="#DejaVuSans-30" x="147.412109"/>
      </g>
     </g>
    </g>
    <g id="ytick_4">
     <g id="line2d_9">
      <g>
       <use xlink:href="#me30ddd0c2d" x="63" y="224.200538" style="stroke: #000000; stroke-width: 0.8"/>
      </g>
     </g>
     <g id="text_10">
      <!-- −20 -->
      <g transform="translate(34.895313 227.999757)scale(0.1 -0.1)">
       <use xlink:href="#DejaVuSans-2212"/>
       <use xlink:href="#DejaVuSans-32" x="83.789062"/>
       <use xlink:href="#DejaVuSans-30" x="147.412109"/>
      </g>
     </g>
    </g>
    <g id="ytick_5">
     <g id="line2d_10">
      <g>
       <use xlink:href="#me30ddd0c2d" x="63" y="171.502279" style="stroke: #000000; stroke-width: 0.8"/>
      </g>
     </g>
     <g id="text_11">
      <!-- 0 -->
      <g transform="translate(49.6375 175.301498)scale(0.1 -0.1)">
       <use xlink:href="#DejaVuSans-30"/>
      </g>
     </g>
    </g>
    <g id="ytick_6">
     <g id="line2d_11">
      <g>
       <use xlink:href="#me30ddd0c2d" x="63" y="118.80402" style="stroke: #000000; stroke-width: 0.8"/>
      </g>
     </g>
     <g id="text_12">
      <!-- 20 -->
      <g transform="translate(43.275 122.603239)scale(0.1 -0.1)">
       <use xlink:href="#DejaVuSans-32"/>
       <use xlink:href="#DejaVuSans-30" x="63.623047"/>
      </g>
     </g>
    </g>
    <g id="ytick_7">
     <g id="line2d_12">
      <g>
       <use xlink:href="#me30ddd0c2d" x="63" y="66.105761" style="stroke: #000000; stroke-width: 0.8"/>
      </g>
     </g>
     <g id="text_13">
      <!-- 40 -->
      <g transform="translate(43.275 69.90498)scale(0.1 -0.1)">
       <use xlink:href="#DejaVuSans-34"/>
       <use xlink:href="#DejaVuSans-30" x="63.623047"/>
      </g>
     </g>
    </g>
    <g id="text_14">
     <!-- voltage [mV] -->
     <g transform="translate(28.815625 250.624062)rotate(-90)scale(0.1 -0.1)">
      <defs>
       <path id="DejaVuSans-76" d="M 191 3500 
L 800 3500 
L 1894 563 
L 2988 3500 
L 3597 3500 
L 2284 0 
L 1503 0 
L 191 3500 
z
" transform="scale(0.015625)"/>
       <path id="DejaVuSans-6f" d="M 1959 3097 
Q 1497 3097 1228 2736 
Q 959 2375 959 1747 
Q 959 1119 1226 758 
Q 1494 397 1959 397 
Q 2419 397 2687 759 
Q 2956 1122 2956 1747 
Q 2956 2369 2687 2733 
Q 2419 3097 1959 3097 
z
M 1959 3584 
Q 2709 3584 3137 3096 
Q 3566 2609 3566 1747 
Q 3566 888 3137 398 
Q 2709 -91 1959 -91 
Q 1206 -91 779 398 
Q 353 888 353 1747 
Q 353 2609 779 3096 
Q 1206 3584 1959 3584 
z
" transform="scale(0.015625)"/>
       <path id="DejaVuSans-6c" d="M 603 4863 
L 1178 4863 
L 1178 0 
L 603 0 
L 603 4863 
z
" transform="scale(0.015625)"/>
       <path id="DejaVuSans-61" d="M 2194 1759 
Q 1497 1759 1228 1600 
Q 959 1441 959 1056 
Q 959 750 1161 570 
Q 1363 391 1709 391 
Q 2188 391 2477 730 
Q 2766 1069 2766 1631 
L 2766 1759 
L 2194 1759 
z
M 3341 1997 
L 3341 0 
L 2766 0 
L 2766 531 
Q 2569 213 2275 61 
Q 1981 -91 1556 -91 
Q 1019 -91 701 211 
Q 384 513 384 1019 
Q 384 1609 779 1909 
Q 1175 2209 1959 2209 
L 2766 2209 
L 2766 2266 
Q 2766 2663 2505 2880 
Q 2244 3097 1772 3097 
Q 1472 3097 1187 3025 
Q 903 2953 641 2809 
L 641 3341 
Q 956 3463 1253 3523 
Q 1550 3584 1831 3584 
Q 2591 3584 2966 3190 
Q 3341 2797 3341 1997 
z
" transform="scale(0.015625)"/>
       <path id="DejaVuSans-67" d="M 2906 1791 
Q 2906 2416 2648 2759 
Q 2391 3103 1925 3103 
Q 1463 3103 1205 2759 
Q 947 2416 947 1791 
Q 947 1169 1205 825 
Q 1463 481 1925 481 
Q 2391 481 2648 825 
Q 2906 1169 2906 1791 
z
M 3481 434 
Q 3481 -459 3084 -895 
Q 2688 -1331 1869 -1331 
Q 1566 -1331 1297 -1286 
Q 1028 -1241 775 -1147 
L 775 -588 
Q 1028 -725 1275 -790 
Q 1522 -856 1778 -856 
Q 2344 -856 2625 -561 
Q 2906 -266 2906 331 
L 2906 616 
Q 2728 306 2450 153 
Q 2172 0 1784 0 
Q 1141 0 747 490 
Q 353 981 353 1791 
Q 353 2603 747 3093 
Q 1141 3584 1784 3584 
Q 2172 3584 2450 3431 
Q 2728 3278 2906 2969 
L 2906 3500 
L 3481 3500 
L 3481 434 
z
" transform="scale(0.015625)"/>
       <path id="DejaVuSans-56" d="M 1831 0 
L 50 4666 
L 709 4666 
L 2188 738 
L 3669 4666 
L 4325 4666 
L 2547 0 
L 1831 0 
z
" transform="scale(0.015625)"/>
      </defs>
      <use xlink:href="#DejaVuSans-76"/>
      <use xlink:href="#DejaVuSans-6f" x="59.179688"/>
      <use xlink:href="#DejaVuSans-6c" x="120.361328"/>
      <use xlink:href="#DejaVuSans-74" x="148.144531"/>
      <use xlink:href="#DejaVuSans-61" x="187.353516"/>
      <use xlink:href="#DejaVuSans-67" x="248.632812"/>
      <use xlink:href="#DejaVuSans-65" x="312.109375"/>
      <use xlink:href="#DejaVuSans-20" x="373.632812"/>
      <use xlink:href="#DejaVuSans-5b" x="405.419922"/>
      <use xlink:href="#DejaVuSans-6d" x="444.433594"/>
      <use xlink:href="#DejaVuSans-56" x="541.845703"/>
      <use xlink:href="#DejaVuSans-5d" x="610.253906"/>
     </g>
    </g>
   </g>
   <g id="line2d_13">
    <path d="M 80.754545 342.77162 
L 81.952977 342.634868 
L 83.763941 342.691783 
L 87.749836 342.69916 
L 151.772727 342.702322 
L 152.314241 298.009456 
L 152.420768 249.188998 
L 152.562805 66.96 
L 152.678209 92.273609 
L 153.565936 369.36 
L 153.610323 369.259083 
L 153.8145 367.874963 
L 154.293873 363.103136 
L 154.959668 353.947077 
L 157.42755 314.90768 
L 157.613973 303.73802 
L 157.738255 281.688805 
L 157.835905 218.894087 
L 157.969064 91.413837 
L 158.031205 104.616331 
L 158.883423 368.933935 
L 158.945564 368.749754 
L 159.203005 366.76303 
L 159.717886 361.068456 
L 160.534595 349.095939 
L 161.8218 330.896595 
L 162.514227 320.490533 
L 162.771668 312.941244 
L 162.940336 300.904171 
L 163.064618 272.831282 
L 163.162268 188.110478 
L 163.268795 92.337637 
L 163.322059 101.887089 
L 163.863573 297.730155 
L 164.147645 368.756605 
L 164.183155 368.902052 
L 164.245295 368.71998 
L 164.493859 366.809141 
L 165.008741 361.134329 
L 165.834327 349.038234 
L 167.112655 330.971426 
L 167.813959 320.454962 
L 168.0714 312.895924 
L 168.240068 300.819327 
L 168.36435 272.584127 
L 168.462 187.362031 
L 168.568527 92.41484 
L 168.621791 102.110002 
L 169.172182 301.697017 
L 169.4385 368.670443 
L 169.482886 368.899944 
L 169.545027 368.713919 
L 169.802468 366.719027 
L 170.31735 361.006535 
L 171.151814 348.74813 
L 172.430141 330.727697 
L 173.113691 320.436517 
L 173.371132 312.859298 
L 173.5398 300.723153 
L 173.664082 272.24475 
L 173.761732 186.206332 
L 173.868259 92.431703 
L 173.921523 102.346881 
L 174.480791 305.783766 
L 174.729355 368.560567 
L 174.782618 368.899944 
L 174.844759 368.709703 
L 175.1022 366.711649 
L 175.617082 360.995732 
L 176.451545 348.735219 
L 177.729873 330.716894 
L 178.413423 320.419654 
L 178.670864 312.8232 
L 178.839532 300.625661 
L 178.963814 271.896415 
L 179.061464 185.0168 
L 179.167991 92.449094 
L 179.221255 102.586394 
L 179.7894 309.974069 
L 180.029086 368.572952 
L 180.08235 368.900208 
L 180.144491 368.705224 
L 180.401932 366.704271 
L 180.916814 360.985193 
L 181.751277 348.722835 
L 183.029605 330.706354 
L 183.713155 320.402527 
L 183.970595 312.786838 
L 184.139264 300.527115 
L 184.263545 271.539911 
L 184.361195 183.806348 
L 184.467723 92.473072 
L 184.520986 102.829597 
L 185.098009 314.256593 
L 185.328818 368.585072 
L 185.382082 368.900208 
L 185.444223 368.701008 
L 185.701664 366.69663 
L 186.216545 360.974653 
L 187.051009 348.710187 
L 188.329336 330.695814 
L 189.012886 320.385664 
L 189.270327 312.750213 
L 189.438995 300.426988 
L 189.563277 271.178137 
L 189.660927 182.591073 
L 189.767455 92.502846 
L 189.820718 103.075171 
L 190.406618 318.611577 
L 190.619673 368.450692 
L 190.681814 368.899944 
L 190.743955 368.696529 
L 191.010273 366.60757 
L 191.525155 360.848704 
L 192.368495 348.423509 
L 193.637945 330.569339 
L 194.312618 320.368273 
L 194.570059 312.713588 
L 194.738727 300.326335 
L 194.863009 270.812938 
L 194.969536 167.960561 
L 195.058309 92.489408 
L 195.12045 103.32338 
L 195.715227 323.012935 
L 195.919405 368.466238 
L 195.981545 368.899944 
L 196.043686 368.69205 
L 196.310005 366.599929 
L 196.833764 360.722228 
L 197.703736 347.86359 
L 198.955432 330.32719 
L 199.61235 320.351146 
L 199.869791 312.676435 
L 200.038459 300.224627 
L 200.162741 270.440362 
L 200.269268 166.692351 
L 200.358041 92.459897 
L 200.420182 103.575804 
L 201.023836 327.423516 
L 201.219136 368.480993 
L 201.281277 368.899417 
L 201.343418 368.68757 
L 201.609736 366.592287 
L 202.133495 360.711162 
L 202.994591 347.987431 
L 204.255164 330.316387 
L 204.912082 320.333492 
L 205.169523 312.638756 
L 205.338191 300.121339 
L 205.462473 270.060144 
L 205.569 165.41563 
L 205.657773 92.4375 
L 205.719914 103.830073 
L 206.332445 331.7951 
L 206.518868 368.495749 
L 206.581009 368.899154 
L 206.634273 368.729729 
L 206.873959 366.907687 
L 207.388841 361.27477 
L 208.187795 349.618969 
L 209.510509 330.88342 
L 210.202936 320.501073 
L 210.460377 312.99526 
L 210.629045 301.088352 
L 210.753327 273.540864 
L 210.850977 190.680941 
L 210.957505 92.422218 
L 211.019645 104.085396 
L 211.641055 336.073408 
L 211.827477 368.641986 
L 211.880741 368.898627 
L 211.934005 368.725513 
L 212.182568 366.820207 
L 212.69745 361.150138 
L 213.514159 349.194484 
L 214.810241 330.872617 
L 215.502668 320.483946 
L 215.760109 312.959161 
L 215.928777 300.99165 
L 216.053059 273.20017 
L 216.150709 189.497338 
L 216.257236 92.415894 
L 216.319377 104.340192 
L 216.949664 340.194676 
L 217.127209 368.652526 
L 217.171595 368.899154 
L 217.233736 368.721297 
L 217.4823 366.81283 
L 217.997182 361.139599 
L 218.822768 349.044558 
L 220.101095 330.977223 
L 220.8024 320.466819 
L 221.059841 312.923327 
L 221.228509 300.895213 
L 221.352791 272.858158 
L 221.450441 188.314315 
L 221.556968 92.416421 
L 221.610232 101.924241 
L 222.151745 297.785752 
L 222.426941 368.662539 
L 222.471327 368.899417 
L 222.533468 368.717081 
L 222.782032 366.805452 
L 223.296914 361.129059 
L 224.1225 349.031647 
L 225.418582 330.735865 
L 226.111009 320.263931 
L 226.36845 312.488829 
L 226.537118 299.70634 
L 226.652523 272.513511 
L 226.750173 187.126575 
L 226.8567 92.422481 
L 226.909964 102.1627 
L 227.460355 301.772639 
L 227.726673 368.672288 
L 227.771059 368.899944 
L 227.8332 368.712865 
L 228.090641 366.717182 
L 228.605523 361.003901 
L 229.439986 348.744968 
L 230.718314 330.725062 
L 231.401864 320.432565 
L 231.659305 312.850867 
L 231.827973 300.701019 
L 231.952255 272.166493 
L 232.049905 185.938625 
L 232.156432 92.435392 
L 232.209695 102.400897 
L 232.768964 305.86255 
L 233.017527 368.563466 
L 233.070791 368.899944 
L 233.132932 368.70865 
L 233.390373 366.709805 
L 233.905255 360.993361 
L 234.739718 348.732321 
L 236.018045 330.714522 
L 236.701595 320.415702 
L 236.959036 312.815032 
L 237.127705 300.603528 
L 237.251986 271.816313 
L 237.349636 184.743876 
L 237.456164 92.453837 
L 237.509427 102.641464 
L 238.077573 310.055224 
L 238.317259 368.575586 
L 238.370523 368.900208 
L 238.432664 368.704434 
L 238.690105 366.702427 
L 239.204986 360.982821 
L 240.03945 348.719936 
L 241.317777 330.703983 
L 242.001327 320.398838 
L 242.258768 312.77867 
L 242.427436 300.504455 
L 242.551718 271.457965 
L 242.649368 183.530604 
L 242.755895 92.479395 
L 242.809159 102.885194 
L 243.386182 314.339592 
L 243.616991 368.587707 
L 243.670255 368.900208 
L 243.732395 368.699954 
L 243.989836 366.695049 
L 244.504718 360.972282 
L 245.348059 348.570273 
L 246.617509 330.69318 
L 247.301059 320.381711 
L 247.5585 312.742045 
L 247.727168 300.404065 
L 247.85145 271.095665 
L 247.9491 182.314144 
L 248.055627 92.510751 
L 248.108891 103.131294 
L 248.694791 318.696421 
L 248.907845 368.45438 
L 248.969986 368.899944 
L 249.032127 368.695738 
L 249.298445 366.605989 
L 249.822205 360.73066 
L 250.692177 347.873602 
L 251.943873 330.335622 
L 252.600791 320.364321 
L 252.858232 312.705156 
L 253.0269 300.303148 
L 253.151182 270.728621 
L 253.257709 167.671827 
L 253.346482 92.48203 
L 253.408623 103.380821 
L 254.0034 323.09936 
L 254.207577 368.469663 
L 254.269718 368.899681 
L 254.331859 368.691259 
L 254.598177 366.598348 
L 255.121936 360.719593 
L 255.983032 347.997443 
L 257.22585 330.556164 
L 257.900523 320.347194 
L 258.157964 312.668004 
L 258.326632 300.201176 
L 258.450914 270.3542 
L 258.557441 166.401009 
L 258.646214 92.4541 
L 258.708355 103.634036 
L 259.312009 327.509941 
L 259.507309 368.484418 
L 259.56945 368.899417 
L 259.631591 368.686516 
L 259.897909 366.590443 
L 260.421668 360.70879 
L 261.291641 347.848044 
L 262.525582 330.545361 
L 263.200255 320.32954 
L 263.457695 312.630324 
L 263.626364 300.097624 
L 263.750645 269.972665 
L 263.857173 165.123761 
L 263.945945 92.433284 
L 264.008086 103.888305 
L 264.620618 331.880208 
L 264.807041 368.499174 
L 264.869182 368.89889 
L 264.922445 368.728938 
L 265.171009 366.826004 
L 265.685891 361.15857 
L 266.511477 349.067218 
L 267.807559 330.76564 
L 268.499986 320.312149 
L 268.757427 312.592645 
L 268.926095 299.994072 
L 269.050377 269.591129 
L 269.156905 163.856025 
L 269.245677 92.42011 
L 269.298941 101.503972 
L 269.8227 290.196939 
L 270.133405 368.811411 
L 270.168914 368.898627 
L 270.222177 368.724722 
L 270.470741 366.818626 
L 270.985623 361.147767 
L 271.802332 349.191586 
L 273.098414 330.870246 
L 273.790841 320.479993 
L 274.048282 312.950993 
L 274.21695 300.969781 
L 274.341232 273.122176 
L 274.438882 189.226574 
L 274.545409 92.41563 
L 274.598673 101.740851 
L 275.131309 293.978303 
L 275.424259 368.749227 
L 275.459768 368.899154 
L 275.521909 368.720507 
L 275.770473 366.811249 
L 276.285355 361.137227 
L 277.110941 349.041659 
L 278.389268 330.974852 
L 279.090573 320.462867 
L 279.348014 312.914895 
L 279.516682 300.873079 
L 279.640964 272.779637 
L 279.738614 188.043446 
L 279.845141 92.416948 
L 279.898405 101.978784 
L 280.439918 297.861901 
L 280.715114 368.664646 
L 280.7595 368.899681 
L 280.821641 368.716291 
L 281.079082 366.722979 
L 281.593964 361.012069 
L 282.428427 348.754717 
L 283.706755 330.73323 
L 284.390305 320.44574 
L 284.647745 312.878797 
L 284.816414 300.776114 
L 284.940695 272.434464 
L 285.038345 186.855601 
L 285.144873 92.424853 
L 285.198136 102.21698 
L 285.748527 301.849841 
L 286.014845 368.674396 
L 286.059232 368.899944 
L 286.121373 368.711811 
L 286.378814 366.715601 
L 286.893695 361.001529 
L 287.728159 348.74207 
L 289.006486 330.722691 
L 289.690036 320.428876 
L 289.947477 312.842698 
L 290.116145 300.678886 
L 290.240427 272.086919 
L 290.338077 185.666754 
L 290.444605 92.439081 
L 290.497868 102.455439 
L 291.057136 305.942125 
L 291.3057 368.566364 
L 291.358964 368.900208 
L 291.421105 368.707596 
L 291.678545 366.708224 
L 292.193427 360.99099 
L 293.027891 348.729422 
L 294.315095 330.596478 
L 294.989768 320.411749 
L 295.247209 312.8066 
L 295.415877 300.581131 
L 295.540159 271.735158 
L 295.637809 184.46808 
L 295.744336 92.459107 
L 295.7976 102.696797 
L 296.365745 310.136906 
L 296.605432 368.578485 
L 296.658695 368.900208 
L 296.720836 368.70338 
L 296.978277 366.700846 
L 297.493159 360.98045 
L 298.327623 348.717038 
L 299.60595 330.701611 
L 300.2895 320.394886 
L 300.546941 312.770238 
L 300.715609 300.481531 
L 300.839891 271.375756 
L 300.937541 183.254465 
L 301.044068 92.485983 
L 301.097332 102.94079 
L 301.674355 314.422592 
L 301.905164 368.590342 
L 301.958427 368.900208 
L 302.020568 368.699164 
L 302.286886 366.611786 
L 302.810645 360.738828 
L 303.671741 348.020104 
L 304.914559 330.575399 
L 305.589232 320.377759 
L 305.846673 312.733613 
L 306.015341 300.381404 
L 306.139623 271.012928 
L 306.24615 168.647219 
L 306.334923 92.508116 
L 306.397064 103.187682 
L 306.982964 318.781265 
L 307.196018 368.457806 
L 307.258159 368.899944 
L 307.3203 368.694684 
L 307.586618 366.604145 
L 308.110377 360.728025 
L 308.971473 348.007456 
L 310.214291 330.564596 
L 310.888964 320.360632 
L 311.146405 312.696724 
L 311.315073 300.280224 
L 311.439355 270.64404 
L 311.545882 167.384121 
L 311.634655 92.47518 
L 311.696795 103.437998 
L 312.291573 323.185259 
L 312.49575 368.473088 
L 312.557891 368.899681 
L 312.620032 368.690205 
L 312.88635 366.596503 
L 313.410109 360.717222 
L 314.280082 347.857793 
L 315.531777 330.322184 
L 316.188695 320.342978 
L 316.446136 312.659308 
L 316.614805 300.177726 
L 316.739086 270.268302 
L 316.845614 166.110773 
L 316.934386 92.44883 
L 316.996527 103.69174 
L 317.600182 327.596103 
L 317.795482 368.487844 
L 317.857623 368.899417 
L 317.910886 368.7321 
L 318.150573 366.911639 
L 318.665455 361.280566 
L 319.464409 349.625819 
L 320.787123 330.889481 
L 321.488427 320.325588 
L 321.745868 312.621629 
L 321.914536 300.07391 
L 322.038818 269.885449 
L 322.145345 164.833288 
L 322.234118 92.429596 
L 322.296259 103.946537 
L 322.908791 331.965052 
L 323.095214 368.502599 
L 323.157355 368.89889 
L 323.210618 368.727884 
L 323.459182 366.824423 
L 323.974064 361.155935 
L 324.790773 349.201335 
L 326.095732 330.763005 
L 326.779282 320.493168 
L 327.036723 312.978923 
L 327.205391 301.044349 
L 327.329673 273.385667 
L 327.427323 190.141311 
L 327.53385 92.418265 
L 327.595991 104.201596 
L 328.2174 336.2373 
L 328.403823 368.646729 
L 328.457086 368.898363 
L 328.51035 368.723669 
L 328.758914 366.816782 
L 329.273795 361.145395 
L 329.318182 360.568086 
L 329.335936 361.472915 
L 329.531236 365.485361 
L 329.620009 365.674284 
L 329.664395 365.616579 
L 329.815309 365.006333 
L 330.214786 362.173538 
L 332.176664 347.333445 
L 332.869091 344.093293 
L 333.428359 342.428555 
L 333.889977 341.681293 
L 334.262823 341.45311 
L 334.609036 341.489999 
L 335.061777 341.78063 
L 336.553159 342.876753 
L 337.156814 342.973982 
L 338.097805 342.863315 
L 339.580309 342.667805 
L 342.092577 342.704167 
L 435.845455 342.702322 
L 435.845455 342.702322 
" clip-path="url(#p6470012853)" style="fill: none; stroke: #1f77b4; stroke-width: 1.5; stroke-linecap: square"/>
   </g>
   <g id="line2d_14">
    <path d="M 80.754545 342.77162 
L 81.100759 325.601989 
L 81.562377 304.758739 
L 81.722168 282.929529 
L 81.837573 228.602552 
L 82.015118 84.429517 
L 82.095014 95.653924 
L 82.503368 219.343574 
L 83.080391 352.498799 
L 83.240182 355.778971 
L 83.249059 355.772547 
L 83.320077 355.419327 
L 83.550886 352.637121 
L 84.811459 336.269121 
L 85.512764 330.406996 
L 86.231823 326.180238 
L 86.906495 323.423115 
L 87.456886 321.995554 
L 87.856364 321.486701 
L 88.175945 321.395612 
L 88.48665 321.551871 
L 88.921636 322.067427 
L 89.969155 323.356 
L 90.448527 323.574012 
L 90.963409 323.556035 
L 91.860014 323.247195 
L 92.8809 322.984729 
L 93.848523 322.987239 
L 96.724759 323.125642 
L 101.731541 323.105095 
L 151.772727 323.103015 
L 152.385259 274.29071 
L 152.518418 219.654756 
L 152.704841 123.359598 
L 152.758105 129.514483 
L 153.006668 204.364493 
L 153.539305 332.895538 
L 153.743482 346.39222 
L 153.796745 346.704644 
L 153.858886 346.440417 
L 154.036432 344.015851 
L 155.723114 317.101431 
L 156.335645 307.03496 
L 156.637473 298.073498 
L 156.84165 284.97315 
L 157.010318 257.160124 
L 157.303268 162.064345 
L 157.409795 177.960344 
L 158.190995 342.617795 
L 158.324155 344.929296 
L 158.350786 344.891273 
L 158.448436 344.077123 
L 158.776895 338.65007 
L 159.744518 323.155457 
L 160.880809 305.957882 
L 161.173759 296.948115 
L 161.377936 283.173285 
L 161.546605 253.686145 
L 161.8218 165.038084 
L 161.91945 176.855664 
L 162.780545 344.219984 
L 162.851564 344.704349 
L 162.904827 344.502745 
L 163.064618 342.534785 
L 165.594641 300.728593 
L 165.82545 289.559663 
L 166.002995 268.726241 
L 166.171664 216.038533 
L 166.349209 165.396835 
L 166.384718 167.547935 
L 166.517877 196.274975 
L 167.130409 334.733747 
L 167.325709 344.47468 
L 167.370095 344.675901 
L 167.432236 344.435592 
L 167.600905 342.279989 
L 169.509518 313.179502 
L 169.980014 304.582069 
L 170.255209 295.097595 
L 170.450509 279.894655 
L 170.6103 247.846585 
L 170.867741 165.441621 
L 170.947636 173.943469 
L 171.364868 279.467469 
L 171.746591 341.921467 
L 171.897505 344.672123 
L 171.915259 344.640405 
L 172.004032 343.95432 
L 172.296982 339.26359 
L 173.317868 322.920861 
L 174.436405 306.094998 
L 174.729355 297.304946 
L 174.933532 284.117301 
L 175.1022 256.413947 
L 175.39515 165.472598 
L 175.4928 178.852388 
L 176.318386 343.645338 
L 176.416036 344.672329 
L 176.460423 344.534893 
L 176.602459 342.930857 
L 178.999323 305.163675 
L 179.283395 295.851303 
L 179.487573 280.671315 
L 179.647364 249.858287 
L 179.913682 165.444672 
L 179.993577 174.397223 
L 180.517336 303.571603 
L 180.810286 342.746309 
L 180.934568 344.671417 
L 180.970077 344.597956 
L 181.085482 343.48273 
L 181.520468 336.041647 
L 182.408195 322.28197 
L 183.464591 306.4296 
L 183.766418 297.583093 
L 183.979473 283.889641 
L 184.148141 255.807026 
L 184.432214 165.455598 
L 184.538741 179.375869 
L 185.346573 343.226319 
L 185.461977 344.671963 
L 185.497486 344.570985 
L 185.621768 343.283742 
L 186.13665 334.387935 
L 187.006623 321.245099 
L 187.965368 306.873039 
L 188.276073 298.082989 
L 188.489127 285.061487 
L 188.657795 258.915399 
L 188.959623 165.461274 
L 189.06615 180.666808 
L 189.856227 342.82864 
L 189.980509 344.672194 
L 190.016018 344.587249 
L 190.131423 343.451606 
L 190.575286 335.843715 
L 191.463014 322.129804 
L 192.501655 306.569643 
L 192.803482 297.855528 
L 193.016536 284.531419 
L 193.185205 257.51346 
L 193.478155 165.443974 
L 193.584682 179.90383 
L 194.383636 343.019461 
L 194.507918 344.670929 
L 194.543427 344.558966 
L 194.676586 343.12426 
L 195.289118 332.53482 
L 196.176845 319.550286 
L 196.993555 307.190222 
L 197.304259 298.692548 
L 197.517314 286.45262 
L 197.685982 262.546088 
L 197.872405 194.978936 
L 197.996686 165.465905 
L 198.041073 168.007948 
L 198.183109 199.728368 
L 198.777886 334.136189 
L 198.973186 344.41879 
L 199.02645 344.672189 
L 199.079714 344.469406 
L 199.239505 342.501356 
L 201.769527 300.707895 
L 202.000336 289.527131 
L 202.177882 268.662265 
L 202.34655 215.928321 
L 202.524095 165.45168 
L 202.559605 167.629667 
L 202.692764 196.389528 
L 203.305295 334.76857 
L 203.500595 344.473685 
L 203.544982 344.672019 
L 203.598245 344.491818 
L 203.749159 342.691112 
L 206.243673 302.193047 
L 206.492236 291.561847 
L 206.678659 272.342129 
L 206.83845 228.589119 
L 207.042627 165.446427 
L 207.087014 168.286811 
L 207.237927 202.824728 
L 207.81495 333.360224 
L 208.019127 344.4424 
L 208.072391 344.671495 
L 208.125655 344.453224 
L 208.294323 342.323728 
L 210.850977 299.395548 
L 211.072909 287.287216 
L 211.241577 264.687631 
L 211.419123 203.108776 
L 211.570036 165.478319 
L 211.605545 167.892161 
L 211.747582 199.457387 
L 212.342359 334.022456 
L 212.537659 344.408386 
L 212.590923 344.67228 
L 212.644186 344.476185 
L 212.803977 342.516827 
L 215.334 300.740295 
L 215.564809 289.59808 
L 215.742355 268.844065 
L 215.911023 216.3565 
L 216.088568 165.44585 
L 216.124077 167.522357 
L 216.257236 196.122629 
L 216.869768 334.659812 
L 217.065068 344.464675 
L 217.109455 344.671612 
L 217.171595 344.4365 
L 217.340264 342.286787 
L 219.266632 312.9244 
L 219.72825 304.377403 
L 219.994568 295.128509 
L 220.189868 279.970939 
L 220.349659 248.04744 
L 220.6071 165.452665 
L 220.686995 173.824894 
L 221.086473 275.305847 
L 221.48595 341.891269 
L 221.636864 344.671852 
L 221.654618 344.641785 
L 221.743391 343.961089 
L 222.036341 339.274629 
L 223.057227 322.929387 
L 224.175764 306.108827 
L 224.468714 297.332009 
L 224.672891 284.17965 
L 224.841559 256.580183 
L 225.134509 165.465156 
L 225.232159 178.709021 
L 226.057745 343.629752 
L 226.155395 344.672244 
L 226.199782 344.5386 
L 226.332941 343.071469 
L 226.989859 331.737861 
L 227.895341 318.673319 
L 228.641032 307.296473 
L 228.951736 298.893287 
L 229.173668 286.134865 
L 229.342336 261.722157 
L 229.537636 189.817283 
L 229.653041 165.443961 
L 229.697427 168.453161 
L 229.848341 203.193044 
L 230.425364 333.519659 
L 230.629541 344.455336 
L 230.682805 344.670686 
L 230.736068 344.443658 
L 230.904736 342.302499 
L 232.866614 312.404863 
L 233.310477 303.953219 
L 233.576795 294.262306 
L 233.772095 277.859311 
L 233.931886 242.583757 
L 234.171573 165.462096 
L 234.242591 172.010763 
L 234.508909 240.937174 
L 234.997159 338.497644 
L 235.183582 344.649849 
L 235.201336 344.672122 
L 235.236845 344.574243 
L 235.361127 343.292752 
L 235.867132 334.552913 
L 236.737105 321.373273 
L 237.704727 306.886383 
L 238.015432 298.108895 
L 238.228486 285.121439 
L 238.397155 259.073152 
L 238.698982 165.454699 
L 238.805509 180.516282 
L 239.595586 342.805928 
L 239.719868 344.672087 
L 239.755377 344.590323 
L 239.870782 343.460336 
L 240.314645 335.855107 
L 241.202373 322.138558 
L 242.249891 306.394029 
L 242.551718 297.513286 
L 242.764773 283.723493 
L 242.933441 255.362632 
L 243.217514 165.445207 
L 243.315164 177.761064 
L 244.158505 343.927947 
L 244.247277 344.671327 
L 244.291664 344.510787 
L 244.442577 342.736366 
L 246.919336 302.787793 
L 247.1679 292.82857 
L 247.354323 275.538259 
L 247.514114 236.619024 
L 247.736045 165.473831 
L 247.798186 170.371657 
L 248.002364 221.740676 
L 248.526123 335.058423 
L 248.721423 344.496826 
L 248.765809 344.672278 
L 248.819073 344.47387 
L 248.978864 342.511505 
L 251.508886 300.729148 
L 251.739695 289.573677 
L 251.917241 268.781579 
L 252.085909 216.20928 
L 252.263455 165.447384 
L 252.298964 167.558966 
L 252.432123 196.214526 
L 253.044655 334.697438 
L 253.239955 344.467824 
L 253.284341 344.671784 
L 253.346482 344.434001 
L 253.51515 342.28136 
L 255.432641 313.051261 
L 255.894259 304.588182 
L 256.169455 295.11157 
L 256.364755 279.930217 
L 256.524545 247.941925 
L 256.781986 165.450152 
L 256.861882 173.890047 
L 257.270236 277.395629 
L 257.660836 341.907025 
L 257.81175 344.671728 
L 257.829505 344.640787 
L 257.918277 343.957246 
L 258.211227 339.268555 
L 259.232114 322.924731 
L 260.35065 306.101401 
L 260.6436 297.317564 
L 260.847777 284.146491 
L 261.016445 256.491977 
L 261.309395 165.469371 
L 261.407045 178.785319 
L 262.232632 343.637996 
L 262.330282 344.672258 
L 262.374668 344.536601 
L 262.516705 342.935294 
L 264.913568 305.170692 
L 265.197641 295.865558 
L 265.401818 280.706141 
L 265.561609 249.94816 
L 265.827927 165.444218 
L 265.907823 174.338427 
L 266.413827 299.646611 
L 266.715655 342.393102 
L 266.848814 344.671212 
L 266.875445 344.633633 
L 266.973095 343.826384 
L 267.301555 338.42982 
L 268.269177 323.015089 
L 269.396591 306.050857 
L 269.689541 297.218871 
L 269.893718 283.919472 
L 270.062386 255.886801 
L 270.346459 165.458508 
L 270.452986 179.307258 
L 271.269695 343.470173 
L 271.376223 344.672044 
L 271.420609 344.522839 
L 271.562645 342.900762 
L 273.977264 304.692085 
L 274.252459 295.323604 
L 274.447759 280.437255 
L 274.60755 249.254218 
L 274.873868 165.458084 
L 274.953764 174.79481 
L 275.885877 344.663379 
L 275.903632 344.668178 
L 275.930264 344.588695 
L 276.045668 343.4557 
L 276.489532 335.849055 
L 277.377259 322.133908 
L 278.4159 306.576052 
L 278.717727 297.867952 
L 278.930782 284.560521 
L 279.09945 257.590625 
L 279.3924 165.444375 
L 279.498927 179.83424 
L 280.297882 343.009512 
L 280.422164 344.671129 
L 280.457673 344.560592 
L 280.590832 343.128635 
L 281.203364 332.539878 
L 282.091091 319.554319 
L 282.9078 307.196354 
L 283.218505 298.7042 
L 283.431559 286.478806 
L 283.600227 262.613767 
L 283.78665 195.107411 
L 283.910932 165.469587 
L 283.955318 167.972109 
L 284.097355 199.644841 
L 284.692132 334.101259 
L 284.887432 344.415618 
L 284.940695 344.672239 
L 284.993959 344.471509 
L 285.15375 342.506127 
L 287.683773 300.7179 
L 287.914582 289.549051 
L 288.092127 268.718464 
L 288.260795 216.06061 
L 288.438341 165.449461 
L 288.47385 167.59622 
L 288.607009 196.307081 
L 289.219541 334.735167 
L 289.414841 344.470952 
L 289.459227 344.671927 
L 289.521368 344.431467 
L 289.690036 342.275893 
L 291.589773 313.308117 
L 292.060268 304.795586 
L 292.335464 295.533414 
L 292.530764 280.934164 
L 292.690555 250.536804 
L 292.956873 165.447951 
L 293.045645 175.732199 
L 293.94225 344.518603 
L 293.986636 344.67162 
L 294.0399 344.455358 
L 294.199691 342.469785 
L 296.738591 300.343685 
L 296.9694 288.719363 
L 297.146945 266.567383 
L 297.315614 211.125969 
L 297.484282 165.473946 
L 297.519791 167.857235 
L 297.661827 199.374434 
L 298.256605 333.98736 
L 298.460782 344.491317 
L 298.505168 344.672271 
L 298.558432 344.47824 
L 298.718223 342.521566 
L 301.248245 300.750193 
L 301.479055 289.619739 
L 301.6566 268.89951 
L 301.825268 216.487273 
L 302.002814 165.444874 
L 302.038323 167.490105 
L 302.171482 196.040976 
L 302.784014 334.62627 
L 302.979314 344.461844 
L 303.0237 344.671435 
L 303.085841 344.438705 
L 303.254509 342.291602 
L 305.189755 312.796348 
L 305.642495 304.384849 
L 305.908814 295.143541 
L 306.104114 280.007007 
L 306.263905 248.140878 
L 306.521345 165.455238 
L 306.601241 173.767216 
L 306.991841 273.215359 
L 307.400195 341.87725 
L 307.551109 344.671951 
L 307.568864 344.64266 
L 307.657636 343.964494 
L 307.950586 339.280016 
L 308.971473 322.933518 
L 310.090009 306.115421 
L 310.382959 297.344836 
L 310.587136 284.209066 
L 310.755805 256.658402 
L 311.048755 165.461714 
L 311.146405 178.641506 
L 311.971991 343.622398 
L 312.069641 344.672201 
L 312.114027 344.540345 
L 312.247186 343.075864 
L 312.904105 331.742811 
L 313.809586 318.677327 
L 314.555277 307.30254 
L 314.865982 298.904727 
L 315.087914 286.16145 
L 315.256582 261.791146 
L 315.451882 189.938035 
L 315.567286 165.443951 
L 315.611673 168.414967 
L 315.762586 203.109322 
L 316.339609 333.483553 
L 316.543786 344.45244 
L 316.59705 344.670901 
L 316.650314 344.445855 
L 316.818982 342.307335 
L 318.798614 312.137964 
L 319.2336 303.730963 
L 319.499918 293.798335 
L 319.695218 276.700138 
L 319.855009 239.595405 
L 320.085818 165.465431 
L 320.147959 170.479518 
L 320.361014 224.357997 
L 320.875895 335.132519 
L 321.071195 344.50257 
L 321.115582 344.672181 
L 321.168845 344.469124 
L 321.328636 342.500719 
L 323.858659 300.706557 
L 324.089468 289.5242 
L 324.267014 268.654749 
L 324.435682 215.910638 
L 324.613227 165.452009 
L 324.648736 167.634164 
L 324.781895 196.400555 
L 325.394427 334.77303 
L 325.589727 344.474049 
L 325.634114 344.67203 
L 325.687377 344.491548 
L 325.838291 342.690488 
L 328.332805 302.19186 
L 328.581368 291.559268 
L 328.767791 272.335487 
L 328.927582 228.572789 
L 329.131759 165.446259 
L 329.176145 168.291795 
L 329.327059 203.377553 
L 329.824186 331.251315 
L 330.037241 351.14138 
L 330.161523 352.477614 
L 330.197032 352.401043 
L 330.321314 351.421274 
L 330.809564 344.912674 
L 331.590764 335.830484 
L 332.283191 330.275526 
L 332.984495 326.334088 
L 333.659168 323.716113 
L 334.218436 322.345796 
L 334.635668 321.830207 
L 334.973005 321.730286 
L 335.319218 321.875656 
L 335.842977 322.386812 
L 336.783968 323.28433 
L 337.316605 323.475914 
L 337.911382 323.442307 
L 340.574564 323.009112 
L 344.409545 323.104258 
L 351.182905 323.102522 
L 435.845455 323.103015 
L 435.845455 323.103015 
" clip-path="url(#p6470012853)" style="fill: none; stroke: #ff0000; stroke-width: 1.5; stroke-linecap: square"/>
   </g>
   <g id="patch_3">
    <path d="M 63 384.48 
L 63 51.84 
" style="fill: none; stroke: #000000; stroke-width: 0.8; stroke-linejoin: miter; stroke-linecap: square"/>
   </g>
   <g id="patch_4">
    <path d="M 453.6 384.48 
L 453.6 51.84 
" style="fill: none; stroke: #000000; stroke-width: 0.8; stroke-linejoin: miter; stroke-linecap: square"/>
   </g>
   <g id="patch_5">
    <path d="M 63 384.48 
L 453.6 384.48 
" style="fill: none; stroke: #000000; stroke-width: 0.8; stroke-linejoin: miter; stroke-linecap: square"/>
   </g>
   <g id="patch_6">
    <path d="M 63 51.84 
L 453.6 51.84 
" style="fill: none; stroke: #000000; stroke-width: 0.8; stroke-linejoin: miter; stroke-linecap: square"/>
   </g>
   <g id="legend_1">
    <g id="patch_7">
     <path d="M 383.460938 89.19625 
L 446.6 89.19625 
Q 448.6 89.19625 448.6 87.19625 
L 448.6 58.84 
Q 448.6 56.84 446.6 56.84 
L 383.460938 56.84 
Q 381.460938 56.84 381.460938 58.84 
L 381.460938 87.19625 
Q 381.460938 89.19625 383.460938 89.19625 
z
" style="fill: #ffffff; opacity: 0.8; stroke: #cccccc; stroke-linejoin: miter"/>
    </g>
    <g id="line2d_15">
     <path d="M 385.460938 64.938437 
L 395.460938 64.938437 
L 405.460938 64.938437 
" style="fill: none; stroke: #1f77b4; stroke-width: 1.5; stroke-linecap: square"/>
    </g>
    <g id="text_15">
     <!-- target -->
     <g transform="translate(413.460938 68.438437)scale(0.1 -0.1)">
      <defs>
       <path id="DejaVuSans-72" d="M 2631 2963 
Q 2534 3019 2420 3045 
Q 2306 3072 2169 3072 
Q 1681 3072 1420 2755 
Q 1159 2438 1159 1844 
L 1159 0 
L 581 0 
L 581 3500 
L 1159 3500 
L 1159 2956 
Q 1341 3275 1631 3429 
Q 1922 3584 2338 3584 
Q 2397 3584 2469 3576 
Q 2541 3569 2628 3553 
L 2631 2963 
z
" transform="scale(0.015625)"/>
      </defs>
      <use xlink:href="#DejaVuSans-74"/>
      <use xlink:href="#DejaVuSans-61" x="39.208984"/>
      <use xlink:href="#DejaVuSans-72" x="100.488281"/>
      <use xlink:href="#DejaVuSans-67" x="139.851562"/>
      <use xlink:href="#DejaVuSans-65" x="203.328125"/>
      <use xlink:href="#DejaVuSans-74" x="264.851562"/>
     </g>
    </g>
    <g id="line2d_16">
     <path d="M 385.460938 79.616562 
L 395.460938 79.616562 
L 405.460938 79.616562 
" style="fill: none; stroke: #ff0000; stroke-width: 1.5; stroke-linecap: square"/>
    </g>
    <g id="text_16">
     <!-- model -->
     <g transform="translate(413.460938 83.116562)scale(0.1 -0.1)">
      <defs>
       <path id="DejaVuSans-64" d="M 2906 2969 
L 2906 4863 
L 3481 4863 
L 3481 0 
L 2906 0 
L 2906 525 
Q 2725 213 2448 61 
Q 2172 -91 1784 -91 
Q 1150 -91 751 415 
Q 353 922 353 1747 
Q 353 2572 751 3078 
Q 1150 3584 1784 3584 
Q 2172 3584 2448 3432 
Q 2725 3281 2906 2969 
z
M 947 1747 
Q 947 1113 1208 752 
Q 1469 391 1925 391 
Q 2381 391 2643 752 
Q 2906 1113 2906 1747 
Q 2906 2381 2643 2742 
Q 2381 3103 1925 3103 
Q 1469 3103 1208 2742 
Q 947 2381 947 1747 
z
" transform="scale(0.015625)"/>
      </defs>
      <use xlink:href="#DejaVuSans-6d"/>
      <use xlink:href="#DejaVuSans-6f" x="97.412109"/>
      <use xlink:href="#DejaVuSans-64" x="158.59375"/>
      <use xlink:href="#DejaVuSans-65" x="222.070312"/>
      <use xlink:href="#DejaVuSans-6c" x="283.59375"/>
     </g>
    </g>
   </g>
  </g>
 </g>
 <defs>
  <clipPath id="p6470012853">
   <rect x="63" y="51.84" width="390.6" height="332.64"/>
  </clipPath>
 </defs>
</svg>
