<?xml version="1.0" encoding="utf-8" standalone="no"?>
<!DOCTYPE svg PUBLIC "-//W3C//DTD SVG 1.1//EN"
  "http://www.w3.org/Graphics/SVG/1.1/DTD/svg11.dtd">
<svg xmlns:xlink="http://www.w3.org/1999/xlink" width="504pt" height="432pt" viewBox="0 0 504 432" xmlns="http://www.w3.org/2000/svg" version="1.1">
 <metadata>
  <rdf:RDF xmlns:dc="http://purl.org/dc/elements/1.1/" xmlns:cc="http://creativecommons.org/ns#" xmlns:rdf="http://www.w3.org/1999/02/22-rdf-syntax-ns#">
   <cc:Work>
    <dc:type rdf:resource="http://purl.org/dc/dcmitype/StillImage"/>
    <dc:date>2022-01-30T23:46:24.604275</dc:date>
    <dc:format>image/svg+xml</dc:format>
    <dc:creator>
     <cc:Agent>
      <dc:title>Matplotlib v3.5.1, https://matplotlib.org/</dc:title>
     </cc:Agent>
    </dc:creator>
   </cc:Work>
  </rdf:RDF>
 </metadata>
 <defs>
  <style type="text/css">*{stroke-linejoin: round; stroke-linecap: butt}</style>
 </defs>
 <g id="figure_1">
  <g id="patch_1">
   <path d="M 0 432 
L 504 432 
L 504 0 
L 0 0 
z
" style="fill: #ffffff"/>
  </g>
  <g id="axes_1">
   <g id="patch_2">
    <path d="M 63 384.48 
L 453.6 384.48 
L 453.6 51.84 
L 63 51.84 
z
" style="fill: #ffffff"/>
   </g>
   <g id="matplotlib.axis_1">
    <g id="xtick_1">
     <g id="line2d_1">
      <defs>
       <path id="mb44d133ced" d="M 0 0 
L 0 3.5 
" style="stroke: #000000; stroke-width: 0.8"/>
      </defs>
      <g>
       <use xlink:href="#mb44d133ced" x="80.754545" y="384.48" style="stroke: #000000; stroke-width: 0.8"/>
      </g>
     </g>
     <g id="text_1">
      <!-- 0 -->
      <g transform="translate(77.573295 399.078438)scale(0.1 -0.1)">
       <defs>
        <path id="DejaVuSans-30" d="M 2034 4250 
Q 1547 4250 1301 3770 
Q 1056 3291 1056 2328 
Q 1056 1369 1301 889 
Q 1547 409 2034 409 
Q 2525 409 2770 889 
Q 3016 1369 3016 2328 
Q 3016 3291 2770 3770 
Q 2525 4250 2034 4250 
z
M 2034 4750 
Q 2819 4750 3233 4129 
Q 3647 3509 3647 2328 
Q 3647 1150 3233 529 
Q 2819 -91 2034 -91 
Q 1250 -91 836 529 
Q 422 1150 422 2328 
Q 422 3509 836 4129 
Q 1250 4750 2034 4750 
z
" transform="scale(0.015625)"/>
       </defs>
       <use xlink:href="#DejaVuSans-30"/>
      </g>
     </g>
    </g>
    <g id="xtick_2">
     <g id="line2d_2">
      <g>
       <use xlink:href="#mb44d133ced" x="151.772727" y="384.48" style="stroke: #000000; stroke-width: 0.8"/>
      </g>
     </g>
     <g id="text_2">
      <!-- 200 -->
      <g transform="translate(142.228977 399.078438)scale(0.1 -0.1)">
       <defs>
        <path id="DejaVuSans-32" d="M 1228 531 
L 3431 531 
L 3431 0 
L 469 0 
L 469 531 
Q 828 903 1448 1529 
Q 2069 2156 2228 2338 
Q 2531 2678 2651 2914 
Q 2772 3150 2772 3378 
Q 2772 3750 2511 3984 
Q 2250 4219 1831 4219 
Q 1534 4219 1204 4116 
Q 875 4013 500 3803 
L 500 4441 
Q 881 4594 1212 4672 
Q 1544 4750 1819 4750 
Q 2544 4750 2975 4387 
Q 3406 4025 3406 3419 
Q 3406 3131 3298 2873 
Q 3191 2616 2906 2266 
Q 2828 2175 2409 1742 
Q 1991 1309 1228 531 
z
" transform="scale(0.015625)"/>
       </defs>
       <use xlink:href="#DejaVuSans-32"/>
       <use xlink:href="#DejaVuSans-30" x="63.623047"/>
       <use xlink:href="#DejaVuSans-30" x="127.246094"/>
      </g>
     </g>
    </g>
    <g id="xtick_3">
     <g id="line2d_3">
      <g>
       <use xlink:href="#mb44d133ced" x="222.790909" y="384.48" style="stroke: #000000; stroke-width: 0.8"/>
      </g>
     </g>
     <g id="text_3">
      <!-- 400 -->
      <g transform="translate(213.247159 399.078438)scale(0.1 -0.1)">
       <defs>
        <path id="DejaVuSans-34" d="M 2419 4116 
L 825 1625 
L 2419 1625 
L 2419 4116 
z
M 2253 4666 
L 3047 4666 
L 3047 1625 
L 3713 1625 
L 3713 1100 
L 3047 1100 
L 3047 0 
L 2419 0 
L 2419 1100 
L 313 1100 
L 313 1709 
L 2253 4666 
z
" transform="scale(0.015625)"/>
       </defs>
       <use xlink:href="#DejaVuSans-34"/>
       <use xlink:href="#DejaVuSans-30" x="63.623047"/>
       <use xlink:href="#DejaVuSans-30" x="127.246094"/>
      </g>
     </g>
    </g>
    <g id="xtick_4">
     <g id="line2d_4">
      <g>
       <use xlink:href="#mb44d133ced" x="293.809091" y="384.48" style="stroke: #000000; stroke-width: 0.8"/>
      </g>
     </g>
     <g id="text_4">
      <!-- 600 -->
      <g transform="translate(284.265341 399.078438)scale(0.1 -0.1)">
       <defs>
        <path id="DejaVuSans-36" d="M 2113 2584 
Q 1688 2584 1439 2293 
Q 1191 2003 1191 1497 
Q 1191 994 1439 701 
Q 1688 409 2113 409 
Q 2538 409 2786 701 
Q 3034 994 3034 1497 
Q 3034 2003 2786 2293 
Q 2538 2584 2113 2584 
z
M 3366 4563 
L 3366 3988 
Q 3128 4100 2886 4159 
Q 2644 4219 2406 4219 
Q 1781 4219 1451 3797 
Q 1122 3375 1075 2522 
Q 1259 2794 1537 2939 
Q 1816 3084 2150 3084 
Q 2853 3084 3261 2657 
Q 3669 2231 3669 1497 
Q 3669 778 3244 343 
Q 2819 -91 2113 -91 
Q 1303 -91 875 529 
Q 447 1150 447 2328 
Q 447 3434 972 4092 
Q 1497 4750 2381 4750 
Q 2619 4750 2861 4703 
Q 3103 4656 3366 4563 
z
" transform="scale(0.015625)"/>
       </defs>
       <use xlink:href="#DejaVuSans-36"/>
       <use xlink:href="#DejaVuSans-30" x="63.623047"/>
       <use xlink:href="#DejaVuSans-30" x="127.246094"/>
      </g>
     </g>
    </g>
    <g id="xtick_5">
     <g id="line2d_5">
      <g>
       <use xlink:href="#mb44d133ced" x="364.827273" y="384.48" style="stroke: #000000; stroke-width: 0.8"/>
      </g>
     </g>
     <g id="text_5">
      <!-- 800 -->
      <g transform="translate(355.283523 399.078438)scale(0.1 -0.1)">
       <defs>
        <path id="DejaVuSans-38" d="M 2034 2216 
Q 1584 2216 1326 1975 
Q 1069 1734 1069 1313 
Q 1069 891 1326 650 
Q 1584 409 2034 409 
Q 2484 409 2743 651 
Q 3003 894 3003 1313 
Q 3003 1734 2745 1975 
Q 2488 2216 2034 2216 
z
M 1403 2484 
Q 997 2584 770 2862 
Q 544 3141 544 3541 
Q 544 4100 942 4425 
Q 1341 4750 2034 4750 
Q 2731 4750 3128 4425 
Q 3525 4100 3525 3541 
Q 3525 3141 3298 2862 
Q 3072 2584 2669 2484 
Q 3125 2378 3379 2068 
Q 3634 1759 3634 1313 
Q 3634 634 3220 271 
Q 2806 -91 2034 -91 
Q 1263 -91 848 271 
Q 434 634 434 1313 
Q 434 1759 690 2068 
Q 947 2378 1403 2484 
z
M 1172 3481 
Q 1172 3119 1398 2916 
Q 1625 2713 2034 2713 
Q 2441 2713 2670 2916 
Q 2900 3119 2900 3481 
Q 2900 3844 2670 4047 
Q 2441 4250 2034 4250 
Q 1625 4250 1398 4047 
Q 1172 3844 1172 3481 
z
" transform="scale(0.015625)"/>
       </defs>
       <use xlink:href="#DejaVuSans-38"/>
       <use xlink:href="#DejaVuSans-30" x="63.623047"/>
       <use xlink:href="#DejaVuSans-30" x="127.246094"/>
      </g>
     </g>
    </g>
    <g id="text_6">
     <!-- time [ms] -->
     <g transform="translate(234.038281 412.756563)scale(0.1 -0.1)">
      <defs>
       <path id="DejaVuSans-74" d="M 1172 4494 
L 1172 3500 
L 2356 3500 
L 2356 3053 
L 1172 3053 
L 1172 1153 
Q 1172 725 1289 603 
Q 1406 481 1766 481 
L 2356 481 
L 2356 0 
L 1766 0 
Q 1100 0 847 248 
Q 594 497 594 1153 
L 594 3053 
L 172 3053 
L 172 3500 
L 594 3500 
L 594 4494 
L 1172 4494 
z
" transform="scale(0.015625)"/>
       <path id="DejaVuSans-69" d="M 603 3500 
L 1178 3500 
L 1178 0 
L 603 0 
L 603 3500 
z
M 603 4863 
L 1178 4863 
L 1178 4134 
L 603 4134 
L 603 4863 
z
" transform="scale(0.015625)"/>
       <path id="DejaVuSans-6d" d="M 3328 2828 
Q 3544 3216 3844 3400 
Q 4144 3584 4550 3584 
Q 5097 3584 5394 3201 
Q 5691 2819 5691 2113 
L 5691 0 
L 5113 0 
L 5113 2094 
Q 5113 2597 4934 2840 
Q 4756 3084 4391 3084 
Q 3944 3084 3684 2787 
Q 3425 2491 3425 1978 
L 3425 0 
L 2847 0 
L 2847 2094 
Q 2847 2600 2669 2842 
Q 2491 3084 2119 3084 
Q 1678 3084 1418 2786 
Q 1159 2488 1159 1978 
L 1159 0 
L 581 0 
L 581 3500 
L 1159 3500 
L 1159 2956 
Q 1356 3278 1631 3431 
Q 1906 3584 2284 3584 
Q 2666 3584 2933 3390 
Q 3200 3197 3328 2828 
z
" transform="scale(0.015625)"/>
       <path id="DejaVuSans-65" d="M 3597 1894 
L 3597 1613 
L 953 1613 
Q 991 1019 1311 708 
Q 1631 397 2203 397 
Q 2534 397 2845 478 
Q 3156 559 3463 722 
L 3463 178 
Q 3153 47 2828 -22 
Q 2503 -91 2169 -91 
Q 1331 -91 842 396 
Q 353 884 353 1716 
Q 353 2575 817 3079 
Q 1281 3584 2069 3584 
Q 2775 3584 3186 3129 
Q 3597 2675 3597 1894 
z
M 3022 2063 
Q 3016 2534 2758 2815 
Q 2500 3097 2075 3097 
Q 1594 3097 1305 2825 
Q 1016 2553 972 2059 
L 3022 2063 
z
" transform="scale(0.015625)"/>
       <path id="DejaVuSans-20" transform="scale(0.015625)"/>
       <path id="DejaVuSans-5b" d="M 550 4863 
L 1875 4863 
L 1875 4416 
L 1125 4416 
L 1125 -397 
L 1875 -397 
L 1875 -844 
L 550 -844 
L 550 4863 
z
" transform="scale(0.015625)"/>
       <path id="DejaVuSans-73" d="M 2834 3397 
L 2834 2853 
Q 2591 2978 2328 3040 
Q 2066 3103 1784 3103 
Q 1356 3103 1142 2972 
Q 928 2841 928 2578 
Q 928 2378 1081 2264 
Q 1234 2150 1697 2047 
L 1894 2003 
Q 2506 1872 2764 1633 
Q 3022 1394 3022 966 
Q 3022 478 2636 193 
Q 2250 -91 1575 -91 
Q 1294 -91 989 -36 
Q 684 19 347 128 
L 347 722 
Q 666 556 975 473 
Q 1284 391 1588 391 
Q 1994 391 2212 530 
Q 2431 669 2431 922 
Q 2431 1156 2273 1281 
Q 2116 1406 1581 1522 
L 1381 1569 
Q 847 1681 609 1914 
Q 372 2147 372 2553 
Q 372 3047 722 3315 
Q 1072 3584 1716 3584 
Q 2034 3584 2315 3537 
Q 2597 3491 2834 3397 
z
" transform="scale(0.015625)"/>
       <path id="DejaVuSans-5d" d="M 1947 4863 
L 1947 -844 
L 622 -844 
L 622 -397 
L 1369 -397 
L 1369 4416 
L 622 4416 
L 622 4863 
L 1947 4863 
z
" transform="scale(0.015625)"/>
      </defs>
      <use xlink:href="#DejaVuSans-74"/>
      <use xlink:href="#DejaVuSans-69" x="39.208984"/>
      <use xlink:href="#DejaVuSans-6d" x="66.992188"/>
      <use xlink:href="#DejaVuSans-65" x="164.404297"/>
      <use xlink:href="#DejaVuSans-20" x="225.927734"/>
      <use xlink:href="#DejaVuSans-5b" x="257.714844"/>
      <use xlink:href="#DejaVuSans-6d" x="296.728516"/>
      <use xlink:href="#DejaVuSans-73" x="394.140625"/>
      <use xlink:href="#DejaVuSans-5d" x="446.240234"/>
     </g>
    </g>
   </g>
   <g id="matplotlib.axis_2">
    <g id="ytick_1">
     <g id="line2d_6">
      <defs>
       <path id="m304741c18b" d="M 0 0 
L -3.5 0 
" style="stroke: #000000; stroke-width: 0.8"/>
      </defs>
      <g>
       <use xlink:href="#m304741c18b" x="63" y="381.77194" style="stroke: #000000; stroke-width: 0.8"/>
      </g>
     </g>
     <g id="text_7">
      <!-- −80 -->
      <g transform="translate(34.895313 385.571159)scale(0.1 -0.1)">
       <defs>
        <path id="DejaVuSans-2212" d="M 678 2272 
L 4684 2272 
L 4684 1741 
L 678 1741 
L 678 2272 
z
" transform="scale(0.015625)"/>
       </defs>
       <use xlink:href="#DejaVuSans-2212"/>
       <use xlink:href="#DejaVuSans-38" x="83.789062"/>
       <use xlink:href="#DejaVuSans-30" x="147.412109"/>
      </g>
     </g>
    </g>
    <g id="ytick_2">
     <g id="line2d_7">
      <g>
       <use xlink:href="#m304741c18b" x="63" y="329.161147" style="stroke: #000000; stroke-width: 0.8"/>
      </g>
     </g>
     <g id="text_8">
      <!-- −60 -->
      <g transform="translate(34.895313 332.960366)scale(0.1 -0.1)">
       <use xlink:href="#DejaVuSans-2212"/>
       <use xlink:href="#DejaVuSans-36" x="83.789062"/>
       <use xlink:href="#DejaVuSans-30" x="147.412109"/>
      </g>
     </g>
    </g>
    <g id="ytick_3">
     <g id="line2d_8">
      <g>
       <use xlink:href="#m304741c18b" x="63" y="276.550353" style="stroke: #000000; stroke-width: 0.8"/>
      </g>
     </g>
     <g id="text_9">
      <!-- −40 -->
      <g transform="translate(34.895313 280.349572)scale(0.1 -0.1)">
       <use xlink:href="#DejaVuSans-2212"/>
       <use xlink:href="#DejaVuSans-34" x="83.789062"/>
       <use xlink:href="#DejaVuSans-30" x="147.412109"/>
      </g>
     </g>
    </g>
    <g id="ytick_4">
     <g id="line2d_9">
      <g>
       <use xlink:href="#m304741c18b" x="63" y="223.93956" style="stroke: #000000; stroke-width: 0.8"/>
      </g>
     </g>
     <g id="text_10">
      <!-- −20 -->
      <g transform="translate(34.895313 227.738778)scale(0.1 -0.1)">
       <use xlink:href="#DejaVuSans-2212"/>
       <use xlink:href="#DejaVuSans-32" x="83.789062"/>
       <use xlink:href="#DejaVuSans-30" x="147.412109"/>
      </g>
     </g>
    </g>
    <g id="ytick_5">
     <g id="line2d_10">
      <g>
       <use xlink:href="#m304741c18b" x="63" y="171.328766" style="stroke: #000000; stroke-width: 0.8"/>
      </g>
     </g>
     <g id="text_11">
      <!-- 0 -->
      <g transform="translate(49.6375 175.127985)scale(0.1 -0.1)">
       <use xlink:href="#DejaVuSans-30"/>
      </g>
     </g>
    </g>
    <g id="ytick_6">
     <g id="line2d_11">
      <g>
       <use xlink:href="#m304741c18b" x="63" y="118.717973" style="stroke: #000000; stroke-width: 0.8"/>
      </g>
     </g>
     <g id="text_12">
      <!-- 20 -->
      <g transform="translate(43.275 122.517191)scale(0.1 -0.1)">
       <use xlink:href="#DejaVuSans-32"/>
       <use xlink:href="#DejaVuSans-30" x="63.623047"/>
      </g>
     </g>
    </g>
    <g id="ytick_7">
     <g id="line2d_12">
      <g>
       <use xlink:href="#m304741c18b" x="63" y="66.107179" style="stroke: #000000; stroke-width: 0.8"/>
      </g>
     </g>
     <g id="text_13">
      <!-- 40 -->
      <g transform="translate(43.275 69.906398)scale(0.1 -0.1)">
       <use xlink:href="#DejaVuSans-34"/>
       <use xlink:href="#DejaVuSans-30" x="63.623047"/>
      </g>
     </g>
    </g>
    <g id="text_14">
     <!-- voltage [mV] -->
     <g transform="translate(28.815625 250.624062)rotate(-90)scale(0.1 -0.1)">
      <defs>
       <path id="DejaVuSans-76" d="M 191 3500 
L 800 3500 
L 1894 563 
L 2988 3500 
L 3597 3500 
L 2284 0 
L 1503 0 
L 191 3500 
z
" transform="scale(0.015625)"/>
       <path id="DejaVuSans-6f" d="M 1959 3097 
Q 1497 3097 1228 2736 
Q 959 2375 959 1747 
Q 959 1119 1226 758 
Q 1494 397 1959 397 
Q 2419 397 2687 759 
Q 2956 1122 2956 1747 
Q 2956 2369 2687 2733 
Q 2419 3097 1959 3097 
z
M 1959 3584 
Q 2709 3584 3137 3096 
Q 3566 2609 3566 1747 
Q 3566 888 3137 398 
Q 2709 -91 1959 -91 
Q 1206 -91 779 398 
Q 353 888 353 1747 
Q 353 2609 779 3096 
Q 1206 3584 1959 3584 
z
" transform="scale(0.015625)"/>
       <path id="DejaVuSans-6c" d="M 603 4863 
L 1178 4863 
L 1178 0 
L 603 0 
L 603 4863 
z
" transform="scale(0.015625)"/>
       <path id="DejaVuSans-61" d="M 2194 1759 
Q 1497 1759 1228 1600 
Q 959 1441 959 1056 
Q 959 750 1161 570 
Q 1363 391 1709 391 
Q 2188 391 2477 730 
Q 2766 1069 2766 1631 
L 2766 1759 
L 2194 1759 
z
M 3341 1997 
L 3341 0 
L 2766 0 
L 2766 531 
Q 2569 213 2275 61 
Q 1981 -91 1556 -91 
Q 1019 -91 701 211 
Q 384 513 384 1019 
Q 384 1609 779 1909 
Q 1175 2209 1959 2209 
L 2766 2209 
L 2766 2266 
Q 2766 2663 2505 2880 
Q 2244 3097 1772 3097 
Q 1472 3097 1187 3025 
Q 903 2953 641 2809 
L 641 3341 
Q 956 3463 1253 3523 
Q 1550 3584 1831 3584 
Q 2591 3584 2966 3190 
Q 3341 2797 3341 1997 
z
" transform="scale(0.015625)"/>
       <path id="DejaVuSans-67" d="M 2906 1791 
Q 2906 2416 2648 2759 
Q 2391 3103 1925 3103 
Q 1463 3103 1205 2759 
Q 947 2416 947 1791 
Q 947 1169 1205 825 
Q 1463 481 1925 481 
Q 2391 481 2648 825 
Q 2906 1169 2906 1791 
z
M 3481 434 
Q 3481 -459 3084 -895 
Q 2688 -1331 1869 -1331 
Q 1566 -1331 1297 -1286 
Q 1028 -1241 775 -1147 
L 775 -588 
Q 1028 -725 1275 -790 
Q 1522 -856 1778 -856 
Q 2344 -856 2625 -561 
Q 2906 -266 2906 331 
L 2906 616 
Q 2728 306 2450 153 
Q 2172 0 1784 0 
Q 1141 0 747 490 
Q 353 981 353 1791 
Q 353 2603 747 3093 
Q 1141 3584 1784 3584 
Q 2172 3584 2450 3431 
Q 2728 3278 2906 2969 
L 2906 3500 
L 3481 3500 
L 3481 434 
z
" transform="scale(0.015625)"/>
       <path id="DejaVuSans-56" d="M 1831 0 
L 50 4666 
L 709 4666 
L 2188 738 
L 3669 4666 
L 4325 4666 
L 2547 0 
L 1831 0 
z
" transform="scale(0.015625)"/>
      </defs>
      <use xlink:href="#DejaVuSans-76"/>
      <use xlink:href="#DejaVuSans-6f" x="59.179688"/>
      <use xlink:href="#DejaVuSans-6c" x="120.361328"/>
      <use xlink:href="#DejaVuSans-74" x="148.144531"/>
      <use xlink:href="#DejaVuSans-61" x="187.353516"/>
      <use xlink:href="#DejaVuSans-67" x="248.632812"/>
      <use xlink:href="#DejaVuSans-65" x="312.109375"/>
      <use xlink:href="#DejaVuSans-20" x="373.632812"/>
      <use xlink:href="#DejaVuSans-5b" x="405.419922"/>
      <use xlink:href="#DejaVuSans-6d" x="444.433594"/>
      <use xlink:href="#DejaVuSans-56" x="541.845703"/>
      <use xlink:href="#DejaVuSans-5d" x="610.253906"/>
     </g>
    </g>
   </g>
   <g id="line2d_13">
    <path d="M 80.754545 342.313845 
L 81.952977 342.17732 
L 83.772818 342.234403 
L 85.965505 342.253343 
L 151.772727 342.244662 
L 152.314241 297.625974 
L 152.420768 248.886546 
L 152.562805 66.96 
L 152.678209 92.231595 
L 153.565936 368.858095 
L 153.610323 368.757345 
L 153.8145 367.375523 
L 154.293873 362.611615 
L 154.959668 353.470753 
L 157.42755 314.496151 
L 157.613973 303.34503 
L 157.738255 281.332411 
L 157.835905 218.641916 
L 157.969064 91.37325 
L 158.031205 104.553832 
L 158.883423 368.432737 
L 158.945564 368.248862 
L 159.203005 366.265435 
L 159.717886 360.580313 
L 160.534595 348.627667 
L 161.8218 330.458529 
L 162.514227 320.069739 
L 162.771668 312.532979 
L 162.940336 300.515885 
L 163.064618 272.489589 
L 163.162268 187.9094 
L 163.268795 92.295517 
L 163.322059 101.829119 
L 163.863573 297.347137 
L 164.147645 368.255701 
L 164.183155 368.400907 
L 164.245295 368.219137 
L 164.493859 366.311469 
L 165.008741 360.646076 
L 165.834327 348.570058 
L 167.112655 330.533236 
L 167.813959 320.034226 
L 168.0714 312.487734 
L 168.240068 300.431182 
L 168.36435 272.242845 
L 168.462 187.162195 
L 168.568527 92.372592 
L 168.621791 102.051662 
L 169.172182 301.307414 
L 169.4385 368.169683 
L 169.482886 368.398803 
L 169.545027 368.213087 
L 169.802468 366.221505 
L 170.31735 360.518495 
L 171.151814 348.280435 
L 172.430141 330.289911 
L 173.113691 320.015813 
L 173.371132 312.45117 
L 173.5398 300.335167 
L 173.664082 271.904031 
L 173.761732 186.008414 
L 173.868259 92.389427 
L 173.921523 102.288148 
L 174.480791 305.387381 
L 174.729355 368.059989 
L 174.782618 368.398803 
L 174.844759 368.208878 
L 175.1022 366.21414 
L 175.617082 360.50771 
L 176.451545 348.267546 
L 177.729873 330.279126 
L 178.413423 319.998977 
L 178.670864 312.415131 
L 178.839532 300.237837 
L 178.963814 271.556274 
L 179.061464 184.820857 
L 179.167991 92.406789 
L 179.221255 102.527264 
L 179.7894 309.570729 
L 180.029086 368.072353 
L 180.08235 368.399066 
L 180.144491 368.204406 
L 180.401932 366.206774 
L 180.916814 360.497188 
L 181.751277 348.255182 
L 183.029605 330.268604 
L 183.713155 319.981879 
L 183.970595 312.37883 
L 184.139264 300.139455 
L 184.263545 271.200362 
L 184.361195 183.612413 
L 184.467723 92.430727 
L 184.520986 102.770063 
L 185.098009 313.846145 
L 185.328818 368.084453 
L 185.382082 368.399066 
L 185.444223 368.200197 
L 185.701664 366.199145 
L 186.216545 360.486665 
L 187.051009 348.242555 
L 188.329336 330.258082 
L 189.012886 319.965043 
L 189.270327 312.342265 
L 189.438995 300.039494 
L 189.563277 270.839189 
L 189.660927 182.399156 
L 189.767455 92.460452 
L 189.820718 103.015229 
L 190.406618 318.193901 
L 190.619673 367.950296 
L 190.681814 368.398803 
L 190.743955 368.195725 
L 191.010273 366.110233 
L 191.525155 360.360926 
L 192.368495 347.956353 
L 193.637945 330.131816 
L 194.312618 319.947682 
L 194.570059 312.305701 
L 194.738727 299.939008 
L 194.863009 270.474596 
L 194.969536 167.792926 
L 195.058309 92.447036 
L 195.12045 103.263026 
L 195.715227 322.587954 
L 195.919405 367.965816 
L 195.981545 368.398803 
L 196.043686 368.191253 
L 196.310005 366.102605 
L 196.833764 360.23466 
L 197.703736 347.397363 
L 198.955432 329.890069 
L 199.61235 319.930583 
L 199.869791 312.26861 
L 200.038459 299.837469 
L 200.162741 270.102637 
L 200.269268 166.526821 
L 200.358041 92.417574 
L 200.420182 103.515032 
L 201.023836 326.991215 
L 201.219136 367.980547 
L 201.281277 368.398277 
L 201.343418 368.186781 
L 201.609736 366.094976 
L 202.133495 360.223612 
L 202.994591 347.520998 
L 204.255164 329.879284 
L 204.912082 319.912958 
L 205.169523 312.230993 
L 205.338191 299.734352 
L 205.462473 269.723051 
L 205.569 165.252219 
L 205.657773 92.395214 
L 205.719914 103.768879 
L 206.332445 331.355543 
L 206.518868 367.995278 
L 206.581009 368.398014 
L 206.634273 368.22887 
L 206.873959 366.409852 
L 207.388841 360.786284 
L 208.187795 349.149829 
L 209.510509 330.445376 
L 210.202936 320.080261 
L 210.460377 312.586905 
L 210.629045 300.69976 
L 210.753327 273.197993 
L 210.850977 190.475596 
L 210.957505 92.379957 
L 211.019645 104.023778 
L 211.641055 335.62675 
L 211.827477 368.141273 
L 211.880741 368.397487 
L 211.934005 368.224661 
L 212.182568 366.322518 
L 212.69745 360.661859 
L 213.514159 348.726049 
L 214.810241 330.434591 
L 215.502668 320.063162 
L 215.760109 312.550867 
L 215.928777 300.603219 
L 216.053059 272.857865 
L 216.150709 189.293958 
L 216.257236 92.373644 
L 216.319377 104.278151 
L 216.949664 339.741177 
L 217.127209 368.151795 
L 217.171595 368.398014 
L 217.233736 368.220452 
L 217.4823 366.315152 
L 217.997182 360.651337 
L 218.822768 348.576371 
L 220.101095 330.539023 
L 220.8024 320.046064 
L 221.059841 312.515092 
L 221.228509 300.506941 
L 221.352791 272.516421 
L 221.450441 188.112898 
L 221.556968 92.37417 
L 221.610232 101.866209 
L 222.151745 297.402641 
L 222.426941 368.161791 
L 222.471327 368.398277 
L 222.533468 368.216243 
L 222.782032 366.307787 
L 223.296914 360.640815 
L 224.1225 348.563481 
L 225.418582 330.298066 
L 226.111009 319.843512 
L 226.36845 312.081316 
L 226.537118 299.320042 
L 226.652523 272.172346 
L 226.750173 186.92713 
L 226.8567 92.38022 
L 226.909964 102.104273 
L 227.460355 301.382911 
L 227.726673 368.171524 
L 227.771059 368.398803 
L 227.8332 368.212034 
L 228.090641 366.219664 
L 228.605523 360.515864 
L 229.439986 348.277279 
L 230.718314 330.287281 
L 231.401864 320.011867 
L 231.659305 312.442752 
L 231.827973 300.31307 
L 231.952255 271.825904 
L 232.049905 185.741151 
L 232.156432 92.39311 
L 232.209695 102.342074 
L 232.768964 305.466035 
L 233.017527 368.062883 
L 233.070791 368.398803 
L 233.132932 368.207826 
L 233.390373 366.212298 
L 233.905255 360.505342 
L 234.739718 348.264652 
L 236.018045 330.276759 
L 236.701595 319.995031 
L 236.959036 312.406977 
L 237.127705 300.21574 
L 237.251986 271.476305 
L 237.349636 184.548385 
L 237.456164 92.411524 
L 237.509427 102.582242 
L 238.077573 309.651749 
L 238.317259 368.074983 
L 238.370523 368.399066 
L 238.432664 368.203617 
L 238.690105 366.204933 
L 239.204986 360.49482 
L 240.03945 348.252288 
L 241.317777 330.266237 
L 242.001327 319.978196 
L 242.258768 312.370675 
L 242.427436 300.116832 
L 242.551718 271.118552 
L 242.649368 183.337127 
L 242.755895 92.43704 
L 242.809159 102.825567 
L 243.386182 313.929007 
L 243.616991 368.087084 
L 243.670255 368.399066 
L 243.732395 368.199145 
L 243.989836 366.197567 
L 244.504718 360.484298 
L 245.348059 348.102874 
L 246.617509 330.255451 
L 247.301059 319.961097 
L 247.5585 312.334111 
L 247.727168 300.016609 
L 247.85145 270.756853 
L 247.9491 182.122686 
L 248.055627 92.468343 
L 248.108891 103.07126 
L 248.694791 318.278604 
L 248.907845 367.953978 
L 248.969986 368.398803 
L 249.032127 368.194936 
L 249.298445 366.108655 
L 249.822205 360.243078 
L 250.692177 347.407359 
L 251.943873 329.898487 
L 252.600791 319.943736 
L 252.858232 312.297283 
L 253.0269 299.915859 
L 253.151182 270.390418 
L 253.257709 167.504672 
L 253.346482 92.43967 
L 253.408623 103.320372 
L 254.0034 322.674236 
L 254.207577 367.969236 
L 254.269718 368.39854 
L 254.331859 368.190464 
L 254.598177 366.101026 
L 255.121936 360.232029 
L 255.983032 347.530995 
L 257.22585 330.118663 
L 257.900523 319.926637 
L 258.157964 312.260192 
L 258.326632 299.814057 
L 258.450914 270.016619 
L 258.557441 166.235962 
L 258.646214 92.411787 
L 258.708355 103.573167 
L 259.312009 327.077496 
L 259.507309 367.983967 
L 259.56945 368.398277 
L 259.631591 368.185729 
L 259.897909 366.093135 
L 260.421668 360.221244 
L 261.291641 347.381843 
L 262.525582 330.107878 
L 263.200255 319.909013 
L 263.457695 312.222576 
L 263.626364 299.710677 
L 263.750645 269.635717 
L 263.857173 164.960835 
L 263.945945 92.391005 
L 264.008086 103.827014 
L 264.620618 331.440509 
L 264.807041 367.998698 
L 264.869182 368.397751 
L 264.922445 368.228081 
L 265.171009 366.328305 
L 265.685891 360.670277 
L 266.511477 348.598994 
L 267.807559 330.327791 
L 268.499986 319.891651 
L 268.757427 312.184959 
L 268.926095 299.607297 
L 269.050377 269.254814 
L 269.156905 163.695203 
L 269.245677 92.377853 
L 269.298941 101.446638 
L 269.8227 289.826424 
L 270.133405 368.310417 
L 270.168914 368.397487 
L 270.222177 368.223872 
L 270.470741 366.320939 
L 270.985623 360.659492 
L 271.802332 348.723155 
L 273.098414 330.432224 
L 273.790841 320.059216 
L 274.048282 312.542712 
L 274.21695 300.581385 
L 274.341232 272.780001 
L 274.438882 189.023644 
L 274.545409 92.373381 
L 274.598673 101.683124 
L 275.131309 293.601511 
L 275.424259 368.248336 
L 275.459768 368.398014 
L 275.521909 368.219663 
L 275.770473 366.313574 
L 276.285355 360.64897 
L 277.110941 348.573477 
L 278.389268 330.536656 
L 279.090573 320.042118 
L 279.348014 312.506674 
L 279.516682 300.484845 
L 279.640964 272.438031 
L 279.738614 187.842479 
L 279.845141 92.374696 
L 279.898405 101.920661 
L 280.439918 297.478664 
L 280.715114 368.163896 
L 280.7595 368.39854 
L 280.821641 368.215454 
L 281.079082 366.225451 
L 281.593964 360.524019 
L 282.428427 348.287012 
L 283.706755 330.295435 
L 284.390305 320.025019 
L 284.647745 312.470636 
L 284.816414 300.388041 
L 284.940695 272.09343 
L 285.038345 186.656605 
L 285.144873 92.382588 
L 285.198136 102.158462 
L 285.748527 301.459986 
L 286.014845 368.173629 
L 286.059232 368.398803 
L 286.121373 368.210982 
L 286.378814 366.218085 
L 286.893695 360.513497 
L 287.728159 348.274385 
L 289.006486 330.284913 
L 289.690036 320.008184 
L 289.947477 312.434597 
L 290.116145 300.290974 
L 290.240427 271.746462 
L 290.338077 185.469732 
L 290.444605 92.396793 
L 290.497868 102.396526 
L 291.057136 305.545477 
L 291.3057 368.065776 
L 291.358964 368.399066 
L 291.421105 368.206773 
L 291.678545 366.21072 
L 292.193427 360.502975 
L 293.027891 348.261758 
L 294.315095 330.15891 
L 294.989768 319.991085 
L 295.247209 312.398559 
L 295.415877 300.193381 
L 295.540159 271.395285 
L 295.637809 184.273047 
L 295.744336 92.416785 
L 295.7976 102.637484 
L 296.365745 309.733296 
L 296.605432 368.077877 
L 296.658695 368.399066 
L 296.720836 368.202564 
L 296.978277 366.203354 
L 297.493159 360.492453 
L 298.327623 348.249395 
L 299.60595 330.263869 
L 300.2895 319.97425 
L 300.546941 312.362257 
L 300.715609 300.093946 
L 300.839891 271.036479 
L 300.937541 183.061447 
L 301.044068 92.443616 
L 301.097332 102.881072 
L 301.674355 314.011869 
L 301.905164 368.089714 
L 301.958427 368.399066 
L 302.020568 368.198356 
L 302.286886 366.114442 
L 302.810645 360.251232 
L 303.671741 347.553617 
L 304.914559 330.137866 
L 305.589232 319.957152 
L 305.846673 312.325693 
L 306.015341 299.993986 
L 306.139623 270.674254 
L 306.24615 168.478445 
L 306.334923 92.465713 
L 306.397064 103.127553 
L 306.982964 318.363308 
L 307.196018 367.957398 
L 307.258159 368.398803 
L 307.3203 368.193884 
L 307.586618 366.106813 
L 308.110377 360.240447 
L 308.971473 347.540991 
L 310.214291 330.127081 
L 310.888964 319.940053 
L 311.146405 312.288865 
L 311.315073 299.892973 
L 311.439355 270.305978 
L 311.545882 167.217443 
L 311.634655 92.432831 
L 311.696795 103.377454 
L 312.291573 322.759992 
L 312.49575 367.972655 
L 312.557891 368.39854 
L 312.620032 368.189412 
L 312.88635 366.099185 
L 313.410109 360.229662 
L 314.280082 347.391576 
L 315.531777 329.885071 
L 316.188695 319.922428 
L 316.446136 312.251512 
L 316.614805 299.790645 
L 316.739086 269.930863 
L 316.845614 165.946208 
L 316.934386 92.406526 
L 316.996527 103.630775 
L 317.600182 327.163515 
L 317.795482 367.987386 
L 317.857623 368.398277 
L 317.910886 368.231237 
L 318.150573 366.413797 
L 318.665455 360.792071 
L 319.464409 349.156668 
L 320.787123 330.451426 
L 321.488427 319.905067 
L 321.745868 312.213895 
L 321.914536 299.687002 
L 322.038818 269.548646 
L 322.145345 164.670844 
L 322.234118 92.387323 
L 322.296259 103.885149 
L 322.908791 331.525213 
L 323.095214 368.002117 
L 323.157355 368.397751 
L 323.210618 368.227028 
L 323.459182 366.326727 
L 323.974064 360.667647 
L 324.790773 348.732888 
L 326.095732 330.325161 
L 326.779282 320.072369 
L 327.036723 312.570596 
L 327.205391 300.65583 
L 327.329673 273.043055 
L 327.427323 189.936862 
L 327.53385 92.376011 
L 327.595991 104.139785 
L 328.2174 335.79037 
L 328.403823 368.146008 
L 328.457086 368.397224 
L 328.51035 368.22282 
L 328.758914 366.319098 
L 329.273795 360.657124 
L 329.318182 360.080773 
L 329.335936 360.984101 
L 329.531236 364.989886 
L 329.620009 365.178496 
L 329.664395 365.120887 
L 329.815309 364.511654 
L 330.214786 361.683561 
L 332.176664 346.868099 
L 332.869091 343.633324 
L 333.428359 341.971349 
L 333.889977 341.225328 
L 334.262823 340.997523 
L 334.609036 341.034351 
L 335.061777 341.324499 
L 336.553159 342.418804 
L 337.156814 342.515871 
L 338.097805 342.405388 
L 339.580309 342.210202 
L 342.101455 342.246503 
L 345.714505 342.242558 
L 435.845455 342.244662 
L 435.845455 342.244662 
" clip-path="url(#p64a7a4d2c2)" style="fill: none; stroke: #1f77b4; stroke-width: 1.5; stroke-linecap: square"/>
   </g>
   <g id="line2d_14">
    <path d="M 80.754545 342.313845 
L 81.109636 332.12053 
L 81.571255 319.128019 
L 81.739923 305.947214 
L 81.84645 278.099717 
L 81.935223 172.836644 
L 82.023995 68.279697 
L 82.086136 77.166821 
L 82.352455 167.325626 
L 83.01825 369.36 
L 83.027127 369.352934 
L 83.1159 368.965778 
L 83.533132 365.860469 
L 84.181173 359.217888 
L 85.619291 344.129115 
L 86.329473 339.195386 
L 86.950882 336.309683 
L 87.456886 334.898164 
L 87.829732 334.417057 
L 88.140436 334.341577 
L 88.477773 334.508053 
L 89.960277 335.515888 
L 90.581686 335.484138 
L 92.472545 335.263347 
L 99.547732 335.314362 
L 151.772727 335.314565 
L 152.323118 290.948867 
L 152.420768 229.638542 
L 152.54505 74.42873 
L 152.624945 89.021336 
L 153.219723 295.294584 
L 153.494918 367.120465 
L 153.512673 367.112367 
L 153.530427 367.047912 
L 153.707973 365.547378 
L 154.240609 359.144378 
L 156.513191 329.191617 
L 157.3299 319.662712 
L 157.587341 313.660555 
L 157.756009 304.142975 
L 157.880291 282.49613 
L 157.977941 214.269206 
L 158.102223 91.419509 
L 158.164364 103.484602 
L 158.750264 312.315005 
L 158.972195 366.690839 
L 158.998827 366.781105 
L 159.052091 366.544649 
L 159.345041 363.62669 
L 159.975327 355.141788 
L 161.440077 334.916916 
L 163.002477 316.128151 
L 163.206655 308.273513 
L 163.348691 292.340214 
L 163.455218 246.839496 
L 163.606132 92.090246 
L 163.703782 114.187992 
L 164.502736 366.754847 
L 164.538245 366.642304 
L 164.742423 364.787637 
L 165.310568 357.602284 
L 167.174795 332.384646 
L 168.426491 317.914903 
L 168.6573 311.232963 
L 168.808214 299.880335 
L 168.923618 271.229597 
L 169.021268 171.956909 
L 169.110041 92.217456 
L 169.172182 102.181676 
L 169.687064 281.503344 
L 170.006645 366.751702 
L 170.0244 366.729534 
L 170.130927 365.96355 
L 170.601423 360.58097 
L 171.5868 346.08487 
L 172.510036 334.244142 
L 173.992541 316.669376 
L 174.196718 309.628974 
L 174.338755 296.546595 
L 174.445282 263.48714 
L 174.560686 122.792083 
L 174.622827 92.172845 
L 174.684968 103.867585 
L 175.261991 308.955146 
L 175.4928 366.67069 
L 175.519432 366.751438 
L 175.572695 366.507602 
L 175.874523 363.476275 
L 176.513686 354.813056 
L 177.93405 335.174057 
L 179.531959 315.888273 
L 179.727259 308.260232 
L 179.869295 292.339195 
L 179.975823 246.901763 
L 180.126736 92.152898 
L 180.224386 114.217813 
L 181.023341 366.752619 
L 181.05885 366.639566 
L 181.263027 364.78413 
L 181.831173 357.597534 
L 183.6954 332.381484 
L 184.947095 317.913206 
L 185.177905 311.231509 
L 185.328818 299.878981 
L 185.444223 271.228456 
L 185.541873 171.960729 
L 185.630645 92.222293 
L 185.692786 102.185943 
L 186.207668 281.509027 
L 186.52725 366.751542 
L 186.545005 366.729325 
L 186.651532 365.96325 
L 187.122027 360.580553 
L 188.107405 346.084412 
L 189.030641 334.243813 
L 190.513145 316.669105 
L 190.717323 309.628521 
L 190.859359 296.545488 
L 190.965886 263.483377 
L 191.081291 122.784797 
L 191.143432 92.173328 
L 191.205573 103.869756 
L 191.782595 308.958499 
L 192.013405 366.670734 
L 192.040036 366.75142 
L 192.0933 366.507536 
L 192.395127 363.476174 
L 193.034291 354.812925 
L 194.454655 335.173959 
L 196.052564 315.888093 
L 196.247864 308.259804 
L 196.3899 292.337832 
L 196.496427 246.896133 
L 196.647341 92.152877 
L 196.744991 114.220124 
L 197.543945 366.752618 
L 197.579455 366.639527 
L 197.783632 364.784057 
L 198.351777 357.597435 
L 200.216005 332.38141 
L 201.4677 317.913075 
L 201.698509 311.231205 
L 201.849423 299.878132 
L 201.964827 271.225275 
L 202.062477 171.949678 
L 202.15125 92.222029 
L 202.213391 102.187819 
L 202.728273 281.511483 
L 203.047855 366.751547 
L 203.065609 366.729305 
L 203.172136 365.963188 
L 203.642632 360.580464 
L 204.628009 346.084314 
L 205.551245 334.243739 
L 207.03375 316.66895 
L 207.237927 309.628155 
L 207.379964 296.544423 
L 207.486491 263.479457 
L 207.601895 122.776539 
L 207.664036 92.17346 
L 207.726177 103.871716 
L 208.3032 308.961509 
L 208.534009 366.670786 
L 208.560641 366.751415 
L 208.613905 366.507489 
L 208.915732 363.476096 
L 209.554895 354.812824 
L 210.975259 335.173882 
L 212.573168 315.887924 
L 212.768468 308.259389 
L 212.910505 292.336492 
L 213.017032 246.890566 
L 213.167945 92.15283 
L 213.265595 114.222385 
L 214.06455 366.752618 
L 214.100059 366.639491 
L 214.304236 364.783987 
L 214.872382 357.59734 
L 216.736609 332.38134 
L 217.988305 317.912947 
L 218.219114 311.230906 
L 218.370027 299.877298 
L 218.485432 271.222146 
L 218.583082 171.938805 
L 218.671855 92.221767 
L 218.733995 102.189664 
L 219.257755 284.78321 
L 219.568459 366.751552 
L 219.577336 366.748434 
L 219.648355 366.349748 
L 220.0212 362.386654 
L 220.740259 352.216904 
L 221.912059 336.058463 
L 223.616495 315.101798 
L 223.802918 306.882893 
L 223.936077 289.79987 
L 224.033727 244.368842 
L 224.184641 92.173591 
L 224.282291 115.234614 
L 225.081245 366.751411 
L 225.107877 366.670327 
L 225.285423 365.122792 
L 225.835814 358.313643 
L 227.859832 331.23183 
L 228.960614 318.678738 
L 229.2003 312.585255 
L 229.368968 301.627884 
L 229.484373 277.496963 
L 229.582023 195.280076 
L 229.68855 92.152783 
L 229.750691 103.023299 
L 230.301082 296.31656 
L 230.576277 366.74281 
L 230.585155 366.752617 
L 230.620664 366.639455 
L 230.824841 364.783918 
L 231.392986 357.597246 
L 233.257214 332.38127 
L 234.508909 317.912821 
L 234.739718 311.230612 
L 234.890632 299.876476 
L 235.006036 271.219065 
L 235.103686 171.928098 
L 235.192459 92.22151 
L 235.2546 102.19148 
L 235.778359 284.785647 
L 236.089064 366.751557 
L 236.097941 366.748425 
L 236.168959 366.349695 
L 236.541805 362.386574 
L 237.260864 352.216805 
L 238.432664 336.058387 
L 240.1371 315.101613 
L 240.323523 306.882425 
L 240.456682 289.798371 
L 240.554332 244.36315 
L 240.705245 92.173719 
L 240.802895 115.236859 
L 241.60185 366.751406 
L 241.628482 366.670295 
L 241.806027 365.122725 
L 242.356418 358.313551 
L 244.380436 331.231763 
L 245.481218 318.678623 
L 245.720905 312.585006 
L 245.889573 301.627165 
L 246.004977 277.494489 
L 246.102627 195.270367 
L 246.209155 92.152738 
L 246.271295 103.025135 
L 246.821686 296.319186 
L 247.096882 366.742825 
L 247.105759 366.752617 
L 247.141268 366.639419 
L 247.345445 364.78385 
L 247.913591 357.597154 
L 249.777818 332.381202 
L 251.029514 317.912697 
L 251.260323 311.230323 
L 251.411236 299.875667 
L 251.526641 271.21603 
L 251.624291 171.917555 
L 251.713064 92.221258 
L 251.775205 102.193269 
L 252.298964 284.788047 
L 252.609668 366.751562 
L 252.618545 366.748417 
L 252.689564 366.349643 
L 253.062409 362.386496 
L 253.781468 352.216707 
L 254.953268 336.058313 
L 256.657705 315.101432 
L 256.844127 306.881964 
L 256.977286 289.796894 
L 257.074936 244.357546 
L 257.22585 92.173846 
L 257.3235 115.23907 
L 258.122455 366.751402 
L 258.149086 366.670263 
L 258.326632 365.122659 
L 258.877023 358.31346 
L 260.901041 331.231696 
L 262.001823 318.67851 
L 262.241509 312.584761 
L 262.410177 301.626457 
L 262.525582 277.492047 
L 262.623232 195.260772 
L 262.729759 92.15269 
L 262.7919 103.026946 
L 263.342291 296.321778 
L 263.617486 366.74284 
L 263.626364 366.752617 
L 263.661873 366.639384 
L 263.86605 364.783783 
L 264.434195 357.597063 
L 266.298423 332.381134 
L 267.550118 317.912574 
L 267.780927 311.230037 
L 267.931841 299.874868 
L 268.047245 271.213034 
L 268.144895 171.907144 
L 268.233668 92.221009 
L 268.295809 102.195036 
L 268.819568 284.790417 
L 269.130273 366.751566 
L 269.13915 366.748409 
L 269.210168 366.349592 
L 269.583014 362.386418 
L 270.302073 352.216611 
L 271.473873 336.058239 
L 273.178309 315.101253 
L 273.364732 306.881509 
L 273.497891 289.795436 
L 273.595541 244.352011 
L 273.746455 92.173972 
L 273.844105 115.241253 
L 274.643059 366.751398 
L 274.669691 366.670232 
L 274.847236 365.122594 
L 275.397627 358.313371 
L 277.421645 331.23163 
L 278.522427 318.678399 
L 278.762114 312.584519 
L 278.930782 301.625759 
L 279.046186 277.489633 
L 279.143836 195.251289 
L 279.250364 92.152644 
L 279.312505 103.028736 
L 279.862895 296.32434 
L 280.138091 366.742855 
L 280.146968 366.752617 
L 280.182477 366.639349 
L 280.386655 364.783717 
L 280.9548 357.596973 
L 282.819027 332.381068 
L 284.070723 317.912453 
L 284.301532 311.229754 
L 284.452445 299.874079 
L 284.56785 271.210073 
L 284.6655 171.896856 
L 284.754273 92.220763 
L 284.816414 102.196782 
L 285.340173 284.792759 
L 285.650877 366.751571 
L 285.659755 366.748401 
L 285.730773 366.349542 
L 286.103618 362.386342 
L 286.822677 352.216516 
L 287.994477 336.058166 
L 289.698914 315.101076 
L 289.885336 306.881059 
L 290.018495 289.793996 
L 290.116145 244.346542 
L 290.267059 92.174096 
L 290.364709 115.243411 
L 291.163664 366.751394 
L 291.190295 366.670201 
L 291.367841 365.122529 
L 291.918232 358.313282 
L 293.94225 331.231565 
L 295.043032 318.678289 
L 295.282718 312.58428 
L 295.451386 301.625068 
L 295.566791 277.487248 
L 295.664441 195.241919 
L 295.770968 92.152598 
L 295.833109 103.030505 
L 296.3835 296.326871 
L 296.658695 366.742869 
L 296.667573 366.752617 
L 296.703082 366.639315 
L 296.907259 364.783651 
L 297.475405 357.596884 
L 299.339632 332.381002 
L 300.591327 317.912333 
L 300.822136 311.229475 
L 300.97305 299.873299 
L 301.088455 271.207148 
L 301.186105 171.88669 
L 301.274877 92.22052 
L 301.337018 102.198507 
L 301.860777 284.795073 
L 302.171482 366.751576 
L 302.180359 366.748393 
L 302.251377 366.349492 
L 302.624223 362.386266 
L 303.343282 352.216422 
L 304.515082 336.058094 
L 306.219518 315.100901 
L 306.405941 306.880615 
L 306.5391 289.792572 
L 306.63675 244.341139 
L 306.787664 92.17422 
L 306.885314 115.245543 
L 307.684268 366.751389 
L 307.7109 366.670171 
L 307.888445 365.122466 
L 308.438836 358.313194 
L 310.462855 331.231501 
L 311.563636 318.67818 
L 311.803323 312.584044 
L 311.971991 301.624385 
L 312.087395 277.484891 
L 312.185045 195.232661 
L 312.291573 92.152553 
L 312.353714 103.032253 
L 312.904105 296.329371 
L 313.1793 366.742883 
L 313.188177 366.752616 
L 313.223686 366.639281 
L 313.427864 364.783587 
L 313.996009 357.596796 
L 315.860236 332.380936 
L 317.111932 317.912214 
L 317.342741 311.229199 
L 317.493655 299.872528 
L 317.609059 271.204257 
L 317.706709 171.876646 
L 317.795482 92.220281 
L 317.857623 102.200212 
L 318.381382 284.79736 
L 318.692086 366.75158 
L 318.700964 366.748385 
L 318.771982 366.349443 
L 319.144827 362.386192 
L 319.863886 352.216329 
L 321.035686 336.058023 
L 322.740123 315.100728 
L 322.926545 306.880176 
L 323.059705 289.791166 
L 323.157355 244.335799 
L 323.308268 92.174342 
L 323.405918 115.24765 
L 324.204873 366.751385 
L 324.231505 366.670141 
L 324.40905 365.122403 
L 324.959441 358.313108 
L 326.983459 331.231437 
L 328.084241 318.678072 
L 328.323927 312.583811 
L 328.492595 301.623711 
L 328.608 277.482563 
L 328.70565 195.223513 
L 328.812177 92.152509 
L 328.874318 103.03398 
L 329.415832 294.625949 
L 329.699905 368.947118 
L 329.717659 368.967171 
L 329.762045 368.839159 
L 330.019486 367.090819 
L 330.587632 361.748071 
L 332.540632 341.947804 
L 333.215305 337.925489 
L 333.78345 335.724833 
L 334.236191 334.725667 
L 334.582405 334.417826 
L 334.893109 334.423336 
L 335.301464 334.692438 
L 336.340105 335.442607 
L 336.890495 335.516297 
L 337.849241 335.363081 
L 339.021041 335.267435 
L 355.745823 335.314558 
L 435.845455 335.314565 
L 435.845455 335.314565 
" clip-path="url(#p64a7a4d2c2)" style="fill: none; stroke: #ff0000; stroke-width: 1.5; stroke-linecap: square"/>
   </g>
   <g id="patch_3">
    <path d="M 63 384.48 
L 63 51.84 
" style="fill: none; stroke: #000000; stroke-width: 0.8; stroke-linejoin: miter; stroke-linecap: square"/>
   </g>
   <g id="patch_4">
    <path d="M 453.6 384.48 
L 453.6 51.84 
" style="fill: none; stroke: #000000; stroke-width: 0.8; stroke-linejoin: miter; stroke-linecap: square"/>
   </g>
   <g id="patch_5">
    <path d="M 63 384.48 
L 453.6 384.48 
" style="fill: none; stroke: #000000; stroke-width: 0.8; stroke-linejoin: miter; stroke-linecap: square"/>
   </g>
   <g id="patch_6">
    <path d="M 63 51.84 
L 453.6 51.84 
" style="fill: none; stroke: #000000; stroke-width: 0.8; stroke-linejoin: miter; stroke-linecap: square"/>
   </g>
   <g id="legend_1">
    <g id="patch_7">
     <path d="M 383.460938 89.19625 
L 446.6 89.19625 
Q 448.6 89.19625 448.6 87.19625 
L 448.6 58.84 
Q 448.6 56.84 446.6 56.84 
L 383.460938 56.84 
Q 381.460938 56.84 381.460938 58.84 
L 381.460938 87.19625 
Q 381.460938 89.19625 383.460938 89.19625 
z
" style="fill: #ffffff; opacity: 0.8; stroke: #cccccc; stroke-linejoin: miter"/>
    </g>
    <g id="line2d_15">
     <path d="M 385.460938 64.938437 
L 395.460938 64.938437 
L 405.460938 64.938437 
" style="fill: none; stroke: #1f77b4; stroke-width: 1.5; stroke-linecap: square"/>
    </g>
    <g id="text_15">
     <!-- target -->
     <g transform="translate(413.460938 68.438437)scale(0.1 -0.1)">
      <defs>
       <path id="DejaVuSans-72" d="M 2631 2963 
Q 2534 3019 2420 3045 
Q 2306 3072 2169 3072 
Q 1681 3072 1420 2755 
Q 1159 2438 1159 1844 
L 1159 0 
L 581 0 
L 581 3500 
L 1159 3500 
L 1159 2956 
Q 1341 3275 1631 3429 
Q 1922 3584 2338 3584 
Q 2397 3584 2469 3576 
Q 2541 3569 2628 3553 
L 2631 2963 
z
" transform="scale(0.015625)"/>
      </defs>
      <use xlink:href="#DejaVuSans-74"/>
      <use xlink:href="#DejaVuSans-61" x="39.208984"/>
      <use xlink:href="#DejaVuSans-72" x="100.488281"/>
      <use xlink:href="#DejaVuSans-67" x="139.851562"/>
      <use xlink:href="#DejaVuSans-65" x="203.328125"/>
      <use xlink:href="#DejaVuSans-74" x="264.851562"/>
     </g>
    </g>
    <g id="line2d_16">
     <path d="M 385.460938 79.616562 
L 395.460938 79.616562 
L 405.460938 79.616562 
" style="fill: none; stroke: #ff0000; stroke-width: 1.5; stroke-linecap: square"/>
    </g>
    <g id="text_16">
     <!-- model -->
     <g transform="translate(413.460938 83.116562)scale(0.1 -0.1)">
      <defs>
       <path id="DejaVuSans-64" d="M 2906 2969 
L 2906 4863 
L 3481 4863 
L 3481 0 
L 2906 0 
L 2906 525 
Q 2725 213 2448 61 
Q 2172 -91 1784 -91 
Q 1150 -91 751 415 
Q 353 922 353 1747 
Q 353 2572 751 3078 
Q 1150 3584 1784 3584 
Q 2172 3584 2448 3432 
Q 2725 3281 2906 2969 
z
M 947 1747 
Q 947 1113 1208 752 
Q 1469 391 1925 391 
Q 2381 391 2643 752 
Q 2906 1113 2906 1747 
Q 2906 2381 2643 2742 
Q 2381 3103 1925 3103 
Q 1469 3103 1208 2742 
Q 947 2381 947 1747 
z
" transform="scale(0.015625)"/>
      </defs>
      <use xlink:href="#DejaVuSans-6d"/>
      <use xlink:href="#DejaVuSans-6f" x="97.412109"/>
      <use xlink:href="#DejaVuSans-64" x="158.59375"/>
      <use xlink:href="#DejaVuSans-65" x="222.070312"/>
      <use xlink:href="#DejaVuSans-6c" x="283.59375"/>
     </g>
    </g>
   </g>
  </g>
 </g>
 <defs>
  <clipPath id="p64a7a4d2c2">
   <rect x="63" y="51.84" width="390.6" height="332.64"/>
  </clipPath>
 </defs>
</svg>
