<?xml version="1.0" encoding="utf-8" standalone="no"?>
<!DOCTYPE svg PUBLIC "-//W3C//DTD SVG 1.1//EN"
  "http://www.w3.org/Graphics/SVG/1.1/DTD/svg11.dtd">
<svg xmlns:xlink="http://www.w3.org/1999/xlink" width="504pt" height="432pt" viewBox="0 0 504 432" xmlns="http://www.w3.org/2000/svg" version="1.1">
 <metadata>
  <rdf:RDF xmlns:dc="http://purl.org/dc/elements/1.1/" xmlns:cc="http://creativecommons.org/ns#" xmlns:rdf="http://www.w3.org/1999/02/22-rdf-syntax-ns#">
   <cc:Work>
    <dc:type rdf:resource="http://purl.org/dc/dcmitype/StillImage"/>
    <dc:date>2022-02-01T16:54:20.275890</dc:date>
    <dc:format>image/svg+xml</dc:format>
    <dc:creator>
     <cc:Agent>
      <dc:title>Matplotlib v3.5.1, https://matplotlib.org/</dc:title>
     </cc:Agent>
    </dc:creator>
   </cc:Work>
  </rdf:RDF>
 </metadata>
 <defs>
  <style type="text/css">*{stroke-linejoin: round; stroke-linecap: butt}</style>
 </defs>
 <g id="figure_1">
  <g id="patch_1">
   <path d="M 0 432 
L 504 432 
L 504 0 
L 0 0 
z
" style="fill: #ffffff"/>
  </g>
  <g id="axes_1">
   <g id="patch_2">
    <path d="M 63 384.48 
L 453.6 384.48 
L 453.6 51.84 
L 63 51.84 
z
" style="fill: #ffffff"/>
   </g>
   <g id="matplotlib.axis_1">
    <g id="xtick_1">
     <g id="line2d_1">
      <defs>
       <path id="mefe67771ba" d="M 0 0 
L 0 3.5 
" style="stroke: #000000; stroke-width: 0.8"/>
      </defs>
      <g>
       <use xlink:href="#mefe67771ba" x="80.754545" y="384.48" style="stroke: #000000; stroke-width: 0.8"/>
      </g>
     </g>
     <g id="text_1">
      <!-- 0 -->
      <g transform="translate(77.573295 399.078438)scale(0.1 -0.1)">
       <defs>
        <path id="DejaVuSans-30" d="M 2034 4250 
Q 1547 4250 1301 3770 
Q 1056 3291 1056 2328 
Q 1056 1369 1301 889 
Q 1547 409 2034 409 
Q 2525 409 2770 889 
Q 3016 1369 3016 2328 
Q 3016 3291 2770 3770 
Q 2525 4250 2034 4250 
z
M 2034 4750 
Q 2819 4750 3233 4129 
Q 3647 3509 3647 2328 
Q 3647 1150 3233 529 
Q 2819 -91 2034 -91 
Q 1250 -91 836 529 
Q 422 1150 422 2328 
Q 422 3509 836 4129 
Q 1250 4750 2034 4750 
z
" transform="scale(0.015625)"/>
       </defs>
       <use xlink:href="#DejaVuSans-30"/>
      </g>
     </g>
    </g>
    <g id="xtick_2">
     <g id="line2d_2">
      <g>
       <use xlink:href="#mefe67771ba" x="151.772727" y="384.48" style="stroke: #000000; stroke-width: 0.8"/>
      </g>
     </g>
     <g id="text_2">
      <!-- 200 -->
      <g transform="translate(142.228977 399.078438)scale(0.1 -0.1)">
       <defs>
        <path id="DejaVuSans-32" d="M 1228 531 
L 3431 531 
L 3431 0 
L 469 0 
L 469 531 
Q 828 903 1448 1529 
Q 2069 2156 2228 2338 
Q 2531 2678 2651 2914 
Q 2772 3150 2772 3378 
Q 2772 3750 2511 3984 
Q 2250 4219 1831 4219 
Q 1534 4219 1204 4116 
Q 875 4013 500 3803 
L 500 4441 
Q 881 4594 1212 4672 
Q 1544 4750 1819 4750 
Q 2544 4750 2975 4387 
Q 3406 4025 3406 3419 
Q 3406 3131 3298 2873 
Q 3191 2616 2906 2266 
Q 2828 2175 2409 1742 
Q 1991 1309 1228 531 
z
" transform="scale(0.015625)"/>
       </defs>
       <use xlink:href="#DejaVuSans-32"/>
       <use xlink:href="#DejaVuSans-30" x="63.623047"/>
       <use xlink:href="#DejaVuSans-30" x="127.246094"/>
      </g>
     </g>
    </g>
    <g id="xtick_3">
     <g id="line2d_3">
      <g>
       <use xlink:href="#mefe67771ba" x="222.790909" y="384.48" style="stroke: #000000; stroke-width: 0.8"/>
      </g>
     </g>
     <g id="text_3">
      <!-- 400 -->
      <g transform="translate(213.247159 399.078438)scale(0.1 -0.1)">
       <defs>
        <path id="DejaVuSans-34" d="M 2419 4116 
L 825 1625 
L 2419 1625 
L 2419 4116 
z
M 2253 4666 
L 3047 4666 
L 3047 1625 
L 3713 1625 
L 3713 1100 
L 3047 1100 
L 3047 0 
L 2419 0 
L 2419 1100 
L 313 1100 
L 313 1709 
L 2253 4666 
z
" transform="scale(0.015625)"/>
       </defs>
       <use xlink:href="#DejaVuSans-34"/>
       <use xlink:href="#DejaVuSans-30" x="63.623047"/>
       <use xlink:href="#DejaVuSans-30" x="127.246094"/>
      </g>
     </g>
    </g>
    <g id="xtick_4">
     <g id="line2d_4">
      <g>
       <use xlink:href="#mefe67771ba" x="293.809091" y="384.48" style="stroke: #000000; stroke-width: 0.8"/>
      </g>
     </g>
     <g id="text_4">
      <!-- 600 -->
      <g transform="translate(284.265341 399.078438)scale(0.1 -0.1)">
       <defs>
        <path id="DejaVuSans-36" d="M 2113 2584 
Q 1688 2584 1439 2293 
Q 1191 2003 1191 1497 
Q 1191 994 1439 701 
Q 1688 409 2113 409 
Q 2538 409 2786 701 
Q 3034 994 3034 1497 
Q 3034 2003 2786 2293 
Q 2538 2584 2113 2584 
z
M 3366 4563 
L 3366 3988 
Q 3128 4100 2886 4159 
Q 2644 4219 2406 4219 
Q 1781 4219 1451 3797 
Q 1122 3375 1075 2522 
Q 1259 2794 1537 2939 
Q 1816 3084 2150 3084 
Q 2853 3084 3261 2657 
Q 3669 2231 3669 1497 
Q 3669 778 3244 343 
Q 2819 -91 2113 -91 
Q 1303 -91 875 529 
Q 447 1150 447 2328 
Q 447 3434 972 4092 
Q 1497 4750 2381 4750 
Q 2619 4750 2861 4703 
Q 3103 4656 3366 4563 
z
" transform="scale(0.015625)"/>
       </defs>
       <use xlink:href="#DejaVuSans-36"/>
       <use xlink:href="#DejaVuSans-30" x="63.623047"/>
       <use xlink:href="#DejaVuSans-30" x="127.246094"/>
      </g>
     </g>
    </g>
    <g id="xtick_5">
     <g id="line2d_5">
      <g>
       <use xlink:href="#mefe67771ba" x="364.827273" y="384.48" style="stroke: #000000; stroke-width: 0.8"/>
      </g>
     </g>
     <g id="text_5">
      <!-- 800 -->
      <g transform="translate(355.283523 399.078438)scale(0.1 -0.1)">
       <defs>
        <path id="DejaVuSans-38" d="M 2034 2216 
Q 1584 2216 1326 1975 
Q 1069 1734 1069 1313 
Q 1069 891 1326 650 
Q 1584 409 2034 409 
Q 2484 409 2743 651 
Q 3003 894 3003 1313 
Q 3003 1734 2745 1975 
Q 2488 2216 2034 2216 
z
M 1403 2484 
Q 997 2584 770 2862 
Q 544 3141 544 3541 
Q 544 4100 942 4425 
Q 1341 4750 2034 4750 
Q 2731 4750 3128 4425 
Q 3525 4100 3525 3541 
Q 3525 3141 3298 2862 
Q 3072 2584 2669 2484 
Q 3125 2378 3379 2068 
Q 3634 1759 3634 1313 
Q 3634 634 3220 271 
Q 2806 -91 2034 -91 
Q 1263 -91 848 271 
Q 434 634 434 1313 
Q 434 1759 690 2068 
Q 947 2378 1403 2484 
z
M 1172 3481 
Q 1172 3119 1398 2916 
Q 1625 2713 2034 2713 
Q 2441 2713 2670 2916 
Q 2900 3119 2900 3481 
Q 2900 3844 2670 4047 
Q 2441 4250 2034 4250 
Q 1625 4250 1398 4047 
Q 1172 3844 1172 3481 
z
" transform="scale(0.015625)"/>
       </defs>
       <use xlink:href="#DejaVuSans-38"/>
       <use xlink:href="#DejaVuSans-30" x="63.623047"/>
       <use xlink:href="#DejaVuSans-30" x="127.246094"/>
      </g>
     </g>
    </g>
    <g id="text_6">
     <!-- time [ms] -->
     <g transform="translate(234.038281 412.756563)scale(0.1 -0.1)">
      <defs>
       <path id="DejaVuSans-74" d="M 1172 4494 
L 1172 3500 
L 2356 3500 
L 2356 3053 
L 1172 3053 
L 1172 1153 
Q 1172 725 1289 603 
Q 1406 481 1766 481 
L 2356 481 
L 2356 0 
L 1766 0 
Q 1100 0 847 248 
Q 594 497 594 1153 
L 594 3053 
L 172 3053 
L 172 3500 
L 594 3500 
L 594 4494 
L 1172 4494 
z
" transform="scale(0.015625)"/>
       <path id="DejaVuSans-69" d="M 603 3500 
L 1178 3500 
L 1178 0 
L 603 0 
L 603 3500 
z
M 603 4863 
L 1178 4863 
L 1178 4134 
L 603 4134 
L 603 4863 
z
" transform="scale(0.015625)"/>
       <path id="DejaVuSans-6d" d="M 3328 2828 
Q 3544 3216 3844 3400 
Q 4144 3584 4550 3584 
Q 5097 3584 5394 3201 
Q 5691 2819 5691 2113 
L 5691 0 
L 5113 0 
L 5113 2094 
Q 5113 2597 4934 2840 
Q 4756 3084 4391 3084 
Q 3944 3084 3684 2787 
Q 3425 2491 3425 1978 
L 3425 0 
L 2847 0 
L 2847 2094 
Q 2847 2600 2669 2842 
Q 2491 3084 2119 3084 
Q 1678 3084 1418 2786 
Q 1159 2488 1159 1978 
L 1159 0 
L 581 0 
L 581 3500 
L 1159 3500 
L 1159 2956 
Q 1356 3278 1631 3431 
Q 1906 3584 2284 3584 
Q 2666 3584 2933 3390 
Q 3200 3197 3328 2828 
z
" transform="scale(0.015625)"/>
       <path id="DejaVuSans-65" d="M 3597 1894 
L 3597 1613 
L 953 1613 
Q 991 1019 1311 708 
Q 1631 397 2203 397 
Q 2534 397 2845 478 
Q 3156 559 3463 722 
L 3463 178 
Q 3153 47 2828 -22 
Q 2503 -91 2169 -91 
Q 1331 -91 842 396 
Q 353 884 353 1716 
Q 353 2575 817 3079 
Q 1281 3584 2069 3584 
Q 2775 3584 3186 3129 
Q 3597 2675 3597 1894 
z
M 3022 2063 
Q 3016 2534 2758 2815 
Q 2500 3097 2075 3097 
Q 1594 3097 1305 2825 
Q 1016 2553 972 2059 
L 3022 2063 
z
" transform="scale(0.015625)"/>
       <path id="DejaVuSans-20" transform="scale(0.015625)"/>
       <path id="DejaVuSans-5b" d="M 550 4863 
L 1875 4863 
L 1875 4416 
L 1125 4416 
L 1125 -397 
L 1875 -397 
L 1875 -844 
L 550 -844 
L 550 4863 
z
" transform="scale(0.015625)"/>
       <path id="DejaVuSans-73" d="M 2834 3397 
L 2834 2853 
Q 2591 2978 2328 3040 
Q 2066 3103 1784 3103 
Q 1356 3103 1142 2972 
Q 928 2841 928 2578 
Q 928 2378 1081 2264 
Q 1234 2150 1697 2047 
L 1894 2003 
Q 2506 1872 2764 1633 
Q 3022 1394 3022 966 
Q 3022 478 2636 193 
Q 2250 -91 1575 -91 
Q 1294 -91 989 -36 
Q 684 19 347 128 
L 347 722 
Q 666 556 975 473 
Q 1284 391 1588 391 
Q 1994 391 2212 530 
Q 2431 669 2431 922 
Q 2431 1156 2273 1281 
Q 2116 1406 1581 1522 
L 1381 1569 
Q 847 1681 609 1914 
Q 372 2147 372 2553 
Q 372 3047 722 3315 
Q 1072 3584 1716 3584 
Q 2034 3584 2315 3537 
Q 2597 3491 2834 3397 
z
" transform="scale(0.015625)"/>
       <path id="DejaVuSans-5d" d="M 1947 4863 
L 1947 -844 
L 622 -844 
L 622 -397 
L 1369 -397 
L 1369 4416 
L 622 4416 
L 622 4863 
L 1947 4863 
z
" transform="scale(0.015625)"/>
      </defs>
      <use xlink:href="#DejaVuSans-74"/>
      <use xlink:href="#DejaVuSans-69" x="39.208984"/>
      <use xlink:href="#DejaVuSans-6d" x="66.992188"/>
      <use xlink:href="#DejaVuSans-65" x="164.404297"/>
      <use xlink:href="#DejaVuSans-20" x="225.927734"/>
      <use xlink:href="#DejaVuSans-5b" x="257.714844"/>
      <use xlink:href="#DejaVuSans-6d" x="296.728516"/>
      <use xlink:href="#DejaVuSans-73" x="394.140625"/>
      <use xlink:href="#DejaVuSans-5d" x="446.240234"/>
     </g>
    </g>
   </g>
   <g id="matplotlib.axis_2">
    <g id="ytick_1">
     <g id="line2d_6">
      <defs>
       <path id="m502e26933a" d="M 0 0 
L -3.5 0 
" style="stroke: #000000; stroke-width: 0.8"/>
      </defs>
      <g>
       <use xlink:href="#m502e26933a" x="63" y="380.064647" style="stroke: #000000; stroke-width: 0.8"/>
      </g>
     </g>
     <g id="text_7">
      <!-- −80 -->
      <g transform="translate(34.895313 383.863866)scale(0.1 -0.1)">
       <defs>
        <path id="DejaVuSans-2212" d="M 678 2272 
L 4684 2272 
L 4684 1741 
L 678 1741 
L 678 2272 
z
" transform="scale(0.015625)"/>
       </defs>
       <use xlink:href="#DejaVuSans-2212"/>
       <use xlink:href="#DejaVuSans-38" x="83.789062"/>
       <use xlink:href="#DejaVuSans-30" x="147.412109"/>
      </g>
     </g>
    </g>
    <g id="ytick_2">
     <g id="line2d_7">
      <g>
       <use xlink:href="#m502e26933a" x="63" y="327.739173" style="stroke: #000000; stroke-width: 0.8"/>
      </g>
     </g>
     <g id="text_8">
      <!-- −60 -->
      <g transform="translate(34.895313 331.538392)scale(0.1 -0.1)">
       <use xlink:href="#DejaVuSans-2212"/>
       <use xlink:href="#DejaVuSans-36" x="83.789062"/>
       <use xlink:href="#DejaVuSans-30" x="147.412109"/>
      </g>
     </g>
    </g>
    <g id="ytick_3">
     <g id="line2d_8">
      <g>
       <use xlink:href="#m502e26933a" x="63" y="275.413699" style="stroke: #000000; stroke-width: 0.8"/>
      </g>
     </g>
     <g id="text_9">
      <!-- −40 -->
      <g transform="translate(34.895313 279.212918)scale(0.1 -0.1)">
       <use xlink:href="#DejaVuSans-2212"/>
       <use xlink:href="#DejaVuSans-34" x="83.789062"/>
       <use xlink:href="#DejaVuSans-30" x="147.412109"/>
      </g>
     </g>
    </g>
    <g id="ytick_4">
     <g id="line2d_9">
      <g>
       <use xlink:href="#m502e26933a" x="63" y="223.088226" style="stroke: #000000; stroke-width: 0.8"/>
      </g>
     </g>
     <g id="text_10">
      <!-- −20 -->
      <g transform="translate(34.895313 226.887444)scale(0.1 -0.1)">
       <use xlink:href="#DejaVuSans-2212"/>
       <use xlink:href="#DejaVuSans-32" x="83.789062"/>
       <use xlink:href="#DejaVuSans-30" x="147.412109"/>
      </g>
     </g>
    </g>
    <g id="ytick_5">
     <g id="line2d_10">
      <g>
       <use xlink:href="#m502e26933a" x="63" y="170.762752" style="stroke: #000000; stroke-width: 0.8"/>
      </g>
     </g>
     <g id="text_11">
      <!-- 0 -->
      <g transform="translate(49.6375 174.56197)scale(0.1 -0.1)">
       <use xlink:href="#DejaVuSans-30"/>
      </g>
     </g>
    </g>
    <g id="ytick_6">
     <g id="line2d_11">
      <g>
       <use xlink:href="#m502e26933a" x="63" y="118.437278" style="stroke: #000000; stroke-width: 0.8"/>
      </g>
     </g>
     <g id="text_12">
      <!-- 20 -->
      <g transform="translate(43.275 122.236497)scale(0.1 -0.1)">
       <use xlink:href="#DejaVuSans-32"/>
       <use xlink:href="#DejaVuSans-30" x="63.623047"/>
      </g>
     </g>
    </g>
    <g id="ytick_7">
     <g id="line2d_12">
      <g>
       <use xlink:href="#m502e26933a" x="63" y="66.111804" style="stroke: #000000; stroke-width: 0.8"/>
      </g>
     </g>
     <g id="text_13">
      <!-- 40 -->
      <g transform="translate(43.275 69.911023)scale(0.1 -0.1)">
       <use xlink:href="#DejaVuSans-34"/>
       <use xlink:href="#DejaVuSans-30" x="63.623047"/>
      </g>
     </g>
    </g>
    <g id="text_14">
     <!-- voltage [mV] -->
     <g transform="translate(28.815625 250.624062)rotate(-90)scale(0.1 -0.1)">
      <defs>
       <path id="DejaVuSans-76" d="M 191 3500 
L 800 3500 
L 1894 563 
L 2988 3500 
L 3597 3500 
L 2284 0 
L 1503 0 
L 191 3500 
z
" transform="scale(0.015625)"/>
       <path id="DejaVuSans-6f" d="M 1959 3097 
Q 1497 3097 1228 2736 
Q 959 2375 959 1747 
Q 959 1119 1226 758 
Q 1494 397 1959 397 
Q 2419 397 2687 759 
Q 2956 1122 2956 1747 
Q 2956 2369 2687 2733 
Q 2419 3097 1959 3097 
z
M 1959 3584 
Q 2709 3584 3137 3096 
Q 3566 2609 3566 1747 
Q 3566 888 3137 398 
Q 2709 -91 1959 -91 
Q 1206 -91 779 398 
Q 353 888 353 1747 
Q 353 2609 779 3096 
Q 1206 3584 1959 3584 
z
" transform="scale(0.015625)"/>
       <path id="DejaVuSans-6c" d="M 603 4863 
L 1178 4863 
L 1178 0 
L 603 0 
L 603 4863 
z
" transform="scale(0.015625)"/>
       <path id="DejaVuSans-61" d="M 2194 1759 
Q 1497 1759 1228 1600 
Q 959 1441 959 1056 
Q 959 750 1161 570 
Q 1363 391 1709 391 
Q 2188 391 2477 730 
Q 2766 1069 2766 1631 
L 2766 1759 
L 2194 1759 
z
M 3341 1997 
L 3341 0 
L 2766 0 
L 2766 531 
Q 2569 213 2275 61 
Q 1981 -91 1556 -91 
Q 1019 -91 701 211 
Q 384 513 384 1019 
Q 384 1609 779 1909 
Q 1175 2209 1959 2209 
L 2766 2209 
L 2766 2266 
Q 2766 2663 2505 2880 
Q 2244 3097 1772 3097 
Q 1472 3097 1187 3025 
Q 903 2953 641 2809 
L 641 3341 
Q 956 3463 1253 3523 
Q 1550 3584 1831 3584 
Q 2591 3584 2966 3190 
Q 3341 2797 3341 1997 
z
" transform="scale(0.015625)"/>
       <path id="DejaVuSans-67" d="M 2906 1791 
Q 2906 2416 2648 2759 
Q 2391 3103 1925 3103 
Q 1463 3103 1205 2759 
Q 947 2416 947 1791 
Q 947 1169 1205 825 
Q 1463 481 1925 481 
Q 2391 481 2648 825 
Q 2906 1169 2906 1791 
z
M 3481 434 
Q 3481 -459 3084 -895 
Q 2688 -1331 1869 -1331 
Q 1566 -1331 1297 -1286 
Q 1028 -1241 775 -1147 
L 775 -588 
Q 1028 -725 1275 -790 
Q 1522 -856 1778 -856 
Q 2344 -856 2625 -561 
Q 2906 -266 2906 331 
L 2906 616 
Q 2728 306 2450 153 
Q 2172 0 1784 0 
Q 1141 0 747 490 
Q 353 981 353 1791 
Q 353 2603 747 3093 
Q 1141 3584 1784 3584 
Q 2172 3584 2450 3431 
Q 2728 3278 2906 2969 
L 2906 3500 
L 3481 3500 
L 3481 434 
z
" transform="scale(0.015625)"/>
       <path id="DejaVuSans-56" d="M 1831 0 
L 50 4666 
L 709 4666 
L 2188 738 
L 3669 4666 
L 4325 4666 
L 2547 0 
L 1831 0 
z
" transform="scale(0.015625)"/>
      </defs>
      <use xlink:href="#DejaVuSans-76"/>
      <use xlink:href="#DejaVuSans-6f" x="59.179688"/>
      <use xlink:href="#DejaVuSans-6c" x="120.361328"/>
      <use xlink:href="#DejaVuSans-74" x="148.144531"/>
      <use xlink:href="#DejaVuSans-61" x="187.353516"/>
      <use xlink:href="#DejaVuSans-67" x="248.632812"/>
      <use xlink:href="#DejaVuSans-65" x="312.109375"/>
      <use xlink:href="#DejaVuSans-20" x="373.632812"/>
      <use xlink:href="#DejaVuSans-5b" x="405.419922"/>
      <use xlink:href="#DejaVuSans-6d" x="444.433594"/>
      <use xlink:href="#DejaVuSans-56" x="541.845703"/>
      <use xlink:href="#DejaVuSans-5d" x="610.253906"/>
     </g>
    </g>
   </g>
   <g id="line2d_13">
    <path d="M 80.754545 340.820542 
L 81.961855 340.684495 
L 83.772818 340.74153 
L 85.974382 340.760367 
L 151.772727 340.751734 
L 152.314241 296.375023 
L 152.420768 247.899919 
L 152.562805 66.96 
L 152.678209 92.094541 
L 153.565936 367.220836 
L 153.610323 367.120633 
L 153.8145 365.746304 
L 154.293873 361.008233 
L 154.959668 351.916943 
L 157.42755 313.153709 
L 157.613973 302.063063 
L 157.738255 280.169823 
L 157.835905 217.819312 
L 157.969064 91.240851 
L 158.031205 104.349952 
L 158.883423 366.797785 
L 158.945564 366.614907 
L 159.203005 364.642237 
L 159.717886 358.987946 
L 160.534595 347.100122 
L 161.8218 329.029519 
L 162.514227 318.69707 
L 162.771668 311.201184 
L 162.940336 299.249261 
L 163.064618 271.374958 
L 163.162268 187.253465 
L 163.268795 92.158117 
L 163.322059 101.640016 
L 163.863573 296.097698 
L 164.147645 366.62171 
L 164.183155 366.766128 
L 164.245295 366.585343 
L 164.493859 364.688022 
L 165.008741 359.053353 
L 165.834327 347.042825 
L 167.112655 329.103822 
L 167.813959 318.66175 
L 168.0714 311.156184 
L 168.240068 299.165017 
L 168.36435 271.129551 
L 168.462 186.510312 
L 168.568527 92.234774 
L 168.621791 101.861353 
L 169.172182 300.036498 
L 169.4385 366.536157 
L 169.482886 366.764035 
L 169.545027 366.579326 
L 169.802468 364.598545 
L 170.31735 358.926464 
L 171.151814 346.754774 
L 172.430141 328.861816 
L 173.113691 318.643436 
L 173.371132 311.119818 
L 173.5398 299.069523 
L 173.664082 270.792575 
L 173.761732 185.362789 
L 173.868259 92.251518 
L 173.921523 102.096556 
L 174.480791 304.094338 
L 174.729355 366.427059 
L 174.782618 366.764035 
L 174.844759 366.57514 
L 175.1022 364.59122 
L 175.617082 358.915737 
L 176.451545 346.741954 
L 177.729873 328.851089 
L 178.413423 318.626692 
L 178.670864 311.083975 
L 178.839532 298.972721 
L 178.963814 270.446704 
L 179.061464 184.181672 
L 179.167991 92.268785 
L 179.221255 102.334375 
L 179.7894 308.254998 
L 180.029086 366.439355 
L 180.08235 366.764296 
L 180.144491 366.570692 
L 180.401932 364.583894 
L 180.916814 358.905272 
L 181.751277 346.729657 
L 183.029605 328.840624 
L 183.713155 318.609686 
L 183.970595 311.04787 
L 184.139264 298.874872 
L 184.263545 270.092722 
L 184.361195 182.979782 
L 184.467723 92.292593 
L 184.520986 102.575857 
L 185.098009 312.507228 
L 185.328818 366.45139 
L 185.382082 366.764296 
L 185.444223 366.566506 
L 185.701664 364.576307 
L 186.216545 358.894807 
L 187.051009 346.717099 
L 188.329336 328.830159 
L 189.012886 318.592942 
L 189.270327 311.011504 
L 189.438995 298.775454 
L 189.563277 269.733508 
L 189.660927 181.773104 
L 189.767455 92.322157 
L 189.820718 102.819694 
L 190.406618 316.831405 
L 190.619673 366.31796 
L 190.681814 366.764035 
L 190.743955 366.562058 
L 191.010273 364.487877 
L 191.525155 358.769749 
L 192.368495 346.432449 
L 193.637945 328.704578 
L 194.312618 318.575675 
L 194.570059 310.975138 
L 194.738727 298.675512 
L 194.863009 269.370892 
L 194.969536 167.246087 
L 195.058309 92.308814 
L 195.12045 103.066147 
L 195.715227 321.201628 
L 195.919405 366.333396 
L 195.981545 366.764035 
L 196.043686 366.557611 
L 196.310005 364.48029 
L 196.833764 358.644168 
L 197.703736 345.876491 
L 198.955432 328.464143 
L 199.61235 318.558669 
L 199.869791 310.938248 
L 200.038459 298.574524 
L 200.162741 269.000951 
L 200.269268 165.986849 
L 200.358041 92.279512 
L 200.420182 103.316786 
L 201.023836 325.581009 
L 201.219136 366.348047 
L 201.281277 366.763512 
L 201.343418 366.553163 
L 201.609736 364.472702 
L 202.133495 358.633179 
L 202.994591 345.999455 
L 204.255164 328.453416 
L 204.912082 318.54114 
L 205.169523 310.900836 
L 205.338191 298.471966 
L 205.462473 268.623423 
L 205.569 164.719159 
L 205.657773 92.257274 
L 205.719914 103.569256 
L 206.332445 329.921669 
L 206.518868 366.362698 
L 206.581009 366.76325 
L 206.634273 366.595024 
L 206.873959 364.78587 
L 207.388841 359.1928 
L 208.187795 347.619452 
L 209.510509 329.016438 
L 210.202936 318.707535 
L 210.460377 311.254818 
L 210.629045 299.432138 
L 210.753327 272.07952 
L 210.850977 189.805745 
L 210.957505 92.242099 
L 211.019645 103.822773 
L 211.641055 334.169712 
L 211.827477 366.507902 
L 211.880741 366.762727 
L 211.934005 366.590837 
L 212.182568 364.69901 
L 212.69745 359.069051 
L 213.514159 347.19797 
L 214.810241 329.005711 
L 215.502668 318.690529 
L 215.760109 311.218975 
L 215.928777 299.336121 
L 216.053059 271.741236 
L 216.150709 188.630514 
L 216.257236 92.23582 
L 216.319377 104.075767 
L 216.949664 338.261826 
L 217.127209 366.518367 
L 217.171595 366.76325 
L 217.233736 366.586651 
L 217.4823 364.691684 
L 217.997182 359.058586 
L 218.822768 347.049104 
L 220.101095 329.109577 
L 220.8024 318.673523 
L 221.059841 311.183393 
L 221.228509 299.240365 
L 221.352791 271.401644 
L 221.450441 187.45586 
L 221.556968 92.236343 
L 221.610232 101.676905 
L 222.151745 296.152901 
L 222.426941 366.528309 
L 222.471327 366.763512 
L 222.533468 366.582465 
L 222.782032 364.684359 
L 223.296914 359.04812 
L 224.1225 347.036285 
L 225.418582 328.869927 
L 226.111009 318.47207 
L 226.36845 310.75197 
L 226.537118 298.059903 
L 226.652523 271.059435 
L 226.750173 186.276522 
L 226.8567 92.242361 
L 226.909964 101.913678 
L 227.460355 300.111585 
L 227.726673 366.537989 
L 227.771059 366.764035 
L 227.8332 366.578279 
L 228.090641 364.596714 
L 228.605523 358.923847 
L 229.439986 346.751634 
L 230.718314 328.8592 
L 231.401864 318.639512 
L 231.659305 311.111446 
L 231.827973 299.047546 
L 231.952255 270.714872 
L 232.049905 185.096975 
L 232.156432 92.255181 
L 232.209695 102.150189 
L 232.768964 304.172565 
L 233.017527 366.429937 
L 233.070791 366.764035 
L 233.132932 366.574093 
L 233.390373 364.589388 
L 233.905255 358.913382 
L 234.739718 346.739076 
L 236.018045 328.848735 
L 236.701595 318.622767 
L 236.959036 311.075864 
L 237.127705 298.950744 
L 237.251986 270.367169 
L 237.349636 183.910678 
L 237.456164 92.273494 
L 237.509427 102.389055 
L 238.077573 308.335579 
L 238.317259 366.441972 
L 238.370523 366.764296 
L 238.432664 366.569907 
L 238.690105 364.582063 
L 239.204986 358.902917 
L 240.03945 346.726779 
L 241.317777 328.83827 
L 242.001327 318.606023 
L 242.258768 311.03976 
L 242.427436 298.852372 
L 242.551718 270.011356 
L 242.649368 182.705989 
L 242.755895 92.298872 
L 242.809159 102.63106 
L 243.386182 312.58964 
L 243.616991 366.454006 
L 243.670255 366.764296 
L 243.732395 366.56546 
L 243.989836 364.574737 
L 244.504718 358.892452 
L 245.348059 346.578175 
L 246.617509 328.827543 
L 247.301059 318.589018 
L 247.5585 311.003394 
L 247.727168 298.752692 
L 247.85145 269.651618 
L 247.9491 181.498134 
L 248.055627 92.330006 
L 248.108891 102.87542 
L 248.694791 316.915649 
L 248.907845 366.321623 
L 248.969986 366.764035 
L 249.032127 366.561274 
L 249.298445 364.486307 
L 249.822205 358.65254 
L 250.692177 345.886432 
L 251.943873 328.472515 
L 252.600791 318.57175 
L 252.858232 310.966766 
L 253.0269 298.652489 
L 253.151182 269.287171 
L 253.257709 166.959396 
L 253.346482 92.301489 
L 253.408623 103.123181 
L 254.0034 321.287442 
L 254.207577 366.336797 
L 254.269718 366.763773 
L 254.331859 366.556826 
L 254.598177 364.47872 
L 255.121936 358.641552 
L 255.983032 346.009397 
L 257.22585 328.691497 
L 257.900523 318.554744 
L 258.157964 310.929876 
L 258.326632 298.551239 
L 258.450914 268.915399 
L 258.557441 165.697567 
L 258.646214 92.273756 
L 258.708355 103.374605 
L 259.312009 325.666823 
L 259.507309 366.351448 
L 259.56945 366.763512 
L 259.631591 366.552117 
L 259.897909 364.470871 
L 260.421668 358.630825 
L 261.291641 345.861055 
L 262.525582 328.68077 
L 263.200255 318.537215 
L 263.457695 310.892464 
L 263.626364 298.448419 
L 263.750645 268.536562 
L 263.857173 164.429355 
L 263.945945 92.253088 
L 264.008086 103.627076 
L 264.620618 330.006174 
L 264.807041 366.3661 
L 264.869182 366.762988 
L 264.922445 366.594239 
L 265.171009 364.704766 
L 265.685891 359.077423 
L 266.511477 347.071604 
L 267.807559 328.899491 
L 268.499986 318.519948 
L 268.757427 310.855051 
L 268.926095 298.3456 
L 269.050377 268.157726 
L 269.156905 163.170587 
L 269.245677 92.240006 
L 269.298941 101.25961 
L 269.8227 288.617771 
L 270.133405 366.676128 
L 270.168914 366.762727 
L 270.222177 366.590053 
L 270.470741 364.69744 
L 270.985623 359.066696 
L 271.802332 347.195092 
L 273.098414 329.003357 
L 273.790841 318.686605 
L 274.048282 311.210864 
L 274.21695 299.314406 
L 274.341232 271.663794 
L 274.438882 188.361666 
L 274.545409 92.235559 
L 274.598673 101.494813 
L 275.131309 292.372385 
L 275.424259 366.614384 
L 275.459768 366.76325 
L 275.521909 366.585867 
L 275.770473 364.690115 
L 276.285355 359.056231 
L 277.110941 347.046227 
L 278.389268 329.107223 
L 279.090573 318.669599 
L 279.348014 311.175021 
L 279.516682 299.218389 
L 279.640964 271.323679 
L 279.738614 187.186907 
L 279.845141 92.236867 
L 279.898405 101.731062 
L 280.439918 296.228511 
L 280.715114 366.530402 
L 280.7595 366.763773 
L 280.821641 366.581681 
L 281.079082 364.602469 
L 281.593964 358.931958 
L 282.428427 346.761314 
L 283.706755 328.86731 
L 284.390305 318.652593 
L 284.647745 311.139178 
L 284.816414 299.12211 
L 284.940695 270.980947 
L 285.038345 186.007465 
L 285.144873 92.244715 
L 285.198136 101.967573 
L 285.748527 300.188241 
L 286.014845 366.540082 
L 286.059232 366.764035 
L 286.121373 366.577233 
L 286.378814 364.595144 
L 286.893695 358.921493 
L 287.728159 346.748756 
L 289.006486 328.856845 
L 289.690036 318.635849 
L 289.947477 311.103335 
L 290.116145 299.025569 
L 290.240427 270.63586 
L 290.338077 184.827028 
L 290.444605 92.258843 
L 290.497868 102.204346 
L 291.057136 304.251576 
L 291.3057 366.432815 
L 291.358964 366.764296 
L 291.421105 366.573047 
L 291.678545 364.587818 
L 292.193427 358.911028 
L 293.027891 346.736198 
L 294.315095 328.731526 
L 294.989768 318.618843 
L 295.247209 311.067492 
L 295.415877 298.928506 
L 295.540159 270.286588 
L 295.637809 183.636833 
L 295.744336 92.278727 
L 295.7976 102.443997 
L 296.365745 308.416684 
L 296.605432 366.444849 
L 296.658695 366.764296 
L 296.720836 366.568861 
L 296.978277 364.580493 
L 297.493159 358.900563 
L 298.327623 346.723902 
L 299.60595 328.835915 
L 300.2895 318.602099 
L 300.546941 311.031388 
L 300.715609 298.829611 
L 300.839891 269.929728 
L 300.937541 182.431803 
L 301.044068 92.305413 
L 301.097332 102.686264 
L 301.674355 312.672053 
L 301.905164 366.456623 
L 301.958427 366.764296 
L 302.020568 366.564675 
L 302.286886 364.492063 
L 302.810645 358.66065 
L 303.671741 346.031897 
L 304.914559 328.710596 
L 305.589232 318.585093 
L 305.846673 310.995022 
L 306.015341 298.730192 
L 306.139623 269.569467 
L 306.24615 167.927888 
L 306.334923 92.32739 
L 306.397064 102.931409 
L 306.982964 316.999893 
L 307.196018 366.325024 
L 307.258159 366.764035 
L 307.3203 366.560227 
L 307.586618 364.484476 
L 308.110377 358.649924 
L 308.971473 346.019339 
L 310.214291 328.699869 
L 310.888964 318.568087 
L 311.146405 310.958394 
L 311.315073 298.629727 
L 311.439355 269.203189 
L 311.545882 166.673725 
L 311.634655 92.294686 
L 311.696795 103.179955 
L 312.291573 321.372733 
L 312.49575 366.340198 
L 312.557891 366.763773 
L 312.620032 366.555779 
L 312.88635 364.476888 
L 313.410109 358.639197 
L 314.280082 345.870735 
L 315.531777 328.459172 
L 316.188695 318.550558 
L 316.446136 310.921243 
L 316.614805 298.527954 
L 316.739086 268.830108 
L 316.845614 165.409385 
L 316.934386 92.268524 
L 316.996527 103.431902 
L 317.600182 325.752375 
L 317.795482 366.35485 
L 317.857623 366.763512 
L 317.910886 366.597378 
L 318.150573 364.789795 
L 318.665455 359.198556 
L 319.464409 347.626254 
L 320.787123 329.022455 
L 321.488427 318.533291 
L 321.745868 310.88383 
L 321.914536 298.424873 
L 322.038818 268.449964 
L 322.145345 164.140937 
L 322.234118 92.249425 
L 322.296259 103.684895 
L 322.908791 330.090418 
L 323.095214 366.369501 
L 323.157355 366.762988 
L 323.210618 366.593192 
L 323.459182 364.703196 
L 323.974064 359.074806 
L 324.790773 347.204773 
L 326.095732 328.896874 
L 326.779282 318.699686 
L 327.036723 311.238597 
L 327.205391 299.388447 
L 327.329673 271.925422 
L 327.427323 189.269932 
L 327.53385 92.238175 
L 327.595991 103.938151 
L 328.2174 334.332445 
L 328.403823 366.512611 
L 328.457086 366.762465 
L 328.51035 366.589006 
L 328.758914 364.695609 
L 329.273795 359.064341 
L 329.318182 358.491116 
L 329.335936 359.389544 
L 329.531236 363.373606 
L 329.620009 363.561193 
L 329.664395 363.503896 
L 329.815309 362.897967 
L 330.214786 360.085211 
L 332.176664 345.350096 
L 332.869091 342.132865 
L 333.428359 340.479903 
L 333.889977 339.737928 
L 334.262823 339.511358 
L 334.617914 339.551387 
L 335.097286 339.866125 
L 336.464386 340.892228 
L 337.059164 341.018594 
L 337.849241 340.954495 
L 339.891014 340.705687 
L 342.057068 340.75278 
L 435.845455 340.751734 
L 435.845455 340.751734 
" clip-path="url(#pa6689d4d6f)" style="fill: none; stroke: #1f77b4; stroke-width: 1.5; stroke-linecap: square"/>
   </g>
   <g id="line2d_14">
    <path d="M 80.754545 340.820542 
L 81.029741 341.284877 
L 81.349323 341.436168 
L 81.793186 341.36643 
L 83.080391 341.084944 
L 84.891355 341.088001 
L 102.54825 341.088563 
L 151.772727 341.088561 
L 152.065677 328.708438 
L 152.323118 316.246517 
L 152.4474 297.100597 
L 152.527295 244.386843 
L 152.6427 66.96191 
L 152.74035 87.690582 
L 153.335127 316.286026 
L 153.530427 369.36 
L 153.610323 369.108861 
L 154.0098 366.970834 
L 154.49805 363.056844 
L 155.208232 355.251052 
L 156.371155 342.725342 
L 157.010318 338.154249 
L 157.516323 335.949449 
L 157.880291 335.190406 
L 158.164364 335.020393 
L 158.430682 335.120483 
L 159.043214 335.702757 
L 159.487077 335.930065 
L 159.984205 335.9156 
L 161.511095 335.747277 
L 166.091768 335.780462 
L 329.318182 335.781368 
L 329.566745 344.967145 
L 329.788677 347.01383 
L 329.868573 347.089213 
L 329.912959 347.049211 
L 330.07275 346.616471 
L 331.519745 341.719749 
L 331.954732 341.210196 
L 332.398595 341.020641 
L 333.046636 341.019047 
L 335.177182 341.100191 
L 352.159405 341.088586 
L 435.845455 341.088561 
L 435.845455 341.088561 
" clip-path="url(#pa6689d4d6f)" style="fill: none; stroke: #ff0000; stroke-width: 1.5; stroke-linecap: square"/>
   </g>
   <g id="patch_3">
    <path d="M 63 384.48 
L 63 51.84 
" style="fill: none; stroke: #000000; stroke-width: 0.8; stroke-linejoin: miter; stroke-linecap: square"/>
   </g>
   <g id="patch_4">
    <path d="M 453.6 384.48 
L 453.6 51.84 
" style="fill: none; stroke: #000000; stroke-width: 0.8; stroke-linejoin: miter; stroke-linecap: square"/>
   </g>
   <g id="patch_5">
    <path d="M 63 384.48 
L 453.6 384.48 
" style="fill: none; stroke: #000000; stroke-width: 0.8; stroke-linejoin: miter; stroke-linecap: square"/>
   </g>
   <g id="patch_6">
    <path d="M 63 51.84 
L 453.6 51.84 
" style="fill: none; stroke: #000000; stroke-width: 0.8; stroke-linejoin: miter; stroke-linecap: square"/>
   </g>
   <g id="legend_1">
    <g id="patch_7">
     <path d="M 383.460938 89.19625 
L 446.6 89.19625 
Q 448.6 89.19625 448.6 87.19625 
L 448.6 58.84 
Q 448.6 56.84 446.6 56.84 
L 383.460938 56.84 
Q 381.460938 56.84 381.460938 58.84 
L 381.460938 87.19625 
Q 381.460938 89.19625 383.460938 89.19625 
z
" style="fill: #ffffff; opacity: 0.8; stroke: #cccccc; stroke-linejoin: miter"/>
    </g>
    <g id="line2d_15">
     <path d="M 385.460938 64.938437 
L 395.460938 64.938437 
L 405.460938 64.938437 
" style="fill: none; stroke: #1f77b4; stroke-width: 1.5; stroke-linecap: square"/>
    </g>
    <g id="text_15">
     <!-- target -->
     <g transform="translate(413.460938 68.438437)scale(0.1 -0.1)">
      <defs>
       <path id="DejaVuSans-72" d="M 2631 2963 
Q 2534 3019 2420 3045 
Q 2306 3072 2169 3072 
Q 1681 3072 1420 2755 
Q 1159 2438 1159 1844 
L 1159 0 
L 581 0 
L 581 3500 
L 1159 3500 
L 1159 2956 
Q 1341 3275 1631 3429 
Q 1922 3584 2338 3584 
Q 2397 3584 2469 3576 
Q 2541 3569 2628 3553 
L 2631 2963 
z
" transform="scale(0.015625)"/>
      </defs>
      <use xlink:href="#DejaVuSans-74"/>
      <use xlink:href="#DejaVuSans-61" x="39.208984"/>
      <use xlink:href="#DejaVuSans-72" x="100.488281"/>
      <use xlink:href="#DejaVuSans-67" x="139.851562"/>
      <use xlink:href="#DejaVuSans-65" x="203.328125"/>
      <use xlink:href="#DejaVuSans-74" x="264.851562"/>
     </g>
    </g>
    <g id="line2d_16">
     <path d="M 385.460938 79.616562 
L 395.460938 79.616562 
L 405.460938 79.616562 
" style="fill: none; stroke: #ff0000; stroke-width: 1.5; stroke-linecap: square"/>
    </g>
    <g id="text_16">
     <!-- model -->
     <g transform="translate(413.460938 83.116562)scale(0.1 -0.1)">
      <defs>
       <path id="DejaVuSans-64" d="M 2906 2969 
L 2906 4863 
L 3481 4863 
L 3481 0 
L 2906 0 
L 2906 525 
Q 2725 213 2448 61 
Q 2172 -91 1784 -91 
Q 1150 -91 751 415 
Q 353 922 353 1747 
Q 353 2572 751 3078 
Q 1150 3584 1784 3584 
Q 2172 3584 2448 3432 
Q 2725 3281 2906 2969 
z
M 947 1747 
Q 947 1113 1208 752 
Q 1469 391 1925 391 
Q 2381 391 2643 752 
Q 2906 1113 2906 1747 
Q 2906 2381 2643 2742 
Q 2381 3103 1925 3103 
Q 1469 3103 1208 2742 
Q 947 2381 947 1747 
z
" transform="scale(0.015625)"/>
      </defs>
      <use xlink:href="#DejaVuSans-6d"/>
      <use xlink:href="#DejaVuSans-6f" x="97.412109"/>
      <use xlink:href="#DejaVuSans-64" x="158.59375"/>
      <use xlink:href="#DejaVuSans-65" x="222.070312"/>
      <use xlink:href="#DejaVuSans-6c" x="283.59375"/>
     </g>
    </g>
   </g>
  </g>
 </g>
 <defs>
  <clipPath id="pa6689d4d6f">
   <rect x="63" y="51.84" width="390.6" height="332.64"/>
  </clipPath>
 </defs>
</svg>
