<?xml version="1.0" encoding="utf-8" standalone="no"?>
<!DOCTYPE svg PUBLIC "-//W3C//DTD SVG 1.1//EN"
  "http://www.w3.org/Graphics/SVG/1.1/DTD/svg11.dtd">
<svg xmlns:xlink="http://www.w3.org/1999/xlink" width="504pt" height="432pt" viewBox="0 0 504 432" xmlns="http://www.w3.org/2000/svg" version="1.1">
 <metadata>
  <rdf:RDF xmlns:dc="http://purl.org/dc/elements/1.1/" xmlns:cc="http://creativecommons.org/ns#" xmlns:rdf="http://www.w3.org/1999/02/22-rdf-syntax-ns#">
   <cc:Work>
    <dc:type rdf:resource="http://purl.org/dc/dcmitype/StillImage"/>
    <dc:date>2022-02-01T17:19:13.137676</dc:date>
    <dc:format>image/svg+xml</dc:format>
    <dc:creator>
     <cc:Agent>
      <dc:title>Matplotlib v3.5.1, https://matplotlib.org/</dc:title>
     </cc:Agent>
    </dc:creator>
   </cc:Work>
  </rdf:RDF>
 </metadata>
 <defs>
  <style type="text/css">*{stroke-linejoin: round; stroke-linecap: butt}</style>
 </defs>
 <g id="figure_1">
  <g id="patch_1">
   <path d="M 0 432 
L 504 432 
L 504 0 
L 0 0 
z
" style="fill: #ffffff"/>
  </g>
  <g id="axes_1">
   <g id="patch_2">
    <path d="M 63 384.48 
L 453.6 384.48 
L 453.6 51.84 
L 63 51.84 
z
" style="fill: #ffffff"/>
   </g>
   <g id="matplotlib.axis_1">
    <g id="xtick_1">
     <g id="line2d_1">
      <defs>
       <path id="m73a1e6d490" d="M 0 0 
L 0 3.5 
" style="stroke: #000000; stroke-width: 0.8"/>
      </defs>
      <g>
       <use xlink:href="#m73a1e6d490" x="80.754545" y="384.48" style="stroke: #000000; stroke-width: 0.8"/>
      </g>
     </g>
     <g id="text_1">
      <!-- 0 -->
      <g transform="translate(77.573295 399.078438)scale(0.1 -0.1)">
       <defs>
        <path id="DejaVuSans-30" d="M 2034 4250 
Q 1547 4250 1301 3770 
Q 1056 3291 1056 2328 
Q 1056 1369 1301 889 
Q 1547 409 2034 409 
Q 2525 409 2770 889 
Q 3016 1369 3016 2328 
Q 3016 3291 2770 3770 
Q 2525 4250 2034 4250 
z
M 2034 4750 
Q 2819 4750 3233 4129 
Q 3647 3509 3647 2328 
Q 3647 1150 3233 529 
Q 2819 -91 2034 -91 
Q 1250 -91 836 529 
Q 422 1150 422 2328 
Q 422 3509 836 4129 
Q 1250 4750 2034 4750 
z
" transform="scale(0.015625)"/>
       </defs>
       <use xlink:href="#DejaVuSans-30"/>
      </g>
     </g>
    </g>
    <g id="xtick_2">
     <g id="line2d_2">
      <g>
       <use xlink:href="#m73a1e6d490" x="151.772727" y="384.48" style="stroke: #000000; stroke-width: 0.8"/>
      </g>
     </g>
     <g id="text_2">
      <!-- 200 -->
      <g transform="translate(142.228977 399.078438)scale(0.1 -0.1)">
       <defs>
        <path id="DejaVuSans-32" d="M 1228 531 
L 3431 531 
L 3431 0 
L 469 0 
L 469 531 
Q 828 903 1448 1529 
Q 2069 2156 2228 2338 
Q 2531 2678 2651 2914 
Q 2772 3150 2772 3378 
Q 2772 3750 2511 3984 
Q 2250 4219 1831 4219 
Q 1534 4219 1204 4116 
Q 875 4013 500 3803 
L 500 4441 
Q 881 4594 1212 4672 
Q 1544 4750 1819 4750 
Q 2544 4750 2975 4387 
Q 3406 4025 3406 3419 
Q 3406 3131 3298 2873 
Q 3191 2616 2906 2266 
Q 2828 2175 2409 1742 
Q 1991 1309 1228 531 
z
" transform="scale(0.015625)"/>
       </defs>
       <use xlink:href="#DejaVuSans-32"/>
       <use xlink:href="#DejaVuSans-30" x="63.623047"/>
       <use xlink:href="#DejaVuSans-30" x="127.246094"/>
      </g>
     </g>
    </g>
    <g id="xtick_3">
     <g id="line2d_3">
      <g>
       <use xlink:href="#m73a1e6d490" x="222.790909" y="384.48" style="stroke: #000000; stroke-width: 0.8"/>
      </g>
     </g>
     <g id="text_3">
      <!-- 400 -->
      <g transform="translate(213.247159 399.078438)scale(0.1 -0.1)">
       <defs>
        <path id="DejaVuSans-34" d="M 2419 4116 
L 825 1625 
L 2419 1625 
L 2419 4116 
z
M 2253 4666 
L 3047 4666 
L 3047 1625 
L 3713 1625 
L 3713 1100 
L 3047 1100 
L 3047 0 
L 2419 0 
L 2419 1100 
L 313 1100 
L 313 1709 
L 2253 4666 
z
" transform="scale(0.015625)"/>
       </defs>
       <use xlink:href="#DejaVuSans-34"/>
       <use xlink:href="#DejaVuSans-30" x="63.623047"/>
       <use xlink:href="#DejaVuSans-30" x="127.246094"/>
      </g>
     </g>
    </g>
    <g id="xtick_4">
     <g id="line2d_4">
      <g>
       <use xlink:href="#m73a1e6d490" x="293.809091" y="384.48" style="stroke: #000000; stroke-width: 0.8"/>
      </g>
     </g>
     <g id="text_4">
      <!-- 600 -->
      <g transform="translate(284.265341 399.078438)scale(0.1 -0.1)">
       <defs>
        <path id="DejaVuSans-36" d="M 2113 2584 
Q 1688 2584 1439 2293 
Q 1191 2003 1191 1497 
Q 1191 994 1439 701 
Q 1688 409 2113 409 
Q 2538 409 2786 701 
Q 3034 994 3034 1497 
Q 3034 2003 2786 2293 
Q 2538 2584 2113 2584 
z
M 3366 4563 
L 3366 3988 
Q 3128 4100 2886 4159 
Q 2644 4219 2406 4219 
Q 1781 4219 1451 3797 
Q 1122 3375 1075 2522 
Q 1259 2794 1537 2939 
Q 1816 3084 2150 3084 
Q 2853 3084 3261 2657 
Q 3669 2231 3669 1497 
Q 3669 778 3244 343 
Q 2819 -91 2113 -91 
Q 1303 -91 875 529 
Q 447 1150 447 2328 
Q 447 3434 972 4092 
Q 1497 4750 2381 4750 
Q 2619 4750 2861 4703 
Q 3103 4656 3366 4563 
z
" transform="scale(0.015625)"/>
       </defs>
       <use xlink:href="#DejaVuSans-36"/>
       <use xlink:href="#DejaVuSans-30" x="63.623047"/>
       <use xlink:href="#DejaVuSans-30" x="127.246094"/>
      </g>
     </g>
    </g>
    <g id="xtick_5">
     <g id="line2d_5">
      <g>
       <use xlink:href="#m73a1e6d490" x="364.827273" y="384.48" style="stroke: #000000; stroke-width: 0.8"/>
      </g>
     </g>
     <g id="text_5">
      <!-- 800 -->
      <g transform="translate(355.283523 399.078438)scale(0.1 -0.1)">
       <defs>
        <path id="DejaVuSans-38" d="M 2034 2216 
Q 1584 2216 1326 1975 
Q 1069 1734 1069 1313 
Q 1069 891 1326 650 
Q 1584 409 2034 409 
Q 2484 409 2743 651 
Q 3003 894 3003 1313 
Q 3003 1734 2745 1975 
Q 2488 2216 2034 2216 
z
M 1403 2484 
Q 997 2584 770 2862 
Q 544 3141 544 3541 
Q 544 4100 942 4425 
Q 1341 4750 2034 4750 
Q 2731 4750 3128 4425 
Q 3525 4100 3525 3541 
Q 3525 3141 3298 2862 
Q 3072 2584 2669 2484 
Q 3125 2378 3379 2068 
Q 3634 1759 3634 1313 
Q 3634 634 3220 271 
Q 2806 -91 2034 -91 
Q 1263 -91 848 271 
Q 434 634 434 1313 
Q 434 1759 690 2068 
Q 947 2378 1403 2484 
z
M 1172 3481 
Q 1172 3119 1398 2916 
Q 1625 2713 2034 2713 
Q 2441 2713 2670 2916 
Q 2900 3119 2900 3481 
Q 2900 3844 2670 4047 
Q 2441 4250 2034 4250 
Q 1625 4250 1398 4047 
Q 1172 3844 1172 3481 
z
" transform="scale(0.015625)"/>
       </defs>
       <use xlink:href="#DejaVuSans-38"/>
       <use xlink:href="#DejaVuSans-30" x="63.623047"/>
       <use xlink:href="#DejaVuSans-30" x="127.246094"/>
      </g>
     </g>
    </g>
    <g id="text_6">
     <!-- time [ms] -->
     <g transform="translate(234.038281 412.756563)scale(0.1 -0.1)">
      <defs>
       <path id="DejaVuSans-74" d="M 1172 4494 
L 1172 3500 
L 2356 3500 
L 2356 3053 
L 1172 3053 
L 1172 1153 
Q 1172 725 1289 603 
Q 1406 481 1766 481 
L 2356 481 
L 2356 0 
L 1766 0 
Q 1100 0 847 248 
Q 594 497 594 1153 
L 594 3053 
L 172 3053 
L 172 3500 
L 594 3500 
L 594 4494 
L 1172 4494 
z
" transform="scale(0.015625)"/>
       <path id="DejaVuSans-69" d="M 603 3500 
L 1178 3500 
L 1178 0 
L 603 0 
L 603 3500 
z
M 603 4863 
L 1178 4863 
L 1178 4134 
L 603 4134 
L 603 4863 
z
" transform="scale(0.015625)"/>
       <path id="DejaVuSans-6d" d="M 3328 2828 
Q 3544 3216 3844 3400 
Q 4144 3584 4550 3584 
Q 5097 3584 5394 3201 
Q 5691 2819 5691 2113 
L 5691 0 
L 5113 0 
L 5113 2094 
Q 5113 2597 4934 2840 
Q 4756 3084 4391 3084 
Q 3944 3084 3684 2787 
Q 3425 2491 3425 1978 
L 3425 0 
L 2847 0 
L 2847 2094 
Q 2847 2600 2669 2842 
Q 2491 3084 2119 3084 
Q 1678 3084 1418 2786 
Q 1159 2488 1159 1978 
L 1159 0 
L 581 0 
L 581 3500 
L 1159 3500 
L 1159 2956 
Q 1356 3278 1631 3431 
Q 1906 3584 2284 3584 
Q 2666 3584 2933 3390 
Q 3200 3197 3328 2828 
z
" transform="scale(0.015625)"/>
       <path id="DejaVuSans-65" d="M 3597 1894 
L 3597 1613 
L 953 1613 
Q 991 1019 1311 708 
Q 1631 397 2203 397 
Q 2534 397 2845 478 
Q 3156 559 3463 722 
L 3463 178 
Q 3153 47 2828 -22 
Q 2503 -91 2169 -91 
Q 1331 -91 842 396 
Q 353 884 353 1716 
Q 353 2575 817 3079 
Q 1281 3584 2069 3584 
Q 2775 3584 3186 3129 
Q 3597 2675 3597 1894 
z
M 3022 2063 
Q 3016 2534 2758 2815 
Q 2500 3097 2075 3097 
Q 1594 3097 1305 2825 
Q 1016 2553 972 2059 
L 3022 2063 
z
" transform="scale(0.015625)"/>
       <path id="DejaVuSans-20" transform="scale(0.015625)"/>
       <path id="DejaVuSans-5b" d="M 550 4863 
L 1875 4863 
L 1875 4416 
L 1125 4416 
L 1125 -397 
L 1875 -397 
L 1875 -844 
L 550 -844 
L 550 4863 
z
" transform="scale(0.015625)"/>
       <path id="DejaVuSans-73" d="M 2834 3397 
L 2834 2853 
Q 2591 2978 2328 3040 
Q 2066 3103 1784 3103 
Q 1356 3103 1142 2972 
Q 928 2841 928 2578 
Q 928 2378 1081 2264 
Q 1234 2150 1697 2047 
L 1894 2003 
Q 2506 1872 2764 1633 
Q 3022 1394 3022 966 
Q 3022 478 2636 193 
Q 2250 -91 1575 -91 
Q 1294 -91 989 -36 
Q 684 19 347 128 
L 347 722 
Q 666 556 975 473 
Q 1284 391 1588 391 
Q 1994 391 2212 530 
Q 2431 669 2431 922 
Q 2431 1156 2273 1281 
Q 2116 1406 1581 1522 
L 1381 1569 
Q 847 1681 609 1914 
Q 372 2147 372 2553 
Q 372 3047 722 3315 
Q 1072 3584 1716 3584 
Q 2034 3584 2315 3537 
Q 2597 3491 2834 3397 
z
" transform="scale(0.015625)"/>
       <path id="DejaVuSans-5d" d="M 1947 4863 
L 1947 -844 
L 622 -844 
L 622 -397 
L 1369 -397 
L 1369 4416 
L 622 4416 
L 622 4863 
L 1947 4863 
z
" transform="scale(0.015625)"/>
      </defs>
      <use xlink:href="#DejaVuSans-74"/>
      <use xlink:href="#DejaVuSans-69" x="39.208984"/>
      <use xlink:href="#DejaVuSans-6d" x="66.992188"/>
      <use xlink:href="#DejaVuSans-65" x="164.404297"/>
      <use xlink:href="#DejaVuSans-20" x="225.927734"/>
      <use xlink:href="#DejaVuSans-5b" x="257.714844"/>
      <use xlink:href="#DejaVuSans-6d" x="296.728516"/>
      <use xlink:href="#DejaVuSans-73" x="394.140625"/>
      <use xlink:href="#DejaVuSans-5d" x="446.240234"/>
     </g>
    </g>
   </g>
   <g id="matplotlib.axis_2">
    <g id="ytick_1">
     <g id="line2d_6">
      <defs>
       <path id="mba971898c2" d="M 0 0 
L -3.5 0 
" style="stroke: #000000; stroke-width: 0.8"/>
      </defs>
      <g>
       <use xlink:href="#mba971898c2" x="63" y="381.071889" style="stroke: #000000; stroke-width: 0.8"/>
      </g>
     </g>
     <g id="text_7">
      <!-- −80 -->
      <g transform="translate(34.895313 384.871108)scale(0.1 -0.1)">
       <defs>
        <path id="DejaVuSans-2212" d="M 678 2272 
L 4684 2272 
L 4684 1741 
L 678 1741 
L 678 2272 
z
" transform="scale(0.015625)"/>
       </defs>
       <use xlink:href="#DejaVuSans-2212"/>
       <use xlink:href="#DejaVuSans-38" x="83.789062"/>
       <use xlink:href="#DejaVuSans-30" x="147.412109"/>
      </g>
     </g>
    </g>
    <g id="ytick_2">
     <g id="line2d_7">
      <g>
       <use xlink:href="#mba971898c2" x="63" y="328.580982" style="stroke: #000000; stroke-width: 0.8"/>
      </g>
     </g>
     <g id="text_8">
      <!-- −60 -->
      <g transform="translate(34.895313 332.3802)scale(0.1 -0.1)">
       <use xlink:href="#DejaVuSans-2212"/>
       <use xlink:href="#DejaVuSans-36" x="83.789062"/>
       <use xlink:href="#DejaVuSans-30" x="147.412109"/>
      </g>
     </g>
    </g>
    <g id="ytick_3">
     <g id="line2d_8">
      <g>
       <use xlink:href="#mba971898c2" x="63" y="276.090074" style="stroke: #000000; stroke-width: 0.8"/>
      </g>
     </g>
     <g id="text_9">
      <!-- −40 -->
      <g transform="translate(34.895313 279.889293)scale(0.1 -0.1)">
       <use xlink:href="#DejaVuSans-2212"/>
       <use xlink:href="#DejaVuSans-34" x="83.789062"/>
       <use xlink:href="#DejaVuSans-30" x="147.412109"/>
      </g>
     </g>
    </g>
    <g id="ytick_4">
     <g id="line2d_9">
      <g>
       <use xlink:href="#mba971898c2" x="63" y="223.599167" style="stroke: #000000; stroke-width: 0.8"/>
      </g>
     </g>
     <g id="text_10">
      <!-- −20 -->
      <g transform="translate(34.895313 227.398385)scale(0.1 -0.1)">
       <use xlink:href="#DejaVuSans-2212"/>
       <use xlink:href="#DejaVuSans-32" x="83.789062"/>
       <use xlink:href="#DejaVuSans-30" x="147.412109"/>
      </g>
     </g>
    </g>
    <g id="ytick_5">
     <g id="line2d_10">
      <g>
       <use xlink:href="#mba971898c2" x="63" y="171.108259" style="stroke: #000000; stroke-width: 0.8"/>
      </g>
     </g>
     <g id="text_11">
      <!-- 0 -->
      <g transform="translate(49.6375 174.907478)scale(0.1 -0.1)">
       <use xlink:href="#DejaVuSans-30"/>
      </g>
     </g>
    </g>
    <g id="ytick_6">
     <g id="line2d_11">
      <g>
       <use xlink:href="#mba971898c2" x="63" y="118.617352" style="stroke: #000000; stroke-width: 0.8"/>
      </g>
     </g>
     <g id="text_12">
      <!-- 20 -->
      <g transform="translate(43.275 122.41657)scale(0.1 -0.1)">
       <use xlink:href="#DejaVuSans-32"/>
       <use xlink:href="#DejaVuSans-30" x="63.623047"/>
      </g>
     </g>
    </g>
    <g id="ytick_7">
     <g id="line2d_12">
      <g>
       <use xlink:href="#mba971898c2" x="63" y="66.126444" style="stroke: #000000; stroke-width: 0.8"/>
      </g>
     </g>
     <g id="text_13">
      <!-- 40 -->
      <g transform="translate(43.275 69.925663)scale(0.1 -0.1)">
       <use xlink:href="#DejaVuSans-34"/>
       <use xlink:href="#DejaVuSans-30" x="63.623047"/>
      </g>
     </g>
    </g>
    <g id="text_14">
     <!-- voltage [mV] -->
     <g transform="translate(28.815625 250.624062)rotate(-90)scale(0.1 -0.1)">
      <defs>
       <path id="DejaVuSans-76" d="M 191 3500 
L 800 3500 
L 1894 563 
L 2988 3500 
L 3597 3500 
L 2284 0 
L 1503 0 
L 191 3500 
z
" transform="scale(0.015625)"/>
       <path id="DejaVuSans-6f" d="M 1959 3097 
Q 1497 3097 1228 2736 
Q 959 2375 959 1747 
Q 959 1119 1226 758 
Q 1494 397 1959 397 
Q 2419 397 2687 759 
Q 2956 1122 2956 1747 
Q 2956 2369 2687 2733 
Q 2419 3097 1959 3097 
z
M 1959 3584 
Q 2709 3584 3137 3096 
Q 3566 2609 3566 1747 
Q 3566 888 3137 398 
Q 2709 -91 1959 -91 
Q 1206 -91 779 398 
Q 353 888 353 1747 
Q 353 2609 779 3096 
Q 1206 3584 1959 3584 
z
" transform="scale(0.015625)"/>
       <path id="DejaVuSans-6c" d="M 603 4863 
L 1178 4863 
L 1178 0 
L 603 0 
L 603 4863 
z
" transform="scale(0.015625)"/>
       <path id="DejaVuSans-61" d="M 2194 1759 
Q 1497 1759 1228 1600 
Q 959 1441 959 1056 
Q 959 750 1161 570 
Q 1363 391 1709 391 
Q 2188 391 2477 730 
Q 2766 1069 2766 1631 
L 2766 1759 
L 2194 1759 
z
M 3341 1997 
L 3341 0 
L 2766 0 
L 2766 531 
Q 2569 213 2275 61 
Q 1981 -91 1556 -91 
Q 1019 -91 701 211 
Q 384 513 384 1019 
Q 384 1609 779 1909 
Q 1175 2209 1959 2209 
L 2766 2209 
L 2766 2266 
Q 2766 2663 2505 2880 
Q 2244 3097 1772 3097 
Q 1472 3097 1187 3025 
Q 903 2953 641 2809 
L 641 3341 
Q 956 3463 1253 3523 
Q 1550 3584 1831 3584 
Q 2591 3584 2966 3190 
Q 3341 2797 3341 1997 
z
" transform="scale(0.015625)"/>
       <path id="DejaVuSans-67" d="M 2906 1791 
Q 2906 2416 2648 2759 
Q 2391 3103 1925 3103 
Q 1463 3103 1205 2759 
Q 947 2416 947 1791 
Q 947 1169 1205 825 
Q 1463 481 1925 481 
Q 2391 481 2648 825 
Q 2906 1169 2906 1791 
z
M 3481 434 
Q 3481 -459 3084 -895 
Q 2688 -1331 1869 -1331 
Q 1566 -1331 1297 -1286 
Q 1028 -1241 775 -1147 
L 775 -588 
Q 1028 -725 1275 -790 
Q 1522 -856 1778 -856 
Q 2344 -856 2625 -561 
Q 2906 -266 2906 331 
L 2906 616 
Q 2728 306 2450 153 
Q 2172 0 1784 0 
Q 1141 0 747 490 
Q 353 981 353 1791 
Q 353 2603 747 3093 
Q 1141 3584 1784 3584 
Q 2172 3584 2450 3431 
Q 2728 3278 2906 2969 
L 2906 3500 
L 3481 3500 
L 3481 434 
z
" transform="scale(0.015625)"/>
       <path id="DejaVuSans-56" d="M 1831 0 
L 50 4666 
L 709 4666 
L 2188 738 
L 3669 4666 
L 4325 4666 
L 2547 0 
L 1831 0 
z
" transform="scale(0.015625)"/>
      </defs>
      <use xlink:href="#DejaVuSans-76"/>
      <use xlink:href="#DejaVuSans-6f" x="59.179688"/>
      <use xlink:href="#DejaVuSans-6c" x="120.361328"/>
      <use xlink:href="#DejaVuSans-74" x="148.144531"/>
      <use xlink:href="#DejaVuSans-61" x="187.353516"/>
      <use xlink:href="#DejaVuSans-67" x="248.632812"/>
      <use xlink:href="#DejaVuSans-65" x="312.109375"/>
      <use xlink:href="#DejaVuSans-20" x="373.632812"/>
      <use xlink:href="#DejaVuSans-5b" x="405.419922"/>
      <use xlink:href="#DejaVuSans-6d" x="444.433594"/>
      <use xlink:href="#DejaVuSans-56" x="541.845703"/>
      <use xlink:href="#DejaVuSans-5d" x="610.253906"/>
     </g>
    </g>
   </g>
   <g id="line2d_13">
    <path d="M 80.754545 341.703709 
L 81.961855 341.567232 
L 83.772818 341.624447 
L 85.974382 341.643344 
L 151.772727 341.634683 
L 152.314241 297.117669 
L 152.420768 248.489305 
L 152.562805 66.977322 
L 152.678209 92.191329 
L 153.565936 368.187471 
L 153.610323 368.086951 
L 153.8145 366.708277 
L 154.293873 361.955226 
L 154.959668 352.835193 
L 157.42755 313.949404 
L 157.613973 302.823693 
L 157.738255 280.861235 
L 157.835905 218.313595 
L 157.969064 91.33494 
L 158.031205 104.485487 
L 158.883423 367.763082 
L 158.945564 367.579626 
L 159.203005 365.600719 
L 159.717886 359.928552 
L 160.534595 348.003142 
L 161.8218 329.875407 
L 162.514227 319.51029 
L 162.771668 311.990705 
L 162.940336 300.000995 
L 163.064618 272.038563 
L 163.162268 187.65111 
L 163.268795 92.255106 
L 163.322059 101.766983 
L 163.863573 296.839467 
L 164.147645 367.58645 
L 164.183155 367.731325 
L 164.245295 367.549969 
L 164.493859 365.646649 
L 165.008741 359.994165 
L 165.834327 347.945665 
L 167.112655 329.949945 
L 167.813959 319.474859 
L 168.0714 311.945563 
L 168.240068 299.916484 
L 168.36435 271.792381 
L 168.462 186.905608 
L 168.568527 92.332005 
L 168.621791 101.98902 
L 169.172182 300.79072 
L 169.4385 367.500627 
L 169.482886 367.729225 
L 169.545027 367.543932 
L 169.802468 365.556889 
L 170.31735 359.866875 
L 171.151814 347.656702 
L 172.430141 329.707174 
L 173.113691 319.456487 
L 173.371132 311.909082 
L 173.5398 299.820689 
L 173.664082 271.45434 
L 173.761732 185.754456 
L 173.868259 92.348802 
L 173.921523 102.224966 
L 174.480791 304.86139 
L 174.729355 367.391184 
L 174.782618 367.729225 
L 174.844759 367.539733 
L 175.1022 365.54954 
L 175.617082 359.856114 
L 176.451545 347.643842 
L 177.729873 329.696413 
L 178.413423 319.43969 
L 178.670864 311.873126 
L 178.839532 299.72358 
L 178.963814 271.107375 
L 179.061464 184.569605 
L 179.167991 92.366124 
L 179.221255 102.463537 
L 179.7894 309.035205 
L 180.029086 367.403519 
L 180.08235 367.729488 
L 180.144491 367.535271 
L 180.401932 365.542192 
L 180.916814 359.845616 
L 181.751277 347.631507 
L 183.029605 329.685915 
L 183.713155 319.422631 
L 183.970595 311.836907 
L 184.139264 299.625422 
L 184.263545 270.752274 
L 184.361195 183.363915 
L 184.467723 92.390007 
L 184.520986 102.705783 
L 185.098009 313.300878 
L 185.328818 367.415592 
L 185.382082 367.729488 
L 185.444223 367.531072 
L 185.701664 365.534581 
L 186.216545 359.835118 
L 187.051009 347.618909 
L 188.329336 329.675417 
L 189.012886 319.405833 
L 189.270327 311.800426 
L 189.438995 299.52569 
L 189.563277 270.391924 
L 189.660927 182.153422 
L 189.767455 92.419665 
L 189.820718 102.95039 
L 190.406618 317.638727 
L 190.619673 367.28174 
L 190.681814 367.729225 
L 190.743955 367.52661 
L 191.010273 365.445871 
L 191.525155 359.709665 
L 192.368495 347.333358 
L 193.637945 329.549439 
L 194.312618 319.388511 
L 194.570059 311.763945 
L 194.738727 299.425432 
L 194.863009 270.028162 
L 194.969536 167.580476 
L 195.058309 92.406279 
L 195.12045 103.197623 
L 195.715227 322.022768 
L 195.919405 367.297225 
L 195.981545 367.729225 
L 196.043686 367.522149 
L 196.310005 365.43826 
L 196.833764 359.583686 
L 197.703736 346.775642 
L 198.955432 329.308243 
L 199.61235 319.371452 
L 199.869791 311.726939 
L 200.038459 299.324125 
L 200.162741 269.657051 
L 200.269268 166.317257 
L 200.358041 92.376885 
L 200.420182 103.449054 
L 201.023836 326.415994 
L 201.219136 367.311923 
L 201.281277 367.7287 
L 201.343418 367.517687 
L 201.609736 365.430649 
L 202.133495 359.572663 
L 202.994591 346.898996 
L 204.255164 329.297483 
L 204.912082 319.353867 
L 205.169523 311.689408 
L 205.338191 299.221242 
L 205.462473 269.278329 
L 205.569 165.045559 
L 205.657773 92.354576 
L 205.719914 103.702323 
L 206.332445 330.770377 
L 206.518868 367.32662 
L 206.581009 367.728438 
L 206.634273 367.55968 
L 206.873959 365.744807 
L 207.388841 360.134054 
L 208.187795 348.524115 
L 209.510509 329.862285 
L 210.202936 319.520789 
L 210.460377 312.044509 
L 210.629045 300.184451 
L 210.753327 272.745354 
L 210.850977 190.211459 
L 210.957505 92.339354 
L 211.019645 103.956641 
L 211.641055 335.031852 
L 211.827477 367.472282 
L 211.880741 367.727913 
L 211.934005 367.55548 
L 212.182568 365.657672 
L 212.69745 360.009913 
L 213.514159 348.1013 
L 214.810241 329.851524 
L 215.502668 319.503729 
L 215.760109 312.008552 
L 215.928777 300.08813 
L 216.053059 272.406 
L 216.150709 189.032513 
L 216.257236 92.333055 
L 216.319377 104.210435 
L 216.949664 339.136903 
L 217.127209 367.482781 
L 217.171595 367.728438 
L 217.233736 367.551281 
L 217.4823 365.650323 
L 217.997182 359.999414 
L 218.822768 347.951964 
L 220.101095 329.955719 
L 220.8024 319.486669 
L 221.059841 311.972859 
L 221.228509 299.992071 
L 221.352791 272.065334 
L 221.450441 187.854145 
L 221.556968 92.33358 
L 221.610232 101.803989 
L 222.151745 296.894845 
L 222.426941 367.492754 
L 222.471327 367.7287 
L 222.533468 367.547082 
L 222.782032 365.642974 
L 223.296914 359.988916 
L 224.1225 347.939103 
L 225.418582 329.71531 
L 226.111009 319.284579 
L 226.36845 311.540071 
L 226.537118 298.807876 
L 226.652523 271.722043 
L 226.750173 186.671078 
L 226.8567 92.339616 
L 226.909964 102.04151 
L 227.460355 300.866045 
L 227.726673 367.502465 
L 227.771059 367.729225 
L 227.8332 367.542883 
L 228.090641 365.555052 
L 228.605523 359.86425 
L 229.439986 347.653553 
L 230.718314 329.70455 
L 231.401864 319.45255 
L 231.659305 311.900684 
L 231.827973 299.798642 
L 231.952255 271.376391 
L 232.049905 185.487802 
L 232.156432 92.352476 
L 232.209695 102.278769 
L 232.768964 304.939864 
L 233.017527 367.394071 
L 233.070791 367.729225 
L 233.132932 367.538683 
L 233.390373 365.547703 
L 233.905255 359.853752 
L 234.739718 347.640955 
L 236.018045 329.694051 
L 236.701595 319.435753 
L 236.959036 311.86499 
L 237.127705 299.701534 
L 237.251986 271.027589 
L 237.349636 184.297754 
L 237.456164 92.370848 
L 237.509427 102.51839 
L 238.077573 309.116041 
L 238.317259 367.406144 
L 238.370523 367.729488 
L 238.432664 367.534484 
L 238.690105 365.540355 
L 239.204986 359.843254 
L 240.03945 347.62862 
L 241.317777 329.683553 
L 242.001327 319.418956 
L 242.258768 311.828771 
L 242.427436 299.602851 
L 242.551718 270.67065 
L 242.649368 183.089256 
L 242.755895 92.396306 
L 242.809159 102.761161 
L 243.386182 313.383552 
L 243.616991 367.418217 
L 243.670255 367.729488 
L 243.732395 367.530022 
L 243.989836 365.533006 
L 244.504718 359.832756 
L 245.348059 347.479546 
L 246.617509 329.672793 
L 247.301059 319.401897 
L 247.5585 311.79229 
L 247.727168 299.502856 
L 247.85145 270.309775 
L 247.9491 181.877582 
L 248.055627 92.427538 
L 248.108891 103.006293 
L 248.694791 317.723237 
L 248.907845 367.285415 
L 248.969986 367.729225 
L 249.032127 367.525823 
L 249.298445 365.444296 
L 249.822205 359.592085 
L 250.692177 346.785616 
L 251.943873 329.316642 
L 252.600791 319.384575 
L 252.858232 311.755546 
L 253.0269 299.402336 
L 253.151182 269.944176 
L 253.257709 167.292879 
L 253.346482 92.398931 
L 253.408623 103.254838 
L 254.0034 322.108853 
L 254.207577 367.300637 
L 254.269718 367.728963 
L 254.331859 367.521361 
L 254.598177 365.436685 
L 255.121936 359.581062 
L 255.983032 346.908969 
L 257.22585 329.536316 
L 257.900523 319.367515 
L 258.157964 311.71854 
L 258.326632 299.300766 
L 258.450914 269.571228 
L 258.557441 166.027061 
L 258.646214 92.371111 
L 258.708355 103.507057 
L 259.312009 326.502079 
L 259.507309 367.315335 
L 259.56945 367.7287 
L 259.631591 367.516637 
L 259.897909 365.428811 
L 260.421668 359.570301 
L 261.291641 346.760158 
L 262.525582 329.525556 
L 263.200255 319.349931 
L 263.457695 311.681009 
L 263.626364 299.197621 
L 263.750645 269.191194 
L 263.857173 164.754838 
L 263.945945 92.350377 
L 264.008086 103.760325 
L 264.620618 330.85515 
L 264.807041 367.330032 
L 264.869182 367.728176 
L 264.922445 367.558892 
L 265.171009 365.663446 
L 265.685891 360.018311 
L 266.511477 347.974535 
L 267.807559 329.744968 
L 268.499986 319.332609 
L 268.757427 311.643478 
L 268.926095 299.094477 
L 269.050377 268.81116 
L 269.156905 163.492091 
L 269.245677 92.337254 
L 269.298941 101.385374 
L 269.8227 289.335892 
L 270.133405 367.641041 
L 270.168914 367.727913 
L 270.222177 367.554693 
L 270.470741 365.656097 
L 270.985623 360.00755 
L 271.802332 348.098413 
L 273.098414 329.849162 
L 273.790841 319.499792 
L 274.048282 312.000416 
L 274.21695 300.066346 
L 274.341232 272.328313 
L 274.438882 188.762815 
L 274.545409 92.332792 
L 274.598673 101.621321 
L 275.131309 293.102377 
L 275.424259 367.579101 
L 275.459768 367.728438 
L 275.521909 367.550494 
L 275.770473 365.648748 
L 276.285355 359.997052 
L 277.110941 347.949077 
L 278.389268 329.953356 
L 279.090573 319.482733 
L 279.348014 311.96446 
L 279.516682 299.970025 
L 279.640964 271.987122 
L 279.738614 187.584341 
L 279.845141 92.334104 
L 279.898405 101.858317 
L 280.439918 296.970695 
L 280.715114 367.494853 
L 280.7595 367.728963 
L 280.821641 367.546295 
L 281.079082 365.560826 
L 281.593964 359.872386 
L 282.428427 347.663264 
L 283.706755 329.712686 
L 284.390305 319.465673 
L 284.647745 311.928504 
L 284.816414 299.873442 
L 284.940695 271.643307 
L 285.038345 186.40117 
L 285.144873 92.341978 
L 285.198136 102.095576 
L 285.748527 300.942944 
L 286.014845 367.504564 
L 286.059232 367.729225 
L 286.121373 367.541833 
L 286.378814 365.553477 
L 286.893695 359.861888 
L 287.728159 347.650666 
L 289.006486 329.702187 
L 289.690036 319.448876 
L 289.947477 311.892547 
L 290.116145 299.776596 
L 290.240427 271.297129 
L 290.338077 185.217001 
L 290.444605 92.356151 
L 290.497868 102.333097 
L 291.057136 305.019126 
L 291.3057 367.396958 
L 291.358964 367.729488 
L 291.421105 367.537634 
L 291.678545 365.546129 
L 292.193427 359.85139 
L 293.027891 347.638068 
L 294.315095 329.576472 
L 294.989768 319.431816 
L 295.247209 311.856591 
L 295.415877 299.679226 
L 295.540159 270.946753 
L 295.637809 184.023043 
L 295.744336 92.376097 
L 295.7976 102.573506 
L 296.365745 309.197402 
L 296.605432 367.409031 
L 296.658695 367.729488 
L 296.720836 367.533434 
L 296.978277 365.53878 
L 297.493159 359.840892 
L 298.327623 347.625733 
L 299.60595 329.681191 
L 300.2895 319.415019 
L 300.546941 311.820372 
L 300.715609 299.580018 
L 300.839891 270.588765 
L 300.937541 182.814204 
L 301.044068 92.402868 
L 301.097332 102.816539 
L 301.674355 313.466225 
L 301.905164 367.420841 
L 301.958427 367.729488 
L 302.020568 367.529235 
L 302.286886 365.45007 
L 302.810645 359.600221 
L 303.671741 346.93154 
L 304.914559 329.555475 
L 305.589232 319.39796 
L 305.846673 311.783891 
L 306.015341 299.480285 
L 306.139623 270.227365 
L 306.24615 168.264433 
L 306.334923 92.424914 
L 306.397064 103.062459 
L 306.982964 317.807748 
L 307.196018 367.288827 
L 307.258159 367.729225 
L 307.3203 367.524773 
L 307.586618 365.442459 
L 308.110377 359.58946 
L 308.971473 346.918943 
L 310.214291 329.544715 
L 310.888964 319.3809 
L 311.146405 311.747148 
L 311.315073 299.379502 
L 311.439355 269.859928 
L 311.545882 167.006305 
L 311.634655 92.392107 
L 311.696795 103.31179 
L 312.291573 322.194413 
L 312.49575 367.304049 
L 312.557891 367.728963 
L 312.620032 367.520312 
L 312.88635 365.434848 
L 313.410109 359.5787 
L 314.280082 346.769868 
L 315.531777 329.303257 
L 316.188695 319.363316 
L 316.446136 311.709879 
L 316.614805 299.277408 
L 316.739086 269.485668 
L 316.845614 165.737967 
L 316.934386 92.365861 
L 316.996527 103.564534 
L 317.600182 326.587902 
L 317.795482 367.318746 
L 317.857623 367.7287 
L 317.910886 367.562042 
L 318.150573 365.748743 
L 318.665455 360.139828 
L 319.464409 348.530938 
L 320.787123 329.868321 
L 321.488427 319.345994 
L 321.745868 311.672348 
L 321.914536 299.174001 
L 322.038818 269.104322 
L 322.145345 164.465509 
L 322.234118 92.346702 
L 322.296259 103.818328 
L 322.908791 330.939661 
L 323.095214 367.333444 
L 323.157355 367.728176 
L 323.210618 367.557843 
L 323.459182 365.661871 
L 323.974064 360.015687 
L 324.790773 348.108124 
L 326.095732 329.742343 
L 326.779282 319.512915 
L 327.036723 312.028236 
L 327.205391 300.140621 
L 327.329673 272.590768 
L 327.427323 189.673952 
L 327.53385 92.335417 
L 327.595991 104.072384 
L 328.2174 335.195098 
L 328.403823 367.477007 
L 328.457086 367.727651 
L 328.51035 367.553643 
L 328.758914 365.65426 
L 329.273795 360.005188 
L 329.318182 359.43015 
L 329.335936 360.331419 
L 329.531236 364.328077 
L 329.620009 364.516257 
L 329.664395 364.458779 
L 329.815309 363.850935 
L 330.214786 361.029286 
L 332.176664 346.247584 
L 332.869091 343.02018 
L 333.428359 341.361993 
L 333.889977 340.617672 
L 334.262823 340.390386 
L 334.609036 340.42713 
L 335.061777 340.716617 
L 336.553159 341.808428 
L 337.156814 341.905274 
L 338.097805 341.795043 
L 339.580309 341.600301 
L 342.101455 341.63652 
L 345.723382 341.632583 
L 435.845455 341.634683 
L 435.845455 341.634683 
" clip-path="url(#pb2e891be3a)" style="fill: none; stroke: #1f77b4; stroke-width: 1.5; stroke-linecap: square"/>
   </g>
   <g id="line2d_14">
    <path d="M 80.754545 341.703709 
L 81.136268 341.033519 
L 81.535745 340.727216 
L 81.926345 340.704192 
L 82.512245 340.931954 
L 83.515377 341.294451 
L 84.376473 341.329842 
L 88.131559 341.251401 
L 111.851632 341.251036 
L 151.772727 341.251036 
L 152.34975 294.686711 
L 152.438523 240.626323 
L 152.562805 66.96 
L 152.660455 87.837653 
L 153.290741 325.253142 
L 153.477164 369.314628 
L 153.494918 369.36 
L 153.548182 369.220044 
L 153.850009 367.347228 
L 154.338259 362.954456 
L 155.030686 354.370647 
L 156.3534 337.965784 
L 157.099091 331.560007 
L 157.62285 328.660752 
L 157.9158 328.009884 
L 158.048959 328.049825 
L 158.20875 328.437735 
L 158.457314 329.783948 
L 159.291777 334.839807 
L 159.487077 334.953295 
L 159.664623 334.745646 
L 159.984205 333.932308 
L 161.005091 331.164351 
L 161.298041 330.971285 
L 161.52885 331.077964 
L 161.839555 331.525788 
L 162.709527 332.884185 
L 163.020232 332.956979 
L 163.357568 332.791454 
L 164.698036 331.905613 
L 165.159655 332.021588 
L 166.402473 332.450723 
L 167.0949 332.333768 
L 168.16905 332.17057 
L 169.616045 332.311335 
L 171.036409 332.252551 
L 172.918391 332.276673 
L 179.221255 332.266116 
L 224.735032 332.266456 
L 329.318182 332.266456 
L 329.628886 345.779581 
L 329.886327 349.434261 
L 330.054995 349.844799 
L 330.063873 349.841961 
L 330.179277 349.656774 
L 330.427841 348.687775 
L 331.839327 342.451185 
L 332.336455 341.38021 
L 332.771441 340.92327 
L 333.170918 340.807192 
L 333.676923 340.911835 
L 335.168305 341.325296 
L 336.357859 341.295119 
L 338.843495 341.251345 
L 354.804832 341.251055 
L 435.845455 341.251036 
L 435.845455 341.251036 
" clip-path="url(#pb2e891be3a)" style="fill: none; stroke: #ff0000; stroke-width: 1.5; stroke-linecap: square"/>
   </g>
   <g id="patch_3">
    <path d="M 63 384.48 
L 63 51.84 
" style="fill: none; stroke: #000000; stroke-width: 0.8; stroke-linejoin: miter; stroke-linecap: square"/>
   </g>
   <g id="patch_4">
    <path d="M 453.6 384.48 
L 453.6 51.84 
" style="fill: none; stroke: #000000; stroke-width: 0.8; stroke-linejoin: miter; stroke-linecap: square"/>
   </g>
   <g id="patch_5">
    <path d="M 63 384.48 
L 453.6 384.48 
" style="fill: none; stroke: #000000; stroke-width: 0.8; stroke-linejoin: miter; stroke-linecap: square"/>
   </g>
   <g id="patch_6">
    <path d="M 63 51.84 
L 453.6 51.84 
" style="fill: none; stroke: #000000; stroke-width: 0.8; stroke-linejoin: miter; stroke-linecap: square"/>
   </g>
   <g id="legend_1">
    <g id="patch_7">
     <path d="M 383.460938 89.19625 
L 446.6 89.19625 
Q 448.6 89.19625 448.6 87.19625 
L 448.6 58.84 
Q 448.6 56.84 446.6 56.84 
L 383.460938 56.84 
Q 381.460938 56.84 381.460938 58.84 
L 381.460938 87.19625 
Q 381.460938 89.19625 383.460938 89.19625 
z
" style="fill: #ffffff; opacity: 0.8; stroke: #cccccc; stroke-linejoin: miter"/>
    </g>
    <g id="line2d_15">
     <path d="M 385.460938 64.938437 
L 395.460938 64.938437 
L 405.460938 64.938437 
" style="fill: none; stroke: #1f77b4; stroke-width: 1.5; stroke-linecap: square"/>
    </g>
    <g id="text_15">
     <!-- target -->
     <g transform="translate(413.460938 68.438437)scale(0.1 -0.1)">
      <defs>
       <path id="DejaVuSans-72" d="M 2631 2963 
Q 2534 3019 2420 3045 
Q 2306 3072 2169 3072 
Q 1681 3072 1420 2755 
Q 1159 2438 1159 1844 
L 1159 0 
L 581 0 
L 581 3500 
L 1159 3500 
L 1159 2956 
Q 1341 3275 1631 3429 
Q 1922 3584 2338 3584 
Q 2397 3584 2469 3576 
Q 2541 3569 2628 3553 
L 2631 2963 
z
" transform="scale(0.015625)"/>
      </defs>
      <use xlink:href="#DejaVuSans-74"/>
      <use xlink:href="#DejaVuSans-61" x="39.208984"/>
      <use xlink:href="#DejaVuSans-72" x="100.488281"/>
      <use xlink:href="#DejaVuSans-67" x="139.851562"/>
      <use xlink:href="#DejaVuSans-65" x="203.328125"/>
      <use xlink:href="#DejaVuSans-74" x="264.851562"/>
     </g>
    </g>
    <g id="line2d_16">
     <path d="M 385.460938 79.616562 
L 395.460938 79.616562 
L 405.460938 79.616562 
" style="fill: none; stroke: #ff0000; stroke-width: 1.5; stroke-linecap: square"/>
    </g>
    <g id="text_16">
     <!-- model -->
     <g transform="translate(413.460938 83.116562)scale(0.1 -0.1)">
      <defs>
       <path id="DejaVuSans-64" d="M 2906 2969 
L 2906 4863 
L 3481 4863 
L 3481 0 
L 2906 0 
L 2906 525 
Q 2725 213 2448 61 
Q 2172 -91 1784 -91 
Q 1150 -91 751 415 
Q 353 922 353 1747 
Q 353 2572 751 3078 
Q 1150 3584 1784 3584 
Q 2172 3584 2448 3432 
Q 2725 3281 2906 2969 
z
M 947 1747 
Q 947 1113 1208 752 
Q 1469 391 1925 391 
Q 2381 391 2643 752 
Q 2906 1113 2906 1747 
Q 2906 2381 2643 2742 
Q 2381 3103 1925 3103 
Q 1469 3103 1208 2742 
Q 947 2381 947 1747 
z
" transform="scale(0.015625)"/>
      </defs>
      <use xlink:href="#DejaVuSans-6d"/>
      <use xlink:href="#DejaVuSans-6f" x="97.412109"/>
      <use xlink:href="#DejaVuSans-64" x="158.59375"/>
      <use xlink:href="#DejaVuSans-65" x="222.070312"/>
      <use xlink:href="#DejaVuSans-6c" x="283.59375"/>
     </g>
    </g>
   </g>
  </g>
 </g>
 <defs>
  <clipPath id="pb2e891be3a">
   <rect x="63" y="51.84" width="390.6" height="332.64"/>
  </clipPath>
 </defs>
</svg>
