<?xml version="1.0" encoding="utf-8" standalone="no"?>
<!DOCTYPE svg PUBLIC "-//W3C//DTD SVG 1.1//EN"
  "http://www.w3.org/Graphics/SVG/1.1/DTD/svg11.dtd">
<svg xmlns:xlink="http://www.w3.org/1999/xlink" width="504pt" height="432pt" viewBox="0 0 504 432" xmlns="http://www.w3.org/2000/svg" version="1.1">
 <metadata>
  <rdf:RDF xmlns:dc="http://purl.org/dc/elements/1.1/" xmlns:cc="http://creativecommons.org/ns#" xmlns:rdf="http://www.w3.org/1999/02/22-rdf-syntax-ns#">
   <cc:Work>
    <dc:type rdf:resource="http://purl.org/dc/dcmitype/StillImage"/>
    <dc:date>2022-01-31T19:07:55.128430</dc:date>
    <dc:format>image/svg+xml</dc:format>
    <dc:creator>
     <cc:Agent>
      <dc:title>Matplotlib v3.5.1, https://matplotlib.org/</dc:title>
     </cc:Agent>
    </dc:creator>
   </cc:Work>
  </rdf:RDF>
 </metadata>
 <defs>
  <style type="text/css">*{stroke-linejoin: round; stroke-linecap: butt}</style>
 </defs>
 <g id="figure_1">
  <g id="patch_1">
   <path d="M 0 432 
L 504 432 
L 504 0 
L 0 0 
z
" style="fill: #ffffff"/>
  </g>
  <g id="axes_1">
   <g id="patch_2">
    <path d="M 63 384.48 
L 453.6 384.48 
L 453.6 51.84 
L 63 51.84 
z
" style="fill: #ffffff"/>
   </g>
   <g id="matplotlib.axis_1">
    <g id="xtick_1">
     <g id="line2d_1">
      <defs>
       <path id="mf1e63166cd" d="M 0 0 
L 0 3.5 
" style="stroke: #000000; stroke-width: 0.8"/>
      </defs>
      <g>
       <use xlink:href="#mf1e63166cd" x="80.754545" y="384.48" style="stroke: #000000; stroke-width: 0.8"/>
      </g>
     </g>
     <g id="text_1">
      <!-- 0 -->
      <g transform="translate(77.573295 399.078438)scale(0.1 -0.1)">
       <defs>
        <path id="DejaVuSans-30" d="M 2034 4250 
Q 1547 4250 1301 3770 
Q 1056 3291 1056 2328 
Q 1056 1369 1301 889 
Q 1547 409 2034 409 
Q 2525 409 2770 889 
Q 3016 1369 3016 2328 
Q 3016 3291 2770 3770 
Q 2525 4250 2034 4250 
z
M 2034 4750 
Q 2819 4750 3233 4129 
Q 3647 3509 3647 2328 
Q 3647 1150 3233 529 
Q 2819 -91 2034 -91 
Q 1250 -91 836 529 
Q 422 1150 422 2328 
Q 422 3509 836 4129 
Q 1250 4750 2034 4750 
z
" transform="scale(0.015625)"/>
       </defs>
       <use xlink:href="#DejaVuSans-30"/>
      </g>
     </g>
    </g>
    <g id="xtick_2">
     <g id="line2d_2">
      <g>
       <use xlink:href="#mf1e63166cd" x="151.772727" y="384.48" style="stroke: #000000; stroke-width: 0.8"/>
      </g>
     </g>
     <g id="text_2">
      <!-- 200 -->
      <g transform="translate(142.228977 399.078438)scale(0.1 -0.1)">
       <defs>
        <path id="DejaVuSans-32" d="M 1228 531 
L 3431 531 
L 3431 0 
L 469 0 
L 469 531 
Q 828 903 1448 1529 
Q 2069 2156 2228 2338 
Q 2531 2678 2651 2914 
Q 2772 3150 2772 3378 
Q 2772 3750 2511 3984 
Q 2250 4219 1831 4219 
Q 1534 4219 1204 4116 
Q 875 4013 500 3803 
L 500 4441 
Q 881 4594 1212 4672 
Q 1544 4750 1819 4750 
Q 2544 4750 2975 4387 
Q 3406 4025 3406 3419 
Q 3406 3131 3298 2873 
Q 3191 2616 2906 2266 
Q 2828 2175 2409 1742 
Q 1991 1309 1228 531 
z
" transform="scale(0.015625)"/>
       </defs>
       <use xlink:href="#DejaVuSans-32"/>
       <use xlink:href="#DejaVuSans-30" x="63.623047"/>
       <use xlink:href="#DejaVuSans-30" x="127.246094"/>
      </g>
     </g>
    </g>
    <g id="xtick_3">
     <g id="line2d_3">
      <g>
       <use xlink:href="#mf1e63166cd" x="222.790909" y="384.48" style="stroke: #000000; stroke-width: 0.8"/>
      </g>
     </g>
     <g id="text_3">
      <!-- 400 -->
      <g transform="translate(213.247159 399.078438)scale(0.1 -0.1)">
       <defs>
        <path id="DejaVuSans-34" d="M 2419 4116 
L 825 1625 
L 2419 1625 
L 2419 4116 
z
M 2253 4666 
L 3047 4666 
L 3047 1625 
L 3713 1625 
L 3713 1100 
L 3047 1100 
L 3047 0 
L 2419 0 
L 2419 1100 
L 313 1100 
L 313 1709 
L 2253 4666 
z
" transform="scale(0.015625)"/>
       </defs>
       <use xlink:href="#DejaVuSans-34"/>
       <use xlink:href="#DejaVuSans-30" x="63.623047"/>
       <use xlink:href="#DejaVuSans-30" x="127.246094"/>
      </g>
     </g>
    </g>
    <g id="xtick_4">
     <g id="line2d_4">
      <g>
       <use xlink:href="#mf1e63166cd" x="293.809091" y="384.48" style="stroke: #000000; stroke-width: 0.8"/>
      </g>
     </g>
     <g id="text_4">
      <!-- 600 -->
      <g transform="translate(284.265341 399.078438)scale(0.1 -0.1)">
       <defs>
        <path id="DejaVuSans-36" d="M 2113 2584 
Q 1688 2584 1439 2293 
Q 1191 2003 1191 1497 
Q 1191 994 1439 701 
Q 1688 409 2113 409 
Q 2538 409 2786 701 
Q 3034 994 3034 1497 
Q 3034 2003 2786 2293 
Q 2538 2584 2113 2584 
z
M 3366 4563 
L 3366 3988 
Q 3128 4100 2886 4159 
Q 2644 4219 2406 4219 
Q 1781 4219 1451 3797 
Q 1122 3375 1075 2522 
Q 1259 2794 1537 2939 
Q 1816 3084 2150 3084 
Q 2853 3084 3261 2657 
Q 3669 2231 3669 1497 
Q 3669 778 3244 343 
Q 2819 -91 2113 -91 
Q 1303 -91 875 529 
Q 447 1150 447 2328 
Q 447 3434 972 4092 
Q 1497 4750 2381 4750 
Q 2619 4750 2861 4703 
Q 3103 4656 3366 4563 
z
" transform="scale(0.015625)"/>
       </defs>
       <use xlink:href="#DejaVuSans-36"/>
       <use xlink:href="#DejaVuSans-30" x="63.623047"/>
       <use xlink:href="#DejaVuSans-30" x="127.246094"/>
      </g>
     </g>
    </g>
    <g id="xtick_5">
     <g id="line2d_5">
      <g>
       <use xlink:href="#mf1e63166cd" x="364.827273" y="384.48" style="stroke: #000000; stroke-width: 0.8"/>
      </g>
     </g>
     <g id="text_5">
      <!-- 800 -->
      <g transform="translate(355.283523 399.078438)scale(0.1 -0.1)">
       <defs>
        <path id="DejaVuSans-38" d="M 2034 2216 
Q 1584 2216 1326 1975 
Q 1069 1734 1069 1313 
Q 1069 891 1326 650 
Q 1584 409 2034 409 
Q 2484 409 2743 651 
Q 3003 894 3003 1313 
Q 3003 1734 2745 1975 
Q 2488 2216 2034 2216 
z
M 1403 2484 
Q 997 2584 770 2862 
Q 544 3141 544 3541 
Q 544 4100 942 4425 
Q 1341 4750 2034 4750 
Q 2731 4750 3128 4425 
Q 3525 4100 3525 3541 
Q 3525 3141 3298 2862 
Q 3072 2584 2669 2484 
Q 3125 2378 3379 2068 
Q 3634 1759 3634 1313 
Q 3634 634 3220 271 
Q 2806 -91 2034 -91 
Q 1263 -91 848 271 
Q 434 634 434 1313 
Q 434 1759 690 2068 
Q 947 2378 1403 2484 
z
M 1172 3481 
Q 1172 3119 1398 2916 
Q 1625 2713 2034 2713 
Q 2441 2713 2670 2916 
Q 2900 3119 2900 3481 
Q 2900 3844 2670 4047 
Q 2441 4250 2034 4250 
Q 1625 4250 1398 4047 
Q 1172 3844 1172 3481 
z
" transform="scale(0.015625)"/>
       </defs>
       <use xlink:href="#DejaVuSans-38"/>
       <use xlink:href="#DejaVuSans-30" x="63.623047"/>
       <use xlink:href="#DejaVuSans-30" x="127.246094"/>
      </g>
     </g>
    </g>
    <g id="text_6">
     <!-- time [ms] -->
     <g transform="translate(234.038281 412.756563)scale(0.1 -0.1)">
      <defs>
       <path id="DejaVuSans-74" d="M 1172 4494 
L 1172 3500 
L 2356 3500 
L 2356 3053 
L 1172 3053 
L 1172 1153 
Q 1172 725 1289 603 
Q 1406 481 1766 481 
L 2356 481 
L 2356 0 
L 1766 0 
Q 1100 0 847 248 
Q 594 497 594 1153 
L 594 3053 
L 172 3053 
L 172 3500 
L 594 3500 
L 594 4494 
L 1172 4494 
z
" transform="scale(0.015625)"/>
       <path id="DejaVuSans-69" d="M 603 3500 
L 1178 3500 
L 1178 0 
L 603 0 
L 603 3500 
z
M 603 4863 
L 1178 4863 
L 1178 4134 
L 603 4134 
L 603 4863 
z
" transform="scale(0.015625)"/>
       <path id="DejaVuSans-6d" d="M 3328 2828 
Q 3544 3216 3844 3400 
Q 4144 3584 4550 3584 
Q 5097 3584 5394 3201 
Q 5691 2819 5691 2113 
L 5691 0 
L 5113 0 
L 5113 2094 
Q 5113 2597 4934 2840 
Q 4756 3084 4391 3084 
Q 3944 3084 3684 2787 
Q 3425 2491 3425 1978 
L 3425 0 
L 2847 0 
L 2847 2094 
Q 2847 2600 2669 2842 
Q 2491 3084 2119 3084 
Q 1678 3084 1418 2786 
Q 1159 2488 1159 1978 
L 1159 0 
L 581 0 
L 581 3500 
L 1159 3500 
L 1159 2956 
Q 1356 3278 1631 3431 
Q 1906 3584 2284 3584 
Q 2666 3584 2933 3390 
Q 3200 3197 3328 2828 
z
" transform="scale(0.015625)"/>
       <path id="DejaVuSans-65" d="M 3597 1894 
L 3597 1613 
L 953 1613 
Q 991 1019 1311 708 
Q 1631 397 2203 397 
Q 2534 397 2845 478 
Q 3156 559 3463 722 
L 3463 178 
Q 3153 47 2828 -22 
Q 2503 -91 2169 -91 
Q 1331 -91 842 396 
Q 353 884 353 1716 
Q 353 2575 817 3079 
Q 1281 3584 2069 3584 
Q 2775 3584 3186 3129 
Q 3597 2675 3597 1894 
z
M 3022 2063 
Q 3016 2534 2758 2815 
Q 2500 3097 2075 3097 
Q 1594 3097 1305 2825 
Q 1016 2553 972 2059 
L 3022 2063 
z
" transform="scale(0.015625)"/>
       <path id="DejaVuSans-20" transform="scale(0.015625)"/>
       <path id="DejaVuSans-5b" d="M 550 4863 
L 1875 4863 
L 1875 4416 
L 1125 4416 
L 1125 -397 
L 1875 -397 
L 1875 -844 
L 550 -844 
L 550 4863 
z
" transform="scale(0.015625)"/>
       <path id="DejaVuSans-73" d="M 2834 3397 
L 2834 2853 
Q 2591 2978 2328 3040 
Q 2066 3103 1784 3103 
Q 1356 3103 1142 2972 
Q 928 2841 928 2578 
Q 928 2378 1081 2264 
Q 1234 2150 1697 2047 
L 1894 2003 
Q 2506 1872 2764 1633 
Q 3022 1394 3022 966 
Q 3022 478 2636 193 
Q 2250 -91 1575 -91 
Q 1294 -91 989 -36 
Q 684 19 347 128 
L 347 722 
Q 666 556 975 473 
Q 1284 391 1588 391 
Q 1994 391 2212 530 
Q 2431 669 2431 922 
Q 2431 1156 2273 1281 
Q 2116 1406 1581 1522 
L 1381 1569 
Q 847 1681 609 1914 
Q 372 2147 372 2553 
Q 372 3047 722 3315 
Q 1072 3584 1716 3584 
Q 2034 3584 2315 3537 
Q 2597 3491 2834 3397 
z
" transform="scale(0.015625)"/>
       <path id="DejaVuSans-5d" d="M 1947 4863 
L 1947 -844 
L 622 -844 
L 622 -397 
L 1369 -397 
L 1369 4416 
L 622 4416 
L 622 4863 
L 1947 4863 
z
" transform="scale(0.015625)"/>
      </defs>
      <use xlink:href="#DejaVuSans-74"/>
      <use xlink:href="#DejaVuSans-69" x="39.208984"/>
      <use xlink:href="#DejaVuSans-6d" x="66.992188"/>
      <use xlink:href="#DejaVuSans-65" x="164.404297"/>
      <use xlink:href="#DejaVuSans-20" x="225.927734"/>
      <use xlink:href="#DejaVuSans-5b" x="257.714844"/>
      <use xlink:href="#DejaVuSans-6d" x="296.728516"/>
      <use xlink:href="#DejaVuSans-73" x="394.140625"/>
      <use xlink:href="#DejaVuSans-5d" x="446.240234"/>
     </g>
    </g>
   </g>
   <g id="matplotlib.axis_2">
    <g id="ytick_1">
     <g id="line2d_6">
      <defs>
       <path id="ma7a4187e41" d="M 0 0 
L -3.5 0 
" style="stroke: #000000; stroke-width: 0.8"/>
      </defs>
      <g>
       <use xlink:href="#ma7a4187e41" x="63" y="381.517297" style="stroke: #000000; stroke-width: 0.8"/>
      </g>
     </g>
     <g id="text_7">
      <!-- −80 -->
      <g transform="translate(34.895313 385.316516)scale(0.1 -0.1)">
       <defs>
        <path id="DejaVuSans-2212" d="M 678 2272 
L 4684 2272 
L 4684 1741 
L 678 1741 
L 678 2272 
z
" transform="scale(0.015625)"/>
       </defs>
       <use xlink:href="#DejaVuSans-2212"/>
       <use xlink:href="#DejaVuSans-38" x="83.789062"/>
       <use xlink:href="#DejaVuSans-30" x="147.412109"/>
      </g>
     </g>
    </g>
    <g id="ytick_2">
     <g id="line2d_7">
      <g>
       <use xlink:href="#ma7a4187e41" x="63" y="329.314589" style="stroke: #000000; stroke-width: 0.8"/>
      </g>
     </g>
     <g id="text_8">
      <!-- −60 -->
      <g transform="translate(34.895313 333.113807)scale(0.1 -0.1)">
       <use xlink:href="#DejaVuSans-2212"/>
       <use xlink:href="#DejaVuSans-36" x="83.789062"/>
       <use xlink:href="#DejaVuSans-30" x="147.412109"/>
      </g>
     </g>
    </g>
    <g id="ytick_3">
     <g id="line2d_8">
      <g>
       <use xlink:href="#ma7a4187e41" x="63" y="277.11188" style="stroke: #000000; stroke-width: 0.8"/>
      </g>
     </g>
     <g id="text_9">
      <!-- −40 -->
      <g transform="translate(34.895313 280.911099)scale(0.1 -0.1)">
       <use xlink:href="#DejaVuSans-2212"/>
       <use xlink:href="#DejaVuSans-34" x="83.789062"/>
       <use xlink:href="#DejaVuSans-30" x="147.412109"/>
      </g>
     </g>
    </g>
    <g id="ytick_4">
     <g id="line2d_9">
      <g>
       <use xlink:href="#ma7a4187e41" x="63" y="224.909171" style="stroke: #000000; stroke-width: 0.8"/>
      </g>
     </g>
     <g id="text_10">
      <!-- −20 -->
      <g transform="translate(34.895313 228.70839)scale(0.1 -0.1)">
       <use xlink:href="#DejaVuSans-2212"/>
       <use xlink:href="#DejaVuSans-32" x="83.789062"/>
       <use xlink:href="#DejaVuSans-30" x="147.412109"/>
      </g>
     </g>
    </g>
    <g id="ytick_5">
     <g id="line2d_10">
      <g>
       <use xlink:href="#ma7a4187e41" x="63" y="172.706463" style="stroke: #000000; stroke-width: 0.8"/>
      </g>
     </g>
     <g id="text_11">
      <!-- 0 -->
      <g transform="translate(49.6375 176.505681)scale(0.1 -0.1)">
       <use xlink:href="#DejaVuSans-30"/>
      </g>
     </g>
    </g>
    <g id="ytick_6">
     <g id="line2d_11">
      <g>
       <use xlink:href="#ma7a4187e41" x="63" y="120.503754" style="stroke: #000000; stroke-width: 0.8"/>
      </g>
     </g>
     <g id="text_12">
      <!-- 20 -->
      <g transform="translate(43.275 124.302973)scale(0.1 -0.1)">
       <use xlink:href="#DejaVuSans-32"/>
       <use xlink:href="#DejaVuSans-30" x="63.623047"/>
      </g>
     </g>
    </g>
    <g id="ytick_7">
     <g id="line2d_12">
      <g>
       <use xlink:href="#ma7a4187e41" x="63" y="68.301045" style="stroke: #000000; stroke-width: 0.8"/>
      </g>
     </g>
     <g id="text_13">
      <!-- 40 -->
      <g transform="translate(43.275 72.100264)scale(0.1 -0.1)">
       <use xlink:href="#DejaVuSans-34"/>
       <use xlink:href="#DejaVuSans-30" x="63.623047"/>
      </g>
     </g>
    </g>
    <g id="text_14">
     <!-- voltage [mV] -->
     <g transform="translate(28.815625 250.624062)rotate(-90)scale(0.1 -0.1)">
      <defs>
       <path id="DejaVuSans-76" d="M 191 3500 
L 800 3500 
L 1894 563 
L 2988 3500 
L 3597 3500 
L 2284 0 
L 1503 0 
L 191 3500 
z
" transform="scale(0.015625)"/>
       <path id="DejaVuSans-6f" d="M 1959 3097 
Q 1497 3097 1228 2736 
Q 959 2375 959 1747 
Q 959 1119 1226 758 
Q 1494 397 1959 397 
Q 2419 397 2687 759 
Q 2956 1122 2956 1747 
Q 2956 2369 2687 2733 
Q 2419 3097 1959 3097 
z
M 1959 3584 
Q 2709 3584 3137 3096 
Q 3566 2609 3566 1747 
Q 3566 888 3137 398 
Q 2709 -91 1959 -91 
Q 1206 -91 779 398 
Q 353 888 353 1747 
Q 353 2609 779 3096 
Q 1206 3584 1959 3584 
z
" transform="scale(0.015625)"/>
       <path id="DejaVuSans-6c" d="M 603 4863 
L 1178 4863 
L 1178 0 
L 603 0 
L 603 4863 
z
" transform="scale(0.015625)"/>
       <path id="DejaVuSans-61" d="M 2194 1759 
Q 1497 1759 1228 1600 
Q 959 1441 959 1056 
Q 959 750 1161 570 
Q 1363 391 1709 391 
Q 2188 391 2477 730 
Q 2766 1069 2766 1631 
L 2766 1759 
L 2194 1759 
z
M 3341 1997 
L 3341 0 
L 2766 0 
L 2766 531 
Q 2569 213 2275 61 
Q 1981 -91 1556 -91 
Q 1019 -91 701 211 
Q 384 513 384 1019 
Q 384 1609 779 1909 
Q 1175 2209 1959 2209 
L 2766 2209 
L 2766 2266 
Q 2766 2663 2505 2880 
Q 2244 3097 1772 3097 
Q 1472 3097 1187 3025 
Q 903 2953 641 2809 
L 641 3341 
Q 956 3463 1253 3523 
Q 1550 3584 1831 3584 
Q 2591 3584 2966 3190 
Q 3341 2797 3341 1997 
z
" transform="scale(0.015625)"/>
       <path id="DejaVuSans-67" d="M 2906 1791 
Q 2906 2416 2648 2759 
Q 2391 3103 1925 3103 
Q 1463 3103 1205 2759 
Q 947 2416 947 1791 
Q 947 1169 1205 825 
Q 1463 481 1925 481 
Q 2391 481 2648 825 
Q 2906 1169 2906 1791 
z
M 3481 434 
Q 3481 -459 3084 -895 
Q 2688 -1331 1869 -1331 
Q 1566 -1331 1297 -1286 
Q 1028 -1241 775 -1147 
L 775 -588 
Q 1028 -725 1275 -790 
Q 1522 -856 1778 -856 
Q 2344 -856 2625 -561 
Q 2906 -266 2906 331 
L 2906 616 
Q 2728 306 2450 153 
Q 2172 0 1784 0 
Q 1141 0 747 490 
Q 353 981 353 1791 
Q 353 2603 747 3093 
Q 1141 3584 1784 3584 
Q 2172 3584 2450 3431 
Q 2728 3278 2906 2969 
L 2906 3500 
L 3481 3500 
L 3481 434 
z
" transform="scale(0.015625)"/>
       <path id="DejaVuSans-56" d="M 1831 0 
L 50 4666 
L 709 4666 
L 2188 738 
L 3669 4666 
L 4325 4666 
L 2547 0 
L 1831 0 
z
" transform="scale(0.015625)"/>
      </defs>
      <use xlink:href="#DejaVuSans-76"/>
      <use xlink:href="#DejaVuSans-6f" x="59.179688"/>
      <use xlink:href="#DejaVuSans-6c" x="120.361328"/>
      <use xlink:href="#DejaVuSans-74" x="148.144531"/>
      <use xlink:href="#DejaVuSans-61" x="187.353516"/>
      <use xlink:href="#DejaVuSans-67" x="248.632812"/>
      <use xlink:href="#DejaVuSans-65" x="312.109375"/>
      <use xlink:href="#DejaVuSans-20" x="373.632812"/>
      <use xlink:href="#DejaVuSans-5b" x="405.419922"/>
      <use xlink:href="#DejaVuSans-6d" x="444.433594"/>
      <use xlink:href="#DejaVuSans-56" x="541.845703"/>
      <use xlink:href="#DejaVuSans-5d" x="610.253906"/>
     </g>
    </g>
   </g>
   <g id="line2d_13">
    <path d="M 80.754545 342.365266 
L 81.961855 342.229539 
L 83.781695 342.286962 
L 87.776468 342.293487 
L 151.772727 342.296619 
L 152.314241 298.024024 
L 152.420768 249.662652 
L 152.562805 69.147251 
L 152.678209 94.222822 
L 153.565936 368.70362 
L 153.610323 368.603652 
L 153.8145 367.232548 
L 154.293873 362.505593 
L 154.959668 353.435633 
L 157.42755 314.763345 
L 157.613973 303.69872 
L 157.738255 281.856845 
L 157.835905 219.65262 
L 157.969064 93.371135 
L 158.031205 106.44948 
L 158.883423 368.281562 
L 158.945564 368.099113 
L 159.203005 366.131071 
L 159.717886 360.490046 
L 160.534595 348.630113 
L 161.8218 330.601907 
L 162.514227 320.2937 
L 162.771668 312.815401 
L 162.940336 300.891519 
L 163.064618 273.082614 
L 163.162268 189.158486 
L 163.268795 94.286249 
L 163.322059 103.745901 
L 163.863573 297.74735 
L 164.147645 368.105899 
L 164.183155 368.249979 
L 164.245295 368.069619 
L 164.493859 366.176748 
L 165.008741 360.5553 
L 165.834327 348.572951 
L 167.112655 330.676035 
L 167.813959 320.258463 
L 168.0714 312.770506 
L 168.240068 300.807472 
L 168.36435 272.837783 
L 168.462 188.417077 
L 168.568527 94.362726 
L 168.621791 103.966719 
L 169.172182 301.676909 
L 169.4385 368.020548 
L 169.482886 368.247891 
L 169.545027 368.063615 
L 169.802468 366.087482 
L 170.31735 360.428708 
L 171.151814 348.285575 
L 172.430141 330.434598 
L 173.113691 320.240192 
L 173.371132 312.734225 
L 173.5398 300.712203 
L 173.664082 272.501598 
L 173.761732 187.272245 
L 173.868259 94.37943 
L 173.921523 104.20137 
L 174.480791 305.725229 
L 174.729355 367.911705 
L 174.782618 368.247891 
L 174.844759 368.059439 
L 175.1022 366.080173 
L 175.617082 360.418007 
L 176.451545 348.272785 
L 177.729873 330.423896 
L 178.413423 320.223487 
L 178.670864 312.698466 
L 178.839532 300.615628 
L 178.963814 272.156538 
L 179.061464 186.093899 
L 179.167991 94.396657 
L 179.221255 104.438631 
L 179.7894 309.876127 
L 180.029086 367.923973 
L 180.08235 368.248152 
L 180.144491 368.055002 
L 180.401932 366.072865 
L 180.916814 360.407566 
L 181.751277 348.260518 
L 183.029605 330.413456 
L 183.713155 320.206521 
L 183.970595 312.662447 
L 184.139264 300.518008 
L 184.263545 271.803387 
L 184.361195 184.894829 
L 184.467723 94.42041 
L 184.520986 104.679547 
L 185.098009 314.11838 
L 185.328818 367.93598 
L 185.382082 368.248152 
L 185.444223 368.050826 
L 185.701664 366.065296 
L 186.216545 360.397125 
L 187.051009 348.247989 
L 188.329336 330.403015 
L 189.012886 320.189816 
L 189.270327 312.626166 
L 189.438995 300.418823 
L 189.563277 271.445015 
L 189.660927 183.690983 
L 189.767455 94.449904 
L 189.820718 104.922811 
L 190.406618 318.432412 
L 190.619673 367.802863 
L 190.681814 368.247891 
L 190.743955 368.046388 
L 191.010273 365.977073 
L 191.525155 360.272361 
L 192.368495 347.964006 
L 193.637945 330.277729 
L 194.312618 320.172589 
L 194.570059 312.589885 
L 194.738727 300.319116 
L 194.863009 271.08325 
L 194.969536 169.198049 
L 195.058309 94.436592 
L 195.12045 105.168686 
L 195.715227 322.792382 
L 195.919405 367.818263 
L 195.981545 368.247891 
L 196.043686 368.041951 
L 196.310005 365.969504 
L 196.833764 360.147074 
L 197.703736 347.409353 
L 198.955432 330.037857 
L 199.61235 320.155623 
L 199.869791 312.553082 
L 200.038459 300.218365 
L 200.162741 270.714177 
L 200.269268 167.941765 
L 200.358041 94.407359 
L 200.420182 105.418737 
L 201.023836 327.161488 
L 201.219136 367.832879 
L 201.281277 368.247369 
L 201.343418 368.037514 
L 201.609736 365.961934 
L 202.133495 360.136112 
L 202.994591 347.532029 
L 204.255164 330.027156 
L 204.912082 320.138136 
L 205.169523 312.515757 
L 205.338191 300.116048 
L 205.462473 270.337534 
L 205.569 166.67705 
L 205.657773 94.385173 
L 205.719914 105.670615 
L 206.332445 331.491964 
L 206.518868 367.847496 
L 206.581009 368.247108 
L 206.634273 368.079276 
L 206.873959 366.274367 
L 207.388841 360.69442 
L 208.187795 349.148225 
L 209.510509 330.588857 
L 210.202936 320.30414 
L 210.460377 312.868908 
L 210.629045 301.073967 
L 210.753327 273.785523 
L 210.850977 191.704777 
L 210.957505 94.370034 
L 211.019645 105.923537 
L 211.641055 335.730041 
L 211.827477 367.992359 
L 211.880741 368.246586 
L 211.934005 368.0751 
L 212.182568 366.187711 
L 212.69745 360.57096 
L 213.514159 348.727732 
L 214.810241 330.578155 
L 215.502668 320.287174 
L 215.760109 312.833149 
L 215.928777 300.978175 
L 216.053059 273.448033 
L 216.150709 190.532304 
L 216.257236 94.36377 
L 216.319377 106.175938 
L 216.949664 339.812553 
L 217.127209 368.002799 
L 217.171595 368.247108 
L 217.233736 368.070924 
L 217.4823 366.180403 
L 217.997182 360.56052 
L 218.822768 348.579215 
L 220.101095 330.681778 
L 220.8024 320.270208 
L 221.059841 312.797652 
L 221.228509 300.882644 
L 221.352791 273.109237 
L 221.450441 189.360406 
L 221.556968 94.364292 
L 221.610232 103.782704 
L 222.151745 297.802424 
L 222.426941 368.012718 
L 222.471327 368.247369 
L 222.533468 368.066747 
L 222.782032 366.173094 
L 223.296914 360.550079 
L 224.1225 348.566426 
L 225.418582 330.442689 
L 226.111009 320.069228 
L 226.36845 312.36724 
L 226.537118 299.704951 
L 226.652523 272.767832 
L 226.750173 188.183835 
L 226.8567 94.370295 
L 226.909964 104.018922 
L 227.460355 301.751819 
L 227.726673 368.022375 
L 227.771059 368.247891 
L 227.8332 368.062571 
L 228.090641 366.085655 
L 228.605523 360.426098 
L 229.439986 348.282443 
L 230.718314 330.431988 
L 231.401864 320.236277 
L 231.659305 312.725873 
L 231.827973 300.690277 
L 231.952255 272.424077 
L 232.049905 187.007055 
L 232.156432 94.383085 
L 232.209695 104.254878 
L 232.768964 305.803272 
L 233.017527 367.914577 
L 233.070791 368.247891 
L 233.132932 368.058395 
L 233.390373 366.078346 
L 233.905255 360.415657 
L 234.739718 348.269914 
L 236.018045 330.421547 
L 236.701595 320.219572 
L 236.959036 312.690375 
L 237.127705 300.593702 
L 237.251986 272.07719 
L 237.349636 185.823542 
L 237.456164 94.401356 
L 237.509427 104.493183 
L 238.077573 309.956519 
L 238.317259 367.926583 
L 238.370523 368.248152 
L 238.432664 368.054219 
L 238.690105 366.071038 
L 239.204986 360.405217 
L 240.03945 348.257647 
L 241.317777 330.411107 
L 242.001327 320.202867 
L 242.258768 312.654355 
L 242.427436 300.495561 
L 242.551718 271.722211 
L 242.649368 184.621679 
L 242.755895 94.426674 
L 242.809159 104.734621 
L 243.386182 314.200599 
L 243.616991 367.93859 
L 243.670255 368.248152 
L 243.732395 368.049782 
L 243.989836 366.063729 
L 244.504718 360.394776 
L 245.348059 348.109391 
L 246.617509 330.400405 
L 247.301059 320.185901 
L 247.5585 312.618074 
L 247.727168 300.396115 
L 247.85145 271.363318 
L 247.9491 183.416657 
L 248.055627 94.457734 
L 248.108891 104.978407 
L 248.694791 318.516458 
L 248.907845 367.806517 
L 248.969986 368.247891 
L 249.032127 368.045605 
L 249.298445 365.975507 
L 249.822205 360.155427 
L 250.692177 347.419271 
L 251.943873 330.04621 
L 252.600791 320.168674 
L 252.858232 312.581532 
L 253.0269 300.296147 
L 253.151182 270.999726 
L 253.257709 168.91203 
L 253.346482 94.429284 
L 253.408623 105.225587 
L 254.0034 322.877995 
L 254.207577 367.821656 
L 254.269718 368.24763 
L 254.331859 368.041168 
L 254.598177 365.967938 
L 255.121936 360.144464 
L 255.983032 347.541947 
L 257.22585 330.264678 
L 257.900523 320.151708 
L 258.157964 312.54473 
L 258.326632 300.195135 
L 258.450914 270.628826 
L 258.557441 167.653162 
L 258.646214 94.401617 
L 258.708355 105.476421 
L 259.312009 327.2471 
L 259.507309 367.836272 
L 259.56945 368.247369 
L 259.631591 368.03647 
L 259.897909 365.960107 
L 260.421668 360.133763 
L 261.291641 347.393953 
L 262.525582 330.253976 
L 263.200255 320.13422 
L 263.457695 312.507405 
L 263.626364 300.092556 
L 263.750645 270.250878 
L 263.857173 166.387925 
L 263.945945 94.380997 
L 264.008086 105.728299 
L 264.620618 331.576271 
L 264.807041 367.850889 
L 264.869182 368.246847 
L 264.922445 368.078493 
L 265.171009 366.193453 
L 265.685891 360.579313 
L 266.511477 348.601662 
L 267.807559 330.472184 
L 268.499986 320.116993 
L 268.757427 312.47008 
L 268.926095 299.989978 
L 269.050377 269.87293 
L 269.156905 165.132111 
L 269.245677 94.367946 
L 269.298941 103.366388 
L 269.8227 290.284973 
L 270.133405 368.16019 
L 270.168914 368.246586 
L 270.222177 368.074317 
L 270.470741 366.186145 
L 270.985623 360.568611 
L 271.802332 348.724861 
L 273.098414 330.575806 
L 273.790841 320.283259 
L 274.048282 312.825058 
L 274.21695 300.956511 
L 274.341232 273.370773 
L 274.438882 190.264087 
L 274.545409 94.363509 
L 274.598673 103.601039 
L 275.131309 294.030778 
L 275.424259 368.098591 
L 275.459768 368.247108 
L 275.521909 368.070141 
L 275.770473 366.178836 
L 276.285355 360.558171 
L 277.110941 348.576344 
L 278.389268 330.679428 
L 279.090573 320.266293 
L 279.348014 312.789299 
L 279.516682 300.860719 
L 279.640964 273.031455 
L 279.738614 189.092084 
L 279.845141 94.364814 
L 279.898405 103.836734 
L 280.439918 297.877856 
L 280.715114 368.014806 
L 280.7595 368.24763 
L 280.821641 368.065964 
L 281.079082 366.091397 
L 281.593964 360.434189 
L 282.428427 348.2921 
L 283.706755 330.440079 
L 284.390305 320.249327 
L 284.647745 312.75354 
L 284.816414 300.764666 
L 284.940695 272.689528 
L 285.038345 187.915409 
L 285.144873 94.372644 
L 285.198136 104.07269 
L 285.748527 301.828296 
L 286.014845 368.024463 
L 286.059232 368.247891 
L 286.121373 368.061527 
L 286.378814 366.084089 
L 286.893695 360.423749 
L 287.728159 348.279572 
L 289.006486 330.429639 
L 289.690036 320.232622 
L 289.947477 312.717781 
L 290.116145 300.668352 
L 290.240427 272.345251 
L 290.338077 186.737742 
L 290.444605 94.386739 
L 290.497868 104.308908 
L 291.057136 305.882098 
L 291.3057 367.917448 
L 291.358964 368.248152 
L 291.421105 368.057351 
L 291.678545 366.07678 
L 292.193427 360.413308 
L 293.027891 348.267043 
L 294.315095 330.304613 
L 294.989768 320.215657 
L 295.247209 312.682023 
L 295.415877 300.571516 
L 295.540159 271.996798 
L 295.637809 185.550339 
L 295.744336 94.406576 
L 295.7976 104.547996 
L 296.365745 310.037433 
L 296.605432 367.929454 
L 296.658695 368.248152 
L 296.720836 368.053175 
L 296.978277 366.069472 
L 297.493159 360.402868 
L 298.327623 348.254775 
L 299.60595 330.408757 
L 300.2895 320.198952 
L 300.546941 312.646003 
L 300.715609 300.472853 
L 300.839891 271.640775 
L 300.937541 184.348136 
L 301.044068 94.433199 
L 301.097332 104.789695 
L 301.674355 314.282819 
L 301.905164 367.9412 
L 301.958427 368.248152 
L 302.020568 368.048998 
L 302.286886 365.981249 
L 302.810645 360.163518 
L 303.671741 347.564395 
L 304.914559 330.283732 
L 305.589232 320.181986 
L 305.846673 312.609722 
L 306.015341 300.373668 
L 306.139623 271.281359 
L 306.24615 169.87825 
L 306.334923 94.455124 
L 306.397064 105.034264 
L 306.982964 318.600505 
L 307.196018 367.80991 
L 307.258159 368.247891 
L 307.3203 368.044561 
L 307.586618 365.97368 
L 308.110377 360.152817 
L 308.971473 347.551866 
L 310.214291 330.27303 
L 310.888964 320.16502 
L 311.146405 312.57318 
L 311.315073 300.273439 
L 311.439355 270.91594 
L 311.545882 168.62703 
L 311.634655 94.422498 
L 311.696795 105.282227 
L 312.291573 322.963085 
L 312.49575 367.825049 
L 312.557891 368.24763 
L 312.620032 368.040124 
L 312.88635 365.96611 
L 313.410109 360.142115 
L 314.280082 347.40361 
L 315.531777 330.032898 
L 316.188695 320.147532 
L 316.446136 312.536116 
L 316.614805 300.171905 
L 316.739086 270.543735 
L 316.845614 167.365656 
L 316.934386 94.396396 
L 316.996527 105.533583 
L 317.600182 327.332452 
L 317.795482 367.839666 
L 317.857623 368.247369 
L 317.910886 368.081625 
L 318.150573 366.278283 
L 318.665455 360.700162 
L 319.464409 349.155011 
L 320.787123 330.59486 
L 321.488427 320.130305 
L 321.745868 312.498791 
L 321.914536 300.069065 
L 322.038818 270.164482 
L 322.145345 166.100184 
L 322.234118 94.377342 
L 322.296259 105.785983 
L 322.908791 331.660317 
L 323.095214 367.854282 
L 323.157355 368.246847 
L 323.210618 368.077449 
L 323.459182 366.191887 
L 323.974064 360.576703 
L 324.790773 348.734518 
L 326.095732 330.469574 
L 326.779282 320.29631 
L 327.036723 312.852725 
L 327.205391 301.030378 
L 327.329673 273.631786 
L 327.427323 191.170221 
L 327.53385 94.366119 
L 327.595991 106.038644 
L 328.2174 335.892391 
L 328.403823 367.997057 
L 328.457086 368.246325 
L 328.51035 368.073273 
L 328.758914 366.184318 
L 329.273795 360.566262 
L 329.318182 359.994382 
L 329.335936 360.890702 
L 329.531236 364.865416 
L 329.620009 365.052563 
L 329.664395 364.995401 
L 329.815309 364.390894 
L 330.214786 361.584737 
L 332.176664 346.884193 
L 332.869091 343.67451 
L 333.428359 342.025426 
L 333.889977 341.285192 
L 334.262823 341.059154 
L 334.617914 341.099089 
L 335.097286 341.413088 
L 336.473264 342.440438 
L 337.10355 342.56468 
L 337.964645 342.479329 
L 339.899891 342.25042 
L 342.065945 342.297663 
L 345.732259 342.294531 
L 435.845455 342.296619 
L 435.845455 342.296619 
" clip-path="url(#p884755a3c7)" style="fill: none; stroke: #1f77b4; stroke-width: 1.5; stroke-linecap: square"/>
   </g>
   <g id="line2d_14">
    <path d="M 80.754545 342.365266 
L 81.100759 331.16283 
L 81.438095 319.354158 
L 81.589009 304.901145 
L 81.686659 272.030644 
L 81.775432 129.867942 
L 81.84645 66.96 
L 81.908591 75.727462 
L 82.157155 156.07036 
L 82.849582 369.36 
L 82.867336 369.332335 
L 83.009373 368.575031 
L 83.488745 364.793571 
L 84.207805 357.069993 
L 85.388482 344.667929 
L 86.116418 339.363597 
L 86.764459 336.140382 
L 87.279341 334.566648 
L 87.661064 334.025966 
L 87.945136 333.948439 
L 88.229209 334.113626 
L 88.699705 334.705687 
L 89.312236 335.369203 
L 89.738345 335.517873 
L 90.24435 335.439303 
L 91.797873 335.065927 
L 93.17385 335.165463 
L 94.958182 335.167564 
L 100.559741 335.165682 
L 151.772727 335.166242 
L 152.296486 293.860666 
L 152.385259 243.569309 
L 152.518418 74.005337 
L 152.616068 93.597604 
L 153.272986 326.321325 
L 153.459409 367.361251 
L 153.477164 367.410124 
L 153.530427 367.191674 
L 153.841132 364.301685 
L 154.435909 356.724567 
L 156.122591 334.143572 
L 157.241127 320.806348 
L 157.471936 314.496742 
L 157.631727 303.186259 
L 157.747132 274.814898 
L 157.835905 181.424903 
L 157.933555 86.708135 
L 157.986818 95.493611 
L 158.333032 216.039088 
L 158.847914 367.168091 
L 158.901177 366.920936 
L 159.220759 363.852245 
L 159.842168 355.746179 
L 161.360182 335.285748 
L 162.656264 319.702477 
L 162.878195 312.575582 
L 163.020232 300.222946 
L 163.126759 268.277094 
L 163.224409 143.317625 
L 163.295427 87.113743 
L 163.357568 96.730182 
L 163.765923 237.695818 
L 164.209786 367.153553 
L 164.280805 366.805216 
L 164.65365 363.074796 
L 165.319445 354.088908 
L 166.642159 336.208853 
L 168.053645 319.001517 
L 168.257823 311.847408 
L 168.399859 298.056231 
L 168.506386 259.527142 
L 168.666177 87.111504 
L 168.790459 117.726033 
L 169.580536 367.150274 
L 169.607168 367.062813 
L 169.802468 365.402957 
L 170.343982 358.967513 
L 172.536668 330.535531 
L 173.291236 321.51677 
L 173.548677 315.248559 
L 173.717345 304.642178 
L 173.83275 280.686526 
L 173.921523 205.139898 
L 174.02805 87.128596 
L 174.090191 96.898252 
L 174.5163 243.529117 
L 174.942409 367.152414 
L 175.013427 366.799215 
L 175.386273 363.065893 
L 176.060945 353.946521 
L 177.365905 336.300865 
L 178.786268 318.986234 
L 178.990445 311.811802 
L 179.132482 297.947105 
L 179.239009 259.068948 
L 179.3988 87.124991 
L 179.523082 117.948525 
L 180.304282 367.150423 
L 180.339791 367.059491 
L 180.543968 365.308714 
L 181.094359 358.715903 
L 183.216027 331.083102 
L 184.014982 321.654804 
L 184.272423 315.549872 
L 184.441091 305.500368 
L 184.556495 283.717148 
L 184.645268 217.383236 
L 184.760673 87.11548 
L 184.831691 99.500241 
L 185.408714 299.24985 
L 185.675032 367.152329 
L 185.728295 366.923143 
L 186.039 363.959268 
L 186.651532 356.01584 
L 188.213932 335.00271 
L 189.474505 319.937517 
L 189.696436 313.149675 
L 189.84735 300.645018 
L 189.953877 269.939764 
L 190.051527 148.615621 
L 190.131423 87.139836 
L 190.184686 95.989822 
L 190.539777 219.629573 
L 191.036905 367.150997 
L 191.099045 366.890028 
L 191.427505 363.710321 
L 192.057791 355.431032 
L 193.531418 335.540891 
L 194.863009 319.462604 
L 195.076064 312.473608 
L 195.2181 299.943583 
L 195.324627 267.213234 
L 195.422277 140.222948 
L 195.493295 87.106741 
L 195.555436 97.234007 
L 196.008177 252.367895 
L 196.407655 367.152138 
L 196.469795 366.855911 
L 196.816009 363.457666 
L 197.46405 354.842494 
L 198.866659 335.885515 
L 200.233759 319.35831 
L 200.446814 312.224452 
L 200.58885 299.204639 
L 200.695377 264.275001 
L 200.810782 108.103565 
L 200.864045 87.158195 
L 200.926186 98.526415 
L 201.4677 283.841277 
L 201.769527 367.151459 
L 201.796159 367.09531 
L 201.95595 365.813536 
L 202.479709 359.7786 
L 204.974223 328.003215 
L 205.515736 321.021481 
L 205.755423 314.836743 
L 205.915214 304.435781 
L 206.030618 279.937834 
L 206.119391 202.137511 
L 206.225918 87.102164 
L 206.288059 97.403626 
L 206.758555 258.243359 
L 207.140277 367.151848 
L 207.202418 366.851255 
L 207.557509 363.349695 
L 208.20555 354.702899 
L 209.590405 335.97827 
L 210.975259 319.145776 
L 211.179436 312.190777 
L 211.321473 299.103443 
L 211.428 263.861763 
L 211.596668 87.178528 
L 211.729827 121.758501 
L 212.50215 367.151888 
L 212.519905 367.126011 
L 212.635309 366.298123 
L 213.123559 360.928603 
L 214.055673 347.566362 
L 215.014418 335.329016 
L 216.319377 319.62636 
L 216.532432 312.857352 
L 216.683345 299.750157 
L 216.789873 266.452095 
L 216.887523 138.055298 
L 216.958541 87.100639 
L 217.020682 97.574173 
L 217.500055 261.314632 
L 217.8729 367.151474 
L 217.926164 366.910021 
L 218.245745 363.84053 
L 218.867155 355.730868 
L 220.385168 335.276252 
L 221.68125 319.713557 
L 221.903182 312.618943 
L 222.054095 299.001209 
L 222.160623 263.442659 
L 222.320414 87.179365 
L 222.46245 121.986093 
L 223.234773 367.152181 
L 223.252527 367.124015 
L 223.376809 366.212866 
L 223.873936 360.692566 
L 224.868191 346.412957 
L 225.800305 334.734243 
L 227.025368 320.161403 
L 227.2473 313.664155 
L 227.398214 302.16536 
L 227.504741 275.559127 
L 227.593514 185.002269 
L 227.691164 87.103028 
L 227.744427 95.426479 
L 228.072886 210.075745 
L 228.605523 367.151036 
L 228.649909 366.965189 
L 228.933982 364.316639 
L 229.528759 356.745631 
L 231.206564 334.29548 
L 232.378364 320.415887 
L 232.609173 313.847942 
L 232.760086 302.69001 
L 232.875491 273.260708 
L 232.964264 176.451623 
L 233.053036 87.155425 
L 233.115177 96.650749 
L 233.514655 234.778746 
L 233.967395 367.152355 
L 234.038414 366.806347 
L 234.411259 363.076771 
L 235.077055 354.091435 
L 236.399768 336.210919 
L 237.811255 319.007972 
L 238.015432 311.86394 
L 238.157468 298.108777 
L 238.263995 259.74915 
L 238.423786 87.108932 
L 238.548068 117.61947 
L 239.338145 367.150499 
L 239.364777 367.064281 
L 239.560077 365.405881 
L 240.101591 358.971558 
L 242.294277 330.538641 
L 243.048845 321.521871 
L 243.306286 315.259835 
L 243.474955 304.674765 
L 243.590359 280.804279 
L 243.679132 205.613648 
L 243.785659 87.13626 
L 243.8478 96.818773 
L 244.265032 240.622939 
L 244.700018 367.152419 
L 244.771036 366.801493 
L 245.143882 363.069363 
L 245.818555 353.950952 
L 247.123514 336.304269 
L 248.543877 318.993185 
L 248.748055 311.828487 
L 248.890091 297.99888 
L 248.996618 259.288183 
L 249.156409 87.119111 
L 249.280691 117.843204 
L 250.061891 367.150091 
L 250.0974 367.061028 
L 250.2927 365.399548 
L 250.834214 358.9628 
L 253.0269 330.531951 
L 253.772591 321.6598 
L 254.030032 315.560592 
L 254.1987 305.530403 
L 254.314105 283.820466 
L 254.402877 217.800407 
L 254.518282 87.121325 
L 254.5893 99.415738 
L 255.157445 295.435678 
L 255.432641 367.152376 
L 255.477027 366.983231 
L 255.743345 364.535574 
L 256.329245 357.165703 
L 258.086945 333.751482 
L 259.187727 320.803005 
L 259.427414 314.349448 
L 259.587205 303.040305 
L 259.702609 274.655734 
L 259.791382 181.603175 
L 259.889032 87.132362 
L 259.942295 95.912746 
L 260.297386 219.531 
L 260.794514 367.150746 
L 260.856655 366.892165 
L 261.185114 363.713685 
L 261.8154 355.435432 
L 263.289027 335.54426 
L 264.620618 319.469129 
L 264.833673 312.489085 
L 264.975709 299.988967 
L 265.082236 267.391527 
L 265.179886 140.740743 
L 265.250905 87.110344 
L 265.313045 97.153822 
L 265.756909 249.454696 
L 266.165264 367.152243 
L 266.236282 366.791867 
L 266.618005 362.951677 
L 267.292677 353.801122 
L 268.579882 336.390714 
L 270.009123 318.963902 
L 270.2133 311.758166 
L 270.355336 297.780492 
L 270.461864 258.361681 
L 270.621655 87.149113 
L 270.745936 118.287624 
L 271.527136 367.151243 
L 271.553768 367.096604 
L 271.713559 365.816413 
L 272.237318 359.782638 
L 274.731832 328.006462 
L 275.273345 321.026883 
L 275.513032 314.848577 
L 275.672823 304.468787 
L 275.788227 280.057977 
L 275.877 202.618506 
L 275.983527 87.104042 
L 276.045668 97.322788 
L 276.507286 255.302206 
L 276.897886 367.151994 
L 276.960027 366.85347 
L 277.306241 363.453887 
L 277.954282 354.837595 
L 279.356891 335.881759 
L 280.723991 319.350965 
L 280.937045 312.206836 
L 281.079082 299.151808 
L 281.185609 264.059726 
L 281.301014 107.746978 
L 281.354277 87.168645 
L 281.416418 98.618539 
L 281.957932 283.964748 
L 282.259759 367.151692 
L 282.286391 367.093895 
L 282.446182 365.810391 
L 282.969941 359.774184 
L 285.464455 327.999658 
L 286.005968 321.015541 
L 286.245655 314.823667 
L 286.405445 304.399264 
L 286.52085 279.804805 
L 286.609623 201.606839 
L 286.71615 87.100883 
L 286.778291 97.492649 
L 287.257664 261.216331 
L 287.630509 367.151661 
L 287.69265 366.848824 
L 288.047741 363.345921 
L 288.695782 354.698031 
L 290.080636 335.974533 
L 291.465491 319.138256 
L 291.669668 312.173071 
L 291.811705 299.050059 
L 291.918232 263.642969 
L 292.0869 87.190396 
L 292.220059 121.877506 
L 292.992382 367.152064 
L 293.010136 367.124983 
L 293.134418 366.215597 
L 293.631545 360.69647 
L 294.6258 346.41726 
L 295.557914 334.737564 
L 296.782977 320.16748 
L 297.004909 313.67795 
L 297.155823 302.205082 
L 297.26235 275.70029 
L 297.351123 185.537663 
L 297.448773 87.101535 
L 297.502036 95.350475 
L 297.821618 206.990699 
L 298.363132 367.151252 
L 298.407518 366.967127 
L 298.691591 364.319871 
L 299.286368 356.749948 
L 300.964173 334.298753 
L 302.135973 320.4217 
L 302.366782 313.86124 
L 302.517695 302.727677 
L 302.6331 273.411822 
L 302.721873 177.00443 
L 302.810645 87.166355 
L 302.872786 96.571006 
L 303.272264 234.681454 
L 303.725005 367.152287 
L 303.796023 366.80865 
L 304.168868 363.080294 
L 304.834664 354.095931 
L 306.157377 336.21437 
L 307.568864 319.015024 
L 307.773041 311.880848 
L 307.915077 298.161064 
L 308.021605 259.96767 
L 308.181395 87.105608 
L 308.305677 117.512218 
L 309.095755 367.150769 
L 309.122386 367.06582 
L 309.317686 365.408911 
L 309.8592 358.975749 
L 312.060764 330.449399 
L 312.806455 321.527037 
L 313.063895 315.271182 
L 313.232564 304.70746 
L 313.347968 280.922253 
L 313.436741 206.08885 
L 313.543268 87.144876 
L 313.605409 96.738252 
L 314.013764 237.709558 
L 314.457627 367.152409 
L 314.528645 366.80382 
L 314.901491 363.07291 
L 315.576164 353.95548 
L 316.881123 336.307747 
L 318.301486 319.000258 
L 318.505664 311.845448 
L 318.6477 298.051467 
L 318.754227 259.509292 
L 318.914018 87.113765 
L 319.0383 117.736494 
L 319.828377 367.150167 
L 319.855009 367.06258 
L 320.050309 365.402564 
L 320.591823 358.966971 
L 322.784509 330.535137 
L 323.539077 321.516205 
L 323.796518 315.247384 
L 323.965186 304.638874 
L 324.080591 280.674698 
L 324.169364 205.092528 
L 324.275891 87.128021 
L 324.338032 96.906345 
L 324.764141 243.538808 
L 325.19025 367.152407 
L 325.261268 366.798977 
L 325.634114 363.065533 
L 326.308786 353.946061 
L 327.613745 336.300512 
L 329.034109 318.985525 
L 329.238286 311.810106 
L 329.424709 295.566768 
L 329.522359 258.670838 
L 329.68215 88.749309 
L 329.806432 119.57222 
L 330.596509 368.993816 
L 330.614264 368.960513 
L 330.765177 368.098558 
L 331.262305 363.943546 
L 332.096768 354.705366 
L 333.091023 344.533596 
L 333.818959 339.300234 
L 334.467 336.139374 
L 334.973005 334.627475 
L 335.354727 334.098081 
L 335.647677 334.020161 
L 335.940627 334.186805 
L 336.455509 334.80624 
L 337.041409 335.372094 
L 337.485273 335.497845 
L 338.035664 335.397477 
L 339.411641 335.078409 
L 340.610073 335.148074 
L 342.367773 335.174358 
L 347.871682 335.165682 
L 435.845455 335.166242 
L 435.845455 335.166242 
" clip-path="url(#p884755a3c7)" style="fill: none; stroke: #ff0000; stroke-width: 1.5; stroke-linecap: square"/>
   </g>
   <g id="patch_3">
    <path d="M 63 384.48 
L 63 51.84 
" style="fill: none; stroke: #000000; stroke-width: 0.8; stroke-linejoin: miter; stroke-linecap: square"/>
   </g>
   <g id="patch_4">
    <path d="M 453.6 384.48 
L 453.6 51.84 
" style="fill: none; stroke: #000000; stroke-width: 0.8; stroke-linejoin: miter; stroke-linecap: square"/>
   </g>
   <g id="patch_5">
    <path d="M 63 384.48 
L 453.6 384.48 
" style="fill: none; stroke: #000000; stroke-width: 0.8; stroke-linejoin: miter; stroke-linecap: square"/>
   </g>
   <g id="patch_6">
    <path d="M 63 51.84 
L 453.6 51.84 
" style="fill: none; stroke: #000000; stroke-width: 0.8; stroke-linejoin: miter; stroke-linecap: square"/>
   </g>
   <g id="legend_1">
    <g id="patch_7">
     <path d="M 383.460938 89.19625 
L 446.6 89.19625 
Q 448.6 89.19625 448.6 87.19625 
L 448.6 58.84 
Q 448.6 56.84 446.6 56.84 
L 383.460938 56.84 
Q 381.460938 56.84 381.460938 58.84 
L 381.460938 87.19625 
Q 381.460938 89.19625 383.460938 89.19625 
z
" style="fill: #ffffff; opacity: 0.8; stroke: #cccccc; stroke-linejoin: miter"/>
    </g>
    <g id="line2d_15">
     <path d="M 385.460938 64.938437 
L 395.460938 64.938437 
L 405.460938 64.938437 
" style="fill: none; stroke: #1f77b4; stroke-width: 1.5; stroke-linecap: square"/>
    </g>
    <g id="text_15">
     <!-- target -->
     <g transform="translate(413.460938 68.438437)scale(0.1 -0.1)">
      <defs>
       <path id="DejaVuSans-72" d="M 2631 2963 
Q 2534 3019 2420 3045 
Q 2306 3072 2169 3072 
Q 1681 3072 1420 2755 
Q 1159 2438 1159 1844 
L 1159 0 
L 581 0 
L 581 3500 
L 1159 3500 
L 1159 2956 
Q 1341 3275 1631 3429 
Q 1922 3584 2338 3584 
Q 2397 3584 2469 3576 
Q 2541 3569 2628 3553 
L 2631 2963 
z
" transform="scale(0.015625)"/>
      </defs>
      <use xlink:href="#DejaVuSans-74"/>
      <use xlink:href="#DejaVuSans-61" x="39.208984"/>
      <use xlink:href="#DejaVuSans-72" x="100.488281"/>
      <use xlink:href="#DejaVuSans-67" x="139.851562"/>
      <use xlink:href="#DejaVuSans-65" x="203.328125"/>
      <use xlink:href="#DejaVuSans-74" x="264.851562"/>
     </g>
    </g>
    <g id="line2d_16">
     <path d="M 385.460938 79.616562 
L 395.460938 79.616562 
L 405.460938 79.616562 
" style="fill: none; stroke: #ff0000; stroke-width: 1.5; stroke-linecap: square"/>
    </g>
    <g id="text_16">
     <!-- model -->
     <g transform="translate(413.460938 83.116562)scale(0.1 -0.1)">
      <defs>
       <path id="DejaVuSans-64" d="M 2906 2969 
L 2906 4863 
L 3481 4863 
L 3481 0 
L 2906 0 
L 2906 525 
Q 2725 213 2448 61 
Q 2172 -91 1784 -91 
Q 1150 -91 751 415 
Q 353 922 353 1747 
Q 353 2572 751 3078 
Q 1150 3584 1784 3584 
Q 2172 3584 2448 3432 
Q 2725 3281 2906 2969 
z
M 947 1747 
Q 947 1113 1208 752 
Q 1469 391 1925 391 
Q 2381 391 2643 752 
Q 2906 1113 2906 1747 
Q 2906 2381 2643 2742 
Q 2381 3103 1925 3103 
Q 1469 3103 1208 2742 
Q 947 2381 947 1747 
z
" transform="scale(0.015625)"/>
      </defs>
      <use xlink:href="#DejaVuSans-6d"/>
      <use xlink:href="#DejaVuSans-6f" x="97.412109"/>
      <use xlink:href="#DejaVuSans-64" x="158.59375"/>
      <use xlink:href="#DejaVuSans-65" x="222.070312"/>
      <use xlink:href="#DejaVuSans-6c" x="283.59375"/>
     </g>
    </g>
   </g>
  </g>
 </g>
 <defs>
  <clipPath id="p884755a3c7">
   <rect x="63" y="51.84" width="390.6" height="332.64"/>
  </clipPath>
 </defs>
</svg>
