<?xml version="1.0" encoding="utf-8" standalone="no"?>
<!DOCTYPE svg PUBLIC "-//W3C//DTD SVG 1.1//EN"
  "http://www.w3.org/Graphics/SVG/1.1/DTD/svg11.dtd">
<svg xmlns:xlink="http://www.w3.org/1999/xlink" width="504pt" height="432pt" viewBox="0 0 504 432" xmlns="http://www.w3.org/2000/svg" version="1.1">
 <metadata>
  <rdf:RDF xmlns:dc="http://purl.org/dc/elements/1.1/" xmlns:cc="http://creativecommons.org/ns#" xmlns:rdf="http://www.w3.org/1999/02/22-rdf-syntax-ns#">
   <cc:Work>
    <dc:type rdf:resource="http://purl.org/dc/dcmitype/StillImage"/>
    <dc:date>2022-02-01T14:16:57.684680</dc:date>
    <dc:format>image/svg+xml</dc:format>
    <dc:creator>
     <cc:Agent>
      <dc:title>Matplotlib v3.5.1, https://matplotlib.org/</dc:title>
     </cc:Agent>
    </dc:creator>
   </cc:Work>
  </rdf:RDF>
 </metadata>
 <defs>
  <style type="text/css">*{stroke-linejoin: round; stroke-linecap: butt}</style>
 </defs>
 <g id="figure_1">
  <g id="patch_1">
   <path d="M 0 432 
L 504 432 
L 504 0 
L 0 0 
z
" style="fill: #ffffff"/>
  </g>
  <g id="axes_1">
   <g id="patch_2">
    <path d="M 63 384.48 
L 453.6 384.48 
L 453.6 51.84 
L 63 51.84 
z
" style="fill: #ffffff"/>
   </g>
   <g id="matplotlib.axis_1">
    <g id="xtick_1">
     <g id="line2d_1">
      <defs>
       <path id="m99ead2c6d2" d="M 0 0 
L 0 3.5 
" style="stroke: #000000; stroke-width: 0.8"/>
      </defs>
      <g>
       <use xlink:href="#m99ead2c6d2" x="80.754545" y="384.48" style="stroke: #000000; stroke-width: 0.8"/>
      </g>
     </g>
     <g id="text_1">
      <!-- 0 -->
      <g transform="translate(77.573295 399.078438)scale(0.1 -0.1)">
       <defs>
        <path id="DejaVuSans-30" d="M 2034 4250 
Q 1547 4250 1301 3770 
Q 1056 3291 1056 2328 
Q 1056 1369 1301 889 
Q 1547 409 2034 409 
Q 2525 409 2770 889 
Q 3016 1369 3016 2328 
Q 3016 3291 2770 3770 
Q 2525 4250 2034 4250 
z
M 2034 4750 
Q 2819 4750 3233 4129 
Q 3647 3509 3647 2328 
Q 3647 1150 3233 529 
Q 2819 -91 2034 -91 
Q 1250 -91 836 529 
Q 422 1150 422 2328 
Q 422 3509 836 4129 
Q 1250 4750 2034 4750 
z
" transform="scale(0.015625)"/>
       </defs>
       <use xlink:href="#DejaVuSans-30"/>
      </g>
     </g>
    </g>
    <g id="xtick_2">
     <g id="line2d_2">
      <g>
       <use xlink:href="#m99ead2c6d2" x="151.772727" y="384.48" style="stroke: #000000; stroke-width: 0.8"/>
      </g>
     </g>
     <g id="text_2">
      <!-- 200 -->
      <g transform="translate(142.228977 399.078438)scale(0.1 -0.1)">
       <defs>
        <path id="DejaVuSans-32" d="M 1228 531 
L 3431 531 
L 3431 0 
L 469 0 
L 469 531 
Q 828 903 1448 1529 
Q 2069 2156 2228 2338 
Q 2531 2678 2651 2914 
Q 2772 3150 2772 3378 
Q 2772 3750 2511 3984 
Q 2250 4219 1831 4219 
Q 1534 4219 1204 4116 
Q 875 4013 500 3803 
L 500 4441 
Q 881 4594 1212 4672 
Q 1544 4750 1819 4750 
Q 2544 4750 2975 4387 
Q 3406 4025 3406 3419 
Q 3406 3131 3298 2873 
Q 3191 2616 2906 2266 
Q 2828 2175 2409 1742 
Q 1991 1309 1228 531 
z
" transform="scale(0.015625)"/>
       </defs>
       <use xlink:href="#DejaVuSans-32"/>
       <use xlink:href="#DejaVuSans-30" x="63.623047"/>
       <use xlink:href="#DejaVuSans-30" x="127.246094"/>
      </g>
     </g>
    </g>
    <g id="xtick_3">
     <g id="line2d_3">
      <g>
       <use xlink:href="#m99ead2c6d2" x="222.790909" y="384.48" style="stroke: #000000; stroke-width: 0.8"/>
      </g>
     </g>
     <g id="text_3">
      <!-- 400 -->
      <g transform="translate(213.247159 399.078438)scale(0.1 -0.1)">
       <defs>
        <path id="DejaVuSans-34" d="M 2419 4116 
L 825 1625 
L 2419 1625 
L 2419 4116 
z
M 2253 4666 
L 3047 4666 
L 3047 1625 
L 3713 1625 
L 3713 1100 
L 3047 1100 
L 3047 0 
L 2419 0 
L 2419 1100 
L 313 1100 
L 313 1709 
L 2253 4666 
z
" transform="scale(0.015625)"/>
       </defs>
       <use xlink:href="#DejaVuSans-34"/>
       <use xlink:href="#DejaVuSans-30" x="63.623047"/>
       <use xlink:href="#DejaVuSans-30" x="127.246094"/>
      </g>
     </g>
    </g>
    <g id="xtick_4">
     <g id="line2d_4">
      <g>
       <use xlink:href="#m99ead2c6d2" x="293.809091" y="384.48" style="stroke: #000000; stroke-width: 0.8"/>
      </g>
     </g>
     <g id="text_4">
      <!-- 600 -->
      <g transform="translate(284.265341 399.078438)scale(0.1 -0.1)">
       <defs>
        <path id="DejaVuSans-36" d="M 2113 2584 
Q 1688 2584 1439 2293 
Q 1191 2003 1191 1497 
Q 1191 994 1439 701 
Q 1688 409 2113 409 
Q 2538 409 2786 701 
Q 3034 994 3034 1497 
Q 3034 2003 2786 2293 
Q 2538 2584 2113 2584 
z
M 3366 4563 
L 3366 3988 
Q 3128 4100 2886 4159 
Q 2644 4219 2406 4219 
Q 1781 4219 1451 3797 
Q 1122 3375 1075 2522 
Q 1259 2794 1537 2939 
Q 1816 3084 2150 3084 
Q 2853 3084 3261 2657 
Q 3669 2231 3669 1497 
Q 3669 778 3244 343 
Q 2819 -91 2113 -91 
Q 1303 -91 875 529 
Q 447 1150 447 2328 
Q 447 3434 972 4092 
Q 1497 4750 2381 4750 
Q 2619 4750 2861 4703 
Q 3103 4656 3366 4563 
z
" transform="scale(0.015625)"/>
       </defs>
       <use xlink:href="#DejaVuSans-36"/>
       <use xlink:href="#DejaVuSans-30" x="63.623047"/>
       <use xlink:href="#DejaVuSans-30" x="127.246094"/>
      </g>
     </g>
    </g>
    <g id="xtick_5">
     <g id="line2d_5">
      <g>
       <use xlink:href="#m99ead2c6d2" x="364.827273" y="384.48" style="stroke: #000000; stroke-width: 0.8"/>
      </g>
     </g>
     <g id="text_5">
      <!-- 800 -->
      <g transform="translate(355.283523 399.078438)scale(0.1 -0.1)">
       <defs>
        <path id="DejaVuSans-38" d="M 2034 2216 
Q 1584 2216 1326 1975 
Q 1069 1734 1069 1313 
Q 1069 891 1326 650 
Q 1584 409 2034 409 
Q 2484 409 2743 651 
Q 3003 894 3003 1313 
Q 3003 1734 2745 1975 
Q 2488 2216 2034 2216 
z
M 1403 2484 
Q 997 2584 770 2862 
Q 544 3141 544 3541 
Q 544 4100 942 4425 
Q 1341 4750 2034 4750 
Q 2731 4750 3128 4425 
Q 3525 4100 3525 3541 
Q 3525 3141 3298 2862 
Q 3072 2584 2669 2484 
Q 3125 2378 3379 2068 
Q 3634 1759 3634 1313 
Q 3634 634 3220 271 
Q 2806 -91 2034 -91 
Q 1263 -91 848 271 
Q 434 634 434 1313 
Q 434 1759 690 2068 
Q 947 2378 1403 2484 
z
M 1172 3481 
Q 1172 3119 1398 2916 
Q 1625 2713 2034 2713 
Q 2441 2713 2670 2916 
Q 2900 3119 2900 3481 
Q 2900 3844 2670 4047 
Q 2441 4250 2034 4250 
Q 1625 4250 1398 4047 
Q 1172 3844 1172 3481 
z
" transform="scale(0.015625)"/>
       </defs>
       <use xlink:href="#DejaVuSans-38"/>
       <use xlink:href="#DejaVuSans-30" x="63.623047"/>
       <use xlink:href="#DejaVuSans-30" x="127.246094"/>
      </g>
     </g>
    </g>
    <g id="text_6">
     <!-- time [ms] -->
     <g transform="translate(234.038281 412.756563)scale(0.1 -0.1)">
      <defs>
       <path id="DejaVuSans-74" d="M 1172 4494 
L 1172 3500 
L 2356 3500 
L 2356 3053 
L 1172 3053 
L 1172 1153 
Q 1172 725 1289 603 
Q 1406 481 1766 481 
L 2356 481 
L 2356 0 
L 1766 0 
Q 1100 0 847 248 
Q 594 497 594 1153 
L 594 3053 
L 172 3053 
L 172 3500 
L 594 3500 
L 594 4494 
L 1172 4494 
z
" transform="scale(0.015625)"/>
       <path id="DejaVuSans-69" d="M 603 3500 
L 1178 3500 
L 1178 0 
L 603 0 
L 603 3500 
z
M 603 4863 
L 1178 4863 
L 1178 4134 
L 603 4134 
L 603 4863 
z
" transform="scale(0.015625)"/>
       <path id="DejaVuSans-6d" d="M 3328 2828 
Q 3544 3216 3844 3400 
Q 4144 3584 4550 3584 
Q 5097 3584 5394 3201 
Q 5691 2819 5691 2113 
L 5691 0 
L 5113 0 
L 5113 2094 
Q 5113 2597 4934 2840 
Q 4756 3084 4391 3084 
Q 3944 3084 3684 2787 
Q 3425 2491 3425 1978 
L 3425 0 
L 2847 0 
L 2847 2094 
Q 2847 2600 2669 2842 
Q 2491 3084 2119 3084 
Q 1678 3084 1418 2786 
Q 1159 2488 1159 1978 
L 1159 0 
L 581 0 
L 581 3500 
L 1159 3500 
L 1159 2956 
Q 1356 3278 1631 3431 
Q 1906 3584 2284 3584 
Q 2666 3584 2933 3390 
Q 3200 3197 3328 2828 
z
" transform="scale(0.015625)"/>
       <path id="DejaVuSans-65" d="M 3597 1894 
L 3597 1613 
L 953 1613 
Q 991 1019 1311 708 
Q 1631 397 2203 397 
Q 2534 397 2845 478 
Q 3156 559 3463 722 
L 3463 178 
Q 3153 47 2828 -22 
Q 2503 -91 2169 -91 
Q 1331 -91 842 396 
Q 353 884 353 1716 
Q 353 2575 817 3079 
Q 1281 3584 2069 3584 
Q 2775 3584 3186 3129 
Q 3597 2675 3597 1894 
z
M 3022 2063 
Q 3016 2534 2758 2815 
Q 2500 3097 2075 3097 
Q 1594 3097 1305 2825 
Q 1016 2553 972 2059 
L 3022 2063 
z
" transform="scale(0.015625)"/>
       <path id="DejaVuSans-20" transform="scale(0.015625)"/>
       <path id="DejaVuSans-5b" d="M 550 4863 
L 1875 4863 
L 1875 4416 
L 1125 4416 
L 1125 -397 
L 1875 -397 
L 1875 -844 
L 550 -844 
L 550 4863 
z
" transform="scale(0.015625)"/>
       <path id="DejaVuSans-73" d="M 2834 3397 
L 2834 2853 
Q 2591 2978 2328 3040 
Q 2066 3103 1784 3103 
Q 1356 3103 1142 2972 
Q 928 2841 928 2578 
Q 928 2378 1081 2264 
Q 1234 2150 1697 2047 
L 1894 2003 
Q 2506 1872 2764 1633 
Q 3022 1394 3022 966 
Q 3022 478 2636 193 
Q 2250 -91 1575 -91 
Q 1294 -91 989 -36 
Q 684 19 347 128 
L 347 722 
Q 666 556 975 473 
Q 1284 391 1588 391 
Q 1994 391 2212 530 
Q 2431 669 2431 922 
Q 2431 1156 2273 1281 
Q 2116 1406 1581 1522 
L 1381 1569 
Q 847 1681 609 1914 
Q 372 2147 372 2553 
Q 372 3047 722 3315 
Q 1072 3584 1716 3584 
Q 2034 3584 2315 3537 
Q 2597 3491 2834 3397 
z
" transform="scale(0.015625)"/>
       <path id="DejaVuSans-5d" d="M 1947 4863 
L 1947 -844 
L 622 -844 
L 622 -397 
L 1369 -397 
L 1369 4416 
L 622 4416 
L 622 4863 
L 1947 4863 
z
" transform="scale(0.015625)"/>
      </defs>
      <use xlink:href="#DejaVuSans-74"/>
      <use xlink:href="#DejaVuSans-69" x="39.208984"/>
      <use xlink:href="#DejaVuSans-6d" x="66.992188"/>
      <use xlink:href="#DejaVuSans-65" x="164.404297"/>
      <use xlink:href="#DejaVuSans-20" x="225.927734"/>
      <use xlink:href="#DejaVuSans-5b" x="257.714844"/>
      <use xlink:href="#DejaVuSans-6d" x="296.728516"/>
      <use xlink:href="#DejaVuSans-73" x="394.140625"/>
      <use xlink:href="#DejaVuSans-5d" x="446.240234"/>
     </g>
    </g>
   </g>
   <g id="matplotlib.axis_2">
    <g id="ytick_1">
     <g id="line2d_6">
      <defs>
       <path id="m211d9fd4e0" d="M 0 0 
L -3.5 0 
" style="stroke: #000000; stroke-width: 0.8"/>
      </defs>
      <g>
       <use xlink:href="#m211d9fd4e0" x="63" y="380.968267" style="stroke: #000000; stroke-width: 0.8"/>
      </g>
     </g>
     <g id="text_7">
      <!-- −80 -->
      <g transform="translate(34.895313 384.767486)scale(0.1 -0.1)">
       <defs>
        <path id="DejaVuSans-2212" d="M 678 2272 
L 4684 2272 
L 4684 1741 
L 678 1741 
L 678 2272 
z
" transform="scale(0.015625)"/>
       </defs>
       <use xlink:href="#DejaVuSans-2212"/>
       <use xlink:href="#DejaVuSans-38" x="83.789062"/>
       <use xlink:href="#DejaVuSans-30" x="147.412109"/>
      </g>
     </g>
    </g>
    <g id="ytick_2">
     <g id="line2d_7">
      <g>
       <use xlink:href="#m211d9fd4e0" x="63" y="328.491782" style="stroke: #000000; stroke-width: 0.8"/>
      </g>
     </g>
     <g id="text_8">
      <!-- −60 -->
      <g transform="translate(34.895313 332.291001)scale(0.1 -0.1)">
       <use xlink:href="#DejaVuSans-2212"/>
       <use xlink:href="#DejaVuSans-36" x="83.789062"/>
       <use xlink:href="#DejaVuSans-30" x="147.412109"/>
      </g>
     </g>
    </g>
    <g id="ytick_3">
     <g id="line2d_8">
      <g>
       <use xlink:href="#m211d9fd4e0" x="63" y="276.015297" style="stroke: #000000; stroke-width: 0.8"/>
      </g>
     </g>
     <g id="text_9">
      <!-- −40 -->
      <g transform="translate(34.895313 279.814515)scale(0.1 -0.1)">
       <use xlink:href="#DejaVuSans-2212"/>
       <use xlink:href="#DejaVuSans-34" x="83.789062"/>
       <use xlink:href="#DejaVuSans-30" x="147.412109"/>
      </g>
     </g>
    </g>
    <g id="ytick_4">
     <g id="line2d_9">
      <g>
       <use xlink:href="#m211d9fd4e0" x="63" y="223.538812" style="stroke: #000000; stroke-width: 0.8"/>
      </g>
     </g>
     <g id="text_10">
      <!-- −20 -->
      <g transform="translate(34.895313 227.33803)scale(0.1 -0.1)">
       <use xlink:href="#DejaVuSans-2212"/>
       <use xlink:href="#DejaVuSans-32" x="83.789062"/>
       <use xlink:href="#DejaVuSans-30" x="147.412109"/>
      </g>
     </g>
    </g>
    <g id="ytick_5">
     <g id="line2d_10">
      <g>
       <use xlink:href="#m211d9fd4e0" x="63" y="171.062326" style="stroke: #000000; stroke-width: 0.8"/>
      </g>
     </g>
     <g id="text_11">
      <!-- 0 -->
      <g transform="translate(49.6375 174.861545)scale(0.1 -0.1)">
       <use xlink:href="#DejaVuSans-30"/>
      </g>
     </g>
    </g>
    <g id="ytick_6">
     <g id="line2d_11">
      <g>
       <use xlink:href="#m211d9fd4e0" x="63" y="118.585841" style="stroke: #000000; stroke-width: 0.8"/>
      </g>
     </g>
     <g id="text_12">
      <!-- 20 -->
      <g transform="translate(43.275 122.38506)scale(0.1 -0.1)">
       <use xlink:href="#DejaVuSans-32"/>
       <use xlink:href="#DejaVuSans-30" x="63.623047"/>
      </g>
     </g>
    </g>
    <g id="ytick_7">
     <g id="line2d_12">
      <g>
       <use xlink:href="#m211d9fd4e0" x="63" y="66.109356" style="stroke: #000000; stroke-width: 0.8"/>
      </g>
     </g>
     <g id="text_13">
      <!-- 40 -->
      <g transform="translate(43.275 69.908575)scale(0.1 -0.1)">
       <use xlink:href="#DejaVuSans-34"/>
       <use xlink:href="#DejaVuSans-30" x="63.623047"/>
      </g>
     </g>
    </g>
    <g id="text_14">
     <!-- voltage [mV] -->
     <g transform="translate(28.815625 250.624062)rotate(-90)scale(0.1 -0.1)">
      <defs>
       <path id="DejaVuSans-76" d="M 191 3500 
L 800 3500 
L 1894 563 
L 2988 3500 
L 3597 3500 
L 2284 0 
L 1503 0 
L 191 3500 
z
" transform="scale(0.015625)"/>
       <path id="DejaVuSans-6f" d="M 1959 3097 
Q 1497 3097 1228 2736 
Q 959 2375 959 1747 
Q 959 1119 1226 758 
Q 1494 397 1959 397 
Q 2419 397 2687 759 
Q 2956 1122 2956 1747 
Q 2956 2369 2687 2733 
Q 2419 3097 1959 3097 
z
M 1959 3584 
Q 2709 3584 3137 3096 
Q 3566 2609 3566 1747 
Q 3566 888 3137 398 
Q 2709 -91 1959 -91 
Q 1206 -91 779 398 
Q 353 888 353 1747 
Q 353 2609 779 3096 
Q 1206 3584 1959 3584 
z
" transform="scale(0.015625)"/>
       <path id="DejaVuSans-6c" d="M 603 4863 
L 1178 4863 
L 1178 0 
L 603 0 
L 603 4863 
z
" transform="scale(0.015625)"/>
       <path id="DejaVuSans-61" d="M 2194 1759 
Q 1497 1759 1228 1600 
Q 959 1441 959 1056 
Q 959 750 1161 570 
Q 1363 391 1709 391 
Q 2188 391 2477 730 
Q 2766 1069 2766 1631 
L 2766 1759 
L 2194 1759 
z
M 3341 1997 
L 3341 0 
L 2766 0 
L 2766 531 
Q 2569 213 2275 61 
Q 1981 -91 1556 -91 
Q 1019 -91 701 211 
Q 384 513 384 1019 
Q 384 1609 779 1909 
Q 1175 2209 1959 2209 
L 2766 2209 
L 2766 2266 
Q 2766 2663 2505 2880 
Q 2244 3097 1772 3097 
Q 1472 3097 1187 3025 
Q 903 2953 641 2809 
L 641 3341 
Q 956 3463 1253 3523 
Q 1550 3584 1831 3584 
Q 2591 3584 2966 3190 
Q 3341 2797 3341 1997 
z
" transform="scale(0.015625)"/>
       <path id="DejaVuSans-67" d="M 2906 1791 
Q 2906 2416 2648 2759 
Q 2391 3103 1925 3103 
Q 1463 3103 1205 2759 
Q 947 2416 947 1791 
Q 947 1169 1205 825 
Q 1463 481 1925 481 
Q 2391 481 2648 825 
Q 2906 1169 2906 1791 
z
M 3481 434 
Q 3481 -459 3084 -895 
Q 2688 -1331 1869 -1331 
Q 1566 -1331 1297 -1286 
Q 1028 -1241 775 -1147 
L 775 -588 
Q 1028 -725 1275 -790 
Q 1522 -856 1778 -856 
Q 2344 -856 2625 -561 
Q 2906 -266 2906 331 
L 2906 616 
Q 2728 306 2450 153 
Q 2172 0 1784 0 
Q 1141 0 747 490 
Q 353 981 353 1791 
Q 353 2603 747 3093 
Q 1141 3584 1784 3584 
Q 2172 3584 2450 3431 
Q 2728 3278 2906 2969 
L 2906 3500 
L 3481 3500 
L 3481 434 
z
" transform="scale(0.015625)"/>
       <path id="DejaVuSans-56" d="M 1831 0 
L 50 4666 
L 709 4666 
L 2188 738 
L 3669 4666 
L 4325 4666 
L 2547 0 
L 1831 0 
z
" transform="scale(0.015625)"/>
      </defs>
      <use xlink:href="#DejaVuSans-76"/>
      <use xlink:href="#DejaVuSans-6f" x="59.179688"/>
      <use xlink:href="#DejaVuSans-6c" x="120.361328"/>
      <use xlink:href="#DejaVuSans-74" x="148.144531"/>
      <use xlink:href="#DejaVuSans-61" x="187.353516"/>
      <use xlink:href="#DejaVuSans-67" x="248.632812"/>
      <use xlink:href="#DejaVuSans-65" x="312.109375"/>
      <use xlink:href="#DejaVuSans-20" x="373.632812"/>
      <use xlink:href="#DejaVuSans-5b" x="405.419922"/>
      <use xlink:href="#DejaVuSans-6d" x="444.433594"/>
      <use xlink:href="#DejaVuSans-56" x="541.845703"/>
      <use xlink:href="#DejaVuSans-5d" x="610.253906"/>
     </g>
    </g>
   </g>
   <g id="line2d_13">
    <path d="M 80.754545 341.610903 
L 81.961855 341.474464 
L 83.772818 341.531664 
L 85.974382 341.550555 
L 151.772727 341.541896 
L 152.314241 297.037114 
L 152.420768 248.422111 
L 152.562805 66.96 
L 152.678209 92.16708 
L 153.565936 368.087389 
L 153.610323 367.986896 
L 153.8145 366.608602 
L 154.293873 361.856856 
L 154.959668 352.739329 
L 157.42755 313.864224 
L 157.613973 302.741571 
L 157.738255 280.785147 
L 157.835905 218.254692 
L 157.969064 91.310926 
L 158.031205 104.45786 
L 158.883423 367.663116 
L 158.945564 367.479711 
L 159.203005 365.501348 
L 159.717886 359.830739 
L 160.534595 347.908606 
L 161.8218 329.785852 
L 162.514227 319.423583 
L 162.771668 311.906064 
L 162.940336 299.919648 
L 163.064618 271.964899 
L 163.162268 187.600632 
L 163.268795 92.230839 
L 163.322059 101.740102 
L 163.863573 296.758989 
L 164.147645 367.486533 
L 164.183155 367.631368 
L 164.245295 367.450062 
L 164.493859 365.547265 
L 165.008741 359.896334 
L 165.834327 347.851144 
L 167.112655 329.860369 
L 167.813959 319.388161 
L 168.0714 311.860934 
L 168.240068 299.83516 
L 168.36435 271.718784 
L 168.462 186.855335 
L 168.568527 92.307717 
L 168.621791 101.962078 
L 169.172182 300.709156 
L 169.4385 367.400734 
L 169.482886 367.629269 
L 169.545027 367.444027 
L 169.802468 365.45753 
L 170.31735 359.769079 
L 171.151814 347.562261 
L 172.430141 329.617665 
L 173.113691 319.369794 
L 173.371132 311.824463 
L 173.5398 299.739391 
L 173.664082 271.380836 
L 173.761732 185.704499 
L 173.868259 92.324509 
L 173.921523 102.19796 
L 174.480791 304.778708 
L 174.729355 367.291321 
L 174.782618 367.629269 
L 174.844759 367.439829 
L 175.1022 365.450183 
L 175.617082 359.758321 
L 176.451545 347.549404 
L 177.729873 329.606907 
L 178.413423 319.353002 
L 178.670864 311.788517 
L 178.839532 299.642309 
L 178.963814 271.033966 
L 179.061464 184.519974 
L 179.167991 92.341826 
L 179.221255 102.436465 
L 179.7894 308.951375 
L 180.029086 367.303653 
L 180.08235 367.629532 
L 180.144491 367.435369 
L 180.401932 365.442836 
L 180.916814 359.747826 
L 181.751277 347.537073 
L 183.029605 329.596412 
L 183.713155 319.335947 
L 183.970595 311.752308 
L 184.139264 299.544178 
L 184.263545 270.678963 
L 184.361195 183.314615 
L 184.467723 92.365703 
L 184.520986 102.678644 
L 185.098009 313.215877 
L 185.328818 367.315722 
L 185.382082 367.629532 
L 185.444223 367.43117 
L 185.701664 365.435227 
L 186.216545 359.737331 
L 187.051009 347.524478 
L 188.329336 329.585916 
L 189.012886 319.319155 
L 189.270327 311.715837 
L 189.438995 299.444473 
L 189.563277 270.318712 
L 189.660927 182.104455 
L 189.767455 92.395352 
L 189.820718 102.923185 
L 190.406618 317.552534 
L 190.619673 367.181907 
L 190.681814 367.629269 
L 190.743955 367.42671 
L 191.010273 365.346542 
L 191.525155 359.611912 
L 192.368495 347.239006 
L 193.637945 329.459973 
L 194.312618 319.301837 
L 194.570059 311.679365 
L 194.738727 299.344243 
L 194.863009 269.95505 
L 194.969536 167.535513 
L 195.058309 92.381971 
L 195.12045 103.170349 
L 195.715227 321.93537 
L 195.919405 367.197388 
L 195.981545 367.629269 
L 196.043686 367.422249 
L 196.310005 365.338933 
L 196.833764 359.485968 
L 197.703736 346.681443 
L 198.955432 329.218843 
L 199.61235 319.284782 
L 199.869791 311.64237 
L 200.038459 299.242963 
L 200.162741 269.584041 
L 200.269268 166.27264 
L 200.358041 92.352584 
L 200.420182 103.421711 
L 201.023836 326.327389 
L 201.219136 367.212081 
L 201.281277 367.628744 
L 201.343418 367.417789 
L 201.609736 365.331324 
L 202.133495 359.474948 
L 202.994591 346.804763 
L 204.255164 329.208086 
L 204.912082 319.267203 
L 205.169523 311.604849 
L 205.338191 299.140109 
L 205.462473 269.205423 
L 205.569 165.001292 
L 205.657773 92.330281 
L 205.719914 103.67491 
L 206.332445 330.680576 
L 206.518868 367.226774 
L 206.581009 367.628482 
L 206.634273 367.45977 
L 206.873959 365.645396 
L 207.388841 360.036184 
L 208.187795 348.429435 
L 209.510509 329.772733 
L 210.202936 319.434078 
L 210.460377 311.959852 
L 210.629045 300.103053 
L 210.753327 272.671495 
L 210.850977 190.160277 
L 210.957505 92.315063 
L 211.019645 103.929159 
L 211.641055 334.940879 
L 211.827477 367.372397 
L 211.880741 367.627957 
L 211.934005 367.455572 
L 212.182568 365.558285 
L 212.69745 359.912077 
L 213.514159 348.006737 
L 214.810241 329.761975 
L 215.502668 319.417023 
L 215.760109 311.923906 
L 215.928777 300.006759 
L 216.053059 272.332235 
L 216.150709 188.981655 
L 216.257236 92.308766 
L 216.319377 104.182883 
L 216.949664 339.044803 
L 217.127209 367.382892 
L 217.171595 367.628482 
L 217.233736 367.451374 
L 217.4823 365.550938 
L 217.997182 359.901582 
L 218.822768 347.857441 
L 220.101095 329.866141 
L 220.8024 319.399968 
L 221.059841 311.888222 
L 221.228509 299.910727 
L 221.352791 271.991662 
L 221.450441 187.803611 
L 221.556968 92.309291 
L 221.610232 101.777098 
L 222.151745 296.814352 
L 222.426941 367.392863 
L 222.471327 367.628744 
L 222.533468 367.447176 
L 222.782032 365.543591 
L 223.296914 359.891087 
L 224.1225 347.844585 
L 225.418582 329.625799 
L 226.111009 319.197934 
L 226.36845 311.455553 
L 226.537118 298.726857 
L 226.652523 271.648466 
L 226.750173 186.62087 
L 226.8567 92.315326 
L 226.909964 102.014554 
L 227.460355 300.78446 
L 227.726673 367.402571 
L 227.771059 367.629269 
L 227.8332 367.442978 
L 228.090641 365.455693 
L 228.605523 359.766455 
L 229.439986 347.559113 
L 230.718314 329.615041 
L 231.401864 319.365859 
L 231.659305 311.816067 
L 231.827973 299.717351 
L 231.952255 271.302908 
L 232.049905 185.437918 
L 232.156432 92.328182 
L 232.209695 102.251748 
L 232.768964 304.85716 
L 233.017527 367.294207 
L 233.070791 367.629269 
L 233.132932 367.438779 
L 233.390373 365.448346 
L 233.905255 359.75596 
L 234.739718 347.546518 
L 236.018045 329.604546 
L 236.701595 319.349066 
L 236.959036 311.780383 
L 237.127705 299.620269 
L 237.251986 270.954202 
L 237.349636 184.248198 
L 237.456164 92.346549 
L 237.509427 102.491303 
L 238.077573 309.032189 
L 238.317259 367.306276 
L 238.370523 367.629532 
L 238.432664 367.434581 
L 238.690105 365.441 
L 239.204986 359.745464 
L 240.03945 347.534186 
L 241.317777 329.59405 
L 242.001327 319.332274 
L 242.258768 311.744174 
L 242.427436 299.521613 
L 242.551718 270.597362 
L 242.649368 183.040032 
L 242.755895 92.372 
L 242.809159 102.734007 
L 243.386182 313.298527 
L 243.616991 367.318346 
L 243.670255 367.629532 
L 243.732395 367.430121 
L 243.989836 365.433653 
L 244.504718 359.734969 
L 245.348059 347.385153 
L 246.617509 329.583293 
L 247.301059 319.315219 
L 247.5585 311.707703 
L 247.727168 299.421646 
L 247.85145 270.236586 
L 247.9491 181.828691 
L 248.055627 92.403224 
L 248.108891 102.979072 
L 248.694791 317.637021 
L 248.907845 367.18558 
L 248.969986 367.629269 
L 249.032127 367.425923 
L 249.298445 365.344968 
L 249.822205 359.494364 
L 250.692177 346.691414 
L 251.943873 329.22724 
L 252.600791 319.297902 
L 252.858232 311.670969 
L 253.0269 299.321153 
L 253.151182 269.871087 
L 253.257709 167.247994 
L 253.346482 92.374624 
L 253.408623 103.227548 
L 254.0034 322.021431 
L 254.207577 367.200799 
L 254.269718 367.629007 
L 254.331859 367.421462 
L 254.598177 365.337359 
L 255.121936 359.483344 
L 255.983032 346.814734 
L 257.22585 329.446854 
L 257.900523 319.280847 
L 258.157964 311.633973 
L 258.326632 299.219611 
L 258.450914 269.498242 
L 258.557441 165.982524 
L 258.646214 92.346812 
L 258.708355 103.479698 
L 259.312009 326.413451 
L 259.507309 367.215492 
L 259.56945 367.628744 
L 259.631591 367.416739 
L 259.897909 365.329487 
L 260.421668 359.472587 
L 261.291641 346.665963 
L 262.525582 329.436096 
L 263.200255 319.263267 
L 263.457695 311.596453 
L 263.626364 299.116495 
L 263.750645 269.118312 
L 263.857173 164.710651 
L 263.945945 92.326083 
L 264.008086 103.732897 
L 264.620618 330.765325 
L 264.807041 367.230185 
L 264.869182 367.62822 
L 264.922445 367.458983 
L 265.171009 365.564057 
L 265.685891 359.920473 
L 266.511477 347.880006 
L 267.807559 329.655448 
L 268.499986 319.24595 
L 268.757427 311.558932 
L 268.926095 299.013379 
L 269.050377 268.738382 
L 269.156905 163.448251 
L 269.245677 92.312964 
L 269.298941 101.358598 
L 269.8227 289.257475 
L 270.133405 367.541109 
L 270.168914 367.627957 
L 270.222177 367.454785 
L 270.470741 365.55671 
L 270.985623 359.909716 
L 271.802332 348.003851 
L 273.098414 329.759614 
L 273.790841 319.413087 
L 274.048282 311.915772 
L 274.21695 299.984981 
L 274.341232 272.254569 
L 274.438882 188.712031 
L 274.545409 92.308504 
L 274.598673 101.59448 
L 275.131309 293.022925 
L 275.424259 367.479186 
L 275.459768 367.628482 
L 275.521909 367.450587 
L 275.770473 365.549364 
L 276.285355 359.89922 
L 277.110941 347.854555 
L 278.389268 329.863779 
L 279.090573 319.396033 
L 279.348014 311.879826 
L 279.516682 299.888686 
L 279.640964 271.913472 
L 279.738614 187.533882 
L 279.845141 92.309816 
L 279.898405 101.831412 
L 280.439918 296.89018 
L 280.715114 367.394962 
L 280.7595 367.629007 
L 280.821641 367.446389 
L 281.079082 365.461466 
L 281.593964 359.774589 
L 282.428427 347.568821 
L 283.706755 329.623175 
L 284.390305 319.378978 
L 284.647745 311.843879 
L 284.816414 299.79213 
L 284.940695 271.569751 
L 285.038345 186.351035 
L 285.144873 92.317687 
L 285.198136 102.068605 
L 285.748527 300.861338 
L 286.014845 367.40467 
L 286.059232 367.629269 
L 286.121373 367.441928 
L 286.378814 365.454119 
L 286.893695 359.764094 
L 287.728159 347.556226 
L 289.006486 329.612679 
L 289.690036 319.362185 
L 289.947477 311.807933 
L 290.116145 299.695311 
L 290.240427 271.223669 
L 290.338077 185.167192 
L 290.444605 92.331856 
L 290.497868 102.306061 
L 291.057136 304.9364 
L 291.3057 367.297093 
L 291.358964 367.629532 
L 291.421105 367.43773 
L 291.678545 365.446772 
L 292.193427 359.753598 
L 293.027891 347.543632 
L 294.315095 329.486998 
L 294.989768 319.34513 
L 295.247209 311.771986 
L 295.415877 299.597967 
L 295.540159 270.873388 
L 295.637809 183.973562 
L 295.744336 92.351797 
L 295.7976 102.546404 
L 296.365745 309.113528 
L 296.605432 367.309163 
L 296.658695 367.629532 
L 296.720836 367.433532 
L 296.978277 365.439425 
L 297.493159 359.743103 
L 298.327623 347.5313 
L 299.60595 329.591689 
L 300.2895 319.328338 
L 300.546941 311.735778 
L 300.715609 299.498786 
L 300.839891 270.515499 
L 300.937541 182.765055 
L 301.044068 92.37856 
L 301.097332 102.78937 
L 301.674355 313.381178 
L 301.905164 367.32097 
L 301.958427 367.629532 
L 302.020568 367.429334 
L 302.286886 365.35074 
L 302.810645 359.502498 
L 303.671741 346.837299 
L 304.914559 329.466008 
L 305.589232 319.311283 
L 305.846673 311.699307 
L 306.015341 299.399081 
L 306.139623 270.154198 
L 306.24615 168.219282 
L 306.334923 92.4006 
L 306.397064 103.035222 
L 306.982964 317.721508 
L 307.196018 367.188991 
L 307.258159 367.629269 
L 307.3203 367.424873 
L 307.586618 365.343131 
L 308.110377 359.491741 
L 308.971473 346.824704 
L 310.214291 329.45525 
L 310.888964 319.294228 
L 311.146405 311.662573 
L 311.315073 299.298326 
L 311.439355 269.786863 
L 311.545882 166.961499 
L 311.634655 92.367802 
L 311.696795 103.284485 
L 312.291573 322.106968 
L 312.49575 367.20421 
L 312.557891 367.629007 
L 312.620032 367.420413 
L 312.88635 365.335522 
L 313.410109 359.480983 
L 314.280082 346.675671 
L 315.531777 329.213858 
L 316.188695 319.276649 
L 316.446136 311.625315 
L 316.614805 299.196259 
L 316.739086 269.412705 
L 316.845614 165.69351 
L 316.934386 92.341564 
L 316.996527 103.53716 
L 317.600182 326.49925 
L 317.795482 367.218903 
L 317.857623 367.628744 
L 317.910886 367.462132 
L 318.150573 365.649331 
L 318.665455 360.041957 
L 319.464409 348.436257 
L 320.787123 329.778768 
L 321.488427 319.259331 
L 321.745868 311.587794 
L 321.914536 299.092881 
L 322.038818 269.031464 
L 322.145345 164.421401 
L 322.234118 92.32241 
L 322.296259 103.790883 
L 322.908791 330.849813 
L 323.095214 367.233596 
L 323.157355 367.62822 
L 323.210618 367.457933 
L 323.459182 365.562483 
L 323.974064 359.91785 
L 324.790773 348.013559 
L 326.095732 329.652824 
L 326.779282 319.426207 
L 327.036723 311.943585 
L 327.205391 300.059235 
L 327.329673 272.516952 
L 327.427323 189.622918 
L 327.53385 92.311128 
L 327.595991 104.04487 
L 328.2174 335.104081 
L 328.403823 367.37712 
L 328.457086 367.627695 
L 328.51035 367.453735 
L 328.758914 365.554874 
L 329.273795 359.907354 
L 329.318182 359.332474 
L 329.335936 360.233496 
L 329.531236 364.229055 
L 329.620009 364.417183 
L 329.664395 364.359722 
L 329.815309 363.752044 
L 330.214786 360.931171 
L 332.176664 346.15353 
L 332.869091 342.927013 
L 333.428359 341.269281 
L 333.889977 340.525165 
L 334.262823 340.297941 
L 334.609036 340.334675 
L 335.061777 340.624083 
L 336.553159 341.715594 
L 337.156814 341.812413 
L 338.097805 341.702212 
L 339.580309 341.507524 
L 342.101455 341.543733 
L 345.723382 341.539797 
L 435.845455 341.541896 
L 435.845455 341.541896 
" clip-path="url(#p4e81e905e2)" style="fill: none; stroke: #1f77b4; stroke-width: 1.5; stroke-linecap: square"/>
   </g>
   <g id="line2d_14">
    <path d="M 80.754545 341.610903 
L 81.083005 339.156456 
L 81.429218 337.974226 
L 81.677782 337.733051 
L 81.864205 337.8316 
L 82.1394 338.297729 
L 83.169164 340.300617 
L 83.542009 340.462485 
L 83.99475 340.396043 
L 85.574905 340.011597 
L 87.341482 340.064346 
L 93.635468 340.063242 
L 151.772727 340.063449 
L 152.358627 293.888202 
L 152.4474 228.545621 
L 152.553927 66.96467 
L 152.6427 83.055237 
L 153.193091 279.310386 
L 153.486041 369.36 
L 153.52155 369.261427 
L 153.805623 367.568796 
L 154.284995 363.433129 
L 154.959668 355.366084 
L 156.282382 339.47074 
L 157.001441 333.587172 
L 157.534077 330.808306 
L 157.853659 330.074319 
L 158.022327 330.061944 
L 158.190995 330.34323 
L 158.457314 331.337333 
L 159.203005 334.347317 
L 159.433814 334.514367 
L 159.637991 334.376675 
L 159.993082 333.783337 
L 160.854177 332.32504 
L 161.173759 332.191335 
L 161.475586 332.313053 
L 162.008223 332.840707 
L 162.540859 333.237194 
L 162.940336 333.262879 
L 163.490727 333.036082 
L 164.289682 332.749641 
L 164.884459 332.798088 
L 166.295945 333.000226 
L 169.021268 332.93705 
L 172.332491 332.925982 
L 188.08965 332.922458 
L 329.318182 332.922462 
L 329.602255 344.543725 
L 329.841941 347.494092 
L 329.966223 347.716655 
L 330.001732 347.689568 
L 330.143768 347.330619 
L 330.525491 345.532622 
L 331.333323 341.938504 
L 331.857082 340.54543 
L 332.292068 339.935668 
L 332.682668 339.738632 
L 333.135409 339.771064 
L 334.981882 340.12256 
L 349.522855 340.063539 
L 435.845455 340.063449 
L 435.845455 340.063449 
" clip-path="url(#p4e81e905e2)" style="fill: none; stroke: #ff0000; stroke-width: 1.5; stroke-linecap: square"/>
   </g>
   <g id="patch_3">
    <path d="M 63 384.48 
L 63 51.84 
" style="fill: none; stroke: #000000; stroke-width: 0.8; stroke-linejoin: miter; stroke-linecap: square"/>
   </g>
   <g id="patch_4">
    <path d="M 453.6 384.48 
L 453.6 51.84 
" style="fill: none; stroke: #000000; stroke-width: 0.8; stroke-linejoin: miter; stroke-linecap: square"/>
   </g>
   <g id="patch_5">
    <path d="M 63 384.48 
L 453.6 384.48 
" style="fill: none; stroke: #000000; stroke-width: 0.8; stroke-linejoin: miter; stroke-linecap: square"/>
   </g>
   <g id="patch_6">
    <path d="M 63 51.84 
L 453.6 51.84 
" style="fill: none; stroke: #000000; stroke-width: 0.8; stroke-linejoin: miter; stroke-linecap: square"/>
   </g>
   <g id="legend_1">
    <g id="patch_7">
     <path d="M 383.460938 89.19625 
L 446.6 89.19625 
Q 448.6 89.19625 448.6 87.19625 
L 448.6 58.84 
Q 448.6 56.84 446.6 56.84 
L 383.460938 56.84 
Q 381.460938 56.84 381.460938 58.84 
L 381.460938 87.19625 
Q 381.460938 89.19625 383.460938 89.19625 
z
" style="fill: #ffffff; opacity: 0.8; stroke: #cccccc; stroke-linejoin: miter"/>
    </g>
    <g id="line2d_15">
     <path d="M 385.460938 64.938437 
L 395.460938 64.938437 
L 405.460938 64.938437 
" style="fill: none; stroke: #1f77b4; stroke-width: 1.5; stroke-linecap: square"/>
    </g>
    <g id="text_15">
     <!-- target -->
     <g transform="translate(413.460938 68.438437)scale(0.1 -0.1)">
      <defs>
       <path id="DejaVuSans-72" d="M 2631 2963 
Q 2534 3019 2420 3045 
Q 2306 3072 2169 3072 
Q 1681 3072 1420 2755 
Q 1159 2438 1159 1844 
L 1159 0 
L 581 0 
L 581 3500 
L 1159 3500 
L 1159 2956 
Q 1341 3275 1631 3429 
Q 1922 3584 2338 3584 
Q 2397 3584 2469 3576 
Q 2541 3569 2628 3553 
L 2631 2963 
z
" transform="scale(0.015625)"/>
      </defs>
      <use xlink:href="#DejaVuSans-74"/>
      <use xlink:href="#DejaVuSans-61" x="39.208984"/>
      <use xlink:href="#DejaVuSans-72" x="100.488281"/>
      <use xlink:href="#DejaVuSans-67" x="139.851562"/>
      <use xlink:href="#DejaVuSans-65" x="203.328125"/>
      <use xlink:href="#DejaVuSans-74" x="264.851562"/>
     </g>
    </g>
    <g id="line2d_16">
     <path d="M 385.460938 79.616562 
L 395.460938 79.616562 
L 405.460938 79.616562 
" style="fill: none; stroke: #ff0000; stroke-width: 1.5; stroke-linecap: square"/>
    </g>
    <g id="text_16">
     <!-- model -->
     <g transform="translate(413.460938 83.116562)scale(0.1 -0.1)">
      <defs>
       <path id="DejaVuSans-64" d="M 2906 2969 
L 2906 4863 
L 3481 4863 
L 3481 0 
L 2906 0 
L 2906 525 
Q 2725 213 2448 61 
Q 2172 -91 1784 -91 
Q 1150 -91 751 415 
Q 353 922 353 1747 
Q 353 2572 751 3078 
Q 1150 3584 1784 3584 
Q 2172 3584 2448 3432 
Q 2725 3281 2906 2969 
z
M 947 1747 
Q 947 1113 1208 752 
Q 1469 391 1925 391 
Q 2381 391 2643 752 
Q 2906 1113 2906 1747 
Q 2906 2381 2643 2742 
Q 2381 3103 1925 3103 
Q 1469 3103 1208 2742 
Q 947 2381 947 1747 
z
" transform="scale(0.015625)"/>
      </defs>
      <use xlink:href="#DejaVuSans-6d"/>
      <use xlink:href="#DejaVuSans-6f" x="97.412109"/>
      <use xlink:href="#DejaVuSans-64" x="158.59375"/>
      <use xlink:href="#DejaVuSans-65" x="222.070312"/>
      <use xlink:href="#DejaVuSans-6c" x="283.59375"/>
     </g>
    </g>
   </g>
  </g>
 </g>
 <defs>
  <clipPath id="p4e81e905e2">
   <rect x="63" y="51.84" width="390.6" height="332.64"/>
  </clipPath>
 </defs>
</svg>
