<?xml version="1.0" encoding="utf-8" standalone="no"?>
<!DOCTYPE svg PUBLIC "-//W3C//DTD SVG 1.1//EN"
  "http://www.w3.org/Graphics/SVG/1.1/DTD/svg11.dtd">
<svg xmlns:xlink="http://www.w3.org/1999/xlink" width="504pt" height="432pt" viewBox="0 0 504 432" xmlns="http://www.w3.org/2000/svg" version="1.1">
 <metadata>
  <rdf:RDF xmlns:dc="http://purl.org/dc/elements/1.1/" xmlns:cc="http://creativecommons.org/ns#" xmlns:rdf="http://www.w3.org/1999/02/22-rdf-syntax-ns#">
   <cc:Work>
    <dc:type rdf:resource="http://purl.org/dc/dcmitype/StillImage"/>
    <dc:date>2022-01-31T19:00:18.855293</dc:date>
    <dc:format>image/svg+xml</dc:format>
    <dc:creator>
     <cc:Agent>
      <dc:title>Matplotlib v3.5.1, https://matplotlib.org/</dc:title>
     </cc:Agent>
    </dc:creator>
   </cc:Work>
  </rdf:RDF>
 </metadata>
 <defs>
  <style type="text/css">*{stroke-linejoin: round; stroke-linecap: butt}</style>
 </defs>
 <g id="figure_1">
  <g id="patch_1">
   <path d="M 0 432 
L 504 432 
L 504 0 
L 0 0 
z
" style="fill: #ffffff"/>
  </g>
  <g id="axes_1">
   <g id="patch_2">
    <path d="M 63 384.48 
L 453.6 384.48 
L 453.6 51.84 
L 63 51.84 
z
" style="fill: #ffffff"/>
   </g>
   <g id="matplotlib.axis_1">
    <g id="xtick_1">
     <g id="line2d_1">
      <defs>
       <path id="m81d963dfc2" d="M 0 0 
L 0 3.5 
" style="stroke: #000000; stroke-width: 0.8"/>
      </defs>
      <g>
       <use xlink:href="#m81d963dfc2" x="80.754545" y="384.48" style="stroke: #000000; stroke-width: 0.8"/>
      </g>
     </g>
     <g id="text_1">
      <!-- 0 -->
      <g transform="translate(77.573295 399.078438)scale(0.1 -0.1)">
       <defs>
        <path id="DejaVuSans-30" d="M 2034 4250 
Q 1547 4250 1301 3770 
Q 1056 3291 1056 2328 
Q 1056 1369 1301 889 
Q 1547 409 2034 409 
Q 2525 409 2770 889 
Q 3016 1369 3016 2328 
Q 3016 3291 2770 3770 
Q 2525 4250 2034 4250 
z
M 2034 4750 
Q 2819 4750 3233 4129 
Q 3647 3509 3647 2328 
Q 3647 1150 3233 529 
Q 2819 -91 2034 -91 
Q 1250 -91 836 529 
Q 422 1150 422 2328 
Q 422 3509 836 4129 
Q 1250 4750 2034 4750 
z
" transform="scale(0.015625)"/>
       </defs>
       <use xlink:href="#DejaVuSans-30"/>
      </g>
     </g>
    </g>
    <g id="xtick_2">
     <g id="line2d_2">
      <g>
       <use xlink:href="#m81d963dfc2" x="151.772727" y="384.48" style="stroke: #000000; stroke-width: 0.8"/>
      </g>
     </g>
     <g id="text_2">
      <!-- 200 -->
      <g transform="translate(142.228977 399.078438)scale(0.1 -0.1)">
       <defs>
        <path id="DejaVuSans-32" d="M 1228 531 
L 3431 531 
L 3431 0 
L 469 0 
L 469 531 
Q 828 903 1448 1529 
Q 2069 2156 2228 2338 
Q 2531 2678 2651 2914 
Q 2772 3150 2772 3378 
Q 2772 3750 2511 3984 
Q 2250 4219 1831 4219 
Q 1534 4219 1204 4116 
Q 875 4013 500 3803 
L 500 4441 
Q 881 4594 1212 4672 
Q 1544 4750 1819 4750 
Q 2544 4750 2975 4387 
Q 3406 4025 3406 3419 
Q 3406 3131 3298 2873 
Q 3191 2616 2906 2266 
Q 2828 2175 2409 1742 
Q 1991 1309 1228 531 
z
" transform="scale(0.015625)"/>
       </defs>
       <use xlink:href="#DejaVuSans-32"/>
       <use xlink:href="#DejaVuSans-30" x="63.623047"/>
       <use xlink:href="#DejaVuSans-30" x="127.246094"/>
      </g>
     </g>
    </g>
    <g id="xtick_3">
     <g id="line2d_3">
      <g>
       <use xlink:href="#m81d963dfc2" x="222.790909" y="384.48" style="stroke: #000000; stroke-width: 0.8"/>
      </g>
     </g>
     <g id="text_3">
      <!-- 400 -->
      <g transform="translate(213.247159 399.078438)scale(0.1 -0.1)">
       <defs>
        <path id="DejaVuSans-34" d="M 2419 4116 
L 825 1625 
L 2419 1625 
L 2419 4116 
z
M 2253 4666 
L 3047 4666 
L 3047 1625 
L 3713 1625 
L 3713 1100 
L 3047 1100 
L 3047 0 
L 2419 0 
L 2419 1100 
L 313 1100 
L 313 1709 
L 2253 4666 
z
" transform="scale(0.015625)"/>
       </defs>
       <use xlink:href="#DejaVuSans-34"/>
       <use xlink:href="#DejaVuSans-30" x="63.623047"/>
       <use xlink:href="#DejaVuSans-30" x="127.246094"/>
      </g>
     </g>
    </g>
    <g id="xtick_4">
     <g id="line2d_4">
      <g>
       <use xlink:href="#m81d963dfc2" x="293.809091" y="384.48" style="stroke: #000000; stroke-width: 0.8"/>
      </g>
     </g>
     <g id="text_4">
      <!-- 600 -->
      <g transform="translate(284.265341 399.078438)scale(0.1 -0.1)">
       <defs>
        <path id="DejaVuSans-36" d="M 2113 2584 
Q 1688 2584 1439 2293 
Q 1191 2003 1191 1497 
Q 1191 994 1439 701 
Q 1688 409 2113 409 
Q 2538 409 2786 701 
Q 3034 994 3034 1497 
Q 3034 2003 2786 2293 
Q 2538 2584 2113 2584 
z
M 3366 4563 
L 3366 3988 
Q 3128 4100 2886 4159 
Q 2644 4219 2406 4219 
Q 1781 4219 1451 3797 
Q 1122 3375 1075 2522 
Q 1259 2794 1537 2939 
Q 1816 3084 2150 3084 
Q 2853 3084 3261 2657 
Q 3669 2231 3669 1497 
Q 3669 778 3244 343 
Q 2819 -91 2113 -91 
Q 1303 -91 875 529 
Q 447 1150 447 2328 
Q 447 3434 972 4092 
Q 1497 4750 2381 4750 
Q 2619 4750 2861 4703 
Q 3103 4656 3366 4563 
z
" transform="scale(0.015625)"/>
       </defs>
       <use xlink:href="#DejaVuSans-36"/>
       <use xlink:href="#DejaVuSans-30" x="63.623047"/>
       <use xlink:href="#DejaVuSans-30" x="127.246094"/>
      </g>
     </g>
    </g>
    <g id="xtick_5">
     <g id="line2d_5">
      <g>
       <use xlink:href="#m81d963dfc2" x="364.827273" y="384.48" style="stroke: #000000; stroke-width: 0.8"/>
      </g>
     </g>
     <g id="text_5">
      <!-- 800 -->
      <g transform="translate(355.283523 399.078438)scale(0.1 -0.1)">
       <defs>
        <path id="DejaVuSans-38" d="M 2034 2216 
Q 1584 2216 1326 1975 
Q 1069 1734 1069 1313 
Q 1069 891 1326 650 
Q 1584 409 2034 409 
Q 2484 409 2743 651 
Q 3003 894 3003 1313 
Q 3003 1734 2745 1975 
Q 2488 2216 2034 2216 
z
M 1403 2484 
Q 997 2584 770 2862 
Q 544 3141 544 3541 
Q 544 4100 942 4425 
Q 1341 4750 2034 4750 
Q 2731 4750 3128 4425 
Q 3525 4100 3525 3541 
Q 3525 3141 3298 2862 
Q 3072 2584 2669 2484 
Q 3125 2378 3379 2068 
Q 3634 1759 3634 1313 
Q 3634 634 3220 271 
Q 2806 -91 2034 -91 
Q 1263 -91 848 271 
Q 434 634 434 1313 
Q 434 1759 690 2068 
Q 947 2378 1403 2484 
z
M 1172 3481 
Q 1172 3119 1398 2916 
Q 1625 2713 2034 2713 
Q 2441 2713 2670 2916 
Q 2900 3119 2900 3481 
Q 2900 3844 2670 4047 
Q 2441 4250 2034 4250 
Q 1625 4250 1398 4047 
Q 1172 3844 1172 3481 
z
" transform="scale(0.015625)"/>
       </defs>
       <use xlink:href="#DejaVuSans-38"/>
       <use xlink:href="#DejaVuSans-30" x="63.623047"/>
       <use xlink:href="#DejaVuSans-30" x="127.246094"/>
      </g>
     </g>
    </g>
    <g id="text_6">
     <!-- time [ms] -->
     <g transform="translate(234.038281 412.756563)scale(0.1 -0.1)">
      <defs>
       <path id="DejaVuSans-74" d="M 1172 4494 
L 1172 3500 
L 2356 3500 
L 2356 3053 
L 1172 3053 
L 1172 1153 
Q 1172 725 1289 603 
Q 1406 481 1766 481 
L 2356 481 
L 2356 0 
L 1766 0 
Q 1100 0 847 248 
Q 594 497 594 1153 
L 594 3053 
L 172 3053 
L 172 3500 
L 594 3500 
L 594 4494 
L 1172 4494 
z
" transform="scale(0.015625)"/>
       <path id="DejaVuSans-69" d="M 603 3500 
L 1178 3500 
L 1178 0 
L 603 0 
L 603 3500 
z
M 603 4863 
L 1178 4863 
L 1178 4134 
L 603 4134 
L 603 4863 
z
" transform="scale(0.015625)"/>
       <path id="DejaVuSans-6d" d="M 3328 2828 
Q 3544 3216 3844 3400 
Q 4144 3584 4550 3584 
Q 5097 3584 5394 3201 
Q 5691 2819 5691 2113 
L 5691 0 
L 5113 0 
L 5113 2094 
Q 5113 2597 4934 2840 
Q 4756 3084 4391 3084 
Q 3944 3084 3684 2787 
Q 3425 2491 3425 1978 
L 3425 0 
L 2847 0 
L 2847 2094 
Q 2847 2600 2669 2842 
Q 2491 3084 2119 3084 
Q 1678 3084 1418 2786 
Q 1159 2488 1159 1978 
L 1159 0 
L 581 0 
L 581 3500 
L 1159 3500 
L 1159 2956 
Q 1356 3278 1631 3431 
Q 1906 3584 2284 3584 
Q 2666 3584 2933 3390 
Q 3200 3197 3328 2828 
z
" transform="scale(0.015625)"/>
       <path id="DejaVuSans-65" d="M 3597 1894 
L 3597 1613 
L 953 1613 
Q 991 1019 1311 708 
Q 1631 397 2203 397 
Q 2534 397 2845 478 
Q 3156 559 3463 722 
L 3463 178 
Q 3153 47 2828 -22 
Q 2503 -91 2169 -91 
Q 1331 -91 842 396 
Q 353 884 353 1716 
Q 353 2575 817 3079 
Q 1281 3584 2069 3584 
Q 2775 3584 3186 3129 
Q 3597 2675 3597 1894 
z
M 3022 2063 
Q 3016 2534 2758 2815 
Q 2500 3097 2075 3097 
Q 1594 3097 1305 2825 
Q 1016 2553 972 2059 
L 3022 2063 
z
" transform="scale(0.015625)"/>
       <path id="DejaVuSans-20" transform="scale(0.015625)"/>
       <path id="DejaVuSans-5b" d="M 550 4863 
L 1875 4863 
L 1875 4416 
L 1125 4416 
L 1125 -397 
L 1875 -397 
L 1875 -844 
L 550 -844 
L 550 4863 
z
" transform="scale(0.015625)"/>
       <path id="DejaVuSans-73" d="M 2834 3397 
L 2834 2853 
Q 2591 2978 2328 3040 
Q 2066 3103 1784 3103 
Q 1356 3103 1142 2972 
Q 928 2841 928 2578 
Q 928 2378 1081 2264 
Q 1234 2150 1697 2047 
L 1894 2003 
Q 2506 1872 2764 1633 
Q 3022 1394 3022 966 
Q 3022 478 2636 193 
Q 2250 -91 1575 -91 
Q 1294 -91 989 -36 
Q 684 19 347 128 
L 347 722 
Q 666 556 975 473 
Q 1284 391 1588 391 
Q 1994 391 2212 530 
Q 2431 669 2431 922 
Q 2431 1156 2273 1281 
Q 2116 1406 1581 1522 
L 1381 1569 
Q 847 1681 609 1914 
Q 372 2147 372 2553 
Q 372 3047 722 3315 
Q 1072 3584 1716 3584 
Q 2034 3584 2315 3537 
Q 2597 3491 2834 3397 
z
" transform="scale(0.015625)"/>
       <path id="DejaVuSans-5d" d="M 1947 4863 
L 1947 -844 
L 622 -844 
L 622 -397 
L 1369 -397 
L 1369 4416 
L 622 4416 
L 622 4863 
L 1947 4863 
z
" transform="scale(0.015625)"/>
      </defs>
      <use xlink:href="#DejaVuSans-74"/>
      <use xlink:href="#DejaVuSans-69" x="39.208984"/>
      <use xlink:href="#DejaVuSans-6d" x="66.992188"/>
      <use xlink:href="#DejaVuSans-65" x="164.404297"/>
      <use xlink:href="#DejaVuSans-20" x="225.927734"/>
      <use xlink:href="#DejaVuSans-5b" x="257.714844"/>
      <use xlink:href="#DejaVuSans-6d" x="296.728516"/>
      <use xlink:href="#DejaVuSans-73" x="394.140625"/>
      <use xlink:href="#DejaVuSans-5d" x="446.240234"/>
     </g>
    </g>
   </g>
   <g id="matplotlib.axis_2">
    <g id="ytick_1">
     <g id="line2d_6">
      <defs>
       <path id="me33ba9b3f0" d="M 0 0 
L -3.5 0 
" style="stroke: #000000; stroke-width: 0.8"/>
      </defs>
      <g>
       <use xlink:href="#me33ba9b3f0" x="63" y="380.907751" style="stroke: #000000; stroke-width: 0.8"/>
      </g>
     </g>
     <g id="text_7">
      <!-- −80 -->
      <g transform="translate(34.895313 384.70697)scale(0.1 -0.1)">
       <defs>
        <path id="DejaVuSans-2212" d="M 678 2272 
L 4684 2272 
L 4684 1741 
L 678 1741 
L 678 2272 
z
" transform="scale(0.015625)"/>
       </defs>
       <use xlink:href="#DejaVuSans-2212"/>
       <use xlink:href="#DejaVuSans-38" x="83.789062"/>
       <use xlink:href="#DejaVuSans-30" x="147.412109"/>
      </g>
     </g>
    </g>
    <g id="ytick_2">
     <g id="line2d_7">
      <g>
       <use xlink:href="#me33ba9b3f0" x="63" y="328.441379" style="stroke: #000000; stroke-width: 0.8"/>
      </g>
     </g>
     <g id="text_8">
      <!-- −60 -->
      <g transform="translate(34.895313 332.240598)scale(0.1 -0.1)">
       <use xlink:href="#DejaVuSans-2212"/>
       <use xlink:href="#DejaVuSans-36" x="83.789062"/>
       <use xlink:href="#DejaVuSans-30" x="147.412109"/>
      </g>
     </g>
    </g>
    <g id="ytick_3">
     <g id="line2d_8">
      <g>
       <use xlink:href="#me33ba9b3f0" x="63" y="275.975007" style="stroke: #000000; stroke-width: 0.8"/>
      </g>
     </g>
     <g id="text_9">
      <!-- −40 -->
      <g transform="translate(34.895313 279.774226)scale(0.1 -0.1)">
       <use xlink:href="#DejaVuSans-2212"/>
       <use xlink:href="#DejaVuSans-34" x="83.789062"/>
       <use xlink:href="#DejaVuSans-30" x="147.412109"/>
      </g>
     </g>
    </g>
    <g id="ytick_4">
     <g id="line2d_9">
      <g>
       <use xlink:href="#me33ba9b3f0" x="63" y="223.508636" style="stroke: #000000; stroke-width: 0.8"/>
      </g>
     </g>
     <g id="text_10">
      <!-- −20 -->
      <g transform="translate(34.895313 227.307854)scale(0.1 -0.1)">
       <use xlink:href="#DejaVuSans-2212"/>
       <use xlink:href="#DejaVuSans-32" x="83.789062"/>
       <use xlink:href="#DejaVuSans-30" x="147.412109"/>
      </g>
     </g>
    </g>
    <g id="ytick_5">
     <g id="line2d_10">
      <g>
       <use xlink:href="#me33ba9b3f0" x="63" y="171.042264" style="stroke: #000000; stroke-width: 0.8"/>
      </g>
     </g>
     <g id="text_11">
      <!-- 0 -->
      <g transform="translate(49.6375 174.841483)scale(0.1 -0.1)">
       <use xlink:href="#DejaVuSans-30"/>
      </g>
     </g>
    </g>
    <g id="ytick_6">
     <g id="line2d_11">
      <g>
       <use xlink:href="#me33ba9b3f0" x="63" y="118.575892" style="stroke: #000000; stroke-width: 0.8"/>
      </g>
     </g>
     <g id="text_12">
      <!-- 20 -->
      <g transform="translate(43.275 122.375111)scale(0.1 -0.1)">
       <use xlink:href="#DejaVuSans-32"/>
       <use xlink:href="#DejaVuSans-30" x="63.623047"/>
      </g>
     </g>
    </g>
    <g id="ytick_7">
     <g id="line2d_12">
      <g>
       <use xlink:href="#me33ba9b3f0" x="63" y="66.10952" style="stroke: #000000; stroke-width: 0.8"/>
      </g>
     </g>
     <g id="text_13">
      <!-- 40 -->
      <g transform="translate(43.275 69.908739)scale(0.1 -0.1)">
       <use xlink:href="#DejaVuSans-34"/>
       <use xlink:href="#DejaVuSans-30" x="63.623047"/>
      </g>
     </g>
    </g>
    <g id="text_14">
     <!-- voltage [mV] -->
     <g transform="translate(28.815625 250.624062)rotate(-90)scale(0.1 -0.1)">
      <defs>
       <path id="DejaVuSans-76" d="M 191 3500 
L 800 3500 
L 1894 563 
L 2988 3500 
L 3597 3500 
L 2284 0 
L 1503 0 
L 191 3500 
z
" transform="scale(0.015625)"/>
       <path id="DejaVuSans-6f" d="M 1959 3097 
Q 1497 3097 1228 2736 
Q 959 2375 959 1747 
Q 959 1119 1226 758 
Q 1494 397 1959 397 
Q 2419 397 2687 759 
Q 2956 1122 2956 1747 
Q 2956 2369 2687 2733 
Q 2419 3097 1959 3097 
z
M 1959 3584 
Q 2709 3584 3137 3096 
Q 3566 2609 3566 1747 
Q 3566 888 3137 398 
Q 2709 -91 1959 -91 
Q 1206 -91 779 398 
Q 353 888 353 1747 
Q 353 2609 779 3096 
Q 1206 3584 1959 3584 
z
" transform="scale(0.015625)"/>
       <path id="DejaVuSans-6c" d="M 603 4863 
L 1178 4863 
L 1178 0 
L 603 0 
L 603 4863 
z
" transform="scale(0.015625)"/>
       <path id="DejaVuSans-61" d="M 2194 1759 
Q 1497 1759 1228 1600 
Q 959 1441 959 1056 
Q 959 750 1161 570 
Q 1363 391 1709 391 
Q 2188 391 2477 730 
Q 2766 1069 2766 1631 
L 2766 1759 
L 2194 1759 
z
M 3341 1997 
L 3341 0 
L 2766 0 
L 2766 531 
Q 2569 213 2275 61 
Q 1981 -91 1556 -91 
Q 1019 -91 701 211 
Q 384 513 384 1019 
Q 384 1609 779 1909 
Q 1175 2209 1959 2209 
L 2766 2209 
L 2766 2266 
Q 2766 2663 2505 2880 
Q 2244 3097 1772 3097 
Q 1472 3097 1187 3025 
Q 903 2953 641 2809 
L 641 3341 
Q 956 3463 1253 3523 
Q 1550 3584 1831 3584 
Q 2591 3584 2966 3190 
Q 3341 2797 3341 1997 
z
" transform="scale(0.015625)"/>
       <path id="DejaVuSans-67" d="M 2906 1791 
Q 2906 2416 2648 2759 
Q 2391 3103 1925 3103 
Q 1463 3103 1205 2759 
Q 947 2416 947 1791 
Q 947 1169 1205 825 
Q 1463 481 1925 481 
Q 2391 481 2648 825 
Q 2906 1169 2906 1791 
z
M 3481 434 
Q 3481 -459 3084 -895 
Q 2688 -1331 1869 -1331 
Q 1566 -1331 1297 -1286 
Q 1028 -1241 775 -1147 
L 775 -588 
Q 1028 -725 1275 -790 
Q 1522 -856 1778 -856 
Q 2344 -856 2625 -561 
Q 2906 -266 2906 331 
L 2906 616 
Q 2728 306 2450 153 
Q 2172 0 1784 0 
Q 1141 0 747 490 
Q 353 981 353 1791 
Q 353 2603 747 3093 
Q 1141 3584 1784 3584 
Q 2172 3584 2450 3431 
Q 2728 3278 2906 2969 
L 2906 3500 
L 3481 3500 
L 3481 434 
z
" transform="scale(0.015625)"/>
       <path id="DejaVuSans-56" d="M 1831 0 
L 50 4666 
L 709 4666 
L 2188 738 
L 3669 4666 
L 4325 4666 
L 2547 0 
L 1831 0 
z
" transform="scale(0.015625)"/>
      </defs>
      <use xlink:href="#DejaVuSans-76"/>
      <use xlink:href="#DejaVuSans-6f" x="59.179688"/>
      <use xlink:href="#DejaVuSans-6c" x="120.361328"/>
      <use xlink:href="#DejaVuSans-74" x="148.144531"/>
      <use xlink:href="#DejaVuSans-61" x="187.353516"/>
      <use xlink:href="#DejaVuSans-67" x="248.632812"/>
      <use xlink:href="#DejaVuSans-65" x="312.109375"/>
      <use xlink:href="#DejaVuSans-20" x="373.632812"/>
      <use xlink:href="#DejaVuSans-5b" x="405.419922"/>
      <use xlink:href="#DejaVuSans-6d" x="444.433594"/>
      <use xlink:href="#DejaVuSans-56" x="541.845703"/>
      <use xlink:href="#DejaVuSans-5d" x="610.253906"/>
     </g>
    </g>
   </g>
   <g id="line2d_13">
    <path d="M 80.754545 341.557972 
L 81.961855 341.42156 
L 83.772818 341.478748 
L 85.974382 341.497636 
L 151.772727 341.488979 
L 152.314241 296.992774 
L 152.420768 248.38714 
L 152.562805 66.96 
L 152.678209 92.162222 
L 153.565936 368.029355 
L 153.610323 367.928882 
L 153.8145 366.550853 
L 154.293873 361.800023 
L 154.959668 352.684253 
L 157.42755 313.81664 
L 157.613973 302.696131 
L 157.738255 280.743938 
L 157.835905 218.225534 
L 157.969064 91.306233 
L 158.031205 104.450633 
L 158.883423 367.605165 
L 158.945564 367.421795 
L 159.203005 365.443813 
L 159.717886 359.774296 
L 160.534595 347.854461 
L 161.8218 329.7352 
L 162.514227 319.374928 
L 162.771668 311.858858 
L 162.940336 299.874751 
L 163.064618 271.92539 
L 163.162268 187.577382 
L 163.268795 92.225968 
L 163.322059 101.7334 
L 163.863573 296.714702 
L 164.147645 367.428615 
L 164.183155 367.573423 
L 164.245295 367.392151 
L 164.493859 365.489721 
L 165.008741 359.839879 
L 165.834327 347.797011 
L 167.112655 329.809702 
L 167.813959 319.339513 
L 168.0714 311.813737 
L 168.240068 299.790281 
L 168.36435 271.679323 
L 168.462 186.832228 
L 168.568527 92.302832 
L 168.621791 101.955332 
L 169.172182 300.664108 
L 169.4385 367.342833 
L 169.482886 367.571324 
L 169.545027 367.386118 
L 169.802468 365.400003 
L 170.31735 359.712648 
L 171.151814 347.508183 
L 172.430141 329.567045 
L 173.113691 319.32115 
L 173.371132 311.777273 
L 173.5398 299.694529 
L 173.664082 271.34144 
L 173.761732 185.681614 
L 173.868259 92.319621 
L 173.921523 102.191169 
L 174.480791 304.732875 
L 174.729355 367.233441 
L 174.782618 367.571324 
L 174.844759 367.38192 
L 175.1022 365.392658 
L 175.617082 359.701893 
L 176.451545 347.495329 
L 177.729873 329.55629 
L 178.413423 319.304361 
L 178.670864 311.741333 
L 178.839532 299.597467 
L 178.963814 270.994637 
L 179.061464 184.497317 
L 179.167991 92.336935 
L 179.221255 102.429628 
L 179.7894 308.904739 
L 180.029086 367.24577 
L 180.08235 367.571586 
L 180.144491 367.377461 
L 180.401932 365.385313 
L 180.916814 359.6914 
L 181.751277 347.483 
L 183.029605 329.545796 
L 183.713155 319.287309 
L 183.970595 311.705131 
L 184.139264 299.499355 
L 184.263545 270.639702 
L 184.361195 183.292191 
L 184.467723 92.360807 
L 184.520986 102.671761 
L 185.098009 313.168418 
L 185.328818 367.257837 
L 185.382082 367.571586 
L 185.444223 367.373263 
L 185.701664 365.377705 
L 186.216545 359.680906 
L 187.051009 347.470408 
L 188.329336 329.535303 
L 189.012886 319.27052 
L 189.270327 311.668667 
L 189.438995 299.399668 
L 189.563277 270.27952 
L 189.660927 182.082264 
L 189.767455 92.39045 
L 189.820718 102.916254 
L 190.406618 317.504239 
L 190.619673 367.124048 
L 190.681814 367.571324 
L 190.743955 367.368804 
L 191.010273 365.289037 
L 191.525155 359.555512 
L 192.368495 347.184991 
L 193.637945 329.409384 
L 194.312618 319.253206 
L 194.570059 311.632203 
L 194.738727 299.299458 
L 194.863009 269.915928 
L 194.969536 167.51613 
L 195.058309 92.377071 
L 195.12045 103.163371 
L 195.715227 321.886231 
L 195.919405 367.139526 
L 195.981545 367.571324 
L 196.043686 367.364344 
L 196.310005 365.281429 
L 196.833764 359.429592 
L 197.703736 346.627535 
L 198.955432 329.168301 
L 199.61235 319.236154 
L 199.869791 311.595214 
L 200.038459 299.198198 
L 200.162741 269.544991 
L 200.269268 166.253501 
L 200.358041 92.34769 
L 200.420182 103.414684 
L 201.023836 326.277404 
L 201.219136 367.154216 
L 201.281277 367.570799 
L 201.343418 367.359884 
L 201.609736 365.273822 
L 202.133495 359.418574 
L 202.994591 346.750831 
L 204.255164 329.157545 
L 204.912082 319.218578 
L 205.169523 311.557701 
L 205.338191 299.095363 
L 205.462473 269.166446 
L 205.569 164.982398 
L 205.657773 92.325392 
L 205.719914 103.667835 
L 206.332445 330.629752 
L 206.518868 367.168907 
L 206.581009 367.570537 
L 206.634273 367.401858 
L 206.873959 365.587833 
L 207.388841 359.979702 
L 208.187795 348.37519 
L 209.510509 329.722083 
L 210.202936 319.385421 
L 210.460377 311.912636 
L 210.629045 300.058121 
L 210.753327 272.63185 
L 210.850977 190.136534 
L 210.957505 92.310177 
L 211.019645 103.922034 
L 211.641055 334.889234 
L 211.827477 367.314501 
L 211.880741 367.570012 
L 211.934005 367.39766 
L 212.182568 365.500739 
L 212.69745 359.855619 
L 213.514159 347.952574 
L 214.810241 329.711328 
L 215.502668 319.36837 
L 215.760109 311.876696 
L 215.928777 299.961846 
L 216.053059 272.292655 
L 216.150709 188.958139 
L 216.257236 92.303881 
L 216.319377 104.175709 
L 216.949664 338.992367 
L 217.127209 367.324994 
L 217.171595 367.570537 
L 217.233736 367.393463 
L 217.4823 365.493393 
L 217.997182 359.845126 
L 218.822768 347.803307 
L 220.101095 329.815473 
L 220.8024 319.351318 
L 221.059841 311.841019 
L 221.228509 299.865832 
L 221.352791 271.952148 
L 221.450441 187.780322 
L 221.556968 92.304406 
L 221.610232 101.770388 
L 222.151745 296.770054 
L 222.426941 367.334963 
L 222.471327 367.570799 
L 222.533468 367.389266 
L 222.782032 365.486048 
L 223.296914 359.834633 
L 224.1225 347.790452 
L 225.418582 329.575178 
L 226.111009 319.149322 
L 226.36845 311.408434 
L 226.537118 298.682191 
L 226.652523 271.609018 
L 226.750173 186.597808 
L 226.8567 92.310439 
L 226.909964 102.007799 
L 227.460355 300.739397 
L 227.726673 367.344669 
L 227.771059 367.571324 
L 227.8332 367.385068 
L 228.090641 365.398167 
L 228.605523 359.710025 
L 229.439986 347.505035 
L 230.718314 329.564422 
L 231.401864 319.317215 
L 231.659305 311.768878 
L 231.827973 299.672494 
L 231.952255 271.263527 
L 232.049905 185.415085 
L 232.156432 92.323293 
L 232.209695 102.244947 
L 232.768964 304.811312 
L 233.017527 367.236326 
L 233.070791 367.571324 
L 233.132932 367.380871 
L 233.390373 365.390822 
L 233.905255 359.699532 
L 234.739718 347.492443 
L 236.018045 329.553929 
L 236.701595 319.300426 
L 236.959036 311.733201 
L 237.127705 299.575431 
L 237.251986 270.914888 
L 237.349636 184.225594 
L 237.456164 92.341657 
L 237.509427 102.484456 
L 238.077573 308.985537 
L 238.317259 367.248393 
L 238.370523 367.571586 
L 238.432664 367.376674 
L 238.690105 365.383476 
L 239.204986 359.689039 
L 240.03945 347.480114 
L 241.317777 329.543435 
L 242.001327 319.283636 
L 242.258768 311.696999 
L 242.427436 299.476794 
L 242.551718 270.558117 
L 242.649368 183.017661 
L 242.755895 92.367103 
L 242.809159 102.727113 
L 243.386182 313.251053 
L 243.616991 367.260461 
L 243.670255 367.571586 
L 243.732395 367.372214 
L 243.989836 365.376131 
L 244.504718 359.678545 
L 245.348059 347.331109 
L 246.617509 329.53268 
L 247.301059 319.266585 
L 247.5585 311.660535 
L 247.727168 299.376846 
L 247.85145 270.197411 
L 247.9491 181.806553 
L 248.055627 92.39832 
L 248.108891 102.972131 
L 248.694791 317.58871 
L 248.907845 367.127721 
L 248.969986 367.571324 
L 249.032127 367.368017 
L 249.298445 365.287463 
L 249.822205 359.437987 
L 250.692177 346.637504 
L 251.943873 329.176695 
L 252.600791 319.249271 
L 252.858232 311.623808 
L 253.0269 299.276372 
L 253.151182 269.831982 
L 253.257709 167.228667 
L 253.346482 92.369726 
L 253.408623 103.220559 
L 254.0034 321.972276 
L 254.207577 367.142936 
L 254.269718 367.571062 
L 254.331859 367.363557 
L 254.598177 365.279855 
L 255.121936 359.426969 
L 255.983032 346.7608 
L 257.22585 329.396267 
L 257.900523 319.232219 
L 258.157964 311.58682 
L 258.326632 299.17485 
L 258.450914 269.459209 
L 258.557441 165.96344 
L 258.646214 92.341919 
L 258.708355 103.47266 
L 259.312009 326.363449 
L 259.507309 367.157627 
L 259.56945 367.570799 
L 259.631591 367.358835 
L 259.897909 365.271985 
L 260.421668 359.416213 
L 261.291641 346.612058 
L 262.525582 329.385512 
L 263.200255 319.214643 
L 263.457695 311.549306 
L 263.626364 299.071754 
L 263.750645 269.079352 
L 263.857173 164.691813 
L 263.945945 92.321195 
L 264.008086 103.72581 
L 264.620618 330.714485 
L 264.807041 367.172317 
L 264.869182 367.570275 
L 264.922445 367.401071 
L 265.171009 365.50651 
L 265.685891 359.864014 
L 266.511477 347.825867 
L 267.807559 329.604821 
L 268.499986 319.197329 
L 268.757427 311.511793 
L 268.926095 298.968657 
L 269.050377 268.699496 
L 269.156905 163.429656 
L 269.245677 92.308078 
L 269.298941 101.351969 
L 269.8227 289.214634 
L 270.133405 367.48318 
L 270.168914 367.570012 
L 270.222177 367.396873 
L 270.470741 365.499165 
L 270.985623 359.853258 
L 271.802332 347.949688 
L 273.098414 329.708967 
L 273.790841 319.364435 
L 274.048282 311.868564 
L 274.21695 299.940072 
L 274.341232 272.215005 
L 274.438882 188.688567 
L 274.545409 92.303619 
L 274.598673 101.587805 
L 275.131309 292.979358 
L 275.424259 367.42127 
L 275.459768 367.570537 
L 275.521909 367.392676 
L 275.770473 365.491819 
L 276.285355 359.842765 
L 277.110941 347.800421 
L 278.389268 329.813112 
L 279.090573 319.347383 
L 279.348014 311.832625 
L 279.516682 299.843796 
L 279.640964 271.873973 
L 279.738614 187.510645 
L 279.845141 92.30493 
L 279.898405 101.824691 
L 280.439918 296.845868 
L 280.715114 367.337062 
L 280.7595 367.571062 
L 280.821641 367.388479 
L 281.079082 365.403938 
L 281.593964 359.718157 
L 282.428427 347.514742 
L 283.706755 329.572554 
L 284.390305 319.330331 
L 284.647745 311.796685 
L 284.816414 299.747258 
L 284.940695 271.530319 
L 285.038345 186.328026 
L 285.144873 92.3128 
L 285.198136 102.061839 
L 285.748527 300.81626 
L 286.014845 367.346768 
L 286.059232 367.571324 
L 286.121373 367.384019 
L 286.378814 365.396593 
L 286.893695 359.707664 
L 287.728159 347.50215 
L 289.006486 329.562061 
L 289.690036 319.313542 
L 289.947477 311.760746 
L 290.116145 299.650458 
L 290.240427 271.184303 
L 290.338077 185.144411 
L 290.444605 92.326966 
L 290.497868 102.299249 
L 291.057136 304.890537 
L 291.3057 367.239212 
L 291.358964 367.571586 
L 291.421105 367.379822 
L 291.678545 365.389248 
L 292.193427 359.697171 
L 293.027891 347.489558 
L 294.315095 329.436404 
L 294.989768 319.296491 
L 295.247209 311.724806 
L 295.415877 299.553133 
L 295.540159 270.83409 
L 295.637809 183.951011 
L 295.744336 92.346903 
L 295.7976 102.539545 
L 296.365745 309.06686 
L 296.605432 367.251279 
L 296.658695 367.571586 
L 296.720836 367.375624 
L 296.978277 365.381902 
L 297.493159 359.686678 
L 298.327623 347.477228 
L 299.60595 329.541074 
L 300.2895 319.279701 
L 300.546941 311.688604 
L 300.715609 299.453971 
L 300.839891 270.476269 
L 300.937541 182.742737 
L 301.044068 92.373661 
L 301.097332 102.782465 
L 301.674355 313.333687 
L 301.905164 367.263084 
L 301.958427 367.571586 
L 302.020568 367.371427 
L 302.286886 365.293234 
L 302.810645 359.446119 
L 303.671741 346.78336 
L 304.914559 329.415417 
L 305.589232 319.26265 
L 305.846673 311.65214 
L 306.015341 299.354285 
L 306.139623 270.115038 
L 306.24615 168.199767 
L 306.334923 92.395697 
L 306.397064 103.02827 
L 306.982964 317.673181 
L 307.196018 367.131131 
L 307.258159 367.571324 
L 307.3203 367.366967 
L 307.586618 365.285626 
L 308.110377 359.435364 
L 308.971473 346.770769 
L 310.214291 329.404662 
L 310.888964 319.245598 
L 311.146405 311.615414 
L 311.315073 299.25355 
L 311.439355 269.747774 
L 311.545882 166.942227 
L 311.634655 92.362906 
L 311.696795 103.277485 
L 312.291573 322.057796 
L 312.49575 367.146346 
L 312.557891 367.571062 
L 312.620032 367.362508 
L 312.88635 365.278019 
L 313.410109 359.424608 
L 314.280082 346.621764 
L 315.531777 329.163316 
L 316.188695 319.228022 
L 316.446136 311.578163 
L 316.614805 299.151502 
L 316.739086 269.373688 
L 316.845614 165.674482 
L 316.934386 92.336672 
L 316.996527 103.53011 
L 317.600182 326.449231 
L 317.795482 367.161037 
L 317.857623 367.570799 
L 317.910886 367.404219 
L 318.150573 365.591768 
L 318.665455 359.985474 
L 319.464409 348.382011 
L 320.787123 329.728117 
L 321.488427 319.210708 
L 321.745868 311.540649 
L 321.914536 299.048144 
L 322.038818 268.99252 
L 322.145345 164.402618 
L 322.234118 92.317522 
L 322.296259 103.783785 
L 322.908791 330.798956 
L 323.095214 367.175728 
L 323.157355 367.570275 
L 323.210618 367.400021 
L 323.459182 365.504936 
L 323.974064 359.861391 
L 324.790773 347.959394 
L 326.095732 329.602198 
L 326.779282 319.377551 
L 327.036723 311.896371 
L 327.205391 300.014312 
L 327.329673 272.477337 
L 327.427323 189.599278 
L 327.53385 92.306242 
L 327.595991 104.037723 
L 328.2174 335.052404 
L 328.403823 367.319223 
L 328.457086 367.56975 
L 328.51035 367.395824 
L 328.758914 365.497328 
L 329.273795 359.850897 
L 329.318182 359.276128 
L 329.335936 360.176976 
L 329.531236 364.171765 
L 329.620009 364.359857 
L 329.664395 364.302407 
L 329.815309 363.694846 
L 330.214786 360.874516 
L 332.176664 346.099724 
L 332.869091 342.873829 
L 333.428359 341.216416 
L 333.889977 340.472443 
L 334.262823 340.245264 
L 334.609036 340.28199 
L 335.061777 340.571342 
L 336.553159 341.662643 
L 337.156814 341.759443 
L 338.097805 341.649264 
L 339.580309 341.454613 
L 342.101455 341.490815 
L 345.723382 341.48688 
L 435.845455 341.488979 
L 435.845455 341.488979 
" clip-path="url(#p95c5f638c6)" style="fill: none; stroke: #1f77b4; stroke-width: 1.5; stroke-linecap: square"/>
   </g>
   <g id="line2d_14">
    <path d="M 80.754545 341.557972 
L 81.438095 338.138266 
L 82.112768 335.744298 
L 82.609895 334.69625 
L 82.956109 334.397578 
L 83.222427 334.432286 
L 83.5065 334.717648 
L 83.8971 335.467562 
L 85.663677 339.348012 
L 86.080909 339.586531 
L 86.498141 339.571431 
L 87.030777 339.308912 
L 89.507536 337.802075 
L 90.24435 337.779128 
L 91.274114 338.000261 
L 92.907532 338.330234 
L 94.185859 338.325064 
L 97.985332 338.170613 
L 103.178536 338.20186 
L 122.85945 338.204844 
L 151.772727 338.204828 
L 152.269855 296.085682 
L 152.385259 254.816904 
L 152.562805 68.466564 
L 152.704841 100.275731 
L 153.601445 362.857034 
L 153.707973 364.19003 
L 153.752359 364.090203 
L 153.903273 362.863269 
L 154.338259 357.074152 
L 155.146091 342.930883 
L 156.362277 318.239772 
L 156.628595 307.335352 
L 156.797264 290.404659 
L 156.921545 250.660836 
L 157.116845 95.485387 
L 157.23225 123.340752 
L 157.995695 358.616381 
L 158.164364 363.45352 
L 158.199873 363.408225 
L 158.20875 363.376406 
L 158.341909 362.343822 
L 158.741386 357.037105 
L 159.540341 343.072374 
L 160.792036 317.746979 
L 161.058355 306.621032 
L 161.227023 288.937718 
L 161.351305 246.439629 
L 161.537727 96.670204 
L 161.644255 120.456868 
L 162.434332 359.934139 
L 162.594123 363.392681 
L 162.647386 363.227362 
L 162.824932 361.589506 
L 163.304305 354.693019 
L 164.369577 335.368315 
L 165.204041 317.875107 
L 165.470359 306.924825 
L 165.639027 289.816601 
L 165.763309 249.597771 
L 165.958609 96.726201 
L 166.074014 124.941605 
L 166.828582 358.192056 
L 166.99725 363.379545 
L 167.015005 363.385476 
L 167.050514 363.290021 
L 167.19255 362.135704 
L 167.609782 356.473386 
L 168.462 341.403728 
L 169.6338 317.491552 
L 169.891241 306.666682 
L 170.059909 289.110659 
L 170.184191 247.136578 
L 170.370614 96.813371 
L 170.486018 123.249113 
L 171.258341 359.252603 
L 171.427009 363.387156 
L 171.480273 363.226438 
L 171.648941 361.696536 
L 172.119436 354.990508 
L 173.140323 336.53212 
L 174.045805 317.631062 
L 174.303245 306.960937 
L 174.471914 289.918719 
L 174.596195 249.959467 
L 174.791495 96.735456 
L 174.9069 124.727857 
L 175.661468 358.138203 
L 175.830136 363.378004 
L 175.847891 363.385358 
L 175.8834 363.292012 
L 176.025436 362.141452 
L 176.442668 356.481984 
L 177.294886 341.41401 
L 178.466686 317.508192 
L 178.724127 306.702127 
L 178.892795 289.20905 
L 179.017077 247.482266 
L 179.212377 96.796247 
L 179.318905 123.051193 
L 180.091227 359.210624 
L 180.259895 363.387254 
L 180.313159 363.22941 
L 180.481827 361.702974 
L 180.952323 354.999657 
L 181.973209 336.542572 
L 182.878691 317.647635 
L 183.145009 306.437662 
L 183.313677 288.470289 
L 183.437959 244.866857 
L 183.624382 96.737484 
L 183.730909 121.401506 
L 184.512109 359.514085 
L 184.6719 363.386673 
L 184.680777 363.385688 
L 184.742918 363.154937 
L 184.947095 361.126521 
L 185.470855 353.309429 
L 186.766936 329.480997 
L 187.326205 316.713687 
L 187.574768 305.57727 
L 187.734559 287.709522 
L 187.858841 242.135073 
L 188.045264 96.779823 
L 188.134036 116.755248 
L 188.959623 361.253225 
L 189.092782 363.387367 
L 189.119414 363.343915 
L 189.234818 362.552793 
L 189.581032 358.176963 
L 190.300091 345.962801 
L 191.684945 318.430334 
L 191.960141 307.565894 
L 192.128809 291.537538 
L 192.253091 255.470338 
L 192.457268 96.741761 
L 192.590427 130.735436 
L 193.309486 356.195523 
L 193.478155 363.317966 
L 193.513664 363.385983 
L 193.55805 363.256275 
L 193.717841 361.863125 
L 194.170582 355.515481 
L 195.12045 338.45736 
L 196.123582 317.802391 
L 196.3899 306.771823 
L 196.558568 289.401265 
L 196.68285 248.155557 
L 196.87815 96.765445 
L 196.984677 122.661005 
L 197.757 359.126804 
L 197.925668 363.387485 
L 197.978932 363.235368 
L 198.1476 361.715832 
L 198.618095 355.017914 
L 199.630105 336.728507 
L 200.544464 317.68066 
L 200.810782 306.509397 
L 200.97945 288.671891 
L 201.103732 245.58505 
L 201.290155 96.749136 
L 201.396682 121.010524 
L 202.186759 360.030827 
L 202.34655 363.386244 
L 202.408691 363.161682 
L 202.603991 361.248301 
L 203.118873 353.627483 
L 204.361691 330.851868 
L 204.9831 317.022846 
L 205.240541 305.652839 
L 205.400332 287.915727 
L 205.524614 242.878129 
L 205.711036 96.754231 
L 205.808686 119.383417 
L 206.607641 360.284476 
L 206.758555 363.387529 
L 206.767432 363.383145 
L 206.83845 363.077577 
L 207.060382 360.756397 
L 207.610773 352.348712 
L 209.022259 326.105477 
L 209.466123 314.843944 
L 209.696932 302.694452 
L 209.847845 281.393839 
L 209.96325 226.358834 
L 210.123041 96.759634 
L 210.202936 111.980021 
L 211.090664 362.70238 
L 211.179436 363.386485 
L 211.223823 363.261683 
L 211.383614 361.875713 
L 211.836355 355.533601 
L 212.786223 338.478368 
L 213.798232 317.574583 
L 214.055673 306.842367 
L 214.224341 289.594778 
L 214.348623 248.831743 
L 214.543923 96.745393 
L 214.65045 122.2642 
L 215.43165 359.684708 
L 215.591441 363.387531 
L 215.600318 363.383777 
L 215.671336 363.081535 
L 215.893268 360.763702 
L 216.443659 352.358624 
L 217.855145 326.117199 
L 218.299009 314.864301 
L 218.529818 302.741882 
L 218.680732 281.533957 
L 218.796136 226.848079 
L 218.955927 96.772847 
L 219.035823 111.799091 
L 219.932427 362.851663 
L 220.012323 363.386704 
L 220.065586 363.219239 
L 220.243132 361.578461 
L 220.722505 354.678462 
L 221.787777 335.352134 
L 222.622241 317.852032 
L 222.888559 306.878201 
L 223.057227 289.692926 
L 223.181509 249.174313 
L 223.376809 96.739096 
L 223.483336 122.063541 
L 224.264536 359.645533 
L 224.424327 363.387474 
L 224.433205 363.384359 
L 224.495345 363.143383 
L 224.699523 361.103501 
L 225.223282 353.277697 
L 226.519364 329.445055 
L 227.078632 316.6549 
L 227.327195 305.449111 
L 227.486986 287.35724 
L 227.602391 246.67079 
L 227.788814 96.7885 
L 227.895341 120.410889 
L 228.685418 359.92047 
L 228.845209 363.386914 
L 228.898473 363.22237 
L 229.076018 361.585223 
L 229.555391 354.687987 
L 230.620664 335.362926 
L 231.455127 317.868893 
L 231.721445 306.914199 
L 231.890114 289.791424 
L 232.014395 249.517241 
L 232.209695 96.735345 
L 232.3251 124.997206 
L 233.079668 358.205566 
L 233.248336 363.379309 
L 233.266091 363.384876 
L 233.3016 363.288882 
L 233.443636 362.133588 
L 233.860868 356.470403 
L 234.713086 341.400185 
L 235.876009 317.74819 
L 236.142327 306.655347 
L 236.310995 289.0796 
L 236.435277 247.028124 
L 236.6217 96.807744 
L 236.728227 120.211792 
L 237.527182 360.424324 
L 237.678095 363.387071 
L 237.686973 363.380067 
L 237.757991 363.06067 
L 237.9888 360.612088 
L 238.548068 352.000136 
L 239.986186 325.1414 
L 240.403418 314.111708 
L 240.62535 301.733641 
L 240.776264 278.493167 
L 240.891668 216.171867 
L 241.042582 96.735181 
L 241.104723 107.395538 
L 242.081223 363.378317 
L 242.098977 363.385244 
L 242.134486 363.291266 
L 242.276523 362.139577 
L 242.693755 356.479222 
L 243.545973 341.410713 
L 244.717773 317.502934 
L 244.975214 306.691 
L 245.143882 289.178282 
L 245.268164 247.374387 
L 245.463464 96.801882 
L 245.569991 123.113086 
L 246.342314 359.223813 
L 246.510982 363.38722 
L 246.564245 363.228473 
L 246.732914 361.700949 
L 247.203409 354.99678 
L 248.224295 336.539286 
L 249.129777 317.64243 
L 249.396095 306.426344 
L 249.564764 288.438448 
L 249.689045 244.753282 
L 249.875468 96.736677 
L 249.981995 121.463234 
L 250.763195 359.526558 
L 250.922986 363.386772 
L 250.931864 363.385586 
L 250.994005 363.153868 
L 251.198182 361.12437 
L 251.721941 353.306462 
L 253.018023 329.477638 
L 253.577291 316.708211 
L 253.825855 305.565357 
L 253.985645 287.67685 
L 254.109927 242.017219 
L 254.29635 96.784855 
L 254.385123 116.813792 
L 255.210709 361.26095 
L 255.343868 363.387328 
L 255.3705 363.343357 
L 255.485905 362.551102 
L 255.832118 358.174357 
L 256.551177 345.959532 
L 257.936032 318.425347 
L 258.211227 307.555385 
L 258.379895 291.509901 
L 258.504177 255.377829 
L 258.708355 96.7401 
L 258.841514 130.800162 
L 259.560573 356.216122 
L 259.729241 363.318838 
L 259.76475 363.385896 
L 259.809136 363.255429 
L 259.968927 361.861167 
L 260.421668 355.512665 
L 261.371536 338.454097 
L 262.374668 317.797273 
L 262.640986 306.76084 
L 262.809655 289.371047 
L 262.933936 248.049773 
L 263.129236 96.769635 
L 263.235764 122.722786 
L 264.008086 359.140186 
L 264.176755 363.387456 
L 264.230018 363.234426 
L 264.398686 361.713792 
L 264.869182 355.015016 
L 265.890068 336.560121 
L 266.79555 317.675417 
L 267.061868 306.498015 
L 267.230536 288.639927 
L 267.354818 245.471423 
L 267.541241 96.746425 
L 267.647768 121.072779 
L 268.437845 360.042107 
L 268.597636 363.386166 
L 268.659777 363.160612 
L 268.855077 361.24615 
L 269.369959 353.624496 
L 270.612777 330.848512 
L 271.234186 317.017404 
L 271.491627 305.6408 
L 271.651418 287.88294 
L 271.7757 242.760096 
L 271.962123 96.757505 
L 272.059773 119.444403 
L 272.858727 360.294989 
L 273.009641 363.387521 
L 273.018518 363.38294 
L 273.089536 363.076338 
L 273.311468 360.754115 
L 273.861859 352.345617 
L 275.273345 326.101818 
L 275.717209 314.837585 
L 275.948018 302.679629 
L 276.098932 281.349907 
L 276.214336 226.205224 
L 276.374127 96.756028 
L 276.445145 109.321244 
L 277.386136 363.26106 
L 277.430523 363.386411 
L 277.483786 363.215144 
L 277.661332 361.569636 
L 278.140705 354.666032 
L 279.205977 335.338057 
L 280.040441 317.830012 
L 280.306759 306.831076 
L 280.475427 289.563829 
L 280.599709 248.723665 
L 280.795009 96.74792 
L 280.901536 122.327663 
L 281.682736 359.697042 
L 281.842527 363.387541 
L 281.851405 363.383586 
L 281.922423 363.080284 
L 282.144355 360.761385 
L 282.694745 352.355479 
L 284.106232 326.113479 
L 284.550095 314.857842 
L 284.780905 302.726835 
L 284.931818 281.489574 
L 285.047223 226.693191 
L 285.207014 96.768376 
L 285.286909 111.856319 
L 286.174636 362.694612 
L 286.263409 363.386635 
L 286.307795 363.263555 
L 286.467586 361.880102 
L 286.920327 355.539923 
L 287.870195 338.4857 
L 288.882205 317.586213 
L 289.139645 306.866866 
L 289.308314 289.661891 
L 289.432595 249.066017 
L 289.627895 96.740778 
L 289.734423 122.126918 
L 290.515623 359.657947 
L 290.675414 363.387499 
L 290.684291 363.384181 
L 290.746432 363.142235 
L 290.950609 361.101259 
L 291.474368 353.274613 
L 292.77045 329.441559 
L 293.329718 316.649166 
L 293.578282 305.43658 
L 293.738073 287.322504 
L 293.853477 246.556805 
L 294.0399 96.783261 
L 294.146427 120.474051 
L 294.936505 359.932263 
L 295.096295 363.386855 
L 295.149559 363.221388 
L 295.327105 361.583095 
L 295.806477 354.684988 
L 296.87175 335.359527 
L 297.706214 317.863583 
L 297.972532 306.902866 
L 298.1412 289.760423 
L 298.265482 249.409395 
L 298.460782 96.736189 
L 298.576186 125.062068 
L 299.330755 358.221715 
L 299.499423 363.379588 
L 299.517177 363.384726 
L 299.552686 363.288096 
L 299.694723 362.131664 
L 300.111955 356.467578 
L 300.964173 341.396813 
L 302.127095 317.742878 
L 302.393414 306.643906 
L 302.562082 289.047909 
L 302.686364 246.916383 
L 302.872786 96.801315 
L 302.979314 120.274112 
L 303.769391 359.894809 
L 303.929182 363.387027 
L 303.982445 363.224489 
L 304.159991 361.589832 
L 304.639364 354.694484 
L 305.704636 335.370289 
L 306.5391 317.8804 
L 306.805418 306.938681 
L 306.974086 289.858134 
L 307.098368 249.749141 
L 307.293668 96.734997 
L 307.409073 124.85628 
L 308.163641 358.170457 
L 308.332309 363.378638 
L 308.350064 363.385136 
L 308.385573 363.290523 
L 308.527609 362.137699 
L 308.944841 356.476455 
L 309.797059 341.407408 
L 310.968859 317.497655 
L 311.2263 306.679825 
L 311.394968 289.147366 
L 311.51925 247.265959 
L 311.71455 96.807778 
L 311.821077 123.17535 
L 312.5934 359.237005 
L 312.762068 363.387175 
L 312.815332 363.227524 
L 312.984 361.698909 
L 313.454495 354.993884 
L 314.475382 336.535978 
L 315.380864 317.63719 
L 315.638305 306.973776 
L 315.806973 289.953689 
L 315.931255 250.08081 
L 316.126555 96.73612 
L 316.241959 124.653673 
L 317.005405 358.87426 
L 317.174073 363.386867 
L 317.218459 363.292869 
L 317.360495 362.143624 
L 317.777727 356.485185 
L 318.629945 341.417832 
L 319.801745 317.514283 
L 320.059186 306.715011 
L 320.227855 289.244668 
L 320.352136 247.607118 
L 320.547436 96.790037 
L 320.653964 122.979496 
L 321.426286 359.195318 
L 321.594955 363.387292 
L 321.648218 363.230495 
L 321.816886 361.705321 
L 322.287382 355.00299 
L 323.308268 336.54638 
L 324.21375 317.65367 
L 324.480068 306.450782 
L 324.648736 288.507193 
L 324.773018 244.99847 
L 324.959441 96.738743 
L 325.065968 121.330087 
L 325.847168 359.499617 
L 326.006959 363.386554 
L 326.015836 363.385803 
L 326.077977 363.156174 
L 326.273277 361.237266 
L 326.788159 353.612169 
L 328.030977 330.834661 
L 328.652386 316.994927 
L 328.909827 305.591061 
L 329.069618 287.747239 
L 329.1939 242.271105 
L 329.380323 98.315906 
L 329.469095 118.193866 
L 330.312436 367.362635 
L 330.481105 369.347367 
L 330.534368 369.341945 
L 330.569877 369.282402 
L 330.765177 368.579103 
L 331.226795 365.957544 
L 331.963609 360.357578 
L 333.943241 344.771269 
L 334.822091 339.846219 
L 335.558905 336.85925 
L 336.12705 335.374456 
L 336.544282 334.814689 
L 336.846109 334.726439 
L 337.121305 334.880973 
L 337.467518 335.363239 
L 338.009032 336.563799 
L 338.985532 338.692465 
L 339.491536 339.283033 
L 339.917645 339.46425 
L 340.370386 339.410645 
L 340.991795 339.084605 
L 342.971427 337.909959 
L 343.717118 337.804671 
L 344.613723 337.91959 
L 347.037218 338.336874 
L 348.617373 338.263864 
L 351.218414 338.163145 
L 361.995423 338.206311 
L 435.845455 338.204828 
L 435.845455 338.204828 
" clip-path="url(#p95c5f638c6)" style="fill: none; stroke: #ff0000; stroke-width: 1.5; stroke-linecap: square"/>
   </g>
   <g id="patch_3">
    <path d="M 63 384.48 
L 63 51.84 
" style="fill: none; stroke: #000000; stroke-width: 0.8; stroke-linejoin: miter; stroke-linecap: square"/>
   </g>
   <g id="patch_4">
    <path d="M 453.6 384.48 
L 453.6 51.84 
" style="fill: none; stroke: #000000; stroke-width: 0.8; stroke-linejoin: miter; stroke-linecap: square"/>
   </g>
   <g id="patch_5">
    <path d="M 63 384.48 
L 453.6 384.48 
" style="fill: none; stroke: #000000; stroke-width: 0.8; stroke-linejoin: miter; stroke-linecap: square"/>
   </g>
   <g id="patch_6">
    <path d="M 63 51.84 
L 453.6 51.84 
" style="fill: none; stroke: #000000; stroke-width: 0.8; stroke-linejoin: miter; stroke-linecap: square"/>
   </g>
   <g id="legend_1">
    <g id="patch_7">
     <path d="M 383.460938 89.19625 
L 446.6 89.19625 
Q 448.6 89.19625 448.6 87.19625 
L 448.6 58.84 
Q 448.6 56.84 446.6 56.84 
L 383.460938 56.84 
Q 381.460938 56.84 381.460938 58.84 
L 381.460938 87.19625 
Q 381.460938 89.19625 383.460938 89.19625 
z
" style="fill: #ffffff; opacity: 0.8; stroke: #cccccc; stroke-linejoin: miter"/>
    </g>
    <g id="line2d_15">
     <path d="M 385.460938 64.938437 
L 395.460938 64.938437 
L 405.460938 64.938437 
" style="fill: none; stroke: #1f77b4; stroke-width: 1.5; stroke-linecap: square"/>
    </g>
    <g id="text_15">
     <!-- target -->
     <g transform="translate(413.460938 68.438437)scale(0.1 -0.1)">
      <defs>
       <path id="DejaVuSans-72" d="M 2631 2963 
Q 2534 3019 2420 3045 
Q 2306 3072 2169 3072 
Q 1681 3072 1420 2755 
Q 1159 2438 1159 1844 
L 1159 0 
L 581 0 
L 581 3500 
L 1159 3500 
L 1159 2956 
Q 1341 3275 1631 3429 
Q 1922 3584 2338 3584 
Q 2397 3584 2469 3576 
Q 2541 3569 2628 3553 
L 2631 2963 
z
" transform="scale(0.015625)"/>
      </defs>
      <use xlink:href="#DejaVuSans-74"/>
      <use xlink:href="#DejaVuSans-61" x="39.208984"/>
      <use xlink:href="#DejaVuSans-72" x="100.488281"/>
      <use xlink:href="#DejaVuSans-67" x="139.851562"/>
      <use xlink:href="#DejaVuSans-65" x="203.328125"/>
      <use xlink:href="#DejaVuSans-74" x="264.851562"/>
     </g>
    </g>
    <g id="line2d_16">
     <path d="M 385.460938 79.616562 
L 395.460938 79.616562 
L 405.460938 79.616562 
" style="fill: none; stroke: #ff0000; stroke-width: 1.5; stroke-linecap: square"/>
    </g>
    <g id="text_16">
     <!-- model -->
     <g transform="translate(413.460938 83.116562)scale(0.1 -0.1)">
      <defs>
       <path id="DejaVuSans-64" d="M 2906 2969 
L 2906 4863 
L 3481 4863 
L 3481 0 
L 2906 0 
L 2906 525 
Q 2725 213 2448 61 
Q 2172 -91 1784 -91 
Q 1150 -91 751 415 
Q 353 922 353 1747 
Q 353 2572 751 3078 
Q 1150 3584 1784 3584 
Q 2172 3584 2448 3432 
Q 2725 3281 2906 2969 
z
M 947 1747 
Q 947 1113 1208 752 
Q 1469 391 1925 391 
Q 2381 391 2643 752 
Q 2906 1113 2906 1747 
Q 2906 2381 2643 2742 
Q 2381 3103 1925 3103 
Q 1469 3103 1208 2742 
Q 947 2381 947 1747 
z
" transform="scale(0.015625)"/>
      </defs>
      <use xlink:href="#DejaVuSans-6d"/>
      <use xlink:href="#DejaVuSans-6f" x="97.412109"/>
      <use xlink:href="#DejaVuSans-64" x="158.59375"/>
      <use xlink:href="#DejaVuSans-65" x="222.070312"/>
      <use xlink:href="#DejaVuSans-6c" x="283.59375"/>
     </g>
    </g>
   </g>
  </g>
 </g>
 <defs>
  <clipPath id="p95c5f638c6">
   <rect x="63" y="51.84" width="390.6" height="332.64"/>
  </clipPath>
 </defs>
</svg>
