<?xml version="1.0" encoding="utf-8" standalone="no"?>
<!DOCTYPE svg PUBLIC "-//W3C//DTD SVG 1.1//EN"
  "http://www.w3.org/Graphics/SVG/1.1/DTD/svg11.dtd">
<svg xmlns:xlink="http://www.w3.org/1999/xlink" width="504pt" height="432pt" viewBox="0 0 504 432" xmlns="http://www.w3.org/2000/svg" version="1.1">
 <metadata>
  <rdf:RDF xmlns:dc="http://purl.org/dc/elements/1.1/" xmlns:cc="http://creativecommons.org/ns#" xmlns:rdf="http://www.w3.org/1999/02/22-rdf-syntax-ns#">
   <cc:Work>
    <dc:type rdf:resource="http://purl.org/dc/dcmitype/StillImage"/>
    <dc:date>2022-01-31T18:25:49.761950</dc:date>
    <dc:format>image/svg+xml</dc:format>
    <dc:creator>
     <cc:Agent>
      <dc:title>Matplotlib v3.5.1, https://matplotlib.org/</dc:title>
     </cc:Agent>
    </dc:creator>
   </cc:Work>
  </rdf:RDF>
 </metadata>
 <defs>
  <style type="text/css">*{stroke-linejoin: round; stroke-linecap: butt}</style>
 </defs>
 <g id="figure_1">
  <g id="patch_1">
   <path d="M 0 432 
L 504 432 
L 504 0 
L 0 0 
z
" style="fill: #ffffff"/>
  </g>
  <g id="axes_1">
   <g id="patch_2">
    <path d="M 63 384.48 
L 453.6 384.48 
L 453.6 51.84 
L 63 51.84 
z
" style="fill: #ffffff"/>
   </g>
   <g id="matplotlib.axis_1">
    <g id="xtick_1">
     <g id="line2d_1">
      <defs>
       <path id="m6f675fbafa" d="M 0 0 
L 0 3.5 
" style="stroke: #000000; stroke-width: 0.8"/>
      </defs>
      <g>
       <use xlink:href="#m6f675fbafa" x="80.754545" y="384.48" style="stroke: #000000; stroke-width: 0.8"/>
      </g>
     </g>
     <g id="text_1">
      <!-- 0 -->
      <g transform="translate(77.573295 399.078438)scale(0.1 -0.1)">
       <defs>
        <path id="DejaVuSans-30" d="M 2034 4250 
Q 1547 4250 1301 3770 
Q 1056 3291 1056 2328 
Q 1056 1369 1301 889 
Q 1547 409 2034 409 
Q 2525 409 2770 889 
Q 3016 1369 3016 2328 
Q 3016 3291 2770 3770 
Q 2525 4250 2034 4250 
z
M 2034 4750 
Q 2819 4750 3233 4129 
Q 3647 3509 3647 2328 
Q 3647 1150 3233 529 
Q 2819 -91 2034 -91 
Q 1250 -91 836 529 
Q 422 1150 422 2328 
Q 422 3509 836 4129 
Q 1250 4750 2034 4750 
z
" transform="scale(0.015625)"/>
       </defs>
       <use xlink:href="#DejaVuSans-30"/>
      </g>
     </g>
    </g>
    <g id="xtick_2">
     <g id="line2d_2">
      <g>
       <use xlink:href="#m6f675fbafa" x="151.772727" y="384.48" style="stroke: #000000; stroke-width: 0.8"/>
      </g>
     </g>
     <g id="text_2">
      <!-- 200 -->
      <g transform="translate(142.228977 399.078438)scale(0.1 -0.1)">
       <defs>
        <path id="DejaVuSans-32" d="M 1228 531 
L 3431 531 
L 3431 0 
L 469 0 
L 469 531 
Q 828 903 1448 1529 
Q 2069 2156 2228 2338 
Q 2531 2678 2651 2914 
Q 2772 3150 2772 3378 
Q 2772 3750 2511 3984 
Q 2250 4219 1831 4219 
Q 1534 4219 1204 4116 
Q 875 4013 500 3803 
L 500 4441 
Q 881 4594 1212 4672 
Q 1544 4750 1819 4750 
Q 2544 4750 2975 4387 
Q 3406 4025 3406 3419 
Q 3406 3131 3298 2873 
Q 3191 2616 2906 2266 
Q 2828 2175 2409 1742 
Q 1991 1309 1228 531 
z
" transform="scale(0.015625)"/>
       </defs>
       <use xlink:href="#DejaVuSans-32"/>
       <use xlink:href="#DejaVuSans-30" x="63.623047"/>
       <use xlink:href="#DejaVuSans-30" x="127.246094"/>
      </g>
     </g>
    </g>
    <g id="xtick_3">
     <g id="line2d_3">
      <g>
       <use xlink:href="#m6f675fbafa" x="222.790909" y="384.48" style="stroke: #000000; stroke-width: 0.8"/>
      </g>
     </g>
     <g id="text_3">
      <!-- 400 -->
      <g transform="translate(213.247159 399.078438)scale(0.1 -0.1)">
       <defs>
        <path id="DejaVuSans-34" d="M 2419 4116 
L 825 1625 
L 2419 1625 
L 2419 4116 
z
M 2253 4666 
L 3047 4666 
L 3047 1625 
L 3713 1625 
L 3713 1100 
L 3047 1100 
L 3047 0 
L 2419 0 
L 2419 1100 
L 313 1100 
L 313 1709 
L 2253 4666 
z
" transform="scale(0.015625)"/>
       </defs>
       <use xlink:href="#DejaVuSans-34"/>
       <use xlink:href="#DejaVuSans-30" x="63.623047"/>
       <use xlink:href="#DejaVuSans-30" x="127.246094"/>
      </g>
     </g>
    </g>
    <g id="xtick_4">
     <g id="line2d_4">
      <g>
       <use xlink:href="#m6f675fbafa" x="293.809091" y="384.48" style="stroke: #000000; stroke-width: 0.8"/>
      </g>
     </g>
     <g id="text_4">
      <!-- 600 -->
      <g transform="translate(284.265341 399.078438)scale(0.1 -0.1)">
       <defs>
        <path id="DejaVuSans-36" d="M 2113 2584 
Q 1688 2584 1439 2293 
Q 1191 2003 1191 1497 
Q 1191 994 1439 701 
Q 1688 409 2113 409 
Q 2538 409 2786 701 
Q 3034 994 3034 1497 
Q 3034 2003 2786 2293 
Q 2538 2584 2113 2584 
z
M 3366 4563 
L 3366 3988 
Q 3128 4100 2886 4159 
Q 2644 4219 2406 4219 
Q 1781 4219 1451 3797 
Q 1122 3375 1075 2522 
Q 1259 2794 1537 2939 
Q 1816 3084 2150 3084 
Q 2853 3084 3261 2657 
Q 3669 2231 3669 1497 
Q 3669 778 3244 343 
Q 2819 -91 2113 -91 
Q 1303 -91 875 529 
Q 447 1150 447 2328 
Q 447 3434 972 4092 
Q 1497 4750 2381 4750 
Q 2619 4750 2861 4703 
Q 3103 4656 3366 4563 
z
" transform="scale(0.015625)"/>
       </defs>
       <use xlink:href="#DejaVuSans-36"/>
       <use xlink:href="#DejaVuSans-30" x="63.623047"/>
       <use xlink:href="#DejaVuSans-30" x="127.246094"/>
      </g>
     </g>
    </g>
    <g id="xtick_5">
     <g id="line2d_5">
      <g>
       <use xlink:href="#m6f675fbafa" x="364.827273" y="384.48" style="stroke: #000000; stroke-width: 0.8"/>
      </g>
     </g>
     <g id="text_5">
      <!-- 800 -->
      <g transform="translate(355.283523 399.078438)scale(0.1 -0.1)">
       <defs>
        <path id="DejaVuSans-38" d="M 2034 2216 
Q 1584 2216 1326 1975 
Q 1069 1734 1069 1313 
Q 1069 891 1326 650 
Q 1584 409 2034 409 
Q 2484 409 2743 651 
Q 3003 894 3003 1313 
Q 3003 1734 2745 1975 
Q 2488 2216 2034 2216 
z
M 1403 2484 
Q 997 2584 770 2862 
Q 544 3141 544 3541 
Q 544 4100 942 4425 
Q 1341 4750 2034 4750 
Q 2731 4750 3128 4425 
Q 3525 4100 3525 3541 
Q 3525 3141 3298 2862 
Q 3072 2584 2669 2484 
Q 3125 2378 3379 2068 
Q 3634 1759 3634 1313 
Q 3634 634 3220 271 
Q 2806 -91 2034 -91 
Q 1263 -91 848 271 
Q 434 634 434 1313 
Q 434 1759 690 2068 
Q 947 2378 1403 2484 
z
M 1172 3481 
Q 1172 3119 1398 2916 
Q 1625 2713 2034 2713 
Q 2441 2713 2670 2916 
Q 2900 3119 2900 3481 
Q 2900 3844 2670 4047 
Q 2441 4250 2034 4250 
Q 1625 4250 1398 4047 
Q 1172 3844 1172 3481 
z
" transform="scale(0.015625)"/>
       </defs>
       <use xlink:href="#DejaVuSans-38"/>
       <use xlink:href="#DejaVuSans-30" x="63.623047"/>
       <use xlink:href="#DejaVuSans-30" x="127.246094"/>
      </g>
     </g>
    </g>
    <g id="text_6">
     <!-- time [ms] -->
     <g transform="translate(234.038281 412.756563)scale(0.1 -0.1)">
      <defs>
       <path id="DejaVuSans-74" d="M 1172 4494 
L 1172 3500 
L 2356 3500 
L 2356 3053 
L 1172 3053 
L 1172 1153 
Q 1172 725 1289 603 
Q 1406 481 1766 481 
L 2356 481 
L 2356 0 
L 1766 0 
Q 1100 0 847 248 
Q 594 497 594 1153 
L 594 3053 
L 172 3053 
L 172 3500 
L 594 3500 
L 594 4494 
L 1172 4494 
z
" transform="scale(0.015625)"/>
       <path id="DejaVuSans-69" d="M 603 3500 
L 1178 3500 
L 1178 0 
L 603 0 
L 603 3500 
z
M 603 4863 
L 1178 4863 
L 1178 4134 
L 603 4134 
L 603 4863 
z
" transform="scale(0.015625)"/>
       <path id="DejaVuSans-6d" d="M 3328 2828 
Q 3544 3216 3844 3400 
Q 4144 3584 4550 3584 
Q 5097 3584 5394 3201 
Q 5691 2819 5691 2113 
L 5691 0 
L 5113 0 
L 5113 2094 
Q 5113 2597 4934 2840 
Q 4756 3084 4391 3084 
Q 3944 3084 3684 2787 
Q 3425 2491 3425 1978 
L 3425 0 
L 2847 0 
L 2847 2094 
Q 2847 2600 2669 2842 
Q 2491 3084 2119 3084 
Q 1678 3084 1418 2786 
Q 1159 2488 1159 1978 
L 1159 0 
L 581 0 
L 581 3500 
L 1159 3500 
L 1159 2956 
Q 1356 3278 1631 3431 
Q 1906 3584 2284 3584 
Q 2666 3584 2933 3390 
Q 3200 3197 3328 2828 
z
" transform="scale(0.015625)"/>
       <path id="DejaVuSans-65" d="M 3597 1894 
L 3597 1613 
L 953 1613 
Q 991 1019 1311 708 
Q 1631 397 2203 397 
Q 2534 397 2845 478 
Q 3156 559 3463 722 
L 3463 178 
Q 3153 47 2828 -22 
Q 2503 -91 2169 -91 
Q 1331 -91 842 396 
Q 353 884 353 1716 
Q 353 2575 817 3079 
Q 1281 3584 2069 3584 
Q 2775 3584 3186 3129 
Q 3597 2675 3597 1894 
z
M 3022 2063 
Q 3016 2534 2758 2815 
Q 2500 3097 2075 3097 
Q 1594 3097 1305 2825 
Q 1016 2553 972 2059 
L 3022 2063 
z
" transform="scale(0.015625)"/>
       <path id="DejaVuSans-20" transform="scale(0.015625)"/>
       <path id="DejaVuSans-5b" d="M 550 4863 
L 1875 4863 
L 1875 4416 
L 1125 4416 
L 1125 -397 
L 1875 -397 
L 1875 -844 
L 550 -844 
L 550 4863 
z
" transform="scale(0.015625)"/>
       <path id="DejaVuSans-73" d="M 2834 3397 
L 2834 2853 
Q 2591 2978 2328 3040 
Q 2066 3103 1784 3103 
Q 1356 3103 1142 2972 
Q 928 2841 928 2578 
Q 928 2378 1081 2264 
Q 1234 2150 1697 2047 
L 1894 2003 
Q 2506 1872 2764 1633 
Q 3022 1394 3022 966 
Q 3022 478 2636 193 
Q 2250 -91 1575 -91 
Q 1294 -91 989 -36 
Q 684 19 347 128 
L 347 722 
Q 666 556 975 473 
Q 1284 391 1588 391 
Q 1994 391 2212 530 
Q 2431 669 2431 922 
Q 2431 1156 2273 1281 
Q 2116 1406 1581 1522 
L 1381 1569 
Q 847 1681 609 1914 
Q 372 2147 372 2553 
Q 372 3047 722 3315 
Q 1072 3584 1716 3584 
Q 2034 3584 2315 3537 
Q 2597 3491 2834 3397 
z
" transform="scale(0.015625)"/>
       <path id="DejaVuSans-5d" d="M 1947 4863 
L 1947 -844 
L 622 -844 
L 622 -397 
L 1369 -397 
L 1369 4416 
L 622 4416 
L 622 4863 
L 1947 4863 
z
" transform="scale(0.015625)"/>
      </defs>
      <use xlink:href="#DejaVuSans-74"/>
      <use xlink:href="#DejaVuSans-69" x="39.208984"/>
      <use xlink:href="#DejaVuSans-6d" x="66.992188"/>
      <use xlink:href="#DejaVuSans-65" x="164.404297"/>
      <use xlink:href="#DejaVuSans-20" x="225.927734"/>
      <use xlink:href="#DejaVuSans-5b" x="257.714844"/>
      <use xlink:href="#DejaVuSans-6d" x="296.728516"/>
      <use xlink:href="#DejaVuSans-73" x="394.140625"/>
      <use xlink:href="#DejaVuSans-5d" x="446.240234"/>
     </g>
    </g>
   </g>
   <g id="matplotlib.axis_2">
    <g id="ytick_1">
     <g id="line2d_6">
      <defs>
       <path id="m6298aa9d28" d="M 0 0 
L -3.5 0 
" style="stroke: #000000; stroke-width: 0.8"/>
      </defs>
      <g>
       <use xlink:href="#m6298aa9d28" x="63" y="378.772423" style="stroke: #000000; stroke-width: 0.8"/>
      </g>
     </g>
     <g id="text_7">
      <!-- −80 -->
      <g transform="translate(34.895313 382.571641)scale(0.1 -0.1)">
       <defs>
        <path id="DejaVuSans-2212" d="M 678 2272 
L 4684 2272 
L 4684 1741 
L 678 1741 
L 678 2272 
z
" transform="scale(0.015625)"/>
       </defs>
       <use xlink:href="#DejaVuSans-2212"/>
       <use xlink:href="#DejaVuSans-38" x="83.789062"/>
       <use xlink:href="#DejaVuSans-30" x="147.412109"/>
      </g>
     </g>
    </g>
    <g id="ytick_2">
     <g id="line2d_7">
      <g>
       <use xlink:href="#m6298aa9d28" x="63" y="328.619225" style="stroke: #000000; stroke-width: 0.8"/>
      </g>
     </g>
     <g id="text_8">
      <!-- −60 -->
      <g transform="translate(34.895313 332.418444)scale(0.1 -0.1)">
       <use xlink:href="#DejaVuSans-2212"/>
       <use xlink:href="#DejaVuSans-36" x="83.789062"/>
       <use xlink:href="#DejaVuSans-30" x="147.412109"/>
      </g>
     </g>
    </g>
    <g id="ytick_3">
     <g id="line2d_8">
      <g>
       <use xlink:href="#m6298aa9d28" x="63" y="278.466027" style="stroke: #000000; stroke-width: 0.8"/>
      </g>
     </g>
     <g id="text_9">
      <!-- −40 -->
      <g transform="translate(34.895313 282.265246)scale(0.1 -0.1)">
       <use xlink:href="#DejaVuSans-2212"/>
       <use xlink:href="#DejaVuSans-34" x="83.789062"/>
       <use xlink:href="#DejaVuSans-30" x="147.412109"/>
      </g>
     </g>
    </g>
    <g id="ytick_4">
     <g id="line2d_9">
      <g>
       <use xlink:href="#m6298aa9d28" x="63" y="228.31283" style="stroke: #000000; stroke-width: 0.8"/>
      </g>
     </g>
     <g id="text_10">
      <!-- −20 -->
      <g transform="translate(34.895313 232.112049)scale(0.1 -0.1)">
       <use xlink:href="#DejaVuSans-2212"/>
       <use xlink:href="#DejaVuSans-32" x="83.789062"/>
       <use xlink:href="#DejaVuSans-30" x="147.412109"/>
      </g>
     </g>
    </g>
    <g id="ytick_5">
     <g id="line2d_10">
      <g>
       <use xlink:href="#m6298aa9d28" x="63" y="178.159632" style="stroke: #000000; stroke-width: 0.8"/>
      </g>
     </g>
     <g id="text_11">
      <!-- 0 -->
      <g transform="translate(49.6375 181.958851)scale(0.1 -0.1)">
       <use xlink:href="#DejaVuSans-30"/>
      </g>
     </g>
    </g>
    <g id="ytick_6">
     <g id="line2d_11">
      <g>
       <use xlink:href="#m6298aa9d28" x="63" y="128.006435" style="stroke: #000000; stroke-width: 0.8"/>
      </g>
     </g>
     <g id="text_12">
      <!-- 20 -->
      <g transform="translate(43.275 131.805653)scale(0.1 -0.1)">
       <use xlink:href="#DejaVuSans-32"/>
       <use xlink:href="#DejaVuSans-30" x="63.623047"/>
      </g>
     </g>
    </g>
    <g id="ytick_7">
     <g id="line2d_12">
      <g>
       <use xlink:href="#m6298aa9d28" x="63" y="77.853237" style="stroke: #000000; stroke-width: 0.8"/>
      </g>
     </g>
     <g id="text_13">
      <!-- 40 -->
      <g transform="translate(43.275 81.652456)scale(0.1 -0.1)">
       <use xlink:href="#DejaVuSans-34"/>
       <use xlink:href="#DejaVuSans-30" x="63.623047"/>
      </g>
     </g>
    </g>
    <g id="text_14">
     <!-- voltage [mV] -->
     <g transform="translate(28.815625 250.624062)rotate(-90)scale(0.1 -0.1)">
      <defs>
       <path id="DejaVuSans-76" d="M 191 3500 
L 800 3500 
L 1894 563 
L 2988 3500 
L 3597 3500 
L 2284 0 
L 1503 0 
L 191 3500 
z
" transform="scale(0.015625)"/>
       <path id="DejaVuSans-6f" d="M 1959 3097 
Q 1497 3097 1228 2736 
Q 959 2375 959 1747 
Q 959 1119 1226 758 
Q 1494 397 1959 397 
Q 2419 397 2687 759 
Q 2956 1122 2956 1747 
Q 2956 2369 2687 2733 
Q 2419 3097 1959 3097 
z
M 1959 3584 
Q 2709 3584 3137 3096 
Q 3566 2609 3566 1747 
Q 3566 888 3137 398 
Q 2709 -91 1959 -91 
Q 1206 -91 779 398 
Q 353 888 353 1747 
Q 353 2609 779 3096 
Q 1206 3584 1959 3584 
z
" transform="scale(0.015625)"/>
       <path id="DejaVuSans-6c" d="M 603 4863 
L 1178 4863 
L 1178 0 
L 603 0 
L 603 4863 
z
" transform="scale(0.015625)"/>
       <path id="DejaVuSans-61" d="M 2194 1759 
Q 1497 1759 1228 1600 
Q 959 1441 959 1056 
Q 959 750 1161 570 
Q 1363 391 1709 391 
Q 2188 391 2477 730 
Q 2766 1069 2766 1631 
L 2766 1759 
L 2194 1759 
z
M 3341 1997 
L 3341 0 
L 2766 0 
L 2766 531 
Q 2569 213 2275 61 
Q 1981 -91 1556 -91 
Q 1019 -91 701 211 
Q 384 513 384 1019 
Q 384 1609 779 1909 
Q 1175 2209 1959 2209 
L 2766 2209 
L 2766 2266 
Q 2766 2663 2505 2880 
Q 2244 3097 1772 3097 
Q 1472 3097 1187 3025 
Q 903 2953 641 2809 
L 641 3341 
Q 956 3463 1253 3523 
Q 1550 3584 1831 3584 
Q 2591 3584 2966 3190 
Q 3341 2797 3341 1997 
z
" transform="scale(0.015625)"/>
       <path id="DejaVuSans-67" d="M 2906 1791 
Q 2906 2416 2648 2759 
Q 2391 3103 1925 3103 
Q 1463 3103 1205 2759 
Q 947 2416 947 1791 
Q 947 1169 1205 825 
Q 1463 481 1925 481 
Q 2391 481 2648 825 
Q 2906 1169 2906 1791 
z
M 3481 434 
Q 3481 -459 3084 -895 
Q 2688 -1331 1869 -1331 
Q 1566 -1331 1297 -1286 
Q 1028 -1241 775 -1147 
L 775 -588 
Q 1028 -725 1275 -790 
Q 1522 -856 1778 -856 
Q 2344 -856 2625 -561 
Q 2906 -266 2906 331 
L 2906 616 
Q 2728 306 2450 153 
Q 2172 0 1784 0 
Q 1141 0 747 490 
Q 353 981 353 1791 
Q 353 2603 747 3093 
Q 1141 3584 1784 3584 
Q 2172 3584 2450 3431 
Q 2728 3278 2906 2969 
L 2906 3500 
L 3481 3500 
L 3481 434 
z
" transform="scale(0.015625)"/>
       <path id="DejaVuSans-56" d="M 1831 0 
L 50 4666 
L 709 4666 
L 2188 738 
L 3669 4666 
L 4325 4666 
L 2547 0 
L 1831 0 
z
" transform="scale(0.015625)"/>
      </defs>
      <use xlink:href="#DejaVuSans-76"/>
      <use xlink:href="#DejaVuSans-6f" x="59.179688"/>
      <use xlink:href="#DejaVuSans-6c" x="120.361328"/>
      <use xlink:href="#DejaVuSans-74" x="148.144531"/>
      <use xlink:href="#DejaVuSans-61" x="187.353516"/>
      <use xlink:href="#DejaVuSans-67" x="248.632812"/>
      <use xlink:href="#DejaVuSans-65" x="312.109375"/>
      <use xlink:href="#DejaVuSans-20" x="373.632812"/>
      <use xlink:href="#DejaVuSans-5b" x="405.419922"/>
      <use xlink:href="#DejaVuSans-6d" x="444.433594"/>
      <use xlink:href="#DejaVuSans-56" x="541.845703"/>
      <use xlink:href="#DejaVuSans-5d" x="610.253906"/>
     </g>
    </g>
   </g>
   <g id="line2d_13">
    <path d="M 80.754545 341.157524 
L 81.988486 341.026625 
L 83.852714 341.084802 
L 87.918505 341.088564 
L 151.772727 341.091573 
L 152.314241 298.557148 
L 152.420768 252.094473 
L 152.562805 78.66622 
L 152.678209 102.757309 
L 153.565936 366.461819 
L 153.610323 366.365775 
L 153.8145 365.048502 
L 154.293873 360.50713 
L 154.959668 351.793262 
L 157.42755 314.639272 
L 157.613973 304.009051 
L 157.738255 283.024702 
L 157.835905 223.262654 
L 157.969064 101.939059 
L 158.031205 114.50394 
L 158.883423 366.05633 
L 158.945564 365.881045 
L 159.203005 363.990269 
L 159.717886 358.570715 
L 160.534595 347.17641 
L 161.8218 329.856003 
L 162.514227 319.952502 
L 162.771668 312.767805 
L 162.940336 301.312063 
L 163.064618 274.594953 
L 163.162268 193.965739 
L 163.268795 102.818245 
L 163.322059 111.906506 
L 163.863573 298.291336 
L 164.147645 365.887565 
L 164.183155 366.025988 
L 164.245295 365.852708 
L 164.493859 364.034153 
L 165.008741 358.633406 
L 165.834327 347.121492 
L 167.112655 329.92722 
L 167.813959 319.918648 
L 168.0714 312.724674 
L 168.240068 301.231316 
L 168.36435 274.359734 
L 168.462 193.253438 
L 168.568527 102.891719 
L 168.621791 112.118654 
L 169.172182 302.066618 
L 169.4385 365.805564 
L 169.482886 366.023981 
L 169.545027 365.846941 
L 169.802468 363.948391 
L 170.31735 358.511785 
L 171.151814 346.845399 
L 172.430141 329.695262 
L 173.113691 319.901095 
L 173.371132 312.689817 
L 173.5398 301.139787 
L 173.664082 274.036748 
L 173.761732 192.153553 
L 173.868259 102.907768 
L 173.921523 112.344093 
L 174.480791 305.955998 
L 174.729355 365.700995 
L 174.782618 366.023981 
L 174.844759 365.842928 
L 175.1022 363.94137 
L 175.617082 358.501503 
L 176.451545 346.833111 
L 177.729873 329.684981 
L 178.413423 319.885046 
L 178.670864 312.655462 
L 178.839532 301.047003 
L 178.963814 273.705235 
L 179.061464 191.02147 
L 179.167991 102.924319 
L 179.221255 112.572039 
L 179.7894 309.94393 
L 180.029086 365.712781 
L 180.08235 366.024232 
L 180.144491 365.838665 
L 180.401932 363.934348 
L 180.916814 358.491473 
L 181.751277 346.821325 
L 183.029605 329.67495 
L 183.713155 319.868746 
L 183.970595 312.620857 
L 184.139264 300.953217 
L 184.263545 273.365949 
L 184.361195 189.869476 
L 184.467723 102.947139 
L 184.520986 112.803496 
L 185.098009 314.019629 
L 185.328818 365.724316 
L 185.382082 366.024232 
L 185.444223 365.834653 
L 185.701664 363.927076 
L 186.216545 358.481442 
L 187.051009 346.809288 
L 188.329336 329.664919 
L 189.012886 319.852697 
L 189.270327 312.586 
L 189.438995 300.857926 
L 189.563277 273.021647 
L 189.660927 188.712893 
L 189.767455 102.975475 
L 189.820718 113.03721 
L 190.406618 318.16429 
L 190.619673 365.596425 
L 190.681814 366.023981 
L 190.743955 365.83039 
L 191.010273 363.842317 
L 191.525155 358.361576 
L 192.368495 346.536455 
L 193.637945 329.544552 
L 194.312618 319.836146 
L 194.570059 312.551144 
L 194.738727 300.762133 
L 194.863009 272.674085 
L 194.969536 174.788961 
L 195.058309 102.962686 
L 195.12045 113.273431 
L 195.715227 322.353085 
L 195.919405 365.611221 
L 195.981545 366.023981 
L 196.043686 365.826127 
L 196.310005 363.835045 
L 196.833764 358.241208 
L 197.703736 346.003577 
L 198.955432 329.314098 
L 199.61235 319.819847 
L 199.869791 312.515786 
L 200.038459 300.665337 
L 200.162741 272.319502 
L 200.269268 173.581999 
L 200.358041 102.9346 
L 200.420182 113.513665 
L 201.023836 326.550656 
L 201.219136 365.625263 
L 201.281277 366.02348 
L 201.343418 365.821864 
L 201.609736 363.827773 
L 202.133495 358.230676 
L 202.994591 346.121437 
L 204.255164 329.303816 
L 204.912082 319.803045 
L 205.169523 312.479926 
L 205.338191 300.567037 
L 205.462473 271.957647 
L 205.569 172.366938 
L 205.657773 102.913285 
L 205.719914 113.755654 
L 206.332445 330.711115 
L 206.518868 365.639306 
L 206.581009 366.023229 
L 206.634273 365.861987 
L 206.873959 364.12794 
L 207.388841 358.767064 
L 208.187795 347.67418 
L 209.510509 329.843465 
L 210.202936 319.962532 
L 210.460377 312.819212 
L 210.629045 301.487348 
L 210.753327 275.270266 
L 210.850977 196.412061 
L 210.957505 102.898741 
L 211.019645 113.998647 
L 211.641055 334.782802 
L 211.827477 365.778481 
L 211.880741 366.022728 
L 211.934005 365.857974 
L 212.182568 364.044685 
L 212.69745 358.648452 
L 213.514159 347.270196 
L 214.810241 329.833183 
L 215.502668 319.946233 
L 215.760109 312.784858 
L 215.928777 301.395317 
L 216.053059 274.946025 
L 216.150709 195.28562 
L 216.257236 102.892723 
L 216.319377 114.241137 
L 216.949664 338.705033 
L 217.127209 365.788512 
L 217.171595 366.023229 
L 217.233736 365.853962 
L 217.4823 364.037664 
L 217.997182 358.638422 
L 218.822768 347.12751 
L 220.101095 329.932737 
L 220.8024 319.929933 
L 221.059841 312.750753 
L 221.228509 301.303537 
L 221.352791 274.620531 
L 221.450441 194.159731 
L 221.556968 102.893224 
L 221.610232 111.941864 
L 222.151745 298.344247 
L 222.426941 365.798041 
L 222.471327 366.02348 
L 222.533468 365.84995 
L 222.782032 364.030643 
L 223.296914 358.628391 
L 224.1225 347.115223 
L 225.418582 329.703036 
L 226.111009 319.736843 
L 226.36845 312.33724 
L 226.537118 300.172081 
L 226.652523 274.292529 
L 226.750173 193.029353 
L 226.8567 102.898992 
L 226.909964 112.168807 
L 227.460355 302.138588 
L 227.726673 365.80732 
L 227.771059 366.023981 
L 227.8332 365.845938 
L 228.090641 363.946636 
L 228.605523 358.509277 
L 229.439986 346.842389 
L 230.718314 329.692754 
L 231.401864 319.897333 
L 231.659305 312.681793 
L 231.827973 301.118722 
L 231.952255 273.96227 
L 232.049905 191.898775 
L 232.156432 102.911279 
L 232.209695 112.3955 
L 232.768964 306.030977 
L 233.017527 365.703753 
L 233.070791 366.023981 
L 233.132932 365.841925 
L 233.390373 363.939614 
L 233.905255 358.499246 
L 234.739718 346.830353 
L 236.018045 329.682724 
L 236.701595 319.881284 
L 236.959036 312.647689 
L 237.127705 301.025939 
L 237.251986 273.629002 
L 237.349636 190.761727 
L 237.456164 102.928833 
L 237.509427 112.624449 
L 238.077573 310.021166 
L 238.317259 365.715288 
L 238.370523 366.024232 
L 238.432664 365.837913 
L 238.698982 363.855106 
L 239.213864 358.379631 
L 240.057205 346.55777 
L 241.317777 329.672693 
L 242.001327 319.865235 
L 242.258768 312.613083 
L 242.427436 300.931651 
L 242.551718 273.287961 
L 242.649368 189.607049 
L 242.755895 102.953157 
L 242.809159 112.856408 
L 243.386182 314.098621 
L 243.616991 365.726824 
L 243.670255 366.024232 
L 243.732395 365.83365 
L 243.989836 363.925572 
L 244.504718 358.479185 
L 245.348059 346.676132 
L 246.617509 329.662412 
L 247.301059 319.848935 
L 247.5585 312.578226 
L 247.727168 300.836109 
L 247.85145 272.943157 
L 247.9491 188.449338 
L 248.055627 102.982998 
L 248.108891 113.090623 
L 248.694791 318.245036 
L 248.907845 365.599936 
L 248.969986 366.023981 
L 249.032127 365.829638 
L 249.298445 363.840813 
L 249.822205 358.249233 
L 250.692177 346.013106 
L 251.943873 329.322122 
L 252.600791 319.832385 
L 252.858232 312.543119 
L 253.0269 300.740066 
L 253.151182 272.59384 
L 253.257709 174.514172 
L 253.346482 102.955665 
L 253.408623 113.328098 
L 254.0034 322.435336 
L 254.207577 365.614481 
L 254.269718 366.023731 
L 254.331859 365.825375 
L 254.598177 363.83354 
L 255.121936 358.238701 
L 255.983032 346.130966 
L 257.22585 329.532013 
L 257.900523 319.816085 
L 258.157964 312.507761 
L 258.326632 300.643019 
L 258.450914 272.237502 
L 258.557441 173.304728 
L 258.646214 102.929084 
L 258.708355 113.569084 
L 259.312009 326.632908 
L 259.507309 365.628523 
L 259.56945 366.02348 
L 259.631591 365.820861 
L 259.897909 363.826017 
L 260.421668 358.228419 
L 261.291641 345.988782 
L 262.525582 329.521732 
L 263.200255 319.799284 
L 263.457695 312.471902 
L 263.626364 300.544468 
L 263.750645 271.874393 
L 263.857173 172.089164 
L 263.945945 102.909273 
L 264.008086 113.811074 
L 264.620618 330.792112 
L 264.807041 365.642566 
L 264.869182 366.022978 
L 264.922445 365.861234 
L 265.171009 364.050202 
L 265.685891 358.656477 
L 266.511477 347.149076 
L 267.807559 329.731372 
L 268.499986 319.782733 
L 268.757427 312.436042 
L 268.926095 300.445917 
L 269.050377 271.511284 
L 269.156905 170.882654 
L 269.245677 102.896735 
L 269.298941 111.541892 
L 269.8227 291.121936 
L 270.133405 365.939724 
L 270.168914 366.022728 
L 270.222177 365.857222 
L 270.470741 364.043181 
L 270.985623 358.646195 
L 271.802332 347.267438 
L 273.098414 329.830926 
L 273.790841 319.942471 
L 274.048282 312.777084 
L 274.21695 301.374504 
L 274.341232 274.871799 
L 274.438882 195.027933 
L 274.545409 102.892472 
L 274.598673 111.767331 
L 275.131309 294.720679 
L 275.424259 365.880543 
L 275.459768 366.023229 
L 275.521909 365.85321 
L 275.770473 364.036159 
L 276.285355 358.636165 
L 277.110941 347.124752 
L 278.389268 329.93048 
L 279.090573 319.926171 
L 279.348014 312.742729 
L 279.516682 301.282472 
L 279.640964 274.545803 
L 279.738614 193.901944 
L 279.845141 102.893726 
L 279.898405 111.993773 
L 280.439918 298.416719 
L 280.715114 365.800047 
L 280.7595 366.023731 
L 280.821641 365.849197 
L 281.079082 363.952153 
L 281.593964 358.517051 
L 282.428427 346.851668 
L 283.706755 329.700528 
L 284.390305 319.909872 
L 284.647745 312.708374 
L 284.816414 301.190191 
L 284.940695 274.217299 
L 285.038345 192.771465 
L 285.144873 102.901249 
L 285.198136 112.220465 
L 285.748527 302.212062 
L 286.014845 365.809326 
L 286.059232 366.023981 
L 286.121373 365.844934 
L 286.378814 363.945131 
L 286.902573 358.397435 
L 287.754791 346.448687 
L 289.006486 329.690497 
L 289.690036 319.893823 
L 289.947477 312.674019 
L 290.116145 301.097658 
L 290.240427 273.886539 
L 290.338077 191.640034 
L 290.444605 102.91479 
L 290.497868 112.447408 
L 291.057136 306.106709 
L 291.3057 365.706512 
L 291.358964 366.024232 
L 291.421105 365.840922 
L 291.678545 363.93811 
L 292.193427 358.496989 
L 293.027891 346.827594 
L 294.315095 329.57038 
L 294.989768 319.877523 
L 295.247209 312.639664 
L 295.415877 301.004624 
L 295.540159 273.551766 
L 295.637809 190.49925 
L 295.744336 102.933848 
L 295.7976 112.67711 
L 296.365745 310.098903 
L 296.605432 365.718047 
L 296.658695 366.024232 
L 296.720836 365.83691 
L 296.978277 363.931088 
L 297.493159 358.486959 
L 298.327623 346.815808 
L 299.60595 329.670436 
L 300.2895 319.861474 
L 300.546941 312.605058 
L 300.715609 300.909834 
L 300.839891 273.209722 
L 300.937541 189.344247 
L 301.044068 102.959426 
L 301.097332 112.909319 
L 301.674355 314.177612 
L 301.905164 365.729331 
L 301.958427 366.024232 
L 302.020568 365.832898 
L 302.286886 363.84633 
L 302.810645 358.257006 
L 303.671741 346.152532 
L 304.914559 329.550319 
L 305.589232 319.845174 
L 305.846673 312.570202 
L 306.015341 300.814543 
L 306.139623 272.864417 
L 306.24615 175.442457 
L 306.334923 102.980491 
L 306.397064 113.144287 
L 306.982964 318.325783 
L 307.196018 365.603196 
L 307.258159 366.023981 
L 307.3203 365.828635 
L 307.586618 363.839057 
L 308.110377 358.246725 
L 308.971473 346.140495 
L 310.214291 329.540038 
L 310.888964 319.828874 
L 311.146405 312.535095 
L 311.315073 300.718249 
L 311.439355 272.513344 
L 311.545882 174.240361 
L 311.634655 102.949145 
L 311.696795 113.382515 
L 312.291573 322.517086 
L 312.49575 365.61774 
L 312.557891 366.023731 
L 312.620032 365.824372 
L 312.88635 363.831785 
L 313.410109 358.236444 
L 314.280082 345.99806 
L 315.531777 329.309333 
L 316.188695 319.812073 
L 316.446136 312.499486 
L 316.614805 300.620701 
L 316.739086 272.155752 
L 316.845614 173.028509 
L 316.934386 102.924068 
L 316.996527 113.624002 
L 317.600182 326.714908 
L 317.795482 365.631783 
L 317.857623 366.02348 
L 317.910886 365.864243 
L 318.15945 364.055719 
L 318.674332 358.66425 
L 319.491041 347.289004 
L 320.796 329.739146 
L 321.488427 319.795522 
L 321.745868 312.463626 
L 321.914536 300.521899 
L 322.038818 271.791389 
L 322.145345 171.81272 
L 322.234118 102.905762 
L 322.296259 113.866493 
L 322.908791 330.872859 
L 323.095214 365.645826 
L 323.157355 366.022978 
L 323.210618 365.860231 
L 323.459182 364.048698 
L 323.974064 358.653969 
L 324.790773 347.276716 
L 326.095732 329.728865 
L 326.779282 319.955009 
L 327.036723 312.803665 
L 327.205391 301.44547 
L 327.329673 275.122565 
L 327.427323 195.898492 
L 327.53385 102.894979 
L 327.595991 114.109234 
L 328.2174 334.938779 
L 328.403823 365.782995 
L 328.457086 366.022477 
L 328.51035 365.856219 
L 328.758914 364.041425 
L 329.273795 358.643938 
L 329.318182 358.09451 
L 329.335936 358.95564 
L 329.531236 362.774305 
L 329.620009 362.954104 
L 329.664395 362.899186 
L 329.815309 362.318412 
L 330.214786 359.622427 
L 332.176664 345.499036 
L 332.869091 342.415367 
L 333.428359 340.831027 
L 333.889977 340.119855 
L 334.262823 339.902691 
L 334.617914 339.941059 
L 335.115041 340.257024 
L 336.473264 341.229745 
L 337.121305 341.349611 
L 338.133314 341.238522 
L 339.926523 341.046686 
L 342.163595 341.094582 
L 345.918682 341.089567 
L 435.845455 341.091573 
L 435.845455 341.091573 
" clip-path="url(#pb4ca85e244)" style="fill: none; stroke: #1f77b4; stroke-width: 1.5; stroke-linecap: square"/>
   </g>
   <g id="line2d_14">
    <path d="M 80.754545 341.157524 
L 81.642273 326.468555 
L 81.802064 316.807831 
L 81.917468 293.064773 
L 81.988486 226.087119 
L 82.086136 66.96 
L 82.166032 75.316193 
L 82.387964 133.480914 
L 83.195795 369.36 
L 83.249059 369.288732 
L 83.559764 368.28705 
L 84.021382 366.058414 
L 84.58065 362.138558 
L 85.601536 352.988204 
L 86.799968 343.068767 
L 88.087173 332.698435 
L 88.371245 328.072129 
L 88.557668 321.151429 
L 88.690827 306.535348 
L 88.7796 267.420925 
L 88.912759 68.275467 
L 89.054795 91.22776 
L 89.640695 265.816932 
L 90.013541 369.348019 
L 90.084559 369.219039 
L 90.457405 367.924031 
L 90.9279 365.460183 
L 91.522677 361.027448 
L 95.100218 329.757168 
L 95.313273 323.914424 
L 95.464186 312.634173 
L 95.561836 286.956482 
L 95.632855 200.455439 
L 95.721627 68.276865 
L 95.783768 74.355699 
L 95.987945 126.081183 
L 96.822409 369.34798 
L 96.88455 369.245427 
L 97.230764 368.077478 
L 97.701259 365.689399 
L 98.287159 361.413112 
L 101.855823 330.686164 
L 102.086632 325.350066 
L 102.246423 315.897813 
L 102.35295 295.3333 
L 102.432845 223.425218 
L 102.530495 68.284946 
L 102.610391 77.089393 
L 102.8412 139.446345 
L 103.631277 369.347979 
L 103.675664 369.290418 
L 103.959736 368.395584 
L 104.412477 366.273906 
L 104.962868 362.508966 
L 105.886105 354.309879 
L 107.164432 343.549792 
L 108.540409 332.427538 
L 108.815605 327.752928 
L 109.002027 320.345029 
L 109.126309 305.707017 
L 109.215082 263.641176 
L 109.339364 68.31086 
L 109.4814 90.034462 
L 110.022914 251.296741 
L 110.440145 369.347738 
L 110.537795 369.159956 
L 110.937273 367.714243 
L 111.416645 365.092915 
L 112.038055 360.306931 
L 114.630218 338.753797 
L 115.304891 332.96873 
L 115.597841 328.418738 
L 115.793141 321.526005 
L 115.9263 307.802373 
L 116.015073 273.006865 
L 116.094968 115.533306 
L 116.157109 68.325404 
L 116.21925 75.010207 
L 116.423427 127.338655 
L 117.249014 369.347219 
L 117.311155 369.257235 
L 117.648491 368.132851 
L 118.110109 365.826236 
L 118.687132 361.673972 
L 119.92995 350.48995 
L 121.083995 341.348394 
L 122.096005 333.185166 
L 122.397832 328.649981 
L 122.593132 322.10538 
L 122.726291 309.646827 
L 122.823941 274.271923 
L 122.903836 119.655297 
L 122.965977 68.295256 
L 123.028118 74.746291 
L 123.232295 126.83665 
L 124.066759 369.34755 
L 124.120023 369.261093 
L 124.448482 368.174706 
L 124.9101 365.889016 
L 125.478245 361.833077 
L 126.623414 351.526167 
L 127.777459 342.204073 
L 128.931505 332.904519 
L 129.224455 328.290929 
L 129.419755 321.197309 
L 129.552914 306.708272 
L 129.641686 268.226412 
L 129.774845 68.279532 
L 129.925759 93.250457 
L 130.564923 286.056542 
L 130.875627 369.347873 
L 130.893382 369.333685 
L 131.06205 368.880308 
L 131.497036 367.111306 
L 132.003041 364.031971 
L 132.713223 358.134907 
L 134.515309 342.739466 
L 135.74925 332.820623 
L 136.0422 328.122018 
L 136.228623 321.290475 
L 136.361782 307.020872 
L 136.450555 269.619841 
L 136.583714 68.278596 
L 136.734627 92.850177 
L 137.364914 282.33175 
L 137.684495 369.348003 
L 137.720005 369.306809 
L 137.968568 368.554725 
L 138.421309 366.516479 
L 138.953945 362.987473 
L 139.797286 355.615605 
L 141.191018 343.743192 
L 142.602505 332.307351 
L 142.8777 327.506467 
L 143.055245 320.288237 
L 143.179527 305.520074 
L 143.2683 262.759468 
L 143.392582 68.294777 
L 143.525741 88.111963 
L 143.978482 223.564584 
L 144.493364 369.347898 
L 144.591014 369.157512 
L 144.990491 367.710357 
L 145.469864 365.087188 
L 146.091273 360.299312 
L 148.683436 338.747331 
L 149.349232 333.058823 
L 149.642182 328.595675 
L 149.837482 321.970964 
L 149.970641 309.227331 
L 150.068291 272.303085 
L 150.157064 94.637129 
L 150.20145 68.32833 
L 150.272468 75.154449 
L 150.485523 130.366605 
L 151.302232 369.347539 
L 151.355495 369.276006 
L 151.6662 368.269389 
L 151.772727 367.833792 
L 151.950273 363.777941 
L 152.820245 353.791419 
L 154.284995 332.75344 
L 154.5957 325.069334 
L 154.773245 314.486766 
L 154.88865 291.57443 
L 154.968545 216.72264 
L 155.066195 73.164096 
L 155.137214 81.511749 
L 155.385777 152.677714 
L 156.122591 367.85744 
L 156.1581 367.782754 
L 156.406664 366.461557 
L 156.868282 362.863791 
L 157.454182 356.311574 
L 158.812405 337.61376 
L 159.309532 328.679626 
L 159.531464 320.391553 
L 159.6735 305.499248 
L 159.762273 270.772406 
L 159.851045 105.799355 
L 159.904309 73.299309 
L 159.975327 82.063806 
L 160.223891 153.698943 
L 160.960705 367.849412 
L 160.996214 367.764069 
L 161.253655 366.375772 
L 161.715273 362.735253 
L 162.31005 356.024397 
L 163.712659 336.621244 
L 164.1654 328.102992 
L 164.378455 319.580044 
L 164.511614 304.645528 
L 164.600386 267.253216 
L 164.733545 73.373717 
L 164.884459 100.111086 
L 165.576886 322.344367 
L 165.772186 367.817507 
L 165.789941 367.850479 
L 165.843205 367.71244 
L 166.153909 365.939605 
L 166.624405 362.00136 
L 167.254691 354.58173 
L 168.737195 333.569352 
L 169.074532 325.853064 
L 169.260955 315.908538 
L 169.376359 296.949527 
L 169.456255 243.057691 
L 169.571659 73.306257 
L 169.660432 85.736355 
L 169.980014 182.003354 
L 170.628055 367.849106 
L 170.681318 367.693946 
L 171.009777 365.78773 
L 171.48915 361.688183 
L 172.137191 353.934549 
L 173.619695 332.706839 
L 173.9304 325.078783 
L 174.107945 314.65727 
L 174.22335 292.454015 
L 174.303245 221.621538 
L 174.400895 73.373824 
L 174.480791 82.934602 
L 174.747109 160.835967 
L 175.457291 367.850464 
L 175.501677 367.747435 
L 175.78575 366.175671 
L 176.256245 362.351245 
L 176.868777 355.27922 
L 178.333527 334.754533 
L 178.706373 326.975675 
L 178.901673 318.061441 
L 179.025955 301.727701 
L 179.114727 254.164768 
L 179.239009 73.306285 
L 179.354414 91.97518 
L 179.922559 263.277992 
L 180.295405 367.849097 
L 180.3753 367.573686 
L 180.757023 365.213681 
L 181.25415 360.663412 
L 181.964332 351.776766 
L 183.375818 330.994108 
L 183.642136 323.311208 
L 183.801927 311.689508 
L 183.908455 284.736247 
L 183.98835 182.591026 
L 184.068245 73.373403 
L 184.130386 79.584206 
L 184.343441 137.945277 
L 185.124641 367.850464 
L 185.169027 367.747386 
L 185.4531 366.175586 
L 185.923595 362.351118 
L 186.536127 355.279051 
L 188.000877 334.754322 
L 188.373723 326.975286 
L 188.569023 318.060486 
L 188.693305 301.724616 
L 188.782077 254.150164 
L 188.906359 73.306299 
L 189.021764 91.978368 
L 189.589909 263.281791 
L 189.962755 367.849089 
L 190.04265 367.573626 
L 190.424373 365.213587 
L 190.9215 360.663274 
L 191.631682 351.776592 
L 193.043168 330.993847 
L 193.309486 323.310653 
L 193.469277 311.687923 
L 193.575805 284.729853 
L 193.6557 182.559026 
L 193.735595 73.372986 
L 193.797736 79.586442 
L 194.010791 137.949381 
L 194.791991 367.850464 
L 194.836377 367.747337 
L 195.12045 366.175502 
L 195.590945 362.350992 
L 196.203477 355.278883 
L 197.668227 334.754113 
L 198.041073 326.9749 
L 198.236373 318.059536 
L 198.360655 301.721548 
L 198.449427 254.135637 
L 198.573709 73.306313 
L 198.689114 91.98154 
L 199.257259 263.28557 
L 199.630105 367.849081 
L 199.71 367.573566 
L 200.091723 365.213493 
L 200.58885 360.663138 
L 201.299032 351.77642 
L 202.710518 330.993587 
L 202.976836 323.310101 
L 203.136627 311.686346 
L 203.243155 284.723492 
L 203.32305 182.52719 
L 203.402945 73.372571 
L 203.465086 79.588667 
L 203.678141 137.953464 
L 204.459341 367.850464 
L 204.503727 367.747288 
L 204.7878 366.175417 
L 205.258295 362.350867 
L 205.870827 355.278715 
L 207.335577 334.753904 
L 207.708423 326.974515 
L 207.903723 318.058591 
L 208.028005 301.718494 
L 208.116777 254.121181 
L 208.241059 73.306329 
L 208.356464 91.984698 
L 208.924609 263.289333 
L 209.297455 367.849073 
L 209.37735 367.573506 
L 209.759073 365.213399 
L 210.2562 360.663002 
L 210.966382 351.776248 
L 212.377868 330.993328 
L 212.644186 323.309552 
L 212.803977 311.684776 
L 212.910505 284.717159 
L 212.9904 182.495497 
L 213.070295 73.37216 
L 213.132436 79.590882 
L 213.345491 137.95753 
L 214.126691 367.850464 
L 214.171077 367.747239 
L 214.45515 366.175334 
L 214.925645 362.350742 
L 215.538177 355.278548 
L 217.002927 334.753697 
L 217.375773 326.974132 
L 217.571073 318.05765 
L 217.695355 301.715454 
L 217.784127 254.106785 
L 217.908409 73.306345 
L 218.023814 91.987842 
L 218.591959 263.29308 
L 218.964805 367.849065 
L 219.0447 367.573447 
L 219.426423 365.213305 
L 219.92355 360.662867 
L 220.633732 351.776077 
L 222.045218 330.993071 
L 222.311536 323.309004 
L 222.471327 311.683212 
L 222.577855 284.710852 
L 222.65775 182.46393 
L 222.737645 73.371751 
L 222.799786 79.59309 
L 223.012841 137.961581 
L 223.794041 367.850463 
L 223.82955 367.779154 
L 224.069236 366.514073 
L 224.521977 363.025223 
L 225.099 356.643342 
L 226.403959 338.765471 
L 226.95435 329.328724 
L 227.185159 321.382979 
L 227.336073 307.113264 
L 227.433723 270.793689 
L 227.522495 105.877097 
L 227.575759 73.306362 
L 227.646777 82.065786 
L 227.895341 153.707333 
L 228.632155 367.849057 
L 228.667664 367.763603 
L 228.925105 366.375109 
L 229.386723 362.734262 
L 229.9815 356.02306 
L 231.384109 336.619767 
L 231.83685 328.100593 
L 232.049905 319.574591 
L 232.183064 304.628728 
L 232.271836 267.182822 
L 232.404995 73.371345 
L 232.555909 100.134527 
L 233.248336 322.387995 
L 233.443636 367.817842 
L 233.461391 367.850463 
L 233.514655 367.712064 
L 233.825359 365.93899 
L 234.295855 362.000452 
L 234.926141 354.580531 
L 236.408645 333.567794 
L 236.745982 325.850042 
L 236.932405 315.900526 
L 237.047809 296.922282 
L 237.127705 242.934407 
L 237.243109 73.30638 
L 237.331882 85.75585 
L 237.651464 182.031255 
L 238.299505 367.84905 
L 238.352768 367.693574 
L 238.681227 365.78712 
L 239.1606 361.687285 
L 239.808641 353.933374 
L 241.291145 332.705239 
L 241.60185 325.075581 
L 241.779395 314.648561 
L 241.8948 292.421207 
L 241.974695 221.458252 
L 242.072345 73.370941 
L 242.152241 82.952488 
L 242.418559 160.864492 
L 243.128741 367.850463 
L 243.173127 367.747094 
L 243.4572 366.175084 
L 243.927695 362.35037 
L 244.540227 355.278051 
L 246.004977 334.753078 
L 246.377823 326.97299 
L 246.573123 318.054846 
L 246.697405 301.706391 
L 246.786177 254.063878 
L 246.910459 73.306399 
L 247.025864 91.997219 
L 247.594009 263.304253 
L 247.966855 367.849042 
L 248.04675 367.573269 
L 248.428473 365.213027 
L 248.9256 360.662463 
L 249.635782 351.775567 
L 251.047268 330.992303 
L 251.313586 323.307373 
L 251.473377 311.678549 
L 251.579905 284.692041 
L 251.6598 182.369793 
L 251.739695 73.37054 
L 251.801836 79.599676 
L 252.014891 137.973667 
L 252.796091 367.850463 
L 252.8316 367.779024 
L 253.071286 366.513837 
L 253.524027 363.02487 
L 254.10105 356.642862 
L 255.406009 338.764926 
L 255.9564 329.327818 
L 256.187209 321.380952 
L 256.338123 307.106705 
L 256.435773 270.764469 
L 256.524545 105.806479 
L 256.577809 73.306419 
L 256.648827 82.073159 
L 256.897391 153.719486 
L 257.634205 367.849034 
L 257.669714 367.763469 
L 257.927155 366.374873 
L 258.388773 362.733909 
L 258.98355 356.022583 
L 260.386159 336.619205 
L 260.8389 328.099601 
L 261.051955 319.572223 
L 261.185114 304.621263 
L 261.273886 267.15124 
L 261.407045 73.37014 
L 261.557959 100.144827 
L 262.250386 322.406849 
L 262.445686 367.817993 
L 262.463441 367.850463 
L 262.516705 367.711908 
L 262.827409 365.938732 
L 263.297905 362.000073 
L 263.928191 354.58003 
L 265.410695 333.56714 
L 265.748032 325.848768 
L 265.934455 315.897142 
L 266.049859 296.910767 
L 266.129755 242.882274 
L 266.245159 73.306441 
L 266.333932 85.764092 
L 266.653514 182.043042 
L 267.301555 367.849026 
L 267.354818 367.693417 
L 267.683277 365.786863 
L 268.16265 361.686906 
L 268.810691 353.932878 
L 270.293195 332.704564 
L 270.6039 325.07423 
L 270.781445 314.644885 
L 270.89685 292.407359 
L 270.976745 221.389317 
L 271.074395 73.369742 
L 271.154291 82.960047 
L 271.420609 160.876545 
L 272.130791 367.850463 
L 272.175177 367.74695 
L 272.45925 366.174836 
L 272.929745 362.35 
L 273.542277 355.277557 
L 275.007027 334.752462 
L 275.379873 326.971856 
L 275.575173 318.05206 
L 275.699455 301.697385 
L 275.788227 254.021232 
L 275.912509 73.306468 
L 276.027914 92.006527 
L 276.596059 263.315344 
L 276.968905 367.849018 
L 277.0488 367.573093 
L 277.430523 365.21275 
L 277.92765 360.662062 
L 278.637832 351.77506 
L 280.049318 330.991541 
L 280.315636 323.305753 
L 280.475427 311.67392 
L 280.581955 284.673362 
L 280.66185 182.276315 
L 280.741745 73.369347 
L 280.803886 79.606222 
L 281.016941 137.985675 
L 281.798141 367.850462 
L 281.83365 367.778895 
L 282.073336 366.513603 
L 282.526077 363.02452 
L 283.1031 356.642385 
L 284.408059 338.764383 
L 284.95845 329.326917 
L 285.189259 321.378938 
L 285.340173 307.100187 
L 285.437823 270.735428 
L 285.526595 105.736698 
L 285.579859 73.306496 
L 285.650877 82.080468 
L 285.899441 153.731528 
L 286.636255 367.84901 
L 286.671764 367.763336 
L 286.929205 366.374638 
L 287.390823 362.733559 
L 287.9856 356.02211 
L 289.388209 336.618648 
L 289.84095 328.098617 
L 290.054005 319.569876 
L 290.187164 304.613862 
L 290.275936 267.119928 
L 290.409095 73.368955 
L 290.560009 100.155046 
L 291.252436 322.425558 
L 291.447736 367.818143 
L 291.465491 367.850462 
L 291.518755 367.711753 
L 291.829459 365.938477 
L 292.299955 361.999697 
L 292.930241 354.579532 
L 294.412745 333.56649 
L 294.750082 325.847504 
L 294.936505 315.893785 
L 295.051909 296.89934 
L 295.131805 242.830538 
L 295.247209 73.306525 
L 295.335982 85.772239 
L 295.655564 182.054692 
L 296.303605 367.849002 
L 296.356868 367.693261 
L 296.685327 365.786609 
L 297.1647 361.686532 
L 297.812741 353.932388 
L 299.295245 332.703896 
L 299.60595 325.072894 
L 299.783495 314.641251 
L 299.8989 292.393664 
L 299.978795 221.32114 
L 300.076445 73.368566 
L 300.156341 82.967527 
L 300.422659 160.888471 
L 301.132841 367.850462 
L 301.177227 367.746807 
L 301.4613 366.174591 
L 301.931795 362.349634 
L 302.544327 355.277069 
L 304.009077 334.751854 
L 304.381923 326.970733 
L 304.577223 318.049302 
L 304.701505 301.688463 
L 304.790277 253.97896 
L 304.914559 73.306553 
L 305.029964 92.015729 
L 305.598109 263.32631 
L 305.970955 367.848995 
L 306.05085 367.572919 
L 306.432573 365.212477 
L 306.9297 360.661666 
L 307.639882 351.774559 
L 309.051368 330.990788 
L 309.317686 323.304151 
L 309.477477 311.669342 
L 309.584005 284.654891 
L 309.6639 182.183874 
L 309.743795 73.368178 
L 309.805936 79.612701 
L 310.018991 137.997556 
L 310.800191 367.850462 
L 310.8357 367.778767 
L 311.075386 366.513371 
L 311.528127 363.024173 
L 312.10515 356.641912 
L 313.410109 338.763846 
L 313.9605 329.326026 
L 314.191309 321.376944 
L 314.342223 307.093731 
L 314.439873 270.706585 
L 314.528645 105.667582 
L 314.581909 73.306582 
L 314.652927 82.087719 
L 314.901491 153.743474 
L 315.638305 367.848986 
L 315.673814 367.763204 
L 315.940132 366.317932 
L 316.40175 362.648876 
L 316.996527 355.907868 
L 318.408014 336.349329 
L 318.843 328.097641 
L 319.056055 319.567548 
L 319.189214 304.606522 
L 319.277986 267.088868 
L 319.411145 73.367797 
L 319.562059 100.16517 
L 320.254486 322.444091 
L 320.449786 367.818291 
L 320.467541 367.850461 
L 320.520805 367.7116 
L 320.831509 365.938224 
L 321.302005 361.999324 
L 321.932291 354.57904 
L 323.414795 333.565847 
L 323.752132 325.846252 
L 323.938555 315.890459 
L 324.053959 296.887963 
L 324.133855 242.778979 
L 324.249259 73.306612 
L 324.338032 85.780358 
L 324.657614 182.066299 
L 325.305655 367.848978 
L 325.358918 367.693106 
L 325.687377 365.786355 
L 326.16675 361.686159 
L 326.814791 353.9319 
L 328.297295 332.703232 
L 328.608 325.071564 
L 328.785545 314.637632 
L 328.90095 292.380026 
L 328.980845 221.25324 
L 329.078495 73.36742 
L 329.158391 82.974956 
L 329.424709 161.294977 
L 330.143768 369.301263 
L 330.179277 369.261045 
L 330.427841 368.496509 
L 330.880582 366.427499 
L 331.422095 362.793907 
L 332.292068 355.139021 
L 333.632536 343.766332 
L 335.061777 332.20639 
L 335.336973 327.343952 
L 335.514518 319.923594 
L 335.6388 304.37018 
L 335.727573 257.268019 
L 335.851855 68.34102 
L 335.967259 85.24433 
L 336.331227 193.65326 
L 336.952636 369.346276 
L 337.014777 369.236422 
L 337.369868 368.026588 
L 337.840364 365.613114 
L 338.426264 361.309254 
L 341.994927 330.490523 
L 342.225736 324.908203 
L 342.385527 314.597182 
L 342.492055 290.398124 
L 342.563073 216.744373 
L 342.660723 68.287295 
L 342.731741 76.106797 
L 342.953673 134.904429 
L 343.761505 369.34769 
L 343.805891 369.28318 
L 344.107718 368.315868 
L 344.569336 366.10211 
L 345.128605 362.199119 
L 346.131736 353.219456 
L 347.347923 343.127874 
L 348.652882 332.601941 
L 348.936955 327.889455 
L 349.123377 320.700125 
L 349.256536 304.984227 
L 349.345309 260.174042 
L 349.469591 68.277261 
L 349.593873 86.611649 
L 349.99335 206.073075 
L 350.570373 369.347961 
L 350.650268 369.199259 
L 351.031991 367.854365 
L 351.511364 365.300428 
L 352.123895 360.661008 
L 355.009009 336.845407 
L 355.515014 331.956479 
L 355.781332 327.00838 
L 355.958877 318.980399 
L 356.083159 300.9554 
L 356.163055 251.568838 
L 356.278459 68.283525 
L 356.384986 82.335605 
L 356.695691 173.082567 
L 357.379241 369.347988 
L 357.432505 369.270249 
L 357.752086 368.22506 
L 358.213705 365.964785 
L 358.78185 361.937345 
L 359.873755 352.119278 
L 361.045555 342.559712 
L 362.252864 332.847265 
L 362.545814 328.176034 
L 362.732236 321.425136 
L 362.865395 307.469625 
L 362.954168 271.586706 
L 363.042941 93.12014 
L 363.087327 68.30796 
L 363.158345 75.300259 
L 363.3714 130.641135 
L 364.188109 369.34777 
L 364.241373 369.273959 
L 364.552077 368.265921 
L 365.013695 366.026467 
L 365.572964 362.0945 
L 366.611605 352.777386 
L 367.801159 342.96567 
L 369.079486 332.658748 
L 369.363559 328.004797 
L 369.549982 320.995309 
L 369.683141 306.018704 
L 369.771914 265.089123 
L 369.905073 68.328733 
L 370.038232 89.676702 
L 370.561991 245.778038 
L 370.996977 369.347277 
L 371.103505 369.139228 
L 371.511859 367.641709 
L 372.000109 364.927592 
L 372.639273 359.932644 
L 375.036136 339.868501 
L 375.843968 333.183588 
L 376.145795 328.646884 
L 376.341095 322.097745 
L 376.474255 309.623217 
L 376.571905 274.162119 
L 376.6518 119.285761 
L 376.713941 68.297379 
L 376.776082 74.769391 
L 376.980259 126.880845 
L 377.814723 369.347511 
L 377.867986 369.260755 
L 378.196445 368.174143 
L 378.658064 365.88817 
L 379.226209 361.831915 
L 380.371377 351.524899 
L 381.525423 342.20303 
L 382.679468 332.902899 
L 382.972418 328.287692 
L 383.167718 321.18893 
L 383.300877 306.680082 
L 383.38965 268.099808 
L 383.522809 68.280333 
L 383.673723 93.286296 
L 384.312886 286.107631 
L 384.623591 369.347851 
L 384.641345 369.333497 
L 384.810014 368.879858 
L 385.245 367.110607 
L 385.751005 364.030964 
L 386.461186 358.133628 
L 388.263273 342.738425 
L 389.497214 332.818998 
L 389.790164 328.118719 
L 389.976586 321.282218 
L 390.109745 306.993244 
L 390.198518 269.497467 
L 390.331677 68.278007 
L 390.482591 92.885848 
L 391.112877 282.381098 
L 391.432459 369.348001 
L 391.467968 369.306535 
L 391.725409 368.522352 
L 392.17815 366.466902 
L 392.719664 362.849092 
L 393.580759 355.285535 
L 394.938982 343.742128 
L 396.350468 332.305588 
L 396.625664 327.502806 
L 396.803209 320.278932 
L 396.927491 305.489408 
L 397.016264 262.613497 
L 397.140545 68.292555 
L 397.273705 88.145593 
L 397.726445 223.605555 
L 398.241327 369.347917 
L 398.338977 369.157117 
L 398.738455 367.709728 
L 399.217827 365.086261 
L 399.839236 360.298079 
L 402.4314 338.746284 
L 403.097195 333.057227 
L 403.390145 328.592555 
L 403.585445 321.963192 
L 403.718605 309.202922 
L 403.816255 272.18746 
L 403.905027 94.387972 
L 403.949414 68.324663 
L 404.020432 75.177924 
L 404.233486 130.410892 
L 405.050195 369.347583 
L 405.103459 369.275679 
L 405.414164 368.268832 
L 405.875782 366.030869 
L 406.43505 362.100573 
L 407.473691 352.784221 
L 408.663245 342.971242 
L 409.941573 332.667606 
L 410.225645 328.022608 
L 410.412068 321.040491 
L 410.545227 306.17486 
L 410.634 265.807706 
L 410.767159 68.312793 
L 410.909195 91.67472 
L 411.51285 271.913769 
L 411.867941 369.347223 
L 411.921205 369.258666 
L 412.258541 368.13524 
L 412.720159 365.829814 
L 413.297182 361.678881 
L 414.54 350.495175 
L 415.694045 341.352724 
L 416.706055 333.191727 
L 417.007882 328.662862 
L 417.203182 322.137035 
L 417.336341 309.744281 
L 417.433991 274.723067 
L 417.513886 121.197848 
L 417.576027 68.287872 
L 417.638168 74.651224 
L 417.842345 126.654338 
L 418.676809 369.347685 
L 418.730073 369.262481 
L 419.058532 368.177025 
L 419.52015 365.8925 
L 420.088295 361.83786 
L 421.233464 351.531389 
L 422.387509 342.208369 
L 423.541555 332.911192 
L 423.834505 328.304254 
L 424.029805 321.231788 
L 424.162964 306.824185 
L 424.251736 268.746238 
L 424.384895 68.277427 
L 424.535809 93.102461 
L 425.174973 285.84534 
L 425.485677 369.347949 
L 425.503432 369.334455 
L 425.6721 368.882175 
L 426.107086 367.114203 
L 426.613091 364.036142 
L 427.323273 358.140206 
L 429.125359 342.74377 
L 430.3593 332.827355 
L 430.65225 328.135679 
L 430.838673 321.324647 
L 430.971832 307.135122 
L 431.060605 270.125452 
L 431.193764 68.282295 
L 431.353555 94.973128 
L 432.010473 295.414699 
L 432.294545 369.347995 
L 432.365564 369.226333 
L 432.729532 367.973169 
L 433.200027 365.533322 
L 433.794805 361.126378 
L 435.845455 343.41498 
L 435.845455 343.41498 
" clip-path="url(#pb4ca85e244)" style="fill: none; stroke: #ff0000; stroke-width: 1.5; stroke-linecap: square"/>
   </g>
   <g id="patch_3">
    <path d="M 63 384.48 
L 63 51.84 
" style="fill: none; stroke: #000000; stroke-width: 0.8; stroke-linejoin: miter; stroke-linecap: square"/>
   </g>
   <g id="patch_4">
    <path d="M 453.6 384.48 
L 453.6 51.84 
" style="fill: none; stroke: #000000; stroke-width: 0.8; stroke-linejoin: miter; stroke-linecap: square"/>
   </g>
   <g id="patch_5">
    <path d="M 63 384.48 
L 453.6 384.48 
" style="fill: none; stroke: #000000; stroke-width: 0.8; stroke-linejoin: miter; stroke-linecap: square"/>
   </g>
   <g id="patch_6">
    <path d="M 63 51.84 
L 453.6 51.84 
" style="fill: none; stroke: #000000; stroke-width: 0.8; stroke-linejoin: miter; stroke-linecap: square"/>
   </g>
   <g id="legend_1">
    <g id="patch_7">
     <path d="M 383.460938 234.338125 
L 446.6 234.338125 
Q 448.6 234.338125 448.6 232.338125 
L 448.6 203.981875 
Q 448.6 201.981875 446.6 201.981875 
L 383.460938 201.981875 
Q 381.460938 201.981875 381.460938 203.981875 
L 381.460938 232.338125 
Q 381.460938 234.338125 383.460938 234.338125 
z
" style="fill: #ffffff; opacity: 0.8; stroke: #cccccc; stroke-linejoin: miter"/>
    </g>
    <g id="line2d_15">
     <path d="M 385.460938 210.080312 
L 395.460938 210.080312 
L 405.460938 210.080312 
" style="fill: none; stroke: #1f77b4; stroke-width: 1.5; stroke-linecap: square"/>
    </g>
    <g id="text_15">
     <!-- target -->
     <g transform="translate(413.460938 213.580312)scale(0.1 -0.1)">
      <defs>
       <path id="DejaVuSans-72" d="M 2631 2963 
Q 2534 3019 2420 3045 
Q 2306 3072 2169 3072 
Q 1681 3072 1420 2755 
Q 1159 2438 1159 1844 
L 1159 0 
L 581 0 
L 581 3500 
L 1159 3500 
L 1159 2956 
Q 1341 3275 1631 3429 
Q 1922 3584 2338 3584 
Q 2397 3584 2469 3576 
Q 2541 3569 2628 3553 
L 2631 2963 
z
" transform="scale(0.015625)"/>
      </defs>
      <use xlink:href="#DejaVuSans-74"/>
      <use xlink:href="#DejaVuSans-61" x="39.208984"/>
      <use xlink:href="#DejaVuSans-72" x="100.488281"/>
      <use xlink:href="#DejaVuSans-67" x="139.851562"/>
      <use xlink:href="#DejaVuSans-65" x="203.328125"/>
      <use xlink:href="#DejaVuSans-74" x="264.851562"/>
     </g>
    </g>
    <g id="line2d_16">
     <path d="M 385.460938 224.758437 
L 395.460938 224.758437 
L 405.460938 224.758437 
" style="fill: none; stroke: #ff0000; stroke-width: 1.5; stroke-linecap: square"/>
    </g>
    <g id="text_16">
     <!-- model -->
     <g transform="translate(413.460938 228.258437)scale(0.1 -0.1)">
      <defs>
       <path id="DejaVuSans-64" d="M 2906 2969 
L 2906 4863 
L 3481 4863 
L 3481 0 
L 2906 0 
L 2906 525 
Q 2725 213 2448 61 
Q 2172 -91 1784 -91 
Q 1150 -91 751 415 
Q 353 922 353 1747 
Q 353 2572 751 3078 
Q 1150 3584 1784 3584 
Q 2172 3584 2448 3432 
Q 2725 3281 2906 2969 
z
M 947 1747 
Q 947 1113 1208 752 
Q 1469 391 1925 391 
Q 2381 391 2643 752 
Q 2906 1113 2906 1747 
Q 2906 2381 2643 2742 
Q 2381 3103 1925 3103 
Q 1469 3103 1208 2742 
Q 947 2381 947 1747 
z
" transform="scale(0.015625)"/>
      </defs>
      <use xlink:href="#DejaVuSans-6d"/>
      <use xlink:href="#DejaVuSans-6f" x="97.412109"/>
      <use xlink:href="#DejaVuSans-64" x="158.59375"/>
      <use xlink:href="#DejaVuSans-65" x="222.070312"/>
      <use xlink:href="#DejaVuSans-6c" x="283.59375"/>
     </g>
    </g>
   </g>
  </g>
 </g>
 <defs>
  <clipPath id="pb4ca85e244">
   <rect x="63" y="51.84" width="390.6" height="332.64"/>
  </clipPath>
 </defs>
</svg>
