<?xml version="1.0" encoding="utf-8" standalone="no"?>
<!DOCTYPE svg PUBLIC "-//W3C//DTD SVG 1.1//EN"
  "http://www.w3.org/Graphics/SVG/1.1/DTD/svg11.dtd">
<svg xmlns:xlink="http://www.w3.org/1999/xlink" width="504pt" height="432pt" viewBox="0 0 504 432" xmlns="http://www.w3.org/2000/svg" version="1.1">
 <metadata>
  <rdf:RDF xmlns:dc="http://purl.org/dc/elements/1.1/" xmlns:cc="http://creativecommons.org/ns#" xmlns:rdf="http://www.w3.org/1999/02/22-rdf-syntax-ns#">
   <cc:Work>
    <dc:type rdf:resource="http://purl.org/dc/dcmitype/StillImage"/>
    <dc:date>2022-01-31T18:49:56.584625</dc:date>
    <dc:format>image/svg+xml</dc:format>
    <dc:creator>
     <cc:Agent>
      <dc:title>Matplotlib v3.5.1, https://matplotlib.org/</dc:title>
     </cc:Agent>
    </dc:creator>
   </cc:Work>
  </rdf:RDF>
 </metadata>
 <defs>
  <style type="text/css">*{stroke-linejoin: round; stroke-linecap: butt}</style>
 </defs>
 <g id="figure_1">
  <g id="patch_1">
   <path d="M 0 432 
L 504 432 
L 504 0 
L 0 0 
z
" style="fill: #ffffff"/>
  </g>
  <g id="axes_1">
   <g id="patch_2">
    <path d="M 63 384.48 
L 453.6 384.48 
L 453.6 51.84 
L 63 51.84 
z
" style="fill: #ffffff"/>
   </g>
   <g id="matplotlib.axis_1">
    <g id="xtick_1">
     <g id="line2d_1">
      <defs>
       <path id="m24c32339a0" d="M 0 0 
L 0 3.5 
" style="stroke: #000000; stroke-width: 0.8"/>
      </defs>
      <g>
       <use xlink:href="#m24c32339a0" x="80.754545" y="384.48" style="stroke: #000000; stroke-width: 0.8"/>
      </g>
     </g>
     <g id="text_1">
      <!-- 0 -->
      <g transform="translate(77.573295 399.078438)scale(0.1 -0.1)">
       <defs>
        <path id="DejaVuSans-30" d="M 2034 4250 
Q 1547 4250 1301 3770 
Q 1056 3291 1056 2328 
Q 1056 1369 1301 889 
Q 1547 409 2034 409 
Q 2525 409 2770 889 
Q 3016 1369 3016 2328 
Q 3016 3291 2770 3770 
Q 2525 4250 2034 4250 
z
M 2034 4750 
Q 2819 4750 3233 4129 
Q 3647 3509 3647 2328 
Q 3647 1150 3233 529 
Q 2819 -91 2034 -91 
Q 1250 -91 836 529 
Q 422 1150 422 2328 
Q 422 3509 836 4129 
Q 1250 4750 2034 4750 
z
" transform="scale(0.015625)"/>
       </defs>
       <use xlink:href="#DejaVuSans-30"/>
      </g>
     </g>
    </g>
    <g id="xtick_2">
     <g id="line2d_2">
      <g>
       <use xlink:href="#m24c32339a0" x="151.772727" y="384.48" style="stroke: #000000; stroke-width: 0.8"/>
      </g>
     </g>
     <g id="text_2">
      <!-- 200 -->
      <g transform="translate(142.228977 399.078438)scale(0.1 -0.1)">
       <defs>
        <path id="DejaVuSans-32" d="M 1228 531 
L 3431 531 
L 3431 0 
L 469 0 
L 469 531 
Q 828 903 1448 1529 
Q 2069 2156 2228 2338 
Q 2531 2678 2651 2914 
Q 2772 3150 2772 3378 
Q 2772 3750 2511 3984 
Q 2250 4219 1831 4219 
Q 1534 4219 1204 4116 
Q 875 4013 500 3803 
L 500 4441 
Q 881 4594 1212 4672 
Q 1544 4750 1819 4750 
Q 2544 4750 2975 4387 
Q 3406 4025 3406 3419 
Q 3406 3131 3298 2873 
Q 3191 2616 2906 2266 
Q 2828 2175 2409 1742 
Q 1991 1309 1228 531 
z
" transform="scale(0.015625)"/>
       </defs>
       <use xlink:href="#DejaVuSans-32"/>
       <use xlink:href="#DejaVuSans-30" x="63.623047"/>
       <use xlink:href="#DejaVuSans-30" x="127.246094"/>
      </g>
     </g>
    </g>
    <g id="xtick_3">
     <g id="line2d_3">
      <g>
       <use xlink:href="#m24c32339a0" x="222.790909" y="384.48" style="stroke: #000000; stroke-width: 0.8"/>
      </g>
     </g>
     <g id="text_3">
      <!-- 400 -->
      <g transform="translate(213.247159 399.078438)scale(0.1 -0.1)">
       <defs>
        <path id="DejaVuSans-34" d="M 2419 4116 
L 825 1625 
L 2419 1625 
L 2419 4116 
z
M 2253 4666 
L 3047 4666 
L 3047 1625 
L 3713 1625 
L 3713 1100 
L 3047 1100 
L 3047 0 
L 2419 0 
L 2419 1100 
L 313 1100 
L 313 1709 
L 2253 4666 
z
" transform="scale(0.015625)"/>
       </defs>
       <use xlink:href="#DejaVuSans-34"/>
       <use xlink:href="#DejaVuSans-30" x="63.623047"/>
       <use xlink:href="#DejaVuSans-30" x="127.246094"/>
      </g>
     </g>
    </g>
    <g id="xtick_4">
     <g id="line2d_4">
      <g>
       <use xlink:href="#m24c32339a0" x="293.809091" y="384.48" style="stroke: #000000; stroke-width: 0.8"/>
      </g>
     </g>
     <g id="text_4">
      <!-- 600 -->
      <g transform="translate(284.265341 399.078438)scale(0.1 -0.1)">
       <defs>
        <path id="DejaVuSans-36" d="M 2113 2584 
Q 1688 2584 1439 2293 
Q 1191 2003 1191 1497 
Q 1191 994 1439 701 
Q 1688 409 2113 409 
Q 2538 409 2786 701 
Q 3034 994 3034 1497 
Q 3034 2003 2786 2293 
Q 2538 2584 2113 2584 
z
M 3366 4563 
L 3366 3988 
Q 3128 4100 2886 4159 
Q 2644 4219 2406 4219 
Q 1781 4219 1451 3797 
Q 1122 3375 1075 2522 
Q 1259 2794 1537 2939 
Q 1816 3084 2150 3084 
Q 2853 3084 3261 2657 
Q 3669 2231 3669 1497 
Q 3669 778 3244 343 
Q 2819 -91 2113 -91 
Q 1303 -91 875 529 
Q 447 1150 447 2328 
Q 447 3434 972 4092 
Q 1497 4750 2381 4750 
Q 2619 4750 2861 4703 
Q 3103 4656 3366 4563 
z
" transform="scale(0.015625)"/>
       </defs>
       <use xlink:href="#DejaVuSans-36"/>
       <use xlink:href="#DejaVuSans-30" x="63.623047"/>
       <use xlink:href="#DejaVuSans-30" x="127.246094"/>
      </g>
     </g>
    </g>
    <g id="xtick_5">
     <g id="line2d_5">
      <g>
       <use xlink:href="#m24c32339a0" x="364.827273" y="384.48" style="stroke: #000000; stroke-width: 0.8"/>
      </g>
     </g>
     <g id="text_5">
      <!-- 800 -->
      <g transform="translate(355.283523 399.078438)scale(0.1 -0.1)">
       <defs>
        <path id="DejaVuSans-38" d="M 2034 2216 
Q 1584 2216 1326 1975 
Q 1069 1734 1069 1313 
Q 1069 891 1326 650 
Q 1584 409 2034 409 
Q 2484 409 2743 651 
Q 3003 894 3003 1313 
Q 3003 1734 2745 1975 
Q 2488 2216 2034 2216 
z
M 1403 2484 
Q 997 2584 770 2862 
Q 544 3141 544 3541 
Q 544 4100 942 4425 
Q 1341 4750 2034 4750 
Q 2731 4750 3128 4425 
Q 3525 4100 3525 3541 
Q 3525 3141 3298 2862 
Q 3072 2584 2669 2484 
Q 3125 2378 3379 2068 
Q 3634 1759 3634 1313 
Q 3634 634 3220 271 
Q 2806 -91 2034 -91 
Q 1263 -91 848 271 
Q 434 634 434 1313 
Q 434 1759 690 2068 
Q 947 2378 1403 2484 
z
M 1172 3481 
Q 1172 3119 1398 2916 
Q 1625 2713 2034 2713 
Q 2441 2713 2670 2916 
Q 2900 3119 2900 3481 
Q 2900 3844 2670 4047 
Q 2441 4250 2034 4250 
Q 1625 4250 1398 4047 
Q 1172 3844 1172 3481 
z
" transform="scale(0.015625)"/>
       </defs>
       <use xlink:href="#DejaVuSans-38"/>
       <use xlink:href="#DejaVuSans-30" x="63.623047"/>
       <use xlink:href="#DejaVuSans-30" x="127.246094"/>
      </g>
     </g>
    </g>
    <g id="text_6">
     <!-- time [ms] -->
     <g transform="translate(234.038281 412.756563)scale(0.1 -0.1)">
      <defs>
       <path id="DejaVuSans-74" d="M 1172 4494 
L 1172 3500 
L 2356 3500 
L 2356 3053 
L 1172 3053 
L 1172 1153 
Q 1172 725 1289 603 
Q 1406 481 1766 481 
L 2356 481 
L 2356 0 
L 1766 0 
Q 1100 0 847 248 
Q 594 497 594 1153 
L 594 3053 
L 172 3053 
L 172 3500 
L 594 3500 
L 594 4494 
L 1172 4494 
z
" transform="scale(0.015625)"/>
       <path id="DejaVuSans-69" d="M 603 3500 
L 1178 3500 
L 1178 0 
L 603 0 
L 603 3500 
z
M 603 4863 
L 1178 4863 
L 1178 4134 
L 603 4134 
L 603 4863 
z
" transform="scale(0.015625)"/>
       <path id="DejaVuSans-6d" d="M 3328 2828 
Q 3544 3216 3844 3400 
Q 4144 3584 4550 3584 
Q 5097 3584 5394 3201 
Q 5691 2819 5691 2113 
L 5691 0 
L 5113 0 
L 5113 2094 
Q 5113 2597 4934 2840 
Q 4756 3084 4391 3084 
Q 3944 3084 3684 2787 
Q 3425 2491 3425 1978 
L 3425 0 
L 2847 0 
L 2847 2094 
Q 2847 2600 2669 2842 
Q 2491 3084 2119 3084 
Q 1678 3084 1418 2786 
Q 1159 2488 1159 1978 
L 1159 0 
L 581 0 
L 581 3500 
L 1159 3500 
L 1159 2956 
Q 1356 3278 1631 3431 
Q 1906 3584 2284 3584 
Q 2666 3584 2933 3390 
Q 3200 3197 3328 2828 
z
" transform="scale(0.015625)"/>
       <path id="DejaVuSans-65" d="M 3597 1894 
L 3597 1613 
L 953 1613 
Q 991 1019 1311 708 
Q 1631 397 2203 397 
Q 2534 397 2845 478 
Q 3156 559 3463 722 
L 3463 178 
Q 3153 47 2828 -22 
Q 2503 -91 2169 -91 
Q 1331 -91 842 396 
Q 353 884 353 1716 
Q 353 2575 817 3079 
Q 1281 3584 2069 3584 
Q 2775 3584 3186 3129 
Q 3597 2675 3597 1894 
z
M 3022 2063 
Q 3016 2534 2758 2815 
Q 2500 3097 2075 3097 
Q 1594 3097 1305 2825 
Q 1016 2553 972 2059 
L 3022 2063 
z
" transform="scale(0.015625)"/>
       <path id="DejaVuSans-20" transform="scale(0.015625)"/>
       <path id="DejaVuSans-5b" d="M 550 4863 
L 1875 4863 
L 1875 4416 
L 1125 4416 
L 1125 -397 
L 1875 -397 
L 1875 -844 
L 550 -844 
L 550 4863 
z
" transform="scale(0.015625)"/>
       <path id="DejaVuSans-73" d="M 2834 3397 
L 2834 2853 
Q 2591 2978 2328 3040 
Q 2066 3103 1784 3103 
Q 1356 3103 1142 2972 
Q 928 2841 928 2578 
Q 928 2378 1081 2264 
Q 1234 2150 1697 2047 
L 1894 2003 
Q 2506 1872 2764 1633 
Q 3022 1394 3022 966 
Q 3022 478 2636 193 
Q 2250 -91 1575 -91 
Q 1294 -91 989 -36 
Q 684 19 347 128 
L 347 722 
Q 666 556 975 473 
Q 1284 391 1588 391 
Q 1994 391 2212 530 
Q 2431 669 2431 922 
Q 2431 1156 2273 1281 
Q 2116 1406 1581 1522 
L 1381 1569 
Q 847 1681 609 1914 
Q 372 2147 372 2553 
Q 372 3047 722 3315 
Q 1072 3584 1716 3584 
Q 2034 3584 2315 3537 
Q 2597 3491 2834 3397 
z
" transform="scale(0.015625)"/>
       <path id="DejaVuSans-5d" d="M 1947 4863 
L 1947 -844 
L 622 -844 
L 622 -397 
L 1369 -397 
L 1369 4416 
L 622 4416 
L 622 4863 
L 1947 4863 
z
" transform="scale(0.015625)"/>
      </defs>
      <use xlink:href="#DejaVuSans-74"/>
      <use xlink:href="#DejaVuSans-69" x="39.208984"/>
      <use xlink:href="#DejaVuSans-6d" x="66.992188"/>
      <use xlink:href="#DejaVuSans-65" x="164.404297"/>
      <use xlink:href="#DejaVuSans-20" x="225.927734"/>
      <use xlink:href="#DejaVuSans-5b" x="257.714844"/>
      <use xlink:href="#DejaVuSans-6d" x="296.728516"/>
      <use xlink:href="#DejaVuSans-73" x="394.140625"/>
      <use xlink:href="#DejaVuSans-5d" x="446.240234"/>
     </g>
    </g>
   </g>
   <g id="matplotlib.axis_2">
    <g id="ytick_1">
     <g id="line2d_6">
      <defs>
       <path id="m02cb151d05" d="M 0 0 
L -3.5 0 
" style="stroke: #000000; stroke-width: 0.8"/>
      </defs>
      <g>
       <use xlink:href="#m02cb151d05" x="63" y="379.470566" style="stroke: #000000; stroke-width: 0.8"/>
      </g>
     </g>
     <g id="text_7">
      <!-- −80 -->
      <g transform="translate(34.895313 383.269784)scale(0.1 -0.1)">
       <defs>
        <path id="DejaVuSans-2212" d="M 678 2272 
L 4684 2272 
L 4684 1741 
L 678 1741 
L 678 2272 
z
" transform="scale(0.015625)"/>
       </defs>
       <use xlink:href="#DejaVuSans-2212"/>
       <use xlink:href="#DejaVuSans-38" x="83.789062"/>
       <use xlink:href="#DejaVuSans-30" x="147.412109"/>
      </g>
     </g>
    </g>
    <g id="ytick_2">
     <g id="line2d_7">
      <g>
       <use xlink:href="#m02cb151d05" x="63" y="328.789106" style="stroke: #000000; stroke-width: 0.8"/>
      </g>
     </g>
     <g id="text_8">
      <!-- −60 -->
      <g transform="translate(34.895313 332.588325)scale(0.1 -0.1)">
       <use xlink:href="#DejaVuSans-2212"/>
       <use xlink:href="#DejaVuSans-36" x="83.789062"/>
       <use xlink:href="#DejaVuSans-30" x="147.412109"/>
      </g>
     </g>
    </g>
    <g id="ytick_3">
     <g id="line2d_8">
      <g>
       <use xlink:href="#m02cb151d05" x="63" y="278.107647" style="stroke: #000000; stroke-width: 0.8"/>
      </g>
     </g>
     <g id="text_9">
      <!-- −40 -->
      <g transform="translate(34.895313 281.906866)scale(0.1 -0.1)">
       <use xlink:href="#DejaVuSans-2212"/>
       <use xlink:href="#DejaVuSans-34" x="83.789062"/>
       <use xlink:href="#DejaVuSans-30" x="147.412109"/>
      </g>
     </g>
    </g>
    <g id="ytick_4">
     <g id="line2d_9">
      <g>
       <use xlink:href="#m02cb151d05" x="63" y="227.426188" style="stroke: #000000; stroke-width: 0.8"/>
      </g>
     </g>
     <g id="text_10">
      <!-- −20 -->
      <g transform="translate(34.895313 231.225407)scale(0.1 -0.1)">
       <use xlink:href="#DejaVuSans-2212"/>
       <use xlink:href="#DejaVuSans-32" x="83.789062"/>
       <use xlink:href="#DejaVuSans-30" x="147.412109"/>
      </g>
     </g>
    </g>
    <g id="ytick_5">
     <g id="line2d_10">
      <g>
       <use xlink:href="#m02cb151d05" x="63" y="176.744729" style="stroke: #000000; stroke-width: 0.8"/>
      </g>
     </g>
     <g id="text_11">
      <!-- 0 -->
      <g transform="translate(49.6375 180.543948)scale(0.1 -0.1)">
       <use xlink:href="#DejaVuSans-30"/>
      </g>
     </g>
    </g>
    <g id="ytick_6">
     <g id="line2d_11">
      <g>
       <use xlink:href="#m02cb151d05" x="63" y="126.06327" style="stroke: #000000; stroke-width: 0.8"/>
      </g>
     </g>
     <g id="text_12">
      <!-- 20 -->
      <g transform="translate(43.275 129.862489)scale(0.1 -0.1)">
       <use xlink:href="#DejaVuSans-32"/>
       <use xlink:href="#DejaVuSans-30" x="63.623047"/>
      </g>
     </g>
    </g>
    <g id="ytick_7">
     <g id="line2d_12">
      <g>
       <use xlink:href="#m02cb151d05" x="63" y="75.381811" style="stroke: #000000; stroke-width: 0.8"/>
      </g>
     </g>
     <g id="text_13">
      <!-- 40 -->
      <g transform="translate(43.275 79.18103)scale(0.1 -0.1)">
       <use xlink:href="#DejaVuSans-34"/>
       <use xlink:href="#DejaVuSans-30" x="63.623047"/>
      </g>
     </g>
    </g>
    <g id="text_14">
     <!-- voltage [mV] -->
     <g transform="translate(28.815625 250.624062)rotate(-90)scale(0.1 -0.1)">
      <defs>
       <path id="DejaVuSans-76" d="M 191 3500 
L 800 3500 
L 1894 563 
L 2988 3500 
L 3597 3500 
L 2284 0 
L 1503 0 
L 191 3500 
z
" transform="scale(0.015625)"/>
       <path id="DejaVuSans-6f" d="M 1959 3097 
Q 1497 3097 1228 2736 
Q 959 2375 959 1747 
Q 959 1119 1226 758 
Q 1494 397 1959 397 
Q 2419 397 2687 759 
Q 2956 1122 2956 1747 
Q 2956 2369 2687 2733 
Q 2419 3097 1959 3097 
z
M 1959 3584 
Q 2709 3584 3137 3096 
Q 3566 2609 3566 1747 
Q 3566 888 3137 398 
Q 2709 -91 1959 -91 
Q 1206 -91 779 398 
Q 353 888 353 1747 
Q 353 2609 779 3096 
Q 1206 3584 1959 3584 
z
" transform="scale(0.015625)"/>
       <path id="DejaVuSans-6c" d="M 603 4863 
L 1178 4863 
L 1178 0 
L 603 0 
L 603 4863 
z
" transform="scale(0.015625)"/>
       <path id="DejaVuSans-61" d="M 2194 1759 
Q 1497 1759 1228 1600 
Q 959 1441 959 1056 
Q 959 750 1161 570 
Q 1363 391 1709 391 
Q 2188 391 2477 730 
Q 2766 1069 2766 1631 
L 2766 1759 
L 2194 1759 
z
M 3341 1997 
L 3341 0 
L 2766 0 
L 2766 531 
Q 2569 213 2275 61 
Q 1981 -91 1556 -91 
Q 1019 -91 701 211 
Q 384 513 384 1019 
Q 384 1609 779 1909 
Q 1175 2209 1959 2209 
L 2766 2209 
L 2766 2266 
Q 2766 2663 2505 2880 
Q 2244 3097 1772 3097 
Q 1472 3097 1187 3025 
Q 903 2953 641 2809 
L 641 3341 
Q 956 3463 1253 3523 
Q 1550 3584 1831 3584 
Q 2591 3584 2966 3190 
Q 3341 2797 3341 1997 
z
" transform="scale(0.015625)"/>
       <path id="DejaVuSans-67" d="M 2906 1791 
Q 2906 2416 2648 2759 
Q 2391 3103 1925 3103 
Q 1463 3103 1205 2759 
Q 947 2416 947 1791 
Q 947 1169 1205 825 
Q 1463 481 1925 481 
Q 2391 481 2648 825 
Q 2906 1169 2906 1791 
z
M 3481 434 
Q 3481 -459 3084 -895 
Q 2688 -1331 1869 -1331 
Q 1566 -1331 1297 -1286 
Q 1028 -1241 775 -1147 
L 775 -588 
Q 1028 -725 1275 -790 
Q 1522 -856 1778 -856 
Q 2344 -856 2625 -561 
Q 2906 -266 2906 331 
L 2906 616 
Q 2728 306 2450 153 
Q 2172 0 1784 0 
Q 1141 0 747 490 
Q 353 981 353 1791 
Q 353 2603 747 3093 
Q 1141 3584 1784 3584 
Q 2172 3584 2450 3431 
Q 2728 3278 2906 2969 
L 2906 3500 
L 3481 3500 
L 3481 434 
z
" transform="scale(0.015625)"/>
       <path id="DejaVuSans-56" d="M 1831 0 
L 50 4666 
L 709 4666 
L 2188 738 
L 3669 4666 
L 4325 4666 
L 2547 0 
L 1831 0 
z
" transform="scale(0.015625)"/>
      </defs>
      <use xlink:href="#DejaVuSans-76"/>
      <use xlink:href="#DejaVuSans-6f" x="59.179688"/>
      <use xlink:href="#DejaVuSans-6c" x="120.361328"/>
      <use xlink:href="#DejaVuSans-74" x="148.144531"/>
      <use xlink:href="#DejaVuSans-61" x="187.353516"/>
      <use xlink:href="#DejaVuSans-67" x="248.632812"/>
      <use xlink:href="#DejaVuSans-65" x="312.109375"/>
      <use xlink:href="#DejaVuSans-20" x="373.632812"/>
      <use xlink:href="#DejaVuSans-5b" x="405.419922"/>
      <use xlink:href="#DejaVuSans-6d" x="444.433594"/>
      <use xlink:href="#DejaVuSans-56" x="541.845703"/>
      <use xlink:href="#DejaVuSans-5d" x="610.253906"/>
     </g>
    </g>
   </g>
   <g id="line2d_13">
    <path d="M 80.754545 341.459471 
L 81.979609 341.327193 
L 151.772727 341.392825 
L 152.314241 298.410386 
L 152.420768 251.458322 
L 152.562805 76.203357 
L 152.678209 100.548196 
L 153.565936 367.030295 
L 153.610323 366.93324 
L 153.8145 365.602091 
L 154.293873 361.012885 
L 154.959668 352.207235 
L 157.42755 314.661903 
L 157.613973 303.919714 
L 157.738255 282.714339 
L 157.835905 222.322819 
L 157.969064 99.721328 
L 158.031205 112.418554 
L 158.883423 366.620535 
L 158.945564 366.443403 
L 159.203005 364.532712 
L 159.717886 359.056074 
L 160.534595 347.541753 
L 161.8218 330.038911 
L 162.514227 320.031097 
L 162.771668 312.770724 
L 162.940336 301.194319 
L 163.064618 274.195799 
L 163.162268 192.71732 
L 163.268795 100.609774 
L 163.322059 109.793761 
L 163.863573 298.141775 
L 164.147645 366.449992 
L 164.183155 366.589873 
L 164.245295 366.414768 
L 164.493859 364.577059 
L 165.008741 359.119426 
L 165.834327 347.486257 
L 167.112655 330.110879 
L 167.813959 319.996887 
L 168.0714 312.727138 
L 168.240068 301.112722 
L 168.36435 273.958103 
L 168.462 191.997517 
L 168.568527 100.684022 
L 168.621791 110.008144 
L 169.172182 301.956822 
L 169.4385 366.367128 
L 169.482886 366.587845 
L 169.545027 366.40894 
L 169.802468 364.490393 
L 170.31735 358.996523 
L 171.151814 347.207255 
L 172.430141 329.876477 
L 173.113691 319.979148 
L 173.371132 312.691915 
L 173.5398 301.020228 
L 173.664082 273.631714 
L 173.761732 190.886047 
L 173.868259 100.700241 
L 173.921523 110.235957 
L 174.480791 305.887169 
L 174.729355 366.261457 
L 174.782618 366.587845 
L 174.844759 366.404885 
L 175.1022 364.483298 
L 175.617082 358.986133 
L 176.451545 347.194839 
L 177.729873 329.866087 
L 178.413423 319.96293 
L 178.670864 312.657198 
L 178.839532 300.926467 
L 178.963814 273.29671 
L 179.061464 189.74204 
L 179.167991 100.716965 
L 179.221255 110.466304 
L 179.7894 309.917105 
L 180.029086 366.273367 
L 180.08235 366.588099 
L 180.144491 366.400577 
L 180.401932 364.476202 
L 180.916814 358.975997 
L 181.751277 347.182928 
L 183.029605 329.855951 
L 183.713155 319.946459 
L 183.970595 312.622228 
L 184.139264 300.831693 
L 184.263545 272.95385 
L 184.361195 188.577912 
L 184.467723 100.740025 
L 184.520986 110.700199 
L 185.098009 314.035734 
L 185.328818 366.285024 
L 185.382082 366.588099 
L 185.444223 366.396523 
L 185.701664 364.468854 
L 186.216545 358.965861 
L 187.051009 347.170765 
L 188.329336 329.845815 
L 189.012886 319.930241 
L 189.270327 312.587004 
L 189.438995 300.735398 
L 189.563277 272.605922 
L 189.660927 187.409147 
L 189.767455 100.768661 
L 189.820718 110.936375 
L 190.406618 318.224049 
L 190.619673 366.155786 
L 190.681814 366.587845 
L 190.743955 366.392215 
L 191.010273 364.383202 
L 191.525155 358.844732 
L 192.368495 346.895058 
L 193.637945 329.724179 
L 194.312618 319.913516 
L 194.570059 312.551781 
L 194.738727 300.638597 
L 194.863009 272.254699 
L 194.969536 173.338555 
L 195.058309 100.755737 
L 195.12045 111.175085 
L 195.715227 322.456965 
L 195.919405 366.170737 
L 195.981545 366.587845 
L 196.043686 366.387907 
L 196.310005 364.375853 
L 196.833764 358.723097 
L 197.703736 346.356567 
L 198.955432 329.491298 
L 199.61235 319.897044 
L 199.869791 312.51605 
L 200.038459 300.540782 
L 200.162741 271.896381 
L 200.269268 172.11888 
L 200.358041 100.727355 
L 200.420182 111.417849 
L 201.023836 326.69875 
L 201.219136 366.184928 
L 201.281277 366.587339 
L 201.343418 366.383599 
L 201.609736 364.368504 
L 202.133495 358.712454 
L 202.994591 346.475669 
L 204.255164 329.480908 
L 204.912082 319.880066 
L 205.169523 312.479813 
L 205.338191 300.441446 
L 205.462473 271.530714 
L 205.569 170.891021 
L 205.657773 100.705815 
L 205.719914 111.662387 
L 206.332445 330.90303 
L 206.518868 366.199119 
L 206.581009 366.587085 
L 206.634273 366.424144 
L 206.873959 364.671833 
L 207.388841 359.254492 
L 208.187795 348.044767 
L 209.510509 330.026241 
L 210.202936 320.041233 
L 210.460377 312.822673 
L 210.629045 301.371451 
L 210.753327 274.878225 
L 210.850977 195.18941 
L 210.957505 100.691118 
L 211.019645 111.907938 
L 211.641055 335.017604 
L 211.827477 366.33976 
L 211.880741 366.586578 
L 211.934005 366.42009 
L 212.182568 364.587702 
L 212.69745 359.13463 
L 213.514159 347.636527 
L 214.810241 330.015851 
L 215.502668 320.024762 
L 215.760109 312.787956 
L 215.928777 301.27845 
L 216.053059 274.550569 
L 216.150709 194.051104 
L 216.257236 100.685036 
L 216.319377 112.152983 
L 216.949664 338.981148 
L 217.127209 366.349896 
L 217.171595 366.587085 
L 217.233736 366.416035 
L 217.4823 364.580606 
L 217.997182 359.124494 
L 218.822768 347.492339 
L 220.101095 330.116454 
L 220.8024 320.00829 
L 221.059841 312.753493 
L 221.228509 301.185703 
L 221.352791 274.221646 
L 221.450441 192.913356 
L 221.556968 100.685543 
L 221.610232 109.829492 
L 222.151745 298.195244 
L 222.426941 366.359525 
L 222.471327 366.587339 
L 222.533468 366.411981 
L 222.782032 364.573511 
L 223.296914 359.114358 
L 224.1225 347.479922 
L 225.418582 329.884333 
L 226.111009 319.813167 
L 226.36845 312.335624 
L 226.537118 300.042329 
L 226.652523 273.89019 
L 226.750173 191.771072 
L 226.8567 100.691371 
L 226.909964 110.058825 
L 227.460355 302.029549 
L 227.726673 366.368902 
L 227.771059 366.587845 
L 227.8332 366.407926 
L 228.090641 364.488619 
L 228.605523 358.993989 
L 229.439986 347.204215 
L 230.718314 329.873943 
L 231.401864 319.975347 
L 231.659305 312.683806 
L 231.827973 300.998942 
L 231.952255 273.556452 
L 232.049905 190.628585 
L 232.156432 100.703788 
L 232.209695 110.287906 
L 232.768964 305.962937 
L 233.017527 366.264244 
L 233.070791 366.587845 
L 233.132932 366.403872 
L 233.390373 364.481524 
L 233.905255 358.983853 
L 234.739718 347.192051 
L 236.018045 329.863807 
L 236.701595 319.959129 
L 236.959036 312.649342 
L 237.127705 300.905181 
L 237.251986 273.219674 
L 237.349636 189.479561 
L 237.456164 100.721527 
L 237.509427 110.519266 
L 238.077573 309.995154 
L 238.317259 366.275901 
L 238.370523 366.588099 
L 238.432664 366.399817 
L 238.690105 364.474429 
L 239.204986 358.973716 
L 240.03945 347.180141 
L 241.317777 329.85367 
L 242.001327 319.942911 
L 242.258768 312.614372 
L 242.427436 300.8099 
L 242.551718 272.87504 
L 242.649368 188.312721 
L 242.755895 100.746107 
L 242.809159 110.753668 
L 243.386182 314.115557 
L 243.616991 366.287558 
L 243.670255 366.588099 
L 243.732395 366.395509 
L 243.989836 364.467333 
L 244.504718 358.96358 
L 245.348059 347.036206 
L 246.617509 329.843281 
L 247.301059 319.92644 
L 247.5585 312.579149 
L 247.727168 300.713352 
L 247.85145 272.526605 
L 247.9491 187.142816 
L 248.055627 100.776263 
L 248.108891 110.990351 
L 248.694791 318.305647 
L 248.907845 366.159334 
L 248.969986 366.587845 
L 249.032127 366.391455 
L 249.298445 364.381682 
L 249.822205 358.731206 
L 250.692177 346.366197 
L 251.943873 329.499407 
L 252.600791 319.909715 
L 252.858232 312.543672 
L 253.0269 300.616297 
L 253.151182 272.173609 
L 253.257709 173.060871 
L 253.346482 100.748641 
L 253.408623 111.230327 
L 254.0034 322.540083 
L 254.207577 366.174031 
L 254.269718 366.587592 
L 254.331859 366.387147 
L 254.598177 364.374333 
L 255.121936 358.720563 
L 255.983032 346.485298 
L 257.22585 329.711509 
L 257.900523 319.893243 
L 258.157964 312.507941 
L 258.326632 300.518228 
L 258.450914 271.813517 
L 258.557441 171.838688 
L 258.646214 100.72178 
L 258.708355 111.473852 
L 259.312009 326.781867 
L 259.507309 366.188222 
L 259.56945 366.587339 
L 259.631591 366.382586 
L 259.897909 364.366731 
L 260.421668 358.710173 
L 261.291641 346.341616 
L 262.525582 329.701119 
L 263.200255 319.876265 
L 263.457695 312.471704 
L 263.626364 300.418639 
L 263.750645 271.446583 
L 263.857173 170.610321 
L 263.945945 100.701761 
L 264.008086 111.71839 
L 264.620618 330.984881 
L 264.807041 366.202413 
L 264.869182 366.586832 
L 264.922445 366.423384 
L 265.171009 364.593277 
L 265.685891 359.142739 
L 266.511477 347.514132 
L 267.807559 329.912968 
L 268.499986 319.85954 
L 268.757427 312.435467 
L 268.926095 300.31905 
L 269.050377 271.079649 
L 269.156905 169.391103 
L 269.245677 100.689091 
L 269.298941 109.425307 
L 269.8227 290.89686 
L 270.133405 366.502701 
L 270.168914 366.586578 
L 270.222177 366.41933 
L 270.470741 364.586181 
L 270.985623 359.132349 
L 271.802332 347.63374 
L 273.098414 330.01357 
L 273.790841 320.020961 
L 274.048282 312.780101 
L 274.21695 301.257417 
L 274.341232 274.475561 
L 274.438882 193.790703 
L 274.545409 100.684783 
L 274.598673 109.65312 
L 275.131309 294.533508 
L 275.424259 366.442896 
L 275.459768 366.587085 
L 275.521909 366.415275 
L 275.770473 364.579086 
L 276.285355 359.122213 
L 277.110941 347.489551 
L 278.389268 330.114173 
L 279.090573 320.004489 
L 279.348014 312.745384 
L 279.516682 301.164417 
L 279.640964 274.146131 
L 279.738614 192.652854 
L 279.845141 100.68605 
L 279.898405 109.881947 
L 280.439918 298.268478 
L 280.715114 366.361553 
L 280.7595 366.587592 
L 280.821641 366.411221 
L 281.079082 364.494194 
L 281.593964 359.001845 
L 282.428427 347.213591 
L 283.706755 329.881799 
L 284.390305 319.988018 
L 284.647745 312.710667 
L 284.816414 301.071163 
L 284.940695 273.814168 
L 285.038345 191.510468 
L 285.144873 100.693652 
L 285.198136 110.111027 
L 285.748527 302.103798 
L 286.014845 366.370929 
L 286.059232 366.587845 
L 286.121373 366.406913 
L 286.378814 364.487099 
L 286.902573 358.880969 
L 287.754791 346.806365 
L 289.006486 329.871662 
L 289.690036 319.9718 
L 289.947477 312.67595 
L 290.116145 300.977656 
L 290.240427 273.479923 
L 290.338077 190.36712 
L 290.444605 100.707336 
L 290.497868 110.340361 
L 291.057136 306.039466 
L 291.3057 366.267032 
L 291.358964 366.588099 
L 291.421105 366.402858 
L 291.678545 364.480004 
L 292.193427 358.981572 
L 293.027891 347.189264 
L 294.315095 329.75028 
L 294.989768 319.955328 
L 295.247209 312.641233 
L 295.415877 300.883642 
L 295.540159 273.141625 
L 295.637809 189.214319 
L 295.744336 100.726595 
L 295.7976 110.572482 
L 296.365745 310.073711 
L 296.605432 366.278689 
L 296.658695 366.588099 
L 296.720836 366.398804 
L 296.978277 364.472908 
L 297.493159 358.971436 
L 298.327623 347.177353 
L 299.60595 329.85139 
L 300.2895 319.93911 
L 300.546941 312.606263 
L 300.715609 300.787854 
L 300.839891 272.795977 
L 300.937541 188.047151 
L 301.044068 100.752442 
L 301.097332 110.807137 
L 301.674355 314.19538 
L 301.905164 366.290092 
L 301.958427 366.588099 
L 302.020568 366.394749 
L 302.286886 364.387257 
L 302.810645 358.739061 
L 303.671741 346.507091 
L 304.914559 329.730008 
L 305.589232 319.922639 
L 305.846673 312.57104 
L 306.015341 300.691559 
L 306.139623 272.447035 
L 306.24615 173.998934 
L 306.334923 100.773729 
L 306.397064 111.04458 
L 306.982964 318.387244 
L 307.196018 366.162628 
L 307.258159 366.587845 
L 307.3203 366.390441 
L 307.586618 364.379908 
L 308.110377 358.728672 
L 308.971473 346.494928 
L 310.214291 329.719618 
L 310.888964 319.906167 
L 311.146405 312.535562 
L 311.315073 300.594251 
L 311.439355 272.092265 
L 311.545882 172.784176 
L 311.634655 100.742053 
L 311.696795 111.285317 
L 312.291573 322.622693 
L 312.49575 366.177326 
L 312.557891 366.587592 
L 312.620032 366.386133 
L 312.88635 364.372559 
L 313.410109 358.718282 
L 314.280082 346.350992 
L 315.531777 329.486483 
L 316.188695 319.889189 
L 316.446136 312.499579 
L 316.614805 300.495675 
L 316.739086 271.730906 
L 316.845614 171.55956 
L 316.934386 100.716712 
L 316.996527 111.529348 
L 317.600182 326.864731 
L 317.795482 366.191516 
L 317.857623 366.587339 
L 317.910886 366.426425 
L 318.15945 364.598852 
L 318.674332 359.150595 
L 319.491041 347.655533 
L 320.796 329.920823 
L 321.488427 319.872464 
L 321.745868 312.463341 
L 321.914536 300.395833 
L 322.038818 271.362705 
L 322.145345 170.330965 
L 322.234118 100.698213 
L 322.296259 111.774393 
L 322.908791 331.066478 
L 323.095214 366.205707 
L 323.157355 366.586832 
L 323.210618 366.422371 
L 323.459182 364.591756 
L 323.974064 359.140205 
L 324.790773 347.643116 
L 326.095732 329.910434 
L 326.779282 320.033631 
L 327.036723 312.806962 
L 327.205391 301.329132 
L 327.329673 274.728968 
L 327.427323 194.670432 
L 327.53385 100.687317 
L 327.595991 112.019691 
L 328.2174 335.175224 
L 328.403823 366.344321 
L 328.457086 366.586325 
L 328.51035 366.418316 
L 328.758914 364.584407 
L 329.273795 359.130069 
L 329.318182 358.574853 
L 329.335936 359.445054 
L 329.531236 363.30394 
L 329.620009 363.485633 
L 329.664395 363.430137 
L 329.815309 362.843246 
L 330.214786 360.118864 
L 332.176664 345.846712 
L 332.869091 342.730562 
L 333.428359 341.129535 
L 333.889977 340.410872 
L 334.262823 340.191421 
L 334.617914 340.230192 
L 335.106164 340.54239 
L 336.553159 341.560581 
L 337.165691 341.654088 
L 338.115559 341.544363 
L 339.917645 341.347465 
L 435.845455 341.392825 
L 435.845455 341.392825 
" clip-path="url(#p472014ad3e)" style="fill: none; stroke: #1f77b4; stroke-width: 1.5; stroke-linecap: square"/>
   </g>
   <g id="line2d_14">
    <path d="M 80.754545 341.459471 
L 81.074127 338.948805 
L 81.535745 336.850661 
L 81.802064 336.406309 
L 81.9441 336.482499 
L 82.121645 336.918938 
L 82.405718 338.328435 
L 83.080391 341.780669 
L 83.320077 342.065524 
L 83.515377 341.98496 
L 83.826082 341.537344 
L 84.989005 339.681155 
L 85.335218 339.583672 
L 85.708064 339.728457 
L 87.004145 340.421809 
L 87.598923 340.335536 
L 88.895005 340.101942 
L 110.990536 340.189515 
L 151.772727 340.189516 
L 152.225468 305.657447 
L 152.305364 257.434689 
L 152.420768 66.96 
L 152.527295 83.777892 
L 152.909018 206.507656 
L 153.415023 369.36 
L 153.530427 369.008572 
L 153.938782 366.947976 
L 154.418155 363.284309 
L 155.08395 356.208268 
L 156.699614 338.564483 
L 157.542955 329.572322 
L 157.782641 324.121664 
L 157.933555 314.844558 
L 158.040082 290.227536 
L 158.1111 204.762688 
L 158.199873 72.409386 
L 158.262014 80.209814 
L 158.492823 151.428618 
L 159.158618 369.303636 
L 159.229636 369.132962 
L 159.602482 367.358973 
L 160.072977 363.970594 
L 160.685509 357.723922 
L 162.638509 336.639721 
L 163.28655 329.525986 
L 163.526236 324.099894 
L 163.67715 314.877229 
L 163.783677 290.516847 
L 163.854695 206.52195 
L 163.943468 72.484833 
L 164.005609 80.157707 
L 164.236418 151.365579 
L 164.902214 369.301344 
L 164.973232 369.130797 
L 165.346077 367.355741 
L 165.816573 363.965784 
L 166.429105 357.717572 
L 168.382105 336.635629 
L 169.030145 329.522578 
L 169.269832 324.095524 
L 169.420745 314.868036 
L 169.527273 290.481925 
L 169.598291 206.351503 
L 169.687064 72.488186 
L 169.749205 80.175206 
L 169.980014 151.396748 
L 170.645809 369.301315 
L 170.716827 369.130361 
L 171.089673 367.355052 
L 171.560168 363.964758 
L 172.1727 357.716213 
L 174.1257 336.634554 
L 174.773741 329.520945 
L 175.013427 324.091922 
L 175.164341 314.857328 
L 175.270868 290.434687 
L 175.341886 206.107425 
L 175.430659 72.488595 
L 175.4928 80.195194 
L 175.723609 151.431169 
L 176.389405 369.301374 
L 176.460423 369.129998 
L 176.842145 367.302811 
L 177.312641 363.887043 
L 177.93405 357.511638 
L 179.824909 337.051873 
L 180.517336 329.519404 
L 180.757023 324.088397 
L 180.907936 314.846696 
L 181.014464 290.387545 
L 181.085482 205.863411 
L 181.174255 72.488936 
L 181.236395 80.215075 
L 181.467205 151.465342 
L 182.133 369.301434 
L 182.204018 369.129643 
L 182.585741 367.302237 
L 183.056236 363.886191 
L 183.677645 357.510512 
L 185.568505 337.050948 
L 186.260932 329.517884 
L 186.500618 324.084916 
L 186.651532 314.836188 
L 186.758059 290.340933 
L 186.829077 205.621784 
L 186.91785 72.489321 
L 186.979991 80.234769 
L 187.2108 151.499166 
L 187.876595 369.301493 
L 187.947614 369.129291 
L 188.329336 367.30167 
L 188.799832 363.885349 
L 189.421241 357.509398 
L 191.3121 337.050033 
L 192.004527 329.516381 
L 192.244214 324.081474 
L 192.395127 314.825796 
L 192.501655 290.294826 
L 192.572673 205.381766 
L 192.661445 72.489764 
L 192.723586 80.254251 
L 192.954395 151.532592 
L 193.620191 369.30155 
L 193.691209 369.128942 
L 194.072932 367.301108 
L 194.543427 363.884514 
L 195.164836 357.508295 
L 197.055695 337.049127 
L 197.748123 329.514894 
L 197.987809 324.078068 
L 198.138723 314.815513 
L 198.24525 290.249193 
L 198.316268 205.144189 
L 198.405041 72.490256 
L 198.467182 80.273575 
L 198.697991 151.56573 
L 199.363786 369.301606 
L 199.434805 369.128597 
L 199.816527 367.300551 
L 200.287023 363.883687 
L 200.908432 357.507201 
L 202.799291 337.048228 
L 203.491718 329.513419 
L 203.731405 324.074691 
L 203.882318 314.805314 
L 203.988845 290.203925 
L 204.059864 204.908474 
L 204.148636 72.490836 
L 204.210777 80.292759 
L 204.441586 151.598606 
L 205.107382 369.301658 
L 205.1784 369.128253 
L 205.560123 367.299997 
L 206.030618 363.882864 
L 206.652027 357.506113 
L 208.542886 337.047334 
L 209.235314 329.511954 
L 209.475 324.071333 
L 209.625914 314.795173 
L 209.732441 290.1589 
L 209.803459 204.674153 
L 209.892232 72.491459 
L 209.954373 80.31183 
L 210.185182 151.631259 
L 210.850977 369.301709 
L 210.921995 369.127912 
L 211.303718 367.299448 
L 211.774214 363.882047 
L 212.395623 357.505034 
L 214.286482 337.046448 
L 214.978909 329.510501 
L 215.218595 324.067981 
L 215.369509 314.785038 
L 215.467159 294.060077 
L 215.538177 224.647938 
L 215.635827 72.492113 
L 215.706845 82.20079 
L 215.973164 166.982254 
L 216.594573 369.30176 
L 216.674468 369.094864 
L 217.065068 367.19414 
L 217.535564 363.726073 
L 218.16585 357.197314 
L 219.976814 337.547418 
L 220.722505 329.509069 
L 220.962191 324.064677 
L 221.113105 314.775048 
L 221.210755 294.022523 
L 221.281773 224.458361 
L 221.379423 72.492851 
L 221.450441 82.22076 
L 221.716759 167.013531 
L 222.338168 369.301808 
L 222.418064 369.094524 
L 222.808664 367.193597 
L 223.279159 363.725272 
L 223.909445 357.196262 
L 225.720409 337.546559 
L 226.4661 329.507659 
L 226.705786 324.061423 
L 226.8567 314.765208 
L 226.95435 293.98553 
L 227.025368 224.271589 
L 227.123018 72.493646 
L 227.194036 82.240456 
L 227.460355 167.044371 
L 228.081764 369.301854 
L 228.161659 369.094188 
L 228.552259 367.193062 
L 229.022755 363.724481 
L 229.653041 357.195223 
L 231.464005 337.545711 
L 232.209695 329.506269 
L 232.449382 324.058215 
L 232.600295 314.755506 
L 232.697945 293.949047 
L 232.768964 224.087367 
L 232.866614 72.4945 
L 232.937632 82.2599 
L 233.20395 167.074807 
L 233.825359 369.301897 
L 233.905255 369.093857 
L 234.295855 367.192533 
L 234.76635 363.7237 
L 235.396636 357.194197 
L 237.2076 337.544874 
L 237.953291 329.504896 
L 238.192977 324.055048 
L 238.343891 314.745926 
L 238.441541 293.913013 
L 238.512559 223.905386 
L 238.610209 72.495389 
L 238.681227 82.279142 
L 238.947545 167.104917 
L 239.568955 369.301939 
L 239.64885 369.093528 
L 240.03945 367.19201 
L 240.509945 363.722927 
L 241.140232 357.193183 
L 242.951195 337.544047 
L 243.696886 329.503538 
L 243.936573 324.051915 
L 244.087486 314.73645 
L 244.185136 293.877145 
L 244.256155 223.724081 
L 244.353805 72.496337 
L 244.424823 82.298267 
L 244.691141 167.134836 
L 245.31255 369.301979 
L 245.392445 369.093202 
L 245.783045 367.191489 
L 246.253541 363.722158 
L 246.883827 357.192173 
L 248.694791 337.543224 
L 249.440482 329.50219 
L 249.680168 324.048805 
L 249.831082 314.72704 
L 249.928732 293.841488 
L 249.99975 223.543806 
L 250.0974 72.497336 
L 250.168418 82.317292 
L 250.434736 167.16459 
L 251.056145 369.302017 
L 251.136041 369.092876 
L 251.526641 367.19097 
L 251.997136 363.721391 
L 252.627423 357.191166 
L 254.438386 337.542402 
L 255.184077 329.500844 
L 255.423764 324.045701 
L 255.574677 314.717648 
L 255.672327 293.805896 
L 255.743345 223.364228 
L 255.840995 72.498345 
L 255.912014 82.336202 
L 256.178332 167.194129 
L 256.799741 369.302056 
L 256.879636 369.092554 
L 257.270236 367.190456 
L 257.740732 363.720632 
L 258.371018 357.19017 
L 260.181982 337.54159 
L 260.927673 329.499512 
L 261.167359 324.042626 
L 261.318273 314.708259 
L 261.415923 293.770279 
L 261.486941 223.184574 
L 261.584591 72.499403 
L 261.655609 82.355106 
L 261.921927 167.223642 
L 262.543336 369.302093 
L 262.623232 369.092232 
L 263.013832 367.189942 
L 263.484327 363.719873 
L 264.114614 357.189174 
L 265.925577 337.540778 
L 266.671268 329.498181 
L 266.910955 324.039553 
L 267.061868 314.698837 
L 267.159518 293.734482 
L 267.230536 223.003977 
L 267.328186 72.500519 
L 267.399205 82.374121 
L 267.665523 167.253319 
L 268.286932 369.302129 
L 268.366827 369.091907 
L 268.757427 367.189424 
L 269.227923 363.719109 
L 269.858209 357.18817 
L 271.669173 337.53996 
L 272.414864 329.49684 
L 272.65455 324.036461 
L 272.805464 314.689352 
L 272.903114 293.698442 
L 272.974132 222.822128 
L 273.071782 72.501728 
L 273.1428 82.393257 
L 273.409118 167.283176 
L 274.030527 369.302163 
L 274.110423 369.091579 
L 274.501023 367.188901 
L 274.971518 363.718336 
L 275.601805 357.187156 
L 277.412768 337.539133 
L 278.158459 329.495483 
L 278.398145 324.033325 
L 278.549059 314.679733 
L 278.646709 293.661884 
L 278.717727 222.637642 
L 278.815377 72.503018 
L 278.886395 82.412646 
L 279.152714 167.313411 
L 279.774123 369.302196 
L 279.854018 369.091246 
L 280.244618 367.188371 
L 280.715114 363.717553 
L 281.3454 357.186129 
L 283.156364 337.538296 
L 283.902055 329.494104 
L 284.141741 324.03014 
L 284.292655 314.66996 
L 284.390305 293.624731 
L 284.461323 222.450429 
L 284.558973 72.504346 
L 284.629991 82.432224 
L 284.896309 167.343896 
L 285.517718 369.302227 
L 285.597614 369.090912 
L 285.988214 367.187838 
L 286.458709 363.716767 
L 287.088995 357.185097 
L 288.899959 337.537455 
L 289.64565 329.492718 
L 289.885336 324.026935 
L 290.03625 314.660121 
L 290.1339 293.587318 
L 290.204918 222.261976 
L 290.302568 72.505708 
L 290.373586 82.451869 
L 290.639905 167.374455 
L 291.261314 369.302257 
L 291.341209 369.090578 
L 291.731809 367.187307 
L 292.202305 363.715982 
L 292.832591 357.184066 
L 294.643555 337.536615 
L 295.389245 329.491332 
L 295.628932 324.023727 
L 295.779845 314.650268 
L 295.877495 293.549843 
L 295.948514 222.073181 
L 296.046164 72.507112 
L 296.117182 82.471511 
L 296.3835 167.404979 
L 297.004909 369.302283 
L 297.084805 369.090245 
L 297.475405 367.186777 
L 297.9459 363.715199 
L 298.576186 357.183039 
L 300.38715 337.535778 
L 301.132841 329.489948 
L 301.372527 324.020525 
L 301.523441 314.640429 
L 301.621091 293.512415 
L 301.692109 221.884591 
L 301.789759 72.508602 
L 301.860777 82.491094 
L 302.127095 167.435397 
L 302.748505 369.302307 
L 302.8284 369.089912 
L 303.219 367.186247 
L 303.689495 363.714417 
L 304.319782 357.182013 
L 306.130745 337.534941 
L 306.876436 329.488566 
L 307.116123 324.017326 
L 307.267036 314.630603 
L 307.364686 293.475028 
L 307.435705 221.696194 
L 307.533355 72.510151 
L 307.604373 82.51067 
L 307.870691 167.465793 
L 308.4921 369.302327 
L 308.571995 369.089579 
L 308.962595 367.185716 
L 309.433091 363.713634 
L 310.063377 357.180985 
L 311.874341 337.534102 
L 312.620032 329.487183 
L 312.859718 324.014124 
L 313.010632 314.620762 
L 313.108282 293.437576 
L 313.1793 221.507443 
L 313.27695 72.511766 
L 313.347968 82.5303 
L 313.614286 167.49626 
L 314.235695 369.302346 
L 314.306714 369.122102 
L 314.688436 367.290106 
L 315.158932 363.868177 
L 315.780341 357.486707 
L 317.662323 337.115073 
L 318.363627 329.485794 
L 318.603314 324.010911 
L 318.754227 314.610886 
L 318.851877 293.399986 
L 318.922895 221.31802 
L 319.020545 72.513379 
L 319.091564 82.549975 
L 319.357882 167.526761 
L 319.979291 369.302364 
L 320.050309 369.121777 
L 320.432032 367.289584 
L 320.902527 363.867401 
L 321.523936 357.485683 
L 323.405918 337.114233 
L 324.107223 329.484407 
L 324.346909 324.007699 
L 324.497823 314.601013 
L 324.595473 293.362189 
L 324.666491 221.127489 
L 324.764141 72.51507 
L 324.835159 82.569721 
L 325.110355 170.589627 
L 325.722886 369.30238 
L 325.802782 369.088574 
L 326.193382 367.184118 
L 326.663877 363.711275 
L 327.294164 357.177889 
L 329.105127 337.531579 
L 329.318182 335.520507 
L 329.327059 336.000136 
L 329.593377 344.036741 
L 329.841941 346.562902 
L 329.957345 346.716795 
L 329.992855 346.686994 
L 330.143768 346.303375 
L 330.534368 344.486846 
L 331.395464 340.682999 
L 331.892591 339.38763 
L 332.212173 339.058489 
L 332.460736 339.084607 
L 332.762564 339.377492 
L 333.845591 340.617594 
L 334.218436 340.626674 
L 334.777705 340.376478 
L 335.612168 340.047709 
L 336.251332 340.061758 
L 338.053418 340.23917 
L 340.627827 340.19217 
L 345.927559 340.189604 
L 434.762427 340.189516 
L 435.845455 340.189516 
L 435.845455 340.189516 
" clip-path="url(#p472014ad3e)" style="fill: none; stroke: #ff0000; stroke-width: 1.5; stroke-linecap: square"/>
   </g>
   <g id="patch_3">
    <path d="M 63 384.48 
L 63 51.84 
" style="fill: none; stroke: #000000; stroke-width: 0.8; stroke-linejoin: miter; stroke-linecap: square"/>
   </g>
   <g id="patch_4">
    <path d="M 453.6 384.48 
L 453.6 51.84 
" style="fill: none; stroke: #000000; stroke-width: 0.8; stroke-linejoin: miter; stroke-linecap: square"/>
   </g>
   <g id="patch_5">
    <path d="M 63 384.48 
L 453.6 384.48 
" style="fill: none; stroke: #000000; stroke-width: 0.8; stroke-linejoin: miter; stroke-linecap: square"/>
   </g>
   <g id="patch_6">
    <path d="M 63 51.84 
L 453.6 51.84 
" style="fill: none; stroke: #000000; stroke-width: 0.8; stroke-linejoin: miter; stroke-linecap: square"/>
   </g>
   <g id="legend_1">
    <g id="patch_7">
     <path d="M 383.460938 89.19625 
L 446.6 89.19625 
Q 448.6 89.19625 448.6 87.19625 
L 448.6 58.84 
Q 448.6 56.84 446.6 56.84 
L 383.460938 56.84 
Q 381.460938 56.84 381.460938 58.84 
L 381.460938 87.19625 
Q 381.460938 89.19625 383.460938 89.19625 
z
" style="fill: #ffffff; opacity: 0.8; stroke: #cccccc; stroke-linejoin: miter"/>
    </g>
    <g id="line2d_15">
     <path d="M 385.460938 64.938437 
L 395.460938 64.938437 
L 405.460938 64.938437 
" style="fill: none; stroke: #1f77b4; stroke-width: 1.5; stroke-linecap: square"/>
    </g>
    <g id="text_15">
     <!-- target -->
     <g transform="translate(413.460938 68.438437)scale(0.1 -0.1)">
      <defs>
       <path id="DejaVuSans-72" d="M 2631 2963 
Q 2534 3019 2420 3045 
Q 2306 3072 2169 3072 
Q 1681 3072 1420 2755 
Q 1159 2438 1159 1844 
L 1159 0 
L 581 0 
L 581 3500 
L 1159 3500 
L 1159 2956 
Q 1341 3275 1631 3429 
Q 1922 3584 2338 3584 
Q 2397 3584 2469 3576 
Q 2541 3569 2628 3553 
L 2631 2963 
z
" transform="scale(0.015625)"/>
      </defs>
      <use xlink:href="#DejaVuSans-74"/>
      <use xlink:href="#DejaVuSans-61" x="39.208984"/>
      <use xlink:href="#DejaVuSans-72" x="100.488281"/>
      <use xlink:href="#DejaVuSans-67" x="139.851562"/>
      <use xlink:href="#DejaVuSans-65" x="203.328125"/>
      <use xlink:href="#DejaVuSans-74" x="264.851562"/>
     </g>
    </g>
    <g id="line2d_16">
     <path d="M 385.460938 79.616562 
L 395.460938 79.616562 
L 405.460938 79.616562 
" style="fill: none; stroke: #ff0000; stroke-width: 1.5; stroke-linecap: square"/>
    </g>
    <g id="text_16">
     <!-- model -->
     <g transform="translate(413.460938 83.116562)scale(0.1 -0.1)">
      <defs>
       <path id="DejaVuSans-64" d="M 2906 2969 
L 2906 4863 
L 3481 4863 
L 3481 0 
L 2906 0 
L 2906 525 
Q 2725 213 2448 61 
Q 2172 -91 1784 -91 
Q 1150 -91 751 415 
Q 353 922 353 1747 
Q 353 2572 751 3078 
Q 1150 3584 1784 3584 
Q 2172 3584 2448 3432 
Q 2725 3281 2906 2969 
z
M 947 1747 
Q 947 1113 1208 752 
Q 1469 391 1925 391 
Q 2381 391 2643 752 
Q 2906 1113 2906 1747 
Q 2906 2381 2643 2742 
Q 2381 3103 1925 3103 
Q 1469 3103 1208 2742 
Q 947 2381 947 1747 
z
" transform="scale(0.015625)"/>
      </defs>
      <use xlink:href="#DejaVuSans-6d"/>
      <use xlink:href="#DejaVuSans-6f" x="97.412109"/>
      <use xlink:href="#DejaVuSans-64" x="158.59375"/>
      <use xlink:href="#DejaVuSans-65" x="222.070312"/>
      <use xlink:href="#DejaVuSans-6c" x="283.59375"/>
     </g>
    </g>
   </g>
  </g>
 </g>
 <defs>
  <clipPath id="p472014ad3e">
   <rect x="63" y="51.84" width="390.6" height="332.64"/>
  </clipPath>
 </defs>
</svg>
