<?xml version="1.0" encoding="utf-8" standalone="no"?>
<!DOCTYPE svg PUBLIC "-//W3C//DTD SVG 1.1//EN"
  "http://www.w3.org/Graphics/SVG/1.1/DTD/svg11.dtd">
<svg xmlns:xlink="http://www.w3.org/1999/xlink" width="504pt" height="432pt" viewBox="0 0 504 432" xmlns="http://www.w3.org/2000/svg" version="1.1">
 <metadata>
  <rdf:RDF xmlns:dc="http://purl.org/dc/elements/1.1/" xmlns:cc="http://creativecommons.org/ns#" xmlns:rdf="http://www.w3.org/1999/02/22-rdf-syntax-ns#">
   <cc:Work>
    <dc:type rdf:resource="http://purl.org/dc/dcmitype/StillImage"/>
    <dc:date>2022-01-31T18:26:56.314944</dc:date>
    <dc:format>image/svg+xml</dc:format>
    <dc:creator>
     <cc:Agent>
      <dc:title>Matplotlib v3.5.1, https://matplotlib.org/</dc:title>
     </cc:Agent>
    </dc:creator>
   </cc:Work>
  </rdf:RDF>
 </metadata>
 <defs>
  <style type="text/css">*{stroke-linejoin: round; stroke-linecap: butt}</style>
 </defs>
 <g id="figure_1">
  <g id="patch_1">
   <path d="M 0 432 
L 504 432 
L 504 0 
L 0 0 
z
" style="fill: #ffffff"/>
  </g>
  <g id="axes_1">
   <g id="patch_2">
    <path d="M 63 384.48 
L 453.6 384.48 
L 453.6 51.84 
L 63 51.84 
z
" style="fill: #ffffff"/>
   </g>
   <g id="matplotlib.axis_1">
    <g id="xtick_1">
     <g id="line2d_1">
      <defs>
       <path id="m622a57e191" d="M 0 0 
L 0 3.5 
" style="stroke: #000000; stroke-width: 0.8"/>
      </defs>
      <g>
       <use xlink:href="#m622a57e191" x="80.754545" y="384.48" style="stroke: #000000; stroke-width: 0.8"/>
      </g>
     </g>
     <g id="text_1">
      <!-- 0 -->
      <g transform="translate(77.573295 399.078438)scale(0.1 -0.1)">
       <defs>
        <path id="DejaVuSans-30" d="M 2034 4250 
Q 1547 4250 1301 3770 
Q 1056 3291 1056 2328 
Q 1056 1369 1301 889 
Q 1547 409 2034 409 
Q 2525 409 2770 889 
Q 3016 1369 3016 2328 
Q 3016 3291 2770 3770 
Q 2525 4250 2034 4250 
z
M 2034 4750 
Q 2819 4750 3233 4129 
Q 3647 3509 3647 2328 
Q 3647 1150 3233 529 
Q 2819 -91 2034 -91 
Q 1250 -91 836 529 
Q 422 1150 422 2328 
Q 422 3509 836 4129 
Q 1250 4750 2034 4750 
z
" transform="scale(0.015625)"/>
       </defs>
       <use xlink:href="#DejaVuSans-30"/>
      </g>
     </g>
    </g>
    <g id="xtick_2">
     <g id="line2d_2">
      <g>
       <use xlink:href="#m622a57e191" x="151.772727" y="384.48" style="stroke: #000000; stroke-width: 0.8"/>
      </g>
     </g>
     <g id="text_2">
      <!-- 200 -->
      <g transform="translate(142.228977 399.078438)scale(0.1 -0.1)">
       <defs>
        <path id="DejaVuSans-32" d="M 1228 531 
L 3431 531 
L 3431 0 
L 469 0 
L 469 531 
Q 828 903 1448 1529 
Q 2069 2156 2228 2338 
Q 2531 2678 2651 2914 
Q 2772 3150 2772 3378 
Q 2772 3750 2511 3984 
Q 2250 4219 1831 4219 
Q 1534 4219 1204 4116 
Q 875 4013 500 3803 
L 500 4441 
Q 881 4594 1212 4672 
Q 1544 4750 1819 4750 
Q 2544 4750 2975 4387 
Q 3406 4025 3406 3419 
Q 3406 3131 3298 2873 
Q 3191 2616 2906 2266 
Q 2828 2175 2409 1742 
Q 1991 1309 1228 531 
z
" transform="scale(0.015625)"/>
       </defs>
       <use xlink:href="#DejaVuSans-32"/>
       <use xlink:href="#DejaVuSans-30" x="63.623047"/>
       <use xlink:href="#DejaVuSans-30" x="127.246094"/>
      </g>
     </g>
    </g>
    <g id="xtick_3">
     <g id="line2d_3">
      <g>
       <use xlink:href="#m622a57e191" x="222.790909" y="384.48" style="stroke: #000000; stroke-width: 0.8"/>
      </g>
     </g>
     <g id="text_3">
      <!-- 400 -->
      <g transform="translate(213.247159 399.078438)scale(0.1 -0.1)">
       <defs>
        <path id="DejaVuSans-34" d="M 2419 4116 
L 825 1625 
L 2419 1625 
L 2419 4116 
z
M 2253 4666 
L 3047 4666 
L 3047 1625 
L 3713 1625 
L 3713 1100 
L 3047 1100 
L 3047 0 
L 2419 0 
L 2419 1100 
L 313 1100 
L 313 1709 
L 2253 4666 
z
" transform="scale(0.015625)"/>
       </defs>
       <use xlink:href="#DejaVuSans-34"/>
       <use xlink:href="#DejaVuSans-30" x="63.623047"/>
       <use xlink:href="#DejaVuSans-30" x="127.246094"/>
      </g>
     </g>
    </g>
    <g id="xtick_4">
     <g id="line2d_4">
      <g>
       <use xlink:href="#m622a57e191" x="293.809091" y="384.48" style="stroke: #000000; stroke-width: 0.8"/>
      </g>
     </g>
     <g id="text_4">
      <!-- 600 -->
      <g transform="translate(284.265341 399.078438)scale(0.1 -0.1)">
       <defs>
        <path id="DejaVuSans-36" d="M 2113 2584 
Q 1688 2584 1439 2293 
Q 1191 2003 1191 1497 
Q 1191 994 1439 701 
Q 1688 409 2113 409 
Q 2538 409 2786 701 
Q 3034 994 3034 1497 
Q 3034 2003 2786 2293 
Q 2538 2584 2113 2584 
z
M 3366 4563 
L 3366 3988 
Q 3128 4100 2886 4159 
Q 2644 4219 2406 4219 
Q 1781 4219 1451 3797 
Q 1122 3375 1075 2522 
Q 1259 2794 1537 2939 
Q 1816 3084 2150 3084 
Q 2853 3084 3261 2657 
Q 3669 2231 3669 1497 
Q 3669 778 3244 343 
Q 2819 -91 2113 -91 
Q 1303 -91 875 529 
Q 447 1150 447 2328 
Q 447 3434 972 4092 
Q 1497 4750 2381 4750 
Q 2619 4750 2861 4703 
Q 3103 4656 3366 4563 
z
" transform="scale(0.015625)"/>
       </defs>
       <use xlink:href="#DejaVuSans-36"/>
       <use xlink:href="#DejaVuSans-30" x="63.623047"/>
       <use xlink:href="#DejaVuSans-30" x="127.246094"/>
      </g>
     </g>
    </g>
    <g id="xtick_5">
     <g id="line2d_5">
      <g>
       <use xlink:href="#m622a57e191" x="364.827273" y="384.48" style="stroke: #000000; stroke-width: 0.8"/>
      </g>
     </g>
     <g id="text_5">
      <!-- 800 -->
      <g transform="translate(355.283523 399.078438)scale(0.1 -0.1)">
       <defs>
        <path id="DejaVuSans-38" d="M 2034 2216 
Q 1584 2216 1326 1975 
Q 1069 1734 1069 1313 
Q 1069 891 1326 650 
Q 1584 409 2034 409 
Q 2484 409 2743 651 
Q 3003 894 3003 1313 
Q 3003 1734 2745 1975 
Q 2488 2216 2034 2216 
z
M 1403 2484 
Q 997 2584 770 2862 
Q 544 3141 544 3541 
Q 544 4100 942 4425 
Q 1341 4750 2034 4750 
Q 2731 4750 3128 4425 
Q 3525 4100 3525 3541 
Q 3525 3141 3298 2862 
Q 3072 2584 2669 2484 
Q 3125 2378 3379 2068 
Q 3634 1759 3634 1313 
Q 3634 634 3220 271 
Q 2806 -91 2034 -91 
Q 1263 -91 848 271 
Q 434 634 434 1313 
Q 434 1759 690 2068 
Q 947 2378 1403 2484 
z
M 1172 3481 
Q 1172 3119 1398 2916 
Q 1625 2713 2034 2713 
Q 2441 2713 2670 2916 
Q 2900 3119 2900 3481 
Q 2900 3844 2670 4047 
Q 2441 4250 2034 4250 
Q 1625 4250 1398 4047 
Q 1172 3844 1172 3481 
z
" transform="scale(0.015625)"/>
       </defs>
       <use xlink:href="#DejaVuSans-38"/>
       <use xlink:href="#DejaVuSans-30" x="63.623047"/>
       <use xlink:href="#DejaVuSans-30" x="127.246094"/>
      </g>
     </g>
    </g>
    <g id="text_6">
     <!-- time [ms] -->
     <g transform="translate(234.038281 412.756563)scale(0.1 -0.1)">
      <defs>
       <path id="DejaVuSans-74" d="M 1172 4494 
L 1172 3500 
L 2356 3500 
L 2356 3053 
L 1172 3053 
L 1172 1153 
Q 1172 725 1289 603 
Q 1406 481 1766 481 
L 2356 481 
L 2356 0 
L 1766 0 
Q 1100 0 847 248 
Q 594 497 594 1153 
L 594 3053 
L 172 3053 
L 172 3500 
L 594 3500 
L 594 4494 
L 1172 4494 
z
" transform="scale(0.015625)"/>
       <path id="DejaVuSans-69" d="M 603 3500 
L 1178 3500 
L 1178 0 
L 603 0 
L 603 3500 
z
M 603 4863 
L 1178 4863 
L 1178 4134 
L 603 4134 
L 603 4863 
z
" transform="scale(0.015625)"/>
       <path id="DejaVuSans-6d" d="M 3328 2828 
Q 3544 3216 3844 3400 
Q 4144 3584 4550 3584 
Q 5097 3584 5394 3201 
Q 5691 2819 5691 2113 
L 5691 0 
L 5113 0 
L 5113 2094 
Q 5113 2597 4934 2840 
Q 4756 3084 4391 3084 
Q 3944 3084 3684 2787 
Q 3425 2491 3425 1978 
L 3425 0 
L 2847 0 
L 2847 2094 
Q 2847 2600 2669 2842 
Q 2491 3084 2119 3084 
Q 1678 3084 1418 2786 
Q 1159 2488 1159 1978 
L 1159 0 
L 581 0 
L 581 3500 
L 1159 3500 
L 1159 2956 
Q 1356 3278 1631 3431 
Q 1906 3584 2284 3584 
Q 2666 3584 2933 3390 
Q 3200 3197 3328 2828 
z
" transform="scale(0.015625)"/>
       <path id="DejaVuSans-65" d="M 3597 1894 
L 3597 1613 
L 953 1613 
Q 991 1019 1311 708 
Q 1631 397 2203 397 
Q 2534 397 2845 478 
Q 3156 559 3463 722 
L 3463 178 
Q 3153 47 2828 -22 
Q 2503 -91 2169 -91 
Q 1331 -91 842 396 
Q 353 884 353 1716 
Q 353 2575 817 3079 
Q 1281 3584 2069 3584 
Q 2775 3584 3186 3129 
Q 3597 2675 3597 1894 
z
M 3022 2063 
Q 3016 2534 2758 2815 
Q 2500 3097 2075 3097 
Q 1594 3097 1305 2825 
Q 1016 2553 972 2059 
L 3022 2063 
z
" transform="scale(0.015625)"/>
       <path id="DejaVuSans-20" transform="scale(0.015625)"/>
       <path id="DejaVuSans-5b" d="M 550 4863 
L 1875 4863 
L 1875 4416 
L 1125 4416 
L 1125 -397 
L 1875 -397 
L 1875 -844 
L 550 -844 
L 550 4863 
z
" transform="scale(0.015625)"/>
       <path id="DejaVuSans-73" d="M 2834 3397 
L 2834 2853 
Q 2591 2978 2328 3040 
Q 2066 3103 1784 3103 
Q 1356 3103 1142 2972 
Q 928 2841 928 2578 
Q 928 2378 1081 2264 
Q 1234 2150 1697 2047 
L 1894 2003 
Q 2506 1872 2764 1633 
Q 3022 1394 3022 966 
Q 3022 478 2636 193 
Q 2250 -91 1575 -91 
Q 1294 -91 989 -36 
Q 684 19 347 128 
L 347 722 
Q 666 556 975 473 
Q 1284 391 1588 391 
Q 1994 391 2212 530 
Q 2431 669 2431 922 
Q 2431 1156 2273 1281 
Q 2116 1406 1581 1522 
L 1381 1569 
Q 847 1681 609 1914 
Q 372 2147 372 2553 
Q 372 3047 722 3315 
Q 1072 3584 1716 3584 
Q 2034 3584 2315 3537 
Q 2597 3491 2834 3397 
z
" transform="scale(0.015625)"/>
       <path id="DejaVuSans-5d" d="M 1947 4863 
L 1947 -844 
L 622 -844 
L 622 -397 
L 1369 -397 
L 1369 4416 
L 622 4416 
L 622 4863 
L 1947 4863 
z
" transform="scale(0.015625)"/>
      </defs>
      <use xlink:href="#DejaVuSans-74"/>
      <use xlink:href="#DejaVuSans-69" x="39.208984"/>
      <use xlink:href="#DejaVuSans-6d" x="66.992188"/>
      <use xlink:href="#DejaVuSans-65" x="164.404297"/>
      <use xlink:href="#DejaVuSans-20" x="225.927734"/>
      <use xlink:href="#DejaVuSans-5b" x="257.714844"/>
      <use xlink:href="#DejaVuSans-6d" x="296.728516"/>
      <use xlink:href="#DejaVuSans-73" x="394.140625"/>
      <use xlink:href="#DejaVuSans-5d" x="446.240234"/>
     </g>
    </g>
   </g>
   <g id="matplotlib.axis_2">
    <g id="ytick_1">
     <g id="line2d_6">
      <defs>
       <path id="mc190c2d407" d="M 0 0 
L -3.5 0 
" style="stroke: #000000; stroke-width: 0.8"/>
      </defs>
      <g>
       <use xlink:href="#mc190c2d407" x="63" y="377.123602" style="stroke: #000000; stroke-width: 0.8"/>
      </g>
     </g>
     <g id="text_7">
      <!-- −80 -->
      <g transform="translate(34.895313 380.922821)scale(0.1 -0.1)">
       <defs>
        <path id="DejaVuSans-2212" d="M 678 2272 
L 4684 2272 
L 4684 1741 
L 678 1741 
L 678 2272 
z
" transform="scale(0.015625)"/>
       </defs>
       <use xlink:href="#DejaVuSans-2212"/>
       <use xlink:href="#DejaVuSans-38" x="83.789062"/>
       <use xlink:href="#DejaVuSans-30" x="147.412109"/>
      </g>
     </g>
    </g>
    <g id="ytick_2">
     <g id="line2d_7">
      <g>
       <use xlink:href="#mc190c2d407" x="63" y="328.936997" style="stroke: #000000; stroke-width: 0.8"/>
      </g>
     </g>
     <g id="text_8">
      <!-- −60 -->
      <g transform="translate(34.895313 332.736215)scale(0.1 -0.1)">
       <use xlink:href="#DejaVuSans-2212"/>
       <use xlink:href="#DejaVuSans-36" x="83.789062"/>
       <use xlink:href="#DejaVuSans-30" x="147.412109"/>
      </g>
     </g>
    </g>
    <g id="ytick_3">
     <g id="line2d_8">
      <g>
       <use xlink:href="#mc190c2d407" x="63" y="280.750391" style="stroke: #000000; stroke-width: 0.8"/>
      </g>
     </g>
     <g id="text_9">
      <!-- −40 -->
      <g transform="translate(34.895313 284.54961)scale(0.1 -0.1)">
       <use xlink:href="#DejaVuSans-2212"/>
       <use xlink:href="#DejaVuSans-34" x="83.789062"/>
       <use xlink:href="#DejaVuSans-30" x="147.412109"/>
      </g>
     </g>
    </g>
    <g id="ytick_4">
     <g id="line2d_9">
      <g>
       <use xlink:href="#mc190c2d407" x="63" y="232.563785" style="stroke: #000000; stroke-width: 0.8"/>
      </g>
     </g>
     <g id="text_10">
      <!-- −20 -->
      <g transform="translate(34.895313 236.363004)scale(0.1 -0.1)">
       <use xlink:href="#DejaVuSans-2212"/>
       <use xlink:href="#DejaVuSans-32" x="83.789062"/>
       <use xlink:href="#DejaVuSans-30" x="147.412109"/>
      </g>
     </g>
    </g>
    <g id="ytick_5">
     <g id="line2d_10">
      <g>
       <use xlink:href="#mc190c2d407" x="63" y="184.37718" style="stroke: #000000; stroke-width: 0.8"/>
      </g>
     </g>
     <g id="text_11">
      <!-- 0 -->
      <g transform="translate(49.6375 188.176399)scale(0.1 -0.1)">
       <use xlink:href="#DejaVuSans-30"/>
      </g>
     </g>
    </g>
    <g id="ytick_6">
     <g id="line2d_11">
      <g>
       <use xlink:href="#mc190c2d407" x="63" y="136.190574" style="stroke: #000000; stroke-width: 0.8"/>
      </g>
     </g>
     <g id="text_12">
      <!-- 20 -->
      <g transform="translate(43.275 139.989793)scale(0.1 -0.1)">
       <use xlink:href="#DejaVuSans-32"/>
       <use xlink:href="#DejaVuSans-30" x="63.623047"/>
      </g>
     </g>
    </g>
    <g id="ytick_7">
     <g id="line2d_12">
      <g>
       <use xlink:href="#mc190c2d407" x="63" y="88.003969" style="stroke: #000000; stroke-width: 0.8"/>
      </g>
     </g>
     <g id="text_13">
      <!-- 40 -->
      <g transform="translate(43.275 91.803187)scale(0.1 -0.1)">
       <use xlink:href="#DejaVuSans-34"/>
       <use xlink:href="#DejaVuSans-30" x="63.623047"/>
      </g>
     </g>
    </g>
    <g id="text_14">
     <!-- voltage [mV] -->
     <g transform="translate(28.815625 250.624062)rotate(-90)scale(0.1 -0.1)">
      <defs>
       <path id="DejaVuSans-76" d="M 191 3500 
L 800 3500 
L 1894 563 
L 2988 3500 
L 3597 3500 
L 2284 0 
L 1503 0 
L 191 3500 
z
" transform="scale(0.015625)"/>
       <path id="DejaVuSans-6f" d="M 1959 3097 
Q 1497 3097 1228 2736 
Q 959 2375 959 1747 
Q 959 1119 1226 758 
Q 1494 397 1959 397 
Q 2419 397 2687 759 
Q 2956 1122 2956 1747 
Q 2956 2369 2687 2733 
Q 2419 3097 1959 3097 
z
M 1959 3584 
Q 2709 3584 3137 3096 
Q 3566 2609 3566 1747 
Q 3566 888 3137 398 
Q 2709 -91 1959 -91 
Q 1206 -91 779 398 
Q 353 888 353 1747 
Q 353 2609 779 3096 
Q 1206 3584 1959 3584 
z
" transform="scale(0.015625)"/>
       <path id="DejaVuSans-6c" d="M 603 4863 
L 1178 4863 
L 1178 0 
L 603 0 
L 603 4863 
z
" transform="scale(0.015625)"/>
       <path id="DejaVuSans-61" d="M 2194 1759 
Q 1497 1759 1228 1600 
Q 959 1441 959 1056 
Q 959 750 1161 570 
Q 1363 391 1709 391 
Q 2188 391 2477 730 
Q 2766 1069 2766 1631 
L 2766 1759 
L 2194 1759 
z
M 3341 1997 
L 3341 0 
L 2766 0 
L 2766 531 
Q 2569 213 2275 61 
Q 1981 -91 1556 -91 
Q 1019 -91 701 211 
Q 384 513 384 1019 
Q 384 1609 779 1909 
Q 1175 2209 1959 2209 
L 2766 2209 
L 2766 2266 
Q 2766 2663 2505 2880 
Q 2244 3097 1772 3097 
Q 1472 3097 1187 3025 
Q 903 2953 641 2809 
L 641 3341 
Q 956 3463 1253 3523 
Q 1550 3584 1831 3584 
Q 2591 3584 2966 3190 
Q 3341 2797 3341 1997 
z
" transform="scale(0.015625)"/>
       <path id="DejaVuSans-67" d="M 2906 1791 
Q 2906 2416 2648 2759 
Q 2391 3103 1925 3103 
Q 1463 3103 1205 2759 
Q 947 2416 947 1791 
Q 947 1169 1205 825 
Q 1463 481 1925 481 
Q 2391 481 2648 825 
Q 2906 1169 2906 1791 
z
M 3481 434 
Q 3481 -459 3084 -895 
Q 2688 -1331 1869 -1331 
Q 1566 -1331 1297 -1286 
Q 1028 -1241 775 -1147 
L 775 -588 
Q 1028 -725 1275 -790 
Q 1522 -856 1778 -856 
Q 2344 -856 2625 -561 
Q 2906 -266 2906 331 
L 2906 616 
Q 2728 306 2450 153 
Q 2172 0 1784 0 
Q 1141 0 747 490 
Q 353 981 353 1791 
Q 353 2603 747 3093 
Q 1141 3584 1784 3584 
Q 2172 3584 2450 3431 
Q 2728 3278 2906 2969 
L 2906 3500 
L 3481 3500 
L 3481 434 
z
" transform="scale(0.015625)"/>
       <path id="DejaVuSans-56" d="M 1831 0 
L 50 4666 
L 709 4666 
L 2188 738 
L 3669 4666 
L 4325 4666 
L 2547 0 
L 1831 0 
z
" transform="scale(0.015625)"/>
      </defs>
      <use xlink:href="#DejaVuSans-76"/>
      <use xlink:href="#DejaVuSans-6f" x="59.179688"/>
      <use xlink:href="#DejaVuSans-6c" x="120.361328"/>
      <use xlink:href="#DejaVuSans-74" x="148.144531"/>
      <use xlink:href="#DejaVuSans-61" x="187.353516"/>
      <use xlink:href="#DejaVuSans-67" x="248.632812"/>
      <use xlink:href="#DejaVuSans-65" x="312.109375"/>
      <use xlink:href="#DejaVuSans-20" x="373.632812"/>
      <use xlink:href="#DejaVuSans-5b" x="405.419922"/>
      <use xlink:href="#DejaVuSans-6d" x="444.433594"/>
      <use xlink:href="#DejaVuSans-56" x="541.845703"/>
      <use xlink:href="#DejaVuSans-5d" x="610.253906"/>
     </g>
    </g>
   </g>
   <g id="line2d_13">
    <path d="M 80.754545 340.983648 
L 82.006241 340.857399 
L 151.772727 340.920283 
L 152.314241 300.053704 
L 152.420768 255.41291 
L 152.562805 88.785073 
L 152.678209 111.931509 
L 153.565936 365.295718 
L 153.610323 365.203441 
L 153.8145 363.937819 
L 154.293873 359.574522 
L 154.959668 351.20234 
L 157.42755 315.505221 
L 157.613973 305.291829 
L 157.738255 285.130312 
L 157.835905 227.711635 
L 157.969064 111.145345 
L 158.031205 123.217535 
L 158.883423 364.906129 
L 158.945564 364.737717 
L 159.203005 362.921082 
L 159.717886 357.714037 
L 160.534595 346.766522 
L 161.8218 330.125278 
L 162.514227 320.61011 
L 162.771668 313.707138 
L 162.940336 302.700594 
L 163.064618 277.031108 
L 163.162268 199.563502 
L 163.268795 111.990056 
L 163.322059 120.721951 
L 163.863573 299.798315 
L 164.147645 364.743981 
L 164.183155 364.876976 
L 164.245295 364.710492 
L 164.493859 362.963245 
L 165.008741 357.774271 
L 165.834327 346.713758 
L 167.112655 330.193703 
L 167.813959 320.577584 
L 168.0714 313.665698 
L 168.240068 302.623014 
L 168.36435 276.805113 
L 168.462 198.879131 
L 168.568527 112.06065 
L 168.621791 120.92578 
L 169.172182 303.425562 
L 169.4385 364.665196 
L 169.482886 364.875049 
L 169.545027 364.70495 
L 169.802468 362.880846 
L 170.31735 357.657418 
L 171.151814 346.448491 
L 172.430141 329.97084 
L 173.113691 320.560719 
L 173.371132 313.632208 
L 173.5398 302.535073 
L 173.664082 276.494791 
L 173.761732 197.822375 
L 173.868259 112.076069 
L 173.921523 121.142379 
L 174.480791 307.162433 
L 174.729355 364.564727 
L 174.782618 364.875049 
L 174.844759 364.701095 
L 175.1022 362.8741 
L 175.617082 357.64754 
L 176.451545 346.436685 
L 177.729873 329.960962 
L 178.413423 320.545299 
L 178.670864 313.5992 
L 178.839532 302.445928 
L 178.963814 276.176277 
L 179.061464 196.734683 
L 179.167991 112.091971 
L 179.221255 121.361387 
L 179.7894 310.993991 
L 180.029086 364.576051 
L 180.08235 364.87529 
L 180.144491 364.696999 
L 180.401932 362.867354 
L 180.916814 357.637903 
L 181.751277 346.425361 
L 183.029605 329.951325 
L 183.713155 320.529639 
L 183.970595 313.565951 
L 184.139264 302.355819 
L 184.263545 275.850295 
L 184.361195 195.627861 
L 184.467723 112.113896 
L 184.520986 121.583768 
L 185.098009 314.909876 
L 185.328818 364.587134 
L 185.382082 364.87529 
L 185.444223 364.693144 
L 185.701664 362.860367 
L 186.216545 357.628265 
L 187.051009 346.413797 
L 188.329336 329.941687 
L 189.012886 320.514219 
L 189.270327 313.532462 
L 189.438995 302.264265 
L 189.563277 275.519494 
L 189.660927 194.516629 
L 189.767455 112.141121 
L 189.820718 121.808318 
L 190.406618 318.892017 
L 190.619673 364.464258 
L 190.681814 364.875049 
L 190.743955 364.689049 
L 191.010273 362.778932 
L 191.525155 357.513099 
L 192.368495 346.151661 
L 193.637945 329.826039 
L 194.312618 320.498317 
L 194.570059 313.498972 
L 194.738727 302.172228 
L 194.863009 275.185561 
L 194.969536 181.138678 
L 195.058309 112.128834 
L 195.12045 122.035277 
L 195.715227 322.916562 
L 195.919405 364.478473 
L 195.981545 364.875049 
L 196.043686 364.684953 
L 196.310005 362.771944 
L 196.833764 357.397451 
L 197.703736 345.639679 
L 198.955432 329.604622 
L 199.61235 320.482657 
L 199.869791 313.465 
L 200.038459 302.079228 
L 200.162741 274.844882 
L 200.269268 179.979044 
L 200.358041 112.101849 
L 200.420182 122.266091 
L 201.023836 326.94954 
L 201.219136 364.491965 
L 201.281277 364.874567 
L 201.343418 364.680857 
L 201.609736 362.764957 
L 202.133495 357.387332 
L 202.994591 345.752917 
L 204.255164 329.594744 
L 204.912082 320.466514 
L 205.169523 313.430547 
L 205.338191 301.984782 
L 205.462473 274.497215 
L 205.569 178.811627 
L 205.657773 112.08137 
L 205.719914 122.498591 
L 206.332445 330.94686 
L 206.518868 364.505458 
L 206.581009 364.874326 
L 206.634273 364.719406 
L 206.882836 362.980352 
L 207.397718 357.798605 
L 208.214427 346.868437 
L 209.510509 330.113232 
L 210.202936 320.619747 
L 210.460377 313.756529 
L 210.629045 302.869007 
L 210.753327 277.67994 
L 210.850977 201.9139 
L 210.957505 112.067396 
L 211.019645 122.732055 
L 211.641055 334.858889 
L 211.827477 364.639175 
L 211.880741 364.873844 
L 211.934005 364.715551 
L 212.182568 362.973364 
L 212.69745 357.788727 
L 213.514159 346.856631 
L 214.810241 330.103353 
L 215.502668 320.604087 
L 215.760109 313.723521 
L 215.928777 302.780584 
L 216.053059 277.368414 
L 216.150709 200.831629 
L 216.257236 112.061613 
L 216.319377 122.965037 
L 216.949664 338.627323 
L 217.127209 364.648813 
L 217.171595 364.874326 
L 217.233736 364.711696 
L 217.4823 362.966618 
L 217.997182 357.779089 
L 218.822768 346.719541 
L 220.101095 330.199004 
L 220.8024 320.588426 
L 221.059841 313.690755 
L 221.228509 302.692403 
L 221.352791 277.055683 
L 221.450441 199.749888 
L 221.556968 112.062095 
L 221.610232 120.755923 
L 222.151745 299.849152 
L 222.426941 364.657968 
L 222.471327 364.874567 
L 222.533468 364.707841 
L 222.782032 362.959872 
L 223.296914 357.769452 
L 224.1225 346.707735 
L 225.418582 329.978309 
L 226.111009 320.402908 
L 226.36845 313.293456 
L 226.537118 301.605313 
L 226.652523 276.740543 
L 226.750173 198.663834 
L 226.8567 112.067637 
L 226.909964 120.973967 
L 227.460355 303.49471 
L 227.726673 364.666883 
L 227.771059 364.875049 
L 227.8332 364.703986 
L 228.090641 362.87916 
L 228.605523 357.655009 
L 229.439986 346.4456 
L 230.718314 329.968431 
L 231.401864 320.557105 
L 231.659305 313.624498 
L 231.827973 302.514835 
L 231.952255 276.423234 
L 232.049905 197.577587 
L 232.156432 112.079442 
L 232.209695 121.19177 
L 232.768964 307.234472 
L 233.017527 364.567377 
L 233.070791 364.875049 
L 233.132932 364.700131 
L 233.390373 362.872414 
L 233.905255 357.645372 
L 234.739718 346.434035 
L 236.018045 329.958794 
L 236.701595 320.541685 
L 236.959036 313.591731 
L 237.127705 302.42569 
L 237.251986 276.103034 
L 237.349636 196.485125 
L 237.456164 112.096308 
L 237.509427 121.411742 
L 238.077573 311.068199 
L 238.317259 364.57846 
L 238.370523 364.87529 
L 238.432664 364.696277 
L 238.698982 362.791219 
L 239.213864 357.530446 
L 240.057205 346.172141 
L 241.317777 329.949156 
L 242.001327 320.526265 
L 242.258768 313.558482 
L 242.427436 302.335099 
L 242.551718 275.775365 
L 242.649368 195.375724 
L 242.755895 112.119678 
L 242.809159 121.634605 
L 243.386182 314.98577 
L 243.616991 364.589543 
L 243.670255 364.87529 
L 243.732395 364.692181 
L 243.989836 362.858921 
L 244.504718 357.626097 
L 245.348059 346.285861 
L 246.617509 329.939278 
L 247.301059 320.510605 
L 247.5585 313.524993 
L 247.727168 302.243304 
L 247.85145 275.444082 
L 247.9491 194.263409 
L 248.055627 112.148349 
L 248.108891 121.859637 
L 248.694791 318.969597 
L 248.907845 364.467631 
L 248.969986 364.875049 
L 249.032127 364.688326 
L 249.298445 362.777486 
L 249.822205 357.405161 
L 250.692177 345.648834 
L 251.943873 329.612332 
L 252.600791 320.494703 
L 252.858232 313.491262 
L 253.0269 302.151026 
L 253.151182 275.108462 
L 253.257709 180.874664 
L 253.346482 112.122088 
L 253.408623 122.0878 
L 254.0034 322.995588 
L 254.207577 364.481605 
L 254.269718 364.874808 
L 254.331859 364.68423 
L 254.598177 362.770499 
L 255.121936 357.395042 
L 255.983032 345.762073 
L 257.22585 329.813993 
L 257.900523 320.479043 
L 258.157964 313.45729 
L 258.326632 302.057785 
L 258.450914 274.766096 
L 258.557441 179.712644 
L 258.646214 112.096549 
L 258.708355 122.319337 
L 259.312009 327.028566 
L 259.507309 364.495097 
L 259.56945 364.874567 
L 259.631591 364.679893 
L 259.906786 362.6881 
L 260.430545 357.278671 
L 261.309395 345.375616 
L 262.552214 329.486565 
L 263.200255 320.4629 
L 263.457695 313.422837 
L 263.626364 301.963098 
L 263.750645 274.417225 
L 263.857173 178.544745 
L 263.945945 112.077515 
L 264.008086 122.551837 
L 264.620618 331.024681 
L 264.807041 364.50859 
L 264.869182 364.874085 
L 264.922445 364.718683 
L 265.171009 362.978665 
L 265.685891 357.796437 
L 266.511477 346.740261 
L 267.807559 330.005535 
L 268.499986 320.446999 
L 268.757427 313.388384 
L 268.926095 301.868412 
L 269.050377 274.068354 
L 269.156905 177.385544 
L 269.245677 112.065468 
L 269.298941 120.371634 
L 269.8227 292.91004 
L 270.133405 364.794095 
L 270.168914 364.873844 
L 270.222177 364.714828 
L 270.470741 362.971919 
L 270.985623 357.786558 
L 271.802332 346.853981 
L 273.098414 330.101185 
L 273.790841 320.600473 
L 274.048282 313.716053 
L 274.21695 302.760587 
L 274.341232 277.297098 
L 274.438882 200.584046 
L 274.545409 112.061372 
L 274.598673 120.588233 
L 275.131309 296.36767 
L 275.424259 364.737235 
L 275.468645 364.873121 
L 275.521909 364.710973 
L 275.770473 362.965173 
L 276.285355 357.776921 
L 277.110941 346.71689 
L 278.389268 330.196835 
L 279.090573 320.584812 
L 279.348014 313.683045 
L 279.516682 302.672164 
L 279.640964 276.983885 
L 279.738614 199.502208 
L 279.845141 112.062577 
L 279.898405 120.805796 
L 280.439918 299.918782 
L 280.715114 364.659896 
L 280.7595 364.874808 
L 280.821641 364.707119 
L 281.079082 362.88446 
L 281.593964 357.662478 
L 282.428427 346.454514 
L 283.706755 329.9759 
L 284.390305 320.569152 
L 284.647745 313.650037 
L 284.816414 302.583501 
L 284.940695 276.668263 
L 285.038345 198.416058 
L 285.144873 112.069805 
L 285.198136 121.023599 
L 285.748527 303.565303 
L 286.014845 364.66881 
L 286.059232 364.875049 
L 286.121373 364.703023 
L 286.378814 362.877714 
L 286.902573 357.547553 
L 287.754791 346.067335 
L 289.006486 329.966262 
L 289.690036 320.553732 
L 289.947477 313.617029 
L 290.116145 302.494597 
L 290.240427 276.350472 
L 290.338077 197.328992 
L 290.444605 112.082815 
L 290.497868 121.241644 
L 291.057136 307.307234 
L 291.3057 364.570028 
L 291.358964 364.87529 
L 291.421105 364.699168 
L 291.678545 362.870968 
L 292.193427 357.643203 
L 293.027891 346.431385 
L 294.315095 329.850856 
L 294.989768 320.538071 
L 295.247209 313.584021 
L 295.415877 302.405211 
L 295.540159 276.028826 
L 295.637809 196.23294 
L 295.744336 112.101126 
L 295.7976 121.462338 
L 296.365745 311.142888 
L 296.605432 364.581111 
L 296.658695 364.87529 
L 296.720836 364.695313 
L 296.987155 362.789774 
L 297.510914 357.422508 
L 298.372009 345.794117 
L 299.632582 329.629679 
L 300.298377 320.35183 
L 300.555818 313.182386 
L 300.724486 301.294268 
L 300.839891 275.700194 
L 300.937541 195.123227 
L 301.044068 112.125701 
L 301.097332 121.685442 
L 301.674355 315.061663 
L 301.905164 364.591953 
L 301.958427 364.87529 
L 302.020568 364.691458 
L 302.286886 362.782786 
L 302.810645 357.41263 
L 303.671741 345.782793 
L 304.914559 329.831581 
L 305.589232 320.506991 
L 305.846673 313.517283 
L 306.015341 302.222583 
L 306.139623 275.368429 
L 306.24615 181.76655 
L 306.334923 112.14594 
L 306.397064 121.911196 
L 306.982964 319.047178 
L 307.196018 364.470763 
L 307.258159 364.875049 
L 307.3203 364.687362 
L 307.586618 362.775799 
L 308.110377 357.402752 
L 308.971473 345.771228 
L 310.214291 329.821703 
L 310.888964 320.49133 
L 311.146405 313.483552 
L 311.315073 302.130065 
L 311.439355 275.031123 
L 311.545882 180.611589 
L 311.634655 112.115823 
L 311.696795 122.140083 
L 312.291573 323.074132 
L 312.49575 364.484737 
L 312.557891 364.874808 
L 312.620032 364.683266 
L 312.88635 362.768812 
L 313.410109 357.392874 
L 314.280082 345.634378 
L 315.531777 329.600044 
L 316.188695 320.475188 
L 316.446136 313.44934 
L 316.614805 302.036342 
L 316.739086 274.687552 
L 316.845614 179.447256 
L 316.934386 112.09173 
L 316.996527 122.372101 
L 317.600182 327.107351 
L 317.795482 364.49823 
L 317.857623 364.874567 
L 317.910886 364.721575 
L 318.15945 362.983966 
L 318.674332 357.803905 
L 319.491041 346.874701 
L 320.796 330.013003 
L 321.488427 320.459286 
L 321.745868 313.414886 
L 321.914536 301.941415 
L 322.038818 274.337477 
L 322.145345 178.279141 
L 322.234118 112.074142 
L 322.296259 122.605084 
L 322.908791 331.102262 
L 323.095214 364.511722 
L 323.157355 364.874085 
L 323.210618 364.71772 
L 323.459182 362.977219 
L 323.974064 357.794027 
L 324.790773 346.862896 
L 326.095732 330.003125 
L 326.779282 320.61252 
L 327.036723 313.741591 
L 327.205391 302.828771 
L 327.329673 277.538031 
L 327.427323 201.420469 
L 327.53385 112.063782 
L 327.595991 122.838307 
L 328.2174 335.00875 
L 328.403823 364.643512 
L 328.457086 364.873603 
L 328.51035 364.713865 
L 328.758914 362.970232 
L 329.273795 357.78439 
L 329.318182 357.256506 
L 329.335936 358.08387 
L 329.531236 361.752798 
L 329.620009 361.925547 
L 329.664395 361.872782 
L 329.815309 361.314782 
L 330.214786 358.724511 
L 332.176664 345.154921 
L 332.869091 342.192168 
L 333.428359 340.669953 
L 333.889977 339.986667 
L 334.2717 339.776333 
L 334.644545 339.825001 
L 335.159427 340.153634 
L 336.402245 341.02557 
L 337.032532 341.16483 
L 337.88475 341.101464 
L 340.370386 340.876192 
L 346.016332 340.918355 
L 435.845455 340.920283 
L 435.845455 340.920283 
" clip-path="url(#p9e0ac1a786)" style="fill: none; stroke: #1f77b4; stroke-width: 1.5; stroke-linecap: square"/>
   </g>
   <g id="line2d_14">
    <path d="M 80.754545 340.983648 
L 81.154023 360.032298 
L 81.446973 365.249802 
L 81.7488 367.15464 
L 82.050627 367.840566 
L 82.361332 368.058398 
L 82.734177 368.040476 
L 83.293445 367.763167 
L 84.234436 367.016931 
L 88.841741 363.03611 
L 89.942523 362.538949 
L 91.078814 362.271243 
L 92.374895 362.204214 
L 94.469932 362.357738 
L 97.914314 362.573588 
L 102.441723 362.564766 
L 115.899668 362.550767 
L 151.772727 362.55047 
L 152.234345 326.126827 
L 152.331995 289.094789 
L 152.394136 120.606432 
L 152.438523 66.96 
L 152.518418 70.947327 
L 152.669332 94.370098 
L 153.095441 212.876301 
L 153.459409 344.685074 
L 153.610323 369.329186 
L 153.71685 369.278026 
L 154.151836 368.738802 
L 154.586823 367.819251 
L 155.039564 366.285585 
L 155.536691 363.743779 
L 156.140345 359.385314 
L 157.010318 351.258177 
L 157.773764 342.309195 
L 158.084468 336.03769 
L 158.262014 327.647873 
L 158.377418 309.799209 
L 158.448436 257.035379 
L 158.546086 72.908757 
L 158.643736 83.118587 
L 158.874545 142.247767 
L 159.637991 369.311322 
L 159.726764 369.252734 
L 160.152873 368.709399 
L 160.587859 367.770781 
L 161.0406 366.210317 
L 161.546605 363.579416 
L 162.159136 359.090064 
L 163.046864 350.718661 
L 163.783677 341.953681 
L 164.085505 335.647026 
L 164.26305 326.649886 
L 164.369577 308.914594 
L 164.440595 252.27151 
L 164.529368 72.939175 
L 164.627018 82.154628 
L 164.84895 137.870782 
L 165.63015 369.310695 
L 165.718923 369.248834 
L 166.145032 368.702438 
L 166.580018 367.759323 
L 167.032759 366.192545 
L 167.538764 363.553408 
L 168.151295 359.05495 
L 169.039023 350.675581 
L 169.766959 342.026493 
L 170.068786 335.793997 
L 170.246332 327.059876 
L 170.361736 307.554363 
L 170.432755 244.256507 
L 170.521527 72.924689 
L 170.6103 81.386935 
L 170.823355 133.762226 
L 171.613432 369.310614 
L 171.711082 369.24501 
L 172.146068 368.680683 
L 172.581055 367.723562 
L 173.033795 366.137165 
L 173.5398 363.472503 
L 174.161209 358.870977 
L 175.066691 350.264981 
L 175.767995 341.826956 
L 176.069823 335.389985 
L 176.238491 326.712152 
L 176.345018 309.147248 
L 176.416036 253.608707 
L 176.504809 72.951839 
L 176.602459 82.036977 
L 176.815514 134.983569 
L 177.605591 369.310731 
L 177.703241 369.241173 
L 178.138227 368.673775 
L 178.573214 367.712222 
L 179.025955 366.119632 
L 179.531959 363.446942 
L 180.153368 358.836488 
L 181.05885 350.222514 
L 181.760155 341.763535 
L 182.053105 335.541763 
L 182.23065 326.352401 
L 182.337177 307.796565 
L 182.408195 245.713143 
L 182.496968 72.921981 
L 182.585741 81.277146 
L 182.798795 133.552857 
L 183.588873 369.310518 
L 183.6954 369.237278 
L 184.130386 368.666789 
L 184.565373 367.700762 
L 185.018114 366.101928 
L 185.524118 363.421156 
L 186.145527 358.801737 
L 187.051009 350.179741 
L 187.752314 341.699344 
L 188.045264 335.412237 
L 188.213932 326.772151 
L 188.320459 309.365834 
L 188.391477 254.837546 
L 188.48025 72.965651 
L 188.5779 81.925174 
L 188.790955 134.775791 
L 189.581032 369.31076 
L 189.678682 369.241831 
L 190.113668 368.674957 
L 190.548655 367.714163 
L 191.001395 366.122631 
L 191.5074 363.451312 
L 192.128809 358.842382 
L 193.034291 350.229771 
L 193.735595 341.774374 
L 194.028545 335.563562 
L 194.206091 326.41487 
L 194.312618 308.034286 
L 194.383636 247.132497 
L 194.472409 72.921105 
L 194.561182 81.168124 
L 194.765359 130.699053 
L 195.564314 369.310402 
L 195.670841 369.237946 
L 196.105827 368.667985 
L 196.540814 367.702725 
L 196.993555 366.104959 
L 197.499559 363.425568 
L 198.120968 358.807681 
L 199.02645 350.187053 
L 199.727755 341.71036 
L 200.020705 335.434543 
L 200.189373 326.832175 
L 200.2959 309.583478 
L 200.366918 256.054918 
L 200.464568 72.953886 
L 200.562218 83.280188 
L 200.793027 142.606403 
L 201.556473 369.310769 
L 201.645245 369.250778 
L 202.071355 368.705926 
L 202.506341 367.765064 
L 202.959082 366.201448 
L 203.465086 363.566438 
L 204.077618 359.072553 
L 204.965345 350.69728 
L 205.693282 342.05844 
L 205.995109 335.857605 
L 206.172655 327.234766 
L 206.288059 308.273139 
L 206.359077 248.536965 
L 206.44785 72.922487 
L 206.536623 81.058221 
L 206.7408 130.488675 
L 207.548632 369.310458 
L 207.646282 369.238621 
L 208.081268 368.669196 
L 208.516255 367.70471 
L 208.968995 366.108026 
L 209.475 363.430034 
L 210.096409 358.813697 
L 211.001891 350.194455 
L 211.703195 341.721476 
L 211.996145 335.456988 
L 212.164814 326.892464 
L 212.271341 309.800928 
L 212.342359 257.255858 
L 212.440009 72.94371 
L 212.537659 83.160372 
L 212.768468 142.392324 
L 213.531914 369.310757 
L 213.620686 369.251427 
L 214.046795 368.707093 
L 214.481782 367.766984 
L 214.934523 366.204427 
L 215.440527 363.570799 
L 216.053059 359.078447 
L 216.940786 350.704543 
L 217.668723 342.069127 
L 217.97055 335.878815 
L 218.148095 327.292866 
L 218.2635 308.510123 
L 218.334518 249.925373 
L 218.423291 72.926542 
L 218.520941 82.359682 
L 218.742873 138.250576 
L 219.524073 369.310553 
L 219.612845 369.247644 
L 220.038955 368.700309 
L 220.473941 367.75582 
L 220.926682 366.187114 
L 221.432686 363.545462 
L 222.045218 359.044221 
L 222.941823 350.570582 
L 223.660882 342.007006 
L 223.962709 335.755149 
L 224.140255 326.95269 
L 224.255659 307.10861 
L 224.326677 241.529373 
L 224.41545 72.935271 
L 224.495345 80.22578 
L 224.690645 126.250158 
L 225.365318 356.956731 
L 225.507355 369.310727 
L 225.658268 369.191236 
L 226.093255 368.585418 
L 226.528241 367.567827 
L 226.980982 365.897585 
L 227.495864 363.067739 
L 228.135027 358.175677 
L 229.076018 349.032635 
L 229.706305 341.09533 
L 229.9815 334.757497 
L 230.150168 324.918623 
L 230.256695 301.902763 
L 230.318836 231.968803 
L 230.398732 72.933121 
L 230.478627 79.528717 
L 230.66505 122.273749 
L 231.330845 345.8879 
L 231.481759 369.304945 
L 231.588286 369.248301 
L 232.014395 368.701484 
L 232.449382 367.757753 
L 232.902123 366.190111 
L 233.408127 363.549847 
L 234.020659 359.050142 
L 234.908386 350.669662 
L 235.636323 342.017774 
L 235.93815 335.776636 
L 236.115695 327.012037 
L 236.2311 307.355704 
L 236.302118 243.052592 
L 236.390891 72.928613 
L 236.470786 80.121826 
L 236.666086 126.043987 
L 237.340759 356.667175 
L 237.482795 369.310673 
L 237.633709 369.191961 
L 238.068695 368.586689 
L 238.503682 367.569896 
L 238.956423 365.900751 
L 239.471305 363.07232 
L 240.110468 358.181789 
L 241.051459 349.040184 
L 241.681745 341.106996 
L 241.956941 334.781817 
L 242.125609 324.990354 
L 242.232136 302.220663 
L 242.294277 233.715475 
L 242.374173 72.942387 
L 242.454068 79.428654 
L 242.640491 122.070503 
L 243.306286 345.495646 
L 243.4572 369.304309 
L 243.563727 369.248955 
L 243.989836 368.702657 
L 244.424823 367.759682 
L 244.877564 366.193102 
L 245.383568 363.554223 
L 245.9961 359.056051 
L 246.883827 350.676943 
L 247.611764 342.02852 
L 247.913591 335.798061 
L 248.091136 327.071111 
L 248.206541 307.601033 
L 248.277559 244.537874 
L 248.366332 72.924037 
L 248.455105 81.365967 
L 248.668159 133.722362 
L 249.458236 369.310597 
L 249.555886 369.245134 
L 249.981995 368.695823 
L 250.416982 367.74844 
L 250.869723 366.175677 
L 251.375727 363.528739 
L 251.988259 359.021654 
L 252.884864 350.542758 
L 253.603923 341.965852 
L 253.90575 335.672747 
L 254.083295 326.723522 
L 254.189823 309.188933 
L 254.260841 253.843721 
L 254.349614 72.954265 
L 254.447264 82.015783 
L 254.660318 134.94428 
L 255.450395 369.310738 
L 255.548045 369.241297 
L 255.983032 368.673997 
L 256.418018 367.712587 
L 256.870759 366.120197 
L 257.376764 363.447764 
L 257.998173 358.837597 
L 258.903655 350.223879 
L 259.604959 341.765575 
L 259.897909 335.54587 
L 260.075455 326.364178 
L 260.181982 307.841429 
L 260.253 245.982205 
L 260.341773 72.921661 
L 260.430545 81.256597 
L 260.6436 133.513506 
L 261.433677 369.310499 
L 261.540205 369.237403 
L 261.975191 368.667014 
L 262.410177 367.701131 
L 262.862918 366.102498 
L 263.368923 363.421986 
L 263.990332 358.802855 
L 264.895814 350.181117 
L 265.597118 341.701418 
L 265.890068 335.416452 
L 266.058736 326.783504 
L 266.165264 309.407084 
L 266.236282 255.068997 
L 266.333932 72.963562 
L 266.431582 83.377328 
L 266.662391 142.779514 
L 267.425836 369.310763 
L 267.514609 369.250249 
L 267.940718 368.704976 
L 268.375705 367.7635 
L 268.828445 366.199023 
L 269.33445 363.562888 
L 269.946982 359.067755 
L 270.834709 350.691366 
L 271.562645 342.049746 
L 271.864473 335.840322 
L 272.042018 327.187347 
L 272.157423 308.078981 
L 272.228441 247.397244 
L 272.317214 72.921153 
L 272.405986 81.147479 
L 272.610164 130.65957 
L 273.417995 369.310369 
L 273.515645 369.238073 
L 273.950632 368.668214 
L 274.385618 367.703099 
L 274.838359 366.105538 
L 275.344364 363.426411 
L 275.965773 358.808816 
L 276.871255 350.18845 
L 277.572559 341.712457 
L 277.865509 335.438778 
L 278.034177 326.843557 
L 278.140705 309.624615 
L 278.211723 256.283888 
L 278.309373 72.95182 
L 278.407023 83.257547 
L 278.637832 142.566018 
L 279.401277 369.310768 
L 279.49005 369.2509 
L 279.916159 368.706147 
L 280.351145 367.765426 
L 280.803886 366.20201 
L 281.309891 363.567261 
L 281.922423 359.073664 
L 282.81015 350.69865 
L 283.538086 342.060455 
L 283.839914 335.861612 
L 284.017459 327.245754 
L 284.132864 308.31807 
L 284.203882 248.800357 
L 284.292655 72.923076 
L 284.381427 81.037468 
L 284.585605 130.448877 
L 285.393436 369.310477 
L 285.491086 369.238748 
L 285.926073 368.669424 
L 286.361059 367.705084 
L 286.8138 366.108603 
L 287.319805 363.430875 
L 287.941214 358.81483 
L 288.846695 350.19585 
L 289.548 341.723571 
L 289.84095 335.461217 
L 290.009618 326.903815 
L 290.116145 309.84167 
L 290.187164 257.478133 
L 290.284814 72.941936 
L 290.382464 83.137856 
L 290.613273 142.351925 
L 291.376718 369.310753 
L 291.465491 369.25155 
L 291.8916 368.707314 
L 292.326586 367.767348 
L 292.779327 366.204991 
L 293.285332 363.571625 
L 293.897864 359.079563 
L 294.785591 350.705918 
L 295.513527 342.07115 
L 295.815355 335.882814 
L 295.9929 327.303768 
L 296.108305 308.554224 
L 296.179323 250.182892 
L 296.268095 72.927569 
L 296.365745 82.337455 
L 296.587677 138.209632 
L 297.368877 369.31057 
L 297.45765 369.247772 
L 297.883759 368.700537 
L 298.318745 367.756194 
L 298.771486 366.187694 
L 299.277491 363.546311 
L 299.890023 359.045368 
L 300.786627 350.571997 
L 301.505686 342.009091 
L 301.807514 335.75931 
L 301.985059 326.964188 
L 302.100464 307.156528 
L 302.171482 241.825908 
L 302.260255 72.93384 
L 302.34015 80.205713 
L 302.53545 126.210448 
L 303.210123 356.901348 
L 303.352159 369.310718 
L 303.503073 369.191375 
L 303.938059 368.585663 
L 304.373045 367.568225 
L 304.825786 365.898193 
L 305.340668 363.068619 
L 305.979832 358.176851 
L 306.920823 349.034087 
L 307.551109 341.097573 
L 307.826305 334.762185 
L 307.994973 324.932479 
L 308.1015 301.964244 
L 308.163641 232.308899 
L 308.243536 72.934779 
L 308.323432 79.509481 
L 308.509855 122.23481 
L 309.17565 345.813091 
L 309.326564 369.304827 
L 309.433091 369.248425 
L 309.8592 368.701707 
L 310.294186 367.758119 
L 310.746927 366.190678 
L 311.252932 363.550676 
L 311.865464 359.051262 
L 312.753191 350.671041 
L 313.481127 342.019812 
L 313.782955 335.780703 
L 313.9605 327.023258 
L 314.075905 307.402359 
L 314.146923 243.338593 
L 314.235695 72.927597 
L 314.315591 80.102049 
L 314.510891 126.004645 
L 315.185564 356.611393 
L 315.3276 369.31066 
L 315.478514 369.1921 
L 315.9135 368.586932 
L 316.348486 367.57029 
L 316.801227 365.901355 
L 317.316109 363.073195 
L 317.955273 358.182956 
L 318.896264 349.041625 
L 319.52655 341.109223 
L 319.801745 334.786454 
L 319.970414 325.004014 
L 320.076941 302.281107 
L 320.139082 234.045587 
L 320.218977 72.9445 
L 320.298873 79.409444 
L 320.485295 122.031326 
L 321.151091 345.419872 
L 321.302005 369.304182 
L 321.408532 369.249082 
L 321.834641 368.702883 
L 322.269627 367.760055 
L 322.722368 366.19368 
L 323.228373 363.555069 
L 323.840905 359.057194 
L 324.728632 350.67835 
L 325.456568 342.030597 
L 325.758395 335.8022 
L 325.935941 327.082512 
L 326.051345 307.648266 
L 326.122364 244.822332 
L 326.211136 72.92341 
L 326.299909 81.344511 
L 326.512964 133.681449 
L 327.303041 369.31058 
L 327.400691 369.245261 
L 327.8268 368.69605 
L 328.261786 367.748815 
L 328.714527 366.176257 
L 329.220532 363.529587 
L 329.318182 362.90328 
L 329.327059 363.378484 
L 329.531236 368.230612 
L 329.753168 369.188847 
L 329.983977 369.356012 
L 330.339068 369.294898 
L 331.084759 368.902356 
L 332.176664 368.066511 
L 333.78345 366.524277 
L 336.499895 363.910933 
L 337.742714 363.030702 
L 338.825741 362.529704 
L 339.944277 362.257953 
L 341.213727 362.188108 
L 343.211114 362.337031 
L 346.699882 362.572651 
L 350.952095 362.568863 
L 363.575577 362.550894 
L 435.845455 362.55047 
L 435.845455 362.55047 
" clip-path="url(#p9e0ac1a786)" style="fill: none; stroke: #ff0000; stroke-width: 1.5; stroke-linecap: square"/>
   </g>
   <g id="patch_3">
    <path d="M 63 384.48 
L 63 51.84 
" style="fill: none; stroke: #000000; stroke-width: 0.8; stroke-linejoin: miter; stroke-linecap: square"/>
   </g>
   <g id="patch_4">
    <path d="M 453.6 384.48 
L 453.6 51.84 
" style="fill: none; stroke: #000000; stroke-width: 0.8; stroke-linejoin: miter; stroke-linecap: square"/>
   </g>
   <g id="patch_5">
    <path d="M 63 384.48 
L 453.6 384.48 
" style="fill: none; stroke: #000000; stroke-width: 0.8; stroke-linejoin: miter; stroke-linecap: square"/>
   </g>
   <g id="patch_6">
    <path d="M 63 51.84 
L 453.6 51.84 
" style="fill: none; stroke: #000000; stroke-width: 0.8; stroke-linejoin: miter; stroke-linecap: square"/>
   </g>
   <g id="legend_1">
    <g id="patch_7">
     <path d="M 383.460938 89.19625 
L 446.6 89.19625 
Q 448.6 89.19625 448.6 87.19625 
L 448.6 58.84 
Q 448.6 56.84 446.6 56.84 
L 383.460938 56.84 
Q 381.460938 56.84 381.460938 58.84 
L 381.460938 87.19625 
Q 381.460938 89.19625 383.460938 89.19625 
z
" style="fill: #ffffff; opacity: 0.8; stroke: #cccccc; stroke-linejoin: miter"/>
    </g>
    <g id="line2d_15">
     <path d="M 385.460938 64.938437 
L 395.460938 64.938437 
L 405.460938 64.938437 
" style="fill: none; stroke: #1f77b4; stroke-width: 1.5; stroke-linecap: square"/>
    </g>
    <g id="text_15">
     <!-- target -->
     <g transform="translate(413.460938 68.438437)scale(0.1 -0.1)">
      <defs>
       <path id="DejaVuSans-72" d="M 2631 2963 
Q 2534 3019 2420 3045 
Q 2306 3072 2169 3072 
Q 1681 3072 1420 2755 
Q 1159 2438 1159 1844 
L 1159 0 
L 581 0 
L 581 3500 
L 1159 3500 
L 1159 2956 
Q 1341 3275 1631 3429 
Q 1922 3584 2338 3584 
Q 2397 3584 2469 3576 
Q 2541 3569 2628 3553 
L 2631 2963 
z
" transform="scale(0.015625)"/>
      </defs>
      <use xlink:href="#DejaVuSans-74"/>
      <use xlink:href="#DejaVuSans-61" x="39.208984"/>
      <use xlink:href="#DejaVuSans-72" x="100.488281"/>
      <use xlink:href="#DejaVuSans-67" x="139.851562"/>
      <use xlink:href="#DejaVuSans-65" x="203.328125"/>
      <use xlink:href="#DejaVuSans-74" x="264.851562"/>
     </g>
    </g>
    <g id="line2d_16">
     <path d="M 385.460938 79.616562 
L 395.460938 79.616562 
L 405.460938 79.616562 
" style="fill: none; stroke: #ff0000; stroke-width: 1.5; stroke-linecap: square"/>
    </g>
    <g id="text_16">
     <!-- model -->
     <g transform="translate(413.460938 83.116562)scale(0.1 -0.1)">
      <defs>
       <path id="DejaVuSans-64" d="M 2906 2969 
L 2906 4863 
L 3481 4863 
L 3481 0 
L 2906 0 
L 2906 525 
Q 2725 213 2448 61 
Q 2172 -91 1784 -91 
Q 1150 -91 751 415 
Q 353 922 353 1747 
Q 353 2572 751 3078 
Q 1150 3584 1784 3584 
Q 2172 3584 2448 3432 
Q 2725 3281 2906 2969 
z
M 947 1747 
Q 947 1113 1208 752 
Q 1469 391 1925 391 
Q 2381 391 2643 752 
Q 2906 1113 2906 1747 
Q 2906 2381 2643 2742 
Q 2381 3103 1925 3103 
Q 1469 3103 1208 2742 
Q 947 2381 947 1747 
z
" transform="scale(0.015625)"/>
      </defs>
      <use xlink:href="#DejaVuSans-6d"/>
      <use xlink:href="#DejaVuSans-6f" x="97.412109"/>
      <use xlink:href="#DejaVuSans-64" x="158.59375"/>
      <use xlink:href="#DejaVuSans-65" x="222.070312"/>
      <use xlink:href="#DejaVuSans-6c" x="283.59375"/>
     </g>
    </g>
   </g>
  </g>
 </g>
 <defs>
  <clipPath id="p9e0ac1a786">
   <rect x="63" y="51.84" width="390.6" height="332.64"/>
  </clipPath>
 </defs>
</svg>
