<?xml version="1.0" encoding="utf-8" standalone="no"?>
<!DOCTYPE svg PUBLIC "-//W3C//DTD SVG 1.1//EN"
  "http://www.w3.org/Graphics/SVG/1.1/DTD/svg11.dtd">
<svg xmlns:xlink="http://www.w3.org/1999/xlink" width="504pt" height="432pt" viewBox="0 0 504 432" xmlns="http://www.w3.org/2000/svg" version="1.1">
 <metadata>
  <rdf:RDF xmlns:dc="http://purl.org/dc/elements/1.1/" xmlns:cc="http://creativecommons.org/ns#" xmlns:rdf="http://www.w3.org/1999/02/22-rdf-syntax-ns#">
   <cc:Work>
    <dc:type rdf:resource="http://purl.org/dc/dcmitype/StillImage"/>
    <dc:date>2022-01-30T21:18:05.266831</dc:date>
    <dc:format>image/svg+xml</dc:format>
    <dc:creator>
     <cc:Agent>
      <dc:title>Matplotlib v3.5.1, https://matplotlib.org/</dc:title>
     </cc:Agent>
    </dc:creator>
   </cc:Work>
  </rdf:RDF>
 </metadata>
 <defs>
  <style type="text/css">*{stroke-linejoin: round; stroke-linecap: butt}</style>
 </defs>
 <g id="figure_1">
  <g id="patch_1">
   <path d="M 0 432 
L 504 432 
L 504 0 
L 0 0 
z
" style="fill: #ffffff"/>
  </g>
  <g id="axes_1">
   <g id="patch_2">
    <path d="M 63 384.48 
L 453.6 384.48 
L 453.6 51.84 
L 63 51.84 
z
" style="fill: #ffffff"/>
   </g>
   <g id="matplotlib.axis_1">
    <g id="xtick_1">
     <g id="line2d_1">
      <defs>
       <path id="mb9f5a83fd7" d="M 0 0 
L 0 3.5 
" style="stroke: #000000; stroke-width: 0.8"/>
      </defs>
      <g>
       <use xlink:href="#mb9f5a83fd7" x="80.754545" y="384.48" style="stroke: #000000; stroke-width: 0.8"/>
      </g>
     </g>
     <g id="text_1">
      <!-- 0 -->
      <g transform="translate(77.573295 399.078438)scale(0.1 -0.1)">
       <defs>
        <path id="DejaVuSans-30" d="M 2034 4250 
Q 1547 4250 1301 3770 
Q 1056 3291 1056 2328 
Q 1056 1369 1301 889 
Q 1547 409 2034 409 
Q 2525 409 2770 889 
Q 3016 1369 3016 2328 
Q 3016 3291 2770 3770 
Q 2525 4250 2034 4250 
z
M 2034 4750 
Q 2819 4750 3233 4129 
Q 3647 3509 3647 2328 
Q 3647 1150 3233 529 
Q 2819 -91 2034 -91 
Q 1250 -91 836 529 
Q 422 1150 422 2328 
Q 422 3509 836 4129 
Q 1250 4750 2034 4750 
z
" transform="scale(0.015625)"/>
       </defs>
       <use xlink:href="#DejaVuSans-30"/>
      </g>
     </g>
    </g>
    <g id="xtick_2">
     <g id="line2d_2">
      <g>
       <use xlink:href="#mb9f5a83fd7" x="151.772727" y="384.48" style="stroke: #000000; stroke-width: 0.8"/>
      </g>
     </g>
     <g id="text_2">
      <!-- 200 -->
      <g transform="translate(142.228977 399.078438)scale(0.1 -0.1)">
       <defs>
        <path id="DejaVuSans-32" d="M 1228 531 
L 3431 531 
L 3431 0 
L 469 0 
L 469 531 
Q 828 903 1448 1529 
Q 2069 2156 2228 2338 
Q 2531 2678 2651 2914 
Q 2772 3150 2772 3378 
Q 2772 3750 2511 3984 
Q 2250 4219 1831 4219 
Q 1534 4219 1204 4116 
Q 875 4013 500 3803 
L 500 4441 
Q 881 4594 1212 4672 
Q 1544 4750 1819 4750 
Q 2544 4750 2975 4387 
Q 3406 4025 3406 3419 
Q 3406 3131 3298 2873 
Q 3191 2616 2906 2266 
Q 2828 2175 2409 1742 
Q 1991 1309 1228 531 
z
" transform="scale(0.015625)"/>
       </defs>
       <use xlink:href="#DejaVuSans-32"/>
       <use xlink:href="#DejaVuSans-30" x="63.623047"/>
       <use xlink:href="#DejaVuSans-30" x="127.246094"/>
      </g>
     </g>
    </g>
    <g id="xtick_3">
     <g id="line2d_3">
      <g>
       <use xlink:href="#mb9f5a83fd7" x="222.790909" y="384.48" style="stroke: #000000; stroke-width: 0.8"/>
      </g>
     </g>
     <g id="text_3">
      <!-- 400 -->
      <g transform="translate(213.247159 399.078438)scale(0.1 -0.1)">
       <defs>
        <path id="DejaVuSans-34" d="M 2419 4116 
L 825 1625 
L 2419 1625 
L 2419 4116 
z
M 2253 4666 
L 3047 4666 
L 3047 1625 
L 3713 1625 
L 3713 1100 
L 3047 1100 
L 3047 0 
L 2419 0 
L 2419 1100 
L 313 1100 
L 313 1709 
L 2253 4666 
z
" transform="scale(0.015625)"/>
       </defs>
       <use xlink:href="#DejaVuSans-34"/>
       <use xlink:href="#DejaVuSans-30" x="63.623047"/>
       <use xlink:href="#DejaVuSans-30" x="127.246094"/>
      </g>
     </g>
    </g>
    <g id="xtick_4">
     <g id="line2d_4">
      <g>
       <use xlink:href="#mb9f5a83fd7" x="293.809091" y="384.48" style="stroke: #000000; stroke-width: 0.8"/>
      </g>
     </g>
     <g id="text_4">
      <!-- 600 -->
      <g transform="translate(284.265341 399.078438)scale(0.1 -0.1)">
       <defs>
        <path id="DejaVuSans-36" d="M 2113 2584 
Q 1688 2584 1439 2293 
Q 1191 2003 1191 1497 
Q 1191 994 1439 701 
Q 1688 409 2113 409 
Q 2538 409 2786 701 
Q 3034 994 3034 1497 
Q 3034 2003 2786 2293 
Q 2538 2584 2113 2584 
z
M 3366 4563 
L 3366 3988 
Q 3128 4100 2886 4159 
Q 2644 4219 2406 4219 
Q 1781 4219 1451 3797 
Q 1122 3375 1075 2522 
Q 1259 2794 1537 2939 
Q 1816 3084 2150 3084 
Q 2853 3084 3261 2657 
Q 3669 2231 3669 1497 
Q 3669 778 3244 343 
Q 2819 -91 2113 -91 
Q 1303 -91 875 529 
Q 447 1150 447 2328 
Q 447 3434 972 4092 
Q 1497 4750 2381 4750 
Q 2619 4750 2861 4703 
Q 3103 4656 3366 4563 
z
" transform="scale(0.015625)"/>
       </defs>
       <use xlink:href="#DejaVuSans-36"/>
       <use xlink:href="#DejaVuSans-30" x="63.623047"/>
       <use xlink:href="#DejaVuSans-30" x="127.246094"/>
      </g>
     </g>
    </g>
    <g id="xtick_5">
     <g id="line2d_5">
      <g>
       <use xlink:href="#mb9f5a83fd7" x="364.827273" y="384.48" style="stroke: #000000; stroke-width: 0.8"/>
      </g>
     </g>
     <g id="text_5">
      <!-- 800 -->
      <g transform="translate(355.283523 399.078438)scale(0.1 -0.1)">
       <defs>
        <path id="DejaVuSans-38" d="M 2034 2216 
Q 1584 2216 1326 1975 
Q 1069 1734 1069 1313 
Q 1069 891 1326 650 
Q 1584 409 2034 409 
Q 2484 409 2743 651 
Q 3003 894 3003 1313 
Q 3003 1734 2745 1975 
Q 2488 2216 2034 2216 
z
M 1403 2484 
Q 997 2584 770 2862 
Q 544 3141 544 3541 
Q 544 4100 942 4425 
Q 1341 4750 2034 4750 
Q 2731 4750 3128 4425 
Q 3525 4100 3525 3541 
Q 3525 3141 3298 2862 
Q 3072 2584 2669 2484 
Q 3125 2378 3379 2068 
Q 3634 1759 3634 1313 
Q 3634 634 3220 271 
Q 2806 -91 2034 -91 
Q 1263 -91 848 271 
Q 434 634 434 1313 
Q 434 1759 690 2068 
Q 947 2378 1403 2484 
z
M 1172 3481 
Q 1172 3119 1398 2916 
Q 1625 2713 2034 2713 
Q 2441 2713 2670 2916 
Q 2900 3119 2900 3481 
Q 2900 3844 2670 4047 
Q 2441 4250 2034 4250 
Q 1625 4250 1398 4047 
Q 1172 3844 1172 3481 
z
" transform="scale(0.015625)"/>
       </defs>
       <use xlink:href="#DejaVuSans-38"/>
       <use xlink:href="#DejaVuSans-30" x="63.623047"/>
       <use xlink:href="#DejaVuSans-30" x="127.246094"/>
      </g>
     </g>
    </g>
    <g id="text_6">
     <!-- time [ms] -->
     <g transform="translate(234.038281 412.756563)scale(0.1 -0.1)">
      <defs>
       <path id="DejaVuSans-74" d="M 1172 4494 
L 1172 3500 
L 2356 3500 
L 2356 3053 
L 1172 3053 
L 1172 1153 
Q 1172 725 1289 603 
Q 1406 481 1766 481 
L 2356 481 
L 2356 0 
L 1766 0 
Q 1100 0 847 248 
Q 594 497 594 1153 
L 594 3053 
L 172 3053 
L 172 3500 
L 594 3500 
L 594 4494 
L 1172 4494 
z
" transform="scale(0.015625)"/>
       <path id="DejaVuSans-69" d="M 603 3500 
L 1178 3500 
L 1178 0 
L 603 0 
L 603 3500 
z
M 603 4863 
L 1178 4863 
L 1178 4134 
L 603 4134 
L 603 4863 
z
" transform="scale(0.015625)"/>
       <path id="DejaVuSans-6d" d="M 3328 2828 
Q 3544 3216 3844 3400 
Q 4144 3584 4550 3584 
Q 5097 3584 5394 3201 
Q 5691 2819 5691 2113 
L 5691 0 
L 5113 0 
L 5113 2094 
Q 5113 2597 4934 2840 
Q 4756 3084 4391 3084 
Q 3944 3084 3684 2787 
Q 3425 2491 3425 1978 
L 3425 0 
L 2847 0 
L 2847 2094 
Q 2847 2600 2669 2842 
Q 2491 3084 2119 3084 
Q 1678 3084 1418 2786 
Q 1159 2488 1159 1978 
L 1159 0 
L 581 0 
L 581 3500 
L 1159 3500 
L 1159 2956 
Q 1356 3278 1631 3431 
Q 1906 3584 2284 3584 
Q 2666 3584 2933 3390 
Q 3200 3197 3328 2828 
z
" transform="scale(0.015625)"/>
       <path id="DejaVuSans-65" d="M 3597 1894 
L 3597 1613 
L 953 1613 
Q 991 1019 1311 708 
Q 1631 397 2203 397 
Q 2534 397 2845 478 
Q 3156 559 3463 722 
L 3463 178 
Q 3153 47 2828 -22 
Q 2503 -91 2169 -91 
Q 1331 -91 842 396 
Q 353 884 353 1716 
Q 353 2575 817 3079 
Q 1281 3584 2069 3584 
Q 2775 3584 3186 3129 
Q 3597 2675 3597 1894 
z
M 3022 2063 
Q 3016 2534 2758 2815 
Q 2500 3097 2075 3097 
Q 1594 3097 1305 2825 
Q 1016 2553 972 2059 
L 3022 2063 
z
" transform="scale(0.015625)"/>
       <path id="DejaVuSans-20" transform="scale(0.015625)"/>
       <path id="DejaVuSans-5b" d="M 550 4863 
L 1875 4863 
L 1875 4416 
L 1125 4416 
L 1125 -397 
L 1875 -397 
L 1875 -844 
L 550 -844 
L 550 4863 
z
" transform="scale(0.015625)"/>
       <path id="DejaVuSans-73" d="M 2834 3397 
L 2834 2853 
Q 2591 2978 2328 3040 
Q 2066 3103 1784 3103 
Q 1356 3103 1142 2972 
Q 928 2841 928 2578 
Q 928 2378 1081 2264 
Q 1234 2150 1697 2047 
L 1894 2003 
Q 2506 1872 2764 1633 
Q 3022 1394 3022 966 
Q 3022 478 2636 193 
Q 2250 -91 1575 -91 
Q 1294 -91 989 -36 
Q 684 19 347 128 
L 347 722 
Q 666 556 975 473 
Q 1284 391 1588 391 
Q 1994 391 2212 530 
Q 2431 669 2431 922 
Q 2431 1156 2273 1281 
Q 2116 1406 1581 1522 
L 1381 1569 
Q 847 1681 609 1914 
Q 372 2147 372 2553 
Q 372 3047 722 3315 
Q 1072 3584 1716 3584 
Q 2034 3584 2315 3537 
Q 2597 3491 2834 3397 
z
" transform="scale(0.015625)"/>
       <path id="DejaVuSans-5d" d="M 1947 4863 
L 1947 -844 
L 622 -844 
L 622 -397 
L 1369 -397 
L 1369 4416 
L 622 4416 
L 622 4863 
L 1947 4863 
z
" transform="scale(0.015625)"/>
      </defs>
      <use xlink:href="#DejaVuSans-74"/>
      <use xlink:href="#DejaVuSans-69" x="39.208984"/>
      <use xlink:href="#DejaVuSans-6d" x="66.992188"/>
      <use xlink:href="#DejaVuSans-65" x="164.404297"/>
      <use xlink:href="#DejaVuSans-20" x="225.927734"/>
      <use xlink:href="#DejaVuSans-5b" x="257.714844"/>
      <use xlink:href="#DejaVuSans-6d" x="296.728516"/>
      <use xlink:href="#DejaVuSans-73" x="394.140625"/>
      <use xlink:href="#DejaVuSans-5d" x="446.240234"/>
     </g>
    </g>
   </g>
   <g id="matplotlib.axis_2">
    <g id="ytick_1">
     <g id="line2d_6">
      <defs>
       <path id="ma6ee3af8c9" d="M 0 0 
L -3.5 0 
" style="stroke: #000000; stroke-width: 0.8"/>
      </defs>
      <g>
       <use xlink:href="#ma6ee3af8c9" x="63" y="382.218958" style="stroke: #000000; stroke-width: 0.8"/>
      </g>
     </g>
     <g id="text_7">
      <!-- −80 -->
      <g transform="translate(34.895313 386.018177)scale(0.1 -0.1)">
       <defs>
        <path id="DejaVuSans-2212" d="M 678 2272 
L 4684 2272 
L 4684 1741 
L 678 1741 
L 678 2272 
z
" transform="scale(0.015625)"/>
       </defs>
       <use xlink:href="#DejaVuSans-2212"/>
       <use xlink:href="#DejaVuSans-38" x="83.789062"/>
       <use xlink:href="#DejaVuSans-30" x="147.412109"/>
      </g>
     </g>
    </g>
    <g id="ytick_2">
     <g id="line2d_7">
      <g>
       <use xlink:href="#ma6ee3af8c9" x="63" y="329.582874" style="stroke: #000000; stroke-width: 0.8"/>
      </g>
     </g>
     <g id="text_8">
      <!-- −60 -->
      <g transform="translate(34.895313 333.382093)scale(0.1 -0.1)">
       <use xlink:href="#DejaVuSans-2212"/>
       <use xlink:href="#DejaVuSans-36" x="83.789062"/>
       <use xlink:href="#DejaVuSans-30" x="147.412109"/>
      </g>
     </g>
    </g>
    <g id="ytick_3">
     <g id="line2d_8">
      <g>
       <use xlink:href="#ma6ee3af8c9" x="63" y="276.94679" style="stroke: #000000; stroke-width: 0.8"/>
      </g>
     </g>
     <g id="text_9">
      <!-- −40 -->
      <g transform="translate(34.895313 280.746009)scale(0.1 -0.1)">
       <use xlink:href="#DejaVuSans-2212"/>
       <use xlink:href="#DejaVuSans-34" x="83.789062"/>
       <use xlink:href="#DejaVuSans-30" x="147.412109"/>
      </g>
     </g>
    </g>
    <g id="ytick_4">
     <g id="line2d_9">
      <g>
       <use xlink:href="#ma6ee3af8c9" x="63" y="224.310706" style="stroke: #000000; stroke-width: 0.8"/>
      </g>
     </g>
     <g id="text_10">
      <!-- −20 -->
      <g transform="translate(34.895313 228.109925)scale(0.1 -0.1)">
       <use xlink:href="#DejaVuSans-2212"/>
       <use xlink:href="#DejaVuSans-32" x="83.789062"/>
       <use xlink:href="#DejaVuSans-30" x="147.412109"/>
      </g>
     </g>
    </g>
    <g id="ytick_5">
     <g id="line2d_10">
      <g>
       <use xlink:href="#ma6ee3af8c9" x="63" y="171.674622" style="stroke: #000000; stroke-width: 0.8"/>
      </g>
     </g>
     <g id="text_11">
      <!-- 0 -->
      <g transform="translate(49.6375 175.473841)scale(0.1 -0.1)">
       <use xlink:href="#DejaVuSans-30"/>
      </g>
     </g>
    </g>
    <g id="ytick_6">
     <g id="line2d_11">
      <g>
       <use xlink:href="#ma6ee3af8c9" x="63" y="119.038538" style="stroke: #000000; stroke-width: 0.8"/>
      </g>
     </g>
     <g id="text_12">
      <!-- 20 -->
      <g transform="translate(43.275 122.837757)scale(0.1 -0.1)">
       <use xlink:href="#DejaVuSans-32"/>
       <use xlink:href="#DejaVuSans-30" x="63.623047"/>
      </g>
     </g>
    </g>
    <g id="ytick_7">
     <g id="line2d_12">
      <g>
       <use xlink:href="#ma6ee3af8c9" x="63" y="66.402454" style="stroke: #000000; stroke-width: 0.8"/>
      </g>
     </g>
     <g id="text_13">
      <!-- 40 -->
      <g transform="translate(43.275 70.201673)scale(0.1 -0.1)">
       <use xlink:href="#DejaVuSans-34"/>
       <use xlink:href="#DejaVuSans-30" x="63.623047"/>
      </g>
     </g>
    </g>
    <g id="text_14">
     <!-- voltage [mV] -->
     <g transform="translate(28.815625 250.624062)rotate(-90)scale(0.1 -0.1)">
      <defs>
       <path id="DejaVuSans-76" d="M 191 3500 
L 800 3500 
L 1894 563 
L 2988 3500 
L 3597 3500 
L 2284 0 
L 1503 0 
L 191 3500 
z
" transform="scale(0.015625)"/>
       <path id="DejaVuSans-6f" d="M 1959 3097 
Q 1497 3097 1228 2736 
Q 959 2375 959 1747 
Q 959 1119 1226 758 
Q 1494 397 1959 397 
Q 2419 397 2687 759 
Q 2956 1122 2956 1747 
Q 2956 2369 2687 2733 
Q 2419 3097 1959 3097 
z
M 1959 3584 
Q 2709 3584 3137 3096 
Q 3566 2609 3566 1747 
Q 3566 888 3137 398 
Q 2709 -91 1959 -91 
Q 1206 -91 779 398 
Q 353 888 353 1747 
Q 353 2609 779 3096 
Q 1206 3584 1959 3584 
z
" transform="scale(0.015625)"/>
       <path id="DejaVuSans-6c" d="M 603 4863 
L 1178 4863 
L 1178 0 
L 603 0 
L 603 4863 
z
" transform="scale(0.015625)"/>
       <path id="DejaVuSans-61" d="M 2194 1759 
Q 1497 1759 1228 1600 
Q 959 1441 959 1056 
Q 959 750 1161 570 
Q 1363 391 1709 391 
Q 2188 391 2477 730 
Q 2766 1069 2766 1631 
L 2766 1759 
L 2194 1759 
z
M 3341 1997 
L 3341 0 
L 2766 0 
L 2766 531 
Q 2569 213 2275 61 
Q 1981 -91 1556 -91 
Q 1019 -91 701 211 
Q 384 513 384 1019 
Q 384 1609 779 1909 
Q 1175 2209 1959 2209 
L 2766 2209 
L 2766 2266 
Q 2766 2663 2505 2880 
Q 2244 3097 1772 3097 
Q 1472 3097 1187 3025 
Q 903 2953 641 2809 
L 641 3341 
Q 956 3463 1253 3523 
Q 1550 3584 1831 3584 
Q 2591 3584 2966 3190 
Q 3341 2797 3341 1997 
z
" transform="scale(0.015625)"/>
       <path id="DejaVuSans-67" d="M 2906 1791 
Q 2906 2416 2648 2759 
Q 2391 3103 1925 3103 
Q 1463 3103 1205 2759 
Q 947 2416 947 1791 
Q 947 1169 1205 825 
Q 1463 481 1925 481 
Q 2391 481 2648 825 
Q 2906 1169 2906 1791 
z
M 3481 434 
Q 3481 -459 3084 -895 
Q 2688 -1331 1869 -1331 
Q 1566 -1331 1297 -1286 
Q 1028 -1241 775 -1147 
L 775 -588 
Q 1028 -725 1275 -790 
Q 1522 -856 1778 -856 
Q 2344 -856 2625 -561 
Q 2906 -266 2906 331 
L 2906 616 
Q 2728 306 2450 153 
Q 2172 0 1784 0 
Q 1141 0 747 490 
Q 353 981 353 1791 
Q 353 2603 747 3093 
Q 1141 3584 1784 3584 
Q 2172 3584 2450 3431 
Q 2728 3278 2906 2969 
L 2906 3500 
L 3481 3500 
L 3481 434 
z
" transform="scale(0.015625)"/>
       <path id="DejaVuSans-56" d="M 1831 0 
L 50 4666 
L 709 4666 
L 2188 738 
L 3669 4666 
L 4325 4666 
L 2547 0 
L 1831 0 
z
" transform="scale(0.015625)"/>
      </defs>
      <use xlink:href="#DejaVuSans-76"/>
      <use xlink:href="#DejaVuSans-6f" x="59.179688"/>
      <use xlink:href="#DejaVuSans-6c" x="120.361328"/>
      <use xlink:href="#DejaVuSans-74" x="148.144531"/>
      <use xlink:href="#DejaVuSans-61" x="187.353516"/>
      <use xlink:href="#DejaVuSans-67" x="248.632812"/>
      <use xlink:href="#DejaVuSans-65" x="312.109375"/>
      <use xlink:href="#DejaVuSans-20" x="373.632812"/>
      <use xlink:href="#DejaVuSans-5b" x="405.419922"/>
      <use xlink:href="#DejaVuSans-6d" x="444.433594"/>
      <use xlink:href="#DejaVuSans-56" x="541.845703"/>
      <use xlink:href="#DejaVuSans-5d" x="610.253906"/>
     </g>
    </g>
   </g>
   <g id="line2d_13">
    <path d="M 80.754545 342.741895 
L 81.952977 342.605305 
L 83.772818 342.662415 
L 85.965505 342.681364 
L 151.772727 342.672679 
L 152.314241 298.032542 
L 152.420768 249.269685 
L 152.562805 67.255685 
L 152.678209 92.539428 
L 153.565936 369.298905 
L 153.610323 369.198107 
L 153.8145 367.81562 
L 154.293873 363.049423 
L 154.959668 353.904167 
L 157.42755 314.910829 
L 157.613973 303.754348 
L 157.738255 281.731147 
L 157.835905 219.010516 
L 157.969064 91.68067 
L 158.031205 104.867588 
L 158.883423 368.873342 
L 158.945564 368.689379 
L 159.203005 366.704999 
L 159.717886 361.017144 
L 160.534595 349.058752 
L 161.8218 330.88088 
L 162.514227 320.487096 
L 162.771668 312.946714 
L 162.940336 300.923842 
L 163.064618 272.884074 
L 163.162268 188.263226 
L 163.268795 92.603381 
L 163.322059 102.141566 
L 163.863573 297.753571 
L 164.147645 368.696222 
L 164.183155 368.841498 
L 164.245295 368.65964 
L 164.493859 366.751056 
L 165.008741 361.082939 
L 165.834327 349.001115 
L 167.112655 330.955623 
L 167.813959 320.451566 
L 168.0714 312.901447 
L 168.240068 300.839098 
L 168.36435 272.637211 
L 168.462 187.515662 
L 168.568527 92.680493 
L 168.621791 102.364216 
L 169.172182 301.715752 
L 169.4385 368.610162 
L 169.482886 368.839392 
L 169.545027 368.653587 
L 169.802468 366.661048 
L 170.31735 360.955296 
L 171.151814 348.711354 
L 172.430141 330.712182 
L 173.113691 320.433144 
L 173.371132 312.864865 
L 173.5398 300.743038 
L 173.664082 272.298235 
L 173.761732 186.361327 
L 173.868259 92.697336 
L 173.921523 102.600815 
L 174.480791 305.797681 
L 174.729355 368.500416 
L 174.782618 368.839392 
L 174.844759 368.649376 
L 175.1022 366.653679 
L 175.617082 360.944506 
L 176.451545 348.698458 
L 177.729873 330.701391 
L 178.413423 320.4163 
L 178.670864 312.828809 
L 178.839532 300.645661 
L 178.963814 271.95031 
L 179.061464 185.173199 
L 179.167991 92.714706 
L 179.221255 102.840046 
L 179.7894 309.983039 
L 180.029086 368.512785 
L 180.08235 368.839655 
L 180.144491 368.644902 
L 180.401932 366.64631 
L 180.916814 360.933979 
L 181.751277 348.686088 
L 183.029605 330.690864 
L 183.713155 320.399194 
L 183.970595 312.79249 
L 184.139264 300.547231 
L 184.263545 271.594227 
L 184.361195 183.964174 
L 184.467723 92.738655 
L 184.520986 103.082962 
L 185.098009 314.26051 
L 185.328818 368.524892 
L 185.382082 368.839655 
L 185.444223 368.640691 
L 185.701664 366.638678 
L 186.216545 360.923452 
L 187.051009 348.673456 
L 188.329336 330.680337 
L 189.012886 320.38235 
L 189.270327 312.755908 
L 189.438995 300.447223 
L 189.563277 271.23288 
L 189.660927 182.750333 
L 189.767455 92.768395 
L 189.820718 103.328246 
L 190.406618 318.610356 
L 190.619673 368.39067 
L 190.681814 368.839392 
L 190.743955 368.636217 
L 191.010273 366.549723 
L 191.525155 360.797651 
L 192.368495 348.387115 
L 193.637945 330.55401 
L 194.312618 320.36498 
L 194.570059 312.719326 
L 194.738727 300.346688 
L 194.863009 270.868112 
L 194.969536 168.137083 
L 195.058309 92.754973 
L 195.12045 103.576162 
L 195.715227 323.006522 
L 195.919405 368.406197 
L 195.981545 368.839392 
L 196.043686 368.631743 
L 196.310005 366.54209 
L 196.833764 360.671325 
L 197.703736 347.827857 
L 198.955432 330.312147 
L 199.61235 320.347873 
L 199.869791 312.682217 
L 200.038459 300.2451 
L 200.162741 270.495975 
L 200.269268 166.870369 
L 200.358041 92.725496 
L 200.420182 103.828289 
L 201.023836 327.411899 
L 201.219136 368.420935 
L 201.281277 368.838866 
L 201.343418 368.627269 
L 201.609736 366.534458 
L 202.133495 360.660271 
L 202.994591 347.951552 
L 204.255164 330.301357 
L 204.912082 320.33024 
L 205.169523 312.644583 
L 205.338191 300.141933 
L 205.462473 270.116206 
L 205.569 165.595154 
L 205.657773 92.703126 
L 205.719914 104.082258 
L 206.332445 331.778325 
L 206.518868 368.435673 
L 206.581009 368.838603 
L 206.634273 368.669378 
L 206.873959 366.849485 
L 207.388841 361.223214 
L 208.187795 349.581165 
L 209.510509 330.867721 
L 210.202936 320.497623 
L 210.460377 313.000666 
L 210.629045 301.107806 
L 210.753327 273.592819 
L 210.850977 190.830656 
L 210.957505 92.687862 
L 211.019645 104.33728 
L 211.641055 336.051586 
L 211.827477 368.581739 
L 211.880741 368.838076 
L 211.934005 368.665167 
L 212.182568 366.762109 
L 212.69745 361.09873 
L 213.514159 349.157181 
L 214.810241 330.856931 
L 215.502668 320.480516 
L 215.760109 312.96461 
L 215.928777 301.011218 
L 216.053059 273.252527 
L 216.150709 189.64845 
L 216.257236 92.681545 
L 216.319377 104.591775 
L 216.949664 340.167991 
L 217.127209 368.592266 
L 217.171595 368.838603 
L 217.233736 368.660956 
L 217.4823 366.75474 
L 217.997182 361.088202 
L 218.822768 349.007432 
L 220.101095 330.961413 
L 220.8024 320.46341 
L 221.059841 312.928817 
L 221.228509 300.914894 
L 221.352791 272.910919 
L 221.450441 188.466823 
L 221.556968 92.682072 
L 221.610232 102.178674 
L 222.151745 297.809102 
L 222.426941 368.602267 
L 222.471327 368.838866 
L 222.533468 368.656745 
L 222.782032 366.747371 
L 223.296914 361.077675 
L 224.1225 348.994536 
L 225.418582 330.72034 
L 226.111009 320.260761 
L 226.36845 312.494833 
L 226.537118 299.727424 
L 226.652523 272.566679 
L 226.750173 187.280484 
L 226.8567 92.688125 
L 226.909964 102.416852 
L 227.460355 301.791285 
L 227.726673 368.612004 
L 227.771059 368.839392 
L 227.8332 368.652534 
L 228.090641 366.659206 
L 228.605523 360.952665 
L 229.439986 348.708196 
L 230.718314 330.70955 
L 231.401864 320.429196 
L 231.659305 312.856443 
L 231.827973 300.72093 
L 231.952255 272.22007 
L 232.049905 186.093935 
L 232.156432 92.701021 
L 232.209695 102.654767 
L 232.768964 305.876372 
L 233.017527 368.503311 
L 233.070791 368.839392 
L 233.132932 368.648323 
L 233.390373 366.651837 
L 233.905255 360.942137 
L 234.739718 348.695563 
L 236.018045 330.699023 
L 236.701595 320.412353 
L 236.959036 312.82065 
L 237.127705 300.623554 
L 237.251986 271.870303 
L 237.349636 184.900596 
L 237.456164 92.719443 
L 237.509427 102.895051 
L 238.077573 310.064098 
L 238.317259 368.515417 
L 238.370523 368.839655 
L 238.432664 368.644112 
L 238.690105 366.644468 
L 239.204986 360.93161 
L 240.03945 348.683193 
L 241.317777 330.688495 
L 242.001327 320.395509 
L 242.258768 312.784331 
L 242.427436 300.524598 
L 242.551718 271.512378 
L 242.649368 183.688756 
L 242.755895 92.744972 
L 242.809159 103.138493 
L 243.386182 314.343412 
L 243.616991 368.527523 
L 243.670255 368.839655 
L 243.732395 368.639638 
L 243.989836 366.637098 
L 244.504718 360.921083 
L 245.348059 348.533707 
L 246.617509 330.677705 
L 247.301059 320.378402 
L 247.5585 312.747749 
L 247.727168 300.424326 
L 247.85145 271.150505 
L 247.9491 182.473731 
L 248.055627 92.77629 
L 248.108891 103.384304 
L 248.694791 318.6951 
L 248.907845 368.394354 
L 248.969986 368.839392 
L 249.032127 368.635427 
L 249.298445 366.548143 
L 249.822205 360.679746 
L 250.692177 347.837858 
L 251.943873 330.320569 
L 252.600791 320.361032 
L 252.858232 312.710904 
L 253.0269 300.323528 
L 253.151182 270.783894 
L 253.257709 167.848689 
L 253.346482 92.747604 
L 253.408623 103.633535 
L 254.0034 323.092845 
L 254.207577 368.409619 
L 254.269718 368.839129 
L 254.331859 368.630953 
L 254.598177 366.540511 
L 255.121936 360.668693 
L 255.983032 347.961553 
L 257.22585 330.540851 
L 257.900523 320.343926 
L 258.157964 312.673796 
L 258.326632 300.221677 
L 258.450914 270.409915 
L 258.557441 166.57937 
L 258.646214 92.719707 
L 258.708355 103.886452 
L 259.312009 327.498222 
L 259.507309 368.424357 
L 259.56945 368.838866 
L 259.631591 368.626216 
L 259.897909 366.532616 
L 260.421668 360.657902 
L 261.291641 347.812329 
L 262.525582 330.530061 
L 263.200255 320.326293 
L 263.457695 312.636161 
L 263.626364 300.118247 
L 263.750645 270.02883 
L 263.857173 165.303629 
L 263.945945 92.698915 
L 264.008086 104.140421 
L 264.620618 331.863333 
L 264.807041 368.439095 
L 264.869182 368.838339 
L 264.922445 368.668588 
L 265.171009 366.767899 
L 265.685891 361.107151 
L 266.511477 349.030065 
L 267.807559 330.75008 
L 268.499986 320.308923 
L 268.757427 312.598526 
L 268.926095 300.014817 
L 269.050377 269.647745 
L 269.156905 164.03739 
L 269.245677 92.685756 
L 269.298941 101.758901 
L 269.8227 290.229243 
L 270.133405 368.750964 
L 270.168914 368.838076 
L 270.222177 368.664377 
L 270.470741 366.76053 
L 270.985623 361.096361 
L 271.802332 349.154286 
L 273.098414 330.854562 
L 273.790841 320.476569 
L 274.048282 312.956451 
L 274.21695 300.989374 
L 274.341232 273.174625 
L 274.438882 189.378006 
L 274.545409 92.681282 
L 274.598673 101.9955 
L 275.131309 294.006145 
L 275.424259 368.688853 
L 275.459768 368.838603 
L 275.521909 368.660166 
L 275.770473 366.753161 
L 276.285355 361.085834 
L 277.110941 349.004537 
L 278.389268 330.959045 
L 279.090573 320.459462 
L 279.348014 312.920396 
L 279.516682 300.892787 
L 279.640964 272.832491 
L 279.738614 188.196273 
L 279.845141 92.682598 
L 279.898405 102.233152 
L 280.439918 297.885161 
L 280.715114 368.604372 
L 280.7595 368.839129 
L 280.821641 368.655955 
L 281.079082 366.664996 
L 281.593964 360.960823 
L 282.428427 348.717933 
L 283.706755 330.717708 
L 284.390305 320.442355 
L 284.647745 312.88434 
L 284.816414 300.795937 
L 284.940695 272.487724 
L 285.038345 187.009829 
L 285.144873 92.690493 
L 285.198136 102.471067 
L 285.748527 301.868397 
L 286.014845 368.61411 
L 286.059232 368.839392 
L 286.121373 368.651481 
L 286.378814 366.657627 
L 286.893695 360.950296 
L 287.728159 348.705301 
L 289.006486 330.707181 
L 289.690036 320.425512 
L 289.947477 312.848284 
L 290.116145 300.698823 
L 290.240427 272.140589 
L 290.338077 185.822386 
L 290.444605 92.704705 
L 290.497868 102.709246 
L 291.057136 305.955852 
L 291.3057 368.506206 
L 291.358964 368.839655 
L 291.421105 368.647271 
L 291.678545 366.650257 
L 292.193427 360.939769 
L 293.027891 348.692668 
L 294.315095 330.581118 
L 294.989768 320.408405 
L 295.247209 312.812228 
L 295.415877 300.601183 
L 295.540159 271.789244 
L 295.637809 184.625125 
L 295.744336 92.724707 
L 295.7976 102.950319 
L 296.365745 310.145684 
L 296.605432 368.518312 
L 296.658695 368.839655 
L 296.720836 368.64306 
L 296.978277 366.642888 
L 297.493159 360.929241 
L 298.327623 348.680298 
L 299.60595 330.686127 
L 300.2895 320.391561 
L 300.546941 312.77591 
L 300.715609 300.501701 
L 300.839891 271.430265 
L 300.937541 183.412943 
L 301.044068 92.751551 
L 301.097332 103.194024 
L 301.674355 314.426314 
L 301.905164 368.530155 
L 301.958427 368.839655 
L 302.020568 368.638849 
L 302.286886 366.553933 
L 302.810645 360.687905 
L 303.671741 347.984186 
L 304.914559 330.560063 
L 305.589232 320.374455 
L 305.846673 312.739327 
L 306.015341 300.401693 
L 306.139623 271.067866 
L 306.24615 168.822931 
L 306.334923 92.773658 
L 306.397064 103.440624 
L 306.982964 318.779844 
L 307.196018 368.397775 
L 307.258159 368.839392 
L 307.3203 368.634375 
L 307.586618 366.546301 
L 308.110377 360.677115 
L 308.971473 347.971554 
L 310.214291 330.549273 
L 310.888964 320.357348 
L 311.146405 312.702482 
L 311.315073 300.300631 
L 311.439355 270.699413 
L 311.545882 167.561323 
L 311.634655 92.740761 
L 311.696795 103.690646 
L 312.291573 323.178642 
L 312.49575 368.41304 
L 312.557891 368.839129 
L 312.620032 368.629901 
L 312.88635 366.538669 
L 313.410109 360.666324 
L 314.280082 347.822067 
L 315.531777 330.307147 
L 316.188695 320.339715 
L 316.446136 312.665111 
L 316.614805 300.198254 
L 316.739086 270.324118 
L 316.845614 166.289477 
L 316.934386 92.714443 
L 316.996527 103.944088 
L 317.600182 327.584282 
L 317.795482 368.427778 
L 317.857623 368.838866 
L 317.910886 368.671746 
L 318.150573 366.853433 
L 318.665455 361.229004 
L 319.464409 349.588008 
L 320.787123 330.873774 
L 321.488427 320.322345 
L 321.745868 312.627476 
L 321.914536 300.094561 
L 322.038818 269.941717 
L 322.145345 165.013499 
L 322.234118 92.695231 
L 322.296259 104.198584 
L 322.908791 331.948077 
L 323.095214 368.442516 
L 323.157355 368.838339 
L 323.210618 368.667535 
L 323.459182 366.76632 
L 323.974064 361.10452 
L 324.790773 349.164024 
L 326.095732 330.747448 
L 326.779282 320.489728 
L 327.036723 312.984348 
L 327.205391 301.063854 
L 327.329673 273.437806 
L 327.427323 190.291663 
L 327.53385 92.683914 
L 327.595991 104.453342 
L 328.2174 336.215284 
L 328.403823 368.586476 
L 328.457086 368.837813 
L 328.51035 368.663325 
L 328.758914 366.758688 
L 329.273795 361.093992 
L 329.318182 360.517364 
L 329.335936 361.421126 
L 329.531236 365.428837 
L 329.620009 365.617538 
L 329.664395 365.559901 
L 329.815309 364.950375 
L 330.214786 362.120922 
L 332.176664 347.298338 
L 332.869091 344.062008 
L 333.428359 342.399234 
L 333.889977 341.652855 
L 334.262823 341.424941 
L 334.609036 341.461786 
L 335.061777 341.752074 
L 336.553159 342.846904 
L 337.156814 342.944018 
L 338.097805 342.833482 
L 339.580309 342.638202 
L 342.101455 342.674521 
L 345.714505 342.670573 
L 435.845455 342.672679 
L 435.845455 342.672679 
" clip-path="url(#p8d43016231)" style="fill: none; stroke: #1f77b4; stroke-width: 1.5; stroke-linecap: square"/>
   </g>
   <g id="line2d_14">
    <path d="M 80.754545 342.741895 
L 81.340445 343.122666 
L 81.970732 343.279445 
L 82.778564 343.229791 
L 85.148795 342.97927 
L 151.772727 343.024104 
L 152.314241 298.509633 
L 152.420768 251.159909 
L 152.571682 66.96 
L 152.687086 94.516764 
L 153.574814 369.36 
L 153.592568 369.332903 
L 153.71685 368.656347 
L 154.142959 364.889192 
L 154.728859 357.530388 
L 157.267759 319.658139 
L 157.507445 311.537794 
L 157.667236 297.700988 
L 157.782641 264.907992 
L 157.889168 148.248102 
L 157.969064 91.710891 
L 158.022327 101.178504 
L 158.563841 296.624714 
L 158.847914 368.753568 
L 158.8923 368.930901 
L 158.954441 368.72511 
L 159.220759 366.662821 
L 159.735641 360.964782 
L 160.561227 348.860264 
L 161.866186 330.40964 
L 162.523105 320.367578 
L 162.780545 312.652801 
L 162.949214 300.147288 
L 163.073495 270.252153 
L 163.180023 166.488142 
L 163.268795 92.771343 
L 163.330936 103.963878 
L 163.934591 327.898143 
L 164.129891 368.482105 
L 164.192032 368.898788 
L 164.254173 368.692431 
L 164.520491 366.62287 
L 165.035373 360.908474 
L 165.869836 348.656461 
L 167.165918 330.361447 
L 167.822836 320.319253 
L 168.080277 312.579957 
L 168.248945 299.985277 
L 168.373227 269.716214 
L 168.479755 164.828535 
L 168.568527 92.820451 
L 168.630668 104.375744 
L 169.2432 332.483944 
L 169.429623 368.50282 
L 169.491764 368.895935 
L 169.545027 368.729109 
L 169.784714 366.927741 
L 170.290718 361.455434 
L 171.071918 350.140063 
L 172.456773 330.457214 
L 173.122568 320.28805 
L 173.380009 312.515117 
L 173.548677 299.809461 
L 173.672959 269.073194 
L 173.779486 162.732259 
L 173.868259 92.813096 
L 173.921523 102.146606 
L 174.454159 294.482342 
L 174.747109 368.74559 
L 174.791495 368.894859 
L 174.844759 368.721881 
L 175.093323 366.836003 
L 175.608205 361.211536 
L 176.407159 349.569248 
L 177.747627 330.554927 
L 178.4223 320.258084 
L 178.679741 312.450724 
L 178.848409 299.631832 
L 178.963814 272.404856 
L 179.061464 187.222186 
L 179.167991 92.81884 
L 179.221255 102.553238 
L 179.771645 302.268471 
L 180.037964 368.668762 
L 180.08235 368.89636 
L 180.144491 368.714762 
L 180.393055 366.823462 
L 180.907936 361.193625 
L 181.706891 349.547593 
L 183.047359 330.536581 
L 183.713155 320.415599 
L 183.970595 312.788486 
L 184.139264 300.558514 
L 184.263545 271.805079 
L 184.361195 185.180582 
L 184.467723 92.842737 
L 184.520986 102.965369 
L 185.089132 310.460926 
L 185.328818 368.569497 
L 185.382082 368.89667 
L 185.444223 368.707565 
L 185.701664 366.731021 
L 186.216545 361.061915 
L 187.033255 349.114495 
L 188.355968 330.401844 
L 189.012886 320.386362 
L 189.270327 312.726091 
L 189.438995 300.388681 
L 189.563277 271.193898 
L 189.669805 169.828297 
L 189.767455 92.886054 
L 189.820718 103.381843 
L 190.406618 318.987674 
L 190.619673 368.444134 
L 190.681814 368.896752 
L 190.743955 368.700302 
L 191.001395 366.718392 
L 191.516277 361.043963 
L 192.332986 349.092923 
L 193.646823 330.499937 
L 194.312618 320.357015 
L 194.570059 312.663376 
L 194.738727 300.217427 
L 194.863009 270.571313 
L 194.969536 167.697941 
L 195.058309 92.878997 
L 195.12045 103.805836 
L 195.715227 323.64465 
L 195.919405 368.469783 
L 195.981545 368.896441 
L 196.043686 368.692841 
L 196.310005 366.624849 
L 196.824886 360.911297 
L 197.65935 348.659877 
L 198.955432 330.365015 
L 199.61235 320.327266 
L 199.869791 312.599569 
L 200.038459 300.042205 
L 200.162741 269.929556 
L 200.269268 165.545751 
L 200.358041 92.835677 
L 200.420182 104.236812 
L 201.032714 332.283323 
L 201.219136 368.49486 
L 201.281277 368.895982 
L 201.334541 368.73119 
L 201.574227 366.931558 
L 202.080232 361.460887 
L 202.861432 350.146727 
L 204.246286 330.462918 
L 204.912082 320.29741 
L 205.169523 312.535418 
L 205.338191 299.865628 
L 205.462473 269.280643 
L 205.569 163.40632 
L 205.657773 92.814868 
L 205.711036 102.018594 
L 206.243673 294.306977 
L 206.536623 368.741583 
L 206.581009 368.895166 
L 206.634273 368.72412 
L 206.882836 366.839977 
L 207.397718 361.217213 
L 208.196673 349.576115 
L 209.537141 330.560745 
L 210.211814 320.26749 
L 210.469255 312.471011 
L 210.637923 299.687981 
L 210.762205 268.623841 
L 210.868732 161.28366 
L 210.957505 92.81496 
L 211.010768 102.424633 
L 211.561159 302.084529 
L 211.827477 368.663568 
L 211.871864 368.896191 
L 211.934005 368.71701 
L 212.182568 366.827407 
L 212.69745 361.199258 
L 213.496405 349.554402 
L 214.836873 330.542351 
L 215.511545 320.237748 
L 215.768986 312.406623 
L 215.937655 299.508931 
L 216.053059 271.996129 
L 216.150709 185.830206 
L 216.257236 92.833419 
L 216.3105 102.833739 
L 216.878645 310.26601 
L 217.118332 368.562809 
L 217.171595 368.896597 
L 217.233736 368.709867 
L 217.491177 366.735045 
L 218.006059 361.067638 
L 218.822768 349.121375 
L 220.145482 330.407692 
L 220.8024 320.39569 
L 221.059841 312.746006 
L 221.228509 300.442919 
L 221.352791 271.389283 
L 221.459318 170.501592 
L 221.556968 92.870276 
L 221.610232 103.248972 
L 222.187255 314.804663 
L 222.418064 368.583582 
L 222.471327 368.896759 
L 222.533468 368.70262 
L 222.790909 366.722406 
L 223.305791 361.049668 
L 224.1225 349.099777 
L 225.436336 330.505753 
L 226.102132 320.36634 
L 226.359573 312.683311 
L 226.528241 300.271941 
L 226.652523 270.770246 
L 226.75905 168.375112 
L 226.847823 92.896847 
L 226.909964 103.67061 
L 227.504741 323.441754 
L 227.708918 368.461731 
L 227.771059 368.896569 
L 227.8332 368.695224 
L 228.099518 366.62895 
L 228.6144 360.917102 
L 229.448864 348.666809 
L 230.744945 330.370902 
L 231.401864 320.336731 
L 231.659305 312.619881 
L 231.827973 300.098031 
L 231.952255 270.134162 
L 232.058782 166.225922 
L 232.147555 92.846639 
L 232.209695 104.100369 
L 232.81335 328.105009 
L 233.00865 368.487069 
L 233.070791 368.896158 
L 233.132932 368.687706 
L 233.39925 366.616012 
L 233.914132 360.898791 
L 234.748595 348.644949 
L 236.044677 330.352323 
L 236.701595 320.30683 
L 236.959036 312.555668 
L 237.127705 299.921403 
L 237.251986 269.486186 
L 237.358514 164.079123 
L 237.447286 92.818861 
L 237.50055 101.891013 
L 238.024309 290.668691 
L 238.335014 368.806865 
L 238.370523 368.895447 
L 238.423786 368.726355 
L 238.67235 366.843958 
L 239.187232 361.222902 
L 239.986186 349.582998 
L 241.335532 330.450209 
L 242.001327 320.276916 
L 242.258768 312.491331 
L 242.427436 299.744071 
L 242.551718 268.831897 
L 242.658245 161.95245 
L 242.747018 92.81349 
L 242.800282 102.296188 
L 243.341795 298.249259 
L 243.616991 368.658221 
L 243.661377 368.895963 
L 243.723518 368.719244 
L 243.972082 366.831355 
L 244.486964 361.204896 
L 245.285918 349.561219 
L 246.626386 330.548128 
L 247.301059 320.247097 
L 247.5585 312.426978 
L 247.727168 299.565874 
L 247.842573 272.185841 
L 247.940223 186.475968 
L 248.04675 92.825923 
L 248.100014 102.703509 
L 248.659282 306.235803 
L 248.907845 368.556108 
L 248.961109 368.896497 
L 249.02325 368.712135 
L 249.280691 366.739023 
L 249.795573 361.073296 
L 250.612282 349.128179 
L 251.934995 330.413478 
L 252.600791 320.217526 
L 252.858232 312.362539 
L 253.0269 299.385079 
L 253.142305 271.58188 
L 253.239955 184.426017 
L 253.346482 92.856468 
L 253.399745 103.117927 
L 253.976768 314.60838 
L 254.207577 368.577123 
L 254.260841 368.896732 
L 254.322982 368.704908 
L 254.580423 366.726387 
L 255.095305 361.055327 
L 255.912014 349.106576 
L 257.22585 330.511524 
L 257.891645 320.375592 
L 258.149086 312.703085 
L 258.317755 300.325977 
L 258.442036 270.967024 
L 258.548564 169.048267 
L 258.646214 92.906542 
L 258.699477 103.536777 
L 259.285377 319.220493 
L 259.498432 368.453666 
L 259.560573 368.896677 
L 259.622714 368.697584 
L 259.889032 366.63302 
L 260.403914 360.922864 
L 261.238377 348.67369 
L 262.534459 330.376746 
L 263.191377 320.346127 
L 263.448818 312.640035 
L 263.617486 300.153383 
L 263.741768 270.336905 
L 263.848295 166.904692 
L 263.937068 92.860447 
L 263.999209 103.964468 
L 264.602864 327.903153 
L 264.798164 368.479148 
L 264.860305 368.896295 
L 264.922445 368.69007 
L 265.188764 366.620077 
L 265.703645 360.904543 
L 266.538109 348.651815 
L 267.834191 330.358167 
L 268.491109 320.316251 
L 268.74855 312.575921 
L 268.917218 299.977164 
L 269.0415 269.691004 
L 269.148027 164.754604 
L 269.2368 92.825426 
L 269.298941 104.396897 
L 269.92035 336.401447 
L 270.106773 368.63526 
L 270.160036 368.895716 
L 270.222177 368.682522 
L 270.497373 366.525632 
L 271.021132 360.655544 
L 271.882227 347.945694 
L 273.151677 330.106452 
L 273.790841 320.286378 
L 274.048282 312.511694 
L 274.21695 299.80024 
L 274.341232 269.03951 
L 274.447759 162.62376 
L 274.536532 92.813449 
L 274.589795 102.167803 
L 275.122432 294.511417 
L 275.415382 368.746224 
L 275.459768 368.894789 
L 275.513032 368.721494 
L 275.761595 366.835329 
L 276.276477 361.210573 
L 277.075432 349.568084 
L 278.4159 330.553944 
L 279.090573 320.256507 
L 279.348014 312.447334 
L 279.516682 299.622442 
L 279.632086 272.37371 
L 279.729736 187.11599 
L 279.836264 92.819726 
L 279.889527 102.57463 
L 280.439918 302.298981 
L 280.706236 368.669607 
L 280.750623 368.896382 
L 280.812764 368.714388 
L 281.061327 366.822808 
L 281.576209 361.192692 
L 282.375164 349.546465 
L 283.715632 330.535625 
L 284.381427 320.414075 
L 284.638868 312.785238 
L 284.807536 300.549681 
L 284.931818 271.773327 
L 285.029468 185.073117 
L 285.135995 92.844542 
L 285.189259 102.987129 
L 285.757405 310.493071 
L 285.997091 368.570594 
L 286.050355 368.89668 
L 286.112495 368.707185 
L 286.369936 366.730357 
L 286.884818 361.060972 
L 287.701527 349.113361 
L 289.024241 330.40088 
L 289.681159 320.384824 
L 289.9386 312.722807 
L 290.107268 300.379735 
L 290.23155 271.161557 
L 290.338077 169.716915 
L 290.435727 92.88881 
L 290.488991 103.403901 
L 291.074891 319.020881 
L 291.287945 368.445511 
L 291.350086 368.896747 
L 291.412227 368.699918 
L 291.669668 366.717728 
L 292.18455 361.043019 
L 293.001259 349.091789 
L 294.315095 330.498975 
L 294.980891 320.355473 
L 295.238332 312.660078 
L 295.407 300.208405 
L 295.531282 270.538317 
L 295.637809 167.586089 
L 295.726582 92.876229 
L 295.788723 103.828151 
L 296.3835 323.678094 
L 296.587677 368.471106 
L 296.649818 368.89642 
L 296.711959 368.69245 
L 296.978277 366.624176 
L 297.493159 360.910344 
L 298.327623 348.658739 
L 299.623705 330.364048 
L 300.280623 320.32571 
L 300.538064 312.59623 
L 300.706732 300.033024 
L 300.831014 269.895891 
L 300.937541 165.433981 
L 301.026314 92.834066 
L 301.088455 104.259335 
L 301.700986 332.316064 
L 301.887409 368.496133 
L 301.94955 368.895949 
L 302.002814 368.730826 
L 302.2425 366.930906 
L 302.748505 361.459956 
L 303.529705 350.145589 
L 304.914559 330.461953 
L 305.580355 320.295854 
L 305.837795 312.532074 
L 306.006464 299.856415 
L 306.130745 269.246679 
L 306.237273 163.295791 
L 306.326045 92.814549 
L 306.379309 102.039614 
L 306.911945 294.335805 
L 307.204895 368.742243 
L 307.249282 368.895114 
L 307.302545 368.72375 
L 307.551109 366.839322 
L 308.065991 361.216277 
L 308.864945 349.574982 
L 310.205414 330.559786 
L 310.880086 320.265942 
L 311.137527 312.467677 
L 311.306195 299.678776 
L 311.430477 268.589664 
L 311.537005 161.174057 
L 311.625777 92.815431 
L 311.679041 102.445752 
L 312.229432 302.114774 
L 312.49575 368.664435 
L 312.540136 368.896223 
L 312.602277 368.716642 
L 312.850841 366.826757 
L 313.365723 361.19833 
L 314.164677 349.553281 
L 315.505145 330.541401 
L 316.179818 320.236212 
L 316.437259 312.403277 
L 316.605927 299.499542 
L 316.721332 271.964747 
L 316.818982 185.723399 
L 316.925509 92.83481 
L 316.978773 102.855337 
L 317.546918 310.297996 
L 317.786605 368.563911 
L 317.839868 368.89661 
L 317.902009 368.70949 
L 318.15945 366.734385 
L 318.674332 361.066699 
L 319.491041 349.120246 
L 320.813755 330.406732 
L 321.470673 320.394162 
L 321.728114 312.742744 
L 321.896782 300.434037 
L 322.021064 271.357311 
L 322.127591 170.391346 
L 322.225241 92.872743 
L 322.278505 103.27066 
L 322.855527 314.83705 
L 323.086336 368.584642 
L 323.1396 368.896761 
L 323.201741 368.702242 
L 323.459182 366.72175 
L 323.974064 361.048735 
L 324.790773 349.098656 
L 326.104609 330.504801 
L 326.770405 320.364814 
L 327.027845 312.680051 
L 327.196514 300.263026 
L 327.320795 270.737767 
L 327.427323 168.264271 
L 327.516095 92.89381 
L 327.578236 103.692717 
L 328.173014 323.47489 
L 328.377191 368.46305 
L 328.439332 368.896548 
L 328.501473 368.694834 
L 328.767791 366.62828 
L 329.282673 360.916153 
L 329.318182 360.453234 
L 329.335936 361.359758 
L 329.531236 365.483034 
L 329.628886 365.72178 
L 329.673273 365.670594 
L 329.815309 365.138486 
L 330.188155 362.625481 
L 332.3187 347.008012 
L 332.984495 344.100312 
L 333.526009 342.607918 
L 333.969873 341.95657 
L 334.342718 341.761981 
L 334.706686 341.825526 
L 335.203814 342.171356 
L 336.491018 343.14405 
L 337.121305 343.283483 
L 337.964645 343.217786 
L 340.1307 342.980499 
L 348.324423 343.024273 
L 435.845455 343.024104 
L 435.845455 343.024104 
" clip-path="url(#p8d43016231)" style="fill: none; stroke: #ff0000; stroke-width: 1.5; stroke-linecap: square"/>
   </g>
   <g id="patch_3">
    <path d="M 63 384.48 
L 63 51.84 
" style="fill: none; stroke: #000000; stroke-width: 0.8; stroke-linejoin: miter; stroke-linecap: square"/>
   </g>
   <g id="patch_4">
    <path d="M 453.6 384.48 
L 453.6 51.84 
" style="fill: none; stroke: #000000; stroke-width: 0.8; stroke-linejoin: miter; stroke-linecap: square"/>
   </g>
   <g id="patch_5">
    <path d="M 63 384.48 
L 453.6 384.48 
" style="fill: none; stroke: #000000; stroke-width: 0.8; stroke-linejoin: miter; stroke-linecap: square"/>
   </g>
   <g id="patch_6">
    <path d="M 63 51.84 
L 453.6 51.84 
" style="fill: none; stroke: #000000; stroke-width: 0.8; stroke-linejoin: miter; stroke-linecap: square"/>
   </g>
   <g id="legend_1">
    <g id="patch_7">
     <path d="M 383.460938 89.19625 
L 446.6 89.19625 
Q 448.6 89.19625 448.6 87.19625 
L 448.6 58.84 
Q 448.6 56.84 446.6 56.84 
L 383.460938 56.84 
Q 381.460938 56.84 381.460938 58.84 
L 381.460938 87.19625 
Q 381.460938 89.19625 383.460938 89.19625 
z
" style="fill: #ffffff; opacity: 0.8; stroke: #cccccc; stroke-linejoin: miter"/>
    </g>
    <g id="line2d_15">
     <path d="M 385.460938 64.938437 
L 395.460938 64.938437 
L 405.460938 64.938437 
" style="fill: none; stroke: #1f77b4; stroke-width: 1.5; stroke-linecap: square"/>
    </g>
    <g id="text_15">
     <!-- target -->
     <g transform="translate(413.460938 68.438437)scale(0.1 -0.1)">
      <defs>
       <path id="DejaVuSans-72" d="M 2631 2963 
Q 2534 3019 2420 3045 
Q 2306 3072 2169 3072 
Q 1681 3072 1420 2755 
Q 1159 2438 1159 1844 
L 1159 0 
L 581 0 
L 581 3500 
L 1159 3500 
L 1159 2956 
Q 1341 3275 1631 3429 
Q 1922 3584 2338 3584 
Q 2397 3584 2469 3576 
Q 2541 3569 2628 3553 
L 2631 2963 
z
" transform="scale(0.015625)"/>
      </defs>
      <use xlink:href="#DejaVuSans-74"/>
      <use xlink:href="#DejaVuSans-61" x="39.208984"/>
      <use xlink:href="#DejaVuSans-72" x="100.488281"/>
      <use xlink:href="#DejaVuSans-67" x="139.851562"/>
      <use xlink:href="#DejaVuSans-65" x="203.328125"/>
      <use xlink:href="#DejaVuSans-74" x="264.851562"/>
     </g>
    </g>
    <g id="line2d_16">
     <path d="M 385.460938 79.616562 
L 395.460938 79.616562 
L 405.460938 79.616562 
" style="fill: none; stroke: #ff0000; stroke-width: 1.5; stroke-linecap: square"/>
    </g>
    <g id="text_16">
     <!-- model -->
     <g transform="translate(413.460938 83.116562)scale(0.1 -0.1)">
      <defs>
       <path id="DejaVuSans-64" d="M 2906 2969 
L 2906 4863 
L 3481 4863 
L 3481 0 
L 2906 0 
L 2906 525 
Q 2725 213 2448 61 
Q 2172 -91 1784 -91 
Q 1150 -91 751 415 
Q 353 922 353 1747 
Q 353 2572 751 3078 
Q 1150 3584 1784 3584 
Q 2172 3584 2448 3432 
Q 2725 3281 2906 2969 
z
M 947 1747 
Q 947 1113 1208 752 
Q 1469 391 1925 391 
Q 2381 391 2643 752 
Q 2906 1113 2906 1747 
Q 2906 2381 2643 2742 
Q 2381 3103 1925 3103 
Q 1469 3103 1208 2742 
Q 947 2381 947 1747 
z
" transform="scale(0.015625)"/>
      </defs>
      <use xlink:href="#DejaVuSans-6d"/>
      <use xlink:href="#DejaVuSans-6f" x="97.412109"/>
      <use xlink:href="#DejaVuSans-64" x="158.59375"/>
      <use xlink:href="#DejaVuSans-65" x="222.070312"/>
      <use xlink:href="#DejaVuSans-6c" x="283.59375"/>
     </g>
    </g>
   </g>
  </g>
 </g>
 <defs>
  <clipPath id="p8d43016231">
   <rect x="63" y="51.84" width="390.6" height="332.64"/>
  </clipPath>
 </defs>
</svg>
