<?xml version="1.0" encoding="utf-8" standalone="no"?>
<!DOCTYPE svg PUBLIC "-//W3C//DTD SVG 1.1//EN"
  "http://www.w3.org/Graphics/SVG/1.1/DTD/svg11.dtd">
<svg xmlns:xlink="http://www.w3.org/1999/xlink" width="504pt" height="432pt" viewBox="0 0 504 432" xmlns="http://www.w3.org/2000/svg" version="1.1">
 <metadata>
  <rdf:RDF xmlns:dc="http://purl.org/dc/elements/1.1/" xmlns:cc="http://creativecommons.org/ns#" xmlns:rdf="http://www.w3.org/1999/02/22-rdf-syntax-ns#">
   <cc:Work>
    <dc:type rdf:resource="http://purl.org/dc/dcmitype/StillImage"/>
    <dc:date>2022-02-01T18:11:12.445240</dc:date>
    <dc:format>image/svg+xml</dc:format>
    <dc:creator>
     <cc:Agent>
      <dc:title>Matplotlib v3.5.1, https://matplotlib.org/</dc:title>
     </cc:Agent>
    </dc:creator>
   </cc:Work>
  </rdf:RDF>
 </metadata>
 <defs>
  <style type="text/css">*{stroke-linejoin: round; stroke-linecap: butt}</style>
 </defs>
 <g id="figure_1">
  <g id="patch_1">
   <path d="M 0 432 
L 504 432 
L 504 0 
L 0 0 
z
" style="fill: #ffffff"/>
  </g>
  <g id="axes_1">
   <g id="patch_2">
    <path d="M 63 384.48 
L 453.6 384.48 
L 453.6 51.84 
L 63 51.84 
z
" style="fill: #ffffff"/>
   </g>
   <g id="matplotlib.axis_1">
    <g id="xtick_1">
     <g id="line2d_1">
      <defs>
       <path id="m849918b8a1" d="M 0 0 
L 0 3.5 
" style="stroke: #000000; stroke-width: 0.8"/>
      </defs>
      <g>
       <use xlink:href="#m849918b8a1" x="80.754545" y="384.48" style="stroke: #000000; stroke-width: 0.8"/>
      </g>
     </g>
     <g id="text_1">
      <!-- 0 -->
      <g transform="translate(77.573295 399.078438)scale(0.1 -0.1)">
       <defs>
        <path id="DejaVuSans-30" d="M 2034 4250 
Q 1547 4250 1301 3770 
Q 1056 3291 1056 2328 
Q 1056 1369 1301 889 
Q 1547 409 2034 409 
Q 2525 409 2770 889 
Q 3016 1369 3016 2328 
Q 3016 3291 2770 3770 
Q 2525 4250 2034 4250 
z
M 2034 4750 
Q 2819 4750 3233 4129 
Q 3647 3509 3647 2328 
Q 3647 1150 3233 529 
Q 2819 -91 2034 -91 
Q 1250 -91 836 529 
Q 422 1150 422 2328 
Q 422 3509 836 4129 
Q 1250 4750 2034 4750 
z
" transform="scale(0.015625)"/>
       </defs>
       <use xlink:href="#DejaVuSans-30"/>
      </g>
     </g>
    </g>
    <g id="xtick_2">
     <g id="line2d_2">
      <g>
       <use xlink:href="#m849918b8a1" x="151.772727" y="384.48" style="stroke: #000000; stroke-width: 0.8"/>
      </g>
     </g>
     <g id="text_2">
      <!-- 200 -->
      <g transform="translate(142.228977 399.078438)scale(0.1 -0.1)">
       <defs>
        <path id="DejaVuSans-32" d="M 1228 531 
L 3431 531 
L 3431 0 
L 469 0 
L 469 531 
Q 828 903 1448 1529 
Q 2069 2156 2228 2338 
Q 2531 2678 2651 2914 
Q 2772 3150 2772 3378 
Q 2772 3750 2511 3984 
Q 2250 4219 1831 4219 
Q 1534 4219 1204 4116 
Q 875 4013 500 3803 
L 500 4441 
Q 881 4594 1212 4672 
Q 1544 4750 1819 4750 
Q 2544 4750 2975 4387 
Q 3406 4025 3406 3419 
Q 3406 3131 3298 2873 
Q 3191 2616 2906 2266 
Q 2828 2175 2409 1742 
Q 1991 1309 1228 531 
z
" transform="scale(0.015625)"/>
       </defs>
       <use xlink:href="#DejaVuSans-32"/>
       <use xlink:href="#DejaVuSans-30" x="63.623047"/>
       <use xlink:href="#DejaVuSans-30" x="127.246094"/>
      </g>
     </g>
    </g>
    <g id="xtick_3">
     <g id="line2d_3">
      <g>
       <use xlink:href="#m849918b8a1" x="222.790909" y="384.48" style="stroke: #000000; stroke-width: 0.8"/>
      </g>
     </g>
     <g id="text_3">
      <!-- 400 -->
      <g transform="translate(213.247159 399.078438)scale(0.1 -0.1)">
       <defs>
        <path id="DejaVuSans-34" d="M 2419 4116 
L 825 1625 
L 2419 1625 
L 2419 4116 
z
M 2253 4666 
L 3047 4666 
L 3047 1625 
L 3713 1625 
L 3713 1100 
L 3047 1100 
L 3047 0 
L 2419 0 
L 2419 1100 
L 313 1100 
L 313 1709 
L 2253 4666 
z
" transform="scale(0.015625)"/>
       </defs>
       <use xlink:href="#DejaVuSans-34"/>
       <use xlink:href="#DejaVuSans-30" x="63.623047"/>
       <use xlink:href="#DejaVuSans-30" x="127.246094"/>
      </g>
     </g>
    </g>
    <g id="xtick_4">
     <g id="line2d_4">
      <g>
       <use xlink:href="#m849918b8a1" x="293.809091" y="384.48" style="stroke: #000000; stroke-width: 0.8"/>
      </g>
     </g>
     <g id="text_4">
      <!-- 600 -->
      <g transform="translate(284.265341 399.078438)scale(0.1 -0.1)">
       <defs>
        <path id="DejaVuSans-36" d="M 2113 2584 
Q 1688 2584 1439 2293 
Q 1191 2003 1191 1497 
Q 1191 994 1439 701 
Q 1688 409 2113 409 
Q 2538 409 2786 701 
Q 3034 994 3034 1497 
Q 3034 2003 2786 2293 
Q 2538 2584 2113 2584 
z
M 3366 4563 
L 3366 3988 
Q 3128 4100 2886 4159 
Q 2644 4219 2406 4219 
Q 1781 4219 1451 3797 
Q 1122 3375 1075 2522 
Q 1259 2794 1537 2939 
Q 1816 3084 2150 3084 
Q 2853 3084 3261 2657 
Q 3669 2231 3669 1497 
Q 3669 778 3244 343 
Q 2819 -91 2113 -91 
Q 1303 -91 875 529 
Q 447 1150 447 2328 
Q 447 3434 972 4092 
Q 1497 4750 2381 4750 
Q 2619 4750 2861 4703 
Q 3103 4656 3366 4563 
z
" transform="scale(0.015625)"/>
       </defs>
       <use xlink:href="#DejaVuSans-36"/>
       <use xlink:href="#DejaVuSans-30" x="63.623047"/>
       <use xlink:href="#DejaVuSans-30" x="127.246094"/>
      </g>
     </g>
    </g>
    <g id="xtick_5">
     <g id="line2d_5">
      <g>
       <use xlink:href="#m849918b8a1" x="364.827273" y="384.48" style="stroke: #000000; stroke-width: 0.8"/>
      </g>
     </g>
     <g id="text_5">
      <!-- 800 -->
      <g transform="translate(355.283523 399.078438)scale(0.1 -0.1)">
       <defs>
        <path id="DejaVuSans-38" d="M 2034 2216 
Q 1584 2216 1326 1975 
Q 1069 1734 1069 1313 
Q 1069 891 1326 650 
Q 1584 409 2034 409 
Q 2484 409 2743 651 
Q 3003 894 3003 1313 
Q 3003 1734 2745 1975 
Q 2488 2216 2034 2216 
z
M 1403 2484 
Q 997 2584 770 2862 
Q 544 3141 544 3541 
Q 544 4100 942 4425 
Q 1341 4750 2034 4750 
Q 2731 4750 3128 4425 
Q 3525 4100 3525 3541 
Q 3525 3141 3298 2862 
Q 3072 2584 2669 2484 
Q 3125 2378 3379 2068 
Q 3634 1759 3634 1313 
Q 3634 634 3220 271 
Q 2806 -91 2034 -91 
Q 1263 -91 848 271 
Q 434 634 434 1313 
Q 434 1759 690 2068 
Q 947 2378 1403 2484 
z
M 1172 3481 
Q 1172 3119 1398 2916 
Q 1625 2713 2034 2713 
Q 2441 2713 2670 2916 
Q 2900 3119 2900 3481 
Q 2900 3844 2670 4047 
Q 2441 4250 2034 4250 
Q 1625 4250 1398 4047 
Q 1172 3844 1172 3481 
z
" transform="scale(0.015625)"/>
       </defs>
       <use xlink:href="#DejaVuSans-38"/>
       <use xlink:href="#DejaVuSans-30" x="63.623047"/>
       <use xlink:href="#DejaVuSans-30" x="127.246094"/>
      </g>
     </g>
    </g>
    <g id="text_6">
     <!-- time [ms] -->
     <g transform="translate(234.038281 412.756563)scale(0.1 -0.1)">
      <defs>
       <path id="DejaVuSans-74" d="M 1172 4494 
L 1172 3500 
L 2356 3500 
L 2356 3053 
L 1172 3053 
L 1172 1153 
Q 1172 725 1289 603 
Q 1406 481 1766 481 
L 2356 481 
L 2356 0 
L 1766 0 
Q 1100 0 847 248 
Q 594 497 594 1153 
L 594 3053 
L 172 3053 
L 172 3500 
L 594 3500 
L 594 4494 
L 1172 4494 
z
" transform="scale(0.015625)"/>
       <path id="DejaVuSans-69" d="M 603 3500 
L 1178 3500 
L 1178 0 
L 603 0 
L 603 3500 
z
M 603 4863 
L 1178 4863 
L 1178 4134 
L 603 4134 
L 603 4863 
z
" transform="scale(0.015625)"/>
       <path id="DejaVuSans-6d" d="M 3328 2828 
Q 3544 3216 3844 3400 
Q 4144 3584 4550 3584 
Q 5097 3584 5394 3201 
Q 5691 2819 5691 2113 
L 5691 0 
L 5113 0 
L 5113 2094 
Q 5113 2597 4934 2840 
Q 4756 3084 4391 3084 
Q 3944 3084 3684 2787 
Q 3425 2491 3425 1978 
L 3425 0 
L 2847 0 
L 2847 2094 
Q 2847 2600 2669 2842 
Q 2491 3084 2119 3084 
Q 1678 3084 1418 2786 
Q 1159 2488 1159 1978 
L 1159 0 
L 581 0 
L 581 3500 
L 1159 3500 
L 1159 2956 
Q 1356 3278 1631 3431 
Q 1906 3584 2284 3584 
Q 2666 3584 2933 3390 
Q 3200 3197 3328 2828 
z
" transform="scale(0.015625)"/>
       <path id="DejaVuSans-65" d="M 3597 1894 
L 3597 1613 
L 953 1613 
Q 991 1019 1311 708 
Q 1631 397 2203 397 
Q 2534 397 2845 478 
Q 3156 559 3463 722 
L 3463 178 
Q 3153 47 2828 -22 
Q 2503 -91 2169 -91 
Q 1331 -91 842 396 
Q 353 884 353 1716 
Q 353 2575 817 3079 
Q 1281 3584 2069 3584 
Q 2775 3584 3186 3129 
Q 3597 2675 3597 1894 
z
M 3022 2063 
Q 3016 2534 2758 2815 
Q 2500 3097 2075 3097 
Q 1594 3097 1305 2825 
Q 1016 2553 972 2059 
L 3022 2063 
z
" transform="scale(0.015625)"/>
       <path id="DejaVuSans-20" transform="scale(0.015625)"/>
       <path id="DejaVuSans-5b" d="M 550 4863 
L 1875 4863 
L 1875 4416 
L 1125 4416 
L 1125 -397 
L 1875 -397 
L 1875 -844 
L 550 -844 
L 550 4863 
z
" transform="scale(0.015625)"/>
       <path id="DejaVuSans-73" d="M 2834 3397 
L 2834 2853 
Q 2591 2978 2328 3040 
Q 2066 3103 1784 3103 
Q 1356 3103 1142 2972 
Q 928 2841 928 2578 
Q 928 2378 1081 2264 
Q 1234 2150 1697 2047 
L 1894 2003 
Q 2506 1872 2764 1633 
Q 3022 1394 3022 966 
Q 3022 478 2636 193 
Q 2250 -91 1575 -91 
Q 1294 -91 989 -36 
Q 684 19 347 128 
L 347 722 
Q 666 556 975 473 
Q 1284 391 1588 391 
Q 1994 391 2212 530 
Q 2431 669 2431 922 
Q 2431 1156 2273 1281 
Q 2116 1406 1581 1522 
L 1381 1569 
Q 847 1681 609 1914 
Q 372 2147 372 2553 
Q 372 3047 722 3315 
Q 1072 3584 1716 3584 
Q 2034 3584 2315 3537 
Q 2597 3491 2834 3397 
z
" transform="scale(0.015625)"/>
       <path id="DejaVuSans-5d" d="M 1947 4863 
L 1947 -844 
L 622 -844 
L 622 -397 
L 1369 -397 
L 1369 4416 
L 622 4416 
L 622 4863 
L 1947 4863 
z
" transform="scale(0.015625)"/>
      </defs>
      <use xlink:href="#DejaVuSans-74"/>
      <use xlink:href="#DejaVuSans-69" x="39.208984"/>
      <use xlink:href="#DejaVuSans-6d" x="66.992188"/>
      <use xlink:href="#DejaVuSans-65" x="164.404297"/>
      <use xlink:href="#DejaVuSans-20" x="225.927734"/>
      <use xlink:href="#DejaVuSans-5b" x="257.714844"/>
      <use xlink:href="#DejaVuSans-6d" x="296.728516"/>
      <use xlink:href="#DejaVuSans-73" x="394.140625"/>
      <use xlink:href="#DejaVuSans-5d" x="446.240234"/>
     </g>
    </g>
   </g>
   <g id="matplotlib.axis_2">
    <g id="ytick_1">
     <g id="line2d_6">
      <defs>
       <path id="me0921f07ce" d="M 0 0 
L -3.5 0 
" style="stroke: #000000; stroke-width: 0.8"/>
      </defs>
      <g>
       <use xlink:href="#me0921f07ce" x="63" y="379.657679" style="stroke: #000000; stroke-width: 0.8"/>
      </g>
     </g>
     <g id="text_7">
      <!-- −80 -->
      <g transform="translate(34.895313 383.456898)scale(0.1 -0.1)">
       <defs>
        <path id="DejaVuSans-2212" d="M 678 2272 
L 4684 2272 
L 4684 1741 
L 678 1741 
L 678 2272 
z
" transform="scale(0.015625)"/>
       </defs>
       <use xlink:href="#DejaVuSans-2212"/>
       <use xlink:href="#DejaVuSans-38" x="83.789062"/>
       <use xlink:href="#DejaVuSans-30" x="147.412109"/>
      </g>
     </g>
    </g>
    <g id="ytick_2">
     <g id="line2d_7">
      <g>
       <use xlink:href="#me0921f07ce" x="63" y="329.102609" style="stroke: #000000; stroke-width: 0.8"/>
      </g>
     </g>
     <g id="text_8">
      <!-- −60 -->
      <g transform="translate(34.895313 332.901827)scale(0.1 -0.1)">
       <use xlink:href="#DejaVuSans-2212"/>
       <use xlink:href="#DejaVuSans-36" x="83.789062"/>
       <use xlink:href="#DejaVuSans-30" x="147.412109"/>
      </g>
     </g>
    </g>
    <g id="ytick_3">
     <g id="line2d_8">
      <g>
       <use xlink:href="#me0921f07ce" x="63" y="278.547538" style="stroke: #000000; stroke-width: 0.8"/>
      </g>
     </g>
     <g id="text_9">
      <!-- −40 -->
      <g transform="translate(34.895313 282.346757)scale(0.1 -0.1)">
       <use xlink:href="#DejaVuSans-2212"/>
       <use xlink:href="#DejaVuSans-34" x="83.789062"/>
       <use xlink:href="#DejaVuSans-30" x="147.412109"/>
      </g>
     </g>
    </g>
    <g id="ytick_4">
     <g id="line2d_9">
      <g>
       <use xlink:href="#me0921f07ce" x="63" y="227.992468" style="stroke: #000000; stroke-width: 0.8"/>
      </g>
     </g>
     <g id="text_10">
      <!-- −20 -->
      <g transform="translate(34.895313 231.791687)scale(0.1 -0.1)">
       <use xlink:href="#DejaVuSans-2212"/>
       <use xlink:href="#DejaVuSans-32" x="83.789062"/>
       <use xlink:href="#DejaVuSans-30" x="147.412109"/>
      </g>
     </g>
    </g>
    <g id="ytick_5">
     <g id="line2d_10">
      <g>
       <use xlink:href="#me0921f07ce" x="63" y="177.437398" style="stroke: #000000; stroke-width: 0.8"/>
      </g>
     </g>
     <g id="text_11">
      <!-- 0 -->
      <g transform="translate(49.6375 181.236617)scale(0.1 -0.1)">
       <use xlink:href="#DejaVuSans-30"/>
      </g>
     </g>
    </g>
    <g id="ytick_6">
     <g id="line2d_11">
      <g>
       <use xlink:href="#me0921f07ce" x="63" y="126.882328" style="stroke: #000000; stroke-width: 0.8"/>
      </g>
     </g>
     <g id="text_12">
      <!-- 20 -->
      <g transform="translate(43.275 130.681547)scale(0.1 -0.1)">
       <use xlink:href="#DejaVuSans-32"/>
       <use xlink:href="#DejaVuSans-30" x="63.623047"/>
      </g>
     </g>
    </g>
    <g id="ytick_7">
     <g id="line2d_12">
      <g>
       <use xlink:href="#me0921f07ce" x="63" y="76.327258" style="stroke: #000000; stroke-width: 0.8"/>
      </g>
     </g>
     <g id="text_13">
      <!-- 40 -->
      <g transform="translate(43.275 80.126476)scale(0.1 -0.1)">
       <use xlink:href="#DejaVuSans-34"/>
       <use xlink:href="#DejaVuSans-30" x="63.623047"/>
      </g>
     </g>
    </g>
    <g id="text_14">
     <!-- voltage [mV] -->
     <g transform="translate(28.815625 250.624062)rotate(-90)scale(0.1 -0.1)">
      <defs>
       <path id="DejaVuSans-76" d="M 191 3500 
L 800 3500 
L 1894 563 
L 2988 3500 
L 3597 3500 
L 2284 0 
L 1503 0 
L 191 3500 
z
" transform="scale(0.015625)"/>
       <path id="DejaVuSans-6f" d="M 1959 3097 
Q 1497 3097 1228 2736 
Q 959 2375 959 1747 
Q 959 1119 1226 758 
Q 1494 397 1959 397 
Q 2419 397 2687 759 
Q 2956 1122 2956 1747 
Q 2956 2369 2687 2733 
Q 2419 3097 1959 3097 
z
M 1959 3584 
Q 2709 3584 3137 3096 
Q 3566 2609 3566 1747 
Q 3566 888 3137 398 
Q 2709 -91 1959 -91 
Q 1206 -91 779 398 
Q 353 888 353 1747 
Q 353 2609 779 3096 
Q 1206 3584 1959 3584 
z
" transform="scale(0.015625)"/>
       <path id="DejaVuSans-6c" d="M 603 4863 
L 1178 4863 
L 1178 0 
L 603 0 
L 603 4863 
z
" transform="scale(0.015625)"/>
       <path id="DejaVuSans-61" d="M 2194 1759 
Q 1497 1759 1228 1600 
Q 959 1441 959 1056 
Q 959 750 1161 570 
Q 1363 391 1709 391 
Q 2188 391 2477 730 
Q 2766 1069 2766 1631 
L 2766 1759 
L 2194 1759 
z
M 3341 1997 
L 3341 0 
L 2766 0 
L 2766 531 
Q 2569 213 2275 61 
Q 1981 -91 1556 -91 
Q 1019 -91 701 211 
Q 384 513 384 1019 
Q 384 1609 779 1909 
Q 1175 2209 1959 2209 
L 2766 2209 
L 2766 2266 
Q 2766 2663 2505 2880 
Q 2244 3097 1772 3097 
Q 1472 3097 1187 3025 
Q 903 2953 641 2809 
L 641 3341 
Q 956 3463 1253 3523 
Q 1550 3584 1831 3584 
Q 2591 3584 2966 3190 
Q 3341 2797 3341 1997 
z
" transform="scale(0.015625)"/>
       <path id="DejaVuSans-67" d="M 2906 1791 
Q 2906 2416 2648 2759 
Q 2391 3103 1925 3103 
Q 1463 3103 1205 2759 
Q 947 2416 947 1791 
Q 947 1169 1205 825 
Q 1463 481 1925 481 
Q 2391 481 2648 825 
Q 2906 1169 2906 1791 
z
M 3481 434 
Q 3481 -459 3084 -895 
Q 2688 -1331 1869 -1331 
Q 1566 -1331 1297 -1286 
Q 1028 -1241 775 -1147 
L 775 -588 
Q 1028 -725 1275 -790 
Q 1522 -856 1778 -856 
Q 2344 -856 2625 -561 
Q 2906 -266 2906 331 
L 2906 616 
Q 2728 306 2450 153 
Q 2172 0 1784 0 
Q 1141 0 747 490 
Q 353 981 353 1791 
Q 353 2603 747 3093 
Q 1141 3584 1784 3584 
Q 2172 3584 2450 3431 
Q 2728 3278 2906 2969 
L 2906 3500 
L 3481 3500 
L 3481 434 
z
" transform="scale(0.015625)"/>
       <path id="DejaVuSans-56" d="M 1831 0 
L 50 4666 
L 709 4666 
L 2188 738 
L 3669 4666 
L 4325 4666 
L 2547 0 
L 1831 0 
z
" transform="scale(0.015625)"/>
      </defs>
      <use xlink:href="#DejaVuSans-76"/>
      <use xlink:href="#DejaVuSans-6f" x="59.179688"/>
      <use xlink:href="#DejaVuSans-6c" x="120.361328"/>
      <use xlink:href="#DejaVuSans-74" x="148.144531"/>
      <use xlink:href="#DejaVuSans-61" x="187.353516"/>
      <use xlink:href="#DejaVuSans-67" x="248.632812"/>
      <use xlink:href="#DejaVuSans-65" x="312.109375"/>
      <use xlink:href="#DejaVuSans-20" x="373.632812"/>
      <use xlink:href="#DejaVuSans-5b" x="405.419922"/>
      <use xlink:href="#DejaVuSans-6d" x="444.433594"/>
      <use xlink:href="#DejaVuSans-56" x="541.845703"/>
      <use xlink:href="#DejaVuSans-5d" x="610.253906"/>
     </g>
    </g>
   </g>
   <g id="line2d_13">
    <path d="M 80.754545 341.741376 
L 81.979609 341.609427 
L 151.772727 341.674896 
L 152.314241 298.799647 
L 152.420768 251.964671 
L 152.562805 77.146755 
L 152.678209 101.430883 
L 153.565936 367.248431 
L 153.610323 367.151618 
L 153.8145 365.823789 
L 154.293873 361.246028 
L 154.959668 352.462337 
L 157.42755 315.010636 
L 157.613973 304.295236 
L 157.738255 283.142742 
L 157.835905 222.901825 
L 157.969064 100.606077 
L 158.031205 113.271639 
L 158.883423 366.839694 
L 158.945564 366.663004 
L 159.203005 364.757077 
L 159.717886 359.294097 
L 160.534595 347.80849 
L 161.8218 330.349297 
L 162.514227 320.36644 
L 162.771668 313.124173 
L 162.940336 301.576637 
L 163.064618 274.645445 
L 163.162268 193.370157 
L 163.268795 101.492308 
L 163.322059 110.653392 
L 163.863573 298.531705 
L 164.147645 366.669576 
L 164.183155 366.809108 
L 164.245295 366.63444 
L 164.493859 364.801313 
L 165.008741 359.35729 
L 165.834327 347.753132 
L 167.112655 330.421085 
L 167.813959 320.332315 
L 168.0714 313.080696 
L 168.240068 301.495243 
L 168.36435 274.408342 
L 168.462 192.652149 
L 168.568527 101.566371 
L 168.621791 110.86724 
L 169.172182 302.337238 
L 169.4385 366.586918 
L 169.482886 366.807086 
L 169.545027 366.628626 
L 169.802468 364.714864 
L 170.31735 359.234694 
L 171.151814 347.474827 
L 172.430141 330.187268 
L 173.113691 320.314621 
L 173.371132 313.04556 
L 173.5398 301.40298 
L 173.664082 274.082767 
L 173.761732 191.543451 
L 173.868259 101.582548 
L 173.921523 111.094485 
L 174.480791 306.257784 
L 174.729355 366.481511 
L 174.782618 366.807086 
L 174.844759 366.624582 
L 175.1022 364.707786 
L 175.617082 359.224331 
L 176.451545 347.462441 
L 177.729873 330.176904 
L 178.413423 320.298443 
L 178.670864 313.01093 
L 178.839532 301.309453 
L 178.963814 273.748598 
L 179.061464 190.402296 
L 179.167991 101.599232 
L 179.221255 111.324258 
L 179.7894 310.27767 
L 180.029086 366.493391 
L 180.08235 366.807338 
L 180.144491 366.620285 
L 180.401932 364.700709 
L 180.916814 359.21422 
L 181.751277 347.45056 
L 183.029605 330.166793 
L 183.713155 320.282013 
L 183.970595 312.976047 
L 184.139264 301.214915 
L 184.263545 273.406593 
L 184.361195 189.241072 
L 184.467723 101.622234 
L 184.520986 111.557569 
L 185.098009 314.386028 
L 185.328818 366.505019 
L 185.382082 366.807338 
L 185.444223 366.61624 
L 185.701664 364.693378 
L 186.216545 359.204109 
L 187.051009 347.438427 
L 188.329336 330.156682 
L 189.012886 320.265835 
L 189.270327 312.940911 
L 189.438995 301.118861 
L 189.563277 273.059533 
L 189.660927 188.075221 
L 189.767455 101.650798 
L 189.820718 111.793156 
L 190.406618 318.563899 
L 190.619673 366.376104 
L 190.681814 366.807086 
L 190.743955 366.611943 
L 191.010273 364.60794 
L 191.525155 359.083282 
L 192.368495 347.163407 
L 193.637945 330.03535 
L 194.312618 320.249152 
L 194.570059 312.905775 
L 194.738727 301.0223 
L 194.863009 272.709186 
L 194.969536 174.039718 
L 195.058309 101.637906 
L 195.12045 112.03127 
L 195.715227 322.786258 
L 195.919405 366.391017 
L 195.981545 366.807086 
L 196.043686 366.607646 
L 196.310005 364.60061 
L 196.833764 358.96195 
L 197.703736 346.62626 
L 198.955432 329.803049 
L 199.61235 320.232722 
L 199.869791 312.870134 
L 200.038459 300.924729 
L 200.162741 272.351762 
L 200.269268 172.823085 
L 200.358041 101.609595 
L 200.420182 112.273429 
L 201.023836 327.017465 
L 201.219136 366.405173 
L 201.281277 366.80658 
L 201.343418 366.603349 
L 201.609736 364.593279 
L 202.133495 358.951333 
L 202.994591 346.745064 
L 204.255164 329.792685 
L 204.912082 320.215786 
L 205.169523 312.833987 
L 205.338191 300.825641 
L 205.462473 271.987007 
L 205.569 171.598287 
L 205.657773 101.588109 
L 205.719914 112.517357 
L 206.332445 331.211261 
L 206.518868 366.419328 
L 206.581009 366.806327 
L 206.634273 366.643793 
L 206.873959 364.895851 
L 207.388841 359.49202 
L 208.187795 348.310249 
L 209.510509 330.336658 
L 210.202936 320.376551 
L 210.460377 313.175992 
L 210.629045 301.753327 
L 210.753327 275.326169 
L 210.850977 195.836082 
L 210.957505 101.573449 
L 211.019645 112.762297 
L 211.641055 335.315574 
L 211.827477 366.559618 
L 211.880741 366.805822 
L 211.934005 366.639748 
L 212.182568 364.81193 
L 212.69745 359.372457 
L 213.514159 347.903028 
L 214.810241 330.326294 
L 215.502668 320.36012 
L 215.760109 313.141362 
L 215.928777 301.660558 
L 216.053059 274.999331 
L 216.150709 194.700615 
L 216.257236 101.567382 
L 216.319377 113.00673 
L 216.949664 339.269233 
L 217.127209 366.569729 
L 217.171595 366.806327 
L 217.233736 366.635704 
L 217.4823 364.804852 
L 217.997182 359.362346 
L 218.822768 347.759199 
L 220.101095 330.426646 
L 220.8024 320.34369 
L 221.059841 313.106984 
L 221.228509 301.568042 
L 221.352791 274.671228 
L 221.450441 193.565704 
L 221.556968 101.567887 
L 221.610232 110.689033 
L 222.151745 298.58504 
L 222.426941 366.579335 
L 222.471327 366.80658 
L 222.533468 366.631659 
L 222.782032 364.797774 
L 223.296914 359.352235 
L 224.1225 347.746813 
L 225.418582 330.195104 
L 226.111009 320.149053 
L 226.36845 312.690158 
L 226.537118 300.42752 
L 226.652523 274.340598 
L 226.750173 192.426269 
L 226.8567 101.573701 
L 226.909964 110.917795 
L 227.460355 302.409784 
L 227.726673 366.588688 
L 227.771059 366.807086 
L 227.8332 366.627615 
L 228.090641 364.713095 
L 228.605523 359.232167 
L 229.439986 347.471793 
L 230.718314 330.18474 
L 231.401864 320.310829 
L 231.659305 313.037471 
L 231.827973 301.381747 
L 231.952255 274.007693 
L 232.049905 191.286631 
L 232.156432 101.586087 
L 232.209695 111.146304 
L 232.768964 306.333363 
L 233.017527 366.484291 
L 233.070791 366.807086 
L 233.132932 366.623571 
L 233.390373 364.706017 
L 233.905255 359.222056 
L 234.739718 347.45966 
L 236.018045 330.174629 
L 236.701595 320.294652 
L 236.959036 313.003094 
L 237.127705 301.28822 
L 237.251986 273.671755 
L 237.349636 190.140472 
L 237.456164 101.603782 
L 237.509427 111.377088 
L 238.077573 310.355525 
L 238.317259 366.495919 
L 238.370523 366.807338 
L 238.432664 366.619526 
L 238.690105 364.698939 
L 239.204986 359.211945 
L 240.03945 347.44778 
L 241.317777 330.164518 
L 242.001327 320.278474 
L 242.258768 312.968211 
L 242.427436 301.193177 
L 242.551718 273.32798 
L 242.649368 188.976542 
L 242.755895 101.628301 
L 242.809159 111.610905 
L 243.386182 314.465652 
L 243.616991 366.507547 
L 243.670255 366.807338 
L 243.732395 366.615229 
L 243.989836 364.691861 
L 244.504718 359.201834 
L 245.348059 347.304203 
L 246.617509 330.154154 
L 247.301059 320.262044 
L 247.5585 312.933075 
L 247.727168 301.096869 
L 247.85145 272.980414 
L 247.9491 187.809554 
L 248.055627 101.658381 
L 248.108891 111.846997 
L 248.694791 318.645292 
L 248.907845 366.379642 
L 248.969986 366.807086 
L 249.032127 366.611185 
L 249.298445 364.606423 
L 249.822205 358.970039 
L 250.692177 346.635865 
L 251.943873 329.811138 
L 252.600791 320.24536 
L 252.858232 312.897686 
L 253.0269 301.000056 
L 253.151182 272.628298 
L 253.257709 173.762727 
L 253.346482 101.630829 
L 253.408623 112.086375 
L 254.0034 322.869168 
L 254.207577 366.394303 
L 254.269718 366.806833 
L 254.331859 366.606887 
L 254.598177 364.599093 
L 255.121936 358.959422 
L 255.983032 346.75467 
L 257.22585 330.022711 
L 257.900523 320.22893 
L 258.157964 312.862045 
L 258.326632 300.902232 
L 258.450914 272.269104 
L 258.557441 172.543591 
L 258.646214 101.604034 
L 258.708355 112.329292 
L 259.312009 327.100375 
L 259.507309 366.408459 
L 259.56945 366.80658 
L 259.631591 366.602338 
L 259.897909 364.59151 
L 260.421668 358.949058 
L 261.291641 346.611346 
L 262.525582 330.012347 
L 263.200255 320.211994 
L 263.457695 312.825898 
L 263.626364 300.802891 
L 263.750645 271.903086 
L 263.857173 171.318288 
L 263.945945 101.584065 
L 264.008086 112.573221 
L 264.620618 331.292907 
L 264.807041 366.422614 
L 264.869182 366.806074 
L 264.922445 366.643034 
L 265.171009 364.817491 
L 265.685891 359.380546 
L 266.511477 347.780938 
L 267.807559 330.223667 
L 268.499986 320.195311 
L 268.757427 312.789751 
L 268.926095 300.703551 
L 269.050377 271.537067 
L 269.156905 170.10211 
L 269.245677 101.571426 
L 269.298941 110.285857 
L 269.8227 291.304858 
L 270.133405 366.722153 
L 270.168914 366.805822 
L 270.222177 366.63899 
L 270.470741 364.810413 
L 270.985623 359.370182 
L 271.802332 347.900248 
L 273.098414 330.324019 
L 273.790841 320.356329 
L 274.048282 313.133526 
L 274.21695 301.639578 
L 274.341232 274.924509 
L 274.438882 194.440863 
L 274.545409 101.567129 
L 274.598673 110.513102 
L 275.131309 294.932437 
L 275.424259 366.662498 
L 275.459768 366.806327 
L 275.521909 366.634946 
L 275.770473 364.803335 
L 276.285355 359.360071 
L 277.110941 347.756418 
L 278.389268 330.424371 
L 279.090573 320.339898 
L 279.348014 313.098896 
L 279.516682 301.546809 
L 279.640964 274.595901 
L 279.738614 193.305851 
L 279.845141 101.568393 
L 279.898405 110.741358 
L 280.439918 298.658093 
L 280.715114 366.581357 
L 280.7595 366.806833 
L 280.821641 366.630901 
L 281.079082 364.718656 
L 281.593964 359.240003 
L 282.428427 347.481146 
L 283.706755 330.192576 
L 284.390305 320.323468 
L 284.647745 313.064265 
L 284.816414 301.453788 
L 284.940695 274.264766 
L 285.038345 192.166314 
L 285.144873 101.575976 
L 285.198136 110.969867 
L 285.748527 302.483848 
L 286.014845 366.59071 
L 286.059232 366.807086 
L 286.121373 366.626604 
L 286.378814 364.711578 
L 286.902573 359.119429 
L 287.754791 347.074936 
L 289.006486 330.182465 
L 289.690036 320.30729 
L 289.947477 313.029635 
L 290.116145 301.360514 
L 290.240427 273.931355 
L 290.338077 191.025817 
L 290.444605 101.589626 
L 290.497868 111.198628 
L 291.057136 306.409701 
L 291.3057 366.487072 
L 291.358964 366.807338 
L 291.421105 366.62256 
L 291.678545 364.7045 
L 292.193427 359.219781 
L 293.027891 347.45688 
L 294.315095 330.061386 
L 294.989768 320.29086 
L 295.247209 312.995005 
L 295.415877 301.266734 
L 295.540159 273.5939 
L 295.637809 189.875892 
L 295.744336 101.608837 
L 295.7976 111.430171 
L 296.365745 310.433885 
L 296.605432 366.4987 
L 296.658695 366.807338 
L 296.720836 366.618515 
L 296.978277 364.697422 
L 297.493159 359.20967 
L 298.327623 347.444999 
L 299.60595 330.162243 
L 300.2895 320.274682 
L 300.546941 312.960122 
L 300.715609 301.171185 
L 300.839891 273.249114 
L 300.937541 188.711634 
L 301.044068 101.63462 
L 301.097332 111.664241 
L 301.674355 314.545276 
L 301.905164 366.510075 
L 301.958427 366.807338 
L 302.020568 366.614471 
L 302.286886 364.611984 
L 302.810645 358.977875 
L 303.671741 346.776408 
L 304.914559 330.041164 
L 305.589232 320.258252 
L 305.846673 312.924986 
L 306.015341 301.07513 
L 306.139623 272.901043 
L 306.24615 174.698451 
L 306.334923 101.655853 
L 306.397064 111.901091 
L 306.982964 318.726686 
L 307.196018 366.382929 
L 307.258159 366.807086 
L 307.3203 366.610174 
L 307.586618 364.604654 
L 308.110377 358.967511 
L 308.971473 346.764275 
L 310.214291 330.0308 
L 310.888964 320.241821 
L 311.146405 312.889598 
L 311.315073 300.978065 
L 311.439355 272.547157 
L 311.545882 173.486721 
L 311.634655 101.624256 
L 311.696795 112.141228 
L 312.291573 322.951573 
L 312.49575 366.397589 
L 312.557891 366.806833 
L 312.620032 366.605876 
L 312.88635 364.597323 
L 313.410109 358.957147 
L 314.280082 346.620699 
L 315.531777 329.798246 
L 316.188695 320.224886 
L 316.446136 312.853704 
L 316.614805 300.879735 
L 316.739086 272.186699 
L 316.845614 172.265159 
L 316.934386 101.598979 
L 316.996527 112.38465 
L 317.600182 327.183033 
L 317.795482 366.411745 
L 317.857623 366.80658 
L 317.910886 366.646068 
L 318.15945 364.823052 
L 318.674332 359.388382 
L 319.491041 347.921986 
L 320.796 330.231503 
L 321.488427 320.208202 
L 321.745868 312.817557 
L 321.914536 300.780142 
L 322.038818 271.819417 
L 322.145345 171.039629 
L 322.234118 101.580526 
L 322.296259 112.629084 
L 322.908791 331.374301 
L 323.095214 366.4259 
L 323.157355 366.806074 
L 323.210618 366.642023 
L 323.459182 364.815974 
L 323.974064 359.378018 
L 324.790773 347.9096 
L 326.095732 330.22114 
L 326.779282 320.368967 
L 327.036723 313.16032 
L 327.205391 301.711113 
L 327.329673 275.177285 
L 327.427323 195.318398 
L 327.53385 101.569657 
L 327.595991 112.873771 
L 328.2174 335.4728 
L 328.403823 366.564168 
L 328.457086 366.805569 
L 328.51035 366.637979 
L 328.758914 364.808644 
L 329.273795 359.367907 
L 329.318182 358.814076 
L 329.335936 359.682107 
L 329.531236 363.53137 
L 329.620009 363.71261 
L 329.664395 363.657252 
L 329.815309 363.071824 
L 330.214786 360.354236 
L 332.176664 346.117676 
L 332.869091 343.009297 
L 333.428359 341.412263 
L 333.889977 340.695392 
L 334.262823 340.476488 
L 334.617914 340.515163 
L 335.106164 340.826582 
L 336.562036 341.845267 
L 337.218955 341.935002 
L 338.124436 341.824539 
L 339.917645 341.629649 
L 435.845455 341.674896 
L 435.845455 341.674896 
" clip-path="url(#paa2bb1cc3c)" style="fill: none; stroke: #1f77b4; stroke-width: 1.5; stroke-linecap: square"/>
   </g>
   <g id="line2d_14">
    <path d="M 80.754545 341.741376 
L 81.171777 340.020647 
L 81.633395 338.860589 
L 81.9441 338.576315 
L 82.157155 338.653615 
L 82.405718 339.03233 
L 82.840705 340.216248 
L 83.453236 341.695718 
L 83.781695 341.991622 
L 84.065768 341.959443 
L 84.447491 341.650385 
L 85.876732 340.292821 
L 86.293964 340.300599 
L 86.8266 340.56035 
L 87.829732 341.058365 
L 88.406755 341.06358 
L 89.489782 340.775552 
L 90.342 340.688294 
L 91.646959 340.845515 
L 92.845391 340.862804 
L 95.473064 340.813496 
L 98.651127 340.81017 
L 151.772727 340.817493 
L 152.198836 306.619707 
L 152.287609 259.725681 
L 152.403014 66.96 
L 152.527295 86.187143 
L 152.988914 231.800819 
L 153.432777 369.36 
L 153.548182 369.004177 
L 153.956536 366.810795 
L 154.444786 362.846484 
L 155.110582 355.346728 
L 157.196741 328.025259 
L 157.400918 320.679298 
L 157.534077 307.120441 
L 157.62285 273.186031 
L 157.711623 104.117093 
L 157.764886 73.462586 
L 157.835905 83.576654 
L 158.1111 170.459261 
L 158.750264 369.288058 
L 158.812405 369.131796 
L 159.167495 367.352554 
L 159.637991 363.813298 
L 160.250523 357.268425 
L 162.4077 329.963693 
L 162.656264 323.109301 
L 162.807177 312.015762 
L 162.904827 287.429057 
L 162.975845 207.482485 
L 163.064618 73.563085 
L 163.135636 82.481507 
L 163.393077 162.791027 
L 164.058873 369.283875 
L 164.103259 369.177946 
L 164.422841 367.638278 
L 164.884459 364.319118 
L 165.470359 358.266383 
L 167.592027 332.00408 
L 167.893855 325.56641 
L 168.0714 316.277106 
L 168.186805 296.346869 
L 168.2667 233.324873 
L 168.373227 73.541792 
L 168.453123 85.450525 
L 168.772705 188.040422 
L 169.358605 369.284695 
L 169.429623 369.095488 
L 169.802468 367.185881 
L 170.272964 363.566043 
L 170.894373 356.832725 
L 173.042673 329.43913 
L 173.273482 322.708478 
L 173.424395 310.797311 
L 173.522045 282.650223 
L 173.593064 185.704787 
L 173.672959 73.563679 
L 173.7351 80.708057 
L 173.957032 147.674595 
L 174.667214 369.283621 
L 174.7116 369.177129 
L 175.031182 367.636957 
L 175.4928 364.317134 
L 176.0787 358.26369 
L 178.200368 332.000656 
L 178.502195 325.559541 
L 178.679741 316.25813 
L 178.795145 296.275738 
L 178.875041 232.968925 
L 178.981568 73.544583 
L 179.061464 85.500021 
L 179.381045 188.110438 
L 179.966945 369.284704 
L 180.037964 369.094646 
L 180.410809 367.184536 
L 180.881305 363.564056 
L 181.502714 356.830099 
L 183.651014 329.43482 
L 183.881823 322.698752 
L 184.032736 310.766974 
L 184.130386 282.527205 
L 184.201405 185.156042 
L 184.2813 73.559061 
L 184.343441 80.749841 
L 184.565373 147.747547 
L 185.275555 369.283497 
L 185.319941 369.176395 
L 185.639523 367.635737 
L 186.101141 364.315301 
L 186.687041 358.261202 
L 188.808709 331.997359 
L 189.110536 325.552787 
L 189.288082 316.239283 
L 189.403486 296.204578 
L 189.483382 232.610936 
L 189.589909 73.547427 
L 189.669805 85.549378 
L 189.989386 188.179985 
L 190.575286 369.28471 
L 190.646305 369.093816 
L 191.01915 367.183211 
L 191.489645 363.5621 
L 192.111055 356.827513 
L 194.259355 329.430562 
L 194.490164 322.689131 
L 194.641077 310.736936 
L 194.738727 282.405001 
L 194.809745 184.61055 
L 194.889641 73.554989 
L 194.951782 80.791311 
L 195.173714 147.81982 
L 195.883895 369.283365 
L 195.928282 369.175665 
L 196.247864 367.634525 
L 196.709482 364.313481 
L 197.295382 358.258732 
L 199.41705 331.994089 
L 199.718877 325.54609 
L 199.896423 316.220591 
L 200.011827 296.13397 
L 200.091723 232.254541 
L 200.19825 73.550516 
L 200.278145 85.598643 
L 200.597727 188.249354 
L 201.183627 369.28471 
L 201.254645 369.092987 
L 201.627491 367.181889 
L 202.097986 363.560147 
L 202.719395 356.824933 
L 204.867695 329.426307 
L 205.098505 322.679516 
L 205.249418 310.706906 
L 205.347068 282.281923 
L 205.418086 184.059932 
L 205.497982 73.551167 
L 205.560123 80.833178 
L 205.790932 150.938018 
L 206.492236 369.283222 
L 206.536623 369.174926 
L 206.856205 367.633302 
L 207.317823 364.311645 
L 207.903723 358.25624 
L 210.025391 331.990783 
L 210.327218 325.539315 
L 210.504764 316.201607 
L 210.620168 296.062064 
L 210.700064 231.890932 
L 210.806591 73.553852 
L 210.886486 85.648446 
L 211.206068 188.319293 
L 211.791968 369.284709 
L 211.862986 369.092154 
L 212.235832 367.18056 
L 212.706327 363.558183 
L 213.327736 356.822337 
L 215.476036 329.422009 
L 215.706845 322.6698 
L 215.857759 310.676539 
L 215.955409 282.157399 
L 216.026427 183.502983 
L 216.106323 73.547759 
L 216.168464 80.875628 
L 216.399273 151.011737 
L 217.0917 369.283286 
L 217.144964 369.174173 
L 217.464545 367.632057 
L 217.926164 364.309776 
L 218.512064 358.253703 
L 220.633732 331.987414 
L 220.935559 325.53241 
L 221.113105 316.18224 
L 221.228509 295.988481 
L 221.308405 231.518304 
L 221.414932 73.557528 
L 221.494827 85.698793 
L 221.814409 188.389817 
L 222.400309 369.284704 
L 222.471327 369.091317 
L 222.844173 367.179225 
L 223.314668 363.556211 
L 223.936077 356.819732 
L 226.084377 329.417691 
L 226.315186 322.660033 
L 226.4661 310.645997 
L 226.56375 282.032087 
L 226.634768 182.944474 
L 226.714664 73.544828 
L 226.776805 80.918253 
L 227.007614 151.085622 
L 227.700041 369.283426 
L 227.753305 369.173417 
L 228.081764 367.579364 
L 228.543382 364.230768 
L 229.129282 358.146676 
L 231.259827 331.703927 
L 231.552777 325.235646 
L 231.721445 316.162805 
L 231.83685 295.914439 
L 231.916745 231.141895 
L 232.023273 73.561549 
L 232.103168 85.749678 
L 232.42275 188.461059 
L 233.00865 369.28469 
L 233.079668 369.090469 
L 233.452514 367.177874 
L 233.923009 363.554217 
L 234.544418 356.817097 
L 236.692718 329.413328 
L 236.923527 322.650161 
L 237.074441 310.615114 
L 237.172091 281.905318 
L 237.243109 182.380049 
L 237.323005 73.54237 
L 237.385145 80.961408 
L 237.615955 151.160297 
L 238.308382 369.283556 
L 238.361645 369.172647 
L 238.690105 367.578084 
L 239.151723 364.228851 
L 239.737623 358.144084 
L 241.868168 331.700421 
L 242.161118 325.228365 
L 242.329786 316.143095 
L 242.445191 295.839245 
L 242.525086 230.758704 
L 242.631614 73.565931 
L 242.711509 85.801618 
L 243.039968 191.431137 
L 243.616991 369.284669 
L 243.696886 369.054402 
L 244.087486 367.008587 
L 244.566859 363.221985 
L 245.2149 356.054903 
L 247.345445 328.469075 
L 247.5585 321.333018 
L 247.700536 307.771699 
L 247.789309 276.024348 
L 247.869205 133.455281 
L 247.931345 73.540139 
L 247.993486 81.005161 
L 248.224295 151.235729 
L 248.916723 369.283684 
L 248.969986 369.171874 
L 249.298445 367.5768 
L 249.760064 364.226929 
L 250.345964 358.141486 
L 252.476509 331.696901 
L 252.769459 325.221047 
L 252.938127 316.123273 
L 253.053532 295.763572 
L 253.133427 230.372972 
L 253.239955 73.570627 
L 253.310973 83.829819 
L 253.595045 173.896859 
L 254.225332 369.284639 
L 254.287473 369.122889 
L 254.651441 367.284666 
L 255.121936 363.712344 
L 255.734468 357.134016 
L 257.891645 329.754845 
L 258.131332 323.025097 
L 258.282245 311.768459 
L 258.379895 286.496924 
L 258.450914 203.225253 
L 258.539686 73.538019 
L 258.601827 81.049206 
L 258.832636 151.311502 
L 259.525064 369.28381 
L 259.578327 369.171105 
L 259.906786 367.575521 
L 260.368405 364.225014 
L 260.954305 358.138898 
L 263.08485 331.69339 
L 263.3778 325.213731 
L 263.546468 316.103417 
L 263.661873 295.687709 
L 263.741768 229.985194 
L 263.848295 73.575581 
L 263.919314 83.878793 
L 264.203386 173.97098 
L 264.833673 369.284601 
L 264.895814 369.122056 
L 265.259782 367.283317 
L 265.730277 363.710342 
L 266.342809 357.131357 
L 268.499986 329.750552 
L 268.739673 323.015447 
L 268.890586 311.739452 
L 268.988236 286.385995 
L 269.059255 202.718611 
L 269.148027 73.536407 
L 269.210168 81.09305 
L 269.440977 151.386812 
L 270.133405 369.283927 
L 270.186668 369.170335 
L 270.515127 367.574243 
L 270.976745 364.223101 
L 271.562645 358.136312 
L 273.693191 331.689885 
L 273.986141 325.206417 
L 274.154809 316.083537 
L 274.270214 295.611711 
L 274.350109 229.595932 
L 274.456636 73.580968 
L 274.527655 83.927563 
L 274.811727 174.044663 
L 275.442014 369.284555 
L 275.504155 369.121224 
L 275.868123 367.281973 
L 276.338618 363.708346 
L 276.95115 357.128706 
L 279.108327 329.746278 
L 279.348014 323.005838 
L 279.498927 311.710562 
L 279.596577 286.275465 
L 279.667595 202.213656 
L 279.756368 73.535265 
L 279.818509 81.136681 
L 280.049318 151.461608 
L 280.741745 369.284034 
L 280.795009 369.169566 
L 281.123468 367.572968 
L 281.585086 364.221192 
L 282.170986 358.133733 
L 284.301532 331.686391 
L 284.594482 325.199127 
L 284.76315 316.06372 
L 284.878555 295.535913 
L 284.95845 229.20733 
L 285.064977 73.586603 
L 285.135995 83.976428 
L 285.420068 174.118419 
L 286.050355 369.284502 
L 286.112495 369.120392 
L 286.476464 367.280627 
L 286.946959 363.706348 
L 287.559491 357.126052 
L 289.716668 329.742003 
L 289.956355 322.996228 
L 290.107268 311.681545 
L 290.204918 286.164251 
L 290.275936 201.705206 
L 290.364709 73.534548 
L 290.42685 81.18053 
L 290.657659 151.536648 
L 291.350086 369.284133 
L 291.40335 369.168792 
L 291.731809 367.571688 
L 292.193427 364.219275 
L 292.779327 358.131142 
L 294.909873 331.682882 
L 295.202823 325.191803 
L 295.371491 316.043746 
L 295.486895 295.459442 
L 295.566791 228.814249 
L 295.673318 73.592495 
L 295.744336 84.025811 
L 296.028409 174.192844 
L 296.658695 369.284443 
L 296.720836 369.119551 
L 297.084805 367.27927 
L 297.5553 363.704334 
L 298.167832 357.123377 
L 300.325009 329.737692 
L 300.564695 322.986533 
L 300.715609 311.652226 
L 300.813259 286.051776 
L 300.884277 201.189201 
L 300.97305 73.534018 
L 301.035191 81.224951 
L 301.266 151.612519 
L 301.958427 369.284229 
L 302.011691 369.16801 
L 302.34015 367.570394 
L 302.801768 364.217339 
L 303.387668 358.128526 
L 305.518214 331.679336 
L 305.811164 325.184397 
L 305.979832 316.023481 
L 306.095236 295.38177 
L 306.175132 228.415437 
L 306.281659 73.59878 
L 306.352677 84.075747 
L 306.63675 174.267974 
L 307.267036 369.284378 
L 307.329177 369.118702 
L 307.693145 367.277898 
L 308.163641 363.702298 
L 308.776173 357.120675 
L 310.93335 329.733337 
L 311.173036 322.976735 
L 311.32395 311.622581 
L 311.4216 285.937993 
L 311.492618 200.66629 
L 311.581391 73.533814 
L 311.643532 81.269807 
L 311.874341 151.688943 
L 312.566768 369.284319 
L 312.620032 369.167224 
L 312.948491 367.569094 
L 313.410109 364.215393 
L 313.996009 358.125897 
L 316.126555 331.675772 
L 316.419505 325.176949 
L 316.588173 316.00309 
L 316.703577 295.303566 
L 316.783473 228.012327 
L 316.89 73.605527 
L 316.961018 84.125906 
L 317.245091 174.343345 
L 317.875377 369.284299 
L 317.937518 369.117847 
L 318.301486 367.27652 
L 318.771982 363.700252 
L 319.384514 357.117958 
L 321.541691 329.728962 
L 321.781377 322.966893 
L 321.932291 311.592788 
L 322.029941 285.823319 
L 322.100959 200.138327 
L 322.189732 73.53391 
L 322.251873 81.315042 
L 322.482682 151.765867 
L 323.175109 369.284403 
L 323.228373 369.166431 
L 323.556832 367.567785 
L 324.01845 364.213435 
L 324.60435 358.123251 
L 326.734895 331.672184 
L 327.027845 325.169452 
L 327.196514 315.982554 
L 327.311918 295.224764 
L 327.391814 227.605668 
L 327.489464 73.60002 
L 327.569359 84.176105 
L 327.853432 174.418591 
L 328.483718 369.284217 
L 328.545859 369.116993 
L 328.909827 367.275145 
L 329.318182 364.251093 
L 329.335936 365.0404 
L 329.442464 366.347098 
L 329.477973 366.2904 
L 329.637764 365.451782 
L 330.223664 360.929583 
L 332.150032 345.354785 
L 332.913477 341.267284 
L 333.499377 339.183637 
L 333.8811 338.523878 
L 334.120786 338.46041 
L 334.333841 338.662324 
L 334.626791 339.313554 
L 335.665432 341.948857 
L 335.949505 342.079286 
L 336.242455 341.95425 
L 336.71295 341.456016 
L 337.716082 340.368059 
L 338.142191 340.243658 
L 338.5683 340.357252 
L 340.326 341.094717 
L 341.071691 340.916368 
L 342.172473 340.682901 
L 343.086832 340.757025 
L 344.604845 340.880327 
L 349.79805 340.816698 
L 356.855482 340.818374 
L 435.845455 340.817493 
L 435.845455 340.817493 
" clip-path="url(#paa2bb1cc3c)" style="fill: none; stroke: #ff0000; stroke-width: 1.5; stroke-linecap: square"/>
   </g>
   <g id="patch_3">
    <path d="M 63 384.48 
L 63 51.84 
" style="fill: none; stroke: #000000; stroke-width: 0.8; stroke-linejoin: miter; stroke-linecap: square"/>
   </g>
   <g id="patch_4">
    <path d="M 453.6 384.48 
L 453.6 51.84 
" style="fill: none; stroke: #000000; stroke-width: 0.8; stroke-linejoin: miter; stroke-linecap: square"/>
   </g>
   <g id="patch_5">
    <path d="M 63 384.48 
L 453.6 384.48 
" style="fill: none; stroke: #000000; stroke-width: 0.8; stroke-linejoin: miter; stroke-linecap: square"/>
   </g>
   <g id="patch_6">
    <path d="M 63 51.84 
L 453.6 51.84 
" style="fill: none; stroke: #000000; stroke-width: 0.8; stroke-linejoin: miter; stroke-linecap: square"/>
   </g>
   <g id="legend_1">
    <g id="patch_7">
     <path d="M 383.460938 89.19625 
L 446.6 89.19625 
Q 448.6 89.19625 448.6 87.19625 
L 448.6 58.84 
Q 448.6 56.84 446.6 56.84 
L 383.460938 56.84 
Q 381.460938 56.84 381.460938 58.84 
L 381.460938 87.19625 
Q 381.460938 89.19625 383.460938 89.19625 
z
" style="fill: #ffffff; opacity: 0.8; stroke: #cccccc; stroke-linejoin: miter"/>
    </g>
    <g id="line2d_15">
     <path d="M 385.460938 64.938437 
L 395.460938 64.938437 
L 405.460938 64.938437 
" style="fill: none; stroke: #1f77b4; stroke-width: 1.5; stroke-linecap: square"/>
    </g>
    <g id="text_15">
     <!-- target -->
     <g transform="translate(413.460938 68.438437)scale(0.1 -0.1)">
      <defs>
       <path id="DejaVuSans-72" d="M 2631 2963 
Q 2534 3019 2420 3045 
Q 2306 3072 2169 3072 
Q 1681 3072 1420 2755 
Q 1159 2438 1159 1844 
L 1159 0 
L 581 0 
L 581 3500 
L 1159 3500 
L 1159 2956 
Q 1341 3275 1631 3429 
Q 1922 3584 2338 3584 
Q 2397 3584 2469 3576 
Q 2541 3569 2628 3553 
L 2631 2963 
z
" transform="scale(0.015625)"/>
      </defs>
      <use xlink:href="#DejaVuSans-74"/>
      <use xlink:href="#DejaVuSans-61" x="39.208984"/>
      <use xlink:href="#DejaVuSans-72" x="100.488281"/>
      <use xlink:href="#DejaVuSans-67" x="139.851562"/>
      <use xlink:href="#DejaVuSans-65" x="203.328125"/>
      <use xlink:href="#DejaVuSans-74" x="264.851562"/>
     </g>
    </g>
    <g id="line2d_16">
     <path d="M 385.460938 79.616562 
L 395.460938 79.616562 
L 405.460938 79.616562 
" style="fill: none; stroke: #ff0000; stroke-width: 1.5; stroke-linecap: square"/>
    </g>
    <g id="text_16">
     <!-- model -->
     <g transform="translate(413.460938 83.116562)scale(0.1 -0.1)">
      <defs>
       <path id="DejaVuSans-64" d="M 2906 2969 
L 2906 4863 
L 3481 4863 
L 3481 0 
L 2906 0 
L 2906 525 
Q 2725 213 2448 61 
Q 2172 -91 1784 -91 
Q 1150 -91 751 415 
Q 353 922 353 1747 
Q 353 2572 751 3078 
Q 1150 3584 1784 3584 
Q 2172 3584 2448 3432 
Q 2725 3281 2906 2969 
z
M 947 1747 
Q 947 1113 1208 752 
Q 1469 391 1925 391 
Q 2381 391 2643 752 
Q 2906 1113 2906 1747 
Q 2906 2381 2643 2742 
Q 2381 3103 1925 3103 
Q 1469 3103 1208 2742 
Q 947 2381 947 1747 
z
" transform="scale(0.015625)"/>
      </defs>
      <use xlink:href="#DejaVuSans-6d"/>
      <use xlink:href="#DejaVuSans-6f" x="97.412109"/>
      <use xlink:href="#DejaVuSans-64" x="158.59375"/>
      <use xlink:href="#DejaVuSans-65" x="222.070312"/>
      <use xlink:href="#DejaVuSans-6c" x="283.59375"/>
     </g>
    </g>
   </g>
  </g>
 </g>
 <defs>
  <clipPath id="paa2bb1cc3c">
   <rect x="63" y="51.84" width="390.6" height="332.64"/>
  </clipPath>
 </defs>
</svg>
