<?xml version="1.0" encoding="utf-8" standalone="no"?>
<!DOCTYPE svg PUBLIC "-//W3C//DTD SVG 1.1//EN"
  "http://www.w3.org/Graphics/SVG/1.1/DTD/svg11.dtd">
<svg xmlns:xlink="http://www.w3.org/1999/xlink" width="504pt" height="432pt" viewBox="0 0 504 432" xmlns="http://www.w3.org/2000/svg" version="1.1">
 <metadata>
  <rdf:RDF xmlns:dc="http://purl.org/dc/elements/1.1/" xmlns:cc="http://creativecommons.org/ns#" xmlns:rdf="http://www.w3.org/1999/02/22-rdf-syntax-ns#">
   <cc:Work>
    <dc:type rdf:resource="http://purl.org/dc/dcmitype/StillImage"/>
    <dc:date>2022-01-31T18:56:51.865392</dc:date>
    <dc:format>image/svg+xml</dc:format>
    <dc:creator>
     <cc:Agent>
      <dc:title>Matplotlib v3.5.1, https://matplotlib.org/</dc:title>
     </cc:Agent>
    </dc:creator>
   </cc:Work>
  </rdf:RDF>
 </metadata>
 <defs>
  <style type="text/css">*{stroke-linejoin: round; stroke-linecap: butt}</style>
 </defs>
 <g id="figure_1">
  <g id="patch_1">
   <path d="M 0 432 
L 504 432 
L 504 0 
L 0 0 
z
" style="fill: #ffffff"/>
  </g>
  <g id="axes_1">
   <g id="patch_2">
    <path d="M 63 384.48 
L 453.6 384.48 
L 453.6 51.84 
L 63 51.84 
z
" style="fill: #ffffff"/>
   </g>
   <g id="matplotlib.axis_1">
    <g id="xtick_1">
     <g id="line2d_1">
      <defs>
       <path id="m81e3e01e42" d="M 0 0 
L 0 3.5 
" style="stroke: #000000; stroke-width: 0.8"/>
      </defs>
      <g>
       <use xlink:href="#m81e3e01e42" x="80.754545" y="384.48" style="stroke: #000000; stroke-width: 0.8"/>
      </g>
     </g>
     <g id="text_1">
      <!-- 0 -->
      <g transform="translate(77.573295 399.078438)scale(0.1 -0.1)">
       <defs>
        <path id="DejaVuSans-30" d="M 2034 4250 
Q 1547 4250 1301 3770 
Q 1056 3291 1056 2328 
Q 1056 1369 1301 889 
Q 1547 409 2034 409 
Q 2525 409 2770 889 
Q 3016 1369 3016 2328 
Q 3016 3291 2770 3770 
Q 2525 4250 2034 4250 
z
M 2034 4750 
Q 2819 4750 3233 4129 
Q 3647 3509 3647 2328 
Q 3647 1150 3233 529 
Q 2819 -91 2034 -91 
Q 1250 -91 836 529 
Q 422 1150 422 2328 
Q 422 3509 836 4129 
Q 1250 4750 2034 4750 
z
" transform="scale(0.015625)"/>
       </defs>
       <use xlink:href="#DejaVuSans-30"/>
      </g>
     </g>
    </g>
    <g id="xtick_2">
     <g id="line2d_2">
      <g>
       <use xlink:href="#m81e3e01e42" x="151.772727" y="384.48" style="stroke: #000000; stroke-width: 0.8"/>
      </g>
     </g>
     <g id="text_2">
      <!-- 200 -->
      <g transform="translate(142.228977 399.078438)scale(0.1 -0.1)">
       <defs>
        <path id="DejaVuSans-32" d="M 1228 531 
L 3431 531 
L 3431 0 
L 469 0 
L 469 531 
Q 828 903 1448 1529 
Q 2069 2156 2228 2338 
Q 2531 2678 2651 2914 
Q 2772 3150 2772 3378 
Q 2772 3750 2511 3984 
Q 2250 4219 1831 4219 
Q 1534 4219 1204 4116 
Q 875 4013 500 3803 
L 500 4441 
Q 881 4594 1212 4672 
Q 1544 4750 1819 4750 
Q 2544 4750 2975 4387 
Q 3406 4025 3406 3419 
Q 3406 3131 3298 2873 
Q 3191 2616 2906 2266 
Q 2828 2175 2409 1742 
Q 1991 1309 1228 531 
z
" transform="scale(0.015625)"/>
       </defs>
       <use xlink:href="#DejaVuSans-32"/>
       <use xlink:href="#DejaVuSans-30" x="63.623047"/>
       <use xlink:href="#DejaVuSans-30" x="127.246094"/>
      </g>
     </g>
    </g>
    <g id="xtick_3">
     <g id="line2d_3">
      <g>
       <use xlink:href="#m81e3e01e42" x="222.790909" y="384.48" style="stroke: #000000; stroke-width: 0.8"/>
      </g>
     </g>
     <g id="text_3">
      <!-- 400 -->
      <g transform="translate(213.247159 399.078438)scale(0.1 -0.1)">
       <defs>
        <path id="DejaVuSans-34" d="M 2419 4116 
L 825 1625 
L 2419 1625 
L 2419 4116 
z
M 2253 4666 
L 3047 4666 
L 3047 1625 
L 3713 1625 
L 3713 1100 
L 3047 1100 
L 3047 0 
L 2419 0 
L 2419 1100 
L 313 1100 
L 313 1709 
L 2253 4666 
z
" transform="scale(0.015625)"/>
       </defs>
       <use xlink:href="#DejaVuSans-34"/>
       <use xlink:href="#DejaVuSans-30" x="63.623047"/>
       <use xlink:href="#DejaVuSans-30" x="127.246094"/>
      </g>
     </g>
    </g>
    <g id="xtick_4">
     <g id="line2d_4">
      <g>
       <use xlink:href="#m81e3e01e42" x="293.809091" y="384.48" style="stroke: #000000; stroke-width: 0.8"/>
      </g>
     </g>
     <g id="text_4">
      <!-- 600 -->
      <g transform="translate(284.265341 399.078438)scale(0.1 -0.1)">
       <defs>
        <path id="DejaVuSans-36" d="M 2113 2584 
Q 1688 2584 1439 2293 
Q 1191 2003 1191 1497 
Q 1191 994 1439 701 
Q 1688 409 2113 409 
Q 2538 409 2786 701 
Q 3034 994 3034 1497 
Q 3034 2003 2786 2293 
Q 2538 2584 2113 2584 
z
M 3366 4563 
L 3366 3988 
Q 3128 4100 2886 4159 
Q 2644 4219 2406 4219 
Q 1781 4219 1451 3797 
Q 1122 3375 1075 2522 
Q 1259 2794 1537 2939 
Q 1816 3084 2150 3084 
Q 2853 3084 3261 2657 
Q 3669 2231 3669 1497 
Q 3669 778 3244 343 
Q 2819 -91 2113 -91 
Q 1303 -91 875 529 
Q 447 1150 447 2328 
Q 447 3434 972 4092 
Q 1497 4750 2381 4750 
Q 2619 4750 2861 4703 
Q 3103 4656 3366 4563 
z
" transform="scale(0.015625)"/>
       </defs>
       <use xlink:href="#DejaVuSans-36"/>
       <use xlink:href="#DejaVuSans-30" x="63.623047"/>
       <use xlink:href="#DejaVuSans-30" x="127.246094"/>
      </g>
     </g>
    </g>
    <g id="xtick_5">
     <g id="line2d_5">
      <g>
       <use xlink:href="#m81e3e01e42" x="364.827273" y="384.48" style="stroke: #000000; stroke-width: 0.8"/>
      </g>
     </g>
     <g id="text_5">
      <!-- 800 -->
      <g transform="translate(355.283523 399.078438)scale(0.1 -0.1)">
       <defs>
        <path id="DejaVuSans-38" d="M 2034 2216 
Q 1584 2216 1326 1975 
Q 1069 1734 1069 1313 
Q 1069 891 1326 650 
Q 1584 409 2034 409 
Q 2484 409 2743 651 
Q 3003 894 3003 1313 
Q 3003 1734 2745 1975 
Q 2488 2216 2034 2216 
z
M 1403 2484 
Q 997 2584 770 2862 
Q 544 3141 544 3541 
Q 544 4100 942 4425 
Q 1341 4750 2034 4750 
Q 2731 4750 3128 4425 
Q 3525 4100 3525 3541 
Q 3525 3141 3298 2862 
Q 3072 2584 2669 2484 
Q 3125 2378 3379 2068 
Q 3634 1759 3634 1313 
Q 3634 634 3220 271 
Q 2806 -91 2034 -91 
Q 1263 -91 848 271 
Q 434 634 434 1313 
Q 434 1759 690 2068 
Q 947 2378 1403 2484 
z
M 1172 3481 
Q 1172 3119 1398 2916 
Q 1625 2713 2034 2713 
Q 2441 2713 2670 2916 
Q 2900 3119 2900 3481 
Q 2900 3844 2670 4047 
Q 2441 4250 2034 4250 
Q 1625 4250 1398 4047 
Q 1172 3844 1172 3481 
z
" transform="scale(0.015625)"/>
       </defs>
       <use xlink:href="#DejaVuSans-38"/>
       <use xlink:href="#DejaVuSans-30" x="63.623047"/>
       <use xlink:href="#DejaVuSans-30" x="127.246094"/>
      </g>
     </g>
    </g>
    <g id="text_6">
     <!-- time [ms] -->
     <g transform="translate(234.038281 412.756563)scale(0.1 -0.1)">
      <defs>
       <path id="DejaVuSans-74" d="M 1172 4494 
L 1172 3500 
L 2356 3500 
L 2356 3053 
L 1172 3053 
L 1172 1153 
Q 1172 725 1289 603 
Q 1406 481 1766 481 
L 2356 481 
L 2356 0 
L 1766 0 
Q 1100 0 847 248 
Q 594 497 594 1153 
L 594 3053 
L 172 3053 
L 172 3500 
L 594 3500 
L 594 4494 
L 1172 4494 
z
" transform="scale(0.015625)"/>
       <path id="DejaVuSans-69" d="M 603 3500 
L 1178 3500 
L 1178 0 
L 603 0 
L 603 3500 
z
M 603 4863 
L 1178 4863 
L 1178 4134 
L 603 4134 
L 603 4863 
z
" transform="scale(0.015625)"/>
       <path id="DejaVuSans-6d" d="M 3328 2828 
Q 3544 3216 3844 3400 
Q 4144 3584 4550 3584 
Q 5097 3584 5394 3201 
Q 5691 2819 5691 2113 
L 5691 0 
L 5113 0 
L 5113 2094 
Q 5113 2597 4934 2840 
Q 4756 3084 4391 3084 
Q 3944 3084 3684 2787 
Q 3425 2491 3425 1978 
L 3425 0 
L 2847 0 
L 2847 2094 
Q 2847 2600 2669 2842 
Q 2491 3084 2119 3084 
Q 1678 3084 1418 2786 
Q 1159 2488 1159 1978 
L 1159 0 
L 581 0 
L 581 3500 
L 1159 3500 
L 1159 2956 
Q 1356 3278 1631 3431 
Q 1906 3584 2284 3584 
Q 2666 3584 2933 3390 
Q 3200 3197 3328 2828 
z
" transform="scale(0.015625)"/>
       <path id="DejaVuSans-65" d="M 3597 1894 
L 3597 1613 
L 953 1613 
Q 991 1019 1311 708 
Q 1631 397 2203 397 
Q 2534 397 2845 478 
Q 3156 559 3463 722 
L 3463 178 
Q 3153 47 2828 -22 
Q 2503 -91 2169 -91 
Q 1331 -91 842 396 
Q 353 884 353 1716 
Q 353 2575 817 3079 
Q 1281 3584 2069 3584 
Q 2775 3584 3186 3129 
Q 3597 2675 3597 1894 
z
M 3022 2063 
Q 3016 2534 2758 2815 
Q 2500 3097 2075 3097 
Q 1594 3097 1305 2825 
Q 1016 2553 972 2059 
L 3022 2063 
z
" transform="scale(0.015625)"/>
       <path id="DejaVuSans-20" transform="scale(0.015625)"/>
       <path id="DejaVuSans-5b" d="M 550 4863 
L 1875 4863 
L 1875 4416 
L 1125 4416 
L 1125 -397 
L 1875 -397 
L 1875 -844 
L 550 -844 
L 550 4863 
z
" transform="scale(0.015625)"/>
       <path id="DejaVuSans-73" d="M 2834 3397 
L 2834 2853 
Q 2591 2978 2328 3040 
Q 2066 3103 1784 3103 
Q 1356 3103 1142 2972 
Q 928 2841 928 2578 
Q 928 2378 1081 2264 
Q 1234 2150 1697 2047 
L 1894 2003 
Q 2506 1872 2764 1633 
Q 3022 1394 3022 966 
Q 3022 478 2636 193 
Q 2250 -91 1575 -91 
Q 1294 -91 989 -36 
Q 684 19 347 128 
L 347 722 
Q 666 556 975 473 
Q 1284 391 1588 391 
Q 1994 391 2212 530 
Q 2431 669 2431 922 
Q 2431 1156 2273 1281 
Q 2116 1406 1581 1522 
L 1381 1569 
Q 847 1681 609 1914 
Q 372 2147 372 2553 
Q 372 3047 722 3315 
Q 1072 3584 1716 3584 
Q 2034 3584 2315 3537 
Q 2597 3491 2834 3397 
z
" transform="scale(0.015625)"/>
       <path id="DejaVuSans-5d" d="M 1947 4863 
L 1947 -844 
L 622 -844 
L 622 -397 
L 1369 -397 
L 1369 4416 
L 622 4416 
L 622 4863 
L 1947 4863 
z
" transform="scale(0.015625)"/>
      </defs>
      <use xlink:href="#DejaVuSans-74"/>
      <use xlink:href="#DejaVuSans-69" x="39.208984"/>
      <use xlink:href="#DejaVuSans-6d" x="66.992188"/>
      <use xlink:href="#DejaVuSans-65" x="164.404297"/>
      <use xlink:href="#DejaVuSans-20" x="225.927734"/>
      <use xlink:href="#DejaVuSans-5b" x="257.714844"/>
      <use xlink:href="#DejaVuSans-6d" x="296.728516"/>
      <use xlink:href="#DejaVuSans-73" x="394.140625"/>
      <use xlink:href="#DejaVuSans-5d" x="446.240234"/>
     </g>
    </g>
   </g>
   <g id="matplotlib.axis_2">
    <g id="ytick_1">
     <g id="line2d_6">
      <defs>
       <path id="ma7597487d6" d="M 0 0 
L -3.5 0 
" style="stroke: #000000; stroke-width: 0.8"/>
      </defs>
      <g>
       <use xlink:href="#ma7597487d6" x="63" y="380.770216" style="stroke: #000000; stroke-width: 0.8"/>
      </g>
     </g>
     <g id="text_7">
      <!-- −80 -->
      <g transform="translate(34.895313 384.569435)scale(0.1 -0.1)">
       <defs>
        <path id="DejaVuSans-2212" d="M 678 2272 
L 4684 2272 
L 4684 1741 
L 678 1741 
L 678 2272 
z
" transform="scale(0.015625)"/>
       </defs>
       <use xlink:href="#DejaVuSans-2212"/>
       <use xlink:href="#DejaVuSans-38" x="83.789062"/>
       <use xlink:href="#DejaVuSans-30" x="147.412109"/>
      </g>
     </g>
    </g>
    <g id="ytick_2">
     <g id="line2d_7">
      <g>
       <use xlink:href="#ma7597487d6" x="63" y="328.898687" style="stroke: #000000; stroke-width: 0.8"/>
      </g>
     </g>
     <g id="text_8">
      <!-- −60 -->
      <g transform="translate(34.895313 332.697906)scale(0.1 -0.1)">
       <use xlink:href="#DejaVuSans-2212"/>
       <use xlink:href="#DejaVuSans-36" x="83.789062"/>
       <use xlink:href="#DejaVuSans-30" x="147.412109"/>
      </g>
     </g>
    </g>
    <g id="ytick_3">
     <g id="line2d_8">
      <g>
       <use xlink:href="#ma7597487d6" x="63" y="277.027158" style="stroke: #000000; stroke-width: 0.8"/>
      </g>
     </g>
     <g id="text_9">
      <!-- −40 -->
      <g transform="translate(34.895313 280.826377)scale(0.1 -0.1)">
       <use xlink:href="#DejaVuSans-2212"/>
       <use xlink:href="#DejaVuSans-34" x="83.789062"/>
       <use xlink:href="#DejaVuSans-30" x="147.412109"/>
      </g>
     </g>
    </g>
    <g id="ytick_4">
     <g id="line2d_9">
      <g>
       <use xlink:href="#ma7597487d6" x="63" y="225.155629" style="stroke: #000000; stroke-width: 0.8"/>
      </g>
     </g>
     <g id="text_10">
      <!-- −20 -->
      <g transform="translate(34.895313 228.954848)scale(0.1 -0.1)">
       <use xlink:href="#DejaVuSans-2212"/>
       <use xlink:href="#DejaVuSans-32" x="83.789062"/>
       <use xlink:href="#DejaVuSans-30" x="147.412109"/>
      </g>
     </g>
    </g>
    <g id="ytick_5">
     <g id="line2d_10">
      <g>
       <use xlink:href="#ma7597487d6" x="63" y="173.284101" style="stroke: #000000; stroke-width: 0.8"/>
      </g>
     </g>
     <g id="text_11">
      <!-- 0 -->
      <g transform="translate(49.6375 177.083319)scale(0.1 -0.1)">
       <use xlink:href="#DejaVuSans-30"/>
      </g>
     </g>
    </g>
    <g id="ytick_6">
     <g id="line2d_11">
      <g>
       <use xlink:href="#ma7597487d6" x="63" y="121.412572" style="stroke: #000000; stroke-width: 0.8"/>
      </g>
     </g>
     <g id="text_12">
      <!-- 20 -->
      <g transform="translate(43.275 125.21179)scale(0.1 -0.1)">
       <use xlink:href="#DejaVuSans-32"/>
       <use xlink:href="#DejaVuSans-30" x="63.623047"/>
      </g>
     </g>
    </g>
    <g id="ytick_7">
     <g id="line2d_12">
      <g>
       <use xlink:href="#ma7597487d6" x="63" y="69.541043" style="stroke: #000000; stroke-width: 0.8"/>
      </g>
     </g>
     <g id="text_13">
      <!-- 40 -->
      <g transform="translate(43.275 73.340262)scale(0.1 -0.1)">
       <use xlink:href="#DejaVuSans-34"/>
       <use xlink:href="#DejaVuSans-30" x="63.623047"/>
      </g>
     </g>
    </g>
    <g id="text_14">
     <!-- voltage [mV] -->
     <g transform="translate(28.815625 250.624062)rotate(-90)scale(0.1 -0.1)">
      <defs>
       <path id="DejaVuSans-76" d="M 191 3500 
L 800 3500 
L 1894 563 
L 2988 3500 
L 3597 3500 
L 2284 0 
L 1503 0 
L 191 3500 
z
" transform="scale(0.015625)"/>
       <path id="DejaVuSans-6f" d="M 1959 3097 
Q 1497 3097 1228 2736 
Q 959 2375 959 1747 
Q 959 1119 1226 758 
Q 1494 397 1959 397 
Q 2419 397 2687 759 
Q 2956 1122 2956 1747 
Q 2956 2369 2687 2733 
Q 2419 3097 1959 3097 
z
M 1959 3584 
Q 2709 3584 3137 3096 
Q 3566 2609 3566 1747 
Q 3566 888 3137 398 
Q 2709 -91 1959 -91 
Q 1206 -91 779 398 
Q 353 888 353 1747 
Q 353 2609 779 3096 
Q 1206 3584 1959 3584 
z
" transform="scale(0.015625)"/>
       <path id="DejaVuSans-6c" d="M 603 4863 
L 1178 4863 
L 1178 0 
L 603 0 
L 603 4863 
z
" transform="scale(0.015625)"/>
       <path id="DejaVuSans-61" d="M 2194 1759 
Q 1497 1759 1228 1600 
Q 959 1441 959 1056 
Q 959 750 1161 570 
Q 1363 391 1709 391 
Q 2188 391 2477 730 
Q 2766 1069 2766 1631 
L 2766 1759 
L 2194 1759 
z
M 3341 1997 
L 3341 0 
L 2766 0 
L 2766 531 
Q 2569 213 2275 61 
Q 1981 -91 1556 -91 
Q 1019 -91 701 211 
Q 384 513 384 1019 
Q 384 1609 779 1909 
Q 1175 2209 1959 2209 
L 2766 2209 
L 2766 2266 
Q 2766 2663 2505 2880 
Q 2244 3097 1772 3097 
Q 1472 3097 1187 3025 
Q 903 2953 641 2809 
L 641 3341 
Q 956 3463 1253 3523 
Q 1550 3584 1831 3584 
Q 2591 3584 2966 3190 
Q 3341 2797 3341 1997 
z
" transform="scale(0.015625)"/>
       <path id="DejaVuSans-67" d="M 2906 1791 
Q 2906 2416 2648 2759 
Q 2391 3103 1925 3103 
Q 1463 3103 1205 2759 
Q 947 2416 947 1791 
Q 947 1169 1205 825 
Q 1463 481 1925 481 
Q 2391 481 2648 825 
Q 2906 1169 2906 1791 
z
M 3481 434 
Q 3481 -459 3084 -895 
Q 2688 -1331 1869 -1331 
Q 1566 -1331 1297 -1286 
Q 1028 -1241 775 -1147 
L 775 -588 
Q 1028 -725 1275 -790 
Q 1522 -856 1778 -856 
Q 2344 -856 2625 -561 
Q 2906 -266 2906 331 
L 2906 616 
Q 2728 306 2450 153 
Q 2172 0 1784 0 
Q 1141 0 747 490 
Q 353 981 353 1791 
Q 353 2603 747 3093 
Q 1141 3584 1784 3584 
Q 2172 3584 2450 3431 
Q 2728 3278 2906 2969 
L 2906 3500 
L 3481 3500 
L 3481 434 
z
" transform="scale(0.015625)"/>
       <path id="DejaVuSans-56" d="M 1831 0 
L 50 4666 
L 709 4666 
L 2188 738 
L 3669 4666 
L 4325 4666 
L 2547 0 
L 1831 0 
z
" transform="scale(0.015625)"/>
      </defs>
      <use xlink:href="#DejaVuSans-76"/>
      <use xlink:href="#DejaVuSans-6f" x="59.179688"/>
      <use xlink:href="#DejaVuSans-6c" x="120.361328"/>
      <use xlink:href="#DejaVuSans-74" x="148.144531"/>
      <use xlink:href="#DejaVuSans-61" x="187.353516"/>
      <use xlink:href="#DejaVuSans-67" x="248.632812"/>
      <use xlink:href="#DejaVuSans-65" x="312.109375"/>
      <use xlink:href="#DejaVuSans-20" x="373.632812"/>
      <use xlink:href="#DejaVuSans-5b" x="405.419922"/>
      <use xlink:href="#DejaVuSans-6d" x="444.433594"/>
      <use xlink:href="#DejaVuSans-56" x="541.845703"/>
      <use xlink:href="#DejaVuSans-5d" x="610.253906"/>
     </g>
    </g>
   </g>
   <g id="line2d_13">
    <path d="M 80.754545 341.866569 
L 81.961855 341.731703 
L 83.790573 341.789021 
L 87.8031 341.795246 
L 151.772727 341.798358 
L 152.314241 297.806633 
L 152.420768 249.752071 
L 152.562805 70.38188 
L 152.678209 95.298369 
L 153.565936 368.03783 
L 153.610323 367.938496 
L 153.8145 366.576091 
L 154.293873 361.879124 
L 154.959668 352.866705 
L 157.42755 314.439758 
L 157.613973 303.445328 
L 157.738255 281.742021 
L 157.835905 219.932426 
L 157.969064 94.452085 
L 158.031205 107.447459 
L 158.883423 367.618449 
L 158.945564 367.437158 
L 159.203005 365.481602 
L 159.717886 359.876364 
L 160.534595 348.091671 
L 161.8218 330.177839 
L 162.514227 319.935028 
L 162.771668 312.504172 
L 162.940336 300.655936 
L 163.064618 273.023454 
L 163.162268 189.63175 
L 163.268795 95.361393 
L 163.322059 104.761033 
L 163.863573 297.531714 
L 164.147645 367.443901 
L 164.183155 367.587067 
L 164.245295 367.407851 
L 164.493859 365.526989 
L 165.008741 359.941204 
L 165.834327 348.034872 
L 167.112655 330.251497 
L 167.813959 319.900014 
L 168.0714 312.459562 
L 168.240068 300.572423 
L 168.36435 272.780177 
L 168.462 188.895045 
L 168.568527 95.437385 
L 168.621791 104.980449 
L 169.172182 301.436344 
L 169.4385 367.359092 
L 169.482886 367.584992 
L 169.545027 367.401886 
L 169.802468 365.438289 
L 170.31735 359.815415 
L 171.151814 347.749319 
L 172.430141 330.011591 
L 173.113691 319.881859 
L 173.371132 312.423511 
L 173.5398 300.477758 
L 173.664082 272.446124 
L 173.761732 187.757476 
L 173.868259 95.453984 
L 173.921523 105.213612 
L 174.480791 305.458981 
L 174.729355 367.250939 
L 174.782618 367.584992 
L 174.844759 367.397736 
L 175.1022 365.431027 
L 175.617082 359.804781 
L 176.451545 347.736611 
L 177.729873 330.000957 
L 178.413423 319.86526 
L 178.670864 312.387979 
L 178.839532 300.381795 
L 178.963814 272.103253 
L 179.061464 186.586606 
L 179.167991 95.471101 
L 179.221255 105.449368 
L 179.7894 309.583545 
L 180.029086 367.263129 
L 180.08235 367.585251 
L 180.144491 367.393327 
L 180.401932 365.423765 
L 180.916814 359.794407 
L 181.751277 347.724421 
L 183.029605 329.990583 
L 183.713155 319.848402 
L 183.970595 312.352188 
L 184.139264 300.284796 
L 184.263545 271.752342 
L 184.361195 185.395143 
L 184.467723 95.494703 
L 184.520986 105.688755 
L 185.098009 313.798885 
L 185.328818 367.27506 
L 185.382082 367.585251 
L 185.444223 367.389177 
L 185.701664 365.416243 
L 186.216545 359.784033 
L 187.051009 347.711972 
L 188.329336 329.980208 
L 189.012886 319.831803 
L 189.270327 312.316137 
L 189.438995 300.18624 
L 189.563277 271.396244 
L 189.660927 184.198934 
L 189.767455 95.52401 
L 189.820718 105.930476 
L 190.406618 318.085548 
L 190.619673 367.142787 
L 190.681814 367.584992 
L 190.743955 367.384768 
L 191.010273 365.328581 
L 191.525155 359.66006 
L 192.368495 347.429791 
L 193.637945 329.855717 
L 194.312618 319.814686 
L 194.570059 312.280087 
L 194.738727 300.087165 
L 194.863009 271.036775 
L 194.969536 169.797945 
L 195.058309 95.510783 
L 195.12045 106.174791 
L 195.715227 322.417858 
L 195.919405 367.158089 
L 195.981545 367.584992 
L 196.043686 367.380359 
L 196.310005 365.321059 
L 196.833764 359.535568 
L 197.703736 346.878656 
L 198.955432 329.617367 
L 199.61235 319.797827 
L 199.869791 312.243517 
L 200.038459 299.987053 
L 200.162741 270.670043 
L 200.269268 168.54963 
L 200.358041 95.481735 
L 200.420182 106.423256 
L 201.023836 326.759246 
L 201.219136 367.172613 
L 201.281277 367.584473 
L 201.343418 367.37595 
L 201.609736 365.313538 
L 202.133495 359.524675 
L 202.994591 347.000554 
L 204.255164 329.606733 
L 204.912082 319.78045 
L 205.169523 312.206429 
L 205.338191 299.885385 
L 205.462473 270.29579 
L 205.569 167.292939 
L 205.657773 95.45969 
L 205.719914 106.673536 
L 206.332445 331.062249 
L 206.518868 367.187137 
L 206.581009 367.584214 
L 206.634273 367.417447 
L 206.873959 365.623989 
L 207.388841 360.079441 
L 208.187795 348.606496 
L 209.510509 330.164871 
L 210.202936 319.945402 
L 210.460377 312.55734 
L 210.629045 300.837227 
L 210.753327 273.721904 
L 210.850977 192.161888 
L 210.957505 95.444647 
L 211.019645 106.924854 
L 211.641055 335.273439 
L 211.827477 367.331081 
L 211.880741 367.583695 
L 211.934005 367.413297 
L 212.182568 365.537882 
L 212.69745 359.956765 
L 213.514159 348.188671 
L 214.810241 330.154237 
L 215.502668 319.928544 
L 215.760109 312.521808 
L 215.928777 300.742043 
L 216.053059 273.386555 
L 216.150709 190.996853 
L 216.257236 95.438422 
L 216.319377 107.175653 
L 216.949664 339.330052 
L 217.127209 367.341455 
L 217.171595 367.584214 
L 217.233736 367.409148 
L 217.4823 365.53062 
L 217.997182 359.946391 
L 218.822768 348.041097 
L 220.101095 330.257202 
L 220.8024 319.911685 
L 221.059841 312.486535 
L 221.228509 300.647118 
L 221.352791 273.049909 
L 221.450441 189.832389 
L 221.556968 95.438941 
L 221.610232 104.797602 
L 222.151745 297.586439 
L 222.426941 367.351311 
L 222.471327 367.584473 
L 222.533468 367.404998 
L 222.782032 365.523358 
L 223.296914 359.936016 
L 224.1225 348.028388 
L 225.418582 330.019631 
L 226.111009 319.71198 
L 226.36845 312.058855 
L 226.537118 299.476897 
L 226.652523 272.710669 
L 226.750173 188.663283 
L 226.8567 95.444906 
L 226.909964 105.032321 
L 227.460355 301.510779 
L 227.726673 367.360907 
L 227.771059 367.584992 
L 227.8332 367.400848 
L 228.090641 365.436473 
L 228.605523 359.812821 
L 229.439986 347.746207 
L 230.718314 330.008997 
L 231.401864 319.877969 
L 231.659305 312.415212 
L 231.827973 300.455972 
L 231.952255 272.369095 
L 232.049905 187.493969 
L 232.156432 95.457615 
L 232.209695 105.26678 
L 232.768964 305.536529 
L 233.017527 367.253792 
L 233.070791 367.584992 
L 233.132932 367.396698 
L 233.390373 365.429211 
L 233.905255 359.802447 
L 234.739718 347.733758 
L 236.018045 329.998623 
L 236.701595 319.86137 
L 236.959036 312.379939 
L 237.127705 300.360009 
L 237.251986 272.024409 
L 237.349636 186.317963 
L 237.456164 95.47577 
L 237.509427 105.503574 
L 238.077573 309.663427 
L 238.317259 367.265723 
L 238.370523 367.585251 
L 238.432664 367.392549 
L 238.690105 365.421949 
L 239.204986 359.792073 
L 240.03945 347.721568 
L 241.317777 329.988249 
L 242.001327 319.844771 
L 242.258768 312.344148 
L 242.427436 300.262491 
L 242.551718 271.671682 
L 242.649368 185.123725 
L 242.755895 95.500928 
L 242.809159 105.74348 
L 243.386182 313.880583 
L 243.616991 367.277653 
L 243.670255 367.585251 
L 243.732395 367.38814 
L 243.989836 365.414687 
L 244.504718 359.781699 
L 245.348059 347.574253 
L 246.617509 329.977615 
L 247.301059 319.827913 
L 247.5585 312.308097 
L 247.727168 300.163676 
L 247.85145 271.315065 
L 247.9491 183.926349 
L 248.055627 95.531791 
L 248.108891 105.98572 
L 248.694791 318.169061 
L 248.907845 367.146418 
L 248.969986 367.584992 
L 249.032127 367.38399 
L 249.298445 365.327024 
L 249.822205 359.543868 
L 250.692177 346.888511 
L 251.943873 329.625667 
L 252.600791 319.810795 
L 252.858232 312.271787 
L 253.0269 300.064342 
L 253.151182 270.95378 
L 253.257709 169.513741 
L 253.346482 95.503521 
L 253.408623 106.231331 
L 254.0034 322.502928 
L 254.207577 367.161461 
L 254.269718 367.584733 
L 254.331859 367.379581 
L 254.598177 365.319503 
L 255.121936 359.532975 
L 255.983032 347.010409 
L 257.22585 329.842749 
L 257.900523 319.793937 
L 258.157964 312.235218 
L 258.326632 299.96397 
L 258.450914 270.585233 
L 258.557441 168.262859 
L 258.646214 95.476029 
L 258.708355 106.480574 
L 259.312009 326.844315 
L 259.507309 367.175985 
L 259.56945 367.584473 
L 259.631591 367.374912 
L 259.897909 365.311722 
L 260.421668 359.522341 
L 261.291641 346.863354 
L 262.525582 329.832115 
L 263.200255 319.77656 
L 263.457695 312.19813 
L 263.626364 299.862043 
L 263.750645 270.209683 
L 263.857173 167.005648 
L 263.945945 95.45554 
L 264.008086 106.730854 
L 264.620618 331.146021 
L 264.807041 367.190509 
L 264.869182 367.583955 
L 264.922445 367.416669 
L 265.171009 365.543588 
L 265.685891 359.965064 
L 266.511477 348.063401 
L 267.807559 330.048938 
L 268.499986 319.759442 
L 268.757427 312.161042 
L 268.926095 299.760115 
L 269.050377 269.834133 
L 269.156905 165.757801 
L 269.245677 95.442572 
L 269.298941 104.383927 
L 269.8227 290.116679 
L 270.133405 367.497848 
L 270.168914 367.583695 
L 270.222177 367.412519 
L 270.470741 365.536326 
L 270.985623 359.954431 
L 271.802332 348.185818 
L 273.098414 330.151903 
L 273.790841 319.924653 
L 274.048282 312.513768 
L 274.21695 300.720516 
L 274.341232 273.309785 
L 274.438882 190.730337 
L 274.545409 95.438163 
L 274.598673 104.617089 
L 275.131309 293.838721 
L 275.424259 367.436639 
L 275.459768 367.584214 
L 275.521909 367.408369 
L 275.770473 365.529064 
L 276.285355 359.944056 
L 277.110941 348.038244 
L 278.389268 330.254868 
L 279.090573 319.907795 
L 279.348014 312.478236 
L 279.516682 300.625332 
L 279.640964 272.97262 
L 279.738614 189.565769 
L 279.845141 95.43946 
L 279.898405 104.851289 
L 280.439918 297.661393 
L 280.715114 367.353386 
L 280.7595 367.584733 
L 280.821641 367.40422 
L 281.079082 365.442179 
L 281.593964 359.820862 
L 282.428427 347.755803 
L 283.706755 330.017037 
L 284.390305 319.890937 
L 284.647745 312.442704 
L 284.816414 300.529889 
L 284.940695 272.632862 
L 285.038345 188.396559 
L 285.144873 95.44724 
L 285.198136 105.085749 
L 285.748527 301.586771 
L 286.014845 367.362982 
L 286.059232 367.584992 
L 286.121373 367.399811 
L 286.378814 365.434917 
L 286.893695 359.810487 
L 287.728159 347.743354 
L 289.006486 330.006663 
L 289.690036 319.874338 
L 289.947477 312.407172 
L 290.116145 300.434186 
L 290.240427 272.290769 
L 290.338077 187.226363 
L 290.444605 95.461246 
L 290.497868 105.320467 
L 291.057136 305.614855 
L 291.3057 367.256645 
L 291.358964 367.585251 
L 291.421105 367.395661 
L 291.678545 365.427655 
L 292.193427 359.800113 
L 293.027891 347.730905 
L 294.315095 329.882431 
L 294.989768 319.85748 
L 295.247209 312.37164 
L 295.415877 300.337964 
L 295.540159 271.944526 
L 295.637809 186.046494 
L 295.744336 95.480957 
L 295.7976 105.558039 
L 296.365745 309.743828 
L 296.605432 367.268576 
L 296.658695 367.585251 
L 296.720836 367.391511 
L 296.978277 365.420393 
L 297.493159 359.789739 
L 298.327623 347.718715 
L 299.60595 329.985914 
L 300.2895 319.840881 
L 300.546941 312.335849 
L 300.715609 300.239927 
L 300.839891 271.590763 
L 300.937541 184.851918 
L 301.044068 95.507411 
L 301.097332 105.798204 
L 301.674355 313.96228 
L 301.905164 367.280247 
L 301.958427 367.585251 
L 302.020568 367.387361 
L 302.286886 365.33273 
L 302.810645 359.551908 
L 303.671741 347.032714 
L 304.914559 329.861682 
L 305.589232 319.824022 
L 305.846673 312.299798 
L 306.015341 300.141371 
L 306.139623 271.233627 
L 306.24615 170.473831 
L 306.334923 95.529197 
L 306.397064 106.041222 
L 306.982964 318.252575 
L 307.196018 367.14979 
L 307.258159 367.584992 
L 307.3203 367.382952 
L 307.586618 365.325209 
L 308.110377 359.541274 
L 308.971473 347.020265 
L 310.214291 329.851048 
L 310.888964 319.807164 
L 311.146405 312.263488 
L 311.315073 300.041778 
L 311.439355 270.870526 
L 311.545882 169.230548 
L 311.634655 95.496778 
L 311.696795 106.287612 
L 312.291573 322.587478 
L 312.49575 367.164833 
L 312.557891 367.584733 
L 312.620032 367.378543 
L 312.88635 365.317687 
L 313.410109 359.53064 
L 314.280082 346.87295 
L 315.531777 329.612439 
L 316.188695 319.789787 
L 316.446136 312.226659 
L 316.614805 299.940887 
L 316.739086 270.500682 
L 316.845614 167.977176 
L 316.934386 95.470842 
L 316.996527 106.537373 
L 317.600182 326.929125 
L 317.795482 367.179357 
L 317.857623 367.584473 
L 317.910886 367.419781 
L 318.15945 365.549294 
L 318.674332 359.973105 
L 319.491041 348.208123 
L 320.796 330.056978 
L 321.488427 319.77267 
L 321.745868 312.189571 
L 321.914536 299.8387 
L 322.038818 270.123836 
L 322.145345 166.719733 
L 322.234118 95.451909 
L 322.296259 106.788172 
L 322.908791 331.229534 
L 323.095214 367.193881 
L 323.157355 367.583955 
L 323.210618 367.415631 
L 323.459182 365.542032 
L 323.974064 359.962471 
L 324.790773 348.195415 
L 326.095732 330.046345 
L 326.779282 319.937621 
L 327.036723 312.54126 
L 327.205391 300.793915 
L 327.329673 273.569143 
L 327.427323 191.630723 
L 327.53385 95.440757 
L 327.595991 107.03923 
L 328.2174 335.434759 
L 328.403823 367.335749 
L 328.457086 367.583436 
L 328.51035 367.411482 
L 328.758914 365.53451 
L 329.273795 359.952097 
L 329.318182 359.383844 
L 329.335936 360.274478 
L 329.531236 364.223976 
L 329.620009 364.409936 
L 329.664395 364.353136 
L 329.815309 363.752464 
L 330.214786 360.96411 
L 332.176664 346.356828 
L 332.869091 343.167507 
L 333.428359 341.528886 
L 333.889977 340.793347 
L 334.262823 340.568744 
L 334.617914 340.608425 
L 335.106164 340.927954 
L 336.553159 341.970053 
L 337.156814 342.065756 
L 338.106682 341.95501 
L 339.899891 341.752452 
L 342.074823 341.799655 
L 345.758891 341.796283 
L 435.845455 341.798358 
L 435.845455 341.798358 
" clip-path="url(#p425da00c20)" style="fill: none; stroke: #1f77b4; stroke-width: 1.5; stroke-linecap: square"/>
   </g>
   <g id="line2d_14">
    <path d="M 80.754545 341.866569 
L 81.091882 332.25493 
L 81.464727 320.962928 
L 81.624518 307.291041 
L 81.722168 277.452983 
L 81.802064 161.364828 
L 81.881959 66.96 
L 81.9441 75.212832 
L 82.183786 151.475873 
L 82.876214 369.36 
L 82.902845 369.312873 
L 83.107023 368.263072 
L 83.595273 364.655725 
L 84.296577 357.514022 
L 85.55715 344.760746 
L 86.285086 339.686365 
L 86.915373 336.701557 
L 87.421377 335.269485 
L 87.776468 334.813424 
L 88.051664 334.776743 
L 88.353491 334.993254 
L 89.764977 336.333135 
L 90.226595 336.277065 
L 92.010927 335.841117 
L 96.49395 335.953422 
L 106.400986 335.960331 
L 151.772727 335.960351 
L 152.287609 295.427727 
L 152.376382 241.28642 
L 152.500664 71.825996 
L 152.589436 87.932894 
L 153.157582 278.74934 
L 153.459409 367.763845 
L 153.503795 367.619919 
L 153.787868 365.377028 
L 154.320505 359.482597 
L 156.850527 328.514489 
L 157.347655 322.143635 
L 157.587341 315.828923 
L 157.738255 305.39679 
L 157.844782 281.375046 
L 157.933555 193.191564 
L 158.031205 82.881958 
L 158.093345 92.971081 
L 158.475068 224.502798 
L 158.945564 367.578367 
L 159.025459 367.209531 
L 159.424936 363.645698 
L 160.037468 356.06224 
L 161.635377 335.480315 
L 162.878195 321.207288 
L 163.100127 314.612411 
L 163.251041 301.96984 
L 163.357568 268.255657 
L 163.455218 126.783158 
L 163.517359 83.202948 
L 163.5795 92.864337 
L 163.934591 215.766723 
L 164.431718 367.566805 
L 164.502736 367.260254 
L 164.884459 363.909181 
L 165.488114 356.534034 
L 167.165918 335.001977 
L 168.346595 321.548183 
L 168.568527 315.418778 
L 168.719441 304.450905 
L 168.825968 278.205147 
L 168.914741 180.14437 
L 169.003514 83.228777 
L 169.065655 92.775994 
L 169.420745 215.656537 
L 169.917873 367.56593 
L 169.988891 367.261812 
L 170.370614 363.911708 
L 170.974268 356.537407 
L 172.652073 335.00467 
L 173.83275 321.554183 
L 174.054682 315.433108 
L 174.205595 304.493918 
L 174.312123 278.367492 
L 174.400895 180.833935 
L 174.489668 83.236734 
L 174.551809 92.688766 
L 174.898023 212.618517 
L 175.404027 367.565684 
L 175.475045 367.264043 
L 175.856768 363.915162 
L 176.460423 356.542015 
L 178.138227 335.008194 
L 179.327782 321.392293 
L 179.549714 315.061927 
L 179.700627 303.385317 
L 179.807155 274.088794 
L 179.895927 163.587198 
L 179.975823 83.244957 
L 180.037964 92.602217 
L 180.384177 212.505902 
L 180.890182 367.565438 
L 180.9612 367.266295 
L 181.334045 364.009619 
L 181.928823 356.789629 
L 183.659891 334.641155 
L 184.796182 321.731514 
L 185.026991 315.462123 
L 185.177905 304.579153 
L 185.284432 278.68514 
L 185.373205 182.178139 
L 185.461977 83.254176 
L 185.524118 92.516246 
L 185.861455 209.447572 
L 186.376336 367.565167 
L 186.447355 367.268535 
L 186.8202 364.013068 
L 187.414977 356.79424 
L 189.146045 334.644669 
L 190.282336 321.737721 
L 190.513145 315.476441 
L 190.664059 304.620996 
L 190.770586 278.840853 
L 190.859359 182.839972 
L 190.948132 83.264166 
L 191.010273 92.431263 
L 191.347609 209.335604 
L 191.862491 367.564883 
L 191.933509 367.27076 
L 192.306355 364.016497 
L 192.901132 356.798825 
L 194.6322 334.648161 
L 195.768491 321.743847 
L 195.9993 315.490555 
L 196.150214 304.662091 
L 196.256741 278.993646 
L 196.345514 183.493148 
L 196.434286 83.274777 
L 196.496427 92.347035 
L 196.824886 206.256479 
L 197.348645 367.564578 
L 197.410786 367.330337 
L 197.757 364.377675 
L 198.334023 357.525476 
L 200.216005 333.647476 
L 201.228014 322.222447 
L 201.4677 316.219578 
L 201.627491 305.747497 
L 201.742895 279.144035 
L 201.831668 184.1387 
L 201.920441 83.286798 
L 201.982582 92.263526 
L 202.311041 206.144761 
L 202.8348 367.564237 
L 202.896941 367.332441 
L 203.243155 364.381 
L 203.820177 357.529976 
L 205.702159 333.650878 
L 206.714168 322.228146 
L 206.953855 316.232302 
L 207.113645 305.784771 
L 207.22905 279.293485 
L 207.317823 184.780319 
L 207.406595 83.299836 
L 207.468736 92.180775 
L 207.797195 206.033847 
L 208.329832 367.564291 
L 208.383095 367.334522 
L 208.729309 364.384296 
L 209.306332 357.534439 
L 211.188314 333.654253 
L 212.200323 322.233811 
L 212.440009 316.244952 
L 212.5998 305.821818 
L 212.715205 279.441949 
L 212.803977 185.418145 
L 212.901627 83.2924 
L 212.954891 92.098767 
L 213.274473 202.933397 
L 213.815986 367.564598 
L 213.86925 367.336581 
L 214.206586 364.475455 
L 214.783609 357.658135 
L 216.7011 333.386819 
L 217.6776 322.390405 
L 217.917286 316.590613 
L 218.077077 306.813946 
L 218.192482 283.305735 
L 218.281255 202.464642 
L 218.387782 83.281062 
L 218.449923 94.307137 
L 218.911541 251.619108 
L 219.302141 367.564874 
L 219.382036 367.160558 
L 219.799268 363.385482 
L 220.429555 355.474061 
L 221.938691 335.974854 
L 223.24365 320.918725 
L 223.456705 314.361028 
L 223.598741 302.516405 
L 223.705268 270.566202 
L 223.794041 150.896574 
L 223.873936 83.270637 
L 223.9272 91.936169 
L 224.246782 202.712332 
L 224.788295 367.56513 
L 224.841559 367.340656 
L 225.178895 364.481896 
L 225.755918 357.666895 
L 227.673409 333.393451 
L 228.649909 322.401387 
L 228.889595 316.61458 
L 229.049386 306.881492 
L 229.164791 283.560828 
L 229.253564 203.611089 
L 229.360091 83.260956 
L 229.422232 94.13227 
L 229.866095 245.775792 
L 230.27445 367.565371 
L 230.354345 367.165185 
L 230.7627 363.486734 
L 231.384109 355.730163 
L 232.928755 335.792775 
L 234.207082 321.110535 
L 234.420136 314.810658 
L 234.57105 302.610911 
L 234.677577 270.957749 
L 234.76635 152.234568 
L 234.846245 83.252261 
L 234.899509 91.772991 
L 235.210214 199.475344 
L 235.760605 367.565584 
L 235.813868 367.344748 
L 236.151205 364.488388 
L 236.71935 357.794641 
L 238.663473 333.22002 
L 239.622218 322.412458 
L 239.861905 316.638719 
L 240.021695 306.949066 
L 240.1371 283.815537 
L 240.225873 204.758784 
L 240.3324 83.244523 
L 240.394541 93.957343 
L 240.82065 239.946328 
L 241.246759 367.565769 
L 241.326655 367.1698 
L 241.735009 363.49369 
L 242.356418 355.739291 
L 243.901064 335.79977 
L 245.188268 320.945491 
L 245.401323 314.424542 
L 245.543359 302.704572 
L 245.649886 271.345147 
L 245.738659 153.577504 
L 245.818555 83.237689 
L 245.871818 91.610702 
L 246.173645 196.213926 
L 246.732914 367.565938 
L 246.7773 367.401771 
L 247.07025 365.008923 
L 247.620641 358.74239 
L 249.831082 331.263127 
L 250.567895 322.857919 
L 250.825336 316.979061 
L 250.994005 307.015891 
L 251.109409 284.06671 
L 251.198182 205.892595 
L 251.304709 83.231779 
L 251.36685 93.783615 
L 251.784082 236.923109 
L 252.219068 367.566065 
L 252.298964 367.174402 
L 252.707318 363.50064 
L 253.328727 355.748413 
L 254.873373 335.806764 
L 256.160577 320.958862 
L 256.373632 314.45609 
L 256.515668 302.797503 
L 256.622195 271.728174 
L 256.710968 154.921899 
L 256.790864 83.226753 
L 256.844127 91.450177 
L 257.145955 195.988463 
L 257.705223 367.566169 
L 257.749609 367.405503 
L 258.042559 365.015098 
L 258.59295 358.750925 
L 260.812268 331.181199 
L 261.540205 322.868325 
L 261.797645 317.001903 
L 261.966314 307.082149 
L 262.081718 284.314603 
L 262.170491 207.012014 
L 262.277018 83.222691 
L 262.339159 93.611676 
L 262.738636 231.064134 
L 263.191377 367.566254 
L 263.271273 367.178966 
L 263.679627 363.507545 
L 264.301036 355.757479 
L 265.854559 335.719386 
L 267.124009 321.149651 
L 267.345941 314.487357 
L 267.487977 302.889488 
L 267.594505 272.104043 
L 267.683277 156.261476 
L 267.763173 83.219456 
L 267.825314 93.525585 
L 268.224791 230.958884 
L 268.677532 367.566326 
L 268.757427 367.181268 
L 269.165782 363.511029 
L 269.787191 355.762055 
L 271.340714 335.722888 
L 272.619041 320.978805 
L 272.832095 314.503072 
L 272.974132 302.93567 
L 273.080659 272.29222 
L 273.169432 156.937594 
L 273.249327 83.216926 
L 273.311468 93.439242 
L 273.702068 228.011654 
L 274.163686 367.566386 
L 274.243582 367.183583 
L 274.651936 363.514536 
L 275.273345 355.766661 
L 276.826868 335.726415 
L 278.105195 320.985532 
L 278.31825 314.518905 
L 278.460286 302.98218 
L 278.566814 272.481096 
L 278.655586 157.616584 
L 278.735482 83.215153 
L 278.797623 93.352898 
L 279.179345 225.050489 
L 279.649841 367.566426 
L 279.729736 367.185895 
L 280.138091 363.51804 
L 280.7595 355.771265 
L 282.313023 335.729938 
L 283.59135 320.992263 
L 283.804405 314.534745 
L 283.946441 303.028686 
L 284.052968 272.669181 
L 284.141741 158.297873 
L 284.221636 83.214725 
L 284.283777 93.266425 
L 284.6655 224.943074 
L 285.135995 367.566424 
L 285.215891 367.188212 
L 285.624245 363.521557 
L 286.245655 355.775886 
L 287.799177 335.733473 
L 289.077505 320.999019 
L 289.290559 314.550637 
L 289.432595 303.07532 
L 289.539123 272.85687 
L 289.627895 158.981697 
L 289.707791 83.215049 
L 289.769932 93.179648 
L 290.142777 221.964102 
L 290.62215 367.566395 
L 290.702045 367.190549 
L 291.1104 363.525106 
L 291.731809 355.78055 
L 293.285332 335.737037 
L 294.563659 321.005813 
L 294.776714 314.566598 
L 294.91875 303.122114 
L 295.025277 273.04349 
L 295.11405 159.667888 
L 295.193945 83.216345 
L 295.256086 93.092741 
L 295.628932 221.854811 
L 296.108305 367.566343 
L 296.1882 367.192897 
L 296.587677 363.622093 
L 297.200209 356.031174 
L 298.789241 335.552386 
L 300.040936 321.189262 
L 300.262868 314.582658 
L 300.404905 303.169085 
L 300.511432 273.2306 
L 300.600205 160.359919 
L 300.6801 83.218385 
L 300.742241 93.00523 
L 301.106209 218.856171 
L 301.594459 367.566281 
L 301.665477 367.255772 
L 302.0472 363.902407 
L 302.650855 356.525007 
L 304.328659 334.99522 
L 305.509336 321.537359 
L 305.731268 315.394985 
L 305.882182 304.381789 
L 305.988709 277.947103 
L 306.077482 179.061926 
L 306.166255 83.221898 
L 306.228395 92.916946 
L 306.592364 218.743706 
L 307.080614 367.56616 
L 307.151632 367.258081 
L 307.533355 363.905961 
L 308.137009 356.529745 
L 309.814814 334.998832 
L 310.995491 321.543814 
L 311.217423 315.409632 
L 311.368336 304.424909 
L 311.474864 278.108872 
L 311.563636 179.740462 
L 311.652409 83.226603 
L 311.71455 92.829327 
L 312.069641 215.72536 
L 312.566768 367.565999 
L 312.637786 367.26037 
L 313.019509 363.90949 
L 313.623164 356.53445 
L 315.300968 335.002421 
L 316.481645 321.550234 
L 316.703577 315.424196 
L 316.854491 304.467761 
L 316.961018 278.269557 
L 317.049791 180.419711 
L 317.138564 83.232583 
L 317.200705 92.74196 
L 317.555795 215.612905 
L 318.052923 367.565809 
L 318.123941 367.262652 
L 318.505664 363.913014 
L 319.109318 356.539149 
L 320.787123 335.006007 
L 321.9678 321.556655 
L 322.189732 315.438761 
L 322.340645 304.510576 
L 322.447173 278.429671 
L 322.535945 181.096721 
L 322.624718 83.239803 
L 322.686859 92.65504 
L 323.033073 212.574676 
L 323.539077 367.565591 
L 323.610095 367.264921 
L 323.982941 364.007505 
L 324.577718 356.786804 
L 326.308786 334.639003 
L 327.445077 321.727699 
L 327.675886 315.453292 
L 327.8268 304.553241 
L 327.933327 278.588636 
L 328.0221 181.768704 
L 328.110873 83.248424 
L 328.173014 92.568705 
L 328.519227 212.462245 
L 329.025232 367.565336 
L 329.09625 367.267167 
L 329.318182 365.466539 
L 329.335936 366.183007 
L 329.398077 366.870036 
L 329.460218 366.652696 
L 329.7798 364.093814 
L 330.534368 356.225227 
L 331.661782 344.920294 
L 332.389718 339.82535 
L 333.020005 336.825639 
L 333.526009 335.375383 
L 333.889977 334.88604 
L 334.165173 334.829055 
L 334.458123 335.010326 
L 335.0529 335.728002 
L 335.603291 336.222441 
L 336.0294 336.321411 
L 336.570914 336.195728 
L 337.831486 335.851656 
L 338.772477 335.909859 
L 340.343755 335.98661 
L 345.563591 335.959374 
L 435.845455 335.960351 
L 435.845455 335.960351 
" clip-path="url(#p425da00c20)" style="fill: none; stroke: #ff0000; stroke-width: 1.5; stroke-linecap: square"/>
   </g>
   <g id="patch_3">
    <path d="M 63 384.48 
L 63 51.84 
" style="fill: none; stroke: #000000; stroke-width: 0.8; stroke-linejoin: miter; stroke-linecap: square"/>
   </g>
   <g id="patch_4">
    <path d="M 453.6 384.48 
L 453.6 51.84 
" style="fill: none; stroke: #000000; stroke-width: 0.8; stroke-linejoin: miter; stroke-linecap: square"/>
   </g>
   <g id="patch_5">
    <path d="M 63 384.48 
L 453.6 384.48 
" style="fill: none; stroke: #000000; stroke-width: 0.8; stroke-linejoin: miter; stroke-linecap: square"/>
   </g>
   <g id="patch_6">
    <path d="M 63 51.84 
L 453.6 51.84 
" style="fill: none; stroke: #000000; stroke-width: 0.8; stroke-linejoin: miter; stroke-linecap: square"/>
   </g>
   <g id="legend_1">
    <g id="patch_7">
     <path d="M 383.460938 89.19625 
L 446.6 89.19625 
Q 448.6 89.19625 448.6 87.19625 
L 448.6 58.84 
Q 448.6 56.84 446.6 56.84 
L 383.460938 56.84 
Q 381.460938 56.84 381.460938 58.84 
L 381.460938 87.19625 
Q 381.460938 89.19625 383.460938 89.19625 
z
" style="fill: #ffffff; opacity: 0.8; stroke: #cccccc; stroke-linejoin: miter"/>
    </g>
    <g id="line2d_15">
     <path d="M 385.460938 64.938437 
L 395.460938 64.938437 
L 405.460938 64.938437 
" style="fill: none; stroke: #1f77b4; stroke-width: 1.5; stroke-linecap: square"/>
    </g>
    <g id="text_15">
     <!-- target -->
     <g transform="translate(413.460938 68.438437)scale(0.1 -0.1)">
      <defs>
       <path id="DejaVuSans-72" d="M 2631 2963 
Q 2534 3019 2420 3045 
Q 2306 3072 2169 3072 
Q 1681 3072 1420 2755 
Q 1159 2438 1159 1844 
L 1159 0 
L 581 0 
L 581 3500 
L 1159 3500 
L 1159 2956 
Q 1341 3275 1631 3429 
Q 1922 3584 2338 3584 
Q 2397 3584 2469 3576 
Q 2541 3569 2628 3553 
L 2631 2963 
z
" transform="scale(0.015625)"/>
      </defs>
      <use xlink:href="#DejaVuSans-74"/>
      <use xlink:href="#DejaVuSans-61" x="39.208984"/>
      <use xlink:href="#DejaVuSans-72" x="100.488281"/>
      <use xlink:href="#DejaVuSans-67" x="139.851562"/>
      <use xlink:href="#DejaVuSans-65" x="203.328125"/>
      <use xlink:href="#DejaVuSans-74" x="264.851562"/>
     </g>
    </g>
    <g id="line2d_16">
     <path d="M 385.460938 79.616562 
L 395.460938 79.616562 
L 405.460938 79.616562 
" style="fill: none; stroke: #ff0000; stroke-width: 1.5; stroke-linecap: square"/>
    </g>
    <g id="text_16">
     <!-- model -->
     <g transform="translate(413.460938 83.116562)scale(0.1 -0.1)">
      <defs>
       <path id="DejaVuSans-64" d="M 2906 2969 
L 2906 4863 
L 3481 4863 
L 3481 0 
L 2906 0 
L 2906 525 
Q 2725 213 2448 61 
Q 2172 -91 1784 -91 
Q 1150 -91 751 415 
Q 353 922 353 1747 
Q 353 2572 751 3078 
Q 1150 3584 1784 3584 
Q 2172 3584 2448 3432 
Q 2725 3281 2906 2969 
z
M 947 1747 
Q 947 1113 1208 752 
Q 1469 391 1925 391 
Q 2381 391 2643 752 
Q 2906 1113 2906 1747 
Q 2906 2381 2643 2742 
Q 2381 3103 1925 3103 
Q 1469 3103 1208 2742 
Q 947 2381 947 1747 
z
" transform="scale(0.015625)"/>
      </defs>
      <use xlink:href="#DejaVuSans-6d"/>
      <use xlink:href="#DejaVuSans-6f" x="97.412109"/>
      <use xlink:href="#DejaVuSans-64" x="158.59375"/>
      <use xlink:href="#DejaVuSans-65" x="222.070312"/>
      <use xlink:href="#DejaVuSans-6c" x="283.59375"/>
     </g>
    </g>
   </g>
  </g>
 </g>
 <defs>
  <clipPath id="p425da00c20">
   <rect x="63" y="51.84" width="390.6" height="332.64"/>
  </clipPath>
 </defs>
</svg>
