<?xml version="1.0" encoding="utf-8" standalone="no"?>
<!DOCTYPE svg PUBLIC "-//W3C//DTD SVG 1.1//EN"
  "http://www.w3.org/Graphics/SVG/1.1/DTD/svg11.dtd">
<svg xmlns:xlink="http://www.w3.org/1999/xlink" width="504pt" height="432pt" viewBox="0 0 504 432" xmlns="http://www.w3.org/2000/svg" version="1.1">
 <metadata>
  <rdf:RDF xmlns:dc="http://purl.org/dc/elements/1.1/" xmlns:cc="http://creativecommons.org/ns#" xmlns:rdf="http://www.w3.org/1999/02/22-rdf-syntax-ns#">
   <cc:Work>
    <dc:type rdf:resource="http://purl.org/dc/dcmitype/StillImage"/>
    <dc:date>2022-01-31T18:53:25.259655</dc:date>
    <dc:format>image/svg+xml</dc:format>
    <dc:creator>
     <cc:Agent>
      <dc:title>Matplotlib v3.5.1, https://matplotlib.org/</dc:title>
     </cc:Agent>
    </dc:creator>
   </cc:Work>
  </rdf:RDF>
 </metadata>
 <defs>
  <style type="text/css">*{stroke-linejoin: round; stroke-linecap: butt}</style>
 </defs>
 <g id="figure_1">
  <g id="patch_1">
   <path d="M 0 432 
L 504 432 
L 504 0 
L 0 0 
z
" style="fill: #ffffff"/>
  </g>
  <g id="axes_1">
   <g id="patch_2">
    <path d="M 63 384.48 
L 453.6 384.48 
L 453.6 51.84 
L 63 51.84 
z
" style="fill: #ffffff"/>
   </g>
   <g id="matplotlib.axis_1">
    <g id="xtick_1">
     <g id="line2d_1">
      <defs>
       <path id="mf1a464f2b5" d="M 0 0 
L 0 3.5 
" style="stroke: #000000; stroke-width: 0.8"/>
      </defs>
      <g>
       <use xlink:href="#mf1a464f2b5" x="80.754545" y="384.48" style="stroke: #000000; stroke-width: 0.8"/>
      </g>
     </g>
     <g id="text_1">
      <!-- 0 -->
      <g transform="translate(77.573295 399.078438)scale(0.1 -0.1)">
       <defs>
        <path id="DejaVuSans-30" d="M 2034 4250 
Q 1547 4250 1301 3770 
Q 1056 3291 1056 2328 
Q 1056 1369 1301 889 
Q 1547 409 2034 409 
Q 2525 409 2770 889 
Q 3016 1369 3016 2328 
Q 3016 3291 2770 3770 
Q 2525 4250 2034 4250 
z
M 2034 4750 
Q 2819 4750 3233 4129 
Q 3647 3509 3647 2328 
Q 3647 1150 3233 529 
Q 2819 -91 2034 -91 
Q 1250 -91 836 529 
Q 422 1150 422 2328 
Q 422 3509 836 4129 
Q 1250 4750 2034 4750 
z
" transform="scale(0.015625)"/>
       </defs>
       <use xlink:href="#DejaVuSans-30"/>
      </g>
     </g>
    </g>
    <g id="xtick_2">
     <g id="line2d_2">
      <g>
       <use xlink:href="#mf1a464f2b5" x="151.772727" y="384.48" style="stroke: #000000; stroke-width: 0.8"/>
      </g>
     </g>
     <g id="text_2">
      <!-- 200 -->
      <g transform="translate(142.228977 399.078438)scale(0.1 -0.1)">
       <defs>
        <path id="DejaVuSans-32" d="M 1228 531 
L 3431 531 
L 3431 0 
L 469 0 
L 469 531 
Q 828 903 1448 1529 
Q 2069 2156 2228 2338 
Q 2531 2678 2651 2914 
Q 2772 3150 2772 3378 
Q 2772 3750 2511 3984 
Q 2250 4219 1831 4219 
Q 1534 4219 1204 4116 
Q 875 4013 500 3803 
L 500 4441 
Q 881 4594 1212 4672 
Q 1544 4750 1819 4750 
Q 2544 4750 2975 4387 
Q 3406 4025 3406 3419 
Q 3406 3131 3298 2873 
Q 3191 2616 2906 2266 
Q 2828 2175 2409 1742 
Q 1991 1309 1228 531 
z
" transform="scale(0.015625)"/>
       </defs>
       <use xlink:href="#DejaVuSans-32"/>
       <use xlink:href="#DejaVuSans-30" x="63.623047"/>
       <use xlink:href="#DejaVuSans-30" x="127.246094"/>
      </g>
     </g>
    </g>
    <g id="xtick_3">
     <g id="line2d_3">
      <g>
       <use xlink:href="#mf1a464f2b5" x="222.790909" y="384.48" style="stroke: #000000; stroke-width: 0.8"/>
      </g>
     </g>
     <g id="text_3">
      <!-- 400 -->
      <g transform="translate(213.247159 399.078438)scale(0.1 -0.1)">
       <defs>
        <path id="DejaVuSans-34" d="M 2419 4116 
L 825 1625 
L 2419 1625 
L 2419 4116 
z
M 2253 4666 
L 3047 4666 
L 3047 1625 
L 3713 1625 
L 3713 1100 
L 3047 1100 
L 3047 0 
L 2419 0 
L 2419 1100 
L 313 1100 
L 313 1709 
L 2253 4666 
z
" transform="scale(0.015625)"/>
       </defs>
       <use xlink:href="#DejaVuSans-34"/>
       <use xlink:href="#DejaVuSans-30" x="63.623047"/>
       <use xlink:href="#DejaVuSans-30" x="127.246094"/>
      </g>
     </g>
    </g>
    <g id="xtick_4">
     <g id="line2d_4">
      <g>
       <use xlink:href="#mf1a464f2b5" x="293.809091" y="384.48" style="stroke: #000000; stroke-width: 0.8"/>
      </g>
     </g>
     <g id="text_4">
      <!-- 600 -->
      <g transform="translate(284.265341 399.078438)scale(0.1 -0.1)">
       <defs>
        <path id="DejaVuSans-36" d="M 2113 2584 
Q 1688 2584 1439 2293 
Q 1191 2003 1191 1497 
Q 1191 994 1439 701 
Q 1688 409 2113 409 
Q 2538 409 2786 701 
Q 3034 994 3034 1497 
Q 3034 2003 2786 2293 
Q 2538 2584 2113 2584 
z
M 3366 4563 
L 3366 3988 
Q 3128 4100 2886 4159 
Q 2644 4219 2406 4219 
Q 1781 4219 1451 3797 
Q 1122 3375 1075 2522 
Q 1259 2794 1537 2939 
Q 1816 3084 2150 3084 
Q 2853 3084 3261 2657 
Q 3669 2231 3669 1497 
Q 3669 778 3244 343 
Q 2819 -91 2113 -91 
Q 1303 -91 875 529 
Q 447 1150 447 2328 
Q 447 3434 972 4092 
Q 1497 4750 2381 4750 
Q 2619 4750 2861 4703 
Q 3103 4656 3366 4563 
z
" transform="scale(0.015625)"/>
       </defs>
       <use xlink:href="#DejaVuSans-36"/>
       <use xlink:href="#DejaVuSans-30" x="63.623047"/>
       <use xlink:href="#DejaVuSans-30" x="127.246094"/>
      </g>
     </g>
    </g>
    <g id="xtick_5">
     <g id="line2d_5">
      <g>
       <use xlink:href="#mf1a464f2b5" x="364.827273" y="384.48" style="stroke: #000000; stroke-width: 0.8"/>
      </g>
     </g>
     <g id="text_5">
      <!-- 800 -->
      <g transform="translate(355.283523 399.078438)scale(0.1 -0.1)">
       <defs>
        <path id="DejaVuSans-38" d="M 2034 2216 
Q 1584 2216 1326 1975 
Q 1069 1734 1069 1313 
Q 1069 891 1326 650 
Q 1584 409 2034 409 
Q 2484 409 2743 651 
Q 3003 894 3003 1313 
Q 3003 1734 2745 1975 
Q 2488 2216 2034 2216 
z
M 1403 2484 
Q 997 2584 770 2862 
Q 544 3141 544 3541 
Q 544 4100 942 4425 
Q 1341 4750 2034 4750 
Q 2731 4750 3128 4425 
Q 3525 4100 3525 3541 
Q 3525 3141 3298 2862 
Q 3072 2584 2669 2484 
Q 3125 2378 3379 2068 
Q 3634 1759 3634 1313 
Q 3634 634 3220 271 
Q 2806 -91 2034 -91 
Q 1263 -91 848 271 
Q 434 634 434 1313 
Q 434 1759 690 2068 
Q 947 2378 1403 2484 
z
M 1172 3481 
Q 1172 3119 1398 2916 
Q 1625 2713 2034 2713 
Q 2441 2713 2670 2916 
Q 2900 3119 2900 3481 
Q 2900 3844 2670 4047 
Q 2441 4250 2034 4250 
Q 1625 4250 1398 4047 
Q 1172 3844 1172 3481 
z
" transform="scale(0.015625)"/>
       </defs>
       <use xlink:href="#DejaVuSans-38"/>
       <use xlink:href="#DejaVuSans-30" x="63.623047"/>
       <use xlink:href="#DejaVuSans-30" x="127.246094"/>
      </g>
     </g>
    </g>
    <g id="text_6">
     <!-- time [ms] -->
     <g transform="translate(234.038281 412.756563)scale(0.1 -0.1)">
      <defs>
       <path id="DejaVuSans-74" d="M 1172 4494 
L 1172 3500 
L 2356 3500 
L 2356 3053 
L 1172 3053 
L 1172 1153 
Q 1172 725 1289 603 
Q 1406 481 1766 481 
L 2356 481 
L 2356 0 
L 1766 0 
Q 1100 0 847 248 
Q 594 497 594 1153 
L 594 3053 
L 172 3053 
L 172 3500 
L 594 3500 
L 594 4494 
L 1172 4494 
z
" transform="scale(0.015625)"/>
       <path id="DejaVuSans-69" d="M 603 3500 
L 1178 3500 
L 1178 0 
L 603 0 
L 603 3500 
z
M 603 4863 
L 1178 4863 
L 1178 4134 
L 603 4134 
L 603 4863 
z
" transform="scale(0.015625)"/>
       <path id="DejaVuSans-6d" d="M 3328 2828 
Q 3544 3216 3844 3400 
Q 4144 3584 4550 3584 
Q 5097 3584 5394 3201 
Q 5691 2819 5691 2113 
L 5691 0 
L 5113 0 
L 5113 2094 
Q 5113 2597 4934 2840 
Q 4756 3084 4391 3084 
Q 3944 3084 3684 2787 
Q 3425 2491 3425 1978 
L 3425 0 
L 2847 0 
L 2847 2094 
Q 2847 2600 2669 2842 
Q 2491 3084 2119 3084 
Q 1678 3084 1418 2786 
Q 1159 2488 1159 1978 
L 1159 0 
L 581 0 
L 581 3500 
L 1159 3500 
L 1159 2956 
Q 1356 3278 1631 3431 
Q 1906 3584 2284 3584 
Q 2666 3584 2933 3390 
Q 3200 3197 3328 2828 
z
" transform="scale(0.015625)"/>
       <path id="DejaVuSans-65" d="M 3597 1894 
L 3597 1613 
L 953 1613 
Q 991 1019 1311 708 
Q 1631 397 2203 397 
Q 2534 397 2845 478 
Q 3156 559 3463 722 
L 3463 178 
Q 3153 47 2828 -22 
Q 2503 -91 2169 -91 
Q 1331 -91 842 396 
Q 353 884 353 1716 
Q 353 2575 817 3079 
Q 1281 3584 2069 3584 
Q 2775 3584 3186 3129 
Q 3597 2675 3597 1894 
z
M 3022 2063 
Q 3016 2534 2758 2815 
Q 2500 3097 2075 3097 
Q 1594 3097 1305 2825 
Q 1016 2553 972 2059 
L 3022 2063 
z
" transform="scale(0.015625)"/>
       <path id="DejaVuSans-20" transform="scale(0.015625)"/>
       <path id="DejaVuSans-5b" d="M 550 4863 
L 1875 4863 
L 1875 4416 
L 1125 4416 
L 1125 -397 
L 1875 -397 
L 1875 -844 
L 550 -844 
L 550 4863 
z
" transform="scale(0.015625)"/>
       <path id="DejaVuSans-73" d="M 2834 3397 
L 2834 2853 
Q 2591 2978 2328 3040 
Q 2066 3103 1784 3103 
Q 1356 3103 1142 2972 
Q 928 2841 928 2578 
Q 928 2378 1081 2264 
Q 1234 2150 1697 2047 
L 1894 2003 
Q 2506 1872 2764 1633 
Q 3022 1394 3022 966 
Q 3022 478 2636 193 
Q 2250 -91 1575 -91 
Q 1294 -91 989 -36 
Q 684 19 347 128 
L 347 722 
Q 666 556 975 473 
Q 1284 391 1588 391 
Q 1994 391 2212 530 
Q 2431 669 2431 922 
Q 2431 1156 2273 1281 
Q 2116 1406 1581 1522 
L 1381 1569 
Q 847 1681 609 1914 
Q 372 2147 372 2553 
Q 372 3047 722 3315 
Q 1072 3584 1716 3584 
Q 2034 3584 2315 3537 
Q 2597 3491 2834 3397 
z
" transform="scale(0.015625)"/>
       <path id="DejaVuSans-5d" d="M 1947 4863 
L 1947 -844 
L 622 -844 
L 622 -397 
L 1369 -397 
L 1369 4416 
L 622 4416 
L 622 4863 
L 1947 4863 
z
" transform="scale(0.015625)"/>
      </defs>
      <use xlink:href="#DejaVuSans-74"/>
      <use xlink:href="#DejaVuSans-69" x="39.208984"/>
      <use xlink:href="#DejaVuSans-6d" x="66.992188"/>
      <use xlink:href="#DejaVuSans-65" x="164.404297"/>
      <use xlink:href="#DejaVuSans-20" x="225.927734"/>
      <use xlink:href="#DejaVuSans-5b" x="257.714844"/>
      <use xlink:href="#DejaVuSans-6d" x="296.728516"/>
      <use xlink:href="#DejaVuSans-73" x="394.140625"/>
      <use xlink:href="#DejaVuSans-5d" x="446.240234"/>
     </g>
    </g>
   </g>
   <g id="matplotlib.axis_2">
    <g id="ytick_1">
     <g id="line2d_6">
      <defs>
       <path id="m9f820416f9" d="M 0 0 
L -3.5 0 
" style="stroke: #000000; stroke-width: 0.8"/>
      </defs>
      <g>
       <use xlink:href="#m9f820416f9" x="63" y="377.900512" style="stroke: #000000; stroke-width: 0.8"/>
      </g>
     </g>
     <g id="text_7">
      <!-- −80 -->
      <g transform="translate(34.895313 381.699731)scale(0.1 -0.1)">
       <defs>
        <path id="DejaVuSans-2212" d="M 678 2272 
L 4684 2272 
L 4684 1741 
L 678 1741 
L 678 2272 
z
" transform="scale(0.015625)"/>
       </defs>
       <use xlink:href="#DejaVuSans-2212"/>
       <use xlink:href="#DejaVuSans-38" x="83.789062"/>
       <use xlink:href="#DejaVuSans-30" x="147.412109"/>
      </g>
     </g>
    </g>
    <g id="ytick_2">
     <g id="line2d_7">
      <g>
       <use xlink:href="#m9f820416f9" x="63" y="328.151709" style="stroke: #000000; stroke-width: 0.8"/>
      </g>
     </g>
     <g id="text_8">
      <!-- −60 -->
      <g transform="translate(34.895313 331.950927)scale(0.1 -0.1)">
       <use xlink:href="#DejaVuSans-2212"/>
       <use xlink:href="#DejaVuSans-36" x="83.789062"/>
       <use xlink:href="#DejaVuSans-30" x="147.412109"/>
      </g>
     </g>
    </g>
    <g id="ytick_3">
     <g id="line2d_8">
      <g>
       <use xlink:href="#m9f820416f9" x="63" y="278.402905" style="stroke: #000000; stroke-width: 0.8"/>
      </g>
     </g>
     <g id="text_9">
      <!-- −40 -->
      <g transform="translate(34.895313 282.202124)scale(0.1 -0.1)">
       <use xlink:href="#DejaVuSans-2212"/>
       <use xlink:href="#DejaVuSans-34" x="83.789062"/>
       <use xlink:href="#DejaVuSans-30" x="147.412109"/>
      </g>
     </g>
    </g>
    <g id="ytick_4">
     <g id="line2d_9">
      <g>
       <use xlink:href="#m9f820416f9" x="63" y="228.654102" style="stroke: #000000; stroke-width: 0.8"/>
      </g>
     </g>
     <g id="text_10">
      <!-- −20 -->
      <g transform="translate(34.895313 232.453321)scale(0.1 -0.1)">
       <use xlink:href="#DejaVuSans-2212"/>
       <use xlink:href="#DejaVuSans-32" x="83.789062"/>
       <use xlink:href="#DejaVuSans-30" x="147.412109"/>
      </g>
     </g>
    </g>
    <g id="ytick_5">
     <g id="line2d_10">
      <g>
       <use xlink:href="#m9f820416f9" x="63" y="178.905298" style="stroke: #000000; stroke-width: 0.8"/>
      </g>
     </g>
     <g id="text_11">
      <!-- 0 -->
      <g transform="translate(49.6375 182.704517)scale(0.1 -0.1)">
       <use xlink:href="#DejaVuSans-30"/>
      </g>
     </g>
    </g>
    <g id="ytick_6">
     <g id="line2d_11">
      <g>
       <use xlink:href="#m9f820416f9" x="63" y="129.156495" style="stroke: #000000; stroke-width: 0.8"/>
      </g>
     </g>
     <g id="text_12">
      <!-- 20 -->
      <g transform="translate(43.275 132.955714)scale(0.1 -0.1)">
       <use xlink:href="#DejaVuSans-32"/>
       <use xlink:href="#DejaVuSans-30" x="63.623047"/>
      </g>
     </g>
    </g>
    <g id="ytick_7">
     <g id="line2d_12">
      <g>
       <use xlink:href="#m9f820416f9" x="63" y="79.407691" style="stroke: #000000; stroke-width: 0.8"/>
      </g>
     </g>
     <g id="text_13">
      <!-- 40 -->
      <g transform="translate(43.275 83.20691)scale(0.1 -0.1)">
       <use xlink:href="#DejaVuSans-34"/>
       <use xlink:href="#DejaVuSans-30" x="63.623047"/>
      </g>
     </g>
    </g>
    <g id="text_14">
     <!-- voltage [mV] -->
     <g transform="translate(28.815625 250.624062)rotate(-90)scale(0.1 -0.1)">
      <defs>
       <path id="DejaVuSans-76" d="M 191 3500 
L 800 3500 
L 1894 563 
L 2988 3500 
L 3597 3500 
L 2284 0 
L 1503 0 
L 191 3500 
z
" transform="scale(0.015625)"/>
       <path id="DejaVuSans-6f" d="M 1959 3097 
Q 1497 3097 1228 2736 
Q 959 2375 959 1747 
Q 959 1119 1226 758 
Q 1494 397 1959 397 
Q 2419 397 2687 759 
Q 2956 1122 2956 1747 
Q 2956 2369 2687 2733 
Q 2419 3097 1959 3097 
z
M 1959 3584 
Q 2709 3584 3137 3096 
Q 3566 2609 3566 1747 
Q 3566 888 3137 398 
Q 2709 -91 1959 -91 
Q 1206 -91 779 398 
Q 353 888 353 1747 
Q 353 2609 779 3096 
Q 1206 3584 1959 3584 
z
" transform="scale(0.015625)"/>
       <path id="DejaVuSans-6c" d="M 603 4863 
L 1178 4863 
L 1178 0 
L 603 0 
L 603 4863 
z
" transform="scale(0.015625)"/>
       <path id="DejaVuSans-61" d="M 2194 1759 
Q 1497 1759 1228 1600 
Q 959 1441 959 1056 
Q 959 750 1161 570 
Q 1363 391 1709 391 
Q 2188 391 2477 730 
Q 2766 1069 2766 1631 
L 2766 1759 
L 2194 1759 
z
M 3341 1997 
L 3341 0 
L 2766 0 
L 2766 531 
Q 2569 213 2275 61 
Q 1981 -91 1556 -91 
Q 1019 -91 701 211 
Q 384 513 384 1019 
Q 384 1609 779 1909 
Q 1175 2209 1959 2209 
L 2766 2209 
L 2766 2266 
Q 2766 2663 2505 2880 
Q 2244 3097 1772 3097 
Q 1472 3097 1187 3025 
Q 903 2953 641 2809 
L 641 3341 
Q 956 3463 1253 3523 
Q 1550 3584 1831 3584 
Q 2591 3584 2966 3190 
Q 3341 2797 3341 1997 
z
" transform="scale(0.015625)"/>
       <path id="DejaVuSans-67" d="M 2906 1791 
Q 2906 2416 2648 2759 
Q 2391 3103 1925 3103 
Q 1463 3103 1205 2759 
Q 947 2416 947 1791 
Q 947 1169 1205 825 
Q 1463 481 1925 481 
Q 2391 481 2648 825 
Q 2906 1169 2906 1791 
z
M 3481 434 
Q 3481 -459 3084 -895 
Q 2688 -1331 1869 -1331 
Q 1566 -1331 1297 -1286 
Q 1028 -1241 775 -1147 
L 775 -588 
Q 1028 -725 1275 -790 
Q 1522 -856 1778 -856 
Q 2344 -856 2625 -561 
Q 2906 -266 2906 331 
L 2906 616 
Q 2728 306 2450 153 
Q 2172 0 1784 0 
Q 1141 0 747 490 
Q 353 981 353 1791 
Q 353 2603 747 3093 
Q 1141 3584 1784 3584 
Q 2172 3584 2450 3431 
Q 2728 3278 2906 2969 
L 2906 3500 
L 3481 3500 
L 3481 434 
z
" transform="scale(0.015625)"/>
       <path id="DejaVuSans-56" d="M 1831 0 
L 50 4666 
L 709 4666 
L 2188 738 
L 3669 4666 
L 4325 4666 
L 2547 0 
L 1831 0 
z
" transform="scale(0.015625)"/>
      </defs>
      <use xlink:href="#DejaVuSans-76"/>
      <use xlink:href="#DejaVuSans-6f" x="59.179688"/>
      <use xlink:href="#DejaVuSans-6c" x="120.361328"/>
      <use xlink:href="#DejaVuSans-74" x="148.144531"/>
      <use xlink:href="#DejaVuSans-61" x="187.353516"/>
      <use xlink:href="#DejaVuSans-67" x="248.632812"/>
      <use xlink:href="#DejaVuSans-65" x="312.109375"/>
      <use xlink:href="#DejaVuSans-20" x="373.632812"/>
      <use xlink:href="#DejaVuSans-5b" x="405.419922"/>
      <use xlink:href="#DejaVuSans-6d" x="444.433594"/>
      <use xlink:href="#DejaVuSans-56" x="541.845703"/>
      <use xlink:href="#DejaVuSans-5d" x="610.253906"/>
     </g>
    </g>
   </g>
   <g id="line2d_13">
    <path d="M 80.754545 340.58891 
L 81.988486 340.459065 
L 83.870468 340.517271 
L 86.089786 340.530455 
L 151.772727 340.52349 
L 152.314241 298.332027 
L 152.420768 252.243989 
L 152.562805 80.21412 
L 152.678209 104.110957 
L 153.565936 365.689171 
L 153.610323 365.593902 
L 153.8145 364.28725 
L 154.293873 359.782495 
L 154.959668 351.13889 
L 157.42755 314.284479 
L 157.613973 303.739971 
L 157.738255 282.924823 
L 157.835905 223.644646 
L 157.969064 103.299306 
L 158.031205 115.762873 
L 158.883423 365.286952 
L 158.945564 365.11308 
L 159.203005 363.23755 
L 159.717886 357.861694 
L 160.534595 346.559264 
L 161.8218 329.378514 
L 162.514227 319.554867 
L 162.771668 312.428102 
L 162.940336 301.064729 
L 163.064618 274.563044 
L 163.162268 194.583957 
L 163.268795 104.171402 
L 163.322059 113.186383 
L 163.863573 298.068359 
L 164.147645 365.119547 
L 164.183155 365.256854 
L 164.245295 365.084972 
L 164.493859 363.28108 
L 165.008741 357.92388 
L 165.834327 346.504789 
L 167.112655 329.449158 
L 167.813959 319.521286 
L 168.0714 312.385318 
L 168.240068 300.984633 
L 168.36435 274.329722 
L 168.462 193.8774 
L 168.568527 104.244284 
L 168.621791 113.39682 
L 169.172182 301.8132 
L 169.4385 365.038208 
L 169.482886 365.254864 
L 169.545027 365.079251 
L 169.802468 363.19601 
L 170.31735 357.803239 
L 171.151814 346.230921 
L 172.430141 329.219069 
L 173.113691 319.503874 
L 173.371132 312.350743 
L 173.5398 300.893842 
L 173.664082 274.00934 
L 173.761732 192.786384 
L 173.868259 104.260204 
L 173.921523 113.620441 
L 174.480791 305.671219 
L 174.729355 364.934482 
L 174.782618 365.254864 
L 174.844759 365.075271 
L 175.1022 363.189045 
L 175.617082 357.793041 
L 176.451545 346.218733 
L 177.729873 329.208871 
L 178.413423 319.487955 
L 178.670864 312.316665 
L 178.839532 300.801807 
L 178.963814 273.6805 
L 179.061464 191.663429 
L 179.167991 104.276621 
L 179.221255 113.846549 
L 179.7894 309.626996 
L 180.029086 364.946173 
L 180.08235 365.255113 
L 180.144491 365.071042 
L 180.401932 363.18208 
L 180.916814 357.783091 
L 181.751277 346.207042 
L 183.029605 329.198921 
L 183.713155 319.471786 
L 183.970595 312.282338 
L 184.139264 300.708776 
L 184.263545 273.343949 
L 184.361195 190.520724 
L 184.467723 104.299257 
L 184.520986 114.07614 
L 185.098009 313.669832 
L 185.328818 364.957615 
L 185.382082 365.255113 
L 185.444223 365.067062 
L 185.701664 363.174866 
L 186.216545 357.773141 
L 187.051009 346.195102 
L 188.329336 329.188971 
L 189.012886 319.455867 
L 189.270327 312.247763 
L 189.438995 300.614254 
L 189.563277 273.002424 
L 189.660927 189.373466 
L 189.767455 104.327365 
L 189.820718 114.30797 
L 190.406618 317.781073 
L 190.619673 364.830755 
L 190.681814 365.254864 
L 190.743955 365.062833 
L 191.010273 363.090791 
L 191.525155 357.654242 
L 192.368495 345.924469 
L 193.637945 329.069574 
L 194.312618 319.43945 
L 194.570059 312.213187 
L 194.738727 300.519233 
L 194.863009 272.657665 
L 194.969536 175.561806 
L 195.058309 104.314679 
L 195.12045 114.542286 
L 195.715227 321.936093 
L 195.919405 364.845431 
L 195.981545 365.254864 
L 196.043686 365.058605 
L 196.310005 363.083577 
L 196.833764 357.534845 
L 197.703736 345.395888 
L 198.955432 328.840978 
L 199.61235 319.423281 
L 199.869791 312.178114 
L 200.038459 300.423218 
L 200.162741 272.305941 
L 200.269268 174.364576 
L 200.358041 104.286819 
L 200.420182 114.780583 
L 201.023836 326.099819 
L 201.219136 364.859361 
L 201.281277 365.254366 
L 201.343418 365.054376 
L 201.609736 363.076364 
L 202.133495 357.524397 
L 202.994591 345.512797 
L 204.255164 328.83078 
L 204.912082 319.406615 
L 205.169523 312.142544 
L 205.338191 300.325711 
L 205.462473 271.947003 
L 205.569 173.159312 
L 205.657773 104.265676 
L 205.719914 115.020621 
L 206.332445 330.226731 
L 206.518868 364.873291 
L 206.581009 365.254118 
L 206.634273 365.094175 
L 206.873959 363.37411 
L 207.388841 358.056461 
L 208.187795 347.05302 
L 209.510509 329.366077 
L 210.202936 319.564817 
L 210.460377 312.479094 
L 210.629045 301.238601 
L 210.753327 275.232912 
L 210.850977 197.010555 
L 210.957505 104.251249 
L 211.019645 115.261654 
L 211.641055 334.265588 
L 211.827477 365.011343 
L 211.880741 365.25362 
L 211.934005 365.090195 
L 212.182568 363.291527 
L 212.69745 357.938805 
L 213.514159 346.652294 
L 214.810241 329.355879 
L 215.502668 319.548648 
L 215.760109 312.445017 
L 215.928777 301.147312 
L 216.053059 274.911286 
L 216.150709 195.893196 
L 216.257236 104.245279 
L 216.319377 115.50219 
L 216.949664 338.156193 
L 217.127209 365.021293 
L 217.171595 365.254118 
L 217.233736 365.086215 
L 217.4823 363.284562 
L 217.997182 357.928855 
L 218.822768 346.510758 
L 220.101095 329.45463 
L 220.8024 319.53248 
L 221.059841 312.411187 
L 221.228509 301.056272 
L 221.352791 274.588416 
L 221.450441 194.776386 
L 221.556968 104.245777 
L 221.610232 113.221456 
L 222.151745 298.120844 
L 222.426941 365.030745 
L 222.471327 365.254366 
L 222.533468 365.082235 
L 222.782032 363.277598 
L 223.296914 357.918905 
L 224.1225 346.49857 
L 225.418582 329.22678 
L 226.111009 319.340947 
L 226.36845 312.001008 
L 226.537118 299.933939 
L 226.652523 274.263059 
L 226.750173 193.655122 
L 226.8567 104.251498 
L 226.909964 113.446569 
L 227.460355 301.884589 
L 227.726673 365.039949 
L 227.771059 365.254864 
L 227.8332 365.078256 
L 228.090641 363.194268 
L 228.605523 357.800752 
L 229.439986 346.227936 
L 230.718314 329.216582 
L 231.401864 319.500143 
L 231.659305 312.342783 
L 231.827973 300.872947 
L 231.952255 273.935463 
L 232.049905 192.53366 
L 232.156432 104.263686 
L 232.209695 113.671434 
L 232.768964 305.745594 
L 233.017527 364.937218 
L 233.070791 365.254864 
L 233.132932 365.074276 
L 233.390373 363.187304 
L 233.905255 357.790802 
L 234.739718 346.215997 
L 236.018045 329.206632 
L 236.701595 319.484223 
L 236.959036 312.308954 
L 237.127705 300.780912 
L 237.251986 273.604882 
L 237.349636 191.40578 
L 237.456164 104.281098 
L 237.509427 113.898537 
L 238.077573 309.703609 
L 238.317259 364.94866 
L 238.370523 365.255113 
L 238.432664 365.070296 
L 238.698982 363.103477 
L 239.213864 357.672151 
L 240.057205 345.945612 
L 241.317777 329.196682 
L 242.001327 319.468304 
L 242.258768 312.274627 
L 242.427436 300.687384 
L 242.551718 273.26659 
L 242.649368 190.260413 
L 242.755895 104.305226 
L 242.809159 114.128625 
L 243.386182 313.748186 
L 243.616991 364.960102 
L 243.670255 365.255113 
L 243.732395 365.066067 
L 243.989836 363.173374 
L 244.504718 357.770903 
L 245.348059 346.063019 
L 246.617509 329.186484 
L 247.301059 319.452135 
L 247.5585 312.240051 
L 247.727168 300.592613 
L 247.85145 272.924567 
L 247.9491 189.112037 
L 248.055627 104.334827 
L 248.108891 114.360952 
L 248.694791 317.861169 
L 248.907845 364.834238 
L 248.969986 365.254864 
L 249.032127 365.062087 
L 249.298445 363.089298 
L 249.822205 357.542804 
L 250.692177 345.40534 
L 251.943873 328.848938 
L 252.600791 319.435718 
L 252.858232 312.205227 
L 253.0269 300.497344 
L 253.151182 272.578067 
L 253.257709 175.289232 
L 253.346482 104.307714 
L 253.408623 114.596513 
L 254.0034 322.017681 
L 254.207577 364.848665 
L 254.269718 365.254615 
L 254.331859 365.057859 
L 254.598177 363.082085 
L 255.121936 357.532357 
L 255.983032 345.52225 
L 257.22585 329.057137 
L 257.900523 319.41955 
L 258.157964 312.170154 
L 258.326632 300.40108 
L 258.450914 272.224601 
L 258.557441 174.08954 
L 258.646214 104.281347 
L 258.708355 114.835556 
L 259.312009 326.181407 
L 259.507309 364.862595 
L 259.56945 365.254366 
L 259.631591 365.053381 
L 259.897909 363.074623 
L 260.421668 357.522159 
L 261.291641 345.381212 
L 262.525582 329.046938 
L 263.200255 319.402884 
L 263.457695 312.134584 
L 263.626364 300.303324 
L 263.750645 271.86442 
L 263.857173 172.883778 
L 263.945945 104.261696 
L 264.008086 115.075594 
L 264.620618 330.307076 
L 264.807041 364.876524 
L 264.869182 365.253869 
L 264.922445 365.093429 
L 265.171009 363.297 
L 265.685891 357.946765 
L 266.511477 346.53215 
L 267.807559 329.254888 
L 268.499986 319.386467 
L 268.757427 312.099014 
L 268.926095 300.205567 
L 269.050377 271.504239 
L 269.156905 171.686996 
L 269.245677 104.249259 
L 269.298941 112.824709 
L 269.8227 290.956767 
L 270.133405 365.171286 
L 270.168914 365.25362 
L 270.222177 365.089449 
L 270.470741 363.290035 
L 270.985623 357.936566 
L 271.802332 346.649558 
L 273.098414 329.35364 
L 273.790841 319.544917 
L 274.048282 312.437305 
L 274.21695 301.126666 
L 274.341232 274.837657 
L 274.438882 195.637587 
L 274.545409 104.24503 
L 274.598673 113.04833 
L 275.131309 294.526492 
L 275.424259 365.112582 
L 275.459768 365.254118 
L 275.521909 365.085469 
L 275.770473 363.28307 
L 276.285355 357.926616 
L 277.110941 346.508022 
L 278.389268 329.452391 
L 279.090573 319.528749 
L 279.348014 312.403228 
L 279.516682 301.035377 
L 279.640964 274.51429 
L 279.738614 194.520677 
L 279.845141 104.246274 
L 279.898405 113.272946 
L 280.439918 298.192731 
L 280.715114 365.032735 
L 280.7595 365.254615 
L 280.821641 365.081489 
L 281.079082 363.199741 
L 281.593964 357.808463 
L 282.428427 346.23714 
L 283.706755 329.224293 
L 284.390305 319.51258 
L 284.647745 312.36915 
L 284.816414 300.943839 
L 284.940695 274.188435 
L 285.038345 193.399314 
L 285.144873 104.253736 
L 285.198136 113.49781 
L 285.748527 301.957471 
L 286.014845 365.041939 
L 286.059232 365.254864 
L 286.121373 365.077261 
L 286.378814 363.192776 
L 286.902573 357.689812 
L 287.754791 345.837408 
L 289.006486 329.214343 
L 289.690036 319.496661 
L 289.947477 312.335072 
L 290.116145 300.852053 
L 290.240427 273.860342 
L 290.338077 192.277006 
L 290.444605 104.267169 
L 290.497868 113.722924 
L 291.057136 305.820715 
L 291.3057 364.939954 
L 291.358964 365.255113 
L 291.421105 365.073281 
L 291.678545 363.185811 
L 292.193427 357.788563 
L 293.027891 346.213261 
L 294.315095 329.095195 
L 294.989768 319.480492 
L 295.247209 312.300994 
L 295.415877 300.759769 
L 295.540159 273.528269 
L 295.637809 191.145419 
L 295.744336 104.286073 
L 295.7976 113.950773 
L 296.365745 309.780719 
L 296.605432 364.951396 
L 296.658695 365.255113 
L 296.720836 365.069301 
L 296.978277 363.178846 
L 297.493159 357.778614 
L 298.327623 346.20157 
L 299.60595 329.194444 
L 300.2895 319.464573 
L 300.546941 312.266667 
L 300.715609 300.665744 
L 300.839891 273.188982 
L 300.937541 189.999729 
L 301.044068 104.311445 
L 301.097332 114.18111 
L 301.674355 313.826541 
L 301.905164 364.96259 
L 301.958427 365.255113 
L 302.020568 365.065321 
L 302.286886 363.094771 
L 302.810645 357.550515 
L 303.671741 345.543642 
L 304.914559 329.075295 
L 305.589232 319.448404 
L 305.846673 312.232092 
L 306.015341 300.571221 
L 306.139623 272.846461 
L 306.24615 176.210033 
L 306.334923 104.332339 
L 306.397064 114.414183 
L 306.982964 317.941264 
L 307.196018 364.837471 
L 307.258159 365.254864 
L 307.3203 365.061092 
L 307.586618 363.087557 
L 308.110377 357.540317 
L 308.971473 345.531702 
L 310.214291 329.065097 
L 310.888964 319.432236 
L 311.146405 312.197267 
L 311.315073 300.475703 
L 311.439355 272.49822 
L 311.545882 175.017628 
L 311.634655 104.301246 
L 311.696795 114.65049 
L 312.291573 322.098772 
L 312.49575 364.851899 
L 312.557891 365.254615 
L 312.620032 365.056864 
L 312.88635 363.080344 
L 313.410109 357.530118 
L 314.280082 345.390415 
L 315.531777 328.836252 
L 316.188695 319.41557 
L 316.446136 312.161946 
L 316.614805 300.378942 
L 316.739086 272.143511 
L 316.845614 173.815548 
L 316.934386 104.276372 
L 316.996527 114.890031 
L 317.600182 326.262747 
L 317.795482 364.865828 
L 317.857623 365.254366 
L 317.910886 365.096414 
L 318.15945 363.302472 
L 318.674332 357.954476 
L 319.491041 346.67095 
L 320.796 329.2626 
L 321.488427 319.399153 
L 321.745868 312.126375 
L 321.914536 300.280937 
L 322.038818 271.782086 
L 322.145345 172.609562 
L 322.234118 104.258214 
L 322.296259 115.130566 
L 322.908791 330.387171 
L 323.095214 364.879758 
L 323.157355 365.253869 
L 323.210618 365.092434 
L 323.459182 363.295507 
L 323.974064 357.944277 
L 324.790773 346.658761 
L 326.095732 329.252401 
L 326.779282 319.557354 
L 327.036723 312.463672 
L 327.205391 301.197061 
L 327.329673 275.086401 
L 327.427323 196.501127 
L 327.53385 104.247518 
L 327.595991 115.37135 
L 328.2174 334.420307 
L 328.403823 365.015821 
L 328.457086 365.253371 
L 328.51035 365.088454 
L 328.758914 363.288294 
L 329.273795 357.934327 
L 329.318182 357.389329 
L 329.335936 358.243516 
L 329.531236 362.03139 
L 329.620009 362.20974 
L 329.664395 362.155265 
L 329.815309 361.579174 
L 330.214786 358.904927 
L 332.176664 344.895415 
L 332.869091 341.83661 
L 333.428359 340.265045 
L 333.889977 339.559607 
L 334.262823 339.344195 
L 334.626791 339.385735 
L 335.115041 339.69567 
L 336.482141 340.663782 
L 337.121305 340.779448 
L 338.133314 340.669254 
L 339.9354 340.478716 
L 435.845455 340.52349 
L 435.845455 340.52349 
" clip-path="url(#pf736cf090d)" style="fill: none; stroke: #1f77b4; stroke-width: 1.5; stroke-linecap: square"/>
   </g>
   <g id="line2d_14">
    <path d="M 80.754545 340.58891 
L 81.029741 345.055343 
L 81.287182 346.534724 
L 81.420341 346.619308 
L 81.446973 346.60042 
L 81.615641 346.297612 
L 82.050627 344.894415 
L 82.769686 342.759962 
L 83.195795 342.119498 
L 83.497623 342.007501 
L 83.790573 342.143235 
L 84.394227 342.762031 
L 84.891355 343.094411 
L 85.299709 343.104383 
L 86.036523 342.839402 
L 86.773336 342.676807 
L 87.598923 342.760028 
L 88.788477 342.840356 
L 92.694477 342.79752 
L 103.835455 342.794645 
L 151.772727 342.794645 
L 152.216591 309.538962 
L 152.287609 263.906515 
L 152.394136 66.96 
L 152.500664 81.021863 
L 152.784736 166.710977 
L 153.415023 368.958042 
L 153.512673 368.780949 
L 153.91215 367.552359 
L 154.356014 365.393855 
L 154.870895 361.67217 
L 155.66985 353.969399 
L 156.957055 341.912924 
L 158.199873 330.802058 
L 158.395173 325.933829 
L 158.528332 315.953719 
L 158.617105 288.607377 
L 158.679245 179.804103 
L 158.750264 71.240951 
L 158.812405 77.292044 
L 159.007705 130.983541 
L 159.735641 368.926588 
L 159.833291 368.761744 
L 160.223891 367.55637 
L 160.667755 365.400099 
L 161.182636 361.681251 
L 161.981591 353.981817 
L 163.268795 341.935389 
L 164.529368 330.741437 
L 164.724668 325.884778 
L 164.857827 315.90402 
L 164.9466 288.514692 
L 165.008741 179.570047 
L 165.079759 71.298649 
L 165.1419 77.37229 
L 165.3372 131.149062 
L 166.065136 368.925867 
L 166.153909 368.779918 
L 166.544509 367.586123 
L 166.979495 365.498254 
L 167.494377 361.821294 
L 168.275577 354.334155 
L 169.598291 341.926807 
L 170.858864 330.730545 
L 171.054164 325.860641 
L 171.187323 315.824597 
L 171.276095 288.142862 
L 171.338236 177.598832 
L 171.409255 71.294496 
L 171.471395 77.469597 
L 171.666695 131.339141 
L 172.394632 368.926033 
L 172.483405 368.778538 
L 172.874005 367.58386 
L 173.308991 365.494778 
L 173.823873 361.816322 
L 174.605073 354.328078 
L 175.927786 341.921959 
L 177.188359 330.72118 
L 177.383659 325.837038 
L 177.516818 315.742802 
L 177.605591 287.753823 
L 177.667732 175.53819 
L 177.73875 71.290091 
L 177.800891 77.56863 
L 177.996191 131.531253 
L 178.724127 368.926195 
L 178.8129 368.777194 
L 179.2035 367.581655 
L 179.638486 365.491392 
L 180.153368 361.811479 
L 180.934568 354.322159 
L 182.257282 341.917222 
L 183.517855 330.711818 
L 183.713155 325.8133 
L 183.846314 315.659667 
L 183.935086 287.354425 
L 183.997227 173.431357 
L 184.068245 71.287569 
L 184.130386 77.669834 
L 184.325686 131.72658 
L 185.053623 368.926314 
L 185.142395 368.775828 
L 185.532995 367.579417 
L 185.967982 365.487956 
L 186.482864 361.806566 
L 187.264064 354.316157 
L 188.586777 341.912419 
L 189.84735 330.702336 
L 190.04265 325.789115 
L 190.175809 315.574677 
L 190.264582 286.944268 
L 190.326723 171.289557 
L 190.397741 71.287069 
L 190.459882 77.772697 
L 190.655182 131.923989 
L 191.383118 368.926385 
L 191.471891 368.774448 
L 191.862491 367.577158 
L 192.297477 365.484488 
L 192.812359 361.801606 
L 193.593559 354.310099 
L 194.916273 341.907572 
L 196.176845 330.692752 
L 196.372145 325.764587 
L 196.505305 315.488305 
L 196.594077 286.524361 
L 196.656218 169.126579 
L 196.727236 71.288786 
L 196.789377 77.876728 
L 196.993555 135.079867 
L 197.712614 368.926423 
L 197.801386 368.773057 
L 198.191986 367.57488 
L 198.626973 365.480992 
L 199.141855 361.796609 
L 199.923055 354.303998 
L 201.245768 341.902693 
L 202.506341 330.683115 
L 202.701641 325.739909 
L 202.8348 315.401285 
L 202.923573 286.099218 
L 202.985714 166.960042 
L 203.056732 71.292709 
L 203.118873 77.981304 
L 203.32305 135.279168 
L 204.042109 368.926416 
L 204.130882 368.771657 
L 204.521482 367.572591 
L 204.956468 365.477478 
L 205.47135 361.791587 
L 206.25255 354.297868 
L 207.575264 341.897785 
L 208.835836 330.673476 
L 209.031136 325.715226 
L 209.164295 315.31415 
L 209.253068 285.670186 
L 209.315209 164.801054 
L 209.386227 71.298547 
L 209.448368 78.085705 
L 209.652545 135.477017 
L 210.371605 368.926381 
L 210.460377 368.770264 
L 210.850977 367.570314 
L 211.294841 365.42165 
L 211.809723 361.711937 
L 212.608677 354.019103 
L 213.895882 341.965681 
L 215.165332 330.663912 
L 215.360632 325.690717 
L 215.493791 315.227508 
L 215.582564 285.241612 
L 215.644705 162.657523 
L 215.715723 71.305993 
L 215.777864 78.18967 
L 215.982041 135.673019 
L 216.7011 368.926317 
L 216.789873 368.768885 
L 217.180473 367.568061 
L 217.624336 365.418167 
L 218.139218 361.706976 
L 218.938173 354.013079 
L 220.225377 341.960853 
L 221.494827 330.654456 
L 221.690127 325.666471 
L 221.823286 315.141677 
L 221.912059 284.812538 
L 221.9742 160.53841 
L 222.045218 71.314755 
L 222.107359 78.29232 
L 222.311536 135.865365 
L 223.030595 368.92623 
L 223.110491 368.788177 
L 223.501091 367.599711 
L 223.936077 365.519133 
L 224.450959 361.851187 
L 225.232159 354.370731 
L 226.554873 341.956128 
L 227.824323 330.645086 
L 228.019623 325.642383 
L 228.152782 315.055566 
L 228.241555 284.373054 
L 228.303695 158.392654 
L 228.374714 71.325011 
L 228.436855 78.396396 
L 228.641032 136.059406 
L 229.360091 368.926116 
L 229.439986 368.786847 
L 229.830586 367.597517 
L 230.265573 365.515762 
L 230.780455 361.846357 
L 231.561655 354.364817 
L 232.884368 341.951384 
L 234.153818 330.635662 
L 234.349118 325.618044 
L 234.4734 316.238894 
L 234.562173 290.077321 
L 234.624314 188.015916 
L 234.704209 71.337424 
L 234.757473 76.964818 
L 234.943895 127.408731 
L 235.689586 368.925951 
L 235.778359 368.764804 
L 236.168959 367.5614 
L 236.612823 365.407872 
L 237.127705 361.692318 
L 237.926659 353.995287 
L 239.213864 341.946591 
L 240.483314 330.626143 
L 240.678614 325.593317 
L 240.802895 316.15968 
L 240.891668 289.711301 
L 240.953809 186.022585 
L 241.024827 71.335276 
L 241.086968 77.062129 
L 241.273391 127.601997 
L 242.019082 368.92575 
L 242.107855 368.763424 
L 242.498455 367.559151 
L 242.942318 365.404397 
L 243.4572 361.687373 
L 244.256155 353.989287 
L 245.543359 341.941784 
L 246.803932 330.759959 
L 246.999232 325.934978 
L 247.132391 316.079867 
L 247.221164 289.342051 
L 247.283305 184.019327 
L 247.354323 71.321651 
L 247.416464 77.159023 
L 247.611764 130.72965 
L 248.348577 368.925525 
L 248.43735 368.762063 
L 248.82795 367.556935 
L 249.271814 365.400972 
L 249.786695 361.6825 
L 250.58565 353.983377 
L 251.872855 341.937048 
L 253.133427 330.750676 
L 253.328727 325.911548 
L 253.461886 315.999889 
L 253.550659 288.97153 
L 253.6128 182.019763 
L 253.683818 71.310811 
L 253.745959 77.256026 
L 253.941259 130.921168 
L 254.669195 368.925546 
L 254.766845 368.760695 
L 255.157445 367.554709 
L 255.601309 365.397533 
L 256.116191 361.677609 
L 256.915145 353.977448 
L 258.20235 341.932303 
L 259.462923 330.741447 
L 259.658223 325.888274 
L 259.791382 315.920003 
L 259.880155 288.595086 
L 259.942295 180.006691 
L 260.013314 71.30223 
L 260.075455 77.353461 
L 260.270755 131.112478 
L 260.998691 368.925792 
L 261.087464 368.780127 
L 261.478064 367.586468 
L 261.91305 365.498784 
L 262.427932 361.822053 
L 263.209132 354.335084 
L 264.531845 341.927563 
L 265.792418 330.732228 
L 265.987718 325.865008 
L 266.120877 315.839869 
L 266.20965 288.215497 
L 266.271791 177.986465 
L 266.342809 71.295611 
L 266.40495 77.45104 
L 266.60025 131.303028 
L 267.328186 368.925997 
L 267.416959 368.77879 
L 267.807559 367.584274 
L 268.242545 365.495414 
L 268.757427 361.817231 
L 269.538627 354.32919 
L 270.861341 341.922848 
L 272.121914 330.722942 
L 272.317214 325.841507 
L 272.450373 315.758327 
L 272.539145 287.827866 
L 272.601286 175.930388 
L 272.672305 71.290708 
L 272.734445 77.549816 
L 272.929745 131.494834 
L 273.657682 368.926168 
L 273.746455 368.77745 
L 274.137055 367.582074 
L 274.572041 365.492036 
L 275.086923 361.812401 
L 275.868123 354.323285 
L 277.190836 341.918123 
L 278.451409 330.713588 
L 278.646709 325.817785 
L 278.779868 315.675393 
L 278.868641 287.430247 
L 278.930782 173.829092 
L 279.0018 71.287858 
L 279.063941 77.650831 
L 279.259241 131.690014 
L 279.987177 368.926297 
L 280.07595 368.776084 
L 280.46655 367.579835 
L 280.901536 365.488598 
L 281.416418 361.807483 
L 282.197618 354.317278 
L 283.520332 341.913316 
L 284.780905 330.704113 
L 284.976205 325.793662 
L 285.109364 315.590676 
L 285.198136 287.021524 
L 285.260277 171.691777 
L 285.331295 71.286997 
L 285.393436 77.753325 
L 285.588736 131.886884 
L 286.316673 368.926375 
L 286.405445 368.774709 
L 286.796045 367.577584 
L 287.231032 365.485141 
L 287.745914 361.802541 
L 288.527114 354.311241 
L 289.849827 341.908485 
L 291.1104 330.694556 
L 291.3057 325.769204 
L 291.438859 315.504569 
L 291.527632 286.60356 
L 291.589773 169.534477 
L 291.660791 71.288347 
L 291.722932 77.857038 
L 291.927109 135.042198 
L 292.646168 368.926419 
L 292.734941 368.77332 
L 293.125541 367.575311 
L 293.560527 365.481652 
L 294.075409 361.797553 
L 294.856609 354.305151 
L 296.179323 341.903615 
L 297.439895 330.684936 
L 297.635195 325.744572 
L 297.768355 315.417739 
L 297.857127 286.180183 
L 297.919268 167.367838 
L 297.990286 71.291887 
L 298.052427 77.961653 
L 298.256605 135.241833 
L 298.975664 368.926418 
L 299.064436 368.771917 
L 299.455036 367.573017 
L 299.890023 365.478131 
L 300.404905 361.792521 
L 301.186105 354.299008 
L 302.508818 341.898699 
L 303.769391 330.675278 
L 303.964691 325.719844 
L 304.09785 315.330468 
L 304.186623 285.750575 
L 304.248764 165.204854 
L 304.319782 71.297288 
L 304.381923 78.066131 
L 304.5861 135.439991 
L 305.305159 368.926391 
L 305.393932 368.770525 
L 305.784532 367.570742 
L 306.228395 365.422311 
L 306.743277 361.712878 
L 307.542232 354.020247 
L 308.829436 341.966598 
L 310.098886 330.665702 
L 310.294186 325.695304 
L 310.427345 315.243731 
L 310.516118 285.322269 
L 310.578259 163.058231 
L 310.649277 71.304478 
L 310.711418 78.170213 
L 310.915595 135.636418 
L 311.634655 368.926331 
L 311.723427 368.769142 
L 312.114027 367.568482 
L 312.557891 365.418817 
L 313.072773 361.707901 
L 313.871727 354.014202 
L 315.158932 341.961753 
L 316.428382 330.656225 
L 316.623682 325.671009 
L 316.756841 315.157752 
L 316.845614 284.893595 
L 316.907755 160.938346 
L 316.978773 71.313012 
L 317.040914 78.273027 
L 317.245091 135.8293 
L 317.96415 368.926247 
L 318.044045 368.788425 
L 318.434645 367.600119 
L 318.869632 365.519762 
L 319.384514 361.852087 
L 320.165714 354.371834 
L 321.488427 341.957012 
L 322.757877 330.646842 
L 322.953177 325.6469 
L 323.086336 315.071738 
L 323.175109 284.455878 
L 323.23725 158.793838 
L 323.308268 71.322949 
L 323.370409 78.376904 
L 323.574586 136.023144 
L 324.293645 368.92614 
L 324.373541 368.787096 
L 324.764141 367.597928 
L 325.199127 365.516393 
L 325.714009 361.847261 
L 326.495209 354.365924 
L 327.817923 341.952271 
L 329.087373 330.637425 
L 329.282673 325.622623 
L 329.504605 311.564868 
L 329.5845 276.359975 
L 329.708782 71.921453 
L 329.850818 97.939762 
L 330.472227 303.740194 
L 330.694159 369.36 
L 330.703036 369.356936 
L 330.862827 369.105695 
L 331.280059 368.077776 
L 331.7328 366.313333 
L 332.265436 363.239928 
L 333.091023 356.918247 
L 334.280577 348.176103 
L 335.017391 344.343376 
L 335.558905 342.533911 
L 335.958382 341.856365 
L 336.233577 341.756996 
L 336.491018 341.913524 
L 336.943759 342.520224 
L 337.503027 343.140896 
L 337.858118 343.220309 
L 338.328614 343.060983 
L 339.438273 342.644611 
L 340.104068 342.70439 
L 341.426782 342.854442 
L 346.158368 342.791152 
L 381.152577 342.794645 
L 435.845455 342.794645 
L 435.845455 342.794645 
" clip-path="url(#pf736cf090d)" style="fill: none; stroke: #ff0000; stroke-width: 1.5; stroke-linecap: square"/>
   </g>
   <g id="patch_3">
    <path d="M 63 384.48 
L 63 51.84 
" style="fill: none; stroke: #000000; stroke-width: 0.8; stroke-linejoin: miter; stroke-linecap: square"/>
   </g>
   <g id="patch_4">
    <path d="M 453.6 384.48 
L 453.6 51.84 
" style="fill: none; stroke: #000000; stroke-width: 0.8; stroke-linejoin: miter; stroke-linecap: square"/>
   </g>
   <g id="patch_5">
    <path d="M 63 384.48 
L 453.6 384.48 
" style="fill: none; stroke: #000000; stroke-width: 0.8; stroke-linejoin: miter; stroke-linecap: square"/>
   </g>
   <g id="patch_6">
    <path d="M 63 51.84 
L 453.6 51.84 
" style="fill: none; stroke: #000000; stroke-width: 0.8; stroke-linejoin: miter; stroke-linecap: square"/>
   </g>
   <g id="legend_1">
    <g id="patch_7">
     <path d="M 383.460938 89.19625 
L 446.6 89.19625 
Q 448.6 89.19625 448.6 87.19625 
L 448.6 58.84 
Q 448.6 56.84 446.6 56.84 
L 383.460938 56.84 
Q 381.460938 56.84 381.460938 58.84 
L 381.460938 87.19625 
Q 381.460938 89.19625 383.460938 89.19625 
z
" style="fill: #ffffff; opacity: 0.8; stroke: #cccccc; stroke-linejoin: miter"/>
    </g>
    <g id="line2d_15">
     <path d="M 385.460938 64.938437 
L 395.460938 64.938437 
L 405.460938 64.938437 
" style="fill: none; stroke: #1f77b4; stroke-width: 1.5; stroke-linecap: square"/>
    </g>
    <g id="text_15">
     <!-- target -->
     <g transform="translate(413.460938 68.438437)scale(0.1 -0.1)">
      <defs>
       <path id="DejaVuSans-72" d="M 2631 2963 
Q 2534 3019 2420 3045 
Q 2306 3072 2169 3072 
Q 1681 3072 1420 2755 
Q 1159 2438 1159 1844 
L 1159 0 
L 581 0 
L 581 3500 
L 1159 3500 
L 1159 2956 
Q 1341 3275 1631 3429 
Q 1922 3584 2338 3584 
Q 2397 3584 2469 3576 
Q 2541 3569 2628 3553 
L 2631 2963 
z
" transform="scale(0.015625)"/>
      </defs>
      <use xlink:href="#DejaVuSans-74"/>
      <use xlink:href="#DejaVuSans-61" x="39.208984"/>
      <use xlink:href="#DejaVuSans-72" x="100.488281"/>
      <use xlink:href="#DejaVuSans-67" x="139.851562"/>
      <use xlink:href="#DejaVuSans-65" x="203.328125"/>
      <use xlink:href="#DejaVuSans-74" x="264.851562"/>
     </g>
    </g>
    <g id="line2d_16">
     <path d="M 385.460938 79.616562 
L 395.460938 79.616562 
L 405.460938 79.616562 
" style="fill: none; stroke: #ff0000; stroke-width: 1.5; stroke-linecap: square"/>
    </g>
    <g id="text_16">
     <!-- model -->
     <g transform="translate(413.460938 83.116562)scale(0.1 -0.1)">
      <defs>
       <path id="DejaVuSans-64" d="M 2906 2969 
L 2906 4863 
L 3481 4863 
L 3481 0 
L 2906 0 
L 2906 525 
Q 2725 213 2448 61 
Q 2172 -91 1784 -91 
Q 1150 -91 751 415 
Q 353 922 353 1747 
Q 353 2572 751 3078 
Q 1150 3584 1784 3584 
Q 2172 3584 2448 3432 
Q 2725 3281 2906 2969 
z
M 947 1747 
Q 947 1113 1208 752 
Q 1469 391 1925 391 
Q 2381 391 2643 752 
Q 2906 1113 2906 1747 
Q 2906 2381 2643 2742 
Q 2381 3103 1925 3103 
Q 1469 3103 1208 2742 
Q 947 2381 947 1747 
z
" transform="scale(0.015625)"/>
      </defs>
      <use xlink:href="#DejaVuSans-6d"/>
      <use xlink:href="#DejaVuSans-6f" x="97.412109"/>
      <use xlink:href="#DejaVuSans-64" x="158.59375"/>
      <use xlink:href="#DejaVuSans-65" x="222.070312"/>
      <use xlink:href="#DejaVuSans-6c" x="283.59375"/>
     </g>
    </g>
   </g>
  </g>
 </g>
 <defs>
  <clipPath id="pf736cf090d">
   <rect x="63" y="51.84" width="390.6" height="332.64"/>
  </clipPath>
 </defs>
</svg>
