<?xml version="1.0" encoding="utf-8" standalone="no"?>
<!DOCTYPE svg PUBLIC "-//W3C//DTD SVG 1.1//EN"
  "http://www.w3.org/Graphics/SVG/1.1/DTD/svg11.dtd">
<svg xmlns:xlink="http://www.w3.org/1999/xlink" width="504pt" height="432pt" viewBox="0 0 504 432" xmlns="http://www.w3.org/2000/svg" version="1.1">
 <metadata>
  <rdf:RDF xmlns:dc="http://purl.org/dc/elements/1.1/" xmlns:cc="http://creativecommons.org/ns#" xmlns:rdf="http://www.w3.org/1999/02/22-rdf-syntax-ns#">
   <cc:Work>
    <dc:type rdf:resource="http://purl.org/dc/dcmitype/StillImage"/>
    <dc:date>2022-01-30T19:41:14.182382</dc:date>
    <dc:format>image/svg+xml</dc:format>
    <dc:creator>
     <cc:Agent>
      <dc:title>Matplotlib v3.5.1, https://matplotlib.org/</dc:title>
     </cc:Agent>
    </dc:creator>
   </cc:Work>
  </rdf:RDF>
 </metadata>
 <defs>
  <style type="text/css">*{stroke-linejoin: round; stroke-linecap: butt}</style>
 </defs>
 <g id="figure_1">
  <g id="patch_1">
   <path d="M 0 432 
L 504 432 
L 504 0 
L 0 0 
z
" style="fill: #ffffff"/>
  </g>
  <g id="axes_1">
   <g id="patch_2">
    <path d="M 63 384.48 
L 453.6 384.48 
L 453.6 51.84 
L 63 51.84 
z
" style="fill: #ffffff"/>
   </g>
   <g id="matplotlib.axis_1">
    <g id="xtick_1">
     <g id="line2d_1">
      <defs>
       <path id="mdeca957c74" d="M 0 0 
L 0 3.5 
" style="stroke: #000000; stroke-width: 0.8"/>
      </defs>
      <g>
       <use xlink:href="#mdeca957c74" x="80.754545" y="384.48" style="stroke: #000000; stroke-width: 0.8"/>
      </g>
     </g>
     <g id="text_1">
      <!-- 0 -->
      <g transform="translate(77.573295 399.078438)scale(0.1 -0.1)">
       <defs>
        <path id="DejaVuSans-30" d="M 2034 4250 
Q 1547 4250 1301 3770 
Q 1056 3291 1056 2328 
Q 1056 1369 1301 889 
Q 1547 409 2034 409 
Q 2525 409 2770 889 
Q 3016 1369 3016 2328 
Q 3016 3291 2770 3770 
Q 2525 4250 2034 4250 
z
M 2034 4750 
Q 2819 4750 3233 4129 
Q 3647 3509 3647 2328 
Q 3647 1150 3233 529 
Q 2819 -91 2034 -91 
Q 1250 -91 836 529 
Q 422 1150 422 2328 
Q 422 3509 836 4129 
Q 1250 4750 2034 4750 
z
" transform="scale(0.015625)"/>
       </defs>
       <use xlink:href="#DejaVuSans-30"/>
      </g>
     </g>
    </g>
    <g id="xtick_2">
     <g id="line2d_2">
      <g>
       <use xlink:href="#mdeca957c74" x="151.772727" y="384.48" style="stroke: #000000; stroke-width: 0.8"/>
      </g>
     </g>
     <g id="text_2">
      <!-- 200 -->
      <g transform="translate(142.228977 399.078438)scale(0.1 -0.1)">
       <defs>
        <path id="DejaVuSans-32" d="M 1228 531 
L 3431 531 
L 3431 0 
L 469 0 
L 469 531 
Q 828 903 1448 1529 
Q 2069 2156 2228 2338 
Q 2531 2678 2651 2914 
Q 2772 3150 2772 3378 
Q 2772 3750 2511 3984 
Q 2250 4219 1831 4219 
Q 1534 4219 1204 4116 
Q 875 4013 500 3803 
L 500 4441 
Q 881 4594 1212 4672 
Q 1544 4750 1819 4750 
Q 2544 4750 2975 4387 
Q 3406 4025 3406 3419 
Q 3406 3131 3298 2873 
Q 3191 2616 2906 2266 
Q 2828 2175 2409 1742 
Q 1991 1309 1228 531 
z
" transform="scale(0.015625)"/>
       </defs>
       <use xlink:href="#DejaVuSans-32"/>
       <use xlink:href="#DejaVuSans-30" x="63.623047"/>
       <use xlink:href="#DejaVuSans-30" x="127.246094"/>
      </g>
     </g>
    </g>
    <g id="xtick_3">
     <g id="line2d_3">
      <g>
       <use xlink:href="#mdeca957c74" x="222.790909" y="384.48" style="stroke: #000000; stroke-width: 0.8"/>
      </g>
     </g>
     <g id="text_3">
      <!-- 400 -->
      <g transform="translate(213.247159 399.078438)scale(0.1 -0.1)">
       <defs>
        <path id="DejaVuSans-34" d="M 2419 4116 
L 825 1625 
L 2419 1625 
L 2419 4116 
z
M 2253 4666 
L 3047 4666 
L 3047 1625 
L 3713 1625 
L 3713 1100 
L 3047 1100 
L 3047 0 
L 2419 0 
L 2419 1100 
L 313 1100 
L 313 1709 
L 2253 4666 
z
" transform="scale(0.015625)"/>
       </defs>
       <use xlink:href="#DejaVuSans-34"/>
       <use xlink:href="#DejaVuSans-30" x="63.623047"/>
       <use xlink:href="#DejaVuSans-30" x="127.246094"/>
      </g>
     </g>
    </g>
    <g id="xtick_4">
     <g id="line2d_4">
      <g>
       <use xlink:href="#mdeca957c74" x="293.809091" y="384.48" style="stroke: #000000; stroke-width: 0.8"/>
      </g>
     </g>
     <g id="text_4">
      <!-- 600 -->
      <g transform="translate(284.265341 399.078438)scale(0.1 -0.1)">
       <defs>
        <path id="DejaVuSans-36" d="M 2113 2584 
Q 1688 2584 1439 2293 
Q 1191 2003 1191 1497 
Q 1191 994 1439 701 
Q 1688 409 2113 409 
Q 2538 409 2786 701 
Q 3034 994 3034 1497 
Q 3034 2003 2786 2293 
Q 2538 2584 2113 2584 
z
M 3366 4563 
L 3366 3988 
Q 3128 4100 2886 4159 
Q 2644 4219 2406 4219 
Q 1781 4219 1451 3797 
Q 1122 3375 1075 2522 
Q 1259 2794 1537 2939 
Q 1816 3084 2150 3084 
Q 2853 3084 3261 2657 
Q 3669 2231 3669 1497 
Q 3669 778 3244 343 
Q 2819 -91 2113 -91 
Q 1303 -91 875 529 
Q 447 1150 447 2328 
Q 447 3434 972 4092 
Q 1497 4750 2381 4750 
Q 2619 4750 2861 4703 
Q 3103 4656 3366 4563 
z
" transform="scale(0.015625)"/>
       </defs>
       <use xlink:href="#DejaVuSans-36"/>
       <use xlink:href="#DejaVuSans-30" x="63.623047"/>
       <use xlink:href="#DejaVuSans-30" x="127.246094"/>
      </g>
     </g>
    </g>
    <g id="xtick_5">
     <g id="line2d_5">
      <g>
       <use xlink:href="#mdeca957c74" x="364.827273" y="384.48" style="stroke: #000000; stroke-width: 0.8"/>
      </g>
     </g>
     <g id="text_5">
      <!-- 800 -->
      <g transform="translate(355.283523 399.078438)scale(0.1 -0.1)">
       <defs>
        <path id="DejaVuSans-38" d="M 2034 2216 
Q 1584 2216 1326 1975 
Q 1069 1734 1069 1313 
Q 1069 891 1326 650 
Q 1584 409 2034 409 
Q 2484 409 2743 651 
Q 3003 894 3003 1313 
Q 3003 1734 2745 1975 
Q 2488 2216 2034 2216 
z
M 1403 2484 
Q 997 2584 770 2862 
Q 544 3141 544 3541 
Q 544 4100 942 4425 
Q 1341 4750 2034 4750 
Q 2731 4750 3128 4425 
Q 3525 4100 3525 3541 
Q 3525 3141 3298 2862 
Q 3072 2584 2669 2484 
Q 3125 2378 3379 2068 
Q 3634 1759 3634 1313 
Q 3634 634 3220 271 
Q 2806 -91 2034 -91 
Q 1263 -91 848 271 
Q 434 634 434 1313 
Q 434 1759 690 2068 
Q 947 2378 1403 2484 
z
M 1172 3481 
Q 1172 3119 1398 2916 
Q 1625 2713 2034 2713 
Q 2441 2713 2670 2916 
Q 2900 3119 2900 3481 
Q 2900 3844 2670 4047 
Q 2441 4250 2034 4250 
Q 1625 4250 1398 4047 
Q 1172 3844 1172 3481 
z
" transform="scale(0.015625)"/>
       </defs>
       <use xlink:href="#DejaVuSans-38"/>
       <use xlink:href="#DejaVuSans-30" x="63.623047"/>
       <use xlink:href="#DejaVuSans-30" x="127.246094"/>
      </g>
     </g>
    </g>
    <g id="text_6">
     <!-- time [ms] -->
     <g transform="translate(234.038281 412.756563)scale(0.1 -0.1)">
      <defs>
       <path id="DejaVuSans-74" d="M 1172 4494 
L 1172 3500 
L 2356 3500 
L 2356 3053 
L 1172 3053 
L 1172 1153 
Q 1172 725 1289 603 
Q 1406 481 1766 481 
L 2356 481 
L 2356 0 
L 1766 0 
Q 1100 0 847 248 
Q 594 497 594 1153 
L 594 3053 
L 172 3053 
L 172 3500 
L 594 3500 
L 594 4494 
L 1172 4494 
z
" transform="scale(0.015625)"/>
       <path id="DejaVuSans-69" d="M 603 3500 
L 1178 3500 
L 1178 0 
L 603 0 
L 603 3500 
z
M 603 4863 
L 1178 4863 
L 1178 4134 
L 603 4134 
L 603 4863 
z
" transform="scale(0.015625)"/>
       <path id="DejaVuSans-6d" d="M 3328 2828 
Q 3544 3216 3844 3400 
Q 4144 3584 4550 3584 
Q 5097 3584 5394 3201 
Q 5691 2819 5691 2113 
L 5691 0 
L 5113 0 
L 5113 2094 
Q 5113 2597 4934 2840 
Q 4756 3084 4391 3084 
Q 3944 3084 3684 2787 
Q 3425 2491 3425 1978 
L 3425 0 
L 2847 0 
L 2847 2094 
Q 2847 2600 2669 2842 
Q 2491 3084 2119 3084 
Q 1678 3084 1418 2786 
Q 1159 2488 1159 1978 
L 1159 0 
L 581 0 
L 581 3500 
L 1159 3500 
L 1159 2956 
Q 1356 3278 1631 3431 
Q 1906 3584 2284 3584 
Q 2666 3584 2933 3390 
Q 3200 3197 3328 2828 
z
" transform="scale(0.015625)"/>
       <path id="DejaVuSans-65" d="M 3597 1894 
L 3597 1613 
L 953 1613 
Q 991 1019 1311 708 
Q 1631 397 2203 397 
Q 2534 397 2845 478 
Q 3156 559 3463 722 
L 3463 178 
Q 3153 47 2828 -22 
Q 2503 -91 2169 -91 
Q 1331 -91 842 396 
Q 353 884 353 1716 
Q 353 2575 817 3079 
Q 1281 3584 2069 3584 
Q 2775 3584 3186 3129 
Q 3597 2675 3597 1894 
z
M 3022 2063 
Q 3016 2534 2758 2815 
Q 2500 3097 2075 3097 
Q 1594 3097 1305 2825 
Q 1016 2553 972 2059 
L 3022 2063 
z
" transform="scale(0.015625)"/>
       <path id="DejaVuSans-20" transform="scale(0.015625)"/>
       <path id="DejaVuSans-5b" d="M 550 4863 
L 1875 4863 
L 1875 4416 
L 1125 4416 
L 1125 -397 
L 1875 -397 
L 1875 -844 
L 550 -844 
L 550 4863 
z
" transform="scale(0.015625)"/>
       <path id="DejaVuSans-73" d="M 2834 3397 
L 2834 2853 
Q 2591 2978 2328 3040 
Q 2066 3103 1784 3103 
Q 1356 3103 1142 2972 
Q 928 2841 928 2578 
Q 928 2378 1081 2264 
Q 1234 2150 1697 2047 
L 1894 2003 
Q 2506 1872 2764 1633 
Q 3022 1394 3022 966 
Q 3022 478 2636 193 
Q 2250 -91 1575 -91 
Q 1294 -91 989 -36 
Q 684 19 347 128 
L 347 722 
Q 666 556 975 473 
Q 1284 391 1588 391 
Q 1994 391 2212 530 
Q 2431 669 2431 922 
Q 2431 1156 2273 1281 
Q 2116 1406 1581 1522 
L 1381 1569 
Q 847 1681 609 1914 
Q 372 2147 372 2553 
Q 372 3047 722 3315 
Q 1072 3584 1716 3584 
Q 2034 3584 2315 3537 
Q 2597 3491 2834 3397 
z
" transform="scale(0.015625)"/>
       <path id="DejaVuSans-5d" d="M 1947 4863 
L 1947 -844 
L 622 -844 
L 622 -397 
L 1369 -397 
L 1369 4416 
L 622 4416 
L 622 4863 
L 1947 4863 
z
" transform="scale(0.015625)"/>
      </defs>
      <use xlink:href="#DejaVuSans-74"/>
      <use xlink:href="#DejaVuSans-69" x="39.208984"/>
      <use xlink:href="#DejaVuSans-6d" x="66.992188"/>
      <use xlink:href="#DejaVuSans-65" x="164.404297"/>
      <use xlink:href="#DejaVuSans-20" x="225.927734"/>
      <use xlink:href="#DejaVuSans-5b" x="257.714844"/>
      <use xlink:href="#DejaVuSans-6d" x="296.728516"/>
      <use xlink:href="#DejaVuSans-73" x="394.140625"/>
      <use xlink:href="#DejaVuSans-5d" x="446.240234"/>
     </g>
    </g>
   </g>
   <g id="matplotlib.axis_2">
    <g id="ytick_1">
     <g id="line2d_6">
      <defs>
       <path id="m75ec9ed249" d="M 0 0 
L -3.5 0 
" style="stroke: #000000; stroke-width: 0.8"/>
      </defs>
      <g>
       <use xlink:href="#m75ec9ed249" x="63" y="381.985699" style="stroke: #000000; stroke-width: 0.8"/>
      </g>
     </g>
     <g id="text_7">
      <!-- −80 -->
      <g transform="translate(34.895313 385.784917)scale(0.1 -0.1)">
       <defs>
        <path id="DejaVuSans-2212" d="M 678 2272 
L 4684 2272 
L 4684 1741 
L 678 1741 
L 678 2272 
z
" transform="scale(0.015625)"/>
       </defs>
       <use xlink:href="#DejaVuSans-2212"/>
       <use xlink:href="#DejaVuSans-38" x="83.789062"/>
       <use xlink:href="#DejaVuSans-30" x="147.412109"/>
      </g>
     </g>
    </g>
    <g id="ytick_2">
     <g id="line2d_7">
      <g>
       <use xlink:href="#m75ec9ed249" x="63" y="329.547076" style="stroke: #000000; stroke-width: 0.8"/>
      </g>
     </g>
     <g id="text_8">
      <!-- −60 -->
      <g transform="translate(34.895313 333.346294)scale(0.1 -0.1)">
       <use xlink:href="#DejaVuSans-2212"/>
       <use xlink:href="#DejaVuSans-36" x="83.789062"/>
       <use xlink:href="#DejaVuSans-30" x="147.412109"/>
      </g>
     </g>
    </g>
    <g id="ytick_3">
     <g id="line2d_8">
      <g>
       <use xlink:href="#m75ec9ed249" x="63" y="277.108453" style="stroke: #000000; stroke-width: 0.8"/>
      </g>
     </g>
     <g id="text_9">
      <!-- −40 -->
      <g transform="translate(34.895313 280.907671)scale(0.1 -0.1)">
       <use xlink:href="#DejaVuSans-2212"/>
       <use xlink:href="#DejaVuSans-34" x="83.789062"/>
       <use xlink:href="#DejaVuSans-30" x="147.412109"/>
      </g>
     </g>
    </g>
    <g id="ytick_4">
     <g id="line2d_9">
      <g>
       <use xlink:href="#m75ec9ed249" x="63" y="224.66983" style="stroke: #000000; stroke-width: 0.8"/>
      </g>
     </g>
     <g id="text_10">
      <!-- −20 -->
      <g transform="translate(34.895313 228.469048)scale(0.1 -0.1)">
       <use xlink:href="#DejaVuSans-2212"/>
       <use xlink:href="#DejaVuSans-32" x="83.789062"/>
       <use xlink:href="#DejaVuSans-30" x="147.412109"/>
      </g>
     </g>
    </g>
    <g id="ytick_5">
     <g id="line2d_10">
      <g>
       <use xlink:href="#m75ec9ed249" x="63" y="172.231207" style="stroke: #000000; stroke-width: 0.8"/>
      </g>
     </g>
     <g id="text_11">
      <!-- 0 -->
      <g transform="translate(49.6375 176.030425)scale(0.1 -0.1)">
       <use xlink:href="#DejaVuSans-30"/>
      </g>
     </g>
    </g>
    <g id="ytick_6">
     <g id="line2d_11">
      <g>
       <use xlink:href="#m75ec9ed249" x="63" y="119.792584" style="stroke: #000000; stroke-width: 0.8"/>
      </g>
     </g>
     <g id="text_12">
      <!-- 20 -->
      <g transform="translate(43.275 123.591802)scale(0.1 -0.1)">
       <use xlink:href="#DejaVuSans-32"/>
       <use xlink:href="#DejaVuSans-30" x="63.623047"/>
      </g>
     </g>
    </g>
    <g id="ytick_7">
     <g id="line2d_12">
      <g>
       <use xlink:href="#m75ec9ed249" x="63" y="67.353961" style="stroke: #000000; stroke-width: 0.8"/>
      </g>
     </g>
     <g id="text_13">
      <!-- 40 -->
      <g transform="translate(43.275 71.153179)scale(0.1 -0.1)">
       <use xlink:href="#DejaVuSans-34"/>
       <use xlink:href="#DejaVuSans-30" x="63.623047"/>
      </g>
     </g>
    </g>
    <g id="text_14">
     <!-- voltage [mV] -->
     <g transform="translate(28.815625 250.624062)rotate(-90)scale(0.1 -0.1)">
      <defs>
       <path id="DejaVuSans-76" d="M 191 3500 
L 800 3500 
L 1894 563 
L 2988 3500 
L 3597 3500 
L 2284 0 
L 1503 0 
L 191 3500 
z
" transform="scale(0.015625)"/>
       <path id="DejaVuSans-6f" d="M 1959 3097 
Q 1497 3097 1228 2736 
Q 959 2375 959 1747 
Q 959 1119 1226 758 
Q 1494 397 1959 397 
Q 2419 397 2687 759 
Q 2956 1122 2956 1747 
Q 2956 2369 2687 2733 
Q 2419 3097 1959 3097 
z
M 1959 3584 
Q 2709 3584 3137 3096 
Q 3566 2609 3566 1747 
Q 3566 888 3137 398 
Q 2709 -91 1959 -91 
Q 1206 -91 779 398 
Q 353 888 353 1747 
Q 353 2609 779 3096 
Q 1206 3584 1959 3584 
z
" transform="scale(0.015625)"/>
       <path id="DejaVuSans-6c" d="M 603 4863 
L 1178 4863 
L 1178 0 
L 603 0 
L 603 4863 
z
" transform="scale(0.015625)"/>
       <path id="DejaVuSans-61" d="M 2194 1759 
Q 1497 1759 1228 1600 
Q 959 1441 959 1056 
Q 959 750 1161 570 
Q 1363 391 1709 391 
Q 2188 391 2477 730 
Q 2766 1069 2766 1631 
L 2766 1759 
L 2194 1759 
z
M 3341 1997 
L 3341 0 
L 2766 0 
L 2766 531 
Q 2569 213 2275 61 
Q 1981 -91 1556 -91 
Q 1019 -91 701 211 
Q 384 513 384 1019 
Q 384 1609 779 1909 
Q 1175 2209 1959 2209 
L 2766 2209 
L 2766 2266 
Q 2766 2663 2505 2880 
Q 2244 3097 1772 3097 
Q 1472 3097 1187 3025 
Q 903 2953 641 2809 
L 641 3341 
Q 956 3463 1253 3523 
Q 1550 3584 1831 3584 
Q 2591 3584 2966 3190 
Q 3341 2797 3341 1997 
z
" transform="scale(0.015625)"/>
       <path id="DejaVuSans-67" d="M 2906 1791 
Q 2906 2416 2648 2759 
Q 2391 3103 1925 3103 
Q 1463 3103 1205 2759 
Q 947 2416 947 1791 
Q 947 1169 1205 825 
Q 1463 481 1925 481 
Q 2391 481 2648 825 
Q 2906 1169 2906 1791 
z
M 3481 434 
Q 3481 -459 3084 -895 
Q 2688 -1331 1869 -1331 
Q 1566 -1331 1297 -1286 
Q 1028 -1241 775 -1147 
L 775 -588 
Q 1028 -725 1275 -790 
Q 1522 -856 1778 -856 
Q 2344 -856 2625 -561 
Q 2906 -266 2906 331 
L 2906 616 
Q 2728 306 2450 153 
Q 2172 0 1784 0 
Q 1141 0 747 490 
Q 353 981 353 1791 
Q 353 2603 747 3093 
Q 1141 3584 1784 3584 
Q 2172 3584 2450 3431 
Q 2728 3278 2906 2969 
L 2906 3500 
L 3481 3500 
L 3481 434 
z
" transform="scale(0.015625)"/>
       <path id="DejaVuSans-56" d="M 1831 0 
L 50 4666 
L 709 4666 
L 2188 738 
L 3669 4666 
L 4325 4666 
L 2547 0 
L 1831 0 
z
" transform="scale(0.015625)"/>
      </defs>
      <use xlink:href="#DejaVuSans-76"/>
      <use xlink:href="#DejaVuSans-6f" x="59.179688"/>
      <use xlink:href="#DejaVuSans-6c" x="120.361328"/>
      <use xlink:href="#DejaVuSans-74" x="148.144531"/>
      <use xlink:href="#DejaVuSans-61" x="187.353516"/>
      <use xlink:href="#DejaVuSans-67" x="248.632812"/>
      <use xlink:href="#DejaVuSans-65" x="312.109375"/>
      <use xlink:href="#DejaVuSans-20" x="373.632812"/>
      <use xlink:href="#DejaVuSans-5b" x="405.419922"/>
      <use xlink:href="#DejaVuSans-6d" x="444.433594"/>
      <use xlink:href="#DejaVuSans-56" x="541.845703"/>
      <use xlink:href="#DejaVuSans-5d" x="610.253906"/>
     </g>
    </g>
   </g>
   <g id="line2d_13">
    <path d="M 80.754545 342.656731 
L 81.961855 342.520391 
L 83.772818 342.577549 
L 85.974382 342.596427 
L 151.772727 342.587775 
L 152.314241 298.115103 
L 152.420768 249.535176 
L 152.562805 68.203991 
L 152.678209 93.392883 
L 153.565936 369.114114 
L 153.610323 369.013694 
L 153.8145 367.636394 
L 154.293873 362.888077 
L 154.959668 353.777128 
L 157.42755 314.930072 
L 157.613973 303.815443 
L 157.738255 281.874861 
L 157.835905 219.389522 
L 157.969064 92.537347 
L 158.031205 105.674795 
L 158.883423 368.690148 
L 158.945564 368.506875 
L 159.203005 366.529939 
L 159.717886 360.863421 
L 160.534595 348.949891 
L 161.8218 330.840212 
L 162.514227 320.485419 
L 162.771668 312.973324 
L 162.940336 300.995556 
L 163.064618 273.060978 
L 163.162268 188.757579 
L 163.268795 93.456596 
L 163.322059 102.958999 
L 163.863573 297.837178 
L 164.147645 368.513692 
L 164.183155 368.658423 
L 164.245295 368.477247 
L 164.493859 366.575823 
L 165.008741 360.92897 
L 165.834327 348.89247 
L 167.112655 330.914675 
L 167.813959 320.450023 
L 168.0714 312.928227 
L 168.240068 300.91113 
L 168.36435 272.81504 
L 168.462 188.01282 
L 168.568527 93.533419 
L 168.621791 103.180814 
L 169.172182 301.784495 
L 169.4385 368.427955 
L 169.482886 368.656325 
L 169.545027 368.471217 
L 169.802468 366.486153 
L 170.31735 360.801806 
L 171.151814 348.603796 
L 172.430141 330.672146 
L 173.113691 320.43167 
L 173.371132 312.891782 
L 173.5398 300.81543 
L 173.664082 272.477336 
L 173.761732 186.862815 
L 173.868259 93.550199 
L 173.921523 103.416526 
L 174.480791 305.851111 
L 174.729355 368.31862 
L 174.782618 368.656325 
L 174.844759 368.467022 
L 175.1022 366.478811 
L 175.617082 360.791056 
L 176.451545 348.590948 
L 177.729873 330.661396 
L 178.413423 320.414889 
L 178.670864 312.855862 
L 178.839532 300.718418 
L 178.963814 272.130716 
L 179.061464 185.679144 
L 179.167991 93.567504 
L 179.221255 103.65486 
L 179.7894 310.020768 
L 180.029086 368.330943 
L 180.08235 368.656587 
L 180.144491 368.462564 
L 180.401932 366.47147 
L 180.916814 360.780568 
L 181.751277 348.578625 
L 183.029605 330.650909 
L 183.713155 320.397847 
L 183.970595 312.819679 
L 184.139264 300.620358 
L 184.263545 271.775969 
L 184.361195 184.474655 
L 184.467723 93.591363 
L 184.520986 103.896864 
L 185.098009 314.282192 
L 185.328818 368.343004 
L 185.382082 368.656587 
L 185.444223 368.458369 
L 185.701664 366.463866 
L 186.216545 360.770081 
L 187.051009 348.56604 
L 188.329336 330.640421 
L 189.012886 320.381067 
L 189.270327 312.783234 
L 189.438995 300.520725 
L 189.563277 271.415978 
L 189.660927 183.265368 
L 189.767455 93.620991 
L 189.820718 104.141228 
L 190.406618 318.61572 
L 190.619673 368.209286 
L 190.681814 368.656325 
L 190.743955 368.453912 
L 191.010273 366.375245 
L 191.525155 360.644752 
L 192.368495 348.280774 
L 193.637945 330.514568 
L 194.312618 320.363762 
L 194.570059 312.74679 
L 194.738727 300.420567 
L 194.863009 271.052578 
L 194.969536 168.706938 
L 195.058309 93.607619 
L 195.12045 104.388214 
L 195.715227 322.995394 
L 195.919405 368.224755 
L 195.981545 368.656325 
L 196.043686 368.449455 
L 196.310005 366.367641 
L 196.833764 360.5189 
L 197.703736 347.723613 
L 198.955432 330.273613 
L 199.61235 320.346719 
L 199.869791 312.70982 
L 200.038459 300.31936 
L 200.162741 270.681837 
L 200.269268 167.444976 
L 200.358041 93.578254 
L 200.420182 104.639395 
L 201.023836 327.384245 
L 201.219136 368.239438 
L 201.281277 368.655801 
L 201.343418 368.444997 
L 201.609736 366.360038 
L 202.133495 360.507887 
L 202.994591 347.846844 
L 204.255164 330.262863 
L 204.912082 320.329152 
L 205.169523 312.672327 
L 205.338191 300.216581 
L 205.462473 270.303493 
L 205.569 166.174546 
L 205.657773 93.555967 
L 205.719914 104.892411 
L 206.332445 331.734291 
L 206.518868 368.254121 
L 206.581009 368.655538 
L 206.634273 368.486948 
L 206.873959 366.673883 
L 207.388841 361.068719 
L 208.187795 349.470344 
L 209.510509 330.827102 
L 210.202936 320.495907 
L 210.460377 313.027074 
L 210.629045 301.178829 
L 210.753327 273.767064 
L 210.850977 191.315378 
L 210.957505 93.54076 
L 211.019645 105.146476 
L 211.641055 335.99152 
L 211.827477 368.399638 
L 211.880741 368.655014 
L 211.934005 368.482753 
L 212.182568 366.586835 
L 212.69745 360.944701 
L 213.514159 349.047951 
L 214.810241 330.816353 
L 215.502668 320.478865 
L 215.760109 312.991154 
L 215.928777 301.082604 
L 216.053059 273.428048 
L 216.150709 190.137607 
L 216.257236 93.534468 
L 216.319377 105.400017 
L 216.949664 340.092483 
L 217.127209 368.410126 
L 217.171595 368.655538 
L 217.233736 368.478558 
L 217.4823 366.579493 
L 217.997182 360.934213 
L 218.822768 348.898763 
L 220.101095 330.920443 
L 220.8024 320.461822 
L 221.059841 312.955495 
L 221.228509 300.986642 
L 221.352791 273.087721 
L 221.450441 188.960412 
L 221.556968 93.534992 
L 221.610232 102.995968 
L 222.151745 297.892501 
L 222.426941 368.420089 
L 222.471327 368.655801 
L 222.533468 368.474363 
L 222.782032 366.572152 
L 223.296914 360.923726 
L 224.1225 348.885915 
L 225.418582 330.680274 
L 226.111009 320.259933 
L 226.36845 312.523139 
L 226.537118 299.803626 
L 226.652523 272.744773 
L 226.750173 187.778524 
L 226.8567 93.541022 
L 226.909964 103.233253 
L 227.460355 301.859745 
L 227.726673 368.42979 
L 227.771059 368.656325 
L 227.8332 368.470168 
L 228.090641 366.484317 
L 228.605523 360.799184 
L 229.439986 348.600649 
L 230.718314 330.669524 
L 231.401864 320.427737 
L 231.659305 312.883392 
L 231.827973 300.793405 
L 231.952255 272.399464 
L 232.049905 186.596427 
L 232.156432 93.55387 
L 232.209695 103.470276 
L 232.768964 305.929506 
L 233.017527 368.321504 
L 233.070791 368.656325 
L 233.132932 368.465973 
L 233.390373 366.476976 
L 233.905255 360.788696 
L 234.739718 348.588064 
L 236.018045 330.659037 
L 236.701595 320.410957 
L 236.959036 312.847734 
L 237.127705 300.696394 
L 237.251986 272.05101 
L 237.349636 185.407564 
L 237.456164 93.572223 
L 237.509427 103.709658 
L 238.077573 310.101523 
L 238.317259 368.333565 
L 238.370523 368.656587 
L 238.432664 368.461778 
L 238.690105 366.469634 
L 239.204986 360.778209 
L 240.03945 348.575741 
L 241.317777 330.648549 
L 242.001327 320.394176 
L 242.258768 312.811551 
L 242.427436 300.597809 
L 242.551718 271.694427 
L 242.649368 184.20027 
L 242.755895 93.597656 
L 242.809159 103.952187 
L 243.386182 314.364783 
L 243.616991 368.345626 
L 243.670255 368.656587 
L 243.732395 368.45732 
L 243.989836 366.462293 
L 244.504718 360.767721 
L 245.348059 348.426815 
L 246.617509 330.637799 
L 247.301059 320.377134 
L 247.5585 312.775106 
L 247.727168 300.497914 
L 247.85145 271.333911 
L 247.9491 182.989803 
L 248.055627 93.628857 
L 248.108891 104.197075 
L 248.694791 318.700146 
L 248.907845 368.212957 
L 248.969986 368.656325 
L 249.032127 368.453125 
L 249.298445 366.373672 
L 249.822205 360.52729 
L 250.692177 347.733577 
L 251.943873 330.282003 
L 252.600791 320.359829 
L 252.858232 312.738399 
L 253.0269 300.397494 
L 253.151182 270.968676 
L 253.257709 168.419627 
L 253.346482 93.600278 
L 253.408623 104.445372 
L 254.0034 323.081393 
L 254.207577 368.228164 
L 254.269718 368.656063 
L 254.331859 368.448668 
L 254.598177 366.366068 
L 255.121936 360.516278 
L 255.983032 347.856807 
L 257.22585 330.501459 
L 257.900523 320.342786 
L 258.157964 312.70143 
L 258.326632 300.296025 
L 258.450914 270.5961 
L 258.557441 167.155069 
L 258.646214 93.572486 
L 258.708355 104.697339 
L 259.312009 327.470244 
L 259.507309 368.242847 
L 259.56945 368.655801 
L 259.631591 368.443949 
L 259.897909 366.358202 
L 260.421668 360.505528 
L 261.291641 347.708144 
L 262.525582 330.490709 
L 263.200255 320.325219 
L 263.457695 312.663937 
L 263.626364 300.192983 
L 263.750645 270.216444 
L 263.857173 165.884114 
L 263.945945 93.551772 
L 264.008086 104.950356 
L 264.620618 331.818979 
L 264.807041 368.257529 
L 264.869182 368.655276 
L 264.922445 368.486162 
L 265.171009 366.592603 
L 265.685891 360.953091 
L 266.511477 348.921311 
L 267.807559 330.709902 
L 268.499986 320.307915 
L 268.757427 312.626443 
L 268.926095 300.089941 
L 269.050377 269.836789 
L 269.156905 164.622625 
L 269.245677 93.538663 
L 269.298941 102.57777 
L 269.8227 290.341077 
L 270.133405 368.568228 
L 270.168914 368.655014 
L 270.222177 368.481967 
L 270.470741 366.585262 
L 270.985623 360.942341 
L 271.802332 349.045067 
L 273.098414 330.813993 
L 273.790841 320.474932 
L 274.048282 312.983026 
L 274.21695 301.060842 
L 274.341232 273.350439 
L 274.438882 189.868177 
L 274.545409 93.534205 
L 274.598673 102.813482 
L 275.131309 294.10381 
L 275.424259 368.506351 
L 275.459768 368.655538 
L 275.521909 368.477772 
L 275.770473 366.57792 
L 276.285355 360.931854 
L 277.110941 348.895879 
L 278.389268 330.918083 
L 279.090573 320.457889 
L 279.348014 312.947105 
L 279.516682 300.964618 
L 279.640964 273.009588 
L 279.738614 188.690878 
L 279.845141 93.535516 
L 279.898405 103.050242 
L 280.439918 297.968275 
L 280.715114 368.422187 
L 280.7595 368.656063 
L 280.821641 368.473576 
L 281.079082 366.490086 
L 281.593964 360.807312 
L 282.428427 348.61035 
L 283.706755 330.677652 
L 284.390305 320.440847 
L 284.647745 312.911185 
L 284.816414 300.868131 
L 284.940695 272.666115 
L 285.038345 187.508885 
L 285.144873 93.543382 
L 285.198136 103.287265 
L 285.748527 301.936567 
L 286.014845 368.431888 
L 286.059232 368.656325 
L 286.121373 368.469119 
L 286.378814 366.482744 
L 286.893695 360.796824 
L 287.728159 348.597765 
L 289.006486 330.667165 
L 289.690036 320.424066 
L 289.947477 312.875264 
L 290.116145 300.771381 
L 290.240427 272.320282 
L 290.338077 186.325896 
L 290.444605 93.557541 
L 290.497868 103.52455 
L 291.057136 306.008689 
L 291.3057 368.324389 
L 291.358964 368.656587 
L 291.421105 368.464924 
L 291.678545 366.475403 
L 292.193427 360.786337 
L 293.027891 348.58518 
L 294.315095 330.541574 
L 294.989768 320.407024 
L 295.247209 312.839344 
L 295.415877 300.674108 
L 295.540159 271.970254 
L 295.637809 185.133127 
L 295.744336 93.577467 
L 295.7976 103.764718 
L 296.365745 310.182803 
L 296.605432 368.336449 
L 296.658695 368.656587 
L 296.720836 368.460729 
L 296.978277 366.468061 
L 297.493159 360.775849 
L 298.327623 348.572857 
L 299.60595 330.646189 
L 300.2895 320.390243 
L 300.546941 312.803161 
L 300.715609 300.574999 
L 300.839891 271.612623 
L 300.937541 183.925491 
L 301.044068 93.604211 
L 301.097332 104.007509 
L 301.674355 314.447374 
L 301.905164 368.348248 
L 301.958427 368.656587 
L 302.020568 368.456534 
L 302.286886 366.37944 
L 302.810645 360.535418 
L 303.671741 347.879356 
L 304.914559 330.520599 
L 305.589232 320.373201 
L 305.846673 312.766716 
L 306.015341 300.475365 
L 306.139623 271.251583 
L 306.24615 169.390213 
L 306.334923 93.626235 
L 306.397064 104.253184 
L 306.982964 318.784573 
L 307.196018 368.216365 
L 307.258159 368.656325 
L 307.3203 368.452077 
L 307.586618 366.371836 
L 308.110377 360.524668 
L 308.971473 347.866771 
L 310.214291 330.509849 
L 310.888964 320.356158 
L 311.146405 312.730009 
L 311.315073 300.374683 
L 311.439355 270.884512 
L 311.545882 168.133338 
L 311.634655 93.593461 
L 311.696795 104.502268 
L 312.291573 323.166868 
L 312.49575 368.231572 
L 312.557891 368.656063 
L 312.620032 368.447619 
L 312.88635 366.364233 
L 313.410109 360.513918 
L 314.280082 347.717845 
L 315.531777 330.268631 
L 316.188695 320.338591 
L 316.446136 312.692778 
L 316.614805 300.27269 
L 316.739086 270.510625 
L 316.845614 166.866264 
L 316.934386 93.567242 
L 316.996527 104.75476 
L 317.600182 327.555981 
L 317.795482 368.246255 
L 317.857623 368.655801 
L 317.910886 368.489308 
L 318.150573 366.677816 
L 318.665455 361.074487 
L 319.464409 349.477161 
L 320.787123 330.833133 
L 321.488427 320.321286 
L 321.745868 312.655284 
L 321.914536 300.169386 
L 322.038818 270.129658 
L 322.145345 165.595073 
L 322.234118 93.548102 
L 322.296259 105.0083 
L 322.908791 331.903405 
L 323.095214 368.260938 
L 323.157355 368.655276 
L 323.210618 368.485113 
L 323.459182 366.59103 
L 323.974064 360.950469 
L 324.790773 349.054768 
L 326.095732 330.70728 
L 326.779282 320.488041 
L 327.036723 313.010818 
L 327.205391 301.135043 
L 327.329673 273.612632 
L 327.427323 190.778407 
L 327.53385 93.536827 
L 327.595991 105.262103 
L 328.2174 336.154604 
L 328.403823 368.404357 
L 328.457086 368.654752 
L 328.51035 368.480918 
L 328.758914 366.583426 
L 329.273795 360.939982 
L 329.318182 360.365517 
L 329.335936 361.265888 
L 329.531236 365.258564 
L 329.620009 365.446557 
L 329.664395 365.389137 
L 329.815309 364.781897 
L 330.214786 361.963059 
L 332.176664 347.196081 
L 332.869091 343.971892 
L 333.428359 342.315356 
L 333.889977 341.571776 
L 334.262823 341.344717 
L 334.609036 341.381424 
L 335.061777 341.670623 
L 336.553159 342.761346 
L 337.156814 342.858096 
L 338.097805 342.747975 
L 339.580309 342.553427 
L 342.101455 342.58961 
L 345.723382 342.585677 
L 435.845455 342.587775 
L 435.845455 342.587775 
" clip-path="url(#ped30d8a2f0)" style="fill: none; stroke: #1f77b4; stroke-width: 1.5; stroke-linecap: square"/>
   </g>
   <g id="line2d_14">
    <path d="M 80.754545 342.656731 
L 81.251673 344.110023 
L 81.695536 344.812463 
L 82.077259 345.035986 
L 82.467859 345.00581 
L 83.036005 344.704845 
L 84.483 343.873974 
L 85.246445 343.740656 
L 86.302841 343.811382 
L 88.460018 343.969342 
L 151.772727 343.931651 
L 152.323118 297.97924 
L 152.429645 248.235111 
L 152.571682 66.96 
L 152.687086 92.665348 
L 153.583691 369.36 
L 153.610323 369.311683 
L 153.761236 368.44437 
L 154.2051 364.497008 
L 154.799877 356.985526 
L 157.267759 320.012303 
L 157.516323 311.721504 
L 157.676114 298.153259 
L 157.791518 266.644171 
L 157.898045 154.124135 
L 157.977941 92.677396 
L 158.040082 103.703035 
L 158.643736 327.083654 
L 158.839036 368.44693 
L 158.901177 368.925784 
L 158.963318 368.752029 
L 159.211882 366.932397 
L 159.717886 361.580417 
L 160.463577 350.937068 
L 162.008223 328.882096 
L 162.558614 319.964541 
L 162.807177 312.061044 
L 162.975845 298.429205 
L 163.09125 268.395912 
L 163.197777 161.278038 
L 163.28655 93.687283 
L 163.339814 103.417976 
L 163.899082 306.979088 
L 164.147645 368.543669 
L 164.200909 368.892721 
L 164.26305 368.726338 
L 164.511614 366.905657 
L 165.017618 361.542396 
L 165.772186 350.753833 
L 167.2902 329.092263 
L 167.858345 319.943878 
L 168.106909 312.048095 
L 168.275577 298.433823 
L 168.390982 268.467886 
L 168.497509 161.631522 
L 168.586282 93.762619 
L 168.639545 103.430627 
L 169.198814 307.000862 
L 169.447377 368.541434 
L 169.500641 368.890385 
L 169.562782 368.723976 
L 169.811345 366.902823 
L 170.31735 361.538356 
L 171.071918 350.748865 
L 172.589932 329.088694 
L 173.158077 319.940074 
L 173.406641 312.042159 
L 173.575309 298.419779 
L 173.690714 268.423429 
L 173.797241 161.49997 
L 173.886014 93.768803 
L 173.939277 103.462033 
L 174.498545 307.046954 
L 174.747109 368.54288 
L 174.800373 368.890279 
L 174.862514 368.723305 
L 175.111077 366.90172 
L 175.617082 361.536775 
L 176.37165 350.746911 
L 177.889664 329.087037 
L 178.457809 319.937498 
L 178.706373 312.036753 
L 178.875041 298.404426 
L 178.990445 268.370665 
L 179.096973 161.334532 
L 179.185745 93.770161 
L 179.239009 103.494615 
L 179.798277 307.094477 
L 180.046841 368.544574 
L 180.100105 368.890331 
L 180.162245 368.72276 
L 180.410809 366.900748 
L 180.916814 361.535381 
L 181.671382 350.745186 
L 183.189395 329.085529 
L 183.757541 319.935028 
L 184.006105 312.031425 
L 184.174773 298.389094 
L 184.290177 268.317695 
L 184.396705 161.16807 
L 184.485477 93.771277 
L 184.538741 103.527079 
L 185.098009 307.141788 
L 185.346573 368.546266 
L 185.399836 368.89039 
L 185.461977 368.722226 
L 185.710541 366.899791 
L 186.216545 361.534007 
L 186.971114 350.743486 
L 188.489127 329.084039 
L 189.057273 319.932578 
L 189.305836 312.026127 
L 189.474505 298.373833 
L 189.589909 268.264946 
L 189.696436 161.002432 
L 189.785209 93.772418 
L 189.838473 103.559367 
L 190.397741 307.188819 
L 190.646305 368.547945 
L 190.699568 368.89045 
L 190.761709 368.721696 
L 191.010273 366.898843 
L 191.516277 361.532646 
L 192.270845 350.741802 
L 193.788859 329.082562 
L 194.357005 319.930147 
L 194.605568 312.020869 
L 194.774236 298.358679 
L 194.889641 268.21255 
L 194.996168 160.838026 
L 195.084941 93.773671 
L 195.138205 103.591437 
L 195.697473 307.235505 
L 195.946036 368.549591 
L 195.9993 368.890502 
L 196.061441 368.721169 
L 196.310005 366.897901 
L 196.816009 361.531294 
L 197.570577 350.740131 
L 199.088591 329.081096 
L 199.656736 319.927732 
L 199.9053 312.015643 
L 200.073968 298.343614 
L 200.189373 268.160455 
L 200.2959 160.674658 
L 200.384673 93.775037 
L 200.437936 103.623365 
L 200.997205 307.281924 
L 201.245768 368.551219 
L 201.299032 368.89055 
L 201.361173 368.720642 
L 201.609736 366.896963 
L 202.115741 361.529948 
L 202.870309 350.738466 
L 204.388323 329.079636 
L 204.956468 319.925329 
L 205.205032 312.010444 
L 205.3737 298.328626 
L 205.489105 268.10862 
L 205.595632 160.512218 
L 205.684405 93.776508 
L 205.737668 103.655185 
L 206.296936 307.328163 
L 206.5455 368.552838 
L 206.598764 368.890598 
L 206.660905 368.720117 
L 206.909468 366.896029 
L 207.415473 361.528608 
L 208.170041 350.736808 
L 209.688055 329.078182 
L 210.2562 319.922938 
L 210.504764 312.00527 
L 210.673432 298.313709 
L 210.788836 268.057029 
L 210.895364 160.350646 
L 210.984136 93.778081 
L 211.0374 103.686906 
L 211.605545 311.219015 
L 211.845232 368.554434 
L 211.898495 368.89064 
L 211.960636 368.719594 
L 212.2092 366.895099 
L 212.715205 361.527274 
L 213.469773 350.735159 
L 214.987786 329.076736 
L 215.555932 319.920556 
L 215.804495 312.000116 
L 215.973164 298.298845 
L 216.088568 268.005607 
L 216.195095 160.189702 
L 216.283868 93.779753 
L 216.337132 103.718569 
L 216.905277 311.265904 
L 217.144964 368.556016 
L 217.198227 368.890678 
L 217.260368 368.719069 
L 217.508932 366.894171 
L 218.014936 361.525942 
L 218.769505 350.733511 
L 220.287518 329.075289 
L 220.855664 319.918173 
L 221.104227 311.994957 
L 221.272895 298.283965 
L 221.3883 267.954119 
L 221.494827 160.028646 
L 221.5836 93.781534 
L 221.636864 103.750317 
L 222.205009 311.312907 
L 222.444695 368.557598 
L 222.497959 368.890715 
L 222.5601 368.718544 
L 222.808664 366.89324 
L 223.314668 361.524606 
L 224.069236 350.731859 
L 225.58725 329.07384 
L 226.155395 319.915786 
L 226.403959 311.989789 
L 226.572627 298.269055 
L 226.688032 267.902522 
L 226.794559 159.867354 
L 226.883332 93.783446 
L 226.936595 103.782171 
L 227.504741 311.360041 
L 227.744427 368.559181 
L 227.797691 368.890751 
L 227.859832 368.718016 
L 228.108395 366.892306 
L 228.6144 361.523267 
L 229.368968 350.730203 
L 230.886982 329.072386 
L 231.455127 319.913394 
L 231.703691 311.984601 
L 231.872359 298.254078 
L 231.987764 267.850684 
L 232.094291 159.705405 
L 232.183064 93.785471 
L 232.236327 103.814222 
L 232.804473 311.407501 
L 233.044159 368.56077 
L 233.097423 368.890785 
L 233.159564 368.717484 
L 233.408127 366.891365 
L 233.914132 361.521916 
L 234.6687 350.728534 
L 236.186714 329.070921 
L 236.754859 319.910983 
L 237.003423 311.979362 
L 237.172091 298.238947 
L 237.287495 267.798296 
L 237.394023 159.541877 
L 237.482795 93.787598 
L 237.536059 103.846607 
L 238.104205 311.455447 
L 238.343891 368.562374 
L 238.397155 368.890819 
L 238.459295 368.716946 
L 238.707859 366.890415 
L 239.213864 361.520554 
L 239.968432 350.726849 
L 241.486445 329.069442 
L 242.054591 319.908548 
L 242.303155 311.97407 
L 242.471823 298.22366 
L 242.587227 267.745353 
L 242.693755 159.377645 
L 242.782527 93.78984 
L 242.835791 103.879138 
L 243.403936 311.503538 
L 243.643623 368.563979 
L 243.696886 368.890855 
L 243.759027 368.716409 
L 244.007591 366.889466 
L 244.513595 361.519191 
L 245.268164 350.725164 
L 246.786177 329.067962 
L 247.354323 319.906105 
L 247.602886 311.968756 
L 247.771555 298.208303 
L 247.886959 267.692151 
L 247.993486 159.213073 
L 248.082259 93.792141 
L 248.135523 103.911742 
L 248.712545 315.472239 
L 248.934477 368.417314 
L 248.996618 368.89089 
L 249.058759 368.715873 
L 249.307323 366.888518 
L 249.813327 361.517831 
L 250.567895 350.723483 
L 252.085909 329.066483 
L 252.654055 319.903663 
L 252.902618 311.963442 
L 253.071286 298.192941 
L 253.186691 267.638925 
L 253.293218 159.048551 
L 253.381991 93.794577 
L 253.435255 103.944377 
L 254.012277 315.521137 
L 254.234209 368.419394 
L 254.29635 368.890924 
L 254.358491 368.715337 
L 254.607055 366.887569 
L 255.113059 361.516471 
L 255.867627 350.721802 
L 257.385641 329.065006 
L 257.953786 319.901223 
L 258.20235 311.958134 
L 258.371018 298.177594 
L 258.486423 267.585742 
L 258.59295 158.884306 
L 258.681723 93.797227 
L 258.734986 103.976968 
L 259.312009 315.569871 
L 259.533941 368.421459 
L 259.596082 368.890954 
L 259.658223 368.714799 
L 259.906786 366.886621 
L 260.412791 361.515111 
L 261.167359 350.720121 
L 262.685373 329.063529 
L 263.253518 319.898788 
L 263.502082 311.95284 
L 263.67075 298.162291 
L 263.786155 267.532713 
L 263.892682 158.721263 
L 263.981455 93.800106 
L 264.034718 104.009386 
L 264.611741 315.618336 
L 264.833673 368.423502 
L 264.895814 368.890978 
L 264.957955 368.714261 
L 265.206518 366.885674 
L 265.712523 361.513753 
L 266.467091 350.718442 
L 267.985105 329.062056 
L 268.55325 319.896361 
L 268.801814 311.947564 
L 268.970482 298.147041 
L 269.085886 267.479835 
L 269.192414 158.559132 
L 269.281186 93.803053 
L 269.33445 104.041663 
L 269.911473 315.666553 
L 270.133405 368.425532 
L 270.195545 368.891003 
L 270.257686 368.713726 
L 270.50625 366.884734 
L 271.012255 361.512404 
L 271.766823 350.716775 
L 273.284836 329.060593 
L 273.852982 319.89395 
L 274.101545 311.942323 
L 274.270214 298.131889 
L 274.385618 267.42712 
L 274.492145 158.397699 
L 274.580918 93.806043 
L 274.634182 104.073815 
L 275.211205 315.71455 
L 275.433136 368.42755 
L 275.495277 368.891028 
L 275.557418 368.713195 
L 275.805982 366.883799 
L 276.311986 361.511064 
L 277.066555 350.715119 
L 278.584568 329.05914 
L 279.152714 319.891554 
L 279.401277 311.937114 
L 279.569945 298.116826 
L 279.68535 267.374704 
L 279.791877 158.237547 
L 279.88065 93.809129 
L 279.933914 104.105784 
L 280.510936 315.762238 
L 280.732868 368.429551 
L 280.795009 368.891051 
L 280.85715 368.712666 
L 281.105714 366.88287 
L 281.611718 361.509731 
L 282.366286 350.713472 
L 283.8843 329.057695 
L 284.452445 319.889173 
L 284.701009 311.931937 
L 284.869677 298.101856 
L 284.985082 267.322606 
L 285.091609 158.079138 
L 285.180382 93.812343 
L 285.233645 104.137461 
L 285.810668 315.809447 
L 286.0326 368.431525 
L 286.094741 368.891072 
L 286.156882 368.712142 
L 286.405445 366.881949 
L 286.91145 361.50841 
L 287.666018 350.711839 
L 289.184032 329.056263 
L 289.752177 319.886815 
L 290.000741 311.92681 
L 290.169409 298.087029 
L 290.284814 267.271003 
L 290.391341 157.922688 
L 290.480114 93.815641 
L 290.533377 104.168806 
L 291.119277 319.833527 
L 291.332332 368.433474 
L 291.394473 368.891092 
L 291.456614 368.711623 
L 291.705177 366.881038 
L 292.211182 361.507105 
L 292.96575 350.710226 
L 294.483764 329.054848 
L 295.051909 319.884485 
L 295.300473 311.921747 
L 295.469141 298.072361 
L 295.584545 267.219743 
L 295.691073 157.767304 
L 295.779845 93.819 
L 295.833109 104.199938 
L 296.419009 319.880313 
L 296.632064 368.4354 
L 296.694205 368.89111 
L 296.756345 368.711108 
L 297.004909 366.880135 
L 297.510914 361.505809 
L 298.265482 350.708625 
L 299.783495 329.053445 
L 300.351641 319.882176 
L 300.600205 311.916727 
L 300.768873 298.057801 
L 300.884277 267.168773 
L 300.990805 157.612872 
L 301.079577 93.822417 
L 301.132841 104.230927 
L 301.718741 319.926867 
L 301.931795 368.437314 
L 301.993936 368.891127 
L 302.056077 368.710596 
L 302.304641 366.879237 
L 302.810645 361.504521 
L 303.565214 350.707034 
L 305.083227 329.052051 
L 305.651373 319.87988 
L 305.899936 311.911722 
L 306.068605 298.043275 
L 306.184009 267.11791 
L 306.290536 157.458862 
L 306.379309 93.825915 
L 306.432573 104.261889 
L 307.018473 319.973364 
L 307.231527 368.43922 
L 307.293668 368.891143 
L 307.355809 368.710083 
L 307.61325 366.800898 
L 308.119255 361.392394 
L 308.8827 350.432106 
L 310.374082 329.170316 
L 310.942227 320.073852 
L 311.190791 312.330257 
L 311.359459 299.234964 
L 311.474864 271.191868 
L 311.581391 170.628584 
L 311.679041 93.829513 
L 311.732305 104.292981 
L 312.318205 320.02005 
L 312.531259 368.441129 
L 312.5934 368.891156 
L 312.655541 368.709567 
L 312.912982 366.799987 
L 313.418986 361.391093 
L 314.182432 350.430505 
L 315.673814 329.168916 
L 316.241959 320.071582 
L 316.490523 312.325408 
L 316.659191 299.221359 
L 316.774595 271.146182 
L 316.881123 170.472167 
L 316.978773 93.833228 
L 317.032036 104.324323 
L 317.617936 320.067071 
L 317.830991 368.443046 
L 317.893132 368.891168 
L 317.955273 368.709046 
L 318.212714 366.79907 
L 318.718718 361.389782 
L 319.482164 350.428893 
L 320.973545 329.167506 
L 321.541691 320.069295 
L 321.790255 312.320525 
L 321.958923 299.207653 
L 322.074327 271.100153 
L 322.180855 170.314647 
L 322.278505 93.837069 
L 322.331768 104.355946 
L 322.917668 320.114467 
L 323.130723 368.444975 
L 323.192864 368.891179 
L 323.255005 368.708521 
L 323.512445 366.798145 
L 324.01845 361.388461 
L 324.781895 350.427267 
L 326.273277 329.166084 
L 326.841423 320.06699 
L 327.089986 312.3156 
L 327.258655 299.193832 
L 327.374059 271.05373 
L 327.480586 170.155844 
L 327.578236 93.841041 
L 327.6315 104.387888 
L 328.2174 320.162324 
L 328.430455 368.44692 
L 328.492595 368.89119 
L 328.554736 368.707991 
L 328.812177 366.797211 
L 329.318182 361.387127 
L 329.344814 362.699594 
L 329.540114 366.479988 
L 329.637764 366.695833 
L 329.68215 366.649209 
L 329.833064 366.125033 
L 330.205909 363.80838 
L 332.700423 346.793145 
L 333.339586 344.40555 
L 333.863345 343.213211 
L 334.280577 342.74565 
L 334.644545 342.643978 
L 335.035145 342.774736 
L 335.683186 343.2758 
L 336.650809 343.969118 
L 337.316605 344.165804 
L 338.115559 344.154252 
L 341.293623 343.893588 
L 347.791786 343.930675 
L 435.845455 343.931651 
L 435.845455 343.931651 
" clip-path="url(#ped30d8a2f0)" style="fill: none; stroke: #ff0000; stroke-width: 1.5; stroke-linecap: square"/>
   </g>
   <g id="patch_3">
    <path d="M 63 384.48 
L 63 51.84 
" style="fill: none; stroke: #000000; stroke-width: 0.8; stroke-linejoin: miter; stroke-linecap: square"/>
   </g>
   <g id="patch_4">
    <path d="M 453.6 384.48 
L 453.6 51.84 
" style="fill: none; stroke: #000000; stroke-width: 0.8; stroke-linejoin: miter; stroke-linecap: square"/>
   </g>
   <g id="patch_5">
    <path d="M 63 384.48 
L 453.6 384.48 
" style="fill: none; stroke: #000000; stroke-width: 0.8; stroke-linejoin: miter; stroke-linecap: square"/>
   </g>
   <g id="patch_6">
    <path d="M 63 51.84 
L 453.6 51.84 
" style="fill: none; stroke: #000000; stroke-width: 0.8; stroke-linejoin: miter; stroke-linecap: square"/>
   </g>
   <g id="legend_1">
    <g id="patch_7">
     <path d="M 383.460938 89.19625 
L 446.6 89.19625 
Q 448.6 89.19625 448.6 87.19625 
L 448.6 58.84 
Q 448.6 56.84 446.6 56.84 
L 383.460938 56.84 
Q 381.460938 56.84 381.460938 58.84 
L 381.460938 87.19625 
Q 381.460938 89.19625 383.460938 89.19625 
z
" style="fill: #ffffff; opacity: 0.8; stroke: #cccccc; stroke-linejoin: miter"/>
    </g>
    <g id="line2d_15">
     <path d="M 385.460938 64.938437 
L 395.460938 64.938437 
L 405.460938 64.938437 
" style="fill: none; stroke: #1f77b4; stroke-width: 1.5; stroke-linecap: square"/>
    </g>
    <g id="text_15">
     <!-- target -->
     <g transform="translate(413.460938 68.438437)scale(0.1 -0.1)">
      <defs>
       <path id="DejaVuSans-72" d="M 2631 2963 
Q 2534 3019 2420 3045 
Q 2306 3072 2169 3072 
Q 1681 3072 1420 2755 
Q 1159 2438 1159 1844 
L 1159 0 
L 581 0 
L 581 3500 
L 1159 3500 
L 1159 2956 
Q 1341 3275 1631 3429 
Q 1922 3584 2338 3584 
Q 2397 3584 2469 3576 
Q 2541 3569 2628 3553 
L 2631 2963 
z
" transform="scale(0.015625)"/>
      </defs>
      <use xlink:href="#DejaVuSans-74"/>
      <use xlink:href="#DejaVuSans-61" x="39.208984"/>
      <use xlink:href="#DejaVuSans-72" x="100.488281"/>
      <use xlink:href="#DejaVuSans-67" x="139.851562"/>
      <use xlink:href="#DejaVuSans-65" x="203.328125"/>
      <use xlink:href="#DejaVuSans-74" x="264.851562"/>
     </g>
    </g>
    <g id="line2d_16">
     <path d="M 385.460938 79.616562 
L 395.460938 79.616562 
L 405.460938 79.616562 
" style="fill: none; stroke: #ff0000; stroke-width: 1.5; stroke-linecap: square"/>
    </g>
    <g id="text_16">
     <!-- model -->
     <g transform="translate(413.460938 83.116562)scale(0.1 -0.1)">
      <defs>
       <path id="DejaVuSans-64" d="M 2906 2969 
L 2906 4863 
L 3481 4863 
L 3481 0 
L 2906 0 
L 2906 525 
Q 2725 213 2448 61 
Q 2172 -91 1784 -91 
Q 1150 -91 751 415 
Q 353 922 353 1747 
Q 353 2572 751 3078 
Q 1150 3584 1784 3584 
Q 2172 3584 2448 3432 
Q 2725 3281 2906 2969 
z
M 947 1747 
Q 947 1113 1208 752 
Q 1469 391 1925 391 
Q 2381 391 2643 752 
Q 2906 1113 2906 1747 
Q 2906 2381 2643 2742 
Q 2381 3103 1925 3103 
Q 1469 3103 1208 2742 
Q 947 2381 947 1747 
z
" transform="scale(0.015625)"/>
      </defs>
      <use xlink:href="#DejaVuSans-6d"/>
      <use xlink:href="#DejaVuSans-6f" x="97.412109"/>
      <use xlink:href="#DejaVuSans-64" x="158.59375"/>
      <use xlink:href="#DejaVuSans-65" x="222.070312"/>
      <use xlink:href="#DejaVuSans-6c" x="283.59375"/>
     </g>
    </g>
   </g>
  </g>
 </g>
 <defs>
  <clipPath id="ped30d8a2f0">
   <rect x="63" y="51.84" width="390.6" height="332.64"/>
  </clipPath>
 </defs>
</svg>
