<?xml version="1.0" encoding="utf-8" standalone="no"?>
<!DOCTYPE svg PUBLIC "-//W3C//DTD SVG 1.1//EN"
  "http://www.w3.org/Graphics/SVG/1.1/DTD/svg11.dtd">
<svg xmlns:xlink="http://www.w3.org/1999/xlink" width="504pt" height="432pt" viewBox="0 0 504 432" xmlns="http://www.w3.org/2000/svg" version="1.1">
 <metadata>
  <rdf:RDF xmlns:dc="http://purl.org/dc/elements/1.1/" xmlns:cc="http://creativecommons.org/ns#" xmlns:rdf="http://www.w3.org/1999/02/22-rdf-syntax-ns#">
   <cc:Work>
    <dc:type rdf:resource="http://purl.org/dc/dcmitype/StillImage"/>
    <dc:date>2022-01-30T23:46:34.771797</dc:date>
    <dc:format>image/svg+xml</dc:format>
    <dc:creator>
     <cc:Agent>
      <dc:title>Matplotlib v3.5.1, https://matplotlib.org/</dc:title>
     </cc:Agent>
    </dc:creator>
   </cc:Work>
  </rdf:RDF>
 </metadata>
 <defs>
  <style type="text/css">*{stroke-linejoin: round; stroke-linecap: butt}</style>
 </defs>
 <g id="figure_1">
  <g id="patch_1">
   <path d="M 0 432 
L 504 432 
L 504 0 
L 0 0 
z
" style="fill: #ffffff"/>
  </g>
  <g id="axes_1">
   <g id="patch_2">
    <path d="M 63 384.48 
L 453.6 384.48 
L 453.6 51.84 
L 63 51.84 
z
" style="fill: #ffffff"/>
   </g>
   <g id="matplotlib.axis_1">
    <g id="xtick_1">
     <g id="line2d_1">
      <defs>
       <path id="mc2959f86e3" d="M 0 0 
L 0 3.5 
" style="stroke: #000000; stroke-width: 0.8"/>
      </defs>
      <g>
       <use xlink:href="#mc2959f86e3" x="80.754545" y="384.48" style="stroke: #000000; stroke-width: 0.8"/>
      </g>
     </g>
     <g id="text_1">
      <!-- 0 -->
      <g transform="translate(77.573295 399.078438)scale(0.1 -0.1)">
       <defs>
        <path id="DejaVuSans-30" d="M 2034 4250 
Q 1547 4250 1301 3770 
Q 1056 3291 1056 2328 
Q 1056 1369 1301 889 
Q 1547 409 2034 409 
Q 2525 409 2770 889 
Q 3016 1369 3016 2328 
Q 3016 3291 2770 3770 
Q 2525 4250 2034 4250 
z
M 2034 4750 
Q 2819 4750 3233 4129 
Q 3647 3509 3647 2328 
Q 3647 1150 3233 529 
Q 2819 -91 2034 -91 
Q 1250 -91 836 529 
Q 422 1150 422 2328 
Q 422 3509 836 4129 
Q 1250 4750 2034 4750 
z
" transform="scale(0.015625)"/>
       </defs>
       <use xlink:href="#DejaVuSans-30"/>
      </g>
     </g>
    </g>
    <g id="xtick_2">
     <g id="line2d_2">
      <g>
       <use xlink:href="#mc2959f86e3" x="151.772727" y="384.48" style="stroke: #000000; stroke-width: 0.8"/>
      </g>
     </g>
     <g id="text_2">
      <!-- 200 -->
      <g transform="translate(142.228977 399.078438)scale(0.1 -0.1)">
       <defs>
        <path id="DejaVuSans-32" d="M 1228 531 
L 3431 531 
L 3431 0 
L 469 0 
L 469 531 
Q 828 903 1448 1529 
Q 2069 2156 2228 2338 
Q 2531 2678 2651 2914 
Q 2772 3150 2772 3378 
Q 2772 3750 2511 3984 
Q 2250 4219 1831 4219 
Q 1534 4219 1204 4116 
Q 875 4013 500 3803 
L 500 4441 
Q 881 4594 1212 4672 
Q 1544 4750 1819 4750 
Q 2544 4750 2975 4387 
Q 3406 4025 3406 3419 
Q 3406 3131 3298 2873 
Q 3191 2616 2906 2266 
Q 2828 2175 2409 1742 
Q 1991 1309 1228 531 
z
" transform="scale(0.015625)"/>
       </defs>
       <use xlink:href="#DejaVuSans-32"/>
       <use xlink:href="#DejaVuSans-30" x="63.623047"/>
       <use xlink:href="#DejaVuSans-30" x="127.246094"/>
      </g>
     </g>
    </g>
    <g id="xtick_3">
     <g id="line2d_3">
      <g>
       <use xlink:href="#mc2959f86e3" x="222.790909" y="384.48" style="stroke: #000000; stroke-width: 0.8"/>
      </g>
     </g>
     <g id="text_3">
      <!-- 400 -->
      <g transform="translate(213.247159 399.078438)scale(0.1 -0.1)">
       <defs>
        <path id="DejaVuSans-34" d="M 2419 4116 
L 825 1625 
L 2419 1625 
L 2419 4116 
z
M 2253 4666 
L 3047 4666 
L 3047 1625 
L 3713 1625 
L 3713 1100 
L 3047 1100 
L 3047 0 
L 2419 0 
L 2419 1100 
L 313 1100 
L 313 1709 
L 2253 4666 
z
" transform="scale(0.015625)"/>
       </defs>
       <use xlink:href="#DejaVuSans-34"/>
       <use xlink:href="#DejaVuSans-30" x="63.623047"/>
       <use xlink:href="#DejaVuSans-30" x="127.246094"/>
      </g>
     </g>
    </g>
    <g id="xtick_4">
     <g id="line2d_4">
      <g>
       <use xlink:href="#mc2959f86e3" x="293.809091" y="384.48" style="stroke: #000000; stroke-width: 0.8"/>
      </g>
     </g>
     <g id="text_4">
      <!-- 600 -->
      <g transform="translate(284.265341 399.078438)scale(0.1 -0.1)">
       <defs>
        <path id="DejaVuSans-36" d="M 2113 2584 
Q 1688 2584 1439 2293 
Q 1191 2003 1191 1497 
Q 1191 994 1439 701 
Q 1688 409 2113 409 
Q 2538 409 2786 701 
Q 3034 994 3034 1497 
Q 3034 2003 2786 2293 
Q 2538 2584 2113 2584 
z
M 3366 4563 
L 3366 3988 
Q 3128 4100 2886 4159 
Q 2644 4219 2406 4219 
Q 1781 4219 1451 3797 
Q 1122 3375 1075 2522 
Q 1259 2794 1537 2939 
Q 1816 3084 2150 3084 
Q 2853 3084 3261 2657 
Q 3669 2231 3669 1497 
Q 3669 778 3244 343 
Q 2819 -91 2113 -91 
Q 1303 -91 875 529 
Q 447 1150 447 2328 
Q 447 3434 972 4092 
Q 1497 4750 2381 4750 
Q 2619 4750 2861 4703 
Q 3103 4656 3366 4563 
z
" transform="scale(0.015625)"/>
       </defs>
       <use xlink:href="#DejaVuSans-36"/>
       <use xlink:href="#DejaVuSans-30" x="63.623047"/>
       <use xlink:href="#DejaVuSans-30" x="127.246094"/>
      </g>
     </g>
    </g>
    <g id="xtick_5">
     <g id="line2d_5">
      <g>
       <use xlink:href="#mc2959f86e3" x="364.827273" y="384.48" style="stroke: #000000; stroke-width: 0.8"/>
      </g>
     </g>
     <g id="text_5">
      <!-- 800 -->
      <g transform="translate(355.283523 399.078438)scale(0.1 -0.1)">
       <defs>
        <path id="DejaVuSans-38" d="M 2034 2216 
Q 1584 2216 1326 1975 
Q 1069 1734 1069 1313 
Q 1069 891 1326 650 
Q 1584 409 2034 409 
Q 2484 409 2743 651 
Q 3003 894 3003 1313 
Q 3003 1734 2745 1975 
Q 2488 2216 2034 2216 
z
M 1403 2484 
Q 997 2584 770 2862 
Q 544 3141 544 3541 
Q 544 4100 942 4425 
Q 1341 4750 2034 4750 
Q 2731 4750 3128 4425 
Q 3525 4100 3525 3541 
Q 3525 3141 3298 2862 
Q 3072 2584 2669 2484 
Q 3125 2378 3379 2068 
Q 3634 1759 3634 1313 
Q 3634 634 3220 271 
Q 2806 -91 2034 -91 
Q 1263 -91 848 271 
Q 434 634 434 1313 
Q 434 1759 690 2068 
Q 947 2378 1403 2484 
z
M 1172 3481 
Q 1172 3119 1398 2916 
Q 1625 2713 2034 2713 
Q 2441 2713 2670 2916 
Q 2900 3119 2900 3481 
Q 2900 3844 2670 4047 
Q 2441 4250 2034 4250 
Q 1625 4250 1398 4047 
Q 1172 3844 1172 3481 
z
" transform="scale(0.015625)"/>
       </defs>
       <use xlink:href="#DejaVuSans-38"/>
       <use xlink:href="#DejaVuSans-30" x="63.623047"/>
       <use xlink:href="#DejaVuSans-30" x="127.246094"/>
      </g>
     </g>
    </g>
    <g id="text_6">
     <!-- time [ms] -->
     <g transform="translate(234.038281 412.756563)scale(0.1 -0.1)">
      <defs>
       <path id="DejaVuSans-74" d="M 1172 4494 
L 1172 3500 
L 2356 3500 
L 2356 3053 
L 1172 3053 
L 1172 1153 
Q 1172 725 1289 603 
Q 1406 481 1766 481 
L 2356 481 
L 2356 0 
L 1766 0 
Q 1100 0 847 248 
Q 594 497 594 1153 
L 594 3053 
L 172 3053 
L 172 3500 
L 594 3500 
L 594 4494 
L 1172 4494 
z
" transform="scale(0.015625)"/>
       <path id="DejaVuSans-69" d="M 603 3500 
L 1178 3500 
L 1178 0 
L 603 0 
L 603 3500 
z
M 603 4863 
L 1178 4863 
L 1178 4134 
L 603 4134 
L 603 4863 
z
" transform="scale(0.015625)"/>
       <path id="DejaVuSans-6d" d="M 3328 2828 
Q 3544 3216 3844 3400 
Q 4144 3584 4550 3584 
Q 5097 3584 5394 3201 
Q 5691 2819 5691 2113 
L 5691 0 
L 5113 0 
L 5113 2094 
Q 5113 2597 4934 2840 
Q 4756 3084 4391 3084 
Q 3944 3084 3684 2787 
Q 3425 2491 3425 1978 
L 3425 0 
L 2847 0 
L 2847 2094 
Q 2847 2600 2669 2842 
Q 2491 3084 2119 3084 
Q 1678 3084 1418 2786 
Q 1159 2488 1159 1978 
L 1159 0 
L 581 0 
L 581 3500 
L 1159 3500 
L 1159 2956 
Q 1356 3278 1631 3431 
Q 1906 3584 2284 3584 
Q 2666 3584 2933 3390 
Q 3200 3197 3328 2828 
z
" transform="scale(0.015625)"/>
       <path id="DejaVuSans-65" d="M 3597 1894 
L 3597 1613 
L 953 1613 
Q 991 1019 1311 708 
Q 1631 397 2203 397 
Q 2534 397 2845 478 
Q 3156 559 3463 722 
L 3463 178 
Q 3153 47 2828 -22 
Q 2503 -91 2169 -91 
Q 1331 -91 842 396 
Q 353 884 353 1716 
Q 353 2575 817 3079 
Q 1281 3584 2069 3584 
Q 2775 3584 3186 3129 
Q 3597 2675 3597 1894 
z
M 3022 2063 
Q 3016 2534 2758 2815 
Q 2500 3097 2075 3097 
Q 1594 3097 1305 2825 
Q 1016 2553 972 2059 
L 3022 2063 
z
" transform="scale(0.015625)"/>
       <path id="DejaVuSans-20" transform="scale(0.015625)"/>
       <path id="DejaVuSans-5b" d="M 550 4863 
L 1875 4863 
L 1875 4416 
L 1125 4416 
L 1125 -397 
L 1875 -397 
L 1875 -844 
L 550 -844 
L 550 4863 
z
" transform="scale(0.015625)"/>
       <path id="DejaVuSans-73" d="M 2834 3397 
L 2834 2853 
Q 2591 2978 2328 3040 
Q 2066 3103 1784 3103 
Q 1356 3103 1142 2972 
Q 928 2841 928 2578 
Q 928 2378 1081 2264 
Q 1234 2150 1697 2047 
L 1894 2003 
Q 2506 1872 2764 1633 
Q 3022 1394 3022 966 
Q 3022 478 2636 193 
Q 2250 -91 1575 -91 
Q 1294 -91 989 -36 
Q 684 19 347 128 
L 347 722 
Q 666 556 975 473 
Q 1284 391 1588 391 
Q 1994 391 2212 530 
Q 2431 669 2431 922 
Q 2431 1156 2273 1281 
Q 2116 1406 1581 1522 
L 1381 1569 
Q 847 1681 609 1914 
Q 372 2147 372 2553 
Q 372 3047 722 3315 
Q 1072 3584 1716 3584 
Q 2034 3584 2315 3537 
Q 2597 3491 2834 3397 
z
" transform="scale(0.015625)"/>
       <path id="DejaVuSans-5d" d="M 1947 4863 
L 1947 -844 
L 622 -844 
L 622 -397 
L 1369 -397 
L 1369 4416 
L 622 4416 
L 622 4863 
L 1947 4863 
z
" transform="scale(0.015625)"/>
      </defs>
      <use xlink:href="#DejaVuSans-74"/>
      <use xlink:href="#DejaVuSans-69" x="39.208984"/>
      <use xlink:href="#DejaVuSans-6d" x="66.992188"/>
      <use xlink:href="#DejaVuSans-65" x="164.404297"/>
      <use xlink:href="#DejaVuSans-20" x="225.927734"/>
      <use xlink:href="#DejaVuSans-5b" x="257.714844"/>
      <use xlink:href="#DejaVuSans-6d" x="296.728516"/>
      <use xlink:href="#DejaVuSans-73" x="394.140625"/>
      <use xlink:href="#DejaVuSans-5d" x="446.240234"/>
     </g>
    </g>
   </g>
   <g id="matplotlib.axis_2">
    <g id="ytick_1">
     <g id="line2d_6">
      <defs>
       <path id="ma77e28920b" d="M 0 0 
L -3.5 0 
" style="stroke: #000000; stroke-width: 0.8"/>
      </defs>
      <g>
       <use xlink:href="#ma77e28920b" x="63" y="381.943331" style="stroke: #000000; stroke-width: 0.8"/>
      </g>
     </g>
     <g id="text_7">
      <!-- −80 -->
      <g transform="translate(34.895313 385.74255)scale(0.1 -0.1)">
       <defs>
        <path id="DejaVuSans-2212" d="M 678 2272 
L 4684 2272 
L 4684 1741 
L 678 1741 
L 678 2272 
z
" transform="scale(0.015625)"/>
       </defs>
       <use xlink:href="#DejaVuSans-2212"/>
       <use xlink:href="#DejaVuSans-38" x="83.789062"/>
       <use xlink:href="#DejaVuSans-30" x="147.412109"/>
      </g>
     </g>
    </g>
    <g id="ytick_2">
     <g id="line2d_7">
      <g>
       <use xlink:href="#ma77e28920b" x="63" y="329.303895" style="stroke: #000000; stroke-width: 0.8"/>
      </g>
     </g>
     <g id="text_8">
      <!-- −60 -->
      <g transform="translate(34.895313 333.103114)scale(0.1 -0.1)">
       <use xlink:href="#DejaVuSans-2212"/>
       <use xlink:href="#DejaVuSans-36" x="83.789062"/>
       <use xlink:href="#DejaVuSans-30" x="147.412109"/>
      </g>
     </g>
    </g>
    <g id="ytick_3">
     <g id="line2d_8">
      <g>
       <use xlink:href="#ma77e28920b" x="63" y="276.664459" style="stroke: #000000; stroke-width: 0.8"/>
      </g>
     </g>
     <g id="text_9">
      <!-- −40 -->
      <g transform="translate(34.895313 280.463678)scale(0.1 -0.1)">
       <use xlink:href="#DejaVuSans-2212"/>
       <use xlink:href="#DejaVuSans-34" x="83.789062"/>
       <use xlink:href="#DejaVuSans-30" x="147.412109"/>
      </g>
     </g>
    </g>
    <g id="ytick_4">
     <g id="line2d_9">
      <g>
       <use xlink:href="#ma77e28920b" x="63" y="224.025023" style="stroke: #000000; stroke-width: 0.8"/>
      </g>
     </g>
     <g id="text_10">
      <!-- −20 -->
      <g transform="translate(34.895313 227.824242)scale(0.1 -0.1)">
       <use xlink:href="#DejaVuSans-2212"/>
       <use xlink:href="#DejaVuSans-32" x="83.789062"/>
       <use xlink:href="#DejaVuSans-30" x="147.412109"/>
      </g>
     </g>
    </g>
    <g id="ytick_5">
     <g id="line2d_10">
      <g>
       <use xlink:href="#ma77e28920b" x="63" y="171.385587" style="stroke: #000000; stroke-width: 0.8"/>
      </g>
     </g>
     <g id="text_11">
      <!-- 0 -->
      <g transform="translate(49.6375 175.184806)scale(0.1 -0.1)">
       <use xlink:href="#DejaVuSans-30"/>
      </g>
     </g>
    </g>
    <g id="ytick_6">
     <g id="line2d_11">
      <g>
       <use xlink:href="#ma77e28920b" x="63" y="118.746151" style="stroke: #000000; stroke-width: 0.8"/>
      </g>
     </g>
     <g id="text_12">
      <!-- 20 -->
      <g transform="translate(43.275 122.54537)scale(0.1 -0.1)">
       <use xlink:href="#DejaVuSans-32"/>
       <use xlink:href="#DejaVuSans-30" x="63.623047"/>
      </g>
     </g>
    </g>
    <g id="ytick_7">
     <g id="line2d_12">
      <g>
       <use xlink:href="#ma77e28920b" x="63" y="66.106715" style="stroke: #000000; stroke-width: 0.8"/>
      </g>
     </g>
     <g id="text_13">
      <!-- 40 -->
      <g transform="translate(43.275 69.905933)scale(0.1 -0.1)">
       <use xlink:href="#DejaVuSans-34"/>
       <use xlink:href="#DejaVuSans-30" x="63.623047"/>
      </g>
     </g>
    </g>
    <g id="text_14">
     <!-- voltage [mV] -->
     <g transform="translate(28.815625 250.624062)rotate(-90)scale(0.1 -0.1)">
      <defs>
       <path id="DejaVuSans-76" d="M 191 3500 
L 800 3500 
L 1894 563 
L 2988 3500 
L 3597 3500 
L 2284 0 
L 1503 0 
L 191 3500 
z
" transform="scale(0.015625)"/>
       <path id="DejaVuSans-6f" d="M 1959 3097 
Q 1497 3097 1228 2736 
Q 959 2375 959 1747 
Q 959 1119 1226 758 
Q 1494 397 1959 397 
Q 2419 397 2687 759 
Q 2956 1122 2956 1747 
Q 2956 2369 2687 2733 
Q 2419 3097 1959 3097 
z
M 1959 3584 
Q 2709 3584 3137 3096 
Q 3566 2609 3566 1747 
Q 3566 888 3137 398 
Q 2709 -91 1959 -91 
Q 1206 -91 779 398 
Q 353 888 353 1747 
Q 353 2609 779 3096 
Q 1206 3584 1959 3584 
z
" transform="scale(0.015625)"/>
       <path id="DejaVuSans-6c" d="M 603 4863 
L 1178 4863 
L 1178 0 
L 603 0 
L 603 4863 
z
" transform="scale(0.015625)"/>
       <path id="DejaVuSans-61" d="M 2194 1759 
Q 1497 1759 1228 1600 
Q 959 1441 959 1056 
Q 959 750 1161 570 
Q 1363 391 1709 391 
Q 2188 391 2477 730 
Q 2766 1069 2766 1631 
L 2766 1759 
L 2194 1759 
z
M 3341 1997 
L 3341 0 
L 2766 0 
L 2766 531 
Q 2569 213 2275 61 
Q 1981 -91 1556 -91 
Q 1019 -91 701 211 
Q 384 513 384 1019 
Q 384 1609 779 1909 
Q 1175 2209 1959 2209 
L 2766 2209 
L 2766 2266 
Q 2766 2663 2505 2880 
Q 2244 3097 1772 3097 
Q 1472 3097 1187 3025 
Q 903 2953 641 2809 
L 641 3341 
Q 956 3463 1253 3523 
Q 1550 3584 1831 3584 
Q 2591 3584 2966 3190 
Q 3341 2797 3341 1997 
z
" transform="scale(0.015625)"/>
       <path id="DejaVuSans-67" d="M 2906 1791 
Q 2906 2416 2648 2759 
Q 2391 3103 1925 3103 
Q 1463 3103 1205 2759 
Q 947 2416 947 1791 
Q 947 1169 1205 825 
Q 1463 481 1925 481 
Q 2391 481 2648 825 
Q 2906 1169 2906 1791 
z
M 3481 434 
Q 3481 -459 3084 -895 
Q 2688 -1331 1869 -1331 
Q 1566 -1331 1297 -1286 
Q 1028 -1241 775 -1147 
L 775 -588 
Q 1028 -725 1275 -790 
Q 1522 -856 1778 -856 
Q 2344 -856 2625 -561 
Q 2906 -266 2906 331 
L 2906 616 
Q 2728 306 2450 153 
Q 2172 0 1784 0 
Q 1141 0 747 490 
Q 353 981 353 1791 
Q 353 2603 747 3093 
Q 1141 3584 1784 3584 
Q 2172 3584 2450 3431 
Q 2728 3278 2906 2969 
L 2906 3500 
L 3481 3500 
L 3481 434 
z
" transform="scale(0.015625)"/>
       <path id="DejaVuSans-56" d="M 1831 0 
L 50 4666 
L 709 4666 
L 2188 738 
L 3669 4666 
L 4325 4666 
L 2547 0 
L 1831 0 
z
" transform="scale(0.015625)"/>
      </defs>
      <use xlink:href="#DejaVuSans-76"/>
      <use xlink:href="#DejaVuSans-6f" x="59.179688"/>
      <use xlink:href="#DejaVuSans-6c" x="120.361328"/>
      <use xlink:href="#DejaVuSans-74" x="148.144531"/>
      <use xlink:href="#DejaVuSans-61" x="187.353516"/>
      <use xlink:href="#DejaVuSans-67" x="248.632812"/>
      <use xlink:href="#DejaVuSans-65" x="312.109375"/>
      <use xlink:href="#DejaVuSans-20" x="373.632812"/>
      <use xlink:href="#DejaVuSans-5b" x="405.419922"/>
      <use xlink:href="#DejaVuSans-6d" x="444.433594"/>
      <use xlink:href="#DejaVuSans-56" x="541.845703"/>
      <use xlink:href="#DejaVuSans-5d" x="610.253906"/>
     </g>
    </g>
   </g>
   <g id="line2d_13">
    <path d="M 80.754545 342.463754 
L 81.952977 342.327155 
L 83.772818 342.384268 
L 85.965505 342.403219 
L 151.772727 342.394533 
L 152.314241 297.751554 
L 152.420768 248.985591 
L 152.562805 66.96 
L 152.678209 92.245353 
L 153.565936 369.022455 
L 153.610323 368.921651 
L 153.8145 367.539076 
L 154.293873 362.772575 
L 154.959668 353.626736 
L 157.42755 314.630915 
L 157.613973 303.473724 
L 157.738255 281.44912 
L 157.835905 218.724495 
L 157.969064 91.386541 
L 158.031205 104.574299 
L 158.883423 368.596865 
L 158.945564 368.41289 
L 159.203005 366.428384 
L 159.717886 360.740166 
L 160.534595 348.781013 
L 161.8218 330.601983 
L 162.514227 320.207537 
L 162.771668 312.666675 
L 162.940336 300.643038 
L 163.064618 272.601484 
L 163.162268 187.975247 
L 163.268795 92.30931 
L 163.322059 101.848102 
L 163.863573 297.472565 
L 164.147645 368.419734 
L 164.183155 368.565018 
L 164.245295 368.383149 
L 164.493859 366.474443 
L 165.008741 360.805965 
L 165.834327 348.723373 
L 167.112655 330.676731 
L 167.813959 320.172006 
L 168.0714 312.621405 
L 168.240068 300.558289 
L 168.36435 272.354605 
L 168.462 187.227636 
L 168.568527 92.386427 
L 168.621791 102.070767 
L 169.172182 301.434998 
L 169.4385 368.333668 
L 169.482886 368.562913 
L 169.545027 368.377096 
L 169.802468 366.38443 
L 170.31735 360.678315 
L 171.151814 348.433592 
L 172.430141 330.433274 
L 173.113691 320.153582 
L 173.371132 312.58482 
L 173.5398 300.462222 
L 173.664082 272.015607 
L 173.761732 186.073227 
L 173.868259 92.403271 
L 173.921523 102.307381 
L 174.480791 305.517187 
L 174.729355 368.223915 
L 174.782618 368.562913 
L 174.844759 368.372884 
L 175.1022 366.37706 
L 175.617082 360.667524 
L 176.451545 348.420696 
L 177.729873 330.422483 
L 178.413423 320.136737 
L 178.670864 312.548762 
L 178.839532 300.364839 
L 178.963814 271.66766 
L 179.061464 184.885023 
L 179.167991 92.420642 
L 179.221255 102.546628 
L 179.7894 309.702811 
L 180.029086 368.236285 
L 180.08235 368.563176 
L 180.144491 368.36841 
L 180.401932 366.369691 
L 180.916814 360.656996 
L 181.751277 348.408325 
L 183.029605 330.411955 
L 183.713155 320.119629 
L 183.970595 312.512441 
L 184.139264 300.266403 
L 184.263545 271.311555 
L 184.361195 183.675921 
L 184.467723 92.444593 
L 184.520986 102.789559 
L 185.098009 313.980555 
L 185.328818 368.248392 
L 185.382082 368.563176 
L 185.444223 368.364199 
L 185.701664 366.362058 
L 186.216545 360.646468 
L 187.051009 348.395692 
L 188.329336 330.401427 
L 189.012886 320.102785 
L 189.270327 312.475857 
L 189.438995 300.166388 
L 189.563277 270.950185 
L 189.660927 182.462003 
L 189.767455 92.474335 
L 189.820718 103.034858 
L 190.406618 318.330678 
L 190.619673 368.114162 
L 190.681814 368.562913 
L 190.743955 368.359725 
L 191.010273 366.273097 
L 191.525155 360.52066 
L 192.368495 348.109334 
L 193.637945 330.275093 
L 194.312618 320.085414 
L 194.570059 312.439272 
L 194.738727 300.065847 
L 194.863009 270.585394 
L 194.969536 167.847822 
L 195.058309 92.460912 
L 195.12045 103.28279 
L 195.715227 322.727124 
L 195.919405 368.12969 
L 195.981545 368.562913 
L 196.043686 368.35525 
L 196.310005 366.265465 
L 196.833764 360.394325 
L 197.703736 347.550039 
L 198.955432 330.033214 
L 199.61235 320.068306 
L 199.869791 312.402162 
L 200.038459 299.964253 
L 200.162741 270.213233 
L 200.269268 166.581028 
L 200.358041 92.431434 
L 200.420182 103.534933 
L 201.023836 327.132781 
L 201.219136 368.144429 
L 201.281277 368.562386 
L 201.343418 368.350776 
L 201.609736 366.257832 
L 202.133495 360.383271 
L 202.994591 347.673742 
L 204.255164 330.022423 
L 204.912082 320.050672 
L 205.169523 312.364524 
L 205.338191 299.861079 
L 205.462473 269.833439 
L 205.569 165.305732 
L 205.657773 92.409062 
L 205.719914 103.788918 
L 206.332445 331.499486 
L 206.518868 368.159168 
L 206.581009 368.562123 
L 206.634273 368.392887 
L 206.873959 366.572879 
L 207.388841 360.94625 
L 208.187795 349.303459 
L 209.510509 330.588824 
L 210.202936 320.218065 
L 210.460377 312.72063 
L 210.629045 300.827013 
L 210.753327 273.310274 
L 210.850977 190.542841 
L 210.957505 92.393796 
L 211.019645 104.043956 
L 211.641055 335.773018 
L 211.827477 368.305243 
L 211.880741 368.561597 
L 211.934005 368.388676 
L 212.182568 366.485497 
L 212.69745 360.821757 
L 213.514159 348.879448 
L 214.810241 330.578033 
L 215.502668 320.200957 
L 215.760109 312.684572 
L 215.928777 300.730419 
L 216.053059 272.96996 
L 216.150709 189.360559 
L 216.257236 92.38748 
L 216.319377 104.298468 
L 216.949664 339.889686 
L 217.127209 368.315771 
L 217.171595 368.562123 
L 217.233736 368.384465 
L 217.4823 366.478128 
L 217.997182 360.811229 
L 218.822768 348.729689 
L 220.101095 330.682522 
L 220.8024 320.183849 
L 221.059841 312.648777 
L 221.228509 300.634089 
L 221.352791 272.62833 
L 221.450441 188.178857 
L 221.556968 92.388006 
L 221.610232 101.885213 
L 222.151745 297.528099 
L 222.426941 368.325772 
L 222.471327 368.562386 
L 222.533468 368.380254 
L 222.782032 366.470758 
L 223.296914 360.800702 
L 224.1225 348.716793 
L 225.418582 330.441433 
L 226.111009 319.981188 
L 226.36845 312.214765 
L 226.537118 299.446544 
L 226.652523 272.284068 
L 226.750173 186.992443 
L 226.8567 92.39406 
L 226.909964 102.123406 
L 227.460355 301.510536 
L 227.726673 368.33551 
L 227.771059 368.562913 
L 227.8332 368.376043 
L 228.090641 366.382587 
L 228.605523 360.675683 
L 229.439986 348.430434 
L 230.718314 330.430642 
L 231.401864 320.149634 
L 231.659305 312.576398 
L 231.827973 300.440113 
L 231.952255 271.937438 
L 232.049905 185.805818 
L 232.156432 92.406956 
L 232.209695 102.361337 
L 232.768964 305.595883 
L 233.017527 368.22681 
L 233.070791 368.562913 
L 233.132932 368.371832 
L 233.390373 366.375218 
L 233.905255 360.665155 
L 234.739718 348.417801 
L 236.018045 330.420114 
L 236.701595 320.132789 
L 236.959036 312.540603 
L 237.127705 300.34273 
L 237.251986 271.587649 
L 237.349636 184.612403 
L 237.456164 92.42538 
L 237.509427 102.601636 
L 238.077573 309.783876 
L 238.317259 368.238917 
L 238.370523 368.563176 
L 238.432664 368.36762 
L 238.690105 366.367848 
L 239.204986 360.654627 
L 240.03945 348.40543 
L 241.317777 330.409586 
L 242.001327 320.115945 
L 242.258768 312.504282 
L 242.427436 300.243768 
L 242.551718 271.2297 
L 242.649368 183.400485 
L 242.755895 92.45091 
L 242.809159 102.845093 
L 243.386182 314.063462 
L 243.616991 368.251024 
L 243.670255 368.563176 
L 243.732395 368.363146 
L 243.989836 366.360479 
L 244.504718 360.644099 
L 245.348059 348.255934 
L 246.617509 330.398795 
L 247.301059 320.098837 
L 247.5585 312.467698 
L 247.727168 300.14349 
L 247.85145 270.867804 
L 247.9491 182.185383 
L 248.055627 92.482231 
L 248.108891 103.090919 
L 248.694791 318.415428 
L 248.907845 368.117846 
L 248.969986 368.562913 
L 249.032127 368.358935 
L 249.298445 366.271518 
L 249.822205 360.402747 
L 250.692177 347.560041 
L 251.943873 330.041637 
L 252.600791 320.081466 
L 252.858232 312.43085 
L 253.0269 300.042685 
L 253.151182 270.501171 
L 253.257709 167.55941 
L 253.346482 92.453542 
L 253.408623 103.340167 
L 254.0034 322.813453 
L 254.207577 368.133112 
L 254.269718 368.56265 
L 254.331859 368.354461 
L 254.598177 366.263885 
L 255.121936 360.391693 
L 255.983032 347.683744 
L 257.22585 330.261933 
L 257.900523 320.064358 
L 258.157964 312.393739 
L 258.326632 299.940828 
L 258.450914 270.127167 
L 258.557441 166.29001 
L 258.646214 92.425643 
L 258.708355 103.5931 
L 259.312009 327.21911 
L 259.507309 368.147851 
L 259.56945 368.562386 
L 259.631591 368.349723 
L 259.897909 366.255989 
L 260.421668 360.380902 
L 261.291641 347.534511 
L 262.525582 330.251142 
L 263.200255 320.046724 
L 263.457695 312.356102 
L 263.626364 299.837391 
L 263.750645 269.746058 
L 263.857173 165.014188 
L 263.945945 92.404851 
L 264.008086 103.847085 
L 264.620618 331.584499 
L 264.807041 368.16259 
L 264.869182 368.56186 
L 264.922445 368.392098 
L 265.171009 366.491288 
L 265.685891 360.83018 
L 266.511477 348.752324 
L 267.807559 330.471174 
L 268.499986 320.029353 
L 268.757427 312.318465 
L 268.926095 299.733955 
L 269.050377 269.364948 
L 269.156905 163.747868 
L 269.245677 92.391691 
L 269.298941 101.465414 
L 269.8227 289.947757 
L 270.133405 368.474479 
L 270.168914 368.561597 
L 270.222177 368.387887 
L 270.470741 366.483918 
L 270.985623 360.819389 
L 271.802332 348.876553 
L 273.098414 330.575664 
L 273.790841 320.197009 
L 274.048282 312.676413 
L 274.21695 300.708574 
L 274.341232 272.892054 
L 274.438882 189.090098 
L 274.545409 92.387216 
L 274.598673 101.702028 
L 275.131309 293.7249 
L 275.424259 368.412364 
L 275.459768 368.562123 
L 275.521909 368.383675 
L 275.770473 366.476549 
L 276.285355 360.808861 
L 277.110941 348.726794 
L 278.389268 330.680153 
L 279.090573 320.179902 
L 279.348014 312.640355 
L 279.516682 300.611981 
L 279.640964 272.549897 
L 279.738614 187.90829 
L 279.845141 92.388532 
L 279.898405 101.939695 
L 280.439918 297.604163 
L 280.715114 368.327878 
L 280.7595 368.56265 
L 280.821641 368.379464 
L 281.079082 366.388378 
L 281.593964 360.683842 
L 282.428427 348.440172 
L 283.706755 330.438801 
L 284.390305 320.162794 
L 284.647745 312.604297 
L 284.816414 300.515124 
L 284.940695 272.205109 
L 285.038345 186.721771 
L 285.144873 92.396428 
L 285.198136 102.177625 
L 285.748527 301.587653 
L 286.014845 368.337616 
L 286.059232 368.562913 
L 286.121373 368.37499 
L 286.378814 366.381008 
L 286.893695 360.673314 
L 287.728159 348.427539 
L 289.006486 330.428273 
L 289.690036 320.145949 
L 289.947477 312.568239 
L 290.116145 300.418004 
L 290.240427 271.857952 
L 290.338077 185.534251 
L 290.444605 92.410641 
L 290.497868 102.415819 
L 291.057136 305.675368 
L 291.3057 368.229705 
L 291.358964 368.563176 
L 291.421105 368.370779 
L 291.678545 366.373639 
L 292.193427 360.662786 
L 293.027891 348.414905 
L 294.315095 330.302202 
L 294.989768 320.128841 
L 295.247209 312.532181 
L 295.415877 300.320358 
L 295.540159 271.506584 
L 295.637809 184.336915 
L 295.744336 92.430644 
L 295.7976 102.656907 
L 296.365745 309.865467 
L 296.605432 368.241812 
L 296.658695 368.563176 
L 296.720836 368.366568 
L 296.978277 366.366269 
L 297.493159 360.652258 
L 298.327623 348.402535 
L 299.60595 330.407218 
L 300.2895 320.111997 
L 300.546941 312.49586 
L 300.715609 300.22087 
L 300.839891 271.147583 
L 300.937541 183.124655 
L 301.044068 92.45749 
L 301.097332 102.900628 
L 301.674355 314.146369 
L 301.905164 368.253656 
L 301.958427 368.563176 
L 302.020568 368.362357 
L 302.286886 366.277308 
L 302.810645 360.410907 
L 303.671741 347.706379 
L 304.914559 330.281146 
L 305.589232 320.094889 
L 305.846673 312.459275 
L 306.015341 300.120855 
L 306.139623 270.78516 
L 306.24615 168.533714 
L 306.334923 92.479599 
L 306.397064 103.147244 
L 306.982964 318.500177 
L 307.196018 368.121268 
L 307.258159 368.562913 
L 307.3203 368.357882 
L 307.586618 366.269676 
L 308.110377 360.400115 
L 308.971473 347.693745 
L 310.214291 330.270355 
L 310.888964 320.077781 
L 311.146405 312.422428 
L 311.315073 300.019787 
L 311.439355 270.416684 
L 311.545882 167.272025 
L 311.634655 92.446699 
L 311.696795 103.397281 
L 312.291573 322.899255 
L 312.49575 368.136533 
L 312.557891 368.56265 
L 312.620032 368.353408 
L 312.88635 366.262043 
L 313.410109 360.389324 
L 314.280082 347.544249 
L 315.531777 330.028214 
L 316.188695 320.060147 
L 316.446136 312.385054 
L 316.614805 299.917403 
L 316.739086 270.041365 
L 316.845614 166.000099 
L 316.934386 92.420379 
L 316.996527 103.65074 
L 317.600182 327.305176 
L 317.795482 368.151272 
L 317.857623 368.562386 
L 317.910886 368.395256 
L 318.150573 366.576827 
L 318.665455 360.95204 
L 319.464409 349.310302 
L 320.787123 330.594877 
L 321.488427 320.042776 
L 321.745868 312.347417 
L 321.914536 299.813704 
L 322.038818 269.65894 
L 322.145345 164.72404 
L 322.234118 92.401166 
L 322.296259 103.905251 
L 322.908791 331.669248 
L 323.095214 368.166011 
L 323.157355 368.56186 
L 323.210618 368.391045 
L 323.459182 366.489709 
L 323.974064 360.827548 
L 324.790773 348.886292 
L 326.095732 330.468542 
L 326.779282 320.210169 
L 327.036723 312.704312 
L 327.205391 300.783059 
L 327.329673 273.155251 
L 327.427323 190.003813 
L 327.53385 92.389848 
L 327.595991 104.160026 
L 328.2174 335.936727 
L 328.403823 368.30998 
L 328.457086 368.561334 
L 328.51035 368.386834 
L 328.758914 366.482076 
L 329.273795 360.81702 
L 329.318182 360.240355 
L 329.335936 361.144174 
L 329.531236 365.152141 
L 329.620009 365.340853 
L 329.664395 365.283213 
L 329.815309 364.673648 
L 330.214786 361.844015 
L 332.176664 347.020487 
L 332.869091 343.783951 
L 333.428359 342.121071 
L 333.889977 341.374644 
L 334.262823 341.146715 
L 334.609036 341.183563 
L 335.061777 341.473869 
L 336.553159 342.56877 
L 337.156814 342.665889 
L 338.097805 342.555347 
L 339.580309 342.360054 
L 342.101455 342.396376 
L 345.714505 342.392428 
L 435.845455 342.394533 
L 435.845455 342.394533 
" clip-path="url(#pa2751a0fc9)" style="fill: none; stroke: #1f77b4; stroke-width: 1.5; stroke-linecap: square"/>
   </g>
   <g id="line2d_14">
    <path d="M 80.754545 342.463754 
L 81.109636 332.105018 
L 81.571255 319.07522 
L 81.739923 306.150636 
L 81.855327 275.282976 
L 81.9441 163.925762 
L 82.032873 68.935034 
L 82.086136 76.638043 
L 82.3347 160.023262 
L 83.01825 369.358817 
L 83.062636 369.268283 
L 83.293445 367.78957 
L 83.834959 362.90938 
L 86.098664 340.468131 
L 86.746705 337.018337 
L 87.297095 335.182277 
L 87.70545 334.479713 
L 88.042786 334.291249 
L 88.362368 334.371228 
L 88.841741 334.769931 
L 89.587432 335.333586 
L 90.120068 335.450664 
L 90.883514 335.353963 
L 92.241736 335.197738 
L 103.098641 335.246801 
L 151.772727 335.246898 
L 152.323118 291.864669 
L 152.420768 235.977276 
L 152.553927 75.462504 
L 152.6427 93.490903 
L 153.308495 334.336535 
L 153.486041 366.966897 
L 153.512673 367.029097 
L 153.557059 366.832801 
L 153.832255 364.14775 
L 154.435909 356.124639 
L 156.033818 333.990265 
L 157.471936 316.759388 
L 157.684991 309.523202 
L 157.835905 295.245866 
L 157.942432 259.797326 
L 158.1111 93.333719 
L 158.244259 127.413103 
L 158.998827 366.64408 
L 159.016582 366.654299 
L 159.043214 366.557251 
L 159.229636 364.861586 
L 159.797782 357.607636 
L 161.644255 332.428229 
L 162.949214 317.337189 
L 163.171145 310.843108 
L 163.330936 298.472327 
L 163.446341 267.662745 
L 163.552868 150.557271 
L 163.632764 94.126485 
L 163.686027 102.930233 
L 164.129891 257.941132 
L 164.529368 366.627709 
L 164.573755 366.438304 
L 164.831195 363.882242 
L 165.452605 355.511051 
L 166.943986 334.772173 
L 168.550773 315.430075 
L 168.746073 307.783802 
L 168.888109 291.945466 
L 168.994636 247.759884 
L 169.14555 94.276269 
L 169.252077 118.330723 
L 170.042155 366.62692 
L 170.059909 366.596582 
L 170.175314 365.716176 
L 170.663564 359.915219 
L 173.122568 327.825443 
L 173.886014 319.048389 
L 174.143455 313.232895 
L 174.321 303.408993 
L 174.445282 281.940105 
L 174.542932 216.412675 
L 174.667214 94.198524 
L 174.729355 105.448588 
L 175.2975 306.828716 
L 175.537186 366.551274 
L 175.563818 366.625027 
L 175.617082 366.373146 
L 175.910032 363.364106 
L 176.558073 354.434402 
L 177.925173 335.375836 
L 179.611855 314.722975 
L 179.798277 306.616159 
L 179.931436 290.102111 
L 180.037964 240.190792 
L 180.18 94.28326 
L 180.268773 112.318204 
L 181.076605 366.626712 
L 181.138745 366.340415 
L 181.44945 363.101397 
L 182.115245 353.827304 
L 183.420205 335.632039 
L 185.133518 314.598898 
L 185.319941 306.303421 
L 185.4531 289.11078 
L 185.55075 244.121697 
L 185.701664 94.198934 
L 185.799314 116.786383 
L 186.598268 366.625027 
L 186.6249 366.540177 
L 186.802445 364.951268 
L 187.361714 357.858642 
L 189.26145 332.051354 
L 190.522023 317.574235 
L 190.752832 311.023536 
L 190.912623 299.050996 
L 191.028027 269.889199 
L 191.125677 171.687991 
L 191.21445 94.284121 
L 191.276591 104.178807 
L 191.80035 287.019983 
L 192.111055 366.626707 
L 192.119932 366.619211 
L 192.199827 366.124289 
L 192.599305 361.675468 
L 193.398259 350.022459 
L 194.4369 335.838395 
L 195.599823 323.611389 
L 196.034809 317.659056 
L 196.265618 311.216393 
L 196.425409 299.612776 
L 196.540814 271.942047 
L 196.638464 178.680633 
L 196.736114 94.19889 
L 196.789377 102.958476 
L 197.224364 255.097266 
L 197.632718 366.625045 
L 197.677105 366.435291 
L 197.934545 363.878479 
L 198.555955 355.506118 
L 200.047336 334.76873 
L 201.654123 315.429846 
L 201.849423 307.786246 
L 201.991459 291.957014 
L 202.097986 247.8122 
L 202.2489 94.284938 
L 202.355427 118.313007 
L 203.145505 366.626705 
L 203.163259 366.596542 
L 203.278664 365.716448 
L 203.766914 359.915618 
L 206.225918 327.825802 
L 206.989364 319.049192 
L 207.246805 313.234784 
L 207.42435 303.414465 
L 207.548632 281.959005 
L 207.646282 216.487499 
L 207.770564 94.198848 
L 207.832705 105.431518 
L 208.40085 306.803026 
L 208.640536 366.550826 
L 208.667168 366.625062 
L 208.720432 366.373558 
L 209.013382 363.36478 
L 209.661423 354.435272 
L 211.028523 335.376497 
L 212.715205 314.724627 
L 212.901627 306.620316 
L 213.034786 290.115116 
L 213.141314 240.245038 
L 213.28335 94.285752 
L 213.372123 112.298739 
L 214.179955 366.626702 
L 214.242095 366.340862 
L 214.5528 363.102107 
L 215.218595 353.828211 
L 216.523555 335.632728 
L 218.236868 314.600581 
L 218.423291 306.307695 
L 218.55645 289.124406 
L 218.6541 244.17241 
L 218.805014 94.19881 
L 218.902664 116.765956 
L 219.701618 366.625078 
L 219.72825 366.540476 
L 219.905795 364.951893 
L 220.465064 357.859496 
L 222.3648 332.051981 
L 223.625373 317.575372 
L 223.856182 311.026134 
L 224.015973 299.0586 
L 224.131377 269.91719 
L 224.229027 171.780941 
L 224.3178 94.286565 
L 224.379941 104.162332 
L 224.9037 286.997762 
L 225.214405 366.626699 
L 225.223282 366.619315 
L 225.303177 366.124799 
L 225.702655 361.676224 
L 226.501609 350.023363 
L 227.54025 335.839084 
L 228.703173 323.612036 
L 229.138159 317.660179 
L 229.368968 311.21892 
L 229.528759 299.620065 
L 229.644164 271.968362 
L 229.741814 178.772468 
L 229.839464 94.198775 
L 229.892727 102.942659 
L 230.327714 255.078246 
L 230.736068 366.625094 
L 230.780455 366.435682 
L 231.037895 363.879149 
L 231.659305 355.506999 
L 233.150686 334.769395 
L 234.757473 315.43133 
L 234.952773 307.789887 
L 235.094809 291.968582 
L 235.201336 247.858723 
L 235.35225 94.287379 
L 235.458777 118.292669 
L 236.248855 366.626696 
L 236.266609 366.596735 
L 236.382014 365.717013 
L 236.870264 359.916417 
L 239.329268 327.826392 
L 240.092714 319.050132 
L 240.350155 313.236746 
L 240.5277 303.419869 
L 240.651982 281.977355 
L 240.749632 216.559579 
L 240.873914 94.198743 
L 240.936055 105.414667 
L 241.5042 306.777635 
L 241.743886 366.550394 
L 241.770518 366.62511 
L 241.823782 366.37398 
L 242.116732 363.365464 
L 242.764773 354.436155 
L 244.131873 335.377167 
L 245.818555 314.726238 
L 246.004977 306.624352 
L 246.138136 290.127714 
L 246.244664 240.297535 
L 246.3867 94.288189 
L 246.48435 115.236467 
L 247.283305 366.626693 
L 247.318814 366.517306 
L 247.514114 364.715904 
L 248.091136 357.281135 
L 249.866591 332.955493 
L 251.242568 316.955834 
L 251.4645 309.998734 
L 251.615414 297.246123 
L 251.730818 262.976512 
L 251.846223 126.208577 
L 251.908364 94.198716 
L 251.970505 105.409173 
L 252.53865 306.769355 
L 252.778336 366.550252 
L 252.804968 366.625125 
L 252.858232 366.374117 
L 253.151182 363.365687 
L 253.799223 354.436442 
L 255.166323 335.377385 
L 256.853005 314.726764 
L 257.039427 306.625669 
L 257.172586 290.131824 
L 257.279114 240.31466 
L 257.42115 94.288993 
L 257.5188 115.230075 
L 258.317755 366.62669 
L 258.353264 366.51741 
L 258.548564 364.716107 
L 259.125586 357.281411 
L 260.901041 332.955698 
L 262.277018 316.956227 
L 262.49895 309.999661 
L 262.649864 297.248856 
L 262.765268 262.987327 
L 262.880673 126.231519 
L 262.942814 94.198691 
L 263.004955 105.403744 
L 263.5731 306.761172 
L 263.812786 366.550112 
L 263.839418 366.62514 
L 263.892682 366.374253 
L 264.185632 363.365907 
L 264.833673 354.436727 
L 266.200773 335.377601 
L 267.887455 314.727284 
L 268.073877 306.62697 
L 268.207036 290.135886 
L 268.313564 240.331591 
L 268.4556 94.289791 
L 268.55325 115.223756 
L 269.352205 366.626687 
L 269.387714 366.517513 
L 269.583014 364.716308 
L 270.160036 357.281684 
L 271.935491 332.9559 
L 273.311468 316.956616 
L 273.5334 310.000577 
L 273.684314 297.251558 
L 273.799718 262.99802 
L 273.915123 126.254209 
L 273.977264 94.19867 
L 274.039405 105.398377 
L 274.60755 306.753083 
L 274.847236 366.549974 
L 274.873868 366.625155 
L 274.927132 366.374387 
L 275.220082 363.366125 
L 275.868123 354.437008 
L 277.235223 335.377814 
L 278.921905 314.727798 
L 279.108327 306.628258 
L 279.241486 290.139904 
L 279.348014 240.348331 
L 279.49005 94.290584 
L 279.5877 115.217509 
L 280.386655 366.626683 
L 280.422164 366.517615 
L 280.617464 364.716507 
L 281.194486 357.281953 
L 282.969941 332.9561 
L 284.345918 316.957 
L 284.56785 310.001484 
L 284.718764 297.254231 
L 284.834168 263.008595 
L 284.949573 126.276666 
L 285.011714 94.198653 
L 285.073855 105.39307 
L 285.642 306.745083 
L 285.881686 366.549837 
L 285.908318 366.625169 
L 285.961582 366.37452 
L 286.254532 363.366341 
L 286.902573 354.437286 
L 288.269673 335.378025 
L 289.956355 314.728306 
L 290.142777 306.629531 
L 290.275936 290.143878 
L 290.382464 240.364893 
L 290.533377 94.289996 
L 290.62215 115.211324 
L 291.421105 366.62668 
L 291.456614 366.517716 
L 291.651914 364.716704 
L 292.228936 357.282219 
L 294.004391 332.956298 
L 295.380368 316.957381 
L 295.6023 310.002382 
L 295.753214 297.256879 
L 295.868618 263.019076 
L 295.984023 126.299032 
L 296.046164 94.198651 
L 296.108305 105.387797 
L 296.67645 306.73713 
L 296.916136 366.549701 
L 296.942768 366.625184 
L 296.996032 366.374652 
L 297.288982 363.366555 
L 297.937023 354.437563 
L 299.304123 335.378235 
L 300.990805 314.728812 
L 301.177227 306.630798 
L 301.310386 290.147833 
L 301.416914 240.381371 
L 301.567827 94.289269 
L 301.6566 115.205172 
L 302.455555 366.626677 
L 302.491064 366.517816 
L 302.686364 364.716899 
L 303.263386 357.282485 
L 305.047718 332.86053 
L 306.414818 316.95776 
L 306.63675 310.003276 
L 306.787664 297.259515 
L 306.903068 263.029505 
L 307.018473 126.321296 
L 307.080614 94.198652 
L 307.142755 105.382551 
L 307.7109 306.729217 
L 307.950586 366.549565 
L 307.977218 366.625198 
L 308.030482 366.374783 
L 308.323432 363.366768 
L 308.971473 354.437838 
L 310.338573 335.378444 
L 312.025255 314.729316 
L 312.211677 306.632059 
L 312.344836 290.151768 
L 312.451364 240.397769 
L 312.602277 94.288549 
L 312.69105 115.19905 
L 313.490005 366.626673 
L 313.525514 366.517915 
L 313.720814 364.717094 
L 314.297836 357.282748 
L 316.082168 332.860725 
L 317.449268 316.958137 
L 317.6712 310.004166 
L 317.822114 297.262139 
L 317.937518 263.039888 
L 318.052923 126.343467 
L 318.115064 94.198655 
L 318.177205 105.377329 
L 318.74535 306.721341 
L 318.985036 366.54943 
L 319.011668 366.625212 
L 319.064932 366.374914 
L 319.357882 363.366981 
L 320.005923 354.438111 
L 321.373023 335.378652 
L 323.059705 314.729817 
L 323.246127 306.633314 
L 323.379286 290.155686 
L 323.485814 240.414095 
L 323.636727 94.287834 
L 323.7255 115.192957 
L 324.524455 366.62667 
L 324.559964 366.518014 
L 324.755264 364.717288 
L 325.332286 357.283011 
L 327.116618 332.86092 
L 328.483718 316.958513 
L 328.70565 310.005052 
L 328.856564 297.264752 
L 328.971968 263.050228 
L 329.087373 126.365553 
L 329.149514 94.198662 
L 329.211655 105.372131 
L 329.762045 301.677175 
L 330.019486 368.82388 
L 330.046118 368.914686 
L 330.108259 368.724169 
L 330.410086 366.519829 
L 331.013741 360.504898 
L 332.656036 343.357499 
L 333.348464 338.781934 
L 333.952118 336.136714 
L 334.440368 334.864727 
L 334.813214 334.42413 
L 335.132795 334.354747 
L 335.487886 334.523436 
L 336.890495 335.421552 
L 337.529659 335.407486 
L 339.633573 335.209375 
L 344.871164 335.246394 
L 432.765041 335.246898 
L 435.845455 335.246898 
L 435.845455 335.246898 
" clip-path="url(#pa2751a0fc9)" style="fill: none; stroke: #ff0000; stroke-width: 1.5; stroke-linecap: square"/>
   </g>
   <g id="patch_3">
    <path d="M 63 384.48 
L 63 51.84 
" style="fill: none; stroke: #000000; stroke-width: 0.8; stroke-linejoin: miter; stroke-linecap: square"/>
   </g>
   <g id="patch_4">
    <path d="M 453.6 384.48 
L 453.6 51.84 
" style="fill: none; stroke: #000000; stroke-width: 0.8; stroke-linejoin: miter; stroke-linecap: square"/>
   </g>
   <g id="patch_5">
    <path d="M 63 384.48 
L 453.6 384.48 
" style="fill: none; stroke: #000000; stroke-width: 0.8; stroke-linejoin: miter; stroke-linecap: square"/>
   </g>
   <g id="patch_6">
    <path d="M 63 51.84 
L 453.6 51.84 
" style="fill: none; stroke: #000000; stroke-width: 0.8; stroke-linejoin: miter; stroke-linecap: square"/>
   </g>
   <g id="legend_1">
    <g id="patch_7">
     <path d="M 383.460938 89.19625 
L 446.6 89.19625 
Q 448.6 89.19625 448.6 87.19625 
L 448.6 58.84 
Q 448.6 56.84 446.6 56.84 
L 383.460938 56.84 
Q 381.460938 56.84 381.460938 58.84 
L 381.460938 87.19625 
Q 381.460938 89.19625 383.460938 89.19625 
z
" style="fill: #ffffff; opacity: 0.8; stroke: #cccccc; stroke-linejoin: miter"/>
    </g>
    <g id="line2d_15">
     <path d="M 385.460938 64.938437 
L 395.460938 64.938437 
L 405.460938 64.938437 
" style="fill: none; stroke: #1f77b4; stroke-width: 1.5; stroke-linecap: square"/>
    </g>
    <g id="text_15">
     <!-- target -->
     <g transform="translate(413.460938 68.438437)scale(0.1 -0.1)">
      <defs>
       <path id="DejaVuSans-72" d="M 2631 2963 
Q 2534 3019 2420 3045 
Q 2306 3072 2169 3072 
Q 1681 3072 1420 2755 
Q 1159 2438 1159 1844 
L 1159 0 
L 581 0 
L 581 3500 
L 1159 3500 
L 1159 2956 
Q 1341 3275 1631 3429 
Q 1922 3584 2338 3584 
Q 2397 3584 2469 3576 
Q 2541 3569 2628 3553 
L 2631 2963 
z
" transform="scale(0.015625)"/>
      </defs>
      <use xlink:href="#DejaVuSans-74"/>
      <use xlink:href="#DejaVuSans-61" x="39.208984"/>
      <use xlink:href="#DejaVuSans-72" x="100.488281"/>
      <use xlink:href="#DejaVuSans-67" x="139.851562"/>
      <use xlink:href="#DejaVuSans-65" x="203.328125"/>
      <use xlink:href="#DejaVuSans-74" x="264.851562"/>
     </g>
    </g>
    <g id="line2d_16">
     <path d="M 385.460938 79.616562 
L 395.460938 79.616562 
L 405.460938 79.616562 
" style="fill: none; stroke: #ff0000; stroke-width: 1.5; stroke-linecap: square"/>
    </g>
    <g id="text_16">
     <!-- model -->
     <g transform="translate(413.460938 83.116562)scale(0.1 -0.1)">
      <defs>
       <path id="DejaVuSans-64" d="M 2906 2969 
L 2906 4863 
L 3481 4863 
L 3481 0 
L 2906 0 
L 2906 525 
Q 2725 213 2448 61 
Q 2172 -91 1784 -91 
Q 1150 -91 751 415 
Q 353 922 353 1747 
Q 353 2572 751 3078 
Q 1150 3584 1784 3584 
Q 2172 3584 2448 3432 
Q 2725 3281 2906 2969 
z
M 947 1747 
Q 947 1113 1208 752 
Q 1469 391 1925 391 
Q 2381 391 2643 752 
Q 2906 1113 2906 1747 
Q 2906 2381 2643 2742 
Q 2381 3103 1925 3103 
Q 1469 3103 1208 2742 
Q 947 2381 947 1747 
z
" transform="scale(0.015625)"/>
      </defs>
      <use xlink:href="#DejaVuSans-6d"/>
      <use xlink:href="#DejaVuSans-6f" x="97.412109"/>
      <use xlink:href="#DejaVuSans-64" x="158.59375"/>
      <use xlink:href="#DejaVuSans-65" x="222.070312"/>
      <use xlink:href="#DejaVuSans-6c" x="283.59375"/>
     </g>
    </g>
   </g>
  </g>
 </g>
 <defs>
  <clipPath id="pa2751a0fc9">
   <rect x="63" y="51.84" width="390.6" height="332.64"/>
  </clipPath>
 </defs>
</svg>
