<?xml version="1.0" encoding="utf-8" standalone="no"?>
<!DOCTYPE svg PUBLIC "-//W3C//DTD SVG 1.1//EN"
  "http://www.w3.org/Graphics/SVG/1.1/DTD/svg11.dtd">
<svg xmlns:xlink="http://www.w3.org/1999/xlink" width="504pt" height="432pt" viewBox="0 0 504 432" xmlns="http://www.w3.org/2000/svg" version="1.1">
 <metadata>
  <rdf:RDF xmlns:dc="http://purl.org/dc/elements/1.1/" xmlns:cc="http://creativecommons.org/ns#" xmlns:rdf="http://www.w3.org/1999/02/22-rdf-syntax-ns#">
   <cc:Work>
    <dc:type rdf:resource="http://purl.org/dc/dcmitype/StillImage"/>
    <dc:date>2022-01-31T18:28:04.603699</dc:date>
    <dc:format>image/svg+xml</dc:format>
    <dc:creator>
     <cc:Agent>
      <dc:title>Matplotlib v3.5.1, https://matplotlib.org/</dc:title>
     </cc:Agent>
    </dc:creator>
   </cc:Work>
  </rdf:RDF>
 </metadata>
 <defs>
  <style type="text/css">*{stroke-linejoin: round; stroke-linecap: butt}</style>
 </defs>
 <g id="figure_1">
  <g id="patch_1">
   <path d="M 0 432 
L 504 432 
L 504 0 
L 0 0 
z
" style="fill: #ffffff"/>
  </g>
  <g id="axes_1">
   <g id="patch_2">
    <path d="M 63 384.48 
L 453.6 384.48 
L 453.6 51.84 
L 63 51.84 
z
" style="fill: #ffffff"/>
   </g>
   <g id="matplotlib.axis_1">
    <g id="xtick_1">
     <g id="line2d_1">
      <defs>
       <path id="m3ef366cf30" d="M 0 0 
L 0 3.5 
" style="stroke: #000000; stroke-width: 0.8"/>
      </defs>
      <g>
       <use xlink:href="#m3ef366cf30" x="80.754545" y="384.48" style="stroke: #000000; stroke-width: 0.8"/>
      </g>
     </g>
     <g id="text_1">
      <!-- 0 -->
      <g transform="translate(77.573295 399.078438)scale(0.1 -0.1)">
       <defs>
        <path id="DejaVuSans-30" d="M 2034 4250 
Q 1547 4250 1301 3770 
Q 1056 3291 1056 2328 
Q 1056 1369 1301 889 
Q 1547 409 2034 409 
Q 2525 409 2770 889 
Q 3016 1369 3016 2328 
Q 3016 3291 2770 3770 
Q 2525 4250 2034 4250 
z
M 2034 4750 
Q 2819 4750 3233 4129 
Q 3647 3509 3647 2328 
Q 3647 1150 3233 529 
Q 2819 -91 2034 -91 
Q 1250 -91 836 529 
Q 422 1150 422 2328 
Q 422 3509 836 4129 
Q 1250 4750 2034 4750 
z
" transform="scale(0.015625)"/>
       </defs>
       <use xlink:href="#DejaVuSans-30"/>
      </g>
     </g>
    </g>
    <g id="xtick_2">
     <g id="line2d_2">
      <g>
       <use xlink:href="#m3ef366cf30" x="151.772727" y="384.48" style="stroke: #000000; stroke-width: 0.8"/>
      </g>
     </g>
     <g id="text_2">
      <!-- 200 -->
      <g transform="translate(142.228977 399.078438)scale(0.1 -0.1)">
       <defs>
        <path id="DejaVuSans-32" d="M 1228 531 
L 3431 531 
L 3431 0 
L 469 0 
L 469 531 
Q 828 903 1448 1529 
Q 2069 2156 2228 2338 
Q 2531 2678 2651 2914 
Q 2772 3150 2772 3378 
Q 2772 3750 2511 3984 
Q 2250 4219 1831 4219 
Q 1534 4219 1204 4116 
Q 875 4013 500 3803 
L 500 4441 
Q 881 4594 1212 4672 
Q 1544 4750 1819 4750 
Q 2544 4750 2975 4387 
Q 3406 4025 3406 3419 
Q 3406 3131 3298 2873 
Q 3191 2616 2906 2266 
Q 2828 2175 2409 1742 
Q 1991 1309 1228 531 
z
" transform="scale(0.015625)"/>
       </defs>
       <use xlink:href="#DejaVuSans-32"/>
       <use xlink:href="#DejaVuSans-30" x="63.623047"/>
       <use xlink:href="#DejaVuSans-30" x="127.246094"/>
      </g>
     </g>
    </g>
    <g id="xtick_3">
     <g id="line2d_3">
      <g>
       <use xlink:href="#m3ef366cf30" x="222.790909" y="384.48" style="stroke: #000000; stroke-width: 0.8"/>
      </g>
     </g>
     <g id="text_3">
      <!-- 400 -->
      <g transform="translate(213.247159 399.078438)scale(0.1 -0.1)">
       <defs>
        <path id="DejaVuSans-34" d="M 2419 4116 
L 825 1625 
L 2419 1625 
L 2419 4116 
z
M 2253 4666 
L 3047 4666 
L 3047 1625 
L 3713 1625 
L 3713 1100 
L 3047 1100 
L 3047 0 
L 2419 0 
L 2419 1100 
L 313 1100 
L 313 1709 
L 2253 4666 
z
" transform="scale(0.015625)"/>
       </defs>
       <use xlink:href="#DejaVuSans-34"/>
       <use xlink:href="#DejaVuSans-30" x="63.623047"/>
       <use xlink:href="#DejaVuSans-30" x="127.246094"/>
      </g>
     </g>
    </g>
    <g id="xtick_4">
     <g id="line2d_4">
      <g>
       <use xlink:href="#m3ef366cf30" x="293.809091" y="384.48" style="stroke: #000000; stroke-width: 0.8"/>
      </g>
     </g>
     <g id="text_4">
      <!-- 600 -->
      <g transform="translate(284.265341 399.078438)scale(0.1 -0.1)">
       <defs>
        <path id="DejaVuSans-36" d="M 2113 2584 
Q 1688 2584 1439 2293 
Q 1191 2003 1191 1497 
Q 1191 994 1439 701 
Q 1688 409 2113 409 
Q 2538 409 2786 701 
Q 3034 994 3034 1497 
Q 3034 2003 2786 2293 
Q 2538 2584 2113 2584 
z
M 3366 4563 
L 3366 3988 
Q 3128 4100 2886 4159 
Q 2644 4219 2406 4219 
Q 1781 4219 1451 3797 
Q 1122 3375 1075 2522 
Q 1259 2794 1537 2939 
Q 1816 3084 2150 3084 
Q 2853 3084 3261 2657 
Q 3669 2231 3669 1497 
Q 3669 778 3244 343 
Q 2819 -91 2113 -91 
Q 1303 -91 875 529 
Q 447 1150 447 2328 
Q 447 3434 972 4092 
Q 1497 4750 2381 4750 
Q 2619 4750 2861 4703 
Q 3103 4656 3366 4563 
z
" transform="scale(0.015625)"/>
       </defs>
       <use xlink:href="#DejaVuSans-36"/>
       <use xlink:href="#DejaVuSans-30" x="63.623047"/>
       <use xlink:href="#DejaVuSans-30" x="127.246094"/>
      </g>
     </g>
    </g>
    <g id="xtick_5">
     <g id="line2d_5">
      <g>
       <use xlink:href="#m3ef366cf30" x="364.827273" y="384.48" style="stroke: #000000; stroke-width: 0.8"/>
      </g>
     </g>
     <g id="text_5">
      <!-- 800 -->
      <g transform="translate(355.283523 399.078438)scale(0.1 -0.1)">
       <defs>
        <path id="DejaVuSans-38" d="M 2034 2216 
Q 1584 2216 1326 1975 
Q 1069 1734 1069 1313 
Q 1069 891 1326 650 
Q 1584 409 2034 409 
Q 2484 409 2743 651 
Q 3003 894 3003 1313 
Q 3003 1734 2745 1975 
Q 2488 2216 2034 2216 
z
M 1403 2484 
Q 997 2584 770 2862 
Q 544 3141 544 3541 
Q 544 4100 942 4425 
Q 1341 4750 2034 4750 
Q 2731 4750 3128 4425 
Q 3525 4100 3525 3541 
Q 3525 3141 3298 2862 
Q 3072 2584 2669 2484 
Q 3125 2378 3379 2068 
Q 3634 1759 3634 1313 
Q 3634 634 3220 271 
Q 2806 -91 2034 -91 
Q 1263 -91 848 271 
Q 434 634 434 1313 
Q 434 1759 690 2068 
Q 947 2378 1403 2484 
z
M 1172 3481 
Q 1172 3119 1398 2916 
Q 1625 2713 2034 2713 
Q 2441 2713 2670 2916 
Q 2900 3119 2900 3481 
Q 2900 3844 2670 4047 
Q 2441 4250 2034 4250 
Q 1625 4250 1398 4047 
Q 1172 3844 1172 3481 
z
" transform="scale(0.015625)"/>
       </defs>
       <use xlink:href="#DejaVuSans-38"/>
       <use xlink:href="#DejaVuSans-30" x="63.623047"/>
       <use xlink:href="#DejaVuSans-30" x="127.246094"/>
      </g>
     </g>
    </g>
    <g id="text_6">
     <!-- time [ms] -->
     <g transform="translate(234.038281 412.756563)scale(0.1 -0.1)">
      <defs>
       <path id="DejaVuSans-74" d="M 1172 4494 
L 1172 3500 
L 2356 3500 
L 2356 3053 
L 1172 3053 
L 1172 1153 
Q 1172 725 1289 603 
Q 1406 481 1766 481 
L 2356 481 
L 2356 0 
L 1766 0 
Q 1100 0 847 248 
Q 594 497 594 1153 
L 594 3053 
L 172 3053 
L 172 3500 
L 594 3500 
L 594 4494 
L 1172 4494 
z
" transform="scale(0.015625)"/>
       <path id="DejaVuSans-69" d="M 603 3500 
L 1178 3500 
L 1178 0 
L 603 0 
L 603 3500 
z
M 603 4863 
L 1178 4863 
L 1178 4134 
L 603 4134 
L 603 4863 
z
" transform="scale(0.015625)"/>
       <path id="DejaVuSans-6d" d="M 3328 2828 
Q 3544 3216 3844 3400 
Q 4144 3584 4550 3584 
Q 5097 3584 5394 3201 
Q 5691 2819 5691 2113 
L 5691 0 
L 5113 0 
L 5113 2094 
Q 5113 2597 4934 2840 
Q 4756 3084 4391 3084 
Q 3944 3084 3684 2787 
Q 3425 2491 3425 1978 
L 3425 0 
L 2847 0 
L 2847 2094 
Q 2847 2600 2669 2842 
Q 2491 3084 2119 3084 
Q 1678 3084 1418 2786 
Q 1159 2488 1159 1978 
L 1159 0 
L 581 0 
L 581 3500 
L 1159 3500 
L 1159 2956 
Q 1356 3278 1631 3431 
Q 1906 3584 2284 3584 
Q 2666 3584 2933 3390 
Q 3200 3197 3328 2828 
z
" transform="scale(0.015625)"/>
       <path id="DejaVuSans-65" d="M 3597 1894 
L 3597 1613 
L 953 1613 
Q 991 1019 1311 708 
Q 1631 397 2203 397 
Q 2534 397 2845 478 
Q 3156 559 3463 722 
L 3463 178 
Q 3153 47 2828 -22 
Q 2503 -91 2169 -91 
Q 1331 -91 842 396 
Q 353 884 353 1716 
Q 353 2575 817 3079 
Q 1281 3584 2069 3584 
Q 2775 3584 3186 3129 
Q 3597 2675 3597 1894 
z
M 3022 2063 
Q 3016 2534 2758 2815 
Q 2500 3097 2075 3097 
Q 1594 3097 1305 2825 
Q 1016 2553 972 2059 
L 3022 2063 
z
" transform="scale(0.015625)"/>
       <path id="DejaVuSans-20" transform="scale(0.015625)"/>
       <path id="DejaVuSans-5b" d="M 550 4863 
L 1875 4863 
L 1875 4416 
L 1125 4416 
L 1125 -397 
L 1875 -397 
L 1875 -844 
L 550 -844 
L 550 4863 
z
" transform="scale(0.015625)"/>
       <path id="DejaVuSans-73" d="M 2834 3397 
L 2834 2853 
Q 2591 2978 2328 3040 
Q 2066 3103 1784 3103 
Q 1356 3103 1142 2972 
Q 928 2841 928 2578 
Q 928 2378 1081 2264 
Q 1234 2150 1697 2047 
L 1894 2003 
Q 2506 1872 2764 1633 
Q 3022 1394 3022 966 
Q 3022 478 2636 193 
Q 2250 -91 1575 -91 
Q 1294 -91 989 -36 
Q 684 19 347 128 
L 347 722 
Q 666 556 975 473 
Q 1284 391 1588 391 
Q 1994 391 2212 530 
Q 2431 669 2431 922 
Q 2431 1156 2273 1281 
Q 2116 1406 1581 1522 
L 1381 1569 
Q 847 1681 609 1914 
Q 372 2147 372 2553 
Q 372 3047 722 3315 
Q 1072 3584 1716 3584 
Q 2034 3584 2315 3537 
Q 2597 3491 2834 3397 
z
" transform="scale(0.015625)"/>
       <path id="DejaVuSans-5d" d="M 1947 4863 
L 1947 -844 
L 622 -844 
L 622 -397 
L 1369 -397 
L 1369 4416 
L 622 4416 
L 622 4863 
L 1947 4863 
z
" transform="scale(0.015625)"/>
      </defs>
      <use xlink:href="#DejaVuSans-74"/>
      <use xlink:href="#DejaVuSans-69" x="39.208984"/>
      <use xlink:href="#DejaVuSans-6d" x="66.992188"/>
      <use xlink:href="#DejaVuSans-65" x="164.404297"/>
      <use xlink:href="#DejaVuSans-20" x="225.927734"/>
      <use xlink:href="#DejaVuSans-5b" x="257.714844"/>
      <use xlink:href="#DejaVuSans-6d" x="296.728516"/>
      <use xlink:href="#DejaVuSans-73" x="394.140625"/>
      <use xlink:href="#DejaVuSans-5d" x="446.240234"/>
     </g>
    </g>
   </g>
   <g id="matplotlib.axis_2">
    <g id="ytick_1">
     <g id="line2d_6">
      <defs>
       <path id="m36d89e757b" d="M 0 0 
L -3.5 0 
" style="stroke: #000000; stroke-width: 0.8"/>
      </defs>
      <g>
       <use xlink:href="#m36d89e757b" x="63" y="377.904813" style="stroke: #000000; stroke-width: 0.8"/>
      </g>
     </g>
     <g id="text_7">
      <!-- −80 -->
      <g transform="translate(34.895313 381.704032)scale(0.1 -0.1)">
       <defs>
        <path id="DejaVuSans-2212" d="M 678 2272 
L 4684 2272 
L 4684 1741 
L 678 1741 
L 678 2272 
z
" transform="scale(0.015625)"/>
       </defs>
       <use xlink:href="#DejaVuSans-2212"/>
       <use xlink:href="#DejaVuSans-38" x="83.789062"/>
       <use xlink:href="#DejaVuSans-30" x="147.412109"/>
      </g>
     </g>
    </g>
    <g id="ytick_2">
     <g id="line2d_7">
      <g>
       <use xlink:href="#m36d89e757b" x="63" y="328.627232" style="stroke: #000000; stroke-width: 0.8"/>
      </g>
     </g>
     <g id="text_8">
      <!-- −60 -->
      <g transform="translate(34.895313 332.426451)scale(0.1 -0.1)">
       <use xlink:href="#DejaVuSans-2212"/>
       <use xlink:href="#DejaVuSans-36" x="83.789062"/>
       <use xlink:href="#DejaVuSans-30" x="147.412109"/>
      </g>
     </g>
    </g>
    <g id="ytick_3">
     <g id="line2d_8">
      <g>
       <use xlink:href="#m36d89e757b" x="63" y="279.349652" style="stroke: #000000; stroke-width: 0.8"/>
      </g>
     </g>
     <g id="text_9">
      <!-- −40 -->
      <g transform="translate(34.895313 283.14887)scale(0.1 -0.1)">
       <use xlink:href="#DejaVuSans-2212"/>
       <use xlink:href="#DejaVuSans-34" x="83.789062"/>
       <use xlink:href="#DejaVuSans-30" x="147.412109"/>
      </g>
     </g>
    </g>
    <g id="ytick_4">
     <g id="line2d_9">
      <g>
       <use xlink:href="#m36d89e757b" x="63" y="230.072071" style="stroke: #000000; stroke-width: 0.8"/>
      </g>
     </g>
     <g id="text_10">
      <!-- −20 -->
      <g transform="translate(34.895313 233.87129)scale(0.1 -0.1)">
       <use xlink:href="#DejaVuSans-2212"/>
       <use xlink:href="#DejaVuSans-32" x="83.789062"/>
       <use xlink:href="#DejaVuSans-30" x="147.412109"/>
      </g>
     </g>
    </g>
    <g id="ytick_5">
     <g id="line2d_10">
      <g>
       <use xlink:href="#m36d89e757b" x="63" y="180.79449" style="stroke: #000000; stroke-width: 0.8"/>
      </g>
     </g>
     <g id="text_11">
      <!-- 0 -->
      <g transform="translate(49.6375 184.593709)scale(0.1 -0.1)">
       <use xlink:href="#DejaVuSans-30"/>
      </g>
     </g>
    </g>
    <g id="ytick_6">
     <g id="line2d_11">
      <g>
       <use xlink:href="#m36d89e757b" x="63" y="131.516909" style="stroke: #000000; stroke-width: 0.8"/>
      </g>
     </g>
     <g id="text_12">
      <!-- 20 -->
      <g transform="translate(43.275 135.316128)scale(0.1 -0.1)">
       <use xlink:href="#DejaVuSans-32"/>
       <use xlink:href="#DejaVuSans-30" x="63.623047"/>
      </g>
     </g>
    </g>
    <g id="ytick_7">
     <g id="line2d_12">
      <g>
       <use xlink:href="#m36d89e757b" x="63" y="82.239328" style="stroke: #000000; stroke-width: 0.8"/>
      </g>
     </g>
     <g id="text_13">
      <!-- 40 -->
      <g transform="translate(43.275 86.038547)scale(0.1 -0.1)">
       <use xlink:href="#DejaVuSans-34"/>
       <use xlink:href="#DejaVuSans-30" x="63.623047"/>
      </g>
     </g>
    </g>
    <g id="text_14">
     <!-- voltage [mV] -->
     <g transform="translate(28.815625 250.624062)rotate(-90)scale(0.1 -0.1)">
      <defs>
       <path id="DejaVuSans-76" d="M 191 3500 
L 800 3500 
L 1894 563 
L 2988 3500 
L 3597 3500 
L 2284 0 
L 1503 0 
L 191 3500 
z
" transform="scale(0.015625)"/>
       <path id="DejaVuSans-6f" d="M 1959 3097 
Q 1497 3097 1228 2736 
Q 959 2375 959 1747 
Q 959 1119 1226 758 
Q 1494 397 1959 397 
Q 2419 397 2687 759 
Q 2956 1122 2956 1747 
Q 2956 2369 2687 2733 
Q 2419 3097 1959 3097 
z
M 1959 3584 
Q 2709 3584 3137 3096 
Q 3566 2609 3566 1747 
Q 3566 888 3137 398 
Q 2709 -91 1959 -91 
Q 1206 -91 779 398 
Q 353 888 353 1747 
Q 353 2609 779 3096 
Q 1206 3584 1959 3584 
z
" transform="scale(0.015625)"/>
       <path id="DejaVuSans-6c" d="M 603 4863 
L 1178 4863 
L 1178 0 
L 603 0 
L 603 4863 
z
" transform="scale(0.015625)"/>
       <path id="DejaVuSans-61" d="M 2194 1759 
Q 1497 1759 1228 1600 
Q 959 1441 959 1056 
Q 959 750 1161 570 
Q 1363 391 1709 391 
Q 2188 391 2477 730 
Q 2766 1069 2766 1631 
L 2766 1759 
L 2194 1759 
z
M 3341 1997 
L 3341 0 
L 2766 0 
L 2766 531 
Q 2569 213 2275 61 
Q 1981 -91 1556 -91 
Q 1019 -91 701 211 
Q 384 513 384 1019 
Q 384 1609 779 1909 
Q 1175 2209 1959 2209 
L 2766 2209 
L 2766 2266 
Q 2766 2663 2505 2880 
Q 2244 3097 1772 3097 
Q 1472 3097 1187 3025 
Q 903 2953 641 2809 
L 641 3341 
Q 956 3463 1253 3523 
Q 1550 3584 1831 3584 
Q 2591 3584 2966 3190 
Q 3341 2797 3341 1997 
z
" transform="scale(0.015625)"/>
       <path id="DejaVuSans-67" d="M 2906 1791 
Q 2906 2416 2648 2759 
Q 2391 3103 1925 3103 
Q 1463 3103 1205 2759 
Q 947 2416 947 1791 
Q 947 1169 1205 825 
Q 1463 481 1925 481 
Q 2391 481 2648 825 
Q 2906 1169 2906 1791 
z
M 3481 434 
Q 3481 -459 3084 -895 
Q 2688 -1331 1869 -1331 
Q 1566 -1331 1297 -1286 
Q 1028 -1241 775 -1147 
L 775 -588 
Q 1028 -725 1275 -790 
Q 1522 -856 1778 -856 
Q 2344 -856 2625 -561 
Q 2906 -266 2906 331 
L 2906 616 
Q 2728 306 2450 153 
Q 2172 0 1784 0 
Q 1141 0 747 490 
Q 353 981 353 1791 
Q 353 2603 747 3093 
Q 1141 3584 1784 3584 
Q 2172 3584 2450 3431 
Q 2728 3278 2906 2969 
L 2906 3500 
L 3481 3500 
L 3481 434 
z
" transform="scale(0.015625)"/>
       <path id="DejaVuSans-56" d="M 1831 0 
L 50 4666 
L 709 4666 
L 2188 738 
L 3669 4666 
L 4325 4666 
L 2547 0 
L 1831 0 
z
" transform="scale(0.015625)"/>
      </defs>
      <use xlink:href="#DejaVuSans-76"/>
      <use xlink:href="#DejaVuSans-6f" x="59.179688"/>
      <use xlink:href="#DejaVuSans-6c" x="120.361328"/>
      <use xlink:href="#DejaVuSans-74" x="148.144531"/>
      <use xlink:href="#DejaVuSans-61" x="187.353516"/>
      <use xlink:href="#DejaVuSans-67" x="248.632812"/>
      <use xlink:href="#DejaVuSans-65" x="312.109375"/>
      <use xlink:href="#DejaVuSans-20" x="373.632812"/>
      <use xlink:href="#DejaVuSans-5b" x="405.419922"/>
      <use xlink:href="#DejaVuSans-6d" x="444.433594"/>
      <use xlink:href="#DejaVuSans-56" x="541.845703"/>
      <use xlink:href="#DejaVuSans-5d" x="610.253906"/>
     </g>
    </g>
   </g>
   <g id="line2d_13">
    <path d="M 80.754545 340.946628 
L 81.997364 340.817767 
L 83.888223 340.876407 
L 87.980645 340.878871 
L 151.772727 340.881828 
L 152.314241 299.090004 
L 152.420768 253.438514 
L 152.562805 83.038118 
L 152.678209 106.708604 
L 153.565936 365.809138 
L 153.610323 365.714772 
L 153.8145 364.420496 
L 154.293873 359.958411 
L 154.959668 351.396678 
L 157.42755 314.891353 
L 157.613973 304.446723 
L 157.738255 283.828737 
L 157.835905 225.110065 
L 157.969064 105.90464 
L 158.031205 118.250152 
L 158.883423 365.410729 
L 158.945564 365.238504 
L 159.203005 363.380739 
L 159.717886 358.055804 
L 160.534595 346.86043 
L 161.8218 329.842418 
L 162.514227 320.11182 
L 162.771668 313.05256 
L 162.940336 301.796822 
L 163.064618 275.546162 
L 163.162268 196.32464 
L 163.268795 106.768476 
L 163.322059 115.698067 
L 163.863573 298.828833 
L 164.147645 365.24491 
L 164.183155 365.380916 
L 164.245295 365.210662 
L 164.493859 363.423857 
L 165.008741 358.117401 
L 165.834327 346.806471 
L 167.112655 329.912392 
L 167.813959 320.078558 
L 168.0714 313.010181 
L 168.240068 301.717485 
L 168.36435 275.31505 
L 168.462 195.624775 
L 168.568527 106.840668 
L 168.621791 115.906511 
L 169.172182 302.538203 
L 169.4385 365.164341 
L 169.482886 365.378945 
L 169.545027 365.204995 
L 169.802468 363.339592 
L 170.31735 357.997902 
L 171.151814 346.535198 
L 172.430141 329.684483 
L 173.113691 320.061311 
L 173.371132 312.975934 
L 173.5398 301.627553 
L 173.664082 274.997702 
L 173.761732 194.544093 
L 173.868259 106.856437 
L 173.921523 116.128013 
L 174.480791 306.359679 
L 174.729355 365.061597 
L 174.782618 365.378945 
L 174.844759 365.201053 
L 175.1022 363.332693 
L 175.617082 357.987801 
L 176.451545 346.523125 
L 177.729873 329.674381 
L 178.413423 320.045542 
L 178.670864 312.942178 
L 178.839532 301.53639 
L 178.963814 274.671977 
L 179.061464 193.431775 
L 179.167991 106.872698 
L 179.221255 116.35198 
L 179.7894 310.277986 
L 180.029086 365.073178 
L 180.08235 365.379191 
L 180.144491 365.196864 
L 180.401932 363.325795 
L 180.916814 357.977945 
L 181.751277 346.511545 
L 183.029605 329.664525 
L 183.713155 320.029526 
L 183.970595 312.908177 
L 184.139264 301.44424 
L 184.263545 274.338614 
L 184.361195 192.299893 
L 184.467723 106.89512 
L 184.520986 116.579396 
L 185.098009 314.282529 
L 185.328818 365.084511 
L 185.382082 365.379191 
L 185.444223 365.192922 
L 185.701664 363.318649 
L 186.216545 357.96809 
L 187.051009 346.499718 
L 188.329336 329.65467 
L 189.012886 320.013758 
L 189.270327 312.873929 
L 189.438995 301.350613 
L 189.563277 274.000324 
L 189.660927 191.163503 
L 189.767455 106.922961 
L 189.820718 116.80903 
L 190.406618 318.354828 
L 190.619673 364.958854 
L 190.681814 365.378945 
L 190.743955 365.188733 
L 191.010273 363.23537 
L 191.525155 357.850316 
L 192.368495 346.231648 
L 193.637945 329.536404 
L 194.312618 319.997496 
L 194.570059 312.839681 
L 194.738727 301.256493 
L 194.863009 273.65883 
L 194.969536 177.482667 
L 195.058309 106.910396 
L 195.12045 117.041127 
L 195.715227 322.470491 
L 195.919405 364.97339 
L 195.981545 365.378945 
L 196.043686 365.184545 
L 196.310005 363.228225 
L 196.833764 357.73205 
L 197.703736 345.708074 
L 198.955432 329.309973 
L 199.61235 319.981481 
L 199.869791 312.80494 
L 200.038459 301.161387 
L 200.162741 273.310438 
L 200.269268 176.296777 
L 200.358041 106.8828 
L 200.420182 117.277167 
L 201.023836 326.594779 
L 201.219136 364.987188 
L 201.281277 365.378452 
L 201.343418 365.180356 
L 201.609736 363.22108 
L 202.133495 357.721702 
L 202.994591 345.823876 
L 204.255164 329.299871 
L 204.912082 319.964973 
L 205.169523 312.769707 
L 205.338191 301.064803 
L 205.462473 272.9549 
L 205.569 175.102929 
L 205.657773 106.861857 
L 205.719914 117.514931 
L 206.332445 330.6826 
L 206.518868 365.000986 
L 206.581009 365.378206 
L 206.634273 365.219778 
L 206.873959 363.516006 
L 207.388841 358.248725 
L 208.187795 347.34951 
L 209.510509 329.830098 
L 210.202936 320.121676 
L 210.460377 313.10307 
L 210.629045 301.969047 
L 210.753327 276.209684 
L 210.850977 198.728252 
L 210.957505 106.847567 
L 211.019645 117.753681 
L 211.641055 334.683201 
L 211.827477 365.137731 
L 211.880741 365.377713 
L 211.934005 365.215836 
L 212.182568 363.434205 
L 212.69745 358.132184 
L 213.514159 346.952579 
L 214.810241 329.819996 
L 215.502668 320.10566 
L 215.760109 313.069315 
L 215.928777 301.878622 
L 216.053059 275.891105 
L 216.150709 197.621478 
L 216.257236 106.841653 
L 216.319377 117.991938 
L 216.949664 338.536954 
L 217.127209 365.147587 
L 217.171595 365.378206 
L 217.233736 365.211894 
L 217.4823 363.427306 
L 217.997182 358.122328 
L 218.822768 346.812384 
L 220.101095 329.917812 
L 220.8024 320.089645 
L 221.059841 313.035806 
L 221.228509 301.788444 
L 221.352791 275.571293 
L 221.450441 196.515246 
L 221.556968 106.842146 
L 221.610232 115.732807 
L 222.151745 298.880821 
L 222.426941 365.156949 
L 222.471327 365.378452 
L 222.533468 365.207952 
L 222.782032 363.420407 
L 223.296914 358.112473 
L 224.1225 346.800311 
L 225.418582 329.692121 
L 226.111009 319.899926 
L 226.36845 312.629512 
L 226.537118 300.676742 
L 226.652523 275.249018 
L 226.750173 195.404603 
L 226.8567 106.847813 
L 226.909964 115.955788 
L 227.460355 302.608916 
L 227.726673 365.166066 
L 227.771059 365.378945 
L 227.8332 365.20401 
L 228.090641 363.337868 
L 228.605523 357.995439 
L 229.439986 346.532241 
L 230.718314 329.682019 
L 231.401864 320.057615 
L 231.659305 312.968049 
L 231.827973 301.606856 
L 231.952255 274.924525 
L 232.049905 194.293763 
L 232.156432 106.859886 
L 232.209695 116.178523 
L 232.768964 306.433349 
L 233.017527 365.064308 
L 233.070791 365.378945 
L 233.132932 365.200067 
L 233.390373 363.330969 
L 233.905255 357.985583 
L 234.739718 346.520415 
L 236.018045 329.672163 
L 236.701595 320.041846 
L 236.959036 312.93454 
L 237.127705 301.515693 
L 237.251986 274.597075 
L 237.349636 193.176566 
L 237.456164 106.877133 
L 237.509427 116.403475 
L 238.077573 310.353873 
L 238.317259 365.075641 
L 238.370523 365.379191 
L 238.432664 365.196125 
L 238.698982 363.247936 
L 239.213864 357.868056 
L 240.057205 346.252591 
L 241.317777 329.662308 
L 242.001327 320.026077 
L 242.258768 312.900539 
L 242.427436 301.423051 
L 242.551718 274.261988 
L 242.649368 192.042049 
L 242.755895 106.901033 
L 242.809159 116.631384 
L 243.386182 314.360141 
L 243.616991 365.086975 
L 243.670255 365.379191 
L 243.732395 365.191937 
L 243.989836 363.317171 
L 244.504718 357.965872 
L 245.348059 346.368886 
L 246.617509 329.652206 
L 247.301059 320.010062 
L 247.5585 312.866291 
L 247.727168 301.329177 
L 247.85145 273.923204 
L 247.9491 190.904549 
L 248.055627 106.930353 
L 248.108891 116.86151 
L 248.694791 318.434165 
L 248.907845 364.962303 
L 248.969986 365.378945 
L 249.032127 365.187994 
L 249.298445 363.233892 
L 249.822205 357.739934 
L 250.692177 345.717437 
L 251.943873 329.317858 
L 252.600791 319.9938 
L 252.858232 312.831797 
L 253.0269 301.234811 
L 253.151182 273.579986 
L 253.257709 177.212675 
L 253.346482 106.903497 
L 253.408623 117.09484 
L 254.0034 322.551307 
L 254.207577 364.976593 
L 254.269718 365.378699 
L 254.331859 365.183806 
L 254.598177 363.226747 
L 255.121936 357.729586 
L 255.983032 345.833239 
L 257.22585 329.524084 
L 257.900523 319.977785 
L 258.157964 312.797056 
L 258.326632 301.139459 
L 258.450914 273.229869 
L 258.557441 176.024346 
L 258.646214 106.87738 
L 258.708355 117.331618 
L 259.312009 326.675594 
L 259.507309 364.990391 
L 259.56945 365.378452 
L 259.631591 365.179371 
L 259.906786 363.142482 
L 260.430545 357.610581 
L 261.309395 345.438033 
L 262.552214 329.189243 
L 263.200255 319.961277 
L 263.457695 312.761822 
L 263.626364 301.042628 
L 263.750645 272.873099 
L 263.857173 174.830005 
L 263.945945 106.857915 
L 264.008086 117.569383 
L 264.620618 330.762184 
L 264.807041 365.004189 
L 264.869182 365.377959 
L 264.922445 365.219039 
L 265.171009 363.439626 
L 265.685891 358.140068 
L 266.511477 346.833574 
L 267.807559 329.719963 
L 268.499986 319.945015 
L 268.757427 312.726589 
L 268.926095 300.945798 
L 269.050377 272.516329 
L 269.156905 173.644559 
L 269.245677 106.845596 
L 269.298941 115.339819 
L 269.8227 291.784603 
L 270.133405 365.296159 
L 270.168914 365.377713 
L 270.222177 365.215097 
L 270.470741 363.432727 
L 270.985623 358.129966 
L 271.802332 346.949869 
L 273.098414 329.817779 
L 273.790841 320.101965 
L 274.048282 313.061677 
L 274.21695 301.858172 
L 274.341232 275.818174 
L 274.438882 197.36829 
L 274.545409 106.841407 
L 274.598673 115.561321 
L 275.131309 295.320516 
L 275.424259 365.238011 
L 275.468645 365.376974 
L 275.521909 365.211155 
L 275.770473 363.425828 
L 276.285355 358.120111 
L 277.110941 346.809674 
L 278.389268 329.915595 
L 279.090573 320.085949 
L 279.348014 313.027921 
L 279.516682 301.767748 
L 279.640964 275.497869 
L 279.738614 196.261959 
L 279.845141 106.842639 
L 279.898405 115.78381 
L 280.439918 298.952027 
L 280.715114 365.158921 
L 280.7595 365.378699 
L 280.821641 365.207213 
L 281.079082 363.343288 
L 281.593964 358.003077 
L 282.428427 346.541358 
L 283.706755 329.689657 
L 284.390305 320.069934 
L 284.647745 312.994166 
L 284.816414 301.677077 
L 284.940695 275.175101 
L 285.038345 195.151217 
L 285.144873 106.850031 
L 285.198136 116.006544 
L 285.748527 302.681108 
L 286.014845 365.168037 
L 286.059232 365.378945 
L 286.121373 365.203024 
L 286.378814 363.336389 
L 286.902573 357.88555 
L 287.754791 346.145412 
L 289.006486 329.679802 
L 289.690036 320.054165 
L 289.947477 312.960411 
L 290.116145 301.58616 
L 290.240427 274.850116 
L 290.338077 194.03954 
L 290.444605 106.863335 
L 290.497868 116.229525 
L 291.057136 306.507758 
L 291.3057 365.067018 
L 291.358964 365.379191 
L 291.421105 365.199082 
L 291.678545 363.32949 
L 292.193427 357.983366 
L 293.027891 346.517704 
L 294.315095 329.561782 
L 294.989768 320.03815 
L 295.247209 312.926656 
L 295.415877 301.49475 
L 295.540159 274.521188 
L 295.637809 192.918672 
L 295.744336 106.882061 
L 295.7976 116.455217 
L 296.365745 310.430254 
L 296.605432 365.078352 
L 296.658695 365.379191 
L 296.720836 365.19514 
L 296.987155 363.246458 
L 297.510914 357.757674 
L 298.372009 345.866008 
L 299.632582 329.335598 
L 300.298377 319.847692 
L 300.555818 312.515927 
L 300.724486 300.358655 
L 300.839891 274.185115 
L 300.937541 191.783834 
L 301.044068 106.907193 
L 301.097332 116.683372 
L 301.674355 314.437753 
L 301.905164 365.089439 
L 301.958427 365.379191 
L 302.020568 365.191197 
L 302.286886 363.239312 
L 302.810645 357.747572 
L 303.671741 345.854428 
L 304.914559 329.542071 
L 305.589232 320.006366 
L 305.846673 312.858407 
L 306.015341 301.307988 
L 306.139623 273.845839 
L 306.24615 178.124754 
L 306.334923 106.927889 
L 306.397064 116.914237 
L 306.982964 318.513502 
L 307.196018 364.965506 
L 307.258159 365.378945 
L 307.3203 365.187009 
L 307.586618 363.232167 
L 308.110377 357.73747 
L 308.971473 345.842602 
L 310.214291 329.531969 
L 310.888964 319.990351 
L 311.146405 312.823912 
L 311.315073 301.213375 
L 311.439355 273.500896 
L 311.545882 176.943644 
L 311.634655 106.897091 
L 311.696795 117.148306 
L 312.291573 322.631629 
L 312.49575 364.979797 
L 312.557891 365.378699 
L 312.620032 365.18282 
L 312.88635 363.225022 
L 313.410109 357.727369 
L 314.280082 345.702653 
L 315.531777 329.305292 
L 316.188695 319.973843 
L 316.446136 312.788925 
L 316.614805 301.11753 
L 316.739086 273.149546 
L 316.845614 175.75295 
L 316.934386 106.872452 
L 316.996527 117.385577 
L 317.600182 326.756163 
L 317.795482 364.993594 
L 317.857623 365.378452 
L 317.910886 365.221996 
L 318.15945 363.445046 
L 318.674332 358.147706 
L 319.491041 346.971058 
L 320.796 329.727601 
L 321.488427 319.957581 
L 321.745868 312.753692 
L 321.914536 301.020453 
L 322.038818 272.791545 
L 322.145345 174.558387 
L 322.234118 106.854466 
L 322.296259 117.623834 
L 322.908791 330.84152 
L 323.095214 365.007392 
L 323.157355 365.377959 
L 323.210618 365.218054 
L 323.459182 363.438147 
L 323.974064 358.137604 
L 324.790773 346.958985 
L 326.095732 329.717499 
L 326.779282 320.114284 
L 327.036723 313.087794 
L 327.205391 301.9279 
L 327.329673 276.064562 
L 327.427323 198.22365 
L 327.53385 106.843871 
L 327.595991 117.862338 
L 328.2174 334.836454 
L 328.403823 365.142166 
L 328.457086 365.377467 
L 328.51035 365.214111 
L 328.758914 363.431002 
L 329.273795 358.127749 
L 329.318182 357.587913 
L 329.335936 358.434009 
L 329.531236 362.186004 
L 329.620009 362.362664 
L 329.664395 362.308705 
L 329.815309 361.738071 
L 330.214786 359.089155 
L 332.176664 345.212341 
L 332.869091 342.182509 
L 333.428359 340.625831 
L 333.889977 339.927074 
L 334.262823 339.713703 
L 334.626791 339.754849 
L 335.115041 340.061849 
L 336.482141 341.02079 
L 337.121305 341.135361 
L 338.142191 341.024733 
L 339.9354 340.837478 
L 435.845455 340.881828 
L 435.845455 340.881828 
" clip-path="url(#pce99f1683b)" style="fill: none; stroke: #1f77b4; stroke-width: 1.5; stroke-linecap: square"/>
   </g>
   <g id="line2d_14">
    <path d="M 80.754545 340.946628 
L 81.331568 332.682815 
L 81.482482 324.596046 
L 81.580132 305.966889 
L 81.642273 248.64869 
L 81.739923 67.329404 
L 81.819818 74.179142 
L 82.015118 117.081451 
L 82.689791 333.216555 
L 82.858459 369.355055 
L 82.947232 369.245862 
L 83.337832 368.322939 
L 83.772818 366.692899 
L 84.278823 363.836066 
L 84.97125 358.457799 
L 87.2172 338.284871 
L 87.456886 333.394153 
L 87.6078 325.564419 
L 87.714327 305.425209 
L 87.776468 244.242054 
L 87.865241 66.973539 
L 87.945136 72.827185 
L 88.131559 111.830351 
L 88.806232 320.99663 
L 88.992655 369.357776 
L 89.07255 369.270834 
L 89.454273 368.390201 
L 89.889259 366.797671 
L 90.386386 364.047163 
L 91.061059 358.881035 
L 93.324764 338.71655 
L 93.582205 333.794768 
L 93.741995 325.944113 
L 93.848523 307.074257 
L 93.910664 253.112913 
L 94.008314 66.96 
L 94.097086 74.651975 
L 94.301264 120.345444 
L 94.975936 339.570765 
L 95.135727 369.359862 
L 95.2245 369.24756 
L 95.6151 368.325477 
L 96.050086 366.696835 
L 96.556091 363.841758 
L 97.248518 358.464953 
L 99.494468 338.287196 
L 99.734155 333.393741 
L 99.885068 325.556352 
L 99.991595 305.377465 
L 100.053736 243.954921 
L 100.142509 66.968947 
L 100.222405 72.839175 
L 100.408827 111.851908 
L 101.0835 321.025615 
L 101.269923 369.357901 
L 101.349818 369.270843 
L 101.731541 368.390207 
L 102.166527 366.797679 
L 102.663655 364.047174 
L 103.338327 358.881047 
L 105.602032 338.716385 
L 105.859473 333.79429 
L 106.019264 325.942555 
L 106.125791 307.067303 
L 106.187932 253.076191 
L 106.285582 66.960049 
L 106.374355 74.654629 
L 106.578532 120.350517 
L 107.253205 339.581479 
L 107.412995 369.359868 
L 107.501768 369.24753 
L 107.892368 368.325427 
L 108.327355 366.696757 
L 108.833359 363.841645 
L 109.525786 358.464808 
L 111.771736 338.28695 
L 112.011423 333.393203 
L 112.162336 325.554812 
L 112.268864 305.370566 
L 112.331005 243.916179 
L 112.419777 66.968764 
L 112.499673 72.841395 
L 112.686095 111.856519 
L 113.360768 321.035443 
L 113.547191 369.357912 
L 113.627086 369.270813 
L 114.008809 368.390157 
L 114.443795 366.797603 
L 114.940923 364.047062 
L 115.615595 358.880903 
L 117.8793 338.716156 
L 118.136741 333.793791 
L 118.296532 325.941087 
L 118.403059 307.060969 
L 118.4652 253.043082 
L 118.56285 66.960156 
L 118.651623 74.657114 
L 118.8558 120.355352 
L 119.530473 339.592013 
L 119.690264 369.359872 
L 119.779036 369.247498 
L 120.169636 368.325374 
L 120.604623 366.696676 
L 121.110627 363.841527 
L 121.803055 358.464656 
L 124.049005 338.286697 
L 124.288691 333.392651 
L 124.439605 325.553239 
L 124.546132 305.363494 
L 124.608273 243.876368 
L 124.697045 66.968576 
L 124.776941 72.843677 
L 124.963364 111.861262 
L 125.638036 321.045555 
L 125.824459 369.357924 
L 125.904355 369.270783 
L 126.286077 368.390107 
L 126.721064 366.797524 
L 127.218191 364.046947 
L 127.892864 358.880753 
L 130.156568 338.71592 
L 130.414009 333.793278 
L 130.5738 325.939575 
L 130.680327 307.054447 
L 130.742468 253.008992 
L 130.840118 66.96027 
L 130.928891 74.659667 
L 131.133068 120.360322 
L 131.807741 339.602835 
L 131.967532 369.359875 
L 132.056305 369.247466 
L 132.446905 368.32532 
L 132.881891 366.696592 
L 133.387895 363.841405 
L 134.080323 358.4645 
L 136.326273 338.286436 
L 136.565959 333.392083 
L 136.716873 325.551618 
L 136.8234 305.356211 
L 136.885541 243.835371 
L 136.974314 66.968384 
L 137.054209 72.846028 
L 137.240632 111.866148 
L 137.915305 321.055972 
L 138.101727 369.357936 
L 138.181623 369.270752 
L 138.563345 368.390055 
L 138.998332 366.797442 
L 139.495459 364.046828 
L 140.170132 358.8806 
L 142.433836 338.715677 
L 142.691277 333.792749 
L 142.851068 325.938018 
L 142.957595 307.047727 
L 143.019736 252.973865 
L 143.117386 66.960389 
L 143.206159 74.6623 
L 143.410336 120.365445 
L 144.085009 339.613977 
L 144.2448 369.359879 
L 144.333573 369.247432 
L 144.724173 368.325265 
L 145.159159 366.696505 
L 145.665164 363.841279 
L 146.357591 358.464339 
L 148.603541 338.286168 
L 148.843227 333.391498 
L 148.994141 325.549947 
L 149.100668 305.348701 
L 149.162809 243.793093 
L 149.251582 66.968188 
L 149.331477 72.848455 
L 149.5179 111.871188 
L 150.192573 321.066721 
L 150.378995 369.357948 
L 150.458891 369.27072 
L 150.840614 368.390001 
L 151.2756 366.797358 
L 151.772727 364.046706 
L 151.950273 359.720409 
L 153.867764 336.791217 
L 154.098573 330.192224 
L 154.231732 319.628438 
L 154.320505 291.886804 
L 154.382645 171.487471 
L 154.453664 68.905789 
L 154.515805 73.504226 
L 154.69335 110.504563 
L 155.3769 324.627029 
L 155.554445 368.876068 
L 155.625464 368.762841 
L 155.989432 367.601078 
L 156.424418 365.429711 
L 156.930423 361.647142 
L 157.658359 354.263365 
L 158.972195 338.527877 
L 159.247391 332.393438 
L 159.407182 323.278959 
L 159.504832 303.443713 
L 159.566973 241.244347 
L 159.655745 68.994037 
L 159.735641 75.361107 
L 159.930941 119.27435 
L 160.605614 338.563508 
L 160.765405 368.87459 
L 160.854177 368.702629 
L 161.244777 367.394571 
L 161.688641 365.054698 
L 162.2124 360.951438 
L 163.011355 352.611754 
L 164.209786 337.983632 
L 164.467227 331.861624 
L 164.618141 322.624593 
L 164.715791 300.692942 
L 164.777932 225.659314 
L 164.866705 68.971174 
L 164.928845 73.824743 
L 165.106391 111.23123 
L 165.789941 326.479069 
L 165.967486 368.874725 
L 166.047382 368.731277 
L 166.429105 367.478151 
L 166.864091 365.239891 
L 167.378973 361.296007 
L 168.142418 353.431389 
L 169.402991 338.174533 
L 169.669309 331.952304 
L 169.820223 322.891071 
L 169.917873 301.835846 
L 169.980014 232.278385 
L 170.068786 68.961265 
L 170.139805 74.658971 
L 170.326227 115.390832 
L 171.009777 335.555623 
L 171.169568 368.874235 
L 171.240586 368.759082 
L 171.613432 367.559874 
L 172.048418 365.36593 
L 172.554423 361.555569 
L 173.291236 354.050359 
L 174.596195 338.361785 
L 174.871391 332.041167 
L 175.022305 323.149394 
L 175.119955 302.922593 
L 175.182095 238.403159 
L 175.270868 68.977691 
L 175.350764 75.541168 
L 175.546064 119.632591 
L 176.220736 339.339259 
L 176.380527 368.874129 
L 176.478177 368.676292 
L 176.868777 367.351699 
L 177.312641 364.988652 
L 177.8364 360.857701 
L 178.644232 352.398124 
L 179.824909 337.960984 
L 180.08235 331.812976 
L 180.233264 322.480793 
L 180.330914 300.066992 
L 180.393055 221.975573 
L 180.481827 68.98604 
L 180.543968 73.993557 
L 180.721514 111.587514 
L 181.405064 327.246355 
L 181.582609 368.87469 
L 181.671382 368.705679 
L 182.061982 367.399568 
L 182.496968 365.11927 
L 183.01185 361.124075 
L 183.79305 353.02153 
L 185.018114 338.152828 
L 185.284432 331.905319 
L 185.435345 322.753396 
L 185.532995 301.247815 
L 185.595136 228.907972 
L 185.683909 68.963568 
L 185.754927 74.836627 
L 185.950227 118.219011 
L 186.6249 336.339727 
L 186.784691 368.874586 
L 186.855709 368.75594 
L 187.228555 367.554661 
L 187.663541 365.357872 
L 188.169545 361.544021 
L 188.906359 354.035899 
L 190.202441 338.484754 
L 190.477636 332.304958 
L 190.637427 323.015696 
L 190.735077 302.36465 
L 190.797218 235.277469 
L 190.885991 68.965571 
L 190.957009 74.496482 
L 191.143432 115.057337 
L 191.826982 334.832768 
L 191.986773 368.873706 
L 192.057791 368.761987 
L 192.421759 367.5999 
L 192.856745 365.427888 
L 193.36275 361.644534 
L 194.090686 354.260188 
L 195.404523 338.525278 
L 195.679718 332.390222 
L 195.839509 323.272592 
L 195.937159 303.423003 
L 195.9993 241.141689 
L 196.088073 68.994999 
L 196.167968 75.370078 
L 196.363268 119.294029 
L 197.037941 338.613859 
L 197.197732 368.874505 
L 197.286505 368.702342 
L 197.677105 367.394105 
L 198.120968 365.053979 
L 198.644727 360.950416 
L 199.443682 352.61051 
L 200.642114 337.981815 
L 200.899555 331.857797 
L 201.050468 322.6134 
L 201.148118 300.644801 
L 201.210259 225.376444 
L 201.299032 68.97216 
L 201.361173 73.837909 
L 201.538718 111.259195 
L 202.222268 326.539443 
L 202.399814 368.874725 
L 202.479709 368.73102 
L 202.861432 367.477729 
L 203.296418 365.239241 
L 203.8113 361.295078 
L 204.574745 353.430238 
L 205.835318 338.172811 
L 206.101636 331.948597 
L 206.25255 322.88024 
L 206.3502 301.789791 
L 206.412341 232.017301 
L 206.501114 68.961191 
L 206.572132 74.672928 
L 206.758555 115.41933 
L 207.442105 335.617444 
L 207.601895 368.874272 
L 207.672914 368.758834 
L 208.045759 367.559462 
L 208.480745 365.365293 
L 208.98675 361.554656 
L 209.723564 354.049216 
L 211.028523 338.360103 
L 211.303718 332.037522 
L 211.454632 323.138877 
L 211.552282 302.878949 
L 211.614423 238.160314 
L 211.703195 68.976463 
L 211.783091 75.556111 
L 211.987268 122.168956 
L 212.661941 344.544183 
L 212.812855 368.87409 
L 212.910505 368.676016 
L 213.301105 367.35125 
L 213.744968 364.987962 
L 214.268727 360.856724 
L 215.076559 352.396935 
L 216.257236 337.959181 
L 216.514677 331.809083 
L 216.665591 322.46924 
L 216.763241 300.01626 
L 216.825382 221.675703 
L 216.914155 68.98755 
L 216.976295 74.007073 
L 217.153841 111.615866 
L 217.837391 327.307831 
L 218.014936 368.874681 
L 218.103709 368.705413 
L 218.494309 367.399134 
L 218.929295 365.118605 
L 219.444177 361.123129 
L 220.225377 353.020368 
L 221.450441 338.151091 
L 221.716759 331.901548 
L 221.867673 322.742306 
L 221.965323 301.200149 
L 222.027464 228.632211 
L 222.116236 68.96402 
L 222.187255 74.850871 
L 222.382555 118.248117 
L 223.057227 336.402121 
L 223.217018 368.874607 
L 223.288036 368.755691 
L 223.660882 367.554248 
L 224.095868 365.357234 
L 224.601873 361.543107 
L 225.338686 354.034756 
L 226.634768 338.483091 
L 226.909964 332.30145 
L 227.069755 323.005037 
L 227.167405 302.319507 
L 227.229545 235.02161 
L 227.318318 68.964913 
L 227.389336 74.510517 
L 227.575759 115.086268 
L 228.259309 334.895393 
L 228.4191 368.873759 
L 228.490118 368.761736 
L 228.854086 367.599485 
L 229.289073 365.427245 
L 229.795077 361.64361 
L 230.523014 354.259025 
L 231.83685 338.523586 
L 232.112045 332.386669 
L 232.271836 323.261933 
L 232.369486 303.380225 
L 232.431627 240.9098 
L 232.5204 68.993245 
L 232.600295 75.384783 
L 232.795595 119.32324 
L 233.470268 338.676845 
L 233.630059 368.874478 
L 233.718832 368.70207 
L 234.109432 367.393661 
L 234.553295 365.053294 
L 235.077055 360.949442 
L 235.876009 352.609321 
L 237.074441 337.980012 
L 237.331882 331.853929 
L 237.482795 322.601982 
L 237.580445 300.595498 
L 237.642586 225.086331 
L 237.731359 68.973161 
L 237.7935 73.851338 
L 237.971045 111.287654 
L 238.654595 326.600684 
L 238.832141 368.874726 
L 238.912036 368.730761 
L 239.293759 367.477304 
L 239.728745 365.238587 
L 240.243627 361.294143 
L 241.007073 353.42908 
L 242.267645 338.171077 
L 242.533964 331.944861 
L 242.684877 322.86932 
L 242.782527 301.743334 
L 242.844668 231.753895 
L 242.933441 68.961198 
L 243.004459 74.68698 
L 243.190882 115.448006 
L 243.874432 335.679746 
L 244.034223 368.874308 
L 244.105241 368.758584 
L 244.478086 367.559046 
L 244.913073 365.36465 
L 245.419077 361.553735 
L 246.155891 354.048062 
L 247.46085 338.358407 
L 247.736045 332.033846 
L 247.886959 323.128266 
L 247.984609 302.834897 
L 248.04675 237.914909 
L 248.135523 68.975289 
L 248.215418 75.571092 
L 248.419595 122.198711 
L 249.094268 344.6038 
L 249.245182 368.874049 
L 249.342832 368.67574 
L 249.733432 367.350803 
L 250.177295 364.987274 
L 250.701055 360.855748 
L 251.508886 352.395748 
L 252.689564 337.957382 
L 252.947005 331.805194 
L 253.097918 322.457697 
L 253.195568 299.965553 
L 253.257709 221.37594 
L 253.346482 68.989094 
L 253.408623 74.020622 
L 253.586168 111.644275 
L 254.269718 327.369604 
L 254.447264 368.874671 
L 254.536036 368.705147 
L 254.926636 367.398697 
L 255.361623 365.117936 
L 255.876505 361.122179 
L 256.657705 353.019199 
L 257.882768 338.149345 
L 258.149086 331.897757 
L 258.3 322.731157 
L 258.39765 301.152209 
L 258.459791 228.354576 
L 258.548564 68.964511 
L 258.619582 74.865234 
L 258.814882 118.27745 
L 259.489555 336.464769 
L 259.649345 368.874624 
L 259.720364 368.75544 
L 260.093209 367.553832 
L 260.528195 365.356591 
L 261.0342 361.542185 
L 261.771014 354.033601 
L 263.067095 338.481412 
L 263.342291 332.297894 
L 263.502082 322.994227 
L 263.599732 302.27371 
L 263.661873 234.761986 
L 263.750645 68.964306 
L 263.821664 74.52462 
L 264.008086 115.115293 
L 264.691636 334.958175 
L 264.851427 368.873811 
L 264.922445 368.761484 
L 265.286414 367.59907 
L 265.7214 365.426602 
L 266.227405 361.642685 
L 266.955341 354.257863 
L 268.269177 338.521894 
L 268.544373 332.383114 
L 268.704164 323.251267 
L 268.801814 303.3374 
L 268.863955 240.677623 
L 268.952727 68.991558 
L 269.032623 75.399442 
L 269.227923 119.352337 
L 269.902595 338.739608 
L 270.062386 368.874452 
L 270.151159 368.7018 
L 270.541759 367.393219 
L 270.985623 365.052612 
L 271.509382 360.948473 
L 272.308336 352.608136 
L 273.506768 337.978216 
L 273.764209 331.850076 
L 273.915123 322.590607 
L 274.012773 300.546369 
L 274.074914 224.797309 
L 274.163686 68.974158 
L 274.225827 73.864604 
L 274.403373 111.315726 
L 275.086923 326.660991 
L 275.264468 368.874728 
L 275.344364 368.730508 
L 275.726086 367.476888 
L 276.161073 365.237947 
L 276.675955 361.293227 
L 277.4394 353.427946 
L 278.699973 338.169378 
L 278.966291 331.941198 
L 279.117205 322.858611 
L 279.214855 301.697759 
L 279.276995 231.494681 
L 279.365768 68.961195 
L 279.436786 74.700785 
L 279.623209 115.476152 
L 280.306759 335.740707 
L 280.46655 368.874341 
L 280.537568 368.758339 
L 280.910414 367.55864 
L 281.3454 365.364023 
L 281.851405 361.552836 
L 282.588218 354.046936 
L 283.893177 338.356751 
L 284.168373 332.030254 
L 284.319286 323.117895 
L 284.416936 302.791825 
L 284.479077 237.67492 
L 284.56785 68.974181 
L 284.647745 75.585778 
L 284.851923 122.227867 
L 285.526595 344.661953 
L 285.677509 368.874007 
L 285.775159 368.675469 
L 286.165759 367.350364 
L 286.609623 364.986599 
L 287.133382 360.854793 
L 287.941214 352.394585 
L 289.121891 337.955619 
L 289.379332 331.801384 
L 289.530245 322.446331 
L 289.627895 299.915584 
L 289.690036 221.0805 
L 289.778809 68.990647 
L 289.84095 74.034013 
L 290.027373 114.090377 
L 290.710923 332.713087 
L 290.879591 368.874661 
L 290.968364 368.704883 
L 291.358964 367.398265 
L 291.79395 365.117274 
L 292.308832 361.121239 
L 293.090032 353.018044 
L 294.315095 338.147619 
L 294.581414 331.894009 
L 294.732327 322.720131 
L 294.829977 301.104786 
L 294.892118 228.078497 
L 294.980891 68.965 
L 295.051909 74.879498 
L 295.247209 118.306558 
L 295.921882 336.526903 
L 296.081673 368.874641 
L 296.161568 368.733471 
L 296.543291 367.481757 
L 296.978277 365.245439 
L 297.493159 361.303943 
L 298.256605 353.441223 
L 299.517177 338.189238 
L 299.783495 331.983965 
L 299.934409 322.983484 
L 300.032059 302.228179 
L 300.0942 234.503831 
L 300.182973 68.963757 
L 300.253991 74.538659 
L 300.440414 115.144171 
L 301.123964 335.020707 
L 301.283755 368.873862 
L 301.354773 368.761234 
L 301.718741 367.598657 
L 302.153727 365.425961 
L 302.659732 361.641764 
L 303.387668 354.256705 
L 304.701505 338.520209 
L 304.9767 332.379573 
L 305.136491 323.240639 
L 305.234141 303.294719 
L 305.296282 240.446196 
L 305.385055 68.989928 
L 305.46495 75.414054 
L 305.66025 119.381325 
L 306.334923 338.80218 
L 306.494714 368.874424 
L 306.592364 368.678661 
L 306.982964 367.355539 
L 307.426827 364.994561 
L 307.950586 360.866073 
L 308.758418 352.408318 
L 309.939095 337.976427 
L 310.196536 331.846237 
L 310.34745 322.579268 
L 310.4451 300.497173 
L 310.507241 224.507813 
L 310.596014 68.975173 
L 310.658155 73.877883 
L 310.8357 111.343804 
L 311.51925 326.721154 
L 311.696795 368.874729 
L 311.776691 368.730255 
L 312.158414 367.476473 
L 312.5934 365.237308 
L 313.108282 361.292314 
L 313.871727 353.426814 
L 315.1323 338.167681 
L 315.398618 331.937542 
L 315.549532 322.847915 
L 315.647182 301.652222 
L 315.709323 231.235466 
L 315.798095 68.961274 
L 315.869114 74.714485 
L 316.055536 115.504052 
L 316.739086 335.801197 
L 316.898877 368.874371 
L 316.969895 368.758097 
L 317.342741 367.558237 
L 317.777727 365.3634 
L 318.283732 361.551943 
L 319.020545 354.045818 
L 320.325505 338.355107 
L 320.6007 332.026688 
L 320.751614 323.107595 
L 320.849264 302.749035 
L 320.911405 237.436309 
L 321.000177 68.973112 
L 321.080073 75.600391 
L 321.28425 122.256862 
L 321.958923 344.719317 
L 322.109836 368.873963 
L 322.207486 368.6752 
L 322.598086 367.349929 
L 323.04195 364.985929 
L 323.565709 360.853843 
L 324.373541 352.393429 
L 325.554218 337.953866 
L 325.811659 331.797595 
L 325.962573 322.434994 
L 326.060223 299.865716 
L 326.122364 220.785176 
L 326.211136 68.992217 
L 326.273277 74.047417 
L 326.4597 114.118829 
L 327.14325 332.775137 
L 327.311918 368.874649 
L 327.400691 368.704619 
L 327.791291 367.397833 
L 328.226277 365.116613 
L 328.741159 361.1203 
L 329.318182 355.273047 
L 329.344814 356.381182 
L 329.469095 357.901838 
L 329.495727 357.877896 
L 329.602255 357.373705 
L 330.063873 353.559757 
L 331.812695 337.504767 
L 332.034627 332.335654 
L 332.176664 323.429985 
L 332.274314 299.888112 
L 332.336455 211.215457 
L 332.41635 67.010682 
L 332.478491 71.140177 
L 332.647159 103.591544 
L 333.321832 304.632598 
L 333.543764 369.358254 
L 333.561518 369.351468 
L 333.747941 369.019025 
L 334.165173 367.868234 
L 334.617914 365.905727 
L 335.159427 362.461745 
L 336.038277 355.131884 
L 337.973523 337.180951 
L 338.186577 331.818789 
L 338.328614 321.645989 
L 338.417386 296.408035 
L 338.479527 188.117968 
L 338.550545 66.965131 
L 338.612686 70.79014 
L 338.772477 100.543967 
L 339.429395 291.268165 
L 339.686836 369.359884 
L 339.722345 369.326374 
L 340.03305 368.677673 
L 340.459159 367.287968 
L 340.938532 364.881069 
L 341.542186 360.571569 
L 343.619468 342.863021 
L 344.081086 337.685115 
L 344.311895 332.326472 
L 344.453932 323.269341 
L 344.551582 298.901199 
L 344.613723 204.38187 
L 344.693618 66.963997 
L 344.755759 71.291776 
L 344.924427 103.893395 
L 345.5991 304.927108 
L 345.821032 369.359964 
L 345.838786 369.352515 
L 346.034086 369.000646 
L 346.451318 367.838461 
L 346.904059 365.860418 
L 347.445573 362.398224 
L 348.3333 354.978483 
L 350.250791 337.181185 
L 350.463845 331.817158 
L 350.605882 321.637502 
L 350.694655 296.364674 
L 350.756795 187.82108 
L 350.827814 66.963353 
L 350.889955 70.796782 
L 351.049745 100.558409 
L 351.706664 291.286393 
L 351.964105 369.359909 
L 351.999614 369.326344 
L 352.310318 368.677605 
L 352.736427 367.287861 
L 353.2158 364.880909 
L 353.819455 360.571353 
L 355.896736 342.862753 
L 356.358355 337.684614 
L 356.589164 332.32524 
L 356.7312 323.265473 
L 356.82885 298.882603 
L 356.890991 204.260892 
L 356.970886 66.964225 
L 357.033027 71.295653 
L 357.201695 103.901995 
L 357.876368 304.943355 
L 358.0983 369.35997 
L 358.116055 369.352486 
L 358.311355 369.000574 
L 358.728586 367.838345 
L 359.181327 365.860242 
L 359.722841 362.397977 
L 360.610568 354.978191 
L 362.528059 337.180618 
L 362.741114 331.815828 
L 362.88315 321.633079 
L 362.971923 296.344432 
L 363.034064 187.68777 
L 363.105082 66.963085 
L 363.167223 70.800468 
L 363.327014 100.56677 
L 363.983932 291.299894 
L 364.241373 369.359903 
L 364.276882 369.326296 
L 364.587586 368.677519 
L 365.013695 367.287725 
L 365.493068 364.880706 
L 366.096723 360.571081 
L 368.174005 342.86245 
L 368.635623 337.684091 
L 368.866432 332.324002 
L 369.008468 323.261641 
L 369.106118 298.864279 
L 369.168259 204.141896 
L 369.248155 66.964477 
L 369.310295 71.299501 
L 369.478964 103.910546 
L 370.153636 304.95964 
L 370.375568 369.359976 
L 370.393323 369.352457 
L 370.588623 369.000501 
L 371.005855 367.838227 
L 371.458595 365.860063 
L 372.000109 362.397727 
L 372.887836 354.977895 
L 374.805327 337.180046 
L 375.018382 331.814486 
L 375.160418 321.628613 
L 375.249191 296.323992 
L 375.311332 187.553173 
L 375.38235 66.96282 
L 375.444491 70.804194 
L 375.604282 100.575222 
L 376.2612 291.313547 
L 376.518641 369.359896 
L 376.55415 369.326248 
L 376.864855 368.677433 
L 377.290964 367.287587 
L 377.770336 364.880501 
L 378.373991 360.570806 
L 380.451273 342.862144 
L 380.912891 337.683561 
L 381.1437 332.322749 
L 381.285736 323.257765 
L 381.383386 298.845743 
L 381.445527 204.021292 
L 381.525423 66.964742 
L 381.587564 71.30339 
L 381.756232 103.919185 
L 382.430905 304.976106 
L 382.652836 369.35998 
L 382.670591 369.352427 
L 382.865891 369.000428 
L 383.283123 367.838109 
L 383.735864 365.859882 
L 384.277377 362.397475 
L 385.165105 354.977595 
L 387.082595 337.179467 
L 387.29565 331.813128 
L 387.437686 321.624097 
L 387.526459 296.303318 
L 387.5886 187.417037 
L 387.659618 66.962558 
L 387.721759 70.807965 
L 387.88155 100.583773 
L 388.538468 291.327368 
L 388.795909 369.35989 
L 388.831418 369.326199 
L 389.142123 368.677345 
L 389.568232 367.287448 
L 390.047605 364.880294 
L 390.651259 360.570527 
L 392.728541 342.861834 
L 393.190159 337.683025 
L 393.420968 332.321481 
L 393.563005 323.25384 
L 393.660655 298.826971 
L 393.722795 203.898522 
L 393.802691 66.965005 
L 393.864832 71.30734 
L 394.0335 103.927957 
L 394.708173 304.992805 
L 394.930105 369.359985 
L 394.947859 369.352396 
L 395.143159 369.000354 
L 395.560391 367.837988 
L 396.013132 365.8597 
L 396.554645 362.397219 
L 397.442373 354.977292 
L 399.359864 337.17888 
L 399.572918 331.811753 
L 399.714955 321.619523 
L 399.803727 296.282379 
L 399.865868 187.279758 
L 399.936886 66.962298 
L 399.999027 70.811753 
L 400.158818 100.592353 
L 400.815736 291.341212 
L 401.073177 369.359883 
L 401.108686 369.326151 
L 401.419391 368.677257 
L 401.8455 367.287309 
L 402.324873 364.880086 
L 402.928527 360.570249 
L 405.005809 342.861524 
L 405.467427 337.682489 
L 405.698236 332.320213 
L 405.840273 323.249915 
L 405.937923 298.808197 
L 406.000064 203.775732 
L 406.079959 66.96527 
L 406.1421 71.311295 
L 406.310768 103.936738 
L 406.985441 305.009525 
L 407.207373 369.35999 
L 407.225127 369.352366 
L 407.420427 369.000279 
L 407.837659 367.837868 
L 408.2904 365.859517 
L 408.831914 362.396963 
L 409.719641 354.976989 
L 411.637132 337.178294 
L 411.850186 331.810377 
L 411.992223 321.614944 
L 412.080995 296.261413 
L 412.143136 187.142435 
L 412.214155 66.96204 
L 412.276295 70.815543 
L 412.436086 100.600937 
L 413.093005 291.355055 
L 413.350445 369.359877 
L 413.385955 369.326102 
L 413.696659 368.677169 
L 414.122768 367.28717 
L 414.602141 364.879879 
L 415.205795 360.56997 
L 417.283077 342.861214 
L 417.744695 337.681954 
L 417.975505 332.318946 
L 418.117541 323.245992 
L 418.215191 298.789429 
L 418.277332 203.652978 
L 418.357227 66.965539 
L 418.419368 71.315252 
L 418.588036 103.945524 
L 419.262709 305.026252 
L 419.484641 369.359995 
L 419.502395 369.352335 
L 419.697695 369.000205 
L 420.114927 367.837747 
L 420.567668 365.859333 
L 421.109182 362.396706 
L 421.996909 354.976685 
L 423.9144 337.177706 
L 424.127455 331.808999 
L 424.269491 321.61036 
L 424.358264 296.240425 
L 424.420405 187.004975 
L 424.491423 66.961786 
L 424.553564 70.819341 
L 424.722232 102.823467 
L 425.388027 298.861514 
L 425.627714 369.35987 
L 425.645468 369.348087 
L 425.8674 368.931929 
L 426.284632 367.727668 
L 426.74625 365.644363 
L 427.305518 361.963538 
L 428.290895 353.615323 
L 430.039718 337.398492 
L 430.26165 331.982694 
L 430.403686 322.180767 
L 430.492459 298.770616 
L 430.5546 203.529921 
L 430.634495 66.965812 
L 430.696636 71.319223 
L 430.865305 103.954339 
L 431.539977 305.043039 
L 431.761909 369.36 
L 431.779664 369.352305 
L 431.974964 369.00013 
L 432.392195 367.837626 
L 432.844936 365.859149 
L 433.38645 362.396449 
L 434.274177 354.976381 
L 435.845455 341.476534 
L 435.845455 341.476534 
" clip-path="url(#pce99f1683b)" style="fill: none; stroke: #ff0000; stroke-width: 1.5; stroke-linecap: square"/>
   </g>
   <g id="patch_3">
    <path d="M 63 384.48 
L 63 51.84 
" style="fill: none; stroke: #000000; stroke-width: 0.8; stroke-linejoin: miter; stroke-linecap: square"/>
   </g>
   <g id="patch_4">
    <path d="M 453.6 384.48 
L 453.6 51.84 
" style="fill: none; stroke: #000000; stroke-width: 0.8; stroke-linejoin: miter; stroke-linecap: square"/>
   </g>
   <g id="patch_5">
    <path d="M 63 384.48 
L 453.6 384.48 
" style="fill: none; stroke: #000000; stroke-width: 0.8; stroke-linejoin: miter; stroke-linecap: square"/>
   </g>
   <g id="patch_6">
    <path d="M 63 51.84 
L 453.6 51.84 
" style="fill: none; stroke: #000000; stroke-width: 0.8; stroke-linejoin: miter; stroke-linecap: square"/>
   </g>
   <g id="legend_1">
    <g id="patch_7">
     <path d="M 383.460938 234.338125 
L 446.6 234.338125 
Q 448.6 234.338125 448.6 232.338125 
L 448.6 203.981875 
Q 448.6 201.981875 446.6 201.981875 
L 383.460938 201.981875 
Q 381.460938 201.981875 381.460938 203.981875 
L 381.460938 232.338125 
Q 381.460938 234.338125 383.460938 234.338125 
z
" style="fill: #ffffff; opacity: 0.8; stroke: #cccccc; stroke-linejoin: miter"/>
    </g>
    <g id="line2d_15">
     <path d="M 385.460938 210.080312 
L 395.460938 210.080312 
L 405.460938 210.080312 
" style="fill: none; stroke: #1f77b4; stroke-width: 1.5; stroke-linecap: square"/>
    </g>
    <g id="text_15">
     <!-- target -->
     <g transform="translate(413.460938 213.580312)scale(0.1 -0.1)">
      <defs>
       <path id="DejaVuSans-72" d="M 2631 2963 
Q 2534 3019 2420 3045 
Q 2306 3072 2169 3072 
Q 1681 3072 1420 2755 
Q 1159 2438 1159 1844 
L 1159 0 
L 581 0 
L 581 3500 
L 1159 3500 
L 1159 2956 
Q 1341 3275 1631 3429 
Q 1922 3584 2338 3584 
Q 2397 3584 2469 3576 
Q 2541 3569 2628 3553 
L 2631 2963 
z
" transform="scale(0.015625)"/>
      </defs>
      <use xlink:href="#DejaVuSans-74"/>
      <use xlink:href="#DejaVuSans-61" x="39.208984"/>
      <use xlink:href="#DejaVuSans-72" x="100.488281"/>
      <use xlink:href="#DejaVuSans-67" x="139.851562"/>
      <use xlink:href="#DejaVuSans-65" x="203.328125"/>
      <use xlink:href="#DejaVuSans-74" x="264.851562"/>
     </g>
    </g>
    <g id="line2d_16">
     <path d="M 385.460938 224.758437 
L 395.460938 224.758437 
L 405.460938 224.758437 
" style="fill: none; stroke: #ff0000; stroke-width: 1.5; stroke-linecap: square"/>
    </g>
    <g id="text_16">
     <!-- model -->
     <g transform="translate(413.460938 228.258437)scale(0.1 -0.1)">
      <defs>
       <path id="DejaVuSans-64" d="M 2906 2969 
L 2906 4863 
L 3481 4863 
L 3481 0 
L 2906 0 
L 2906 525 
Q 2725 213 2448 61 
Q 2172 -91 1784 -91 
Q 1150 -91 751 415 
Q 353 922 353 1747 
Q 353 2572 751 3078 
Q 1150 3584 1784 3584 
Q 2172 3584 2448 3432 
Q 2725 3281 2906 2969 
z
M 947 1747 
Q 947 1113 1208 752 
Q 1469 391 1925 391 
Q 2381 391 2643 752 
Q 2906 1113 2906 1747 
Q 2906 2381 2643 2742 
Q 2381 3103 1925 3103 
Q 1469 3103 1208 2742 
Q 947 2381 947 1747 
z
" transform="scale(0.015625)"/>
      </defs>
      <use xlink:href="#DejaVuSans-6d"/>
      <use xlink:href="#DejaVuSans-6f" x="97.412109"/>
      <use xlink:href="#DejaVuSans-64" x="158.59375"/>
      <use xlink:href="#DejaVuSans-65" x="222.070312"/>
      <use xlink:href="#DejaVuSans-6c" x="283.59375"/>
     </g>
    </g>
   </g>
  </g>
 </g>
 <defs>
  <clipPath id="pce99f1683b">
   <rect x="63" y="51.84" width="390.6" height="332.64"/>
  </clipPath>
 </defs>
</svg>
