<?xml version="1.0" encoding="utf-8" standalone="no"?>
<!DOCTYPE svg PUBLIC "-//W3C//DTD SVG 1.1//EN"
  "http://www.w3.org/Graphics/SVG/1.1/DTD/svg11.dtd">
<svg xmlns:xlink="http://www.w3.org/1999/xlink" width="504pt" height="432pt" viewBox="0 0 504 432" xmlns="http://www.w3.org/2000/svg" version="1.1">
 <metadata>
  <rdf:RDF xmlns:dc="http://purl.org/dc/elements/1.1/" xmlns:cc="http://creativecommons.org/ns#" xmlns:rdf="http://www.w3.org/1999/02/22-rdf-syntax-ns#">
   <cc:Work>
    <dc:type rdf:resource="http://purl.org/dc/dcmitype/StillImage"/>
    <dc:date>2022-01-30T19:41:26.443389</dc:date>
    <dc:format>image/svg+xml</dc:format>
    <dc:creator>
     <cc:Agent>
      <dc:title>Matplotlib v3.5.1, https://matplotlib.org/</dc:title>
     </cc:Agent>
    </dc:creator>
   </cc:Work>
  </rdf:RDF>
 </metadata>
 <defs>
  <style type="text/css">*{stroke-linejoin: round; stroke-linecap: butt}</style>
 </defs>
 <g id="figure_1">
  <g id="patch_1">
   <path d="M 0 432 
L 504 432 
L 504 0 
L 0 0 
z
" style="fill: #ffffff"/>
  </g>
  <g id="axes_1">
   <g id="patch_2">
    <path d="M 63 384.48 
L 453.6 384.48 
L 453.6 51.84 
L 63 51.84 
z
" style="fill: #ffffff"/>
   </g>
   <g id="matplotlib.axis_1">
    <g id="xtick_1">
     <g id="line2d_1">
      <defs>
       <path id="m963e372948" d="M 0 0 
L 0 3.5 
" style="stroke: #000000; stroke-width: 0.8"/>
      </defs>
      <g>
       <use xlink:href="#m963e372948" x="80.754545" y="384.48" style="stroke: #000000; stroke-width: 0.8"/>
      </g>
     </g>
     <g id="text_1">
      <!-- 0 -->
      <g transform="translate(77.573295 399.078438)scale(0.1 -0.1)">
       <defs>
        <path id="DejaVuSans-30" d="M 2034 4250 
Q 1547 4250 1301 3770 
Q 1056 3291 1056 2328 
Q 1056 1369 1301 889 
Q 1547 409 2034 409 
Q 2525 409 2770 889 
Q 3016 1369 3016 2328 
Q 3016 3291 2770 3770 
Q 2525 4250 2034 4250 
z
M 2034 4750 
Q 2819 4750 3233 4129 
Q 3647 3509 3647 2328 
Q 3647 1150 3233 529 
Q 2819 -91 2034 -91 
Q 1250 -91 836 529 
Q 422 1150 422 2328 
Q 422 3509 836 4129 
Q 1250 4750 2034 4750 
z
" transform="scale(0.015625)"/>
       </defs>
       <use xlink:href="#DejaVuSans-30"/>
      </g>
     </g>
    </g>
    <g id="xtick_2">
     <g id="line2d_2">
      <g>
       <use xlink:href="#m963e372948" x="151.772727" y="384.48" style="stroke: #000000; stroke-width: 0.8"/>
      </g>
     </g>
     <g id="text_2">
      <!-- 200 -->
      <g transform="translate(142.228977 399.078438)scale(0.1 -0.1)">
       <defs>
        <path id="DejaVuSans-32" d="M 1228 531 
L 3431 531 
L 3431 0 
L 469 0 
L 469 531 
Q 828 903 1448 1529 
Q 2069 2156 2228 2338 
Q 2531 2678 2651 2914 
Q 2772 3150 2772 3378 
Q 2772 3750 2511 3984 
Q 2250 4219 1831 4219 
Q 1534 4219 1204 4116 
Q 875 4013 500 3803 
L 500 4441 
Q 881 4594 1212 4672 
Q 1544 4750 1819 4750 
Q 2544 4750 2975 4387 
Q 3406 4025 3406 3419 
Q 3406 3131 3298 2873 
Q 3191 2616 2906 2266 
Q 2828 2175 2409 1742 
Q 1991 1309 1228 531 
z
" transform="scale(0.015625)"/>
       </defs>
       <use xlink:href="#DejaVuSans-32"/>
       <use xlink:href="#DejaVuSans-30" x="63.623047"/>
       <use xlink:href="#DejaVuSans-30" x="127.246094"/>
      </g>
     </g>
    </g>
    <g id="xtick_3">
     <g id="line2d_3">
      <g>
       <use xlink:href="#m963e372948" x="222.790909" y="384.48" style="stroke: #000000; stroke-width: 0.8"/>
      </g>
     </g>
     <g id="text_3">
      <!-- 400 -->
      <g transform="translate(213.247159 399.078438)scale(0.1 -0.1)">
       <defs>
        <path id="DejaVuSans-34" d="M 2419 4116 
L 825 1625 
L 2419 1625 
L 2419 4116 
z
M 2253 4666 
L 3047 4666 
L 3047 1625 
L 3713 1625 
L 3713 1100 
L 3047 1100 
L 3047 0 
L 2419 0 
L 2419 1100 
L 313 1100 
L 313 1709 
L 2253 4666 
z
" transform="scale(0.015625)"/>
       </defs>
       <use xlink:href="#DejaVuSans-34"/>
       <use xlink:href="#DejaVuSans-30" x="63.623047"/>
       <use xlink:href="#DejaVuSans-30" x="127.246094"/>
      </g>
     </g>
    </g>
    <g id="xtick_4">
     <g id="line2d_4">
      <g>
       <use xlink:href="#m963e372948" x="293.809091" y="384.48" style="stroke: #000000; stroke-width: 0.8"/>
      </g>
     </g>
     <g id="text_4">
      <!-- 600 -->
      <g transform="translate(284.265341 399.078438)scale(0.1 -0.1)">
       <defs>
        <path id="DejaVuSans-36" d="M 2113 2584 
Q 1688 2584 1439 2293 
Q 1191 2003 1191 1497 
Q 1191 994 1439 701 
Q 1688 409 2113 409 
Q 2538 409 2786 701 
Q 3034 994 3034 1497 
Q 3034 2003 2786 2293 
Q 2538 2584 2113 2584 
z
M 3366 4563 
L 3366 3988 
Q 3128 4100 2886 4159 
Q 2644 4219 2406 4219 
Q 1781 4219 1451 3797 
Q 1122 3375 1075 2522 
Q 1259 2794 1537 2939 
Q 1816 3084 2150 3084 
Q 2853 3084 3261 2657 
Q 3669 2231 3669 1497 
Q 3669 778 3244 343 
Q 2819 -91 2113 -91 
Q 1303 -91 875 529 
Q 447 1150 447 2328 
Q 447 3434 972 4092 
Q 1497 4750 2381 4750 
Q 2619 4750 2861 4703 
Q 3103 4656 3366 4563 
z
" transform="scale(0.015625)"/>
       </defs>
       <use xlink:href="#DejaVuSans-36"/>
       <use xlink:href="#DejaVuSans-30" x="63.623047"/>
       <use xlink:href="#DejaVuSans-30" x="127.246094"/>
      </g>
     </g>
    </g>
    <g id="xtick_5">
     <g id="line2d_5">
      <g>
       <use xlink:href="#m963e372948" x="364.827273" y="384.48" style="stroke: #000000; stroke-width: 0.8"/>
      </g>
     </g>
     <g id="text_5">
      <!-- 800 -->
      <g transform="translate(355.283523 399.078438)scale(0.1 -0.1)">
       <defs>
        <path id="DejaVuSans-38" d="M 2034 2216 
Q 1584 2216 1326 1975 
Q 1069 1734 1069 1313 
Q 1069 891 1326 650 
Q 1584 409 2034 409 
Q 2484 409 2743 651 
Q 3003 894 3003 1313 
Q 3003 1734 2745 1975 
Q 2488 2216 2034 2216 
z
M 1403 2484 
Q 997 2584 770 2862 
Q 544 3141 544 3541 
Q 544 4100 942 4425 
Q 1341 4750 2034 4750 
Q 2731 4750 3128 4425 
Q 3525 4100 3525 3541 
Q 3525 3141 3298 2862 
Q 3072 2584 2669 2484 
Q 3125 2378 3379 2068 
Q 3634 1759 3634 1313 
Q 3634 634 3220 271 
Q 2806 -91 2034 -91 
Q 1263 -91 848 271 
Q 434 634 434 1313 
Q 434 1759 690 2068 
Q 947 2378 1403 2484 
z
M 1172 3481 
Q 1172 3119 1398 2916 
Q 1625 2713 2034 2713 
Q 2441 2713 2670 2916 
Q 2900 3119 2900 3481 
Q 2900 3844 2670 4047 
Q 2441 4250 2034 4250 
Q 1625 4250 1398 4047 
Q 1172 3844 1172 3481 
z
" transform="scale(0.015625)"/>
       </defs>
       <use xlink:href="#DejaVuSans-38"/>
       <use xlink:href="#DejaVuSans-30" x="63.623047"/>
       <use xlink:href="#DejaVuSans-30" x="127.246094"/>
      </g>
     </g>
    </g>
    <g id="text_6">
     <!-- time [ms] -->
     <g transform="translate(234.038281 412.756563)scale(0.1 -0.1)">
      <defs>
       <path id="DejaVuSans-74" d="M 1172 4494 
L 1172 3500 
L 2356 3500 
L 2356 3053 
L 1172 3053 
L 1172 1153 
Q 1172 725 1289 603 
Q 1406 481 1766 481 
L 2356 481 
L 2356 0 
L 1766 0 
Q 1100 0 847 248 
Q 594 497 594 1153 
L 594 3053 
L 172 3053 
L 172 3500 
L 594 3500 
L 594 4494 
L 1172 4494 
z
" transform="scale(0.015625)"/>
       <path id="DejaVuSans-69" d="M 603 3500 
L 1178 3500 
L 1178 0 
L 603 0 
L 603 3500 
z
M 603 4863 
L 1178 4863 
L 1178 4134 
L 603 4134 
L 603 4863 
z
" transform="scale(0.015625)"/>
       <path id="DejaVuSans-6d" d="M 3328 2828 
Q 3544 3216 3844 3400 
Q 4144 3584 4550 3584 
Q 5097 3584 5394 3201 
Q 5691 2819 5691 2113 
L 5691 0 
L 5113 0 
L 5113 2094 
Q 5113 2597 4934 2840 
Q 4756 3084 4391 3084 
Q 3944 3084 3684 2787 
Q 3425 2491 3425 1978 
L 3425 0 
L 2847 0 
L 2847 2094 
Q 2847 2600 2669 2842 
Q 2491 3084 2119 3084 
Q 1678 3084 1418 2786 
Q 1159 2488 1159 1978 
L 1159 0 
L 581 0 
L 581 3500 
L 1159 3500 
L 1159 2956 
Q 1356 3278 1631 3431 
Q 1906 3584 2284 3584 
Q 2666 3584 2933 3390 
Q 3200 3197 3328 2828 
z
" transform="scale(0.015625)"/>
       <path id="DejaVuSans-65" d="M 3597 1894 
L 3597 1613 
L 953 1613 
Q 991 1019 1311 708 
Q 1631 397 2203 397 
Q 2534 397 2845 478 
Q 3156 559 3463 722 
L 3463 178 
Q 3153 47 2828 -22 
Q 2503 -91 2169 -91 
Q 1331 -91 842 396 
Q 353 884 353 1716 
Q 353 2575 817 3079 
Q 1281 3584 2069 3584 
Q 2775 3584 3186 3129 
Q 3597 2675 3597 1894 
z
M 3022 2063 
Q 3016 2534 2758 2815 
Q 2500 3097 2075 3097 
Q 1594 3097 1305 2825 
Q 1016 2553 972 2059 
L 3022 2063 
z
" transform="scale(0.015625)"/>
       <path id="DejaVuSans-20" transform="scale(0.015625)"/>
       <path id="DejaVuSans-5b" d="M 550 4863 
L 1875 4863 
L 1875 4416 
L 1125 4416 
L 1125 -397 
L 1875 -397 
L 1875 -844 
L 550 -844 
L 550 4863 
z
" transform="scale(0.015625)"/>
       <path id="DejaVuSans-73" d="M 2834 3397 
L 2834 2853 
Q 2591 2978 2328 3040 
Q 2066 3103 1784 3103 
Q 1356 3103 1142 2972 
Q 928 2841 928 2578 
Q 928 2378 1081 2264 
Q 1234 2150 1697 2047 
L 1894 2003 
Q 2506 1872 2764 1633 
Q 3022 1394 3022 966 
Q 3022 478 2636 193 
Q 2250 -91 1575 -91 
Q 1294 -91 989 -36 
Q 684 19 347 128 
L 347 722 
Q 666 556 975 473 
Q 1284 391 1588 391 
Q 1994 391 2212 530 
Q 2431 669 2431 922 
Q 2431 1156 2273 1281 
Q 2116 1406 1581 1522 
L 1381 1569 
Q 847 1681 609 1914 
Q 372 2147 372 2553 
Q 372 3047 722 3315 
Q 1072 3584 1716 3584 
Q 2034 3584 2315 3537 
Q 2597 3491 2834 3397 
z
" transform="scale(0.015625)"/>
       <path id="DejaVuSans-5d" d="M 1947 4863 
L 1947 -844 
L 622 -844 
L 622 -397 
L 1369 -397 
L 1369 4416 
L 622 4416 
L 622 4863 
L 1947 4863 
z
" transform="scale(0.015625)"/>
      </defs>
      <use xlink:href="#DejaVuSans-74"/>
      <use xlink:href="#DejaVuSans-69" x="39.208984"/>
      <use xlink:href="#DejaVuSans-6d" x="66.992188"/>
      <use xlink:href="#DejaVuSans-65" x="164.404297"/>
      <use xlink:href="#DejaVuSans-20" x="225.927734"/>
      <use xlink:href="#DejaVuSans-5b" x="257.714844"/>
      <use xlink:href="#DejaVuSans-6d" x="296.728516"/>
      <use xlink:href="#DejaVuSans-73" x="394.140625"/>
      <use xlink:href="#DejaVuSans-5d" x="446.240234"/>
     </g>
    </g>
   </g>
   <g id="matplotlib.axis_2">
    <g id="ytick_1">
     <g id="line2d_6">
      <defs>
       <path id="m2f279baa42" d="M 0 0 
L -3.5 0 
" style="stroke: #000000; stroke-width: 0.8"/>
      </defs>
      <g>
       <use xlink:href="#m2f279baa42" x="63" y="382.070711" style="stroke: #000000; stroke-width: 0.8"/>
      </g>
     </g>
     <g id="text_7">
      <!-- −80 -->
      <g transform="translate(34.895313 385.86993)scale(0.1 -0.1)">
       <defs>
        <path id="DejaVuSans-2212" d="M 678 2272 
L 4684 2272 
L 4684 1741 
L 678 1741 
L 678 2272 
z
" transform="scale(0.015625)"/>
       </defs>
       <use xlink:href="#DejaVuSans-2212"/>
       <use xlink:href="#DejaVuSans-38" x="83.789062"/>
       <use xlink:href="#DejaVuSans-30" x="147.412109"/>
      </g>
     </g>
    </g>
    <g id="ytick_2">
     <g id="line2d_7">
      <g>
       <use xlink:href="#m2f279baa42" x="63" y="329.560796" style="stroke: #000000; stroke-width: 0.8"/>
      </g>
     </g>
     <g id="text_8">
      <!-- −60 -->
      <g transform="translate(34.895313 333.360015)scale(0.1 -0.1)">
       <use xlink:href="#DejaVuSans-2212"/>
       <use xlink:href="#DejaVuSans-36" x="83.789062"/>
       <use xlink:href="#DejaVuSans-30" x="147.412109"/>
      </g>
     </g>
    </g>
    <g id="ytick_3">
     <g id="line2d_8">
      <g>
       <use xlink:href="#m2f279baa42" x="63" y="277.050881" style="stroke: #000000; stroke-width: 0.8"/>
      </g>
     </g>
     <g id="text_9">
      <!-- −40 -->
      <g transform="translate(34.895313 280.8501)scale(0.1 -0.1)">
       <use xlink:href="#DejaVuSans-2212"/>
       <use xlink:href="#DejaVuSans-34" x="83.789062"/>
       <use xlink:href="#DejaVuSans-30" x="147.412109"/>
      </g>
     </g>
    </g>
    <g id="ytick_4">
     <g id="line2d_9">
      <g>
       <use xlink:href="#m2f279baa42" x="63" y="224.540966" style="stroke: #000000; stroke-width: 0.8"/>
      </g>
     </g>
     <g id="text_10">
      <!-- −20 -->
      <g transform="translate(34.895313 228.340184)scale(0.1 -0.1)">
       <use xlink:href="#DejaVuSans-2212"/>
       <use xlink:href="#DejaVuSans-32" x="83.789062"/>
       <use xlink:href="#DejaVuSans-30" x="147.412109"/>
      </g>
     </g>
    </g>
    <g id="ytick_5">
     <g id="line2d_10">
      <g>
       <use xlink:href="#m2f279baa42" x="63" y="172.03105" style="stroke: #000000; stroke-width: 0.8"/>
      </g>
     </g>
     <g id="text_11">
      <!-- 0 -->
      <g transform="translate(49.6375 175.830269)scale(0.1 -0.1)">
       <use xlink:href="#DejaVuSans-30"/>
      </g>
     </g>
    </g>
    <g id="ytick_6">
     <g id="line2d_11">
      <g>
       <use xlink:href="#m2f279baa42" x="63" y="119.521135" style="stroke: #000000; stroke-width: 0.8"/>
      </g>
     </g>
     <g id="text_12">
      <!-- 20 -->
      <g transform="translate(43.275 123.320354)scale(0.1 -0.1)">
       <use xlink:href="#DejaVuSans-32"/>
       <use xlink:href="#DejaVuSans-30" x="63.623047"/>
      </g>
     </g>
    </g>
    <g id="ytick_7">
     <g id="line2d_12">
      <g>
       <use xlink:href="#m2f279baa42" x="63" y="67.01122" style="stroke: #000000; stroke-width: 0.8"/>
      </g>
     </g>
     <g id="text_13">
      <!-- 40 -->
      <g transform="translate(43.275 70.810439)scale(0.1 -0.1)">
       <use xlink:href="#DejaVuSans-34"/>
       <use xlink:href="#DejaVuSans-30" x="63.623047"/>
      </g>
     </g>
    </g>
    <g id="text_14">
     <!-- voltage [mV] -->
     <g transform="translate(28.815625 250.624062)rotate(-90)scale(0.1 -0.1)">
      <defs>
       <path id="DejaVuSans-76" d="M 191 3500 
L 800 3500 
L 1894 563 
L 2988 3500 
L 3597 3500 
L 2284 0 
L 1503 0 
L 191 3500 
z
" transform="scale(0.015625)"/>
       <path id="DejaVuSans-6f" d="M 1959 3097 
Q 1497 3097 1228 2736 
Q 959 2375 959 1747 
Q 959 1119 1226 758 
Q 1494 397 1959 397 
Q 2419 397 2687 759 
Q 2956 1122 2956 1747 
Q 2956 2369 2687 2733 
Q 2419 3097 1959 3097 
z
M 1959 3584 
Q 2709 3584 3137 3096 
Q 3566 2609 3566 1747 
Q 3566 888 3137 398 
Q 2709 -91 1959 -91 
Q 1206 -91 779 398 
Q 353 888 353 1747 
Q 353 2609 779 3096 
Q 1206 3584 1959 3584 
z
" transform="scale(0.015625)"/>
       <path id="DejaVuSans-6c" d="M 603 4863 
L 1178 4863 
L 1178 0 
L 603 0 
L 603 4863 
z
" transform="scale(0.015625)"/>
       <path id="DejaVuSans-61" d="M 2194 1759 
Q 1497 1759 1228 1600 
Q 959 1441 959 1056 
Q 959 750 1161 570 
Q 1363 391 1709 391 
Q 2188 391 2477 730 
Q 2766 1069 2766 1631 
L 2766 1759 
L 2194 1759 
z
M 3341 1997 
L 3341 0 
L 2766 0 
L 2766 531 
Q 2569 213 2275 61 
Q 1981 -91 1556 -91 
Q 1019 -91 701 211 
Q 384 513 384 1019 
Q 384 1609 779 1909 
Q 1175 2209 1959 2209 
L 2766 2209 
L 2766 2266 
Q 2766 2663 2505 2880 
Q 2244 3097 1772 3097 
Q 1472 3097 1187 3025 
Q 903 2953 641 2809 
L 641 3341 
Q 956 3463 1253 3523 
Q 1550 3584 1831 3584 
Q 2591 3584 2966 3190 
Q 3341 2797 3341 1997 
z
" transform="scale(0.015625)"/>
       <path id="DejaVuSans-67" d="M 2906 1791 
Q 2906 2416 2648 2759 
Q 2391 3103 1925 3103 
Q 1463 3103 1205 2759 
Q 947 2416 947 1791 
Q 947 1169 1205 825 
Q 1463 481 1925 481 
Q 2391 481 2648 825 
Q 2906 1169 2906 1791 
z
M 3481 434 
Q 3481 -459 3084 -895 
Q 2688 -1331 1869 -1331 
Q 1566 -1331 1297 -1286 
Q 1028 -1241 775 -1147 
L 775 -588 
Q 1028 -725 1275 -790 
Q 1522 -856 1778 -856 
Q 2344 -856 2625 -561 
Q 2906 -266 2906 331 
L 2906 616 
Q 2728 306 2450 153 
Q 2172 0 1784 0 
Q 1141 0 747 490 
Q 353 981 353 1791 
Q 353 2603 747 3093 
Q 1141 3584 1784 3584 
Q 2172 3584 2450 3431 
Q 2728 3278 2906 2969 
L 2906 3500 
L 3481 3500 
L 3481 434 
z
" transform="scale(0.015625)"/>
       <path id="DejaVuSans-56" d="M 1831 0 
L 50 4666 
L 709 4666 
L 2188 738 
L 3669 4666 
L 4325 4666 
L 2547 0 
L 1831 0 
z
" transform="scale(0.015625)"/>
      </defs>
      <use xlink:href="#DejaVuSans-76"/>
      <use xlink:href="#DejaVuSans-6f" x="59.179688"/>
      <use xlink:href="#DejaVuSans-6c" x="120.361328"/>
      <use xlink:href="#DejaVuSans-74" x="148.144531"/>
      <use xlink:href="#DejaVuSans-61" x="187.353516"/>
      <use xlink:href="#DejaVuSans-67" x="248.632812"/>
      <use xlink:href="#DejaVuSans-65" x="312.109375"/>
      <use xlink:href="#DejaVuSans-20" x="373.632812"/>
      <use xlink:href="#DejaVuSans-5b" x="405.419922"/>
      <use xlink:href="#DejaVuSans-6d" x="444.433594"/>
      <use xlink:href="#DejaVuSans-56" x="541.845703"/>
      <use xlink:href="#DejaVuSans-5d" x="610.253906"/>
     </g>
    </g>
   </g>
   <g id="line2d_13">
    <path d="M 80.754545 342.688275 
L 81.961855 342.551749 
L 83.772818 342.608985 
L 85.965505 342.627889 
L 151.772727 342.619224 
L 152.314241 298.08609 
L 152.420768 249.440117 
L 152.562805 67.862406 
L 152.678209 93.085543 
L 153.565936 369.181628 
L 153.610323 369.081071 
L 153.8145 367.701898 
L 154.293873 362.947125 
L 154.959668 353.82379 
L 157.42755 314.92392 
L 157.613973 303.794181 
L 157.738255 281.82377 
L 157.835905 219.25348 
L 157.969064 92.228844 
L 158.031205 105.384153 
L 158.883423 368.757085 
L 158.945564 368.573563 
L 159.203005 366.593939 
L 159.717886 360.919718 
L 160.534595 348.98999 
L 161.8218 330.855691 
L 162.514227 320.48682 
L 162.771668 312.964512 
L 162.940336 300.97046 
L 163.064618 272.997903 
L 163.162268 188.579892 
L 163.268795 93.149343 
L 163.322059 102.664665 
L 163.863573 297.807788 
L 164.147645 368.580389 
L 164.183155 368.725316 
L 164.245295 368.543895 
L 164.493859 366.639885 
L 165.008741 360.985355 
L 165.834327 348.932492 
L 167.112655 330.930255 
L 167.813959 320.451376 
L 168.0714 312.919354 
L 168.240068 300.885919 
L 168.36435 272.751632 
L 168.462 187.834119 
L 168.568527 93.22627 
L 168.621791 102.886782 
L 169.172182 301.760472 
L 169.4385 368.494535 
L 169.482886 368.723216 
L 169.545027 368.537856 
L 169.802468 366.550093 
L 170.31735 360.858018 
L 171.151814 348.643424 
L 172.430141 330.687396 
L 173.113691 320.432998 
L 173.371132 312.882859 
L 173.5398 300.790088 
L 173.664082 272.413468 
L 173.761732 186.682551 
L 173.868259 93.243073 
L 173.921523 103.122814 
L 174.480791 305.832616 
L 174.729355 368.385052 
L 174.782618 368.723216 
L 174.844759 368.533655 
L 175.1022 366.542742 
L 175.617082 360.847254 
L 176.451545 348.630559 
L 177.729873 330.676632 
L 178.413423 320.416194 
L 178.670864 312.84689 
L 178.839532 300.692945 
L 178.963814 272.066377 
L 179.061464 185.497271 
L 179.167991 93.260401 
L 179.221255 103.361471 
L 179.7894 310.007942 
L 180.029086 368.397392 
L 180.08235 368.723479 
L 180.144491 368.529192 
L 180.401932 366.53539 
L 180.916814 360.836752 
L 181.751277 348.61822 
L 183.029605 330.66613 
L 183.713155 320.399129 
L 183.970595 312.810658 
L 184.139264 300.594752 
L 184.263545 271.711148 
L 184.361195 184.291144 
L 184.467723 93.284293 
L 184.520986 103.603805 
L 185.098009 314.27516 
L 185.328818 368.409469 
L 185.382082 368.723479 
L 185.444223 368.524991 
L 185.701664 366.527776 
L 186.216545 360.82625 
L 187.051009 348.605617 
L 188.329336 330.655628 
L 189.012886 320.382325 
L 189.270327 312.774164 
L 189.438995 300.494983 
L 189.563277 271.350667 
L 189.660927 183.080213 
L 189.767455 93.313962 
L 189.820718 103.848501 
L 190.406618 318.614579 
L 190.619673 368.275569 
L 190.681814 368.723216 
L 190.743955 368.520528 
L 191.010273 366.439035 
L 191.525155 360.700751 
L 192.368495 348.319963 
L 193.637945 330.529604 
L 194.312618 320.364997 
L 194.570059 312.737669 
L 194.738727 300.394689 
L 194.863009 270.986773 
L 194.969536 168.50199 
L 195.058309 93.300572 
L 195.12045 104.095822 
L 195.715227 323.000207 
L 195.919405 368.291059 
L 195.981545 368.723216 
L 196.043686 368.516064 
L 196.310005 366.431421 
L 196.833764 360.574727 
L 197.703736 347.762045 
L 198.955432 330.288321 
L 199.61235 320.347931 
L 199.869791 312.70065 
L 200.038459 300.293345 
L 200.162741 270.615528 
L 200.269268 167.238313 
L 200.358041 93.271166 
L 200.420182 104.347345 
L 201.023836 327.395025 
L 201.219136 368.305762 
L 201.281277 368.722691 
L 201.343418 368.511601 
L 201.609736 366.423807 
L 202.133495 360.5637 
L 202.994591 347.885444 
L 204.255164 330.277556 
L 204.912082 320.330341 
L 205.169523 312.663105 
L 205.338191 300.190425 
L 205.462473 270.236669 
L 205.569 165.966155 
L 205.657773 93.248849 
L 205.719914 104.600705 
L 206.332445 331.750985 
L 206.518868 368.320465 
L 206.581009 368.722428 
L 206.634273 368.553609 
L 206.873959 366.738079 
L 207.388841 361.125294 
L 208.187795 349.511151 
L 209.510509 330.842563 
L 210.202936 320.497322 
L 210.460377 313.018335 
L 210.629045 301.153982 
L 210.753327 273.704949 
L 210.850977 191.141168 
L 210.957505 93.233621 
L 211.019645 104.855116 
L 211.641055 336.014002 
L 211.827477 368.46618 
L 211.880741 368.721903 
L 211.934005 368.549408 
L 212.182568 366.650912 
L 212.69745 361.001108 
L 213.514159 349.088183 
L 214.810241 330.831799 
L 215.502668 320.480256 
L 215.760109 312.982366 
L 215.928777 301.057626 
L 216.053059 273.365472 
L 216.150709 189.961795 
L 216.257236 93.22732 
L 216.319377 105.109001 
L 216.949664 340.12054 
L 217.127209 368.476682 
L 217.171595 368.722428 
L 217.233736 368.545207 
L 217.4823 366.643561 
L 217.997182 360.990606 
L 218.822768 348.938793 
L 220.101095 330.936031 
L 220.8024 320.463191 
L 221.059841 312.946659 
L 221.228509 300.961533 
L 221.352791 273.024683 
L 221.450441 188.783 
L 221.556968 93.227845 
L 221.610232 102.701684 
L 222.151745 297.863186 
L 222.426941 368.486659 
L 222.471327 368.722691 
L 222.533468 368.541007 
L 222.782032 366.636209 
L 223.296914 360.980104 
L 224.1225 348.925928 
L 225.418582 330.695535 
L 226.111009 320.261028 
L 226.36845 312.513715 
L 226.537118 299.77691 
L 226.652523 272.681268 
L 226.750173 187.599505 
L 226.8567 93.233884 
L 226.909964 102.939292 
L 227.460355 301.835823 
L 227.726673 368.496373 
L 227.771059 368.723216 
L 227.8332 368.536806 
L 228.090641 366.548255 
L 228.605523 360.855393 
L 229.439986 348.640274 
L 230.718314 330.684771 
L 231.401864 320.429059 
L 231.659305 312.874458 
L 231.827973 300.768034 
L 231.952255 272.335491 
L 232.049905 186.4158 
L 232.156432 93.246749 
L 232.209695 103.176636 
L 232.768964 305.911118 
L 233.017527 368.38794 
L 233.070791 368.723216 
L 233.132932 368.532605 
L 233.390373 366.540904 
L 233.905255 360.844891 
L 234.739718 348.627671 
L 236.018045 330.674269 
L 236.701595 320.412256 
L 236.959036 312.838751 
L 237.127705 300.670891 
L 237.251986 271.986562 
L 237.349636 185.225322 
L 237.456164 93.265127 
L 237.509427 103.416344 
L 238.077573 310.088807 
L 238.317259 368.400017 
L 238.370523 368.723479 
L 238.432664 368.528404 
L 238.690105 366.533553 
L 239.204986 360.834389 
L 240.03945 348.615332 
L 241.317777 330.663767 
L 242.001327 320.395453 
L 242.258768 312.802519 
L 242.427436 300.572172 
L 242.551718 271.629495 
L 242.649368 184.016386 
L 242.755895 93.290595 
L 242.809159 103.659203 
L 243.386182 314.357863 
L 243.616991 368.412095 
L 243.670255 368.723479 
L 243.732395 368.523941 
L 243.989836 366.526201 
L 244.504718 360.823887 
L 245.348059 348.466203 
L 246.617509 330.653002 
L 247.301059 320.378387 
L 247.5585 312.766025 
L 247.727168 300.472141 
L 247.85145 271.268489 
L 247.9491 182.804273 
L 248.055627 93.321838 
L 248.108891 103.904424 
L 248.694791 318.69912 
L 248.907845 368.279245 
L 248.969986 368.723216 
L 249.032127 368.51974 
L 249.298445 366.437459 
L 249.822205 360.583129 
L 250.692177 347.772022 
L 251.943873 330.296723 
L 252.600791 320.361059 
L 252.858232 312.729268 
L 253.0269 300.371584 
L 253.151182 270.902757 
L 253.257709 168.214288 
L 253.346482 93.29322 
L 253.408623 104.153058 
L 254.0034 323.086324 
L 254.207577 368.294473 
L 254.269718 368.722953 
L 254.331859 368.515277 
L 254.598177 366.429845 
L 255.121936 360.572102 
L 255.983032 347.895421 
L 257.22585 330.516477 
L 257.900523 320.343993 
L 258.157964 312.692248 
L 258.326632 300.269978 
L 258.450914 270.529675 
L 258.557441 166.948012 
L 258.646214 93.26539 
L 258.708355 104.405368 
L 259.312009 327.481141 
L 259.507309 368.309175 
L 259.56945 368.722691 
L 259.631591 368.510551 
L 259.897909 366.421969 
L 260.421668 360.561337 
L 261.291641 347.746555 
L 262.525582 330.505712 
L 263.200255 320.326402 
L 263.457695 312.654704 
L 263.626364 300.166796 
L 263.750645 270.149503 
L 263.857173 165.675329 
L 263.945945 93.244648 
L 264.008086 104.658729 
L 264.620618 331.835788 
L 264.807041 368.323878 
L 264.869182 368.722166 
L 264.922445 368.552821 
L 265.171009 366.656688 
L 265.685891 361.009509 
L 266.511477 348.961372 
L 267.807559 330.725203 
L 268.499986 320.309074 
L 268.757427 312.617159 
L 268.926095 300.063614 
L 269.050377 269.769331 
L 269.156905 164.412124 
L 269.245677 93.231521 
L 269.298941 102.282918 
L 269.8227 290.301495 
L 270.133405 368.634999 
L 270.168914 368.721903 
L 270.222177 368.548621 
L 270.470741 366.649337 
L 270.985623 360.998745 
L 271.802332 349.085295 
L 273.098414 330.829436 
L 273.790841 320.476318 
L 274.048282 312.974227 
L 274.21695 301.035835 
L 274.341232 273.287758 
L 274.438882 189.691999 
L 274.545409 93.227058 
L 274.598673 102.51895 
L 275.131309 294.069344 
L 275.424259 368.573038 
L 275.459768 368.722428 
L 275.521909 368.54442 
L 275.770473 366.641986 
L 276.285355 360.988243 
L 277.110941 348.935905 
L 278.389268 330.933668 
L 279.090573 320.459253 
L 279.348014 312.938257 
L 279.516682 300.939479 
L 279.640964 272.946443 
L 279.738614 188.513099 
L 279.845141 93.22837 
L 279.898405 102.756032 
L 280.439918 297.939063 
L 280.715114 368.488759 
L 280.7595 368.722953 
L 280.821641 368.540219 
L 281.079082 366.554031 
L 281.593964 360.863532 
L 282.428427 348.649988 
L 283.706755 330.69291 
L 284.390305 320.442187 
L 284.647745 312.902288 
L 284.816414 300.842861 
L 284.940695 272.602503 
L 285.038345 187.329499 
L 285.144873 93.236247 
L 285.198136 102.993377 
L 285.748527 301.91275 
L 286.014845 368.498474 
L 286.059232 368.723216 
L 286.121373 368.535756 
L 286.378814 366.54668 
L 286.893695 360.85303 
L 287.728159 348.637386 
L 289.006486 330.682408 
L 289.690036 320.425384 
L 289.947477 312.866319 
L 290.116145 300.74598 
L 290.240427 272.256201 
L 290.338077 186.144902 
L 290.444605 93.250425 
L 290.497868 103.230984 
L 291.057136 305.990408 
L 291.3057 368.390828 
L 291.358964 368.723479 
L 291.421105 368.531555 
L 291.678545 366.539329 
L 292.193427 360.842528 
L 293.027891 348.624783 
L 294.315095 330.556647 
L 294.989768 320.408318 
L 295.247209 312.830349 
L 295.415877 300.648574 
L 295.540159 271.905697 
L 295.637809 184.950511 
L 295.744336 93.270378 
L 295.7976 103.47148 
L 296.365745 310.170197 
L 296.605432 368.402906 
L 296.658695 368.723479 
L 296.720836 368.527354 
L 296.978277 366.531977 
L 297.493159 360.832026 
L 298.327623 348.612444 
L 299.60595 330.661404 
L 300.2895 320.391515 
L 300.546941 312.794118 
L 300.715609 300.549331 
L 300.839891 271.547579 
L 300.937541 183.741234 
L 301.044068 93.297158 
L 301.097332 103.7146 
L 301.674355 314.440566 
L 301.905164 368.41472 
L 301.958427 368.723479 
L 302.020568 368.523153 
L 302.286886 366.443235 
L 302.810645 360.591268 
L 303.671741 347.918 
L 304.914559 330.535643 
L 305.589232 320.374449 
L 305.846673 312.757623 
L 306.015341 300.449562 
L 306.139623 271.186048 
L 306.24615 169.186194 
L 306.334923 93.319213 
L 306.397064 103.960609 
L 306.982964 318.783661 
L 307.196018 368.282658 
L 307.258159 368.723216 
L 307.3203 368.51869 
L 307.586618 366.435622 
L 308.110377 360.580503 
L 308.971473 347.905398 
L 310.214291 330.524878 
L 310.888964 320.357383 
L 311.146405 312.720866 
L 311.315073 300.348743 
L 311.439355 270.818479 
L 311.545882 167.927611 
L 311.634655 93.286394 
L 311.696795 104.210032 
L 312.291573 323.171915 
L 312.49575 368.297886 
L 312.557891 368.722953 
L 312.620032 368.514227 
L 312.88635 366.428008 
L 313.410109 360.569739 
L 314.280082 347.756269 
L 315.531777 330.283333 
L 316.188695 320.339792 
L 316.446136 312.683584 
L 316.614805 300.246611 
L 316.739086 270.444083 
L 316.845614 166.658813 
L 316.934386 93.260139 
L 316.996527 104.462867 
L 317.600182 327.566995 
L 317.795482 368.312588 
L 317.857623 368.722691 
L 317.910886 368.555972 
L 318.150573 366.742017 
L 318.665455 361.13107 
L 319.464409 349.517977 
L 320.787123 330.848602 
L 321.488427 320.322464 
L 321.745868 312.64604 
L 321.914536 300.143166 
L 322.038818 270.062599 
L 322.145345 165.385894 
L 322.234118 93.240973 
L 322.296259 104.716752 
L 322.908791 331.920329 
L 323.095214 368.327291 
L 323.157355 368.722166 
L 323.210618 368.551771 
L 323.459182 366.655113 
L 323.974064 361.006884 
L 324.790773 349.09501 
L 326.095732 330.722578 
L 326.779282 320.489446 
L 327.036723 313.002057 
L 327.205391 301.110136 
L 327.329673 273.550307 
L 327.427323 190.603466 
L 327.53385 93.229683 
L 327.595991 104.9709 
L 328.2174 336.177308 
L 328.403823 368.470906 
L 328.457086 368.721641 
L 328.51035 368.54757 
L 328.758914 366.647499 
L 329.273795 360.996382 
L 329.318182 360.421136 
L 329.335936 361.322731 
L 329.531236 365.320836 
L 329.620009 365.509084 
L 329.664395 365.451586 
L 329.815309 364.843521 
L 330.214786 362.02085 
L 332.176664 347.233796 
L 332.869091 344.005224 
L 333.428359 342.346435 
L 333.889977 341.601845 
L 334.262823 341.374477 
L 334.609036 341.411234 
L 335.061777 341.700826 
L 336.553159 342.793032 
L 337.156814 342.889913 
L 338.097805 342.779642 
L 339.580309 342.58483 
L 342.101455 342.621062 
L 345.723382 342.617124 
L 435.845455 342.619224 
L 435.845455 342.619224 
" clip-path="url(#p58f3de5970)" style="fill: none; stroke: #1f77b4; stroke-width: 1.5; stroke-linecap: square"/>
   </g>
   <g id="line2d_14">
    <path d="M 80.754545 342.688275 
L 81.251673 343.662992 
L 81.713291 344.138777 
L 82.1394 344.273567 
L 82.645405 344.18372 
L 85.219814 343.392876 
L 86.737827 343.489624 
L 88.87725 343.542867 
L 98.722145 343.522455 
L 151.772727 343.522488 
L 152.314241 299.227497 
L 152.420768 253.594474 
L 152.571682 66.96 
L 152.695964 96.685478 
L 153.574814 369.36 
L 153.583691 369.356441 
L 153.663586 369.040221 
L 154.000923 366.416436 
L 154.524682 360.573837 
L 155.3769 348.03671 
L 156.761755 328.415059 
L 157.267759 319.898354 
L 157.507445 311.942838 
L 157.667236 298.716839 
L 157.782641 268.41687 
L 157.889168 158.873584 
L 157.977941 92.170426 
L 158.031205 102.238379 
L 158.59935 309.084265 
L 158.839036 368.547647 
L 158.901177 368.929548 
L 158.954441 368.767034 
L 159.194127 367.010692 
L 159.700132 361.649133 
L 160.4547 350.8537 
L 161.946082 329.601436 
L 162.540859 320.24634 
L 162.7983 312.269692 
L 162.966968 298.96495 
L 163.082373 270.024114 
L 163.1889 165.831789 
L 163.277673 93.200614 
L 163.339814 104.628608 
L 163.952345 332.600497 
L 164.138768 368.494038 
L 164.200909 368.898108 
L 164.26305 368.696934 
L 164.529368 366.671146 
L 165.04425 361.051797 
L 165.843205 349.439267 
L 167.219182 329.925317 
L 167.840591 320.225683 
L 168.098032 312.256355 
L 168.2667 298.967452 
L 168.382105 270.085872 
L 168.488632 166.160355 
L 168.577405 93.280887 
L 168.639545 104.641326 
L 169.252077 332.622638 
L 169.4385 368.492022 
L 169.500641 368.895799 
L 169.562782 368.694547 
L 169.8291 366.668205 
L 170.343982 361.047631 
L 171.142936 349.434266 
L 172.518914 329.921686 
L 173.140323 320.221862 
L 173.397764 312.250257 
L 173.566432 298.953027 
L 173.681836 270.040612 
L 173.788364 166.018912 
L 173.877136 93.284074 
L 173.939277 104.675538 
L 174.551809 332.672157 
L 174.738232 368.493727 
L 174.800373 368.895594 
L 174.862514 368.693811 
L 175.128832 366.667022 
L 175.643714 361.045948 
L 176.451545 349.295353 
L 177.818645 329.919985 
L 178.440055 320.219247 
L 178.697495 312.24467 
L 178.866164 298.937365 
L 178.981568 269.98759 
L 179.088095 165.843571 
L 179.176868 93.281834 
L 179.239009 104.711392 
L 179.851541 332.72377 
L 180.037964 368.4957 
L 180.100105 368.895539 
L 180.162245 368.693192 
L 180.428564 366.665963 
L 180.943445 361.04444 
L 181.751277 349.29353 
L 183.118377 329.918419 
L 183.739786 320.216713 
L 183.997227 312.239108 
L 184.165895 298.921581 
L 184.2813 269.933889 
L 184.387827 165.665489 
L 184.4766 93.27933 
L 184.538741 104.747501 
L 185.151273 332.775763 
L 185.337695 368.497695 
L 185.399836 368.895493 
L 185.461977 368.692577 
L 185.728295 366.664906 
L 186.243177 361.042936 
L 187.051009 349.291712 
L 188.418109 329.916855 
L 189.039518 320.214171 
L 189.296959 312.233519 
L 189.465627 298.905701 
L 189.581032 269.87984 
L 189.687559 165.486316 
L 189.776332 93.276924 
L 189.838473 104.783884 
L 190.459882 336.699203 
L 190.646305 368.630817 
L 190.699568 368.895445 
L 190.761709 368.691957 
L 191.028027 366.663841 
L 191.542909 361.041421 
L 192.350741 349.28988 
L 193.717841 329.915279 
L 194.33925 320.211611 
L 194.596691 312.227889 
L 194.765359 298.889704 
L 194.880764 269.825382 
L 194.987291 165.305889 
L 195.076064 93.274641 
L 195.138205 104.820599 
L 195.759614 336.750522 
L 195.946036 368.632345 
L 195.9993 368.895395 
L 196.061441 368.691332 
L 196.327759 366.662768 
L 196.842641 361.039894 
L 197.650473 349.288035 
L 199.017573 329.913691 
L 199.638982 320.209026 
L 199.896423 312.222203 
L 200.065091 298.873547 
L 200.180495 269.770365 
L 200.287023 165.123676 
L 200.375795 93.272466 
L 200.437936 104.857745 
L 201.059345 336.802405 
L 201.245768 368.633886 
L 201.299032 368.895345 
L 201.361173 368.690701 
L 201.627491 366.661684 
L 202.142373 361.03835 
L 202.950205 349.286169 
L 204.317305 329.912087 
L 204.938714 320.206414 
L 205.196155 312.216456 
L 205.364823 298.857214 
L 205.480227 269.714702 
L 205.586755 164.939683 
L 205.675527 93.270414 
L 205.737668 104.895248 
L 206.359077 336.854683 
L 206.5455 368.635436 
L 206.598764 368.895293 
L 206.660905 368.690064 
L 206.927223 366.660591 
L 207.442105 361.036796 
L 208.249936 349.28429 
L 209.617036 329.91047 
L 210.238445 320.20378 
L 210.495886 312.210661 
L 210.664555 298.840738 
L 210.779959 269.658542 
L 210.886486 164.754327 
L 210.975259 93.268539 
L 211.0374 104.933091 
L 211.658809 336.907382 
L 211.845232 368.636992 
L 211.898495 368.895238 
L 211.960636 368.689422 
L 212.226955 366.65949 
L 212.741836 361.035228 
L 213.549668 349.282396 
L 214.916768 329.908841 
L 215.538177 320.201126 
L 215.795618 312.204822 
L 215.964286 298.824136 
L 216.079691 269.601911 
L 216.186218 164.568191 
L 216.274991 93.266794 
L 216.328255 102.325743 
L 216.852014 291.070162 
L 217.153841 368.734672 
L 217.198227 368.895181 
L 217.251491 368.733612 
L 217.491177 366.971769 
L 217.997182 361.593631 
L 218.75175 350.78554 
L 220.234255 329.671328 
L 220.837909 320.198464 
L 221.09535 312.198961 
L 221.264018 298.807466 
L 221.379423 269.544919 
L 221.48595 164.380833 
L 221.574723 93.26515 
L 221.627986 102.361329 
L 222.151745 291.118082 
L 222.453573 368.735816 
L 222.497959 368.89512 
L 222.551223 368.73301 
L 222.790909 366.970692 
L 223.296914 361.592084 
L 224.051482 350.78363 
L 225.533986 329.669678 
L 226.137641 320.19578 
L 226.395082 312.19305 
L 226.56375 298.79065 
L 226.679155 269.487416 
L 226.785682 164.192147 
L 226.874455 93.263727 
L 226.927718 102.397218 
L 227.451477 291.166454 
L 227.753305 368.736963 
L 227.797691 368.895055 
L 227.850955 368.732399 
L 228.090641 366.969601 
L 228.596645 361.590518 
L 229.351214 350.781697 
L 230.833718 329.668009 
L 231.437373 320.193063 
L 231.694814 312.187068 
L 231.863482 298.773629 
L 231.978886 269.429206 
L 232.085414 164.001853 
L 232.174186 93.262605 
L 232.22745 102.433441 
L 232.760086 294.684706 
L 233.053036 368.738111 
L 233.097423 368.894986 
L 233.150686 368.731782 
L 233.390373 366.968501 
L 233.896377 361.588938 
L 234.650945 350.779747 
L 236.124573 329.784328 
L 236.737105 320.190329 
L 236.994545 312.18105 
L 237.163214 298.756507 
L 237.278618 269.370647 
L 237.385145 163.811088 
L 237.473918 93.261773 
L 237.527182 102.46983 
L 238.059818 294.734723 
L 238.352768 368.739258 
L 238.397155 368.894914 
L 238.450418 368.731162 
L 238.690105 366.967397 
L 239.196109 361.587352 
L 239.950677 350.777789 
L 241.424305 329.782642 
L 242.036836 320.187587 
L 242.294277 312.175019 
L 242.462945 298.739347 
L 242.57835 269.311955 
L 242.684877 163.620493 
L 242.77365 93.261158 
L 242.826914 102.50619 
L 243.35955 294.784604 
L 243.6525 368.740399 
L 243.696886 368.894841 
L 243.75015 368.730543 
L 243.989836 366.966296 
L 244.495841 361.585771 
L 245.250409 350.775838 
L 246.724036 329.780961 
L 247.336568 320.184857 
L 247.594009 312.169011 
L 247.762677 298.722253 
L 247.878082 269.253477 
L 247.984609 163.430805 
L 248.073382 93.260684 
L 248.126645 102.542453 
L 248.659282 294.8343 
L 248.952232 368.741532 
L 248.996618 368.894767 
L 249.049882 368.729926 
L 249.289568 366.965198 
L 249.795573 361.584195 
L 250.550141 350.773893 
L 252.023768 329.779287 
L 252.6363 320.182136 
L 252.893741 312.163026 
L 253.062409 298.705223 
L 253.177814 269.195215 
L 253.284341 163.241953 
L 253.373114 93.260366 
L 253.426377 102.578652 
L 253.967891 298.444581 
L 254.243086 368.649427 
L 254.29635 368.894692 
L 254.349614 368.72931 
L 254.5893 366.964103 
L 255.095305 361.582622 
L 255.849873 350.771953 
L 257.3235 329.777618 
L 257.936032 320.179426 
L 258.193473 312.157065 
L 258.362141 298.688258 
L 258.477545 269.137147 
L 258.584073 163.053673 
L 258.672845 93.260121 
L 258.726109 102.614752 
L 259.267623 298.495208 
L 259.542818 368.65095 
L 259.596082 368.894615 
L 259.649345 368.728696 
L 259.897909 366.885548 
L 260.403914 361.470039 
L 261.167359 350.496588 
L 262.623232 329.775956 
L 263.235764 320.176726 
L 263.493205 312.151125 
L 263.661873 298.671349 
L 263.777277 269.079204 
L 263.883805 162.865972 
L 263.972577 93.259916 
L 264.025841 102.650711 
L 264.567355 298.545647 
L 264.84255 368.652459 
L 264.895814 368.894538 
L 264.949077 368.728086 
L 265.197641 366.884457 
L 265.703645 361.468479 
L 266.467091 350.49467 
L 267.922964 329.774305 
L 268.535495 320.17404 
L 268.792936 312.14521 
L 268.961605 298.654504 
L 269.077009 269.021463 
L 269.183536 162.679369 
L 269.272309 93.259836 
L 269.325573 102.686518 
L 269.867086 298.595818 
L 270.142282 368.653937 
L 270.195545 368.894455 
L 270.248809 368.727479 
L 270.497373 366.883375 
L 271.003377 361.466931 
L 271.766823 350.492768 
L 273.222695 329.772667 
L 273.835227 320.171371 
L 274.092668 312.139327 
L 274.261336 298.637742 
L 274.376741 268.963914 
L 274.483268 162.493368 
L 274.572041 93.259847 
L 274.625305 102.72224 
L 275.166818 298.645918 
L 275.442014 368.6554 
L 275.495277 368.894368 
L 275.548541 368.726872 
L 275.797105 366.882295 
L 276.303109 361.465386 
L 277.066555 350.49087 
L 278.522427 329.771031 
L 279.134959 320.168703 
L 279.3924 312.133444 
L 279.561068 298.620972 
L 279.676473 268.906273 
L 279.783 162.307633 
L 279.871773 93.259921 
L 279.925036 102.757908 
L 280.46655 298.695911 
L 280.741745 368.656856 
L 280.795009 368.894282 
L 280.848273 368.726268 
L 281.096836 366.881221 
L 281.602841 361.463849 
L 282.366286 350.488982 
L 283.822159 329.769403 
L 284.434691 320.166045 
L 284.692132 312.127578 
L 284.8608 298.604246 
L 284.976205 268.848733 
L 285.082732 162.12226 
L 285.171505 93.260102 
L 285.224768 102.793556 
L 285.775159 302.402569 
L 286.041477 368.658301 
L 286.094741 368.894194 
L 286.148005 368.725665 
L 286.396568 366.88015 
L 286.902573 361.462317 
L 287.666018 350.487099 
L 289.121891 329.767779 
L 289.734423 320.163391 
L 289.991864 312.121718 
L 290.160532 298.587528 
L 290.275936 268.791142 
L 290.382464 161.937208 
L 290.471236 93.260419 
L 290.5245 102.829177 
L 291.074891 302.453628 
L 291.341209 368.65974 
L 291.385595 368.895074 
L 291.447736 368.725065 
L 291.6963 366.879082 
L 292.202305 361.46079 
L 292.96575 350.485223 
L 294.421623 329.766159 
L 295.034155 320.160744 
L 295.291595 312.115873 
L 295.460264 298.570852 
L 295.575668 268.733687 
L 295.682195 161.752838 
L 295.770968 93.260888 
L 295.824232 102.864756 
L 296.374623 302.504605 
L 296.640941 368.661172 
L 296.685327 368.895135 
L 296.747468 368.724464 
L 296.996032 366.878016 
L 297.502036 361.459266 
L 298.265482 350.483351 
L 299.721355 329.764542 
L 300.333886 320.158103 
L 300.591327 312.110042 
L 300.759995 298.554211 
L 300.8754 268.676346 
L 300.981927 161.568963 
L 301.0707 93.261549 
L 301.123964 102.900304 
L 301.674355 302.555545 
L 301.940673 368.662596 
L 301.985059 368.895193 
L 302.0472 368.723862 
L 302.295764 366.876948 
L 302.801768 361.457739 
L 303.565214 350.481476 
L 305.021086 329.762923 
L 305.633618 320.15546 
L 305.891059 312.104208 
L 306.059727 298.537565 
L 306.175132 268.618979 
L 306.281659 161.385153 
L 306.370432 93.262473 
L 306.423695 102.935854 
L 306.974086 302.606417 
L 307.240405 368.664013 
L 307.284791 368.895248 
L 307.346932 368.723259 
L 307.595495 366.875881 
L 308.1015 361.456212 
L 308.864945 350.4796 
L 310.320818 329.761305 
L 310.93335 320.152822 
L 311.190791 312.098386 
L 311.359459 298.520952 
L 311.474864 268.561601 
L 311.581391 161.201819 
L 311.670164 93.263493 
L 311.723427 102.971275 
L 312.273818 302.657041 
L 312.540136 368.665422 
L 312.584523 368.895304 
L 312.646664 368.72266 
L 312.895227 366.87482 
L 313.401232 361.454696 
L 314.164677 350.477738 
L 315.62055 329.759698 
L 316.233082 320.150201 
L 316.490523 312.092601 
L 316.659191 298.50444 
L 316.774595 268.504482 
L 316.881123 161.020305 
L 316.969895 93.264733 
L 317.023159 103.006382 
L 317.582427 306.458833 
L 317.830991 368.547377 
L 317.884255 368.895356 
L 317.946395 368.722067 
L 318.194959 366.873771 
L 318.700964 361.453196 
L 319.464409 350.475896 
L 320.920282 329.758108 
L 321.532814 320.147607 
L 321.790255 312.086875 
L 321.958923 298.488096 
L 322.074327 268.447938 
L 322.180855 160.84164 
L 322.269627 93.266137 
L 322.322891 103.041008 
L 322.882159 306.509294 
L 323.130723 368.54919 
L 323.183986 368.895406 
L 323.246127 368.721482 
L 323.494691 366.872738 
L 324.000695 361.451718 
L 324.764141 350.474081 
L 326.220014 329.756542 
L 326.832545 320.145052 
L 327.089986 312.081233 
L 327.258655 298.471985 
L 327.374059 268.392191 
L 327.480586 160.665695 
L 327.569359 93.267654 
L 327.622623 103.075132 
L 328.181891 306.558995 
L 328.430455 368.55097 
L 328.483718 368.895454 
L 328.545859 368.720905 
L 328.794423 366.871719 
L 329.300427 361.450261 
L 329.318182 361.22648 
L 329.335936 362.135101 
L 329.531236 366.203595 
L 329.628886 366.433666 
L 329.673273 366.384737 
L 329.824186 365.834603 
L 330.205909 363.355663 
L 332.522877 346.962782 
L 333.179795 344.296979 
L 333.712432 342.953236 
L 334.138541 342.400942 
L 334.511386 342.247246 
L 334.884232 342.338205 
L 335.425745 342.737397 
L 336.535405 343.573326 
L 337.183445 343.760406 
L 337.973523 343.741289 
L 340.920777 343.482357 
L 348.945832 343.522714 
L 435.845455 343.522488 
L 435.845455 343.522488 
" clip-path="url(#p58f3de5970)" style="fill: none; stroke: #ff0000; stroke-width: 1.5; stroke-linecap: square"/>
   </g>
   <g id="patch_3">
    <path d="M 63 384.48 
L 63 51.84 
" style="fill: none; stroke: #000000; stroke-width: 0.8; stroke-linejoin: miter; stroke-linecap: square"/>
   </g>
   <g id="patch_4">
    <path d="M 453.6 384.48 
L 453.6 51.84 
" style="fill: none; stroke: #000000; stroke-width: 0.8; stroke-linejoin: miter; stroke-linecap: square"/>
   </g>
   <g id="patch_5">
    <path d="M 63 384.48 
L 453.6 384.48 
" style="fill: none; stroke: #000000; stroke-width: 0.8; stroke-linejoin: miter; stroke-linecap: square"/>
   </g>
   <g id="patch_6">
    <path d="M 63 51.84 
L 453.6 51.84 
" style="fill: none; stroke: #000000; stroke-width: 0.8; stroke-linejoin: miter; stroke-linecap: square"/>
   </g>
   <g id="legend_1">
    <g id="patch_7">
     <path d="M 383.460938 89.19625 
L 446.6 89.19625 
Q 448.6 89.19625 448.6 87.19625 
L 448.6 58.84 
Q 448.6 56.84 446.6 56.84 
L 383.460938 56.84 
Q 381.460938 56.84 381.460938 58.84 
L 381.460938 87.19625 
Q 381.460938 89.19625 383.460938 89.19625 
z
" style="fill: #ffffff; opacity: 0.8; stroke: #cccccc; stroke-linejoin: miter"/>
    </g>
    <g id="line2d_15">
     <path d="M 385.460938 64.938437 
L 395.460938 64.938437 
L 405.460938 64.938437 
" style="fill: none; stroke: #1f77b4; stroke-width: 1.5; stroke-linecap: square"/>
    </g>
    <g id="text_15">
     <!-- target -->
     <g transform="translate(413.460938 68.438437)scale(0.1 -0.1)">
      <defs>
       <path id="DejaVuSans-72" d="M 2631 2963 
Q 2534 3019 2420 3045 
Q 2306 3072 2169 3072 
Q 1681 3072 1420 2755 
Q 1159 2438 1159 1844 
L 1159 0 
L 581 0 
L 581 3500 
L 1159 3500 
L 1159 2956 
Q 1341 3275 1631 3429 
Q 1922 3584 2338 3584 
Q 2397 3584 2469 3576 
Q 2541 3569 2628 3553 
L 2631 2963 
z
" transform="scale(0.015625)"/>
      </defs>
      <use xlink:href="#DejaVuSans-74"/>
      <use xlink:href="#DejaVuSans-61" x="39.208984"/>
      <use xlink:href="#DejaVuSans-72" x="100.488281"/>
      <use xlink:href="#DejaVuSans-67" x="139.851562"/>
      <use xlink:href="#DejaVuSans-65" x="203.328125"/>
      <use xlink:href="#DejaVuSans-74" x="264.851562"/>
     </g>
    </g>
    <g id="line2d_16">
     <path d="M 385.460938 79.616562 
L 395.460938 79.616562 
L 405.460938 79.616562 
" style="fill: none; stroke: #ff0000; stroke-width: 1.5; stroke-linecap: square"/>
    </g>
    <g id="text_16">
     <!-- model -->
     <g transform="translate(413.460938 83.116562)scale(0.1 -0.1)">
      <defs>
       <path id="DejaVuSans-64" d="M 2906 2969 
L 2906 4863 
L 3481 4863 
L 3481 0 
L 2906 0 
L 2906 525 
Q 2725 213 2448 61 
Q 2172 -91 1784 -91 
Q 1150 -91 751 415 
Q 353 922 353 1747 
Q 353 2572 751 3078 
Q 1150 3584 1784 3584 
Q 2172 3584 2448 3432 
Q 2725 3281 2906 2969 
z
M 947 1747 
Q 947 1113 1208 752 
Q 1469 391 1925 391 
Q 2381 391 2643 752 
Q 2906 1113 2906 1747 
Q 2906 2381 2643 2742 
Q 2381 3103 1925 3103 
Q 1469 3103 1208 2742 
Q 947 2381 947 1747 
z
" transform="scale(0.015625)"/>
      </defs>
      <use xlink:href="#DejaVuSans-6d"/>
      <use xlink:href="#DejaVuSans-6f" x="97.412109"/>
      <use xlink:href="#DejaVuSans-64" x="158.59375"/>
      <use xlink:href="#DejaVuSans-65" x="222.070312"/>
      <use xlink:href="#DejaVuSans-6c" x="283.59375"/>
     </g>
    </g>
   </g>
  </g>
 </g>
 <defs>
  <clipPath id="p58f3de5970">
   <rect x="63" y="51.84" width="390.6" height="332.64"/>
  </clipPath>
 </defs>
</svg>
