<?xml version="1.0" encoding="utf-8" standalone="no"?>
<!DOCTYPE svg PUBLIC "-//W3C//DTD SVG 1.1//EN"
  "http://www.w3.org/Graphics/SVG/1.1/DTD/svg11.dtd">
<svg xmlns:xlink="http://www.w3.org/1999/xlink" width="504pt" height="432pt" viewBox="0 0 504 432" xmlns="http://www.w3.org/2000/svg" version="1.1">
 <metadata>
  <rdf:RDF xmlns:dc="http://purl.org/dc/elements/1.1/" xmlns:cc="http://creativecommons.org/ns#" xmlns:rdf="http://www.w3.org/1999/02/22-rdf-syntax-ns#">
   <cc:Work>
    <dc:type rdf:resource="http://purl.org/dc/dcmitype/StillImage"/>
    <dc:date>2022-02-01T16:03:33.518015</dc:date>
    <dc:format>image/svg+xml</dc:format>
    <dc:creator>
     <cc:Agent>
      <dc:title>Matplotlib v3.5.1, https://matplotlib.org/</dc:title>
     </cc:Agent>
    </dc:creator>
   </cc:Work>
  </rdf:RDF>
 </metadata>
 <defs>
  <style type="text/css">*{stroke-linejoin: round; stroke-linecap: butt}</style>
 </defs>
 <g id="figure_1">
  <g id="patch_1">
   <path d="M 0 432 
L 504 432 
L 504 0 
L 0 0 
z
" style="fill: #ffffff"/>
  </g>
  <g id="axes_1">
   <g id="patch_2">
    <path d="M 63 384.48 
L 453.6 384.48 
L 453.6 51.84 
L 63 51.84 
z
" style="fill: #ffffff"/>
   </g>
   <g id="matplotlib.axis_1">
    <g id="xtick_1">
     <g id="line2d_1">
      <defs>
       <path id="md06ec34efe" d="M 0 0 
L 0 3.5 
" style="stroke: #000000; stroke-width: 0.8"/>
      </defs>
      <g>
       <use xlink:href="#md06ec34efe" x="80.754545" y="384.48" style="stroke: #000000; stroke-width: 0.8"/>
      </g>
     </g>
     <g id="text_1">
      <!-- 0 -->
      <g transform="translate(77.573295 399.078438)scale(0.1 -0.1)">
       <defs>
        <path id="DejaVuSans-30" d="M 2034 4250 
Q 1547 4250 1301 3770 
Q 1056 3291 1056 2328 
Q 1056 1369 1301 889 
Q 1547 409 2034 409 
Q 2525 409 2770 889 
Q 3016 1369 3016 2328 
Q 3016 3291 2770 3770 
Q 2525 4250 2034 4250 
z
M 2034 4750 
Q 2819 4750 3233 4129 
Q 3647 3509 3647 2328 
Q 3647 1150 3233 529 
Q 2819 -91 2034 -91 
Q 1250 -91 836 529 
Q 422 1150 422 2328 
Q 422 3509 836 4129 
Q 1250 4750 2034 4750 
z
" transform="scale(0.015625)"/>
       </defs>
       <use xlink:href="#DejaVuSans-30"/>
      </g>
     </g>
    </g>
    <g id="xtick_2">
     <g id="line2d_2">
      <g>
       <use xlink:href="#md06ec34efe" x="151.772727" y="384.48" style="stroke: #000000; stroke-width: 0.8"/>
      </g>
     </g>
     <g id="text_2">
      <!-- 200 -->
      <g transform="translate(142.228977 399.078438)scale(0.1 -0.1)">
       <defs>
        <path id="DejaVuSans-32" d="M 1228 531 
L 3431 531 
L 3431 0 
L 469 0 
L 469 531 
Q 828 903 1448 1529 
Q 2069 2156 2228 2338 
Q 2531 2678 2651 2914 
Q 2772 3150 2772 3378 
Q 2772 3750 2511 3984 
Q 2250 4219 1831 4219 
Q 1534 4219 1204 4116 
Q 875 4013 500 3803 
L 500 4441 
Q 881 4594 1212 4672 
Q 1544 4750 1819 4750 
Q 2544 4750 2975 4387 
Q 3406 4025 3406 3419 
Q 3406 3131 3298 2873 
Q 3191 2616 2906 2266 
Q 2828 2175 2409 1742 
Q 1991 1309 1228 531 
z
" transform="scale(0.015625)"/>
       </defs>
       <use xlink:href="#DejaVuSans-32"/>
       <use xlink:href="#DejaVuSans-30" x="63.623047"/>
       <use xlink:href="#DejaVuSans-30" x="127.246094"/>
      </g>
     </g>
    </g>
    <g id="xtick_3">
     <g id="line2d_3">
      <g>
       <use xlink:href="#md06ec34efe" x="222.790909" y="384.48" style="stroke: #000000; stroke-width: 0.8"/>
      </g>
     </g>
     <g id="text_3">
      <!-- 400 -->
      <g transform="translate(213.247159 399.078438)scale(0.1 -0.1)">
       <defs>
        <path id="DejaVuSans-34" d="M 2419 4116 
L 825 1625 
L 2419 1625 
L 2419 4116 
z
M 2253 4666 
L 3047 4666 
L 3047 1625 
L 3713 1625 
L 3713 1100 
L 3047 1100 
L 3047 0 
L 2419 0 
L 2419 1100 
L 313 1100 
L 313 1709 
L 2253 4666 
z
" transform="scale(0.015625)"/>
       </defs>
       <use xlink:href="#DejaVuSans-34"/>
       <use xlink:href="#DejaVuSans-30" x="63.623047"/>
       <use xlink:href="#DejaVuSans-30" x="127.246094"/>
      </g>
     </g>
    </g>
    <g id="xtick_4">
     <g id="line2d_4">
      <g>
       <use xlink:href="#md06ec34efe" x="293.809091" y="384.48" style="stroke: #000000; stroke-width: 0.8"/>
      </g>
     </g>
     <g id="text_4">
      <!-- 600 -->
      <g transform="translate(284.265341 399.078438)scale(0.1 -0.1)">
       <defs>
        <path id="DejaVuSans-36" d="M 2113 2584 
Q 1688 2584 1439 2293 
Q 1191 2003 1191 1497 
Q 1191 994 1439 701 
Q 1688 409 2113 409 
Q 2538 409 2786 701 
Q 3034 994 3034 1497 
Q 3034 2003 2786 2293 
Q 2538 2584 2113 2584 
z
M 3366 4563 
L 3366 3988 
Q 3128 4100 2886 4159 
Q 2644 4219 2406 4219 
Q 1781 4219 1451 3797 
Q 1122 3375 1075 2522 
Q 1259 2794 1537 2939 
Q 1816 3084 2150 3084 
Q 2853 3084 3261 2657 
Q 3669 2231 3669 1497 
Q 3669 778 3244 343 
Q 2819 -91 2113 -91 
Q 1303 -91 875 529 
Q 447 1150 447 2328 
Q 447 3434 972 4092 
Q 1497 4750 2381 4750 
Q 2619 4750 2861 4703 
Q 3103 4656 3366 4563 
z
" transform="scale(0.015625)"/>
       </defs>
       <use xlink:href="#DejaVuSans-36"/>
       <use xlink:href="#DejaVuSans-30" x="63.623047"/>
       <use xlink:href="#DejaVuSans-30" x="127.246094"/>
      </g>
     </g>
    </g>
    <g id="xtick_5">
     <g id="line2d_5">
      <g>
       <use xlink:href="#md06ec34efe" x="364.827273" y="384.48" style="stroke: #000000; stroke-width: 0.8"/>
      </g>
     </g>
     <g id="text_5">
      <!-- 800 -->
      <g transform="translate(355.283523 399.078438)scale(0.1 -0.1)">
       <defs>
        <path id="DejaVuSans-38" d="M 2034 2216 
Q 1584 2216 1326 1975 
Q 1069 1734 1069 1313 
Q 1069 891 1326 650 
Q 1584 409 2034 409 
Q 2484 409 2743 651 
Q 3003 894 3003 1313 
Q 3003 1734 2745 1975 
Q 2488 2216 2034 2216 
z
M 1403 2484 
Q 997 2584 770 2862 
Q 544 3141 544 3541 
Q 544 4100 942 4425 
Q 1341 4750 2034 4750 
Q 2731 4750 3128 4425 
Q 3525 4100 3525 3541 
Q 3525 3141 3298 2862 
Q 3072 2584 2669 2484 
Q 3125 2378 3379 2068 
Q 3634 1759 3634 1313 
Q 3634 634 3220 271 
Q 2806 -91 2034 -91 
Q 1263 -91 848 271 
Q 434 634 434 1313 
Q 434 1759 690 2068 
Q 947 2378 1403 2484 
z
M 1172 3481 
Q 1172 3119 1398 2916 
Q 1625 2713 2034 2713 
Q 2441 2713 2670 2916 
Q 2900 3119 2900 3481 
Q 2900 3844 2670 4047 
Q 2441 4250 2034 4250 
Q 1625 4250 1398 4047 
Q 1172 3844 1172 3481 
z
" transform="scale(0.015625)"/>
       </defs>
       <use xlink:href="#DejaVuSans-38"/>
       <use xlink:href="#DejaVuSans-30" x="63.623047"/>
       <use xlink:href="#DejaVuSans-30" x="127.246094"/>
      </g>
     </g>
    </g>
    <g id="text_6">
     <!-- time [ms] -->
     <g transform="translate(234.038281 412.756563)scale(0.1 -0.1)">
      <defs>
       <path id="DejaVuSans-74" d="M 1172 4494 
L 1172 3500 
L 2356 3500 
L 2356 3053 
L 1172 3053 
L 1172 1153 
Q 1172 725 1289 603 
Q 1406 481 1766 481 
L 2356 481 
L 2356 0 
L 1766 0 
Q 1100 0 847 248 
Q 594 497 594 1153 
L 594 3053 
L 172 3053 
L 172 3500 
L 594 3500 
L 594 4494 
L 1172 4494 
z
" transform="scale(0.015625)"/>
       <path id="DejaVuSans-69" d="M 603 3500 
L 1178 3500 
L 1178 0 
L 603 0 
L 603 3500 
z
M 603 4863 
L 1178 4863 
L 1178 4134 
L 603 4134 
L 603 4863 
z
" transform="scale(0.015625)"/>
       <path id="DejaVuSans-6d" d="M 3328 2828 
Q 3544 3216 3844 3400 
Q 4144 3584 4550 3584 
Q 5097 3584 5394 3201 
Q 5691 2819 5691 2113 
L 5691 0 
L 5113 0 
L 5113 2094 
Q 5113 2597 4934 2840 
Q 4756 3084 4391 3084 
Q 3944 3084 3684 2787 
Q 3425 2491 3425 1978 
L 3425 0 
L 2847 0 
L 2847 2094 
Q 2847 2600 2669 2842 
Q 2491 3084 2119 3084 
Q 1678 3084 1418 2786 
Q 1159 2488 1159 1978 
L 1159 0 
L 581 0 
L 581 3500 
L 1159 3500 
L 1159 2956 
Q 1356 3278 1631 3431 
Q 1906 3584 2284 3584 
Q 2666 3584 2933 3390 
Q 3200 3197 3328 2828 
z
" transform="scale(0.015625)"/>
       <path id="DejaVuSans-65" d="M 3597 1894 
L 3597 1613 
L 953 1613 
Q 991 1019 1311 708 
Q 1631 397 2203 397 
Q 2534 397 2845 478 
Q 3156 559 3463 722 
L 3463 178 
Q 3153 47 2828 -22 
Q 2503 -91 2169 -91 
Q 1331 -91 842 396 
Q 353 884 353 1716 
Q 353 2575 817 3079 
Q 1281 3584 2069 3584 
Q 2775 3584 3186 3129 
Q 3597 2675 3597 1894 
z
M 3022 2063 
Q 3016 2534 2758 2815 
Q 2500 3097 2075 3097 
Q 1594 3097 1305 2825 
Q 1016 2553 972 2059 
L 3022 2063 
z
" transform="scale(0.015625)"/>
       <path id="DejaVuSans-20" transform="scale(0.015625)"/>
       <path id="DejaVuSans-5b" d="M 550 4863 
L 1875 4863 
L 1875 4416 
L 1125 4416 
L 1125 -397 
L 1875 -397 
L 1875 -844 
L 550 -844 
L 550 4863 
z
" transform="scale(0.015625)"/>
       <path id="DejaVuSans-73" d="M 2834 3397 
L 2834 2853 
Q 2591 2978 2328 3040 
Q 2066 3103 1784 3103 
Q 1356 3103 1142 2972 
Q 928 2841 928 2578 
Q 928 2378 1081 2264 
Q 1234 2150 1697 2047 
L 1894 2003 
Q 2506 1872 2764 1633 
Q 3022 1394 3022 966 
Q 3022 478 2636 193 
Q 2250 -91 1575 -91 
Q 1294 -91 989 -36 
Q 684 19 347 128 
L 347 722 
Q 666 556 975 473 
Q 1284 391 1588 391 
Q 1994 391 2212 530 
Q 2431 669 2431 922 
Q 2431 1156 2273 1281 
Q 2116 1406 1581 1522 
L 1381 1569 
Q 847 1681 609 1914 
Q 372 2147 372 2553 
Q 372 3047 722 3315 
Q 1072 3584 1716 3584 
Q 2034 3584 2315 3537 
Q 2597 3491 2834 3397 
z
" transform="scale(0.015625)"/>
       <path id="DejaVuSans-5d" d="M 1947 4863 
L 1947 -844 
L 622 -844 
L 622 -397 
L 1369 -397 
L 1369 4416 
L 622 4416 
L 622 4863 
L 1947 4863 
z
" transform="scale(0.015625)"/>
      </defs>
      <use xlink:href="#DejaVuSans-74"/>
      <use xlink:href="#DejaVuSans-69" x="39.208984"/>
      <use xlink:href="#DejaVuSans-6d" x="66.992188"/>
      <use xlink:href="#DejaVuSans-65" x="164.404297"/>
      <use xlink:href="#DejaVuSans-20" x="225.927734"/>
      <use xlink:href="#DejaVuSans-5b" x="257.714844"/>
      <use xlink:href="#DejaVuSans-6d" x="296.728516"/>
      <use xlink:href="#DejaVuSans-73" x="394.140625"/>
      <use xlink:href="#DejaVuSans-5d" x="446.240234"/>
     </g>
    </g>
   </g>
   <g id="matplotlib.axis_2">
    <g id="ytick_1">
     <g id="line2d_6">
      <defs>
       <path id="mc2e94de565" d="M 0 0 
L -3.5 0 
" style="stroke: #000000; stroke-width: 0.8"/>
      </defs>
      <g>
       <use xlink:href="#mc2e94de565" x="63" y="380.287024" style="stroke: #000000; stroke-width: 0.8"/>
      </g>
     </g>
     <g id="text_7">
      <!-- −80 -->
      <g transform="translate(34.895313 384.086243)scale(0.1 -0.1)">
       <defs>
        <path id="DejaVuSans-2212" d="M 678 2272 
L 4684 2272 
L 4684 1741 
L 678 1741 
L 678 2272 
z
" transform="scale(0.015625)"/>
       </defs>
       <use xlink:href="#DejaVuSans-2212"/>
       <use xlink:href="#DejaVuSans-38" x="83.789062"/>
       <use xlink:href="#DejaVuSans-30" x="147.412109"/>
      </g>
     </g>
    </g>
    <g id="ytick_2">
     <g id="line2d_7">
      <g>
       <use xlink:href="#mc2e94de565" x="63" y="329.405334" style="stroke: #000000; stroke-width: 0.8"/>
      </g>
     </g>
     <g id="text_8">
      <!-- −60 -->
      <g transform="translate(34.895313 333.204552)scale(0.1 -0.1)">
       <use xlink:href="#DejaVuSans-2212"/>
       <use xlink:href="#DejaVuSans-36" x="83.789062"/>
       <use xlink:href="#DejaVuSans-30" x="147.412109"/>
      </g>
     </g>
    </g>
    <g id="ytick_3">
     <g id="line2d_8">
      <g>
       <use xlink:href="#mc2e94de565" x="63" y="278.523643" style="stroke: #000000; stroke-width: 0.8"/>
      </g>
     </g>
     <g id="text_9">
      <!-- −40 -->
      <g transform="translate(34.895313 282.322862)scale(0.1 -0.1)">
       <use xlink:href="#DejaVuSans-2212"/>
       <use xlink:href="#DejaVuSans-34" x="83.789062"/>
       <use xlink:href="#DejaVuSans-30" x="147.412109"/>
      </g>
     </g>
    </g>
    <g id="ytick_4">
     <g id="line2d_9">
      <g>
       <use xlink:href="#mc2e94de565" x="63" y="227.641952" style="stroke: #000000; stroke-width: 0.8"/>
      </g>
     </g>
     <g id="text_10">
      <!-- −20 -->
      <g transform="translate(34.895313 231.441171)scale(0.1 -0.1)">
       <use xlink:href="#DejaVuSans-2212"/>
       <use xlink:href="#DejaVuSans-32" x="83.789062"/>
       <use xlink:href="#DejaVuSans-30" x="147.412109"/>
      </g>
     </g>
    </g>
    <g id="ytick_5">
     <g id="line2d_10">
      <g>
       <use xlink:href="#mc2e94de565" x="63" y="176.760261" style="stroke: #000000; stroke-width: 0.8"/>
      </g>
     </g>
     <g id="text_11">
      <!-- 0 -->
      <g transform="translate(49.6375 180.55948)scale(0.1 -0.1)">
       <use xlink:href="#DejaVuSans-30"/>
      </g>
     </g>
    </g>
    <g id="ytick_6">
     <g id="line2d_11">
      <g>
       <use xlink:href="#mc2e94de565" x="63" y="125.878571" style="stroke: #000000; stroke-width: 0.8"/>
      </g>
     </g>
     <g id="text_12">
      <!-- 20 -->
      <g transform="translate(43.275 129.67779)scale(0.1 -0.1)">
       <use xlink:href="#DejaVuSans-32"/>
       <use xlink:href="#DejaVuSans-30" x="63.623047"/>
      </g>
     </g>
    </g>
    <g id="ytick_7">
     <g id="line2d_12">
      <g>
       <use xlink:href="#mc2e94de565" x="63" y="74.99688" style="stroke: #000000; stroke-width: 0.8"/>
      </g>
     </g>
     <g id="text_13">
      <!-- 40 -->
      <g transform="translate(43.275 78.796099)scale(0.1 -0.1)">
       <use xlink:href="#DejaVuSans-34"/>
       <use xlink:href="#DejaVuSans-30" x="63.623047"/>
      </g>
     </g>
    </g>
    <g id="text_14">
     <!-- voltage [mV] -->
     <g transform="translate(28.815625 250.624062)rotate(-90)scale(0.1 -0.1)">
      <defs>
       <path id="DejaVuSans-76" d="M 191 3500 
L 800 3500 
L 1894 563 
L 2988 3500 
L 3597 3500 
L 2284 0 
L 1503 0 
L 191 3500 
z
" transform="scale(0.015625)"/>
       <path id="DejaVuSans-6f" d="M 1959 3097 
Q 1497 3097 1228 2736 
Q 959 2375 959 1747 
Q 959 1119 1226 758 
Q 1494 397 1959 397 
Q 2419 397 2687 759 
Q 2956 1122 2956 1747 
Q 2956 2369 2687 2733 
Q 2419 3097 1959 3097 
z
M 1959 3584 
Q 2709 3584 3137 3096 
Q 3566 2609 3566 1747 
Q 3566 888 3137 398 
Q 2709 -91 1959 -91 
Q 1206 -91 779 398 
Q 353 888 353 1747 
Q 353 2609 779 3096 
Q 1206 3584 1959 3584 
z
" transform="scale(0.015625)"/>
       <path id="DejaVuSans-6c" d="M 603 4863 
L 1178 4863 
L 1178 0 
L 603 0 
L 603 4863 
z
" transform="scale(0.015625)"/>
       <path id="DejaVuSans-61" d="M 2194 1759 
Q 1497 1759 1228 1600 
Q 959 1441 959 1056 
Q 959 750 1161 570 
Q 1363 391 1709 391 
Q 2188 391 2477 730 
Q 2766 1069 2766 1631 
L 2766 1759 
L 2194 1759 
z
M 3341 1997 
L 3341 0 
L 2766 0 
L 2766 531 
Q 2569 213 2275 61 
Q 1981 -91 1556 -91 
Q 1019 -91 701 211 
Q 384 513 384 1019 
Q 384 1609 779 1909 
Q 1175 2209 1959 2209 
L 2766 2209 
L 2766 2266 
Q 2766 2663 2505 2880 
Q 2244 3097 1772 3097 
Q 1472 3097 1187 3025 
Q 903 2953 641 2809 
L 641 3341 
Q 956 3463 1253 3523 
Q 1550 3584 1831 3584 
Q 2591 3584 2966 3190 
Q 3341 2797 3341 1997 
z
" transform="scale(0.015625)"/>
       <path id="DejaVuSans-67" d="M 2906 1791 
Q 2906 2416 2648 2759 
Q 2391 3103 1925 3103 
Q 1463 3103 1205 2759 
Q 947 2416 947 1791 
Q 947 1169 1205 825 
Q 1463 481 1925 481 
Q 2391 481 2648 825 
Q 2906 1169 2906 1791 
z
M 3481 434 
Q 3481 -459 3084 -895 
Q 2688 -1331 1869 -1331 
Q 1566 -1331 1297 -1286 
Q 1028 -1241 775 -1147 
L 775 -588 
Q 1028 -725 1275 -790 
Q 1522 -856 1778 -856 
Q 2344 -856 2625 -561 
Q 2906 -266 2906 331 
L 2906 616 
Q 2728 306 2450 153 
Q 2172 0 1784 0 
Q 1141 0 747 490 
Q 353 981 353 1791 
Q 353 2603 747 3093 
Q 1141 3584 1784 3584 
Q 2172 3584 2450 3431 
Q 2728 3278 2906 2969 
L 2906 3500 
L 3481 3500 
L 3481 434 
z
" transform="scale(0.015625)"/>
       <path id="DejaVuSans-56" d="M 1831 0 
L 50 4666 
L 709 4666 
L 2188 738 
L 3669 4666 
L 4325 4666 
L 2547 0 
L 1831 0 
z
" transform="scale(0.015625)"/>
      </defs>
      <use xlink:href="#DejaVuSans-76"/>
      <use xlink:href="#DejaVuSans-6f" x="59.179688"/>
      <use xlink:href="#DejaVuSans-6c" x="120.361328"/>
      <use xlink:href="#DejaVuSans-74" x="148.144531"/>
      <use xlink:href="#DejaVuSans-61" x="187.353516"/>
      <use xlink:href="#DejaVuSans-67" x="248.632812"/>
      <use xlink:href="#DejaVuSans-65" x="312.109375"/>
      <use xlink:href="#DejaVuSans-20" x="373.632812"/>
      <use xlink:href="#DejaVuSans-5b" x="405.419922"/>
      <use xlink:href="#DejaVuSans-6d" x="444.433594"/>
      <use xlink:href="#DejaVuSans-56" x="541.845703"/>
      <use xlink:href="#DejaVuSans-5d" x="610.253906"/>
     </g>
    </g>
   </g>
   <g id="line2d_13">
    <path d="M 80.754545 342.125756 
L 81.979609 341.992955 
L 151.772727 342.058847 
L 152.314241 298.906594 
L 152.420768 251.769032 
L 152.562805 75.821672 
L 152.678209 100.262692 
L 153.565936 367.797605 
L 153.610323 367.700166 
L 153.8145 366.363759 
L 154.293873 361.756421 
L 154.959668 352.915982 
L 157.42755 315.222317 
L 157.613973 304.437688 
L 157.738255 283.148534 
L 157.835905 222.51842 
L 157.969064 99.432558 
L 158.031205 112.179948 
L 158.883423 367.386226 
L 158.945564 367.208395 
L 159.203005 365.290155 
L 159.717886 359.791879 
L 160.534595 348.232068 
L 161.8218 330.660076 
L 162.514227 320.612723 
L 162.771668 313.323666 
L 162.940336 301.701525 
L 163.064618 274.59634 
L 163.162268 192.795957 
L 163.268795 100.324514 
L 163.322059 109.544785 
L 163.863573 298.636921 
L 164.147645 367.215009 
L 164.183155 367.355443 
L 164.245295 367.179646 
L 164.493859 365.334676 
L 165.008741 359.855481 
L 165.834327 348.176353 
L 167.112655 330.732328 
L 167.813959 320.578378 
L 168.0714 313.279908 
L 168.240068 301.619606 
L 168.36435 274.357705 
L 168.462 192.07331 
L 168.568527 100.399055 
L 168.621791 109.760014 
L 169.172182 302.46704 
L 169.4385 367.131818 
L 169.482886 367.353407 
L 169.545027 367.173795 
L 169.802468 365.247669 
L 170.31735 359.732093 
L 171.151814 347.896249 
L 172.430141 330.497 
L 173.113691 320.560569 
L 173.371132 313.244545 
L 173.5398 301.526746 
L 173.664082 274.030026 
L 173.761732 190.957449 
L 173.868259 100.415337 
L 173.921523 109.988728 
L 174.480791 306.412915 
L 174.729355 367.025729 
L 174.782618 367.353407 
L 174.844759 367.169725 
L 175.1022 365.240545 
L 175.617082 359.721663 
L 176.451545 347.883783 
L 177.729873 330.48657 
L 178.413423 320.544287 
L 178.670864 313.209692 
L 178.839532 301.432615 
L 178.963814 273.693698 
L 179.061464 189.808922 
L 179.167991 100.432128 
L 179.221255 110.219985 
L 179.7894 310.458773 
L 180.029086 367.037687 
L 180.08235 367.353662 
L 180.144491 367.1654 
L 180.401932 365.233422 
L 180.916814 359.711486 
L 181.751277 347.871826 
L 183.029605 330.476393 
L 183.713155 320.527751 
L 183.970595 313.174583 
L 184.139264 301.337467 
L 184.263545 273.349484 
L 184.361195 188.640195 
L 184.467723 100.45528 
L 184.520986 110.454804 
L 185.098009 314.593673 
L 185.328818 367.049389 
L 185.382082 367.353662 
L 185.444223 367.161329 
L 185.701664 365.226044 
L 186.216545 359.70131 
L 187.051009 347.859614 
L 188.329336 330.466217 
L 189.012886 320.511469 
L 189.270327 313.13922 
L 189.438995 301.240791 
L 189.563277 273.000181 
L 189.660927 187.466812 
L 189.767455 100.484028 
L 189.820718 110.691913 
L 190.406618 318.798536 
L 190.619673 366.919641 
L 190.681814 367.353407 
L 190.743955 367.157004 
L 191.010273 365.140054 
L 191.525155 359.579703 
L 192.368495 347.582818 
L 193.637945 330.344101 
L 194.312618 320.494678 
L 194.570059 313.103858 
L 194.738727 301.143607 
L 194.863009 272.647571 
L 194.969536 173.34063 
L 195.058309 100.471053 
L 195.12045 110.931565 
L 195.715227 323.048175 
L 195.919405 366.934651 
L 195.981545 367.353407 
L 196.043686 367.152679 
L 196.310005 365.132676 
L 196.833764 359.457587 
L 197.703736 347.0422 
L 198.955432 330.110299 
L 199.61235 320.478141 
L 199.869791 313.067986 
L 200.038459 301.045406 
L 200.162741 272.287837 
L 200.269268 172.116137 
L 200.358041 100.442559 
L 200.420182 111.175289 
L 201.023836 327.306718 
L 201.219136 366.948898 
L 201.281277 367.352899 
L 201.343418 367.148354 
L 201.609736 365.125298 
L 202.133495 359.446902 
L 202.994591 347.161772 
L 204.255164 330.099869 
L 204.912082 320.461096 
L 205.169523 313.031606 
L 205.338191 300.945678 
L 205.462473 271.920726 
L 205.569 170.883426 
L 205.657773 100.420934 
L 205.719914 111.420793 
L 206.332445 331.527609 
L 206.518868 366.963145 
L 206.581009 367.352644 
L 206.634273 367.18906 
L 206.873959 365.429825 
L 207.388841 359.991081 
L 208.187795 348.737069 
L 209.510509 330.647356 
L 210.202936 320.622899 
L 210.460377 313.37582 
L 210.629045 301.879357 
L 210.753327 275.281462 
L 210.850977 195.277813 
L 210.957505 100.406179 
L 211.019645 111.667315 
L 211.641055 335.658439 
L 211.827477 367.104342 
L 211.880741 367.352135 
L 211.934005 367.184989 
L 212.182568 365.345362 
L 212.69745 359.870746 
L 213.514159 348.327217 
L 214.810241 330.636925 
L 215.502668 320.606363 
L 215.760109 313.340966 
L 215.928777 301.785989 
L 216.053059 274.952511 
L 216.150709 194.13501 
L 216.257236 100.400073 
L 216.319377 111.913328 
L 216.949664 339.637642 
L 217.127209 367.114518 
L 217.171595 367.352644 
L 217.233736 367.180918 
L 217.4823 365.338238 
L 217.997182 359.86057 
L 218.822768 348.182458 
L 220.101095 330.737925 
L 220.8024 320.589826 
L 221.059841 313.306367 
L 221.228509 301.692875 
L 221.352791 274.622289 
L 221.450441 192.992767 
L 221.556968 100.400582 
L 221.610232 109.580656 
L 222.151745 298.690601 
L 222.426941 367.124185 
L 222.471327 367.352899 
L 222.533468 367.176848 
L 222.782032 365.331115 
L 223.296914 359.850393 
L 224.1225 348.169992 
L 225.418582 330.504887 
L 226.111009 320.393932 
L 226.36845 312.886847 
L 226.537118 300.544984 
L 226.652523 274.289523 
L 226.750173 191.84597 
L 226.8567 100.406433 
L 226.909964 109.810896 
L 227.460355 302.540055 
L 227.726673 367.133599 
L 227.771059 367.353407 
L 227.8332 367.172777 
L 228.090641 365.245888 
L 228.605523 359.729549 
L 229.439986 347.893196 
L 230.718314 330.494456 
L 231.401864 320.556753 
L 231.659305 313.236404 
L 231.827973 301.505376 
L 231.952255 273.954467 
L 232.049905 190.69897 
L 232.156432 100.418899 
L 232.209695 110.040881 
L 232.768964 306.488983 
L 233.017527 367.028528 
L 233.070791 367.353407 
L 233.132932 367.168707 
L 233.390373 365.238764 
L 233.905255 359.719373 
L 234.739718 347.880984 
L 236.018045 330.48428 
L 236.701595 320.540471 
L 236.959036 313.201805 
L 237.127705 301.411245 
L 237.251986 273.616358 
L 237.349636 189.545406 
L 237.456164 100.436708 
L 237.509427 110.273156 
L 238.077573 310.537131 
L 238.317259 367.040231 
L 238.370523 367.353662 
L 238.432664 367.164636 
L 238.690105 365.231641 
L 239.204986 359.709197 
L 240.03945 347.869027 
L 241.317777 330.474104 
L 242.001327 320.524189 
L 242.258768 313.166696 
L 242.427436 301.315587 
L 242.551718 273.270363 
L 242.649368 188.373957 
L 242.755895 100.461385 
L 242.809159 110.508484 
L 243.386182 314.673812 
L 243.616991 367.051933 
L 243.670255 367.353662 
L 243.732395 367.160311 
L 243.989836 365.224517 
L 244.504718 359.69902 
L 245.348059 347.724523 
L 246.617509 330.463673 
L 247.301059 320.507652 
L 247.5585 313.131334 
L 247.727168 301.218658 
L 247.85145 272.920551 
L 247.9491 187.199429 
L 248.055627 100.49166 
L 248.108891 110.746102 
L 248.694791 318.880456 
L 248.907845 366.923203 
L 248.969986 367.353407 
L 249.032127 367.156241 
L 249.298445 365.138527 
L 249.822205 359.465728 
L 250.692177 347.051867 
L 251.943873 330.118441 
L 252.600791 320.490861 
L 252.858232 313.095717 
L 253.0269 301.121219 
L 253.151182 272.56616 
L 253.257709 173.061849 
L 253.346482 100.463929 
L 253.408623 110.987026 
L 254.0034 323.131621 
L 254.207577 366.937958 
L 254.269718 367.353153 
L 254.331859 367.151916 
L 254.598177 365.13115 
L 255.121936 359.455043 
L 255.983032 347.171439 
L 257.22585 330.33138 
L 257.900523 320.474325 
L 258.157964 313.059845 
L 258.326632 301.022763 
L 258.450914 272.204646 
L 258.557441 171.834837 
L 258.646214 100.436962 
L 258.708355 111.231513 
L 259.312009 327.390164 
L 259.507309 366.952205 
L 259.56945 367.352899 
L 259.631591 367.147337 
L 259.897909 365.123517 
L 260.421668 359.444612 
L 261.291641 347.02719 
L 262.525582 330.32095 
L 263.200255 320.45728 
L 263.457695 313.023465 
L 263.626364 300.922781 
L 263.750645 271.836262 
L 263.857173 170.601618 
L 263.945945 100.416864 
L 264.008086 111.477017 
L 264.620618 331.609783 
L 264.807041 366.966452 
L 264.869182 367.35239 
L 264.922445 367.188296 
L 265.171009 365.350958 
L 265.685891 359.878887 
L 266.511477 348.204338 
L 267.807559 330.533635 
L 268.499986 320.440489 
L 268.757427 312.987084 
L 268.926095 300.822798 
L 269.050377 271.467879 
L 269.156905 169.377583 
L 269.245677 100.404143 
L 269.298941 109.174875 
L 269.8227 291.363383 
L 270.133405 367.267926 
L 270.168914 367.352135 
L 270.222177 367.184226 
L 270.470741 365.343835 
L 270.985623 359.868456 
L 271.802332 348.324418 
L 273.098414 330.634635 
L 273.790841 320.602547 
L 274.048282 313.33308 
L 274.21695 301.764873 
L 274.341232 274.877207 
L 274.438882 193.87358 
L 274.545409 100.399819 
L 274.598673 109.403588 
L 275.131309 295.014399 
L 275.424259 367.207886 
L 275.459768 367.352644 
L 275.521909 367.180155 
L 275.770473 365.336712 
L 276.285355 359.85828 
L 277.110941 348.17966 
L 278.389268 330.735635 
L 279.090573 320.58601 
L 279.348014 313.298226 
L 279.516682 301.671505 
L 279.640964 274.546476 
L 279.738614 192.731236 
L 279.845141 100.401091 
L 279.898405 109.633319 
L 280.439918 298.764125 
L 280.715114 367.126221 
L 280.7595 367.353153 
L 280.821641 367.176085 
L 281.079082 365.251485 
L 281.593964 359.737436 
L 282.428427 347.902609 
L 283.706755 330.502343 
L 284.390305 320.569474 
L 284.647745 313.263372 
L 284.816414 301.577883 
L 284.940695 274.213201 
L 285.038345 191.584337 
L 285.144873 100.408723 
L 285.198136 109.863304 
L 285.748527 302.614597 
L 286.014845 367.135634 
L 286.059232 367.353407 
L 286.121373 367.17176 
L 286.378814 365.244361 
L 286.902573 359.616083 
L 287.754791 347.493775 
L 289.006486 330.492167 
L 289.690036 320.553192 
L 289.947477 313.228518 
L 290.116145 301.484006 
L 290.240427 273.877636 
L 290.338077 190.436471 
L 290.444605 100.422461 
L 290.497868 110.093544 
L 291.057136 306.565815 
L 291.3057 367.031326 
L 291.358964 367.353662 
L 291.421105 367.167689 
L 291.678545 365.237238 
L 292.193427 359.717083 
L 293.027891 347.878186 
L 294.315095 330.370305 
L 294.989768 320.536655 
L 295.247209 313.193664 
L 295.415877 301.38962 
L 295.540159 273.538 
L 295.637809 189.279116 
L 295.744336 100.441796 
L 295.7976 110.326582 
L 296.365745 310.615997 
L 296.605432 367.043029 
L 296.658695 367.353662 
L 296.720836 367.163619 
L 296.978277 365.230114 
L 297.493159 359.706907 
L 298.327623 347.866229 
L 299.60595 330.471814 
L 300.2895 320.520373 
L 300.546941 313.158555 
L 300.715609 301.293454 
L 300.839891 273.190987 
L 300.937541 188.107336 
L 301.044068 100.467746 
L 301.097332 110.562164 
L 301.674355 314.753951 
L 301.905164 367.054477 
L 301.958427 367.353662 
L 302.020568 367.159548 
L 302.286886 365.144124 
L 302.810645 359.473614 
L 303.671741 347.193318 
L 304.914559 330.349952 
L 305.589232 320.503836 
L 305.846673 313.123193 
L 306.015341 301.196779 
L 306.139623 272.840667 
L 306.24615 174.003619 
L 306.334923 100.489116 
L 306.397064 110.800545 
L 306.982964 318.962375 
L 307.196018 366.92651 
L 307.258159 367.353407 
L 307.3203 367.155223 
L 307.586618 365.136747 
L 308.110377 359.463184 
L 308.971473 347.181107 
L 310.214291 330.339522 
L 310.888964 320.4873 
L 311.146405 313.087575 
L 311.315073 301.099086 
L 311.439355 272.484495 
L 311.545882 172.784061 
L 311.634655 100.457315 
L 311.696795 111.042233 
L 312.291573 323.214558 
L 312.49575 366.941266 
L 312.557891 367.353153 
L 312.620032 367.150898 
L 312.88635 365.129369 
L 313.410109 359.452753 
L 314.280082 347.036603 
L 315.531777 330.105466 
L 316.188695 320.470254 
L 316.446136 313.051449 
L 316.614805 301.000121 
L 316.739086 272.121709 
L 316.845614 171.554607 
L 316.934386 100.431874 
L 316.996527 111.287228 
L 317.600182 327.473356 
L 317.795482 366.955513 
L 317.857623 367.352899 
L 317.910886 367.191349 
L 318.15945 365.356555 
L 318.674332 359.886774 
L 319.491041 348.346297 
L 320.796 330.541522 
L 321.488427 320.453463 
L 321.745868 313.015069 
L 321.914536 300.899884 
L 322.038818 271.752053 
L 322.145345 170.321158 
L 322.234118 100.413302 
L 322.296259 111.533241 
L 322.908791 331.691702 
L 323.095214 366.969759 
L 323.157355 367.35239 
L 323.210618 367.187279 
L 323.459182 365.349432 
L 323.974064 359.876343 
L 324.790773 348.333831 
L 326.095732 330.531091 
L 326.779282 320.615267 
L 327.036723 313.360047 
L 327.205391 301.83687 
L 327.329673 275.131615 
L 327.427323 194.756785 
L 327.53385 100.402363 
L 327.595991 111.779509 
L 328.2174 335.816681 
L 328.403823 367.108921 
L 328.457086 367.351881 
L 328.51035 367.183208 
L 328.758914 365.342054 
L 329.273795 359.866167 
L 329.318182 359.308758 
L 329.335936 360.182396 
L 329.531236 364.056528 
L 329.620009 364.238939 
L 329.664395 364.183224 
L 329.815309 363.594014 
L 330.214786 360.858868 
L 332.176664 346.53033 
L 332.869091 343.401869 
L 333.428359 341.794517 
L 333.889977 341.073014 
L 334.262823 340.852696 
L 334.617914 340.891621 
L 335.106164 341.205052 
L 336.553159 342.227265 
L 337.165691 342.321142 
L 338.115559 342.210983 
L 339.917645 342.013308 
L 435.845455 342.058847 
L 435.845455 342.058847 
" clip-path="url(#p9161c11c2b)" style="fill: none; stroke: #1f77b4; stroke-width: 1.5; stroke-linecap: square"/>
   </g>
   <g id="line2d_14">
    <path d="M 80.754545 342.125756 
L 81.304936 350.525738 
L 81.739923 354.242619 
L 82.121645 355.855354 
L 82.458982 356.458791 
L 82.743055 356.579737 
L 83.036005 356.457837 
L 83.453236 356.010687 
L 84.234436 354.776859 
L 85.645923 352.595804 
L 86.418245 351.815556 
L 87.110673 351.416099 
L 87.811977 351.267022 
L 88.673073 351.327155 
L 92.641214 351.888989 
L 112.677218 351.807683 
L 151.772727 351.807655 
L 152.34975 305.055052 
L 152.456277 266.075854 
L 152.553927 107.414016 
L 152.607191 66.96 
L 152.678209 77.218544 
L 152.953405 172.375833 
L 153.601445 369.206953 
L 153.645832 369.36 
L 153.707973 369.228784 
L 153.974291 367.856732 
L 154.435909 364.321419 
L 154.995177 358.120187 
L 155.953923 344.431837 
L 157.516323 319.858221 
L 157.738255 310.828783 
L 157.889168 294.07845 
L 157.995695 252.47007 
L 158.155486 96.029297 
L 158.262014 123.816773 
L 159.016582 368.608527 
L 159.078723 368.963557 
L 159.140864 368.833109 
L 159.389427 367.477037 
L 159.851045 363.756856 
L 160.428068 357.115755 
L 161.635377 339.731102 
L 162.878195 320.490244 
L 163.117882 311.737917 
L 163.268795 297.397247 
L 163.3842 260.187733 
L 163.552868 97.201509 
L 163.686027 133.987191 
L 164.387332 368.021647 
L 164.476105 368.935948 
L 164.529368 368.8359 
L 164.7513 367.669762 
L 165.212918 364.044893 
L 165.781064 357.626372 
L 166.846336 342.336339 
L 168.311086 319.488955 
L 168.533018 310.514743 
L 168.683932 293.8458 
L 168.790459 252.722508 
L 168.95025 97.238787 
L 169.056777 124.739034 
L 169.811345 368.615814 
L 169.873486 368.934253 
L 169.935627 368.793903 
L 170.193068 367.365396 
L 170.663564 363.50483 
L 171.249464 356.655474 
L 172.7586 335.02819 
L 173.610818 321.79509 
L 173.868259 313.759079 
L 174.036927 300.546626 
L 174.152332 271.740544 
L 174.249982 179.386991 
L 174.347632 97.265417 
L 174.400895 107.412156 
L 174.977918 317.850363 
L 175.19985 368.524615 
L 175.270868 368.933581 
L 175.324132 368.816503 
L 175.563818 367.521999 
L 176.025436 363.82406 
L 176.602459 357.207715 
L 177.774259 340.340105 
L 179.070341 320.276797 
L 179.30115 311.791925 
L 179.452064 297.592324 
L 179.567468 261.010186 
L 179.736136 97.336794 
L 179.869295 133.532402 
L 180.579477 368.22581 
L 180.659373 368.933685 
L 180.712636 368.837776 
L 180.934568 367.674726 
L 181.396186 364.052378 
L 181.964332 357.63667 
L 183.020727 342.476874 
L 184.494355 319.514591 
L 184.716286 310.576832 
L 184.8672 294.038265 
L 184.973727 253.444177 
L 185.133518 97.254572 
L 185.248923 127.712904 
L 185.985736 368.464145 
L 186.056755 368.934145 
L 186.110018 368.828995 
L 186.340827 367.601977 
L 186.802445 363.94339 
L 187.379468 357.371298 
L 188.506882 341.15577 
L 189.873982 319.915143 
L 190.104791 310.963088 
L 190.255705 295.201546 
L 190.362232 257.701605 
L 190.5309 97.249635 
L 190.646305 128.716628 
L 191.374241 368.344054 
L 191.454136 368.93385 
L 191.5074 368.819924 
L 191.747086 367.528292 
L 192.208705 363.833432 
L 192.785727 357.220537 
L 193.957527 340.354067 
L 195.253609 320.301335 
L 195.484418 311.847162 
L 195.644209 296.296193 
L 195.750736 261.599754 
L 195.928282 97.31585 
L 196.052564 133.150479 
L 196.762745 368.201798 
L 196.842641 368.933328 
L 196.895905 368.841 
L 197.108959 367.736363 
L 197.5617 364.227936 
L 198.120968 357.99291 
L 199.115223 343.786084 
L 200.695377 319.051865 
L 200.908432 310.069015 
L 201.059345 292.460446 
L 201.165873 247.484479 
L 201.316786 97.276032 
L 201.414436 120.734293 
L 202.195636 368.781053 
L 202.240023 368.934075 
L 202.302164 368.801076 
L 202.550727 367.43654 
L 203.021223 363.610796 
L 203.607123 356.799467 
L 204.9831 337.023357 
L 205.995109 321.443251 
L 206.243673 313.428197 
L 206.412341 299.603283 
L 206.527745 268.434719 
L 206.634273 155.338781 
L 206.714168 97.243379 
L 206.776309 109.520934 
L 207.637405 368.934031 
L 207.690668 368.823336 
L 207.921477 367.591468 
L 208.383095 363.927682 
L 208.960118 357.349723 
L 210.087532 341.132036 
L 211.445755 320.101496 
L 211.676564 311.394413 
L 211.827477 296.463417 
L 211.942882 256.617497 
L 212.11155 97.282832 
L 212.226955 129.345854 
L 212.954891 368.377704 
L 213.034786 368.933317 
L 213.08805 368.814127 
L 213.327736 367.517678 
L 213.789355 363.817629 
L 214.366377 357.198919 
L 215.547055 340.203679 
L 216.834259 320.260031 
L 217.065068 311.7542 
L 217.215982 297.486402 
L 217.331386 260.604761 
L 217.500055 97.309034 
L 217.633214 133.792851 
L 218.343395 368.241832 
L 218.423291 368.933867 
L 218.476555 368.835555 
L 218.698486 367.670505 
L 219.160105 364.046042 
L 219.72825 357.62796 
L 220.793523 342.33824 
L 222.258273 319.496442 
L 222.480205 310.534645 
L 222.631118 293.909828 
L 222.737645 252.966051 
L 222.897436 97.246414 
L 223.003964 124.617599 
L 223.758532 368.61136 
L 223.820673 368.934141 
L 223.882814 368.794982 
L 224.140255 367.367379 
L 224.61075 363.50778 
L 225.19665 356.659476 
L 226.696909 335.154917 
L 227.558005 321.801869 
L 227.815445 313.773784 
L 227.984114 300.588169 
L 228.099518 271.883309 
L 228.197168 179.862527 
L 228.294818 97.259497 
L 228.348082 107.319096 
L 228.925105 317.709367 
L 229.147036 368.519588 
L 229.218055 368.933674 
L 229.271318 368.817601 
L 229.511005 367.524014 
L 229.972623 363.827061 
L 230.549645 357.21182 
L 231.721445 340.344574 
L 233.017527 320.28465 
L 233.248336 311.809608 
L 233.408127 296.182084 
L 233.514655 261.19947 
L 233.6922 97.343015 
L 233.816482 133.41024 
L 234.526664 368.218197 
L 234.606559 368.933583 
L 234.659823 368.838812 
L 234.881755 367.676705 
L 235.343373 364.055349 
L 235.911518 357.640755 
L 236.967914 342.481449 
L 238.441541 319.52308 
L 238.663473 310.596547 
L 238.814386 294.09823 
L 238.920914 253.667191 
L 239.080705 97.26021 
L 239.196109 127.593387 
L 239.932923 368.458599 
L 240.003941 368.934139 
L 240.057205 368.830066 
L 240.288014 367.603983 
L 240.749632 363.946389 
L 241.326655 357.375419 
L 242.454068 341.160307 
L 243.821168 319.92335 
L 244.051977 310.98226 
L 244.202891 295.258554 
L 244.309418 257.907106 
L 244.478086 97.246597 
L 244.602368 132.009009 
L 245.31255 368.126115 
L 245.401323 368.933914 
L 245.445709 368.850419 
L 245.649886 367.809375 
L 246.102627 364.337457 
L 246.661895 358.144237 
L 247.629518 344.349842 
L 249.254059 318.883153 
L 249.467114 309.672406 
L 249.60915 293.06453 
L 249.715677 249.792419 
L 249.875468 97.304414 
L 249.973118 122.907865 
L 250.736564 368.665038 
L 250.798705 368.933019 
L 250.851968 368.811741 
L 251.091655 367.513359 
L 251.553273 363.811199 
L 252.130295 357.190128 
L 253.310973 340.194119 
L 254.598177 320.24322 
L 254.828986 311.716328 
L 254.9799 297.379877 
L 255.095305 260.194393 
L 255.263973 97.285562 
L 255.397132 134.052445 
L 256.098436 368.025109 
L 256.187209 368.934013 
L 256.240473 368.833346 
L 256.462405 367.666327 
L 256.924023 364.039773 
L 257.492168 357.619344 
L 258.557441 342.328603 
L 260.022191 319.478353 
L 260.244123 310.492456 
L 260.395036 293.780843 
L 260.501564 252.485178 
L 260.661355 97.24336 
L 260.767882 124.866627 
L 261.52245 368.620165 
L 261.584591 368.93408 
L 261.646732 368.792488 
L 261.904173 367.36297 
L 262.374668 363.501225 
L 262.960568 356.650586 
L 264.469705 335.023154 
L 265.321923 321.787243 
L 265.579364 313.742374 
L 265.748032 300.499826 
L 265.863436 271.580196 
L 265.961086 178.855505 
L 266.058736 97.274247 
L 266.112 107.517259 
L 266.6979 322.014591 
L 266.910955 368.53019 
L 266.981973 368.933441 
L 267.035236 368.81524 
L 267.274923 367.519702 
L 267.736541 363.820641 
L 268.313564 357.203038 
L 269.494241 340.208159 
L 270.781445 320.267895 
L 271.012255 311.771906 
L 271.163168 297.536154 
L 271.278573 260.795782 
L 271.447241 97.321684 
L 271.5804 133.670767 
L 272.290582 368.234366 
L 272.370477 368.933782 
L 272.423741 368.83659 
L 272.645673 367.672473 
L 273.107291 364.048996 
L 273.675436 357.632021 
L 274.740709 342.342783 
L 276.205459 319.504917 
L 276.427391 310.554355 
L 276.578305 293.96986 
L 276.684832 253.189597 
L 276.844623 97.249523 
L 276.95115 124.501462 
L 277.705718 368.607176 
L 277.767859 368.934146 
L 277.83 368.796136 
L 278.087441 367.36943 
L 278.557936 363.51083 
L 279.143836 356.663613 
L 280.644095 335.159205 
L 281.514068 321.61245 
L 281.771509 313.362846 
L 281.940177 299.413467 
L 282.055582 267.755087 
L 282.162109 153.334828 
L 282.242005 97.254325 
L 282.295268 107.227335 
L 282.872291 317.569997 
L 283.094223 368.514582 
L 283.165241 368.933764 
L 283.218505 368.81869 
L 283.458191 367.526014 
L 283.919809 363.83004 
L 284.496832 357.215895 
L 285.668632 340.349011 
L 286.964714 320.292442 
L 287.195523 311.827146 
L 287.355314 296.235434 
L 287.461841 261.38679 
L 287.639386 97.329811 
L 287.763668 133.289137 
L 288.47385 368.210583 
L 288.553745 368.933468 
L 288.607009 368.839832 
L 288.820064 367.73414 
L 289.272805 364.224609 
L 289.832073 357.988322 
L 290.826327 343.780849 
L 292.406482 319.041791 
L 292.619536 310.045567 
L 292.77045 292.386298 
L 292.876977 247.198238 
L 293.027891 97.266866 
L 293.125541 120.863826 
L 293.906741 368.783886 
L 293.951127 368.934122 
L 294.013268 368.799778 
L 294.261832 367.434229 
L 294.732327 363.607348 
L 295.318227 356.794773 
L 296.694205 337.01843 
L 297.706214 321.43522 
L 297.954777 313.41091 
L 298.123445 299.553105 
L 298.23885 268.25521 
L 298.345377 154.803385 
L 298.425273 97.24451 
L 298.487414 109.632737 
L 299.348509 368.933974 
L 299.401773 368.8221 
L 299.632582 367.589192 
L 300.0942 363.924281 
L 300.671223 357.345054 
L 301.807514 340.999291 
L 303.156859 320.092394 
L 303.387668 311.373496 
L 303.538582 296.40313 
L 303.645109 261.972941 
L 303.822655 97.293859 
L 303.946936 132.906785 
L 304.657118 368.186114 
L 304.745891 368.933158 
L 304.790277 368.843036 
L 305.003332 367.740268 
L 305.456073 364.233781 
L 306.015341 358.00097 
L 307.009595 343.795283 
L 308.58975 319.069531 
L 308.802805 310.110109 
L 308.953718 292.590284 
L 309.060245 247.984423 
L 309.211159 97.295902 
L 309.317686 123.769923 
L 310.072255 368.579913 
L 310.134395 368.933952 
L 310.196536 368.803337 
L 310.4451 367.440589 
L 310.915595 363.616838 
L 311.501495 356.807694 
L 312.868595 337.155744 
L 313.898359 321.255069 
L 314.146923 313.019193 
L 314.306714 299.690586 
L 314.422118 268.745708 
L 314.528645 156.275256 
L 314.608541 97.244158 
L 314.670682 109.326003 
L 315.531777 368.93412 
L 315.585041 368.825499 
L 315.81585 367.595456 
L 316.277468 363.933641 
L 316.854491 357.357908 
L 317.981905 341.141037 
L 319.349005 319.888499 
L 319.579814 310.900639 
L 319.730727 295.015565 
L 319.837255 257.030038 
L 320.005923 97.266686 
L 320.121327 129.107432 
L 320.849264 368.365141 
L 320.929159 368.933558 
L 320.982423 368.816343 
L 321.222109 367.521712 
L 321.683727 363.823633 
L 322.26075 357.207131 
L 323.43255 340.33947 
L 324.728632 320.275698 
L 324.959441 311.789464 
L 325.110355 297.58543 
L 325.225759 260.983911 
L 325.394427 97.334871 
L 325.527586 133.549395 
L 326.237768 368.226864 
L 326.317664 368.933697 
L 326.370927 368.83763 
L 326.592859 367.674449 
L 327.054477 364.051962 
L 327.622623 357.636098 
L 328.679018 342.476233 
L 329.318182 333.487413 
L 329.335936 334.423356 
L 329.770923 351.080017 
L 330.126014 357.410377 
L 330.454473 359.820887 
L 330.738545 360.567525 
L 330.960477 360.666403 
L 331.182409 360.499658 
L 331.528623 359.909273 
L 332.167786 358.294725 
L 334.040891 353.402571 
L 334.804336 352.073669 
L 335.452377 351.359925 
L 336.038277 351.025503 
L 336.633055 350.938764 
L 337.369868 351.071584 
L 340.610073 351.919365 
L 342.234614 351.909772 
L 346.992832 351.793556 
L 365.741632 351.807648 
L 435.845455 351.807655 
L 435.845455 351.807655 
" clip-path="url(#p9161c11c2b)" style="fill: none; stroke: #ff0000; stroke-width: 1.5; stroke-linecap: square"/>
   </g>
   <g id="patch_3">
    <path d="M 63 384.48 
L 63 51.84 
" style="fill: none; stroke: #000000; stroke-width: 0.8; stroke-linejoin: miter; stroke-linecap: square"/>
   </g>
   <g id="patch_4">
    <path d="M 453.6 384.48 
L 453.6 51.84 
" style="fill: none; stroke: #000000; stroke-width: 0.8; stroke-linejoin: miter; stroke-linecap: square"/>
   </g>
   <g id="patch_5">
    <path d="M 63 384.48 
L 453.6 384.48 
" style="fill: none; stroke: #000000; stroke-width: 0.8; stroke-linejoin: miter; stroke-linecap: square"/>
   </g>
   <g id="patch_6">
    <path d="M 63 51.84 
L 453.6 51.84 
" style="fill: none; stroke: #000000; stroke-width: 0.8; stroke-linejoin: miter; stroke-linecap: square"/>
   </g>
   <g id="legend_1">
    <g id="patch_7">
     <path d="M 383.460938 89.19625 
L 446.6 89.19625 
Q 448.6 89.19625 448.6 87.19625 
L 448.6 58.84 
Q 448.6 56.84 446.6 56.84 
L 383.460938 56.84 
Q 381.460938 56.84 381.460938 58.84 
L 381.460938 87.19625 
Q 381.460938 89.19625 383.460938 89.19625 
z
" style="fill: #ffffff; opacity: 0.8; stroke: #cccccc; stroke-linejoin: miter"/>
    </g>
    <g id="line2d_15">
     <path d="M 385.460938 64.938437 
L 395.460938 64.938437 
L 405.460938 64.938437 
" style="fill: none; stroke: #1f77b4; stroke-width: 1.5; stroke-linecap: square"/>
    </g>
    <g id="text_15">
     <!-- target -->
     <g transform="translate(413.460938 68.438437)scale(0.1 -0.1)">
      <defs>
       <path id="DejaVuSans-72" d="M 2631 2963 
Q 2534 3019 2420 3045 
Q 2306 3072 2169 3072 
Q 1681 3072 1420 2755 
Q 1159 2438 1159 1844 
L 1159 0 
L 581 0 
L 581 3500 
L 1159 3500 
L 1159 2956 
Q 1341 3275 1631 3429 
Q 1922 3584 2338 3584 
Q 2397 3584 2469 3576 
Q 2541 3569 2628 3553 
L 2631 2963 
z
" transform="scale(0.015625)"/>
      </defs>
      <use xlink:href="#DejaVuSans-74"/>
      <use xlink:href="#DejaVuSans-61" x="39.208984"/>
      <use xlink:href="#DejaVuSans-72" x="100.488281"/>
      <use xlink:href="#DejaVuSans-67" x="139.851562"/>
      <use xlink:href="#DejaVuSans-65" x="203.328125"/>
      <use xlink:href="#DejaVuSans-74" x="264.851562"/>
     </g>
    </g>
    <g id="line2d_16">
     <path d="M 385.460938 79.616562 
L 395.460938 79.616562 
L 405.460938 79.616562 
" style="fill: none; stroke: #ff0000; stroke-width: 1.5; stroke-linecap: square"/>
    </g>
    <g id="text_16">
     <!-- model -->
     <g transform="translate(413.460938 83.116562)scale(0.1 -0.1)">
      <defs>
       <path id="DejaVuSans-64" d="M 2906 2969 
L 2906 4863 
L 3481 4863 
L 3481 0 
L 2906 0 
L 2906 525 
Q 2725 213 2448 61 
Q 2172 -91 1784 -91 
Q 1150 -91 751 415 
Q 353 922 353 1747 
Q 353 2572 751 3078 
Q 1150 3584 1784 3584 
Q 2172 3584 2448 3432 
Q 2725 3281 2906 2969 
z
M 947 1747 
Q 947 1113 1208 752 
Q 1469 391 1925 391 
Q 2381 391 2643 752 
Q 2906 1113 2906 1747 
Q 2906 2381 2643 2742 
Q 2381 3103 1925 3103 
Q 1469 3103 1208 2742 
Q 947 2381 947 1747 
z
" transform="scale(0.015625)"/>
      </defs>
      <use xlink:href="#DejaVuSans-6d"/>
      <use xlink:href="#DejaVuSans-6f" x="97.412109"/>
      <use xlink:href="#DejaVuSans-64" x="158.59375"/>
      <use xlink:href="#DejaVuSans-65" x="222.070312"/>
      <use xlink:href="#DejaVuSans-6c" x="283.59375"/>
     </g>
    </g>
   </g>
  </g>
 </g>
 <defs>
  <clipPath id="p9161c11c2b">
   <rect x="63" y="51.84" width="390.6" height="332.64"/>
  </clipPath>
 </defs>
</svg>
