<?xml version="1.0" encoding="utf-8" standalone="no"?>
<!DOCTYPE svg PUBLIC "-//W3C//DTD SVG 1.1//EN"
  "http://www.w3.org/Graphics/SVG/1.1/DTD/svg11.dtd">
<svg xmlns:xlink="http://www.w3.org/1999/xlink" width="504pt" height="432pt" viewBox="0 0 504 432" xmlns="http://www.w3.org/2000/svg" version="1.1">
 <metadata>
  <rdf:RDF xmlns:dc="http://purl.org/dc/elements/1.1/" xmlns:cc="http://creativecommons.org/ns#" xmlns:rdf="http://www.w3.org/1999/02/22-rdf-syntax-ns#">
   <cc:Work>
    <dc:type rdf:resource="http://purl.org/dc/dcmitype/StillImage"/>
    <dc:date>2022-02-01T15:11:22.074891</dc:date>
    <dc:format>image/svg+xml</dc:format>
    <dc:creator>
     <cc:Agent>
      <dc:title>Matplotlib v3.5.1, https://matplotlib.org/</dc:title>
     </cc:Agent>
    </dc:creator>
   </cc:Work>
  </rdf:RDF>
 </metadata>
 <defs>
  <style type="text/css">*{stroke-linejoin: round; stroke-linecap: butt}</style>
 </defs>
 <g id="figure_1">
  <g id="patch_1">
   <path d="M 0 432 
L 504 432 
L 504 0 
L 0 0 
z
" style="fill: #ffffff"/>
  </g>
  <g id="axes_1">
   <g id="patch_2">
    <path d="M 63 384.48 
L 453.6 384.48 
L 453.6 51.84 
L 63 51.84 
z
" style="fill: #ffffff"/>
   </g>
   <g id="matplotlib.axis_1">
    <g id="xtick_1">
     <g id="line2d_1">
      <defs>
       <path id="m6b66141aae" d="M 0 0 
L 0 3.5 
" style="stroke: #000000; stroke-width: 0.8"/>
      </defs>
      <g>
       <use xlink:href="#m6b66141aae" x="80.754545" y="384.48" style="stroke: #000000; stroke-width: 0.8"/>
      </g>
     </g>
     <g id="text_1">
      <!-- 0 -->
      <g transform="translate(77.573295 399.078438)scale(0.1 -0.1)">
       <defs>
        <path id="DejaVuSans-30" d="M 2034 4250 
Q 1547 4250 1301 3770 
Q 1056 3291 1056 2328 
Q 1056 1369 1301 889 
Q 1547 409 2034 409 
Q 2525 409 2770 889 
Q 3016 1369 3016 2328 
Q 3016 3291 2770 3770 
Q 2525 4250 2034 4250 
z
M 2034 4750 
Q 2819 4750 3233 4129 
Q 3647 3509 3647 2328 
Q 3647 1150 3233 529 
Q 2819 -91 2034 -91 
Q 1250 -91 836 529 
Q 422 1150 422 2328 
Q 422 3509 836 4129 
Q 1250 4750 2034 4750 
z
" transform="scale(0.015625)"/>
       </defs>
       <use xlink:href="#DejaVuSans-30"/>
      </g>
     </g>
    </g>
    <g id="xtick_2">
     <g id="line2d_2">
      <g>
       <use xlink:href="#m6b66141aae" x="151.772727" y="384.48" style="stroke: #000000; stroke-width: 0.8"/>
      </g>
     </g>
     <g id="text_2">
      <!-- 200 -->
      <g transform="translate(142.228977 399.078438)scale(0.1 -0.1)">
       <defs>
        <path id="DejaVuSans-32" d="M 1228 531 
L 3431 531 
L 3431 0 
L 469 0 
L 469 531 
Q 828 903 1448 1529 
Q 2069 2156 2228 2338 
Q 2531 2678 2651 2914 
Q 2772 3150 2772 3378 
Q 2772 3750 2511 3984 
Q 2250 4219 1831 4219 
Q 1534 4219 1204 4116 
Q 875 4013 500 3803 
L 500 4441 
Q 881 4594 1212 4672 
Q 1544 4750 1819 4750 
Q 2544 4750 2975 4387 
Q 3406 4025 3406 3419 
Q 3406 3131 3298 2873 
Q 3191 2616 2906 2266 
Q 2828 2175 2409 1742 
Q 1991 1309 1228 531 
z
" transform="scale(0.015625)"/>
       </defs>
       <use xlink:href="#DejaVuSans-32"/>
       <use xlink:href="#DejaVuSans-30" x="63.623047"/>
       <use xlink:href="#DejaVuSans-30" x="127.246094"/>
      </g>
     </g>
    </g>
    <g id="xtick_3">
     <g id="line2d_3">
      <g>
       <use xlink:href="#m6b66141aae" x="222.790909" y="384.48" style="stroke: #000000; stroke-width: 0.8"/>
      </g>
     </g>
     <g id="text_3">
      <!-- 400 -->
      <g transform="translate(213.247159 399.078438)scale(0.1 -0.1)">
       <defs>
        <path id="DejaVuSans-34" d="M 2419 4116 
L 825 1625 
L 2419 1625 
L 2419 4116 
z
M 2253 4666 
L 3047 4666 
L 3047 1625 
L 3713 1625 
L 3713 1100 
L 3047 1100 
L 3047 0 
L 2419 0 
L 2419 1100 
L 313 1100 
L 313 1709 
L 2253 4666 
z
" transform="scale(0.015625)"/>
       </defs>
       <use xlink:href="#DejaVuSans-34"/>
       <use xlink:href="#DejaVuSans-30" x="63.623047"/>
       <use xlink:href="#DejaVuSans-30" x="127.246094"/>
      </g>
     </g>
    </g>
    <g id="xtick_4">
     <g id="line2d_4">
      <g>
       <use xlink:href="#m6b66141aae" x="293.809091" y="384.48" style="stroke: #000000; stroke-width: 0.8"/>
      </g>
     </g>
     <g id="text_4">
      <!-- 600 -->
      <g transform="translate(284.265341 399.078438)scale(0.1 -0.1)">
       <defs>
        <path id="DejaVuSans-36" d="M 2113 2584 
Q 1688 2584 1439 2293 
Q 1191 2003 1191 1497 
Q 1191 994 1439 701 
Q 1688 409 2113 409 
Q 2538 409 2786 701 
Q 3034 994 3034 1497 
Q 3034 2003 2786 2293 
Q 2538 2584 2113 2584 
z
M 3366 4563 
L 3366 3988 
Q 3128 4100 2886 4159 
Q 2644 4219 2406 4219 
Q 1781 4219 1451 3797 
Q 1122 3375 1075 2522 
Q 1259 2794 1537 2939 
Q 1816 3084 2150 3084 
Q 2853 3084 3261 2657 
Q 3669 2231 3669 1497 
Q 3669 778 3244 343 
Q 2819 -91 2113 -91 
Q 1303 -91 875 529 
Q 447 1150 447 2328 
Q 447 3434 972 4092 
Q 1497 4750 2381 4750 
Q 2619 4750 2861 4703 
Q 3103 4656 3366 4563 
z
" transform="scale(0.015625)"/>
       </defs>
       <use xlink:href="#DejaVuSans-36"/>
       <use xlink:href="#DejaVuSans-30" x="63.623047"/>
       <use xlink:href="#DejaVuSans-30" x="127.246094"/>
      </g>
     </g>
    </g>
    <g id="xtick_5">
     <g id="line2d_5">
      <g>
       <use xlink:href="#m6b66141aae" x="364.827273" y="384.48" style="stroke: #000000; stroke-width: 0.8"/>
      </g>
     </g>
     <g id="text_5">
      <!-- 800 -->
      <g transform="translate(355.283523 399.078438)scale(0.1 -0.1)">
       <defs>
        <path id="DejaVuSans-38" d="M 2034 2216 
Q 1584 2216 1326 1975 
Q 1069 1734 1069 1313 
Q 1069 891 1326 650 
Q 1584 409 2034 409 
Q 2484 409 2743 651 
Q 3003 894 3003 1313 
Q 3003 1734 2745 1975 
Q 2488 2216 2034 2216 
z
M 1403 2484 
Q 997 2584 770 2862 
Q 544 3141 544 3541 
Q 544 4100 942 4425 
Q 1341 4750 2034 4750 
Q 2731 4750 3128 4425 
Q 3525 4100 3525 3541 
Q 3525 3141 3298 2862 
Q 3072 2584 2669 2484 
Q 3125 2378 3379 2068 
Q 3634 1759 3634 1313 
Q 3634 634 3220 271 
Q 2806 -91 2034 -91 
Q 1263 -91 848 271 
Q 434 634 434 1313 
Q 434 1759 690 2068 
Q 947 2378 1403 2484 
z
M 1172 3481 
Q 1172 3119 1398 2916 
Q 1625 2713 2034 2713 
Q 2441 2713 2670 2916 
Q 2900 3119 2900 3481 
Q 2900 3844 2670 4047 
Q 2441 4250 2034 4250 
Q 1625 4250 1398 4047 
Q 1172 3844 1172 3481 
z
" transform="scale(0.015625)"/>
       </defs>
       <use xlink:href="#DejaVuSans-38"/>
       <use xlink:href="#DejaVuSans-30" x="63.623047"/>
       <use xlink:href="#DejaVuSans-30" x="127.246094"/>
      </g>
     </g>
    </g>
    <g id="text_6">
     <!-- time [ms] -->
     <g transform="translate(234.038281 412.756563)scale(0.1 -0.1)">
      <defs>
       <path id="DejaVuSans-74" d="M 1172 4494 
L 1172 3500 
L 2356 3500 
L 2356 3053 
L 1172 3053 
L 1172 1153 
Q 1172 725 1289 603 
Q 1406 481 1766 481 
L 2356 481 
L 2356 0 
L 1766 0 
Q 1100 0 847 248 
Q 594 497 594 1153 
L 594 3053 
L 172 3053 
L 172 3500 
L 594 3500 
L 594 4494 
L 1172 4494 
z
" transform="scale(0.015625)"/>
       <path id="DejaVuSans-69" d="M 603 3500 
L 1178 3500 
L 1178 0 
L 603 0 
L 603 3500 
z
M 603 4863 
L 1178 4863 
L 1178 4134 
L 603 4134 
L 603 4863 
z
" transform="scale(0.015625)"/>
       <path id="DejaVuSans-6d" d="M 3328 2828 
Q 3544 3216 3844 3400 
Q 4144 3584 4550 3584 
Q 5097 3584 5394 3201 
Q 5691 2819 5691 2113 
L 5691 0 
L 5113 0 
L 5113 2094 
Q 5113 2597 4934 2840 
Q 4756 3084 4391 3084 
Q 3944 3084 3684 2787 
Q 3425 2491 3425 1978 
L 3425 0 
L 2847 0 
L 2847 2094 
Q 2847 2600 2669 2842 
Q 2491 3084 2119 3084 
Q 1678 3084 1418 2786 
Q 1159 2488 1159 1978 
L 1159 0 
L 581 0 
L 581 3500 
L 1159 3500 
L 1159 2956 
Q 1356 3278 1631 3431 
Q 1906 3584 2284 3584 
Q 2666 3584 2933 3390 
Q 3200 3197 3328 2828 
z
" transform="scale(0.015625)"/>
       <path id="DejaVuSans-65" d="M 3597 1894 
L 3597 1613 
L 953 1613 
Q 991 1019 1311 708 
Q 1631 397 2203 397 
Q 2534 397 2845 478 
Q 3156 559 3463 722 
L 3463 178 
Q 3153 47 2828 -22 
Q 2503 -91 2169 -91 
Q 1331 -91 842 396 
Q 353 884 353 1716 
Q 353 2575 817 3079 
Q 1281 3584 2069 3584 
Q 2775 3584 3186 3129 
Q 3597 2675 3597 1894 
z
M 3022 2063 
Q 3016 2534 2758 2815 
Q 2500 3097 2075 3097 
Q 1594 3097 1305 2825 
Q 1016 2553 972 2059 
L 3022 2063 
z
" transform="scale(0.015625)"/>
       <path id="DejaVuSans-20" transform="scale(0.015625)"/>
       <path id="DejaVuSans-5b" d="M 550 4863 
L 1875 4863 
L 1875 4416 
L 1125 4416 
L 1125 -397 
L 1875 -397 
L 1875 -844 
L 550 -844 
L 550 4863 
z
" transform="scale(0.015625)"/>
       <path id="DejaVuSans-73" d="M 2834 3397 
L 2834 2853 
Q 2591 2978 2328 3040 
Q 2066 3103 1784 3103 
Q 1356 3103 1142 2972 
Q 928 2841 928 2578 
Q 928 2378 1081 2264 
Q 1234 2150 1697 2047 
L 1894 2003 
Q 2506 1872 2764 1633 
Q 3022 1394 3022 966 
Q 3022 478 2636 193 
Q 2250 -91 1575 -91 
Q 1294 -91 989 -36 
Q 684 19 347 128 
L 347 722 
Q 666 556 975 473 
Q 1284 391 1588 391 
Q 1994 391 2212 530 
Q 2431 669 2431 922 
Q 2431 1156 2273 1281 
Q 2116 1406 1581 1522 
L 1381 1569 
Q 847 1681 609 1914 
Q 372 2147 372 2553 
Q 372 3047 722 3315 
Q 1072 3584 1716 3584 
Q 2034 3584 2315 3537 
Q 2597 3491 2834 3397 
z
" transform="scale(0.015625)"/>
       <path id="DejaVuSans-5d" d="M 1947 4863 
L 1947 -844 
L 622 -844 
L 622 -397 
L 1369 -397 
L 1369 4416 
L 622 4416 
L 622 4863 
L 1947 4863 
z
" transform="scale(0.015625)"/>
      </defs>
      <use xlink:href="#DejaVuSans-74"/>
      <use xlink:href="#DejaVuSans-69" x="39.208984"/>
      <use xlink:href="#DejaVuSans-6d" x="66.992188"/>
      <use xlink:href="#DejaVuSans-65" x="164.404297"/>
      <use xlink:href="#DejaVuSans-20" x="225.927734"/>
      <use xlink:href="#DejaVuSans-5b" x="257.714844"/>
      <use xlink:href="#DejaVuSans-6d" x="296.728516"/>
      <use xlink:href="#DejaVuSans-73" x="394.140625"/>
      <use xlink:href="#DejaVuSans-5d" x="446.240234"/>
     </g>
    </g>
   </g>
   <g id="matplotlib.axis_2">
    <g id="ytick_1">
     <g id="line2d_6">
      <defs>
       <path id="m51d910251f" d="M 0 0 
L -3.5 0 
" style="stroke: #000000; stroke-width: 0.8"/>
      </defs>
      <g>
       <use xlink:href="#m51d910251f" x="63" y="381.244219" style="stroke: #000000; stroke-width: 0.8"/>
      </g>
     </g>
     <g id="text_7">
      <!-- −80 -->
      <g transform="translate(34.895313 385.043437)scale(0.1 -0.1)">
       <defs>
        <path id="DejaVuSans-2212" d="M 678 2272 
L 4684 2272 
L 4684 1741 
L 678 1741 
L 678 2272 
z
" transform="scale(0.015625)"/>
       </defs>
       <use xlink:href="#DejaVuSans-2212"/>
       <use xlink:href="#DejaVuSans-38" x="83.789062"/>
       <use xlink:href="#DejaVuSans-30" x="147.412109"/>
      </g>
     </g>
    </g>
    <g id="ytick_2">
     <g id="line2d_7">
      <g>
       <use xlink:href="#m51d910251f" x="63" y="329.398658" style="stroke: #000000; stroke-width: 0.8"/>
      </g>
     </g>
     <g id="text_8">
      <!-- −60 -->
      <g transform="translate(34.895313 333.197876)scale(0.1 -0.1)">
       <use xlink:href="#DejaVuSans-2212"/>
       <use xlink:href="#DejaVuSans-36" x="83.789062"/>
       <use xlink:href="#DejaVuSans-30" x="147.412109"/>
      </g>
     </g>
    </g>
    <g id="ytick_3">
     <g id="line2d_8">
      <g>
       <use xlink:href="#m51d910251f" x="63" y="277.553097" style="stroke: #000000; stroke-width: 0.8"/>
      </g>
     </g>
     <g id="text_9">
      <!-- −40 -->
      <g transform="translate(34.895313 281.352315)scale(0.1 -0.1)">
       <use xlink:href="#DejaVuSans-2212"/>
       <use xlink:href="#DejaVuSans-34" x="83.789062"/>
       <use xlink:href="#DejaVuSans-30" x="147.412109"/>
      </g>
     </g>
    </g>
    <g id="ytick_4">
     <g id="line2d_9">
      <g>
       <use xlink:href="#m51d910251f" x="63" y="225.707536" style="stroke: #000000; stroke-width: 0.8"/>
      </g>
     </g>
     <g id="text_10">
      <!-- −20 -->
      <g transform="translate(34.895313 229.506754)scale(0.1 -0.1)">
       <use xlink:href="#DejaVuSans-2212"/>
       <use xlink:href="#DejaVuSans-32" x="83.789062"/>
       <use xlink:href="#DejaVuSans-30" x="147.412109"/>
      </g>
     </g>
    </g>
    <g id="ytick_5">
     <g id="line2d_10">
      <g>
       <use xlink:href="#m51d910251f" x="63" y="173.861974" style="stroke: #000000; stroke-width: 0.8"/>
      </g>
     </g>
     <g id="text_11">
      <!-- 0 -->
      <g transform="translate(49.6375 177.661193)scale(0.1 -0.1)">
       <use xlink:href="#DejaVuSans-30"/>
      </g>
     </g>
    </g>
    <g id="ytick_6">
     <g id="line2d_11">
      <g>
       <use xlink:href="#m51d910251f" x="63" y="122.016413" style="stroke: #000000; stroke-width: 0.8"/>
      </g>
     </g>
     <g id="text_12">
      <!-- 20 -->
      <g transform="translate(43.275 125.815632)scale(0.1 -0.1)">
       <use xlink:href="#DejaVuSans-32"/>
       <use xlink:href="#DejaVuSans-30" x="63.623047"/>
      </g>
     </g>
    </g>
    <g id="ytick_7">
     <g id="line2d_12">
      <g>
       <use xlink:href="#m51d910251f" x="63" y="70.170852" style="stroke: #000000; stroke-width: 0.8"/>
      </g>
     </g>
     <g id="text_13">
      <!-- 40 -->
      <g transform="translate(43.275 73.970071)scale(0.1 -0.1)">
       <use xlink:href="#DejaVuSans-34"/>
       <use xlink:href="#DejaVuSans-30" x="63.623047"/>
      </g>
     </g>
    </g>
    <g id="text_14">
     <!-- voltage [mV] -->
     <g transform="translate(28.815625 250.624062)rotate(-90)scale(0.1 -0.1)">
      <defs>
       <path id="DejaVuSans-76" d="M 191 3500 
L 800 3500 
L 1894 563 
L 2988 3500 
L 3597 3500 
L 2284 0 
L 1503 0 
L 191 3500 
z
" transform="scale(0.015625)"/>
       <path id="DejaVuSans-6f" d="M 1959 3097 
Q 1497 3097 1228 2736 
Q 959 2375 959 1747 
Q 959 1119 1226 758 
Q 1494 397 1959 397 
Q 2419 397 2687 759 
Q 2956 1122 2956 1747 
Q 2956 2369 2687 2733 
Q 2419 3097 1959 3097 
z
M 1959 3584 
Q 2709 3584 3137 3096 
Q 3566 2609 3566 1747 
Q 3566 888 3137 398 
Q 2709 -91 1959 -91 
Q 1206 -91 779 398 
Q 353 888 353 1747 
Q 353 2609 779 3096 
Q 1206 3584 1959 3584 
z
" transform="scale(0.015625)"/>
       <path id="DejaVuSans-6c" d="M 603 4863 
L 1178 4863 
L 1178 0 
L 603 0 
L 603 4863 
z
" transform="scale(0.015625)"/>
       <path id="DejaVuSans-61" d="M 2194 1759 
Q 1497 1759 1228 1600 
Q 959 1441 959 1056 
Q 959 750 1161 570 
Q 1363 391 1709 391 
Q 2188 391 2477 730 
Q 2766 1069 2766 1631 
L 2766 1759 
L 2194 1759 
z
M 3341 1997 
L 3341 0 
L 2766 0 
L 2766 531 
Q 2569 213 2275 61 
Q 1981 -91 1556 -91 
Q 1019 -91 701 211 
Q 384 513 384 1019 
Q 384 1609 779 1909 
Q 1175 2209 1959 2209 
L 2766 2209 
L 2766 2266 
Q 2766 2663 2505 2880 
Q 2244 3097 1772 3097 
Q 1472 3097 1187 3025 
Q 903 2953 641 2809 
L 641 3341 
Q 956 3463 1253 3523 
Q 1550 3584 1831 3584 
Q 2591 3584 2966 3190 
Q 3341 2797 3341 1997 
z
" transform="scale(0.015625)"/>
       <path id="DejaVuSans-67" d="M 2906 1791 
Q 2906 2416 2648 2759 
Q 2391 3103 1925 3103 
Q 1463 3103 1205 2759 
Q 947 2416 947 1791 
Q 947 1169 1205 825 
Q 1463 481 1925 481 
Q 2391 481 2648 825 
Q 2906 1169 2906 1791 
z
M 3481 434 
Q 3481 -459 3084 -895 
Q 2688 -1331 1869 -1331 
Q 1566 -1331 1297 -1286 
Q 1028 -1241 775 -1147 
L 775 -588 
Q 1028 -725 1275 -790 
Q 1522 -856 1778 -856 
Q 2344 -856 2625 -561 
Q 2906 -266 2906 331 
L 2906 616 
Q 2728 306 2450 153 
Q 2172 0 1784 0 
Q 1141 0 747 490 
Q 353 981 353 1791 
Q 353 2603 747 3093 
Q 1141 3584 1784 3584 
Q 2172 3584 2450 3431 
Q 2728 3278 2906 2969 
L 2906 3500 
L 3481 3500 
L 3481 434 
z
" transform="scale(0.015625)"/>
       <path id="DejaVuSans-56" d="M 1831 0 
L 50 4666 
L 709 4666 
L 2188 738 
L 3669 4666 
L 4325 4666 
L 2547 0 
L 1831 0 
z
" transform="scale(0.015625)"/>
      </defs>
      <use xlink:href="#DejaVuSans-76"/>
      <use xlink:href="#DejaVuSans-6f" x="59.179688"/>
      <use xlink:href="#DejaVuSans-6c" x="120.361328"/>
      <use xlink:href="#DejaVuSans-74" x="148.144531"/>
      <use xlink:href="#DejaVuSans-61" x="187.353516"/>
      <use xlink:href="#DejaVuSans-67" x="248.632812"/>
      <use xlink:href="#DejaVuSans-65" x="312.109375"/>
      <use xlink:href="#DejaVuSans-20" x="373.632812"/>
      <use xlink:href="#DejaVuSans-5b" x="405.419922"/>
      <use xlink:href="#DejaVuSans-6d" x="444.433594"/>
      <use xlink:href="#DejaVuSans-56" x="541.845703"/>
      <use xlink:href="#DejaVuSans-5d" x="610.253906"/>
     </g>
    </g>
   </g>
   <g id="line2d_13">
    <path d="M 80.754545 342.360048 
L 81.961855 342.225249 
L 83.790573 342.282539 
L 87.8031 342.28876 
L 151.772727 342.291871 
L 152.314241 298.322169 
L 152.420768 250.291664 
L 152.562805 71.011269 
L 152.678209 95.915284 
L 153.565936 368.518207 
L 153.610323 368.418923 
L 153.8145 367.057199 
L 154.293873 362.362584 
L 154.959668 353.354677 
L 157.42755 314.946967 
L 157.613973 303.958041 
L 157.738255 282.265599 
L 157.835905 220.486947 
L 157.969064 95.069424 
L 158.031205 108.058292 
L 158.883423 368.099036 
L 158.945564 367.917836 
L 159.203005 365.963258 
L 159.717886 360.360827 
L 160.534595 348.582034 
L 161.8218 330.677169 
L 162.514227 320.439485 
L 162.771668 313.01235 
L 162.940336 301.170046 
L 163.064618 273.551397 
L 163.162268 190.20144 
L 163.268795 95.978277 
L 163.322059 105.373211 
L 163.863573 298.047388 
L 164.147645 367.924576 
L 164.183155 368.067669 
L 164.245295 367.888543 
L 164.493859 366.008623 
L 165.008741 360.425634 
L 165.834327 348.525263 
L 167.112655 330.75079 
L 167.813959 320.40449 
L 168.0714 312.967762 
L 168.240068 301.086574 
L 168.36435 273.308241 
L 168.462 189.465103 
L 168.568527 96.05423 
L 168.621791 105.592517 
L 169.172182 301.950062 
L 169.4385 367.839808 
L 169.482886 368.065596 
L 169.545027 367.882581 
L 169.802468 365.919967 
L 170.31735 360.299908 
L 171.151814 348.239853 
L 172.430141 330.511004 
L 173.113691 320.386344 
L 173.371132 312.93173 
L 173.5398 300.991956 
L 173.664082 272.974356 
L 173.761732 188.328104 
L 173.868259 96.070821 
L 173.921523 105.825563 
L 174.480791 305.970686 
L 174.729355 367.73171 
L 174.782618 368.065596 
L 174.844759 367.878433 
L 175.1022 365.912709 
L 175.617082 360.28928 
L 176.451545 348.227151 
L 177.729873 330.500376 
L 178.413423 320.369753 
L 178.670864 312.896216 
L 178.839532 300.896042 
L 178.963814 272.631657 
L 179.061464 187.15782 
L 179.167991 96.08793 
L 179.221255 106.061201 
L 179.7894 310.093185 
L 180.029086 367.743894 
L 180.08235 368.065855 
L 180.144491 367.874026 
L 180.401932 365.90545 
L 180.916814 360.278911 
L 181.751277 348.214967 
L 183.029605 330.490007 
L 183.713155 320.352903 
L 183.970595 312.860442 
L 184.139264 300.799091 
L 184.263545 272.280921 
L 184.361195 185.966954 
L 184.467723 96.11152 
L 184.520986 106.300468 
L 185.098009 314.306415 
L 185.328818 367.755818 
L 185.382082 368.065855 
L 185.444223 367.869879 
L 185.701664 365.897933 
L 186.216545 360.268542 
L 187.051009 348.202524 
L 188.329336 330.479638 
L 189.012886 320.336313 
L 189.270327 312.824409 
L 189.438995 300.700584 
L 189.563277 271.925002 
L 189.660927 184.771343 
L 189.767455 96.140812 
L 189.820718 106.542069 
L 190.406618 318.590932 
L 190.619673 367.623612 
L 190.681814 368.065596 
L 190.743955 367.865472 
L 191.010273 365.810314 
L 191.525155 360.144631 
L 192.368495 347.920484 
L 193.637945 330.355208 
L 194.312618 320.319204 
L 194.570059 312.788377 
L 194.738727 300.601559 
L 194.863009 271.565712 
L 194.969536 170.377564 
L 195.058309 96.127592 
L 195.12045 106.786261 
L 195.715227 322.921073 
L 195.919405 367.638907 
L 195.981545 368.065596 
L 196.043686 367.861065 
L 196.310005 365.802796 
L 196.833764 360.020201 
L 197.703736 347.369625 
L 198.955432 330.116978 
L 199.61235 320.302354 
L 199.869791 312.751826 
L 200.038459 300.501497 
L 200.162741 271.199164 
L 200.269268 169.129875 
L 200.358041 96.098558 
L 200.420182 107.034602 
L 201.023836 327.260287 
L 201.219136 367.653423 
L 201.281277 368.065077 
L 201.343418 367.856658 
L 201.609736 365.795278 
L 202.133495 360.009314 
L 202.994591 347.491462 
L 204.255164 330.10635 
L 204.912082 320.284986 
L 205.169523 312.714756 
L 205.338191 300.39988 
L 205.462473 270.825098 
L 205.569 167.873812 
L 205.657773 96.076524 
L 205.719914 107.284756 
L 206.332445 331.561136 
L 206.518868 367.66794 
L 206.581009 368.064818 
L 206.634273 367.898134 
L 206.873959 366.105574 
L 207.388841 360.563802 
L 208.187795 349.096601 
L 209.510509 330.664208 
L 210.202936 320.449855 
L 210.460377 313.065491 
L 210.629045 301.351246 
L 210.753327 274.249497 
L 210.850977 192.730311 
L 210.957505 96.061489 
L 211.019645 107.535948 
L 211.641055 335.770218 
L 211.827477 367.811812 
L 211.880741 368.064299 
L 211.934005 367.893987 
L 212.182568 366.01951 
L 212.69745 360.441187 
L 213.514159 348.678985 
L 214.810241 330.653579 
L 215.502668 320.433005 
L 215.760109 313.029977 
L 215.928777 301.256109 
L 216.053059 273.914316 
L 216.150709 191.56586 
L 216.257236 96.055267 
L 216.319377 107.786621 
L 216.949664 339.8248 
L 217.127209 367.822181 
L 217.171595 368.064818 
L 217.233736 367.889839 
L 217.4823 366.012252 
L 217.997182 360.430818 
L 218.822768 348.531484 
L 220.101095 330.756493 
L 220.8024 320.416155 
L 221.059841 312.994722 
L 221.228509 301.161232 
L 221.352791 273.577838 
L 221.450441 190.401979 
L 221.556968 96.055786 
L 221.610232 105.409762 
L 222.151745 298.102085 
L 222.426941 367.832031 
L 222.471327 368.065077 
L 222.533468 367.885691 
L 222.782032 366.004994 
L 223.296914 360.420449 
L 224.1225 348.518782 
L 225.418582 330.51904 
L 226.111009 320.21655 
L 226.36845 312.567255 
L 226.537118 299.991596 
L 226.652523 273.238768 
L 226.750173 189.233457 
L 226.8567 96.061748 
L 226.909964 105.644363 
L 227.460355 302.024461 
L 227.726673 367.841623 
L 227.771059 368.065596 
L 227.8332 367.881544 
L 228.090641 365.918152 
L 228.605523 360.297316 
L 229.439986 348.236742 
L 230.718314 330.508412 
L 231.401864 320.382455 
L 231.659305 312.923434 
L 231.827973 300.970181 
L 231.952255 272.897365 
L 232.049905 188.064729 
L 232.156432 96.07445 
L 232.209695 105.878705 
L 232.768964 306.048195 
L 233.017527 367.734562 
L 233.070791 368.065596 
L 233.132932 367.877396 
L 233.390373 365.910894 
L 233.905255 360.286947 
L 234.739718 348.224299 
L 236.018045 330.498043 
L 236.701595 320.365865 
L 236.959036 312.88818 
L 237.127705 300.874267 
L 237.251986 272.552851 
L 237.349636 186.889312 
L 237.456164 96.092596 
L 237.509427 106.11538 
L 238.077573 310.173027 
L 238.317259 367.746486 
L 238.370523 368.065855 
L 238.432664 367.873249 
L 238.690105 365.903636 
L 239.204986 360.276578 
L 240.03945 348.212116 
L 241.317777 330.487674 
L 242.001327 320.349274 
L 242.258768 312.852406 
L 242.427436 300.776797 
L 242.551718 272.200302 
L 242.649368 185.695672 
L 242.755895 96.117741 
L 242.809159 106.355166 
L 243.386182 314.388072 
L 243.616991 367.758411 
L 243.670255 368.065855 
L 243.732395 367.868842 
L 243.989836 365.896377 
L 244.504718 360.266209 
L 245.348059 348.064874 
L 246.617509 330.477045 
L 247.301059 320.332424 
L 247.5585 312.816373 
L 247.727168 300.678031 
L 247.85145 271.843863 
L 247.9491 184.498895 
L 248.055627 96.148589 
L 248.108891 106.597284 
L 248.694791 318.674403 
L 248.907845 367.627241 
L 248.969986 368.065596 
L 249.032127 367.864694 
L 249.298445 365.808758 
L 249.822205 360.028497 
L 250.692177 347.379476 
L 251.943873 330.125273 
L 252.600791 320.315315 
L 252.858232 312.780082 
L 253.0269 300.578747 
L 253.151182 271.482759 
L 253.257709 170.093502 
L 253.346482 96.120333 
L 253.408623 106.842773 
L 254.0034 323.0061 
L 254.207577 367.642277 
L 254.269718 368.065336 
L 254.331859 367.860287 
L 254.598177 365.801241 
L 255.121936 360.017609 
L 255.983032 347.501313 
L 257.22585 330.342247 
L 257.900523 320.298466 
L 258.157964 312.74353 
L 258.326632 300.478426 
L 258.450914 271.114396 
L 258.557441 168.843246 
L 258.646214 96.092855 
L 258.708355 107.091891 
L 259.312009 327.345314 
L 259.507309 367.656793 
L 259.56945 368.065077 
L 259.631591 367.855621 
L 259.897909 365.793464 
L 260.421668 360.006981 
L 261.291641 347.354331 
L 262.525582 330.331619 
L 263.200255 320.281097 
L 263.457695 312.706461 
L 263.626364 300.376549 
L 263.750645 270.739035 
L 263.857173 167.586666 
L 263.945945 96.072376 
L 264.008086 107.342046 
L 264.620618 331.644867 
L 264.807041 367.67131 
L 264.869182 368.064559 
L 264.922445 367.897357 
L 265.171009 366.025214 
L 265.685891 360.449483 
L 266.511477 348.553778 
L 267.807559 330.548333 
L 268.499986 320.263988 
L 268.757427 312.669391 
L 268.926095 300.274673 
L 269.050377 270.363673 
L 269.156905 166.339443 
L 269.245677 96.059415 
L 269.298941 104.996293 
L 269.8227 290.636065 
L 270.133405 367.978495 
L 270.168914 368.064299 
L 270.222177 367.893209 
L 270.470741 366.017955 
L 270.985623 360.438854 
L 271.802332 348.676133 
L 273.098414 330.651246 
L 273.790841 320.429116 
L 274.048282 313.021941 
L 274.21695 301.234594 
L 274.341232 273.837584 
L 274.438882 191.299477 
L 274.545409 96.055008 
L 274.598673 105.229339 
L 275.131309 294.356243 
L 275.424259 367.917317 
L 275.459768 368.064818 
L 275.521909 367.889061 
L 275.770473 366.010697 
L 276.285355 360.428485 
L 277.110941 348.528633 
L 278.389268 330.75416 
L 279.090573 320.412267 
L 279.348014 312.986427 
L 279.516682 301.139457 
L 279.640964 273.500588 
L 279.738614 190.135492 
L 279.845141 96.056304 
L 279.898405 105.463422 
L 280.439918 298.177002 
L 280.715114 367.834105 
L 280.7595 368.065336 
L 280.821641 367.884914 
L 281.079082 365.923855 
L 281.593964 360.305352 
L 282.428427 348.246334 
L 283.706755 330.516448 
L 284.390305 320.395417 
L 284.647745 312.950913 
L 284.816414 301.044061 
L 284.940695 273.161 
L 285.038345 188.966868 
L 285.144873 96.064081 
L 285.198136 105.697764 
L 285.748527 302.100414 
L 286.014845 367.843697 
L 286.059232 368.065596 
L 286.121373 367.880507 
L 286.378814 365.916597 
L 286.893695 360.294983 
L 287.728159 348.233891 
L 289.006486 330.506079 
L 289.690036 320.378826 
L 289.947477 312.915398 
L 290.116145 300.948406 
L 290.240427 272.819078 
L 290.338077 187.797258 
L 290.444605 96.078079 
L 290.497868 105.932365 
L 291.057136 306.126481 
L 291.3057 367.737413 
L 291.358964 368.065855 
L 291.421105 367.876359 
L 291.678545 365.909339 
L 292.193427 360.284614 
L 293.027891 348.221448 
L 294.315095 330.381909 
L 294.989768 320.361976 
L 295.247209 312.879884 
L 295.415877 300.852233 
L 295.540159 272.473009 
L 295.637809 186.617979 
L 295.744336 96.097781 
L 295.7976 106.169818 
L 296.365745 310.253388 
L 296.605432 367.749338 
L 296.658695 368.065855 
L 296.720836 367.872212 
L 296.978277 365.90208 
L 297.493159 360.274245 
L 298.327623 348.209264 
L 299.60595 330.485341 
L 300.2895 320.345386 
L 300.546941 312.844111 
L 300.715609 300.754244 
L 300.839891 272.119423 
L 300.937541 185.424001 
L 301.044068 96.124222 
L 301.097332 106.409863 
L 301.674355 314.469728 
L 301.905164 367.761003 
L 301.958427 368.065855 
L 302.020568 367.868064 
L 302.286886 365.814461 
L 302.810645 360.036533 
L 303.671741 347.523607 
L 304.914559 330.361171 
L 305.589232 320.328536 
L 305.846673 312.808078 
L 306.015341 300.655738 
L 306.139623 271.762466 
L 306.24615 171.053112 
L 306.334923 96.145997 
L 306.397064 106.652759 
L 306.982964 318.757875 
L 307.196018 367.630611 
L 307.258159 368.065596 
L 307.3203 367.863657 
L 307.586618 365.806944 
L 308.110377 360.025904 
L 308.971473 347.511164 
L 310.214291 330.350542 
L 310.888964 320.311686 
L 311.146405 312.771786 
L 311.315073 300.556194 
L 311.439355 271.399547 
L 311.545882 169.810451 
L 311.634655 96.113593 
L 311.696795 106.899025 
L 312.291573 323.090608 
L 312.49575 367.645647 
L 312.557891 368.065336 
L 312.620032 367.85925 
L 312.88635 365.799426 
L 313.410109 360.015276 
L 314.280082 347.363922 
L 315.531777 330.112053 
L 316.188695 320.294318 
L 316.446136 312.734976 
L 316.614805 300.455355 
L 316.739086 271.029888 
L 316.845614 168.557707 
L 316.934386 96.087671 
L 316.996527 107.148662 
L 317.600182 327.430082 
L 317.795482 367.660163 
L 317.857623 368.065077 
L 317.910886 367.900467 
L 318.15945 366.030917 
L 318.674332 360.457519 
L 319.491041 348.698427 
L 320.796 330.556369 
L 321.488427 320.277209 
L 321.745868 312.697906 
L 321.914536 300.353219 
L 322.038818 270.65323 
L 322.145345 167.300893 
L 322.234118 96.068747 
L 322.296259 107.399335 
L 322.908791 331.728338 
L 323.095214 367.67468 
L 323.157355 368.064559 
L 323.210618 367.89632 
L 323.459182 366.023658 
L 323.974064 360.44689 
L 324.790773 348.685725 
L 326.095732 330.545741 
L 326.779282 320.442078 
L 327.036723 313.049419 
L 327.205391 301.307955 
L 327.329673 274.096812 
L 327.427323 192.199412 
L 327.53385 96.0576 
L 327.595991 107.650268 
L 328.2174 335.931458 
L 328.403823 367.816478 
L 328.457086 368.06404 
L 328.51035 367.892172 
L 328.758914 366.016141 
L 329.273795 360.436521 
L 329.318182 359.868553 
L 329.335936 360.758741 
L 329.531236 364.706262 
L 329.620009 364.892129 
L 329.664395 364.835358 
L 329.815309 364.234986 
L 330.214786 361.448028 
L 332.176664 346.848059 
L 332.869091 343.660335 
L 333.428359 342.022533 
L 333.889977 341.287363 
L 334.262823 341.062872 
L 334.617914 341.102534 
L 335.106164 341.421903 
L 336.553159 342.46348 
L 337.156814 342.559135 
L 338.106682 342.448445 
L 339.899891 342.245988 
L 342.074823 342.293167 
L 345.758891 342.289797 
L 435.845455 342.291871 
L 435.845455 342.291871 
" clip-path="url(#p3539ee23eb)" style="fill: none; stroke: #1f77b4; stroke-width: 1.5; stroke-linecap: square"/>
   </g>
   <g id="line2d_14">
    <path d="M 80.754545 342.360048 
L 81.171777 339.512385 
L 81.642273 337.622926 
L 81.952977 337.101675 
L 82.157155 337.100714 
L 82.361332 337.366601 
L 82.680914 338.217743 
L 83.737309 341.302278 
L 84.065768 341.550151 
L 84.376473 341.507494 
L 84.820336 341.179058 
L 85.983259 340.247589 
L 86.542527 340.128355 
L 87.243832 340.230028 
L 88.761845 340.486761 
L 90.404141 340.413 
L 92.845391 340.416059 
L 103.52475 340.415046 
L 151.772727 340.415038 
L 152.260977 300.926624 
L 152.358627 251.371053 
L 152.491786 66.96 
L 152.607191 90.536381 
L 153.272986 326.039541 
L 153.468286 369.321204 
L 153.486041 369.36 
L 153.539305 369.211664 
L 153.832255 367.295127 
L 154.320505 362.685072 
L 155.021809 353.609205 
L 156.637473 332.390053 
L 157.178986 324.281902 
L 157.418673 317.018391 
L 157.578464 304.094285 
L 157.684991 273.862703 
L 157.773764 162.174335 
L 157.853659 79.95723 
L 157.9158 89.68547 
L 158.270891 213.531172 
L 158.79465 369.163606 
L 158.847914 369.016942 
L 159.131986 367.11184 
L 159.629114 362.320071 
L 160.35705 352.777402 
L 161.839555 333.369469 
L 162.452086 324.631403 
L 162.70065 317.584059 
L 162.860441 306.006048 
L 162.975845 277.113284 
L 163.064618 175.749747 
L 163.153391 80.271598 
L 163.215532 90.635669 
L 163.606132 226.448451 
L 164.094382 369.152348 
L 164.156523 368.942619 
L 164.484982 366.635579 
L 164.999864 361.42909 
L 165.816573 350.429943 
L 167.112655 333.625665 
L 167.742941 324.708326 
L 167.991505 317.762652 
L 168.151295 306.522801 
L 168.2667 279.159614 
L 168.355473 184.280668 
L 168.444245 80.370309 
L 168.506386 89.541867 
L 168.834845 204.533221 
L 169.385236 369.151372 
L 169.429623 369.045968 
L 169.678186 367.440879 
L 170.166436 362.897747 
L 170.849986 354.131291 
L 172.510036 332.377494 
L 173.060427 324.25894 
L 173.300114 317.167183 
L 173.459905 304.80806 
L 173.566432 276.925113 
L 173.655205 175.02568 
L 173.743977 80.292887 
L 173.806118 90.751888 
L 174.205595 229.45804 
L 174.684968 369.151528 
L 174.747109 368.939584 
L 175.075568 366.630874 
L 175.59045 361.422366 
L 176.407159 350.421909 
L 177.703241 333.619009 
L 178.333527 324.698156 
L 178.582091 317.741209 
L 178.741882 306.463519 
L 178.857286 278.930308 
L 178.946059 183.316815 
L 179.034832 80.351879 
L 179.096973 89.668368 
L 179.434309 207.695093 
L 179.975823 369.151559 
L 180.020209 369.043825 
L 180.268773 367.437088 
L 180.757023 362.89221 
L 181.440573 354.124241 
L 183.100623 332.371327 
L 183.651014 324.248741 
L 183.8907 317.14462 
L 184.050491 304.740891 
L 184.157018 276.675668 
L 184.245791 174.010911 
L 184.334564 80.296506 
L 184.396705 90.884364 
L 184.805059 232.465842 
L 185.275555 369.151323 
L 185.337695 368.937001 
L 185.675032 366.552865 
L 186.189914 361.311045 
L 187.024377 350.037646 
L 188.311582 333.398064 
L 188.932991 324.512843 
L 189.181555 317.333189 
L 189.341345 305.295556 
L 189.447873 278.696208 
L 189.536645 182.335025 
L 189.625418 80.334888 
L 189.687559 89.795885 
L 190.033773 210.834136 
L 190.566409 369.151753 
L 190.619673 369.001683 
L 190.912623 367.020773 
L 191.40975 362.188637 
L 192.155441 352.362873 
L 193.593559 333.556191 
L 194.223845 324.595974 
L 194.472409 317.517538 
L 194.6322 305.829551 
L 194.747605 276.423337 
L 194.836377 172.992163 
L 194.92515 80.302719 
L 194.987291 91.01699 
L 195.404523 235.461073 
L 195.866141 369.15108 
L 195.928282 368.934419 
L 196.265618 366.548701 
L 196.7805 361.305113 
L 197.614964 350.030591 
L 198.902168 333.392013 
L 199.523577 324.502858 
L 199.772141 317.310913 
L 199.931932 305.230656 
L 200.038459 278.462497 
L 200.127232 181.356562 
L 200.216005 80.320625 
L 200.278145 89.923617 
L 200.624359 211.000095 
L 201.156995 369.151879 
L 201.210259 368.999341 
L 201.503209 367.016827 
L 202.000336 362.182954 
L 202.746027 352.355832 
L 204.184145 333.550184 
L 204.814432 324.58615 
L 205.062995 317.495883 
L 205.222786 305.767175 
L 205.338191 276.169393 
L 205.426964 171.973098 
L 205.515736 80.310887 
L 205.569 88.863354 
L 205.870827 194.486255 
L 206.456727 369.15081 
L 206.483359 369.091069 
L 206.678659 367.915123 
L 207.149155 363.785225 
L 207.779441 356.019743 
L 210.291709 320.006815 
L 210.469255 310.771104 
L 210.593536 291.369986 
L 210.682309 237.149277 
L 210.806591 80.309735 
L 210.895364 97.56281 
L 211.534527 327.999111 
L 211.72095 369.065567 
L 211.747582 369.151924 
L 211.809723 368.953323 
L 212.129305 366.726186 
L 212.635309 361.663172 
L 213.425386 351.089497 
L 214.756977 333.758635 
L 215.396141 324.750563 
L 215.644705 317.854721 
L 215.804495 306.78068 
L 215.9199 280.155989 
L 216.008673 188.524273 
L 216.106323 80.321685 
L 216.168464 91.284729 
L 216.60345 241.426791 
L 217.047314 369.150498 
L 217.109455 368.929215 
L 217.446791 366.540328 
L 217.961673 361.293191 
L 218.796136 350.016418 
L 220.083341 333.379858 
L 220.695873 324.658779 
L 220.944436 317.655368 
L 221.104227 306.222359 
L 221.219632 277.989343 
L 221.308405 179.389081 
L 221.397177 80.301775 
L 221.459318 90.181549 
L 221.823286 217.211365 
L 222.338168 369.151925 
L 222.391432 368.99456 
L 222.684382 367.008849 
L 223.181509 362.171463 
L 223.9272 352.341602 
L 225.365318 333.538058 
L 225.995605 324.566272 
L 226.244168 317.451974 
L 226.403959 305.640501 
L 226.510486 279.930515 
L 226.599259 187.557235 
L 226.696909 80.335046 
L 226.750173 89.114798 
L 227.069755 200.939917 
L 227.629023 369.150286 
L 227.673409 369.053042 
L 227.913095 367.520217 
L 228.392468 363.110813 
L 229.067141 354.528147 
L 230.798209 331.849892 
L 231.313091 324.110764 
L 231.552777 316.835623 
L 231.703691 305.032815 
L 231.810218 277.748433 
L 231.898991 178.395772 
L 231.987764 80.296061 
L 232.049905 90.311689 
L 232.42275 220.286416 
L 232.928755 369.151888 
L 232.982018 368.992151 
L 233.274968 367.004847 
L 233.772095 362.165702 
L 234.517786 352.33447 
L 235.947027 333.639311 
L 236.577314 324.730985 
L 236.825877 317.812401 
L 236.985668 306.662701 
L 237.101073 279.701743 
L 237.189845 186.583226 
L 237.287495 80.350317 
L 237.340759 89.242135 
L 237.660341 201.113039 
L 238.219609 369.150661 
L 238.263995 369.050934 
L 238.503682 367.516434 
L 238.983055 363.105299 
L 239.657727 354.521067 
L 241.388795 331.843605 
L 241.903677 324.100254 
L 242.143364 316.811843 
L 242.294277 304.965861 
L 242.400805 277.504923 
L 242.489577 177.39476 
L 242.57835 80.292327 
L 242.640491 90.442664 
L 243.022214 223.342164 
L 243.519341 369.151824 
L 243.581482 368.945629 
L 243.909941 366.640622 
L 244.424823 361.436303 
L 245.241532 350.438593 
L 246.546491 333.525889 
L 247.176777 324.546294 
L 247.425341 317.407623 
L 247.585132 305.511926 
L 247.691659 279.472129 
L 247.780432 185.608621 
L 247.878082 80.368068 
L 247.931345 89.369252 
L 248.259805 204.302669 
L 248.810195 369.150981 
L 248.854582 369.048817 
L 249.103145 367.445985 
L 249.591395 362.905206 
L 250.274945 354.140791 
L 251.934995 332.385828 
L 252.485386 324.272763 
L 252.725073 317.1978 
L 252.884864 304.898748 
L 252.991391 277.259465 
L 253.080164 176.391289 
L 253.168936 80.290989 
L 253.231077 90.573956 
L 253.6128 223.504963 
L 254.109927 369.151719 
L 254.172068 368.94306 
L 254.500527 366.636474 
L 255.015409 361.430372 
L 255.832118 350.431491 
L 257.1282 333.627181 
L 257.758486 324.71138 
L 258.00705 317.769905 
L 258.166841 306.54388 
L 258.282245 279.242664 
L 258.371018 184.635607 
L 258.459791 80.379521 
L 258.521932 89.496646 
L 258.850391 204.473183 
L 259.400782 369.151243 
L 259.445168 369.046679 
L 259.693732 367.442169 
L 260.181982 362.89963 
L 260.865532 354.13369 
L 262.525582 332.379611 
L 263.075973 324.262481 
L 263.315659 317.175061 
L 263.47545 304.831529 
L 263.581977 277.012041 
L 263.67075 175.381509 
L 263.759523 80.292214 
L 263.821664 90.70557 
L 264.212264 226.541631 
L 264.700514 369.15158 
L 264.762655 368.940483 
L 265.091114 366.632322 
L 265.605995 361.424436 
L 266.422705 350.424386 
L 267.718786 333.621126 
L 268.349073 324.701588 
L 268.597636 317.748662 
L 268.757427 306.484406 
L 268.872832 279.011557 
L 268.961605 183.658409 
L 269.050377 80.358462 
L 269.112518 89.623992 
L 269.449855 207.636689 
L 269.991368 369.151485 
L 270.035755 369.044562 
L 270.284318 367.438397 
L 270.772568 362.894122 
L 271.456118 354.126676 
L 273.116168 332.373462 
L 273.666559 324.252284 
L 273.906245 317.152474 
L 274.066036 304.764349 
L 274.172564 276.763022 
L 274.261336 174.363924 
L 274.350109 80.295055 
L 274.41225 90.838401 
L 274.811727 229.563588 
L 275.2911 369.151394 
L 275.353241 368.937891 
L 275.6817 366.628157 
L 276.196582 361.418481 
L 277.013291 350.41726 
L 278.309373 333.615039 
L 278.939659 324.691699 
L 279.188223 317.727177 
L 279.348014 306.424179 
L 279.463418 278.777113 
L 279.552191 182.673885 
L 279.640964 80.340468 
L 279.703105 89.751857 
L 280.040441 207.80477 
L 280.581955 369.151689 
L 280.626341 369.04244 
L 280.874905 367.434633 
L 281.363155 362.888624 
L 282.046705 354.119677 
L 283.697877 332.476481 
L 284.257145 324.242091 
L 284.496832 317.12987 
L 284.656623 304.696773 
L 284.76315 276.51066 
L 284.851923 173.344263 
L 284.940695 80.300288 
L 285.002836 90.971083 
L 285.411191 232.570563 
L 285.881686 369.15117 
L 285.943827 368.935315 
L 286.281164 366.550144 
L 286.796045 361.307169 
L 287.630509 350.033036 
L 288.917714 333.394111 
L 289.539123 324.506319 
L 289.787686 317.318649 
L 289.947477 305.253207 
L 290.054005 278.543734 
L 290.142777 181.69662 
L 290.23155 80.325164 
L 290.293691 89.879224 
L 290.639905 210.942462 
L 291.172541 369.151849 
L 291.225805 369.000159 
L 291.518755 367.018201 
L 292.015882 362.184932 
L 292.761573 352.358282 
L 294.199691 333.552274 
L 294.829977 324.589568 
L 295.078541 317.503418 
L 295.238332 305.788884 
L 295.353736 276.257801 
L 295.442509 172.327243 
L 295.531282 80.307908 
L 295.584545 88.820203 
L 295.886373 194.425998 
L 296.472273 369.150903 
L 296.498905 369.091671 
L 296.694205 367.916346 
L 297.1647 363.787031 
L 297.794986 356.022115 
L 300.307255 320.012538 
L 300.4848 310.785734 
L 300.609082 291.41927 
L 300.697855 237.35348 
L 300.822136 80.313194 
L 300.910909 97.510469 
L 301.550073 327.911955 
L 301.736495 369.064308 
L 301.763127 369.151915 
L 301.825268 368.954206 
L 302.14485 366.727612 
L 302.650855 361.66521 
L 303.440932 351.091965 
L 304.772523 333.760731 
L 305.411686 324.75395 
L 305.66025 317.862011 
L 305.820041 306.800952 
L 305.935445 280.233794 
L 306.024218 188.857466 
L 306.121868 80.317516 
L 306.184009 91.238229 
L 306.618995 241.371701 
L 307.062859 369.150613 
L 307.125 368.930121 
L 307.462336 366.541783 
L 307.977218 361.295262 
L 308.811682 350.01888 
L 310.098886 333.381967 
L 310.711418 324.662193 
L 310.959982 317.662825 
L 311.119773 306.243378 
L 311.235177 278.071501 
L 311.32395 179.728805 
L 311.412723 80.304266 
L 311.474864 90.136804 
L 311.838832 217.154472 
L 312.353714 369.151927 
L 312.406977 368.99539 
L 312.699927 367.01023 
L 313.197055 362.173452 
L 313.942745 352.344064 
L 315.380864 333.540155 
L 316.01115 324.569708 
L 316.259714 317.459592 
L 316.419505 305.662523 
L 316.526032 280.008831 
L 316.614805 187.892382 
L 316.712455 80.330224 
L 316.765718 89.07105 
L 317.076423 197.83835 
L 317.653445 369.150263 
L 317.680077 369.088117 
L 317.875377 367.90922 
L 318.345873 363.776502 
L 318.976159 356.008293 
L 321.488427 319.979263 
L 321.665973 310.700506 
L 321.790255 291.131865 
L 321.879027 236.162652 
L 322.003309 80.297741 
L 322.092082 97.813595 
L 322.740123 332.878937 
L 322.917668 369.071455 
L 322.9443 369.151907 
L 323.006441 368.949091 
L 323.3349 366.646226 
L 323.849782 361.444318 
L 324.666491 350.448192 
L 325.97145 333.534081 
L 326.601736 324.559747 
L 326.8503 317.437498 
L 327.010091 305.598563 
L 327.116618 279.781099 
L 327.205391 186.920412 
L 327.303041 80.344777 
L 327.356305 89.198041 
L 327.675886 201.053185 
L 328.235155 369.150537 
L 328.279541 369.051664 
L 328.519227 367.517742 
L 328.9986 363.107205 
L 329.318182 359.308133 
L 329.344814 360.538869 
L 329.522359 363.090648 
L 329.5845 362.999632 
L 329.744291 362.090564 
L 330.303559 357.129877 
L 331.448727 347.449421 
L 332.194418 342.980201 
L 332.80695 340.520482 
L 333.277445 339.4279 
L 333.641414 339.06753 
L 333.934364 339.064301 
L 334.262823 339.308822 
L 334.990759 340.240318 
L 335.532273 340.708888 
L 335.993891 340.825947 
L 336.570914 340.720787 
L 338.213209 340.314748 
L 339.393886 340.378893 
L 341.258114 340.435703 
L 347.605364 340.4146 
L 435.845455 340.415038 
L 435.845455 340.415038 
" clip-path="url(#p3539ee23eb)" style="fill: none; stroke: #ff0000; stroke-width: 1.5; stroke-linecap: square"/>
   </g>
   <g id="patch_3">
    <path d="M 63 384.48 
L 63 51.84 
" style="fill: none; stroke: #000000; stroke-width: 0.8; stroke-linejoin: miter; stroke-linecap: square"/>
   </g>
   <g id="patch_4">
    <path d="M 453.6 384.48 
L 453.6 51.84 
" style="fill: none; stroke: #000000; stroke-width: 0.8; stroke-linejoin: miter; stroke-linecap: square"/>
   </g>
   <g id="patch_5">
    <path d="M 63 384.48 
L 453.6 384.48 
" style="fill: none; stroke: #000000; stroke-width: 0.8; stroke-linejoin: miter; stroke-linecap: square"/>
   </g>
   <g id="patch_6">
    <path d="M 63 51.84 
L 453.6 51.84 
" style="fill: none; stroke: #000000; stroke-width: 0.8; stroke-linejoin: miter; stroke-linecap: square"/>
   </g>
   <g id="legend_1">
    <g id="patch_7">
     <path d="M 383.460938 89.19625 
L 446.6 89.19625 
Q 448.6 89.19625 448.6 87.19625 
L 448.6 58.84 
Q 448.6 56.84 446.6 56.84 
L 383.460938 56.84 
Q 381.460938 56.84 381.460938 58.84 
L 381.460938 87.19625 
Q 381.460938 89.19625 383.460938 89.19625 
z
" style="fill: #ffffff; opacity: 0.8; stroke: #cccccc; stroke-linejoin: miter"/>
    </g>
    <g id="line2d_15">
     <path d="M 385.460938 64.938437 
L 395.460938 64.938437 
L 405.460938 64.938437 
" style="fill: none; stroke: #1f77b4; stroke-width: 1.5; stroke-linecap: square"/>
    </g>
    <g id="text_15">
     <!-- target -->
     <g transform="translate(413.460938 68.438437)scale(0.1 -0.1)">
      <defs>
       <path id="DejaVuSans-72" d="M 2631 2963 
Q 2534 3019 2420 3045 
Q 2306 3072 2169 3072 
Q 1681 3072 1420 2755 
Q 1159 2438 1159 1844 
L 1159 0 
L 581 0 
L 581 3500 
L 1159 3500 
L 1159 2956 
Q 1341 3275 1631 3429 
Q 1922 3584 2338 3584 
Q 2397 3584 2469 3576 
Q 2541 3569 2628 3553 
L 2631 2963 
z
" transform="scale(0.015625)"/>
      </defs>
      <use xlink:href="#DejaVuSans-74"/>
      <use xlink:href="#DejaVuSans-61" x="39.208984"/>
      <use xlink:href="#DejaVuSans-72" x="100.488281"/>
      <use xlink:href="#DejaVuSans-67" x="139.851562"/>
      <use xlink:href="#DejaVuSans-65" x="203.328125"/>
      <use xlink:href="#DejaVuSans-74" x="264.851562"/>
     </g>
    </g>
    <g id="line2d_16">
     <path d="M 385.460938 79.616562 
L 395.460938 79.616562 
L 405.460938 79.616562 
" style="fill: none; stroke: #ff0000; stroke-width: 1.5; stroke-linecap: square"/>
    </g>
    <g id="text_16">
     <!-- model -->
     <g transform="translate(413.460938 83.116562)scale(0.1 -0.1)">
      <defs>
       <path id="DejaVuSans-64" d="M 2906 2969 
L 2906 4863 
L 3481 4863 
L 3481 0 
L 2906 0 
L 2906 525 
Q 2725 213 2448 61 
Q 2172 -91 1784 -91 
Q 1150 -91 751 415 
Q 353 922 353 1747 
Q 353 2572 751 3078 
Q 1150 3584 1784 3584 
Q 2172 3584 2448 3432 
Q 2725 3281 2906 2969 
z
M 947 1747 
Q 947 1113 1208 752 
Q 1469 391 1925 391 
Q 2381 391 2643 752 
Q 2906 1113 2906 1747 
Q 2906 2381 2643 2742 
Q 2381 3103 1925 3103 
Q 1469 3103 1208 2742 
Q 947 2381 947 1747 
z
" transform="scale(0.015625)"/>
      </defs>
      <use xlink:href="#DejaVuSans-6d"/>
      <use xlink:href="#DejaVuSans-6f" x="97.412109"/>
      <use xlink:href="#DejaVuSans-64" x="158.59375"/>
      <use xlink:href="#DejaVuSans-65" x="222.070312"/>
      <use xlink:href="#DejaVuSans-6c" x="283.59375"/>
     </g>
    </g>
   </g>
  </g>
 </g>
 <defs>
  <clipPath id="p3539ee23eb">
   <rect x="63" y="51.84" width="390.6" height="332.64"/>
  </clipPath>
 </defs>
</svg>
