<?xml version="1.0" encoding="utf-8" standalone="no"?>
<!DOCTYPE svg PUBLIC "-//W3C//DTD SVG 1.1//EN"
  "http://www.w3.org/Graphics/SVG/1.1/DTD/svg11.dtd">
<svg xmlns:xlink="http://www.w3.org/1999/xlink" width="504pt" height="432pt" viewBox="0 0 504 432" xmlns="http://www.w3.org/2000/svg" version="1.1">
 <metadata>
  <rdf:RDF xmlns:dc="http://purl.org/dc/elements/1.1/" xmlns:cc="http://creativecommons.org/ns#" xmlns:rdf="http://www.w3.org/1999/02/22-rdf-syntax-ns#">
   <cc:Work>
    <dc:type rdf:resource="http://purl.org/dc/dcmitype/StillImage"/>
    <dc:date>2022-02-01T16:28:58.730444</dc:date>
    <dc:format>image/svg+xml</dc:format>
    <dc:creator>
     <cc:Agent>
      <dc:title>Matplotlib v3.5.1, https://matplotlib.org/</dc:title>
     </cc:Agent>
    </dc:creator>
   </cc:Work>
  </rdf:RDF>
 </metadata>
 <defs>
  <style type="text/css">*{stroke-linejoin: round; stroke-linecap: butt}</style>
 </defs>
 <g id="figure_1">
  <g id="patch_1">
   <path d="M 0 432 
L 504 432 
L 504 0 
L 0 0 
z
" style="fill: #ffffff"/>
  </g>
  <g id="axes_1">
   <g id="patch_2">
    <path d="M 63 384.48 
L 453.6 384.48 
L 453.6 51.84 
L 63 51.84 
z
" style="fill: #ffffff"/>
   </g>
   <g id="matplotlib.axis_1">
    <g id="xtick_1">
     <g id="line2d_1">
      <defs>
       <path id="m7ddf375dab" d="M 0 0 
L 0 3.5 
" style="stroke: #000000; stroke-width: 0.8"/>
      </defs>
      <g>
       <use xlink:href="#m7ddf375dab" x="80.754545" y="384.48" style="stroke: #000000; stroke-width: 0.8"/>
      </g>
     </g>
     <g id="text_1">
      <!-- 0 -->
      <g transform="translate(77.573295 399.078438)scale(0.1 -0.1)">
       <defs>
        <path id="DejaVuSans-30" d="M 2034 4250 
Q 1547 4250 1301 3770 
Q 1056 3291 1056 2328 
Q 1056 1369 1301 889 
Q 1547 409 2034 409 
Q 2525 409 2770 889 
Q 3016 1369 3016 2328 
Q 3016 3291 2770 3770 
Q 2525 4250 2034 4250 
z
M 2034 4750 
Q 2819 4750 3233 4129 
Q 3647 3509 3647 2328 
Q 3647 1150 3233 529 
Q 2819 -91 2034 -91 
Q 1250 -91 836 529 
Q 422 1150 422 2328 
Q 422 3509 836 4129 
Q 1250 4750 2034 4750 
z
" transform="scale(0.015625)"/>
       </defs>
       <use xlink:href="#DejaVuSans-30"/>
      </g>
     </g>
    </g>
    <g id="xtick_2">
     <g id="line2d_2">
      <g>
       <use xlink:href="#m7ddf375dab" x="151.772727" y="384.48" style="stroke: #000000; stroke-width: 0.8"/>
      </g>
     </g>
     <g id="text_2">
      <!-- 200 -->
      <g transform="translate(142.228977 399.078438)scale(0.1 -0.1)">
       <defs>
        <path id="DejaVuSans-32" d="M 1228 531 
L 3431 531 
L 3431 0 
L 469 0 
L 469 531 
Q 828 903 1448 1529 
Q 2069 2156 2228 2338 
Q 2531 2678 2651 2914 
Q 2772 3150 2772 3378 
Q 2772 3750 2511 3984 
Q 2250 4219 1831 4219 
Q 1534 4219 1204 4116 
Q 875 4013 500 3803 
L 500 4441 
Q 881 4594 1212 4672 
Q 1544 4750 1819 4750 
Q 2544 4750 2975 4387 
Q 3406 4025 3406 3419 
Q 3406 3131 3298 2873 
Q 3191 2616 2906 2266 
Q 2828 2175 2409 1742 
Q 1991 1309 1228 531 
z
" transform="scale(0.015625)"/>
       </defs>
       <use xlink:href="#DejaVuSans-32"/>
       <use xlink:href="#DejaVuSans-30" x="63.623047"/>
       <use xlink:href="#DejaVuSans-30" x="127.246094"/>
      </g>
     </g>
    </g>
    <g id="xtick_3">
     <g id="line2d_3">
      <g>
       <use xlink:href="#m7ddf375dab" x="222.790909" y="384.48" style="stroke: #000000; stroke-width: 0.8"/>
      </g>
     </g>
     <g id="text_3">
      <!-- 400 -->
      <g transform="translate(213.247159 399.078438)scale(0.1 -0.1)">
       <defs>
        <path id="DejaVuSans-34" d="M 2419 4116 
L 825 1625 
L 2419 1625 
L 2419 4116 
z
M 2253 4666 
L 3047 4666 
L 3047 1625 
L 3713 1625 
L 3713 1100 
L 3047 1100 
L 3047 0 
L 2419 0 
L 2419 1100 
L 313 1100 
L 313 1709 
L 2253 4666 
z
" transform="scale(0.015625)"/>
       </defs>
       <use xlink:href="#DejaVuSans-34"/>
       <use xlink:href="#DejaVuSans-30" x="63.623047"/>
       <use xlink:href="#DejaVuSans-30" x="127.246094"/>
      </g>
     </g>
    </g>
    <g id="xtick_4">
     <g id="line2d_4">
      <g>
       <use xlink:href="#m7ddf375dab" x="293.809091" y="384.48" style="stroke: #000000; stroke-width: 0.8"/>
      </g>
     </g>
     <g id="text_4">
      <!-- 600 -->
      <g transform="translate(284.265341 399.078438)scale(0.1 -0.1)">
       <defs>
        <path id="DejaVuSans-36" d="M 2113 2584 
Q 1688 2584 1439 2293 
Q 1191 2003 1191 1497 
Q 1191 994 1439 701 
Q 1688 409 2113 409 
Q 2538 409 2786 701 
Q 3034 994 3034 1497 
Q 3034 2003 2786 2293 
Q 2538 2584 2113 2584 
z
M 3366 4563 
L 3366 3988 
Q 3128 4100 2886 4159 
Q 2644 4219 2406 4219 
Q 1781 4219 1451 3797 
Q 1122 3375 1075 2522 
Q 1259 2794 1537 2939 
Q 1816 3084 2150 3084 
Q 2853 3084 3261 2657 
Q 3669 2231 3669 1497 
Q 3669 778 3244 343 
Q 2819 -91 2113 -91 
Q 1303 -91 875 529 
Q 447 1150 447 2328 
Q 447 3434 972 4092 
Q 1497 4750 2381 4750 
Q 2619 4750 2861 4703 
Q 3103 4656 3366 4563 
z
" transform="scale(0.015625)"/>
       </defs>
       <use xlink:href="#DejaVuSans-36"/>
       <use xlink:href="#DejaVuSans-30" x="63.623047"/>
       <use xlink:href="#DejaVuSans-30" x="127.246094"/>
      </g>
     </g>
    </g>
    <g id="xtick_5">
     <g id="line2d_5">
      <g>
       <use xlink:href="#m7ddf375dab" x="364.827273" y="384.48" style="stroke: #000000; stroke-width: 0.8"/>
      </g>
     </g>
     <g id="text_5">
      <!-- 800 -->
      <g transform="translate(355.283523 399.078438)scale(0.1 -0.1)">
       <defs>
        <path id="DejaVuSans-38" d="M 2034 2216 
Q 1584 2216 1326 1975 
Q 1069 1734 1069 1313 
Q 1069 891 1326 650 
Q 1584 409 2034 409 
Q 2484 409 2743 651 
Q 3003 894 3003 1313 
Q 3003 1734 2745 1975 
Q 2488 2216 2034 2216 
z
M 1403 2484 
Q 997 2584 770 2862 
Q 544 3141 544 3541 
Q 544 4100 942 4425 
Q 1341 4750 2034 4750 
Q 2731 4750 3128 4425 
Q 3525 4100 3525 3541 
Q 3525 3141 3298 2862 
Q 3072 2584 2669 2484 
Q 3125 2378 3379 2068 
Q 3634 1759 3634 1313 
Q 3634 634 3220 271 
Q 2806 -91 2034 -91 
Q 1263 -91 848 271 
Q 434 634 434 1313 
Q 434 1759 690 2068 
Q 947 2378 1403 2484 
z
M 1172 3481 
Q 1172 3119 1398 2916 
Q 1625 2713 2034 2713 
Q 2441 2713 2670 2916 
Q 2900 3119 2900 3481 
Q 2900 3844 2670 4047 
Q 2441 4250 2034 4250 
Q 1625 4250 1398 4047 
Q 1172 3844 1172 3481 
z
" transform="scale(0.015625)"/>
       </defs>
       <use xlink:href="#DejaVuSans-38"/>
       <use xlink:href="#DejaVuSans-30" x="63.623047"/>
       <use xlink:href="#DejaVuSans-30" x="127.246094"/>
      </g>
     </g>
    </g>
    <g id="text_6">
     <!-- time [ms] -->
     <g transform="translate(234.038281 412.756563)scale(0.1 -0.1)">
      <defs>
       <path id="DejaVuSans-74" d="M 1172 4494 
L 1172 3500 
L 2356 3500 
L 2356 3053 
L 1172 3053 
L 1172 1153 
Q 1172 725 1289 603 
Q 1406 481 1766 481 
L 2356 481 
L 2356 0 
L 1766 0 
Q 1100 0 847 248 
Q 594 497 594 1153 
L 594 3053 
L 172 3053 
L 172 3500 
L 594 3500 
L 594 4494 
L 1172 4494 
z
" transform="scale(0.015625)"/>
       <path id="DejaVuSans-69" d="M 603 3500 
L 1178 3500 
L 1178 0 
L 603 0 
L 603 3500 
z
M 603 4863 
L 1178 4863 
L 1178 4134 
L 603 4134 
L 603 4863 
z
" transform="scale(0.015625)"/>
       <path id="DejaVuSans-6d" d="M 3328 2828 
Q 3544 3216 3844 3400 
Q 4144 3584 4550 3584 
Q 5097 3584 5394 3201 
Q 5691 2819 5691 2113 
L 5691 0 
L 5113 0 
L 5113 2094 
Q 5113 2597 4934 2840 
Q 4756 3084 4391 3084 
Q 3944 3084 3684 2787 
Q 3425 2491 3425 1978 
L 3425 0 
L 2847 0 
L 2847 2094 
Q 2847 2600 2669 2842 
Q 2491 3084 2119 3084 
Q 1678 3084 1418 2786 
Q 1159 2488 1159 1978 
L 1159 0 
L 581 0 
L 581 3500 
L 1159 3500 
L 1159 2956 
Q 1356 3278 1631 3431 
Q 1906 3584 2284 3584 
Q 2666 3584 2933 3390 
Q 3200 3197 3328 2828 
z
" transform="scale(0.015625)"/>
       <path id="DejaVuSans-65" d="M 3597 1894 
L 3597 1613 
L 953 1613 
Q 991 1019 1311 708 
Q 1631 397 2203 397 
Q 2534 397 2845 478 
Q 3156 559 3463 722 
L 3463 178 
Q 3153 47 2828 -22 
Q 2503 -91 2169 -91 
Q 1331 -91 842 396 
Q 353 884 353 1716 
Q 353 2575 817 3079 
Q 1281 3584 2069 3584 
Q 2775 3584 3186 3129 
Q 3597 2675 3597 1894 
z
M 3022 2063 
Q 3016 2534 2758 2815 
Q 2500 3097 2075 3097 
Q 1594 3097 1305 2825 
Q 1016 2553 972 2059 
L 3022 2063 
z
" transform="scale(0.015625)"/>
       <path id="DejaVuSans-20" transform="scale(0.015625)"/>
       <path id="DejaVuSans-5b" d="M 550 4863 
L 1875 4863 
L 1875 4416 
L 1125 4416 
L 1125 -397 
L 1875 -397 
L 1875 -844 
L 550 -844 
L 550 4863 
z
" transform="scale(0.015625)"/>
       <path id="DejaVuSans-73" d="M 2834 3397 
L 2834 2853 
Q 2591 2978 2328 3040 
Q 2066 3103 1784 3103 
Q 1356 3103 1142 2972 
Q 928 2841 928 2578 
Q 928 2378 1081 2264 
Q 1234 2150 1697 2047 
L 1894 2003 
Q 2506 1872 2764 1633 
Q 3022 1394 3022 966 
Q 3022 478 2636 193 
Q 2250 -91 1575 -91 
Q 1294 -91 989 -36 
Q 684 19 347 128 
L 347 722 
Q 666 556 975 473 
Q 1284 391 1588 391 
Q 1994 391 2212 530 
Q 2431 669 2431 922 
Q 2431 1156 2273 1281 
Q 2116 1406 1581 1522 
L 1381 1569 
Q 847 1681 609 1914 
Q 372 2147 372 2553 
Q 372 3047 722 3315 
Q 1072 3584 1716 3584 
Q 2034 3584 2315 3537 
Q 2597 3491 2834 3397 
z
" transform="scale(0.015625)"/>
       <path id="DejaVuSans-5d" d="M 1947 4863 
L 1947 -844 
L 622 -844 
L 622 -397 
L 1369 -397 
L 1369 4416 
L 622 4416 
L 622 4863 
L 1947 4863 
z
" transform="scale(0.015625)"/>
      </defs>
      <use xlink:href="#DejaVuSans-74"/>
      <use xlink:href="#DejaVuSans-69" x="39.208984"/>
      <use xlink:href="#DejaVuSans-6d" x="66.992188"/>
      <use xlink:href="#DejaVuSans-65" x="164.404297"/>
      <use xlink:href="#DejaVuSans-20" x="225.927734"/>
      <use xlink:href="#DejaVuSans-5b" x="257.714844"/>
      <use xlink:href="#DejaVuSans-6d" x="296.728516"/>
      <use xlink:href="#DejaVuSans-73" x="394.140625"/>
      <use xlink:href="#DejaVuSans-5d" x="446.240234"/>
     </g>
    </g>
   </g>
   <g id="matplotlib.axis_2">
    <g id="ytick_1">
     <g id="line2d_6">
      <defs>
       <path id="m25553230a6" d="M 0 0 
L -3.5 0 
" style="stroke: #000000; stroke-width: 0.8"/>
      </defs>
      <g>
       <use xlink:href="#m25553230a6" x="63" y="380.546369" style="stroke: #000000; stroke-width: 0.8"/>
      </g>
     </g>
     <g id="text_7">
      <!-- −80 -->
      <g transform="translate(34.895313 384.345588)scale(0.1 -0.1)">
       <defs>
        <path id="DejaVuSans-2212" d="M 678 2272 
L 4684 2272 
L 4684 1741 
L 678 1741 
L 678 2272 
z
" transform="scale(0.015625)"/>
       </defs>
       <use xlink:href="#DejaVuSans-2212"/>
       <use xlink:href="#DejaVuSans-38" x="83.789062"/>
       <use xlink:href="#DejaVuSans-30" x="147.412109"/>
      </g>
     </g>
    </g>
    <g id="ytick_2">
     <g id="line2d_7">
      <g>
       <use xlink:href="#m25553230a6" x="63" y="329.262354" style="stroke: #000000; stroke-width: 0.8"/>
      </g>
     </g>
     <g id="text_8">
      <!-- −60 -->
      <g transform="translate(34.895313 333.061572)scale(0.1 -0.1)">
       <use xlink:href="#DejaVuSans-2212"/>
       <use xlink:href="#DejaVuSans-36" x="83.789062"/>
       <use xlink:href="#DejaVuSans-30" x="147.412109"/>
      </g>
     </g>
    </g>
    <g id="ytick_3">
     <g id="line2d_8">
      <g>
       <use xlink:href="#m25553230a6" x="63" y="277.978338" style="stroke: #000000; stroke-width: 0.8"/>
      </g>
     </g>
     <g id="text_9">
      <!-- −40 -->
      <g transform="translate(34.895313 281.777557)scale(0.1 -0.1)">
       <use xlink:href="#DejaVuSans-2212"/>
       <use xlink:href="#DejaVuSans-34" x="83.789062"/>
       <use xlink:href="#DejaVuSans-30" x="147.412109"/>
      </g>
     </g>
    </g>
    <g id="ytick_4">
     <g id="line2d_9">
      <g>
       <use xlink:href="#m25553230a6" x="63" y="226.694322" style="stroke: #000000; stroke-width: 0.8"/>
      </g>
     </g>
     <g id="text_10">
      <!-- −20 -->
      <g transform="translate(34.895313 230.493541)scale(0.1 -0.1)">
       <use xlink:href="#DejaVuSans-2212"/>
       <use xlink:href="#DejaVuSans-32" x="83.789062"/>
       <use xlink:href="#DejaVuSans-30" x="147.412109"/>
      </g>
     </g>
    </g>
    <g id="ytick_5">
     <g id="line2d_10">
      <g>
       <use xlink:href="#m25553230a6" x="63" y="175.410307" style="stroke: #000000; stroke-width: 0.8"/>
      </g>
     </g>
     <g id="text_11">
      <!-- 0 -->
      <g transform="translate(49.6375 179.209525)scale(0.1 -0.1)">
       <use xlink:href="#DejaVuSans-30"/>
      </g>
     </g>
    </g>
    <g id="ytick_6">
     <g id="line2d_11">
      <g>
       <use xlink:href="#m25553230a6" x="63" y="124.126291" style="stroke: #000000; stroke-width: 0.8"/>
      </g>
     </g>
     <g id="text_12">
      <!-- 20 -->
      <g transform="translate(43.275 127.92551)scale(0.1 -0.1)">
       <use xlink:href="#DejaVuSans-32"/>
       <use xlink:href="#DejaVuSans-30" x="63.623047"/>
      </g>
     </g>
    </g>
    <g id="ytick_7">
     <g id="line2d_12">
      <g>
       <use xlink:href="#m25553230a6" x="63" y="72.842275" style="stroke: #000000; stroke-width: 0.8"/>
      </g>
     </g>
     <g id="text_13">
      <!-- 40 -->
      <g transform="translate(43.275 76.641494)scale(0.1 -0.1)">
       <use xlink:href="#DejaVuSans-34"/>
       <use xlink:href="#DejaVuSans-30" x="63.623047"/>
      </g>
     </g>
    </g>
    <g id="text_14">
     <!-- voltage [mV] -->
     <g transform="translate(28.815625 250.624062)rotate(-90)scale(0.1 -0.1)">
      <defs>
       <path id="DejaVuSans-76" d="M 191 3500 
L 800 3500 
L 1894 563 
L 2988 3500 
L 3597 3500 
L 2284 0 
L 1503 0 
L 191 3500 
z
" transform="scale(0.015625)"/>
       <path id="DejaVuSans-6f" d="M 1959 3097 
Q 1497 3097 1228 2736 
Q 959 2375 959 1747 
Q 959 1119 1226 758 
Q 1494 397 1959 397 
Q 2419 397 2687 759 
Q 2956 1122 2956 1747 
Q 2956 2369 2687 2733 
Q 2419 3097 1959 3097 
z
M 1959 3584 
Q 2709 3584 3137 3096 
Q 3566 2609 3566 1747 
Q 3566 888 3137 398 
Q 2709 -91 1959 -91 
Q 1206 -91 779 398 
Q 353 888 353 1747 
Q 353 2609 779 3096 
Q 1206 3584 1959 3584 
z
" transform="scale(0.015625)"/>
       <path id="DejaVuSans-6c" d="M 603 4863 
L 1178 4863 
L 1178 0 
L 603 0 
L 603 4863 
z
" transform="scale(0.015625)"/>
       <path id="DejaVuSans-61" d="M 2194 1759 
Q 1497 1759 1228 1600 
Q 959 1441 959 1056 
Q 959 750 1161 570 
Q 1363 391 1709 391 
Q 2188 391 2477 730 
Q 2766 1069 2766 1631 
L 2766 1759 
L 2194 1759 
z
M 3341 1997 
L 3341 0 
L 2766 0 
L 2766 531 
Q 2569 213 2275 61 
Q 1981 -91 1556 -91 
Q 1019 -91 701 211 
Q 384 513 384 1019 
Q 384 1609 779 1909 
Q 1175 2209 1959 2209 
L 2766 2209 
L 2766 2266 
Q 2766 2663 2505 2880 
Q 2244 3097 1772 3097 
Q 1472 3097 1187 3025 
Q 903 2953 641 2809 
L 641 3341 
Q 956 3463 1253 3523 
Q 1550 3584 1831 3584 
Q 2591 3584 2966 3190 
Q 3341 2797 3341 1997 
z
" transform="scale(0.015625)"/>
       <path id="DejaVuSans-67" d="M 2906 1791 
Q 2906 2416 2648 2759 
Q 2391 3103 1925 3103 
Q 1463 3103 1205 2759 
Q 947 2416 947 1791 
Q 947 1169 1205 825 
Q 1463 481 1925 481 
Q 2391 481 2648 825 
Q 2906 1169 2906 1791 
z
M 3481 434 
Q 3481 -459 3084 -895 
Q 2688 -1331 1869 -1331 
Q 1566 -1331 1297 -1286 
Q 1028 -1241 775 -1147 
L 775 -588 
Q 1028 -725 1275 -790 
Q 1522 -856 1778 -856 
Q 2344 -856 2625 -561 
Q 2906 -266 2906 331 
L 2906 616 
Q 2728 306 2450 153 
Q 2172 0 1784 0 
Q 1141 0 747 490 
Q 353 981 353 1791 
Q 353 2603 747 3093 
Q 1141 3584 1784 3584 
Q 2172 3584 2450 3431 
Q 2728 3278 2906 2969 
L 2906 3500 
L 3481 3500 
L 3481 434 
z
" transform="scale(0.015625)"/>
       <path id="DejaVuSans-56" d="M 1831 0 
L 50 4666 
L 709 4666 
L 2188 738 
L 3669 4666 
L 4325 4666 
L 2547 0 
L 1831 0 
z
" transform="scale(0.015625)"/>
      </defs>
      <use xlink:href="#DejaVuSans-76"/>
      <use xlink:href="#DejaVuSans-6f" x="59.179688"/>
      <use xlink:href="#DejaVuSans-6c" x="120.361328"/>
      <use xlink:href="#DejaVuSans-74" x="148.144531"/>
      <use xlink:href="#DejaVuSans-61" x="187.353516"/>
      <use xlink:href="#DejaVuSans-67" x="248.632812"/>
      <use xlink:href="#DejaVuSans-65" x="312.109375"/>
      <use xlink:href="#DejaVuSans-20" x="373.632812"/>
      <use xlink:href="#DejaVuSans-5b" x="405.419922"/>
      <use xlink:href="#DejaVuSans-6d" x="444.433594"/>
      <use xlink:href="#DejaVuSans-56" x="541.845703"/>
      <use xlink:href="#DejaVuSans-5d" x="610.253906"/>
     </g>
    </g>
   </g>
   <g id="line2d_13">
    <path d="M 80.754545 342.083358 
L 81.970732 341.949763 
L 83.808327 342.007457 
L 87.838609 342.012842 
L 151.772727 342.015919 
L 152.314241 298.522458 
L 152.420768 251.012177 
L 152.562805 73.673589 
L 152.678209 98.307866 
L 153.565936 367.958195 
L 153.610323 367.859986 
L 153.8145 366.513011 
L 154.293873 361.869244 
L 154.959668 352.958902 
L 157.42755 314.967191 
L 157.613973 304.097287 
L 157.738255 282.639799 
L 157.835905 221.530278 
L 157.969064 97.471167 
L 158.031205 110.319352 
L 158.883423 367.543564 
L 158.945564 367.364326 
L 159.203005 365.430919 
L 159.717886 359.889168 
L 160.534595 348.237952 
L 161.8218 330.527017 
L 162.514227 320.400219 
L 162.771668 313.053528 
L 162.940336 301.339489 
L 163.064618 274.019981 
L 163.162268 191.572797 
L 163.268795 98.370176 
L 163.322059 107.663353 
L 163.863573 298.250653 
L 164.147645 367.370993 
L 164.183155 367.512537 
L 164.245295 367.33535 
L 164.493859 365.475792 
L 165.008741 359.953273 
L 165.834327 348.181796 
L 167.112655 330.599841 
L 167.813959 320.365603 
L 168.0714 313.009423 
L 168.240068 301.256922 
L 168.36435 273.779459 
L 168.462 190.844436 
L 168.568527 98.445307 
L 168.621791 107.880284 
L 169.172182 302.111057 
L 169.4385 367.287144 
L 169.482886 367.510485 
L 169.545027 367.329453 
L 169.802468 365.388096 
L 170.31735 359.828909 
L 171.151814 347.899478 
L 172.430141 330.362652 
L 173.113691 320.347653 
L 173.371132 312.973781 
L 173.5398 301.163329 
L 173.664082 273.44919 
L 173.761732 189.719752 
L 173.868259 98.461718 
L 173.921523 108.110806 
L 174.480791 306.088133 
L 174.729355 367.180216 
L 174.782618 367.510485 
L 174.844759 367.32535 
L 175.1022 365.380917 
L 175.617082 359.818396 
L 176.451545 347.886913 
L 177.729873 330.352139 
L 178.413423 320.331242 
L 178.670864 312.938651 
L 178.839532 301.068453 
L 178.963814 273.110203 
L 179.061464 188.562144 
L 179.167991 98.478642 
L 179.221255 108.343891 
L 179.7894 310.165981 
L 180.029086 367.192268 
L 180.08235 367.510742 
L 180.144491 367.320991 
L 180.401932 365.373737 
L 180.916814 359.808139 
L 181.751277 347.874861 
L 183.029605 330.341882 
L 183.713155 320.314575 
L 183.970595 312.903265 
L 184.139264 300.972552 
L 184.263545 272.763266 
L 184.361195 187.384176 
L 184.467723 98.501976 
L 184.520986 108.580567 
L 185.098009 314.333577 
L 185.328818 367.204063 
L 185.382082 367.510742 
L 185.444223 367.316888 
L 185.701664 365.366301 
L 186.216545 359.797882 
L 187.051009 347.862553 
L 188.329336 330.331625 
L 189.012886 320.298164 
L 189.270327 312.867623 
L 189.438995 300.875112 
L 189.563277 272.411202 
L 189.660927 186.201515 
L 189.767455 98.530952 
L 189.820718 108.819551 
L 190.406618 318.571688 
L 190.619673 367.073289 
L 190.681814 367.510485 
L 190.743955 367.312529 
L 191.010273 365.279631 
L 191.525155 359.675313 
L 192.368495 347.583568 
L 193.637945 330.208544 
L 194.312618 320.28124 
L 194.570059 312.831981 
L 194.738727 300.77716 
L 194.863009 272.055803 
L 194.969536 171.963636 
L 195.058309 98.517874 
L 195.12045 109.061098 
L 195.715227 322.854929 
L 195.919405 367.088418 
L 195.981545 367.510485 
L 196.043686 367.30817 
L 196.310005 365.272195 
L 196.833764 359.552232 
L 197.703736 347.038676 
L 198.955432 329.972894 
L 199.61235 320.264573 
L 199.869791 312.795825 
L 200.038459 300.678182 
L 200.162741 271.693225 
L 200.269268 170.729461 
L 200.358041 98.489155 
L 200.420182 109.306749 
L 201.023836 327.147144 
L 201.219136 367.102777 
L 201.281277 367.509973 
L 201.343418 367.303811 
L 201.609736 365.264758 
L 202.133495 359.541462 
L 202.994591 347.159193 
L 204.255164 329.96238 
L 204.912082 320.247393 
L 205.169523 312.759157 
L 205.338191 300.577665 
L 205.462473 271.323211 
L 205.569 169.487003 
L 205.657773 98.467359 
L 205.719914 109.554194 
L 206.332445 331.40141 
L 206.518868 367.117137 
L 206.581009 367.509716 
L 206.634273 367.344838 
L 206.873959 365.571693 
L 207.388841 360.089945 
L 208.187795 348.746946 
L 209.510509 330.514196 
L 210.202936 320.410476 
L 210.460377 313.106094 
L 210.629045 301.518727 
L 210.753327 274.71052 
L 210.850977 194.074278 
L 210.957505 98.452487 
L 211.019645 109.802665 
L 211.641055 335.564903 
L 211.827477 367.25945 
L 211.880741 367.509203 
L 211.934005 367.340735 
L 212.182568 365.486562 
L 212.69745 359.968658 
L 213.514159 348.333853 
L 214.810241 330.503683 
L 215.502668 320.393809 
L 215.760109 313.070964 
L 215.928777 301.424621 
L 216.053059 274.378969 
L 216.150709 192.922439 
L 216.257236 98.446333 
L 216.319377 110.050624 
L 216.949664 339.575569 
L 217.127209 367.269707 
L 217.171595 367.509716 
L 217.233736 367.336633 
L 217.4823 365.479382 
L 217.997182 359.958401 
L 218.822768 348.18795 
L 220.101095 330.605482 
L 220.8024 320.377142 
L 221.059841 313.036091 
L 221.228509 301.330771 
L 221.352791 274.046136 
L 221.450441 191.771164 
L 221.556968 98.446846 
L 221.610232 107.699508 
L 222.151745 298.304758 
L 222.426941 367.279451 
L 222.471327 367.509973 
L 222.533468 367.33253 
L 222.782032 365.472202 
L 223.296914 359.948144 
L 224.1225 348.175386 
L 225.418582 330.370601 
L 226.111009 320.179698 
L 226.36845 312.613254 
L 226.537118 300.173804 
L 226.652523 273.710739 
L 226.750173 190.615299 
L 226.8567 98.452743 
L 226.909964 107.931568 
L 227.460355 302.18465 
L 227.726673 367.288938 
L 227.771059 367.510485 
L 227.8332 367.328427 
L 228.090641 365.386301 
L 228.605523 359.826345 
L 229.439986 347.896401 
L 230.718314 330.360088 
L 231.401864 320.343807 
L 231.659305 312.965576 
L 231.827973 301.141789 
L 231.952255 273.373033 
L 232.049905 189.459229 
L 232.156432 98.465308 
L 232.209695 108.163372 
L 232.768964 306.164802 
L 233.017527 367.183037 
L 233.070791 367.510485 
L 233.132932 367.324324 
L 233.390373 365.379122 
L 233.905255 359.816088 
L 234.739718 347.884093 
L 236.018045 330.349831 
L 236.701595 320.327396 
L 236.959036 312.930702 
L 237.127705 301.046914 
L 237.251986 273.032251 
L 237.349636 188.296544 
L 237.456164 98.483257 
L 237.509427 108.397483 
L 238.077573 310.244959 
L 238.317259 367.194832 
L 238.370523 367.510742 
L 238.432664 367.320222 
L 238.690105 365.371942 
L 239.204986 359.805831 
L 240.03945 347.872041 
L 241.317777 330.339574 
L 242.001327 320.310985 
L 242.258768 312.895316 
L 242.427436 300.9505 
L 242.551718 272.68352 
L 242.649368 187.115832 
L 242.755895 98.50813 
L 242.809159 108.634672 
L 243.386182 314.414349 
L 243.616991 367.206628 
L 243.670255 367.510742 
L 243.732395 367.315863 
L 243.989836 365.364762 
L 244.504718 359.795575 
L 245.348059 347.726394 
L 246.617509 330.329061 
L 247.301059 320.294318 
L 247.5585 312.859674 
L 247.727168 300.852804 
L 247.85145 272.330942 
L 247.9491 185.932017 
L 248.055627 98.538644 
L 248.108891 108.874168 
L 248.694791 318.654255 
L 248.907845 367.076879 
L 248.969986 367.510485 
L 249.032127 367.31176 
L 249.298445 365.278092 
L 249.822205 359.560437 
L 250.692177 347.04842 
L 251.943873 329.981099 
L 252.600791 320.277394 
L 252.858232 312.823775 
L 253.0269 300.754595 
L 253.151182 271.973749 
L 253.257709 171.682651 
L 253.346482 98.510694 
L 253.408623 109.116998 
L 254.0034 322.939035 
L 254.207577 367.091751 
L 254.269718 367.510229 
L 254.331859 367.307401 
L 254.598177 365.270656 
L 255.121936 359.549668 
L 255.983032 347.168937 
L 257.22585 330.195723 
L 257.900523 320.260727 
L 258.157964 312.78762 
L 258.326632 300.65536 
L 258.450914 271.609376 
L 258.557441 170.445937 
L 258.646214 98.483514 
L 258.708355 109.363418 
L 259.312009 327.23125 
L 259.507309 367.106111 
L 259.56945 367.509973 
L 259.631591 367.302785 
L 259.897909 365.262963 
L 260.421668 359.539154 
L 261.291641 347.023547 
L 262.525582 330.18521 
L 263.200255 320.243547 
L 263.457695 312.750952 
L 263.626364 300.554587 
L 263.750645 271.23808 
L 263.857173 169.202966 
L 263.945945 98.463257 
L 264.008086 109.610863 
L 264.620618 331.484234 
L 264.807041 367.12047 
L 264.869182 367.50946 
L 264.922445 367.344069 
L 265.171009 365.492203 
L 265.685891 359.976863 
L 266.511477 348.210003 
L 267.807559 330.399577 
L 268.499986 320.226623 
L 268.757427 312.714284 
L 268.926095 300.453814 
L 269.050377 270.866784 
L 269.156905 167.969252 
L 269.245677 98.450436 
L 269.298941 107.290518 
L 269.8227 290.919603 
L 270.133405 367.424328 
L 270.168914 367.509203 
L 270.222177 367.339966 
L 270.470741 365.485023 
L 270.985623 359.96635 
L 271.802332 348.331033 
L 273.098414 330.501375 
L 273.790841 320.389963 
L 274.048282 313.063015 
L 274.21695 301.403338 
L 274.341232 274.303069 
L 274.438882 192.658942 
L 274.545409 98.446076 
L 274.598673 107.521039 
L 275.131309 294.599487 
L 275.424259 367.363813 
L 275.459768 367.509716 
L 275.521909 367.335863 
L 275.770473 365.477843 
L 276.285355 359.956093 
L 277.110941 348.18513 
L 278.389268 330.603174 
L 279.090573 320.373295 
L 279.348014 313.027886 
L 279.516682 301.309232 
L 279.640964 273.969723 
L 279.738614 191.507564 
L 279.845141 98.447359 
L 279.898405 107.752587 
L 280.439918 298.378863 
L 280.715114 367.281502 
L 280.7595 367.510229 
L 280.821641 367.331761 
L 281.079082 365.391943 
L 281.593964 359.834294 
L 282.428427 347.905888 
L 283.706755 330.368037 
L 284.390305 320.356628 
L 284.647745 312.992756 
L 284.816414 301.214869 
L 284.940695 273.633813 
L 285.038345 190.351597 
L 285.144873 98.455051 
L 285.198136 107.984391 
L 285.748527 302.259781 
L 286.014845 367.29099 
L 286.059232 367.510485 
L 286.121373 367.327401 
L 286.378814 365.384763 
L 286.893695 359.824037 
L 287.728159 347.89358 
L 289.006486 330.35778 
L 289.690036 320.340217 
L 289.947477 312.957627 
L 290.116145 301.12025 
L 290.240427 273.295595 
L 290.338077 189.194655 
L 290.444605 98.468898 
L 290.497868 108.216451 
L 291.057136 306.242241 
L 291.3057 367.185858 
L 291.358964 367.510742 
L 291.421105 367.323299 
L 291.678545 365.377583 
L 292.193427 359.81378 
L 293.027891 347.881272 
L 294.315095 330.234955 
L 294.989768 320.32355 
L 295.247209 312.922497 
L 295.415877 301.025118 
L 295.540159 272.953274 
L 295.637809 188.028149 
L 295.744336 98.488386 
L 295.7976 108.451332 
L 296.365745 310.324449 
L 296.605432 367.197653 
L 296.658695 367.510742 
L 296.720836 367.319196 
L 296.978277 365.370403 
L 297.493159 359.803524 
L 298.327623 347.86922 
L 299.60595 330.337267 
L 300.2895 320.307139 
L 300.546941 312.887111 
L 300.715609 300.928191 
L 300.839891 272.603517 
L 300.937541 186.847104 
L 301.044068 98.514541 
L 301.097332 108.688777 
L 301.674355 314.495121 
L 301.905164 367.209192 
L 301.958427 367.510742 
L 302.020568 367.315093 
L 302.286886 365.283733 
L 302.810645 359.568386 
L 303.671741 347.190989 
L 304.914559 330.214441 
L 305.589232 320.290472 
L 305.846673 312.851469 
L 306.015341 300.830752 
L 306.139623 272.250426 
L 306.24615 172.631867 
L 306.334923 98.53608 
L 306.397064 108.929042 
L 306.982964 318.736822 
L 307.196018 367.080213 
L 307.258159 367.510485 
L 307.3203 367.310734 
L 307.586618 365.276297 
L 308.110377 359.557873 
L 308.971473 347.178681 
L 310.214291 330.203928 
L 310.888964 320.273804 
L 311.146405 312.81557 
L 311.315073 300.732286 
L 311.439355 271.891438 
L 311.545882 171.402666 
L 311.634655 98.504027 
L 311.696795 109.172641 
L 312.291573 323.022627 
L 312.49575 367.095085 
L 312.557891 367.510229 
L 312.620032 367.306375 
L 312.88635 365.268861 
L 313.410109 359.54736 
L 314.280082 347.033034 
L 315.531777 329.968022 
L 316.188695 320.256624 
L 316.446136 312.779158 
L 316.614805 300.632539 
L 316.739086 271.525783 
L 316.845614 170.16349 
L 316.934386 98.478385 
L 316.996527 109.419574 
L 317.600182 327.3151 
L 317.795482 367.109444 
L 317.857623 367.509973 
L 317.910886 367.347146 
L 318.15945 365.497844 
L 318.674332 359.984813 
L 319.491041 348.353085 
L 320.796 330.407526 
L 321.488427 320.2397 
L 321.745868 312.74249 
L 321.914536 300.53151 
L 322.038818 271.153205 
L 322.145345 168.920289 
L 322.234118 98.459667 
L 322.296259 109.667532 
L 322.908791 331.566801 
L 323.095214 367.123804 
L 323.157355 367.50946 
L 323.210618 367.343043 
L 323.459182 365.490664 
L 323.974064 359.974299 
L 324.790773 348.34052 
L 326.095732 330.397013 
L 326.779282 320.402784 
L 327.036723 313.090196 
L 327.205391 301.475905 
L 327.329673 274.559489 
L 327.427323 193.54913 
L 327.53385 98.448641 
L 327.595991 109.915747 
L 328.2174 335.724396 
L 328.403823 367.264066 
L 328.457086 367.508947 
L 328.51035 367.33894 
L 328.758914 365.483228 
L 329.273795 359.964042 
L 329.318182 359.402226 
L 329.335936 360.282773 
L 329.531236 364.187538 
L 329.620009 364.371391 
L 329.664395 364.315235 
L 329.815309 363.721366 
L 330.214786 360.964594 
L 332.176664 346.522758 
L 332.869091 343.369561 
L 333.428359 341.749499 
L 333.889977 341.022291 
L 334.262823 340.800232 
L 334.617914 340.839464 
L 335.106164 341.155373 
L 336.553159 342.185669 
L 337.156814 342.280288 
L 338.115559 342.169258 
L 339.908768 341.970276 
L 342.101455 342.017714 
L 345.812155 342.013868 
L 435.845455 342.015919 
L 435.845455 342.015919 
" clip-path="url(#p8c27b96fa1)" style="fill: none; stroke: #1f77b4; stroke-width: 1.5; stroke-linecap: square"/>
   </g>
   <g id="line2d_14">
    <path d="M 80.754545 342.083358 
L 81.1629 339.364274 
L 81.65115 337.400443 
L 81.961855 336.887733 
L 82.148277 336.90862 
L 82.343577 337.207881 
L 82.645405 338.151716 
L 83.657414 341.64253 
L 83.950364 341.865652 
L 84.216682 341.793781 
L 84.598405 341.414251 
L 85.823468 340.061313 
L 86.276209 339.938835 
L 86.791091 340.044936 
L 88.415632 340.535386 
L 89.409886 340.442679 
L 90.901268 340.344213 
L 98.438073 340.389985 
L 151.772727 340.389731 
L 152.234345 303.48232 
L 152.323118 261.013573 
L 152.456277 66.96 
L 152.589436 93.300712 
L 153.255232 324.291539 
L 153.450532 369.348664 
L 153.468286 369.356672 
L 153.503795 369.260342 
L 153.778991 367.715832 
L 154.249486 363.860634 
L 154.870895 356.657436 
L 157.250005 324.358213 
L 157.454182 316.191968 
L 157.587341 300.587576 
L 157.676114 261.663592 
L 157.81815 76.670047 
L 157.951309 106.848153 
L 158.776895 369.22943 
L 158.856791 368.944609 
L 159.247391 366.406534 
L 159.753395 361.580152 
L 160.543473 351.501676 
L 162.043732 332.701252 
L 162.496473 325.575875 
L 162.718405 318.254898 
L 162.860441 305.615185 
L 162.958091 275.440329 
L 163.037986 165.035978 
L 163.117882 76.846783 
L 163.180023 86.161036 
L 163.472973 184.827934 
L 164.076627 369.22285 
L 164.121014 369.10335 
L 164.413964 367.3812 
L 164.893336 363.277508 
L 165.541377 355.544447 
L 167.893855 323.075759 
L 168.080277 314.316355 
L 168.204559 296.618557 
L 168.293332 244.926586 
L 168.417614 76.857425 
L 168.515264 95.674635 
L 169.14555 314.161368 
L 169.358605 369.199593 
L 169.376359 369.222402 
L 169.420745 369.102022 
L 169.713695 367.379089 
L 170.193068 363.274404 
L 170.841109 355.540423 
L 173.193586 323.067605 
L 173.380009 314.295537 
L 173.504291 296.548153 
L 173.593064 244.60769 
L 173.717345 76.859498 
L 173.814995 95.75292 
L 174.445282 314.295424 
L 174.658336 369.200486 
L 174.676091 369.22226 
L 174.720477 369.100895 
L 175.013427 367.377201 
L 175.4928 363.271629 
L 176.140841 355.536822 
L 178.493318 323.059556 
L 178.679741 314.274623 
L 178.804023 296.476905 
L 178.892795 244.283998 
L 179.017077 76.861534 
L 179.114727 95.831181 
L 179.745014 314.428675 
L 179.958068 369.201384 
L 179.975823 369.222135 
L 180.020209 369.099796 
L 180.313159 367.375356 
L 180.792532 363.268915 
L 181.44945 355.415865 
L 183.801927 322.783212 
L 183.98835 313.541598 
L 184.112632 293.905497 
L 184.201405 232.203048 
L 184.316809 76.864062 
L 184.396705 90.921343 
L 184.920464 265.184996 
L 185.275555 369.222004 
L 185.337695 369.02002 
L 185.692786 366.798232 
L 186.189914 362.240665 
L 186.91785 353.154864 
L 189.128291 321.912742 
L 189.305836 311.93752 
L 189.421241 290.982303 
L 189.501136 231.82333 
L 189.616541 76.867494 
L 189.696436 90.991847 
L 190.229073 268.206714 
L 190.575286 369.221848 
L 190.637427 369.018792 
L 190.992518 366.796269 
L 191.489645 362.237825 
L 192.217582 353.151319 
L 194.428023 321.90377 
L 194.605568 311.912464 
L 194.720973 290.893081 
L 194.800868 231.445184 
L 194.916273 76.871504 
L 194.996168 91.061631 
L 195.528805 268.293083 
L 195.875018 369.221682 
L 195.937159 369.017577 
L 196.29225 366.794329 
L 196.789377 362.235019 
L 197.517314 353.147816 
L 199.727755 321.894898 
L 199.9053 311.887671 
L 200.020705 290.804489 
L 200.1006 231.068893 
L 200.216005 76.876022 
L 200.2959 91.131033 
L 200.828536 268.378989 
L 201.17475 369.221507 
L 201.236891 369.016367 
L 201.591982 366.792398 
L 202.089109 362.232227 
L 202.817045 353.144331 
L 205.027486 321.886059 
L 205.205032 311.862965 
L 205.320436 290.716101 
L 205.400332 230.691476 
L 205.515736 76.880964 
L 205.595632 91.20072 
L 206.137145 271.457253 
L 206.474482 369.221323 
L 206.527745 369.055873 
L 206.865082 366.987209 
L 207.353332 362.609529 
L 208.054636 353.977466 
L 210.318341 322.175835 
L 210.495886 312.663807 
L 210.611291 293.513957 
L 210.700064 230.311486 
L 210.815468 76.886697 
L 210.895364 91.270382 
L 211.436877 271.545121 
L 211.765336 369.221537 
L 211.827477 369.054711 
L 212.164814 366.985316 
L 212.653064 362.60678 
L 213.354368 353.973982 
L 215.618073 322.167266 
L 215.795618 312.640562 
L 215.911023 293.435247 
L 215.999795 229.929408 
L 216.1152 76.893029 
L 216.195095 91.340305 
L 216.736609 271.633306 
L 217.065068 369.22172 
L 217.127209 369.053542 
L 217.464545 366.983413 
L 217.952795 362.604018 
L 218.6541 353.970482 
L 220.917805 322.158666 
L 221.09535 312.617108 
L 221.210755 293.355727 
L 221.299527 229.54372 
L 221.414932 76.899662 
L 221.494827 91.410458 
L 222.045218 274.78044 
L 222.3648 369.221896 
L 222.418064 369.091092 
L 222.719891 367.299002 
L 223.199264 363.156848 
L 223.856182 355.270642 
L 226.199782 322.718965 
L 226.386205 313.367905 
L 226.510486 293.276303 
L 226.599259 229.15506 
L 226.714664 76.906574 
L 226.785682 89.128852 
L 227.194036 226.700252 
L 227.664532 369.222059 
L 227.753305 368.923526 
L 228.143905 366.374295 
L 228.658786 361.434596 
L 229.466618 351.085761 
L 230.940245 332.652764 
L 231.392986 325.496988 
L 231.614918 318.076607 
L 231.756955 305.087741 
L 231.854605 273.397216 
L 231.943377 136.803463 
L 232.014395 76.914018 
L 232.076536 86.967447 
L 232.396118 195.026894 
L 232.964264 369.222208 
L 233.017527 369.088907 
L 233.328232 367.232915 
L 233.807605 363.060172 
L 234.4734 355.027992 
L 236.799245 322.702949 
L 236.985668 313.324183 
L 237.10995 293.116385 
L 237.198723 228.369495 
L 237.314127 76.921969 
L 237.385145 89.262492 
L 237.802377 229.656987 
L 238.263995 369.222348 
L 238.352768 368.920931 
L 238.743368 366.37025 
L 239.25825 361.428803 
L 240.066082 351.078791 
L 241.539709 332.64623 
L 241.99245 325.48548 
L 242.214382 318.04933 
L 242.356418 305.005041 
L 242.454068 273.067226 
L 242.542841 135.652713 
L 242.613859 76.930332 
L 242.676 87.092894 
L 242.995582 195.199823 
L 243.563727 369.222475 
L 243.616991 369.086736 
L 243.927695 367.229297 
L 244.407068 363.054888 
L 245.072864 355.021185 
L 247.398709 322.687068 
L 247.585132 313.280783 
L 247.709414 292.957064 
L 247.798186 227.585088 
L 247.913591 76.939176 
L 247.984609 89.39539 
L 248.401841 229.817829 
L 248.863459 369.222579 
L 248.952232 368.918352 
L 249.342832 366.366233 
L 249.857714 361.423052 
L 250.665545 351.071872 
L 252.139173 332.639746 
L 252.591914 325.474058 
L 252.813845 318.022238 
L 252.955882 304.922609 
L 253.053532 272.737301 
L 253.142305 134.516111 
L 253.204445 76.937253 
L 253.275464 87.218603 
L 253.595045 195.372579 
L 254.163191 369.222677 
L 254.216455 369.084549 
L 254.527159 367.225669 
L 255.006532 363.049591 
L 255.672327 355.014362 
L 257.998173 322.671136 
L 258.175718 313.968983 
L 258.3 295.425794 
L 258.388773 239.425409 
L 258.504177 76.927189 
L 258.59295 91.902305 
L 259.161095 281.787571 
L 259.462923 369.222763 
L 259.498432 369.153113 
L 259.729241 367.882944 
L 260.190859 364.195436 
L 260.794514 357.334076 
L 263.218009 324.843819 
L 263.431064 316.998014 
L 263.5731 301.639662 
L 263.67075 258.629286 
L 263.803909 76.917756 
L 263.928191 102.490512 
L 264.762655 369.222837 
L 264.869182 368.822599 
L 265.286414 366.004398 
L 265.810173 360.806948 
L 266.706777 349.146027 
L 268.615391 322.081761 
L 268.792936 312.406733 
L 268.908341 292.634445 
L 268.997114 225.99133 
L 269.103641 76.908985 
L 269.183536 89.662836 
L 269.618523 235.696553 
L 270.062386 369.222896 
L 270.151159 368.913177 
L 270.550636 366.288104 
L 271.065518 361.311396 
L 271.891105 350.697802 
L 273.355855 332.400396 
L 273.790841 325.45111 
L 274.012773 317.967745 
L 274.154809 304.756113 
L 274.252459 272.068143 
L 274.341232 132.268604 
L 274.403373 76.900893 
L 274.474391 87.470151 
L 274.80285 198.687686 
L 275.362118 369.222947 
L 275.424259 369.040787 
L 275.770473 366.897555 
L 276.2676 362.384672 
L 276.986659 353.454915 
L 279.214855 322.064865 
L 279.3924 312.360167 
L 279.507805 292.472623 
L 279.596577 225.190747 
L 279.703105 76.893625 
L 279.783 89.795573 
L 280.226864 238.622685 
L 280.66185 369.222985 
L 280.750623 368.910618 
L 281.1501 366.2841 
L 281.664982 361.305686 
L 282.490568 350.690973 
L 283.955318 332.393918 
L 284.390305 325.439723 
L 284.612236 317.940661 
L 284.754273 304.672664 
L 284.851923 271.73095 
L 284.940695 131.164538 
L 285.002836 76.887254 
L 285.064977 85.467264 
L 285.340173 177.665237 
L 285.961582 369.223011 
L 285.997091 369.148624 
L 286.236777 367.817391 
L 286.698395 364.097999 
L 287.30205 357.203785 
L 289.725545 324.595793 
L 289.929723 316.922474 
L 290.062882 303.088798 
L 290.160532 265.102721 
L 290.302568 76.881345 
L 290.444605 108.64211 
L 291.261314 369.22302 
L 291.332332 368.995678 
L 291.6963 366.692765 
L 292.193427 362.088469 
L 292.930241 352.845615 
L 294.572536 332.15888 
L 294.998645 325.225966 
L 295.2117 317.913045 
L 295.353736 304.587176 
L 295.451386 271.384934 
L 295.540159 130.045228 
L 295.6023 76.875717 
L 295.664441 85.587945 
L 295.939636 177.846583 
L 296.561045 369.223024 
L 296.596555 369.146753 
L 296.836241 367.814004 
L 297.297859 364.092974 
L 297.901514 357.197081 
L 300.325009 324.582854 
L 300.529186 316.891346 
L 300.662345 302.993095 
L 300.759995 264.68692 
L 300.902032 76.870763 
L 301.044068 108.814991 
L 301.860777 369.22302 
L 301.931795 368.993187 
L 302.295764 366.688825 
L 302.792891 362.082798 
L 303.529705 352.838582 
L 305.172 332.152143 
L 305.598109 325.213937 
L 305.811164 317.884939 
L 305.9532 304.500011 
L 306.05085 271.030831 
L 306.139623 128.930583 
L 306.201764 76.866771 
L 306.263905 85.70941 
L 306.547977 181.108893 
L 307.160509 369.223001 
L 307.196018 369.144877 
L 307.444582 367.752662 
L 307.915077 363.915687 
L 308.527609 356.846731 
L 310.942227 324.116734 
L 311.137527 316.311808 
L 311.270686 301.170992 
L 311.368336 256.450225 
L 311.501495 76.863404 
L 311.6169 100.44355 
L 312.30045 349.090829 
L 312.451364 369.216869 
L 312.469118 369.215688 
L 312.49575 369.143932 
L 312.744314 367.750957 
L 313.214809 363.913149 
L 313.827341 356.843365 
L 316.241959 324.109926 
L 316.437259 316.295278 
L 316.570418 301.117544 
L 316.668068 256.200434 
L 316.801227 76.860579 
L 316.916632 100.523991 
L 317.600182 349.204448 
L 317.751095 369.217278 
L 317.76885 369.215311 
L 317.795482 369.142982 
L 318.044045 367.749249 
L 318.514541 363.910608 
L 319.127073 356.839995 
L 321.541691 324.10311 
L 321.736991 316.278727 
L 321.87015 301.0639 
L 321.9678 255.949554 
L 322.100959 76.858513 
L 322.216364 100.604623 
L 322.899914 349.318347 
L 323.050827 369.217674 
L 323.068582 369.214922 
L 323.095214 369.142023 
L 323.343777 367.74753 
L 323.814273 363.908049 
L 324.426805 356.836603 
L 326.841423 324.096247 
L 327.036723 316.262051 
L 327.169882 301.009635 
L 327.267532 255.694284 
L 327.400691 76.857304 
L 327.516095 100.685906 
L 328.199645 349.432234 
L 328.350559 369.218048 
L 328.368314 369.214516 
L 328.394945 369.141049 
L 328.643509 367.745795 
L 329.114005 363.905467 
L 329.318182 361.776023 
L 329.335936 362.612501 
L 329.48685 364.6768 
L 329.495727 364.670515 
L 329.575623 364.39837 
L 329.859695 362.304225 
L 332.141155 343.861642 
L 332.815827 340.731617 
L 333.321832 339.294622 
L 333.694677 338.81102 
L 333.960995 338.771397 
L 334.236191 338.979402 
L 334.653423 339.631493 
L 335.390236 340.746017 
L 335.798591 340.978123 
L 336.206945 340.948306 
L 336.854986 340.628559 
L 337.751591 340.244922 
L 338.435141 340.212822 
L 341.542186 340.399156 
L 343.814768 340.387687 
L 350.605882 340.389707 
L 435.845455 340.389731 
L 435.845455 340.389731 
" clip-path="url(#p8c27b96fa1)" style="fill: none; stroke: #ff0000; stroke-width: 1.5; stroke-linecap: square"/>
   </g>
   <g id="patch_3">
    <path d="M 63 384.48 
L 63 51.84 
" style="fill: none; stroke: #000000; stroke-width: 0.8; stroke-linejoin: miter; stroke-linecap: square"/>
   </g>
   <g id="patch_4">
    <path d="M 453.6 384.48 
L 453.6 51.84 
" style="fill: none; stroke: #000000; stroke-width: 0.8; stroke-linejoin: miter; stroke-linecap: square"/>
   </g>
   <g id="patch_5">
    <path d="M 63 384.48 
L 453.6 384.48 
" style="fill: none; stroke: #000000; stroke-width: 0.8; stroke-linejoin: miter; stroke-linecap: square"/>
   </g>
   <g id="patch_6">
    <path d="M 63 51.84 
L 453.6 51.84 
" style="fill: none; stroke: #000000; stroke-width: 0.8; stroke-linejoin: miter; stroke-linecap: square"/>
   </g>
   <g id="legend_1">
    <g id="patch_7">
     <path d="M 383.460938 89.19625 
L 446.6 89.19625 
Q 448.6 89.19625 448.6 87.19625 
L 448.6 58.84 
Q 448.6 56.84 446.6 56.84 
L 383.460938 56.84 
Q 381.460938 56.84 381.460938 58.84 
L 381.460938 87.19625 
Q 381.460938 89.19625 383.460938 89.19625 
z
" style="fill: #ffffff; opacity: 0.8; stroke: #cccccc; stroke-linejoin: miter"/>
    </g>
    <g id="line2d_15">
     <path d="M 385.460938 64.938437 
L 395.460938 64.938437 
L 405.460938 64.938437 
" style="fill: none; stroke: #1f77b4; stroke-width: 1.5; stroke-linecap: square"/>
    </g>
    <g id="text_15">
     <!-- target -->
     <g transform="translate(413.460938 68.438437)scale(0.1 -0.1)">
      <defs>
       <path id="DejaVuSans-72" d="M 2631 2963 
Q 2534 3019 2420 3045 
Q 2306 3072 2169 3072 
Q 1681 3072 1420 2755 
Q 1159 2438 1159 1844 
L 1159 0 
L 581 0 
L 581 3500 
L 1159 3500 
L 1159 2956 
Q 1341 3275 1631 3429 
Q 1922 3584 2338 3584 
Q 2397 3584 2469 3576 
Q 2541 3569 2628 3553 
L 2631 2963 
z
" transform="scale(0.015625)"/>
      </defs>
      <use xlink:href="#DejaVuSans-74"/>
      <use xlink:href="#DejaVuSans-61" x="39.208984"/>
      <use xlink:href="#DejaVuSans-72" x="100.488281"/>
      <use xlink:href="#DejaVuSans-67" x="139.851562"/>
      <use xlink:href="#DejaVuSans-65" x="203.328125"/>
      <use xlink:href="#DejaVuSans-74" x="264.851562"/>
     </g>
    </g>
    <g id="line2d_16">
     <path d="M 385.460938 79.616562 
L 395.460938 79.616562 
L 405.460938 79.616562 
" style="fill: none; stroke: #ff0000; stroke-width: 1.5; stroke-linecap: square"/>
    </g>
    <g id="text_16">
     <!-- model -->
     <g transform="translate(413.460938 83.116562)scale(0.1 -0.1)">
      <defs>
       <path id="DejaVuSans-64" d="M 2906 2969 
L 2906 4863 
L 3481 4863 
L 3481 0 
L 2906 0 
L 2906 525 
Q 2725 213 2448 61 
Q 2172 -91 1784 -91 
Q 1150 -91 751 415 
Q 353 922 353 1747 
Q 353 2572 751 3078 
Q 1150 3584 1784 3584 
Q 2172 3584 2448 3432 
Q 2725 3281 2906 2969 
z
M 947 1747 
Q 947 1113 1208 752 
Q 1469 391 1925 391 
Q 2381 391 2643 752 
Q 2906 1113 2906 1747 
Q 2906 2381 2643 2742 
Q 2381 3103 1925 3103 
Q 1469 3103 1208 2742 
Q 947 2381 947 1747 
z
" transform="scale(0.015625)"/>
      </defs>
      <use xlink:href="#DejaVuSans-6d"/>
      <use xlink:href="#DejaVuSans-6f" x="97.412109"/>
      <use xlink:href="#DejaVuSans-64" x="158.59375"/>
      <use xlink:href="#DejaVuSans-65" x="222.070312"/>
      <use xlink:href="#DejaVuSans-6c" x="283.59375"/>
     </g>
    </g>
   </g>
  </g>
 </g>
 <defs>
  <clipPath id="p8c27b96fa1">
   <rect x="63" y="51.84" width="390.6" height="332.64"/>
  </clipPath>
 </defs>
</svg>
