<?xml version="1.0" encoding="utf-8" standalone="no"?>
<!DOCTYPE svg PUBLIC "-//W3C//DTD SVG 1.1//EN"
  "http://www.w3.org/Graphics/SVG/1.1/DTD/svg11.dtd">
<svg xmlns:xlink="http://www.w3.org/1999/xlink" width="504pt" height="432pt" viewBox="0 0 504 432" xmlns="http://www.w3.org/2000/svg" version="1.1">
 <metadata>
  <rdf:RDF xmlns:dc="http://purl.org/dc/elements/1.1/" xmlns:cc="http://creativecommons.org/ns#" xmlns:rdf="http://www.w3.org/1999/02/22-rdf-syntax-ns#">
   <cc:Work>
    <dc:type rdf:resource="http://purl.org/dc/dcmitype/StillImage"/>
    <dc:date>2022-01-31T18:35:51.086028</dc:date>
    <dc:format>image/svg+xml</dc:format>
    <dc:creator>
     <cc:Agent>
      <dc:title>Matplotlib v3.5.1, https://matplotlib.org/</dc:title>
     </cc:Agent>
    </dc:creator>
   </cc:Work>
  </rdf:RDF>
 </metadata>
 <defs>
  <style type="text/css">*{stroke-linejoin: round; stroke-linecap: butt}</style>
 </defs>
 <g id="figure_1">
  <g id="patch_1">
   <path d="M 0 432 
L 504 432 
L 504 0 
L 0 0 
z
" style="fill: #ffffff"/>
  </g>
  <g id="axes_1">
   <g id="patch_2">
    <path d="M 63 384.48 
L 453.6 384.48 
L 453.6 51.84 
L 63 51.84 
z
" style="fill: #ffffff"/>
   </g>
   <g id="matplotlib.axis_1">
    <g id="xtick_1">
     <g id="line2d_1">
      <defs>
       <path id="m16a2b825ba" d="M 0 0 
L 0 3.5 
" style="stroke: #000000; stroke-width: 0.8"/>
      </defs>
      <g>
       <use xlink:href="#m16a2b825ba" x="80.754545" y="384.48" style="stroke: #000000; stroke-width: 0.8"/>
      </g>
     </g>
     <g id="text_1">
      <!-- 0 -->
      <g transform="translate(77.573295 399.078438)scale(0.1 -0.1)">
       <defs>
        <path id="DejaVuSans-30" d="M 2034 4250 
Q 1547 4250 1301 3770 
Q 1056 3291 1056 2328 
Q 1056 1369 1301 889 
Q 1547 409 2034 409 
Q 2525 409 2770 889 
Q 3016 1369 3016 2328 
Q 3016 3291 2770 3770 
Q 2525 4250 2034 4250 
z
M 2034 4750 
Q 2819 4750 3233 4129 
Q 3647 3509 3647 2328 
Q 3647 1150 3233 529 
Q 2819 -91 2034 -91 
Q 1250 -91 836 529 
Q 422 1150 422 2328 
Q 422 3509 836 4129 
Q 1250 4750 2034 4750 
z
" transform="scale(0.015625)"/>
       </defs>
       <use xlink:href="#DejaVuSans-30"/>
      </g>
     </g>
    </g>
    <g id="xtick_2">
     <g id="line2d_2">
      <g>
       <use xlink:href="#m16a2b825ba" x="151.772727" y="384.48" style="stroke: #000000; stroke-width: 0.8"/>
      </g>
     </g>
     <g id="text_2">
      <!-- 200 -->
      <g transform="translate(142.228977 399.078438)scale(0.1 -0.1)">
       <defs>
        <path id="DejaVuSans-32" d="M 1228 531 
L 3431 531 
L 3431 0 
L 469 0 
L 469 531 
Q 828 903 1448 1529 
Q 2069 2156 2228 2338 
Q 2531 2678 2651 2914 
Q 2772 3150 2772 3378 
Q 2772 3750 2511 3984 
Q 2250 4219 1831 4219 
Q 1534 4219 1204 4116 
Q 875 4013 500 3803 
L 500 4441 
Q 881 4594 1212 4672 
Q 1544 4750 1819 4750 
Q 2544 4750 2975 4387 
Q 3406 4025 3406 3419 
Q 3406 3131 3298 2873 
Q 3191 2616 2906 2266 
Q 2828 2175 2409 1742 
Q 1991 1309 1228 531 
z
" transform="scale(0.015625)"/>
       </defs>
       <use xlink:href="#DejaVuSans-32"/>
       <use xlink:href="#DejaVuSans-30" x="63.623047"/>
       <use xlink:href="#DejaVuSans-30" x="127.246094"/>
      </g>
     </g>
    </g>
    <g id="xtick_3">
     <g id="line2d_3">
      <g>
       <use xlink:href="#m16a2b825ba" x="222.790909" y="384.48" style="stroke: #000000; stroke-width: 0.8"/>
      </g>
     </g>
     <g id="text_3">
      <!-- 400 -->
      <g transform="translate(213.247159 399.078438)scale(0.1 -0.1)">
       <defs>
        <path id="DejaVuSans-34" d="M 2419 4116 
L 825 1625 
L 2419 1625 
L 2419 4116 
z
M 2253 4666 
L 3047 4666 
L 3047 1625 
L 3713 1625 
L 3713 1100 
L 3047 1100 
L 3047 0 
L 2419 0 
L 2419 1100 
L 313 1100 
L 313 1709 
L 2253 4666 
z
" transform="scale(0.015625)"/>
       </defs>
       <use xlink:href="#DejaVuSans-34"/>
       <use xlink:href="#DejaVuSans-30" x="63.623047"/>
       <use xlink:href="#DejaVuSans-30" x="127.246094"/>
      </g>
     </g>
    </g>
    <g id="xtick_4">
     <g id="line2d_4">
      <g>
       <use xlink:href="#m16a2b825ba" x="293.809091" y="384.48" style="stroke: #000000; stroke-width: 0.8"/>
      </g>
     </g>
     <g id="text_4">
      <!-- 600 -->
      <g transform="translate(284.265341 399.078438)scale(0.1 -0.1)">
       <defs>
        <path id="DejaVuSans-36" d="M 2113 2584 
Q 1688 2584 1439 2293 
Q 1191 2003 1191 1497 
Q 1191 994 1439 701 
Q 1688 409 2113 409 
Q 2538 409 2786 701 
Q 3034 994 3034 1497 
Q 3034 2003 2786 2293 
Q 2538 2584 2113 2584 
z
M 3366 4563 
L 3366 3988 
Q 3128 4100 2886 4159 
Q 2644 4219 2406 4219 
Q 1781 4219 1451 3797 
Q 1122 3375 1075 2522 
Q 1259 2794 1537 2939 
Q 1816 3084 2150 3084 
Q 2853 3084 3261 2657 
Q 3669 2231 3669 1497 
Q 3669 778 3244 343 
Q 2819 -91 2113 -91 
Q 1303 -91 875 529 
Q 447 1150 447 2328 
Q 447 3434 972 4092 
Q 1497 4750 2381 4750 
Q 2619 4750 2861 4703 
Q 3103 4656 3366 4563 
z
" transform="scale(0.015625)"/>
       </defs>
       <use xlink:href="#DejaVuSans-36"/>
       <use xlink:href="#DejaVuSans-30" x="63.623047"/>
       <use xlink:href="#DejaVuSans-30" x="127.246094"/>
      </g>
     </g>
    </g>
    <g id="xtick_5">
     <g id="line2d_5">
      <g>
       <use xlink:href="#m16a2b825ba" x="364.827273" y="384.48" style="stroke: #000000; stroke-width: 0.8"/>
      </g>
     </g>
     <g id="text_5">
      <!-- 800 -->
      <g transform="translate(355.283523 399.078438)scale(0.1 -0.1)">
       <defs>
        <path id="DejaVuSans-38" d="M 2034 2216 
Q 1584 2216 1326 1975 
Q 1069 1734 1069 1313 
Q 1069 891 1326 650 
Q 1584 409 2034 409 
Q 2484 409 2743 651 
Q 3003 894 3003 1313 
Q 3003 1734 2745 1975 
Q 2488 2216 2034 2216 
z
M 1403 2484 
Q 997 2584 770 2862 
Q 544 3141 544 3541 
Q 544 4100 942 4425 
Q 1341 4750 2034 4750 
Q 2731 4750 3128 4425 
Q 3525 4100 3525 3541 
Q 3525 3141 3298 2862 
Q 3072 2584 2669 2484 
Q 3125 2378 3379 2068 
Q 3634 1759 3634 1313 
Q 3634 634 3220 271 
Q 2806 -91 2034 -91 
Q 1263 -91 848 271 
Q 434 634 434 1313 
Q 434 1759 690 2068 
Q 947 2378 1403 2484 
z
M 1172 3481 
Q 1172 3119 1398 2916 
Q 1625 2713 2034 2713 
Q 2441 2713 2670 2916 
Q 2900 3119 2900 3481 
Q 2900 3844 2670 4047 
Q 2441 4250 2034 4250 
Q 1625 4250 1398 4047 
Q 1172 3844 1172 3481 
z
" transform="scale(0.015625)"/>
       </defs>
       <use xlink:href="#DejaVuSans-38"/>
       <use xlink:href="#DejaVuSans-30" x="63.623047"/>
       <use xlink:href="#DejaVuSans-30" x="127.246094"/>
      </g>
     </g>
    </g>
    <g id="text_6">
     <!-- time [ms] -->
     <g transform="translate(234.038281 412.756563)scale(0.1 -0.1)">
      <defs>
       <path id="DejaVuSans-74" d="M 1172 4494 
L 1172 3500 
L 2356 3500 
L 2356 3053 
L 1172 3053 
L 1172 1153 
Q 1172 725 1289 603 
Q 1406 481 1766 481 
L 2356 481 
L 2356 0 
L 1766 0 
Q 1100 0 847 248 
Q 594 497 594 1153 
L 594 3053 
L 172 3053 
L 172 3500 
L 594 3500 
L 594 4494 
L 1172 4494 
z
" transform="scale(0.015625)"/>
       <path id="DejaVuSans-69" d="M 603 3500 
L 1178 3500 
L 1178 0 
L 603 0 
L 603 3500 
z
M 603 4863 
L 1178 4863 
L 1178 4134 
L 603 4134 
L 603 4863 
z
" transform="scale(0.015625)"/>
       <path id="DejaVuSans-6d" d="M 3328 2828 
Q 3544 3216 3844 3400 
Q 4144 3584 4550 3584 
Q 5097 3584 5394 3201 
Q 5691 2819 5691 2113 
L 5691 0 
L 5113 0 
L 5113 2094 
Q 5113 2597 4934 2840 
Q 4756 3084 4391 3084 
Q 3944 3084 3684 2787 
Q 3425 2491 3425 1978 
L 3425 0 
L 2847 0 
L 2847 2094 
Q 2847 2600 2669 2842 
Q 2491 3084 2119 3084 
Q 1678 3084 1418 2786 
Q 1159 2488 1159 1978 
L 1159 0 
L 581 0 
L 581 3500 
L 1159 3500 
L 1159 2956 
Q 1356 3278 1631 3431 
Q 1906 3584 2284 3584 
Q 2666 3584 2933 3390 
Q 3200 3197 3328 2828 
z
" transform="scale(0.015625)"/>
       <path id="DejaVuSans-65" d="M 3597 1894 
L 3597 1613 
L 953 1613 
Q 991 1019 1311 708 
Q 1631 397 2203 397 
Q 2534 397 2845 478 
Q 3156 559 3463 722 
L 3463 178 
Q 3153 47 2828 -22 
Q 2503 -91 2169 -91 
Q 1331 -91 842 396 
Q 353 884 353 1716 
Q 353 2575 817 3079 
Q 1281 3584 2069 3584 
Q 2775 3584 3186 3129 
Q 3597 2675 3597 1894 
z
M 3022 2063 
Q 3016 2534 2758 2815 
Q 2500 3097 2075 3097 
Q 1594 3097 1305 2825 
Q 1016 2553 972 2059 
L 3022 2063 
z
" transform="scale(0.015625)"/>
       <path id="DejaVuSans-20" transform="scale(0.015625)"/>
       <path id="DejaVuSans-5b" d="M 550 4863 
L 1875 4863 
L 1875 4416 
L 1125 4416 
L 1125 -397 
L 1875 -397 
L 1875 -844 
L 550 -844 
L 550 4863 
z
" transform="scale(0.015625)"/>
       <path id="DejaVuSans-73" d="M 2834 3397 
L 2834 2853 
Q 2591 2978 2328 3040 
Q 2066 3103 1784 3103 
Q 1356 3103 1142 2972 
Q 928 2841 928 2578 
Q 928 2378 1081 2264 
Q 1234 2150 1697 2047 
L 1894 2003 
Q 2506 1872 2764 1633 
Q 3022 1394 3022 966 
Q 3022 478 2636 193 
Q 2250 -91 1575 -91 
Q 1294 -91 989 -36 
Q 684 19 347 128 
L 347 722 
Q 666 556 975 473 
Q 1284 391 1588 391 
Q 1994 391 2212 530 
Q 2431 669 2431 922 
Q 2431 1156 2273 1281 
Q 2116 1406 1581 1522 
L 1381 1569 
Q 847 1681 609 1914 
Q 372 2147 372 2553 
Q 372 3047 722 3315 
Q 1072 3584 1716 3584 
Q 2034 3584 2315 3537 
Q 2597 3491 2834 3397 
z
" transform="scale(0.015625)"/>
       <path id="DejaVuSans-5d" d="M 1947 4863 
L 1947 -844 
L 622 -844 
L 622 -397 
L 1369 -397 
L 1369 4416 
L 622 4416 
L 622 4863 
L 1947 4863 
z
" transform="scale(0.015625)"/>
      </defs>
      <use xlink:href="#DejaVuSans-74"/>
      <use xlink:href="#DejaVuSans-69" x="39.208984"/>
      <use xlink:href="#DejaVuSans-6d" x="66.992188"/>
      <use xlink:href="#DejaVuSans-65" x="164.404297"/>
      <use xlink:href="#DejaVuSans-20" x="225.927734"/>
      <use xlink:href="#DejaVuSans-5b" x="257.714844"/>
      <use xlink:href="#DejaVuSans-6d" x="296.728516"/>
      <use xlink:href="#DejaVuSans-73" x="394.140625"/>
      <use xlink:href="#DejaVuSans-5d" x="446.240234"/>
     </g>
    </g>
   </g>
   <g id="matplotlib.axis_2">
    <g id="ytick_1">
     <g id="line2d_6">
      <defs>
       <path id="m47eb33c7a1" d="M 0 0 
L -3.5 0 
" style="stroke: #000000; stroke-width: 0.8"/>
      </defs>
      <g>
       <use xlink:href="#m47eb33c7a1" x="63" y="379.476563" style="stroke: #000000; stroke-width: 0.8"/>
      </g>
     </g>
     <g id="text_7">
      <!-- −80 -->
      <g transform="translate(34.895313 383.275782)scale(0.1 -0.1)">
       <defs>
        <path id="DejaVuSans-2212" d="M 678 2272 
L 4684 2272 
L 4684 1741 
L 678 1741 
L 678 2272 
z
" transform="scale(0.015625)"/>
       </defs>
       <use xlink:href="#DejaVuSans-2212"/>
       <use xlink:href="#DejaVuSans-38" x="83.789062"/>
       <use xlink:href="#DejaVuSans-30" x="147.412109"/>
      </g>
     </g>
    </g>
    <g id="ytick_2">
     <g id="line2d_7">
      <g>
       <use xlink:href="#m47eb33c7a1" x="63" y="328.057911" style="stroke: #000000; stroke-width: 0.8"/>
      </g>
     </g>
     <g id="text_8">
      <!-- −60 -->
      <g transform="translate(34.895313 331.85713)scale(0.1 -0.1)">
       <use xlink:href="#DejaVuSans-2212"/>
       <use xlink:href="#DejaVuSans-36" x="83.789062"/>
       <use xlink:href="#DejaVuSans-30" x="147.412109"/>
      </g>
     </g>
    </g>
    <g id="ytick_3">
     <g id="line2d_8">
      <g>
       <use xlink:href="#m47eb33c7a1" x="63" y="276.639259" style="stroke: #000000; stroke-width: 0.8"/>
      </g>
     </g>
     <g id="text_9">
      <!-- −40 -->
      <g transform="translate(34.895313 280.438477)scale(0.1 -0.1)">
       <use xlink:href="#DejaVuSans-2212"/>
       <use xlink:href="#DejaVuSans-34" x="83.789062"/>
       <use xlink:href="#DejaVuSans-30" x="147.412109"/>
      </g>
     </g>
    </g>
    <g id="ytick_4">
     <g id="line2d_9">
      <g>
       <use xlink:href="#m47eb33c7a1" x="63" y="225.220607" style="stroke: #000000; stroke-width: 0.8"/>
      </g>
     </g>
     <g id="text_10">
      <!-- −20 -->
      <g transform="translate(34.895313 229.019825)scale(0.1 -0.1)">
       <use xlink:href="#DejaVuSans-2212"/>
       <use xlink:href="#DejaVuSans-32" x="83.789062"/>
       <use xlink:href="#DejaVuSans-30" x="147.412109"/>
      </g>
     </g>
    </g>
    <g id="ytick_5">
     <g id="line2d_10">
      <g>
       <use xlink:href="#m47eb33c7a1" x="63" y="173.801954" style="stroke: #000000; stroke-width: 0.8"/>
      </g>
     </g>
     <g id="text_11">
      <!-- 0 -->
      <g transform="translate(49.6375 177.601173)scale(0.1 -0.1)">
       <use xlink:href="#DejaVuSans-30"/>
      </g>
     </g>
    </g>
    <g id="ytick_6">
     <g id="line2d_11">
      <g>
       <use xlink:href="#m47eb33c7a1" x="63" y="122.383302" style="stroke: #000000; stroke-width: 0.8"/>
      </g>
     </g>
     <g id="text_12">
      <!-- 20 -->
      <g transform="translate(43.275 126.182521)scale(0.1 -0.1)">
       <use xlink:href="#DejaVuSans-32"/>
       <use xlink:href="#DejaVuSans-30" x="63.623047"/>
      </g>
     </g>
    </g>
    <g id="ytick_7">
     <g id="line2d_12">
      <g>
       <use xlink:href="#m47eb33c7a1" x="63" y="70.96465" style="stroke: #000000; stroke-width: 0.8"/>
      </g>
     </g>
     <g id="text_13">
      <!-- 40 -->
      <g transform="translate(43.275 74.763869)scale(0.1 -0.1)">
       <use xlink:href="#DejaVuSans-34"/>
       <use xlink:href="#DejaVuSans-30" x="63.623047"/>
      </g>
     </g>
    </g>
    <g id="text_14">
     <!-- voltage [mV] -->
     <g transform="translate(28.815625 250.624062)rotate(-90)scale(0.1 -0.1)">
      <defs>
       <path id="DejaVuSans-76" d="M 191 3500 
L 800 3500 
L 1894 563 
L 2988 3500 
L 3597 3500 
L 2284 0 
L 1503 0 
L 191 3500 
z
" transform="scale(0.015625)"/>
       <path id="DejaVuSans-6f" d="M 1959 3097 
Q 1497 3097 1228 2736 
Q 959 2375 959 1747 
Q 959 1119 1226 758 
Q 1494 397 1959 397 
Q 2419 397 2687 759 
Q 2956 1122 2956 1747 
Q 2956 2369 2687 2733 
Q 2419 3097 1959 3097 
z
M 1959 3584 
Q 2709 3584 3137 3096 
Q 3566 2609 3566 1747 
Q 3566 888 3137 398 
Q 2709 -91 1959 -91 
Q 1206 -91 779 398 
Q 353 888 353 1747 
Q 353 2609 779 3096 
Q 1206 3584 1959 3584 
z
" transform="scale(0.015625)"/>
       <path id="DejaVuSans-6c" d="M 603 4863 
L 1178 4863 
L 1178 0 
L 603 0 
L 603 4863 
z
" transform="scale(0.015625)"/>
       <path id="DejaVuSans-61" d="M 2194 1759 
Q 1497 1759 1228 1600 
Q 959 1441 959 1056 
Q 959 750 1161 570 
Q 1363 391 1709 391 
Q 2188 391 2477 730 
Q 2766 1069 2766 1631 
L 2766 1759 
L 2194 1759 
z
M 3341 1997 
L 3341 0 
L 2766 0 
L 2766 531 
Q 2569 213 2275 61 
Q 1981 -91 1556 -91 
Q 1019 -91 701 211 
Q 384 513 384 1019 
Q 384 1609 779 1909 
Q 1175 2209 1959 2209 
L 2766 2209 
L 2766 2266 
Q 2766 2663 2505 2880 
Q 2244 3097 1772 3097 
Q 1472 3097 1187 3025 
Q 903 2953 641 2809 
L 641 3341 
Q 956 3463 1253 3523 
Q 1550 3584 1831 3584 
Q 2591 3584 2966 3190 
Q 3341 2797 3341 1997 
z
" transform="scale(0.015625)"/>
       <path id="DejaVuSans-67" d="M 2906 1791 
Q 2906 2416 2648 2759 
Q 2391 3103 1925 3103 
Q 1463 3103 1205 2759 
Q 947 2416 947 1791 
Q 947 1169 1205 825 
Q 1463 481 1925 481 
Q 2391 481 2648 825 
Q 2906 1169 2906 1791 
z
M 3481 434 
Q 3481 -459 3084 -895 
Q 2688 -1331 1869 -1331 
Q 1566 -1331 1297 -1286 
Q 1028 -1241 775 -1147 
L 775 -588 
Q 1028 -725 1275 -790 
Q 1522 -856 1778 -856 
Q 2344 -856 2625 -561 
Q 2906 -266 2906 331 
L 2906 616 
Q 2728 306 2450 153 
Q 2172 0 1784 0 
Q 1141 0 747 490 
Q 353 981 353 1791 
Q 353 2603 747 3093 
Q 1141 3584 1784 3584 
Q 2172 3584 2450 3431 
Q 2728 3278 2906 2969 
L 2906 3500 
L 3481 3500 
L 3481 434 
z
" transform="scale(0.015625)"/>
       <path id="DejaVuSans-56" d="M 1831 0 
L 50 4666 
L 709 4666 
L 2188 738 
L 3669 4666 
L 4325 4666 
L 2547 0 
L 1831 0 
z
" transform="scale(0.015625)"/>
      </defs>
      <use xlink:href="#DejaVuSans-76"/>
      <use xlink:href="#DejaVuSans-6f" x="59.179688"/>
      <use xlink:href="#DejaVuSans-6c" x="120.361328"/>
      <use xlink:href="#DejaVuSans-74" x="148.144531"/>
      <use xlink:href="#DejaVuSans-61" x="187.353516"/>
      <use xlink:href="#DejaVuSans-67" x="248.632812"/>
      <use xlink:href="#DejaVuSans-65" x="312.109375"/>
      <use xlink:href="#DejaVuSans-20" x="373.632812"/>
      <use xlink:href="#DejaVuSans-5b" x="405.419922"/>
      <use xlink:href="#DejaVuSans-6d" x="444.433594"/>
      <use xlink:href="#DejaVuSans-56" x="541.845703"/>
      <use xlink:href="#DejaVuSans-5d" x="610.253906"/>
     </g>
    </g>
   </g>
   <g id="line2d_13">
    <path d="M 80.754545 340.912574 
L 81.970732 340.778628 
L 83.808327 340.836474 
L 87.829732 340.841873 
L 151.772727 340.844958 
L 152.314241 297.237314 
L 152.420768 249.602303 
L 152.562805 71.798146 
L 152.678209 96.497096 
L 153.565936 366.855341 
L 153.610323 366.756874 
L 153.8145 365.406363 
L 154.293873 360.750404 
L 154.959668 351.81667 
L 157.42755 313.725219 
L 157.613973 302.826778 
L 157.738255 281.312957 
L 157.835905 220.043005 
L 157.969064 95.658201 
L 158.031205 108.540116 
L 158.883423 366.439621 
L 158.945564 366.259913 
L 159.203005 364.321429 
L 159.717886 358.76513 
L 160.534595 347.083326 
L 161.8218 329.325895 
L 162.514227 319.172511 
L 162.771668 311.806532 
L 162.940336 300.06174 
L 163.064618 272.67051 
L 163.162268 190.006877 
L 163.268795 96.55957 
L 163.322059 105.877144 
L 163.863573 296.964795 
L 164.147645 366.266597 
L 164.183155 366.408512 
L 164.245295 366.230861 
L 164.493859 364.366421 
L 165.008741 358.829403 
L 165.834327 347.027023 
L 167.112655 329.398909 
L 167.813959 319.137803 
L 168.0714 311.762312 
L 168.240068 299.978956 
L 168.36435 272.429357 
L 168.462 189.276603 
L 168.568527 96.634898 
L 168.621791 106.094645 
L 169.172182 300.835334 
L 169.4385 366.182528 
L 169.482886 366.406456 
L 169.545027 366.224948 
L 169.802468 364.278495 
L 170.31735 358.704713 
L 171.151814 346.743963 
L 172.430141 329.161098 
L 173.113691 319.119806 
L 173.371132 311.726576 
L 173.5398 299.885117 
L 173.664082 272.09822 
L 173.761732 188.148967 
L 173.868259 96.651352 
L 173.921523 106.325771 
L 174.480791 304.82285 
L 174.729355 366.07532 
L 174.782618 366.406456 
L 174.844759 366.220834 
L 175.1022 364.271296 
L 175.617082 358.694172 
L 176.451545 346.731366 
L 177.729873 329.150557 
L 178.413423 319.103353 
L 178.670864 311.691354 
L 178.839532 299.789993 
L 178.963814 271.758343 
L 179.061464 186.988319 
L 179.167991 96.66832 
L 179.221255 106.559469 
L 179.7894 308.911404 
L 180.029086 366.087403 
L 180.08235 366.406713 
L 180.144491 366.216464 
L 180.401932 364.264098 
L 180.916814 358.683888 
L 181.751277 346.719282 
L 183.029605 329.140273 
L 183.713155 319.086641 
L 183.970595 311.655875 
L 184.139264 299.69384 
L 184.263545 271.410496 
L 184.361195 185.807258 
L 184.467723 96.691716 
L 184.520986 106.796766 
L 185.098009 313.089941 
L 185.328818 366.099229 
L 185.382082 366.406713 
L 185.444223 366.21235 
L 185.701664 364.256642 
L 186.216545 358.673605 
L 187.051009 346.706942 
L 188.329336 329.12999 
L 189.012886 319.070187 
L 189.270327 311.620139 
L 189.438995 299.596144 
L 189.563277 271.057507 
L 189.660927 184.621493 
L 189.767455 96.720767 
L 189.820718 107.036377 
L 190.406618 317.339179 
L 190.619673 365.968112 
L 190.681814 366.406456 
L 190.743955 366.20798 
L 191.010273 364.169744 
L 191.525155 358.550714 
L 192.368495 346.427224 
L 193.637945 329.006585 
L 194.312618 319.053219 
L 194.570059 311.584403 
L 194.738727 299.497935 
L 194.863009 270.701176 
L 194.969536 170.346235 
L 195.058309 96.707655 
L 195.12045 107.278559 
L 195.715227 321.633664 
L 195.919405 365.98328 
L 195.981545 366.406456 
L 196.043686 366.203609 
L 196.310005 364.162289 
L 196.833764 358.427309 
L 197.703736 345.880901 
L 198.955432 328.770316 
L 199.61235 319.036508 
L 199.869791 311.548153 
L 200.038459 299.398697 
L 200.162741 270.337646 
L 200.269268 169.10882 
L 200.358041 96.678861 
L 200.420182 107.524854 
L 201.023836 325.937148 
L 201.219136 365.997677 
L 201.281277 366.405942 
L 201.343418 366.199239 
L 201.609736 364.154833 
L 202.133495 358.416511 
L 202.994591 346.001735 
L 204.255164 328.759775 
L 204.912082 319.019283 
L 205.169523 311.511389 
L 205.338191 299.297916 
L 205.462473 269.96666 
L 205.569 167.8631 
L 205.657773 96.657008 
L 205.719914 107.772949 
L 206.332445 330.202583 
L 206.518868 366.012075 
L 206.581009 366.405684 
L 206.634273 366.240373 
L 206.873959 364.462574 
L 207.388841 358.966434 
L 208.187795 347.593656 
L 209.510509 329.31304 
L 210.202936 319.182794 
L 210.460377 311.859236 
L 210.629045 300.241448 
L 210.753327 273.362862 
L 210.850977 192.514924 
L 210.957505 96.642097 
L 211.019645 108.022073 
L 211.641055 334.377006 
L 211.827477 366.154761 
L 211.880741 366.40517 
L 211.934005 366.23626 
L 212.182568 364.377219 
L 212.69745 358.844829 
L 213.514159 347.179479 
L 214.810241 329.302499 
L 215.502668 319.166083 
L 215.760109 311.824014 
L 215.928777 300.147095 
L 216.053059 273.030441 
L 216.150709 191.360062 
L 216.257236 96.635926 
L 216.319377 108.270682 
L 216.949664 338.398202 
L 217.127209 366.165045 
L 217.171595 366.405684 
L 217.233736 366.232147 
L 217.4823 364.37002 
L 217.997182 358.834545 
L 218.822768 347.033193 
L 220.101095 329.404565 
L 220.8024 319.149372 
L 221.059841 311.789049 
L 221.228509 300.052999 
L 221.352791 272.696734 
L 221.450441 190.205764 
L 221.556968 96.636441 
L 221.610232 105.913394 
L 222.151745 297.019041 
L 222.426941 366.174815 
L 222.471327 366.405942 
L 222.533468 366.228033 
L 222.782032 364.362821 
L 223.296914 358.824261 
L 224.1225 347.020596 
L 225.418582 329.169068 
L 226.111009 318.95141 
L 226.36845 311.365102 
L 226.537118 298.892994 
L 226.652523 272.360456 
L 226.750173 189.046865 
L 226.8567 96.642354 
L 226.909964 106.146063 
L 227.460355 300.90912 
L 227.726673 366.184327 
L 227.771059 366.406456 
L 227.8332 366.22392 
L 228.090641 364.276695 
L 228.605523 358.702142 
L 229.439986 346.740878 
L 230.718314 329.158527 
L 231.401864 319.11595 
L 231.659305 311.718349 
L 231.827973 299.863521 
L 231.952255 272.021864 
L 232.049905 187.88776 
L 232.156432 96.654951 
L 232.209695 106.378476 
L 232.768964 304.899721 
L 233.017527 366.078148 
L 233.070791 366.406456 
L 233.132932 366.219806 
L 233.390373 364.269497 
L 233.905255 358.691858 
L 234.739718 346.728538 
L 236.018045 329.148243 
L 236.701595 319.099496 
L 236.959036 311.683384 
L 237.127705 299.768397 
L 237.251986 271.680187 
L 237.349636 186.722022 
L 237.456164 96.672948 
L 237.509427 106.613202 
L 238.077573 308.990589 
L 238.317259 366.089974 
L 238.370523 366.406713 
L 238.432664 366.215693 
L 238.690105 364.262298 
L 239.204986 358.681575 
L 240.03945 346.716454 
L 241.317777 329.13796 
L 242.001327 319.083042 
L 242.258768 311.647905 
L 242.427436 299.67173 
L 242.551718 271.33054 
L 242.649368 185.53821 
L 242.755895 96.697886 
L 242.809159 106.851013 
L 243.386182 313.170926 
L 243.616991 366.1018 
L 243.670255 366.406713 
L 243.732395 366.211322 
L 243.989836 364.255099 
L 244.504718 358.671291 
L 245.348059 346.570425 
L 246.617509 329.127419 
L 247.301059 319.066331 
L 247.5585 311.612169 
L 247.727168 299.573777 
L 247.85145 270.977037 
L 247.9491 184.351288 
L 248.055627 96.72848 
L 248.108891 107.091138 
L 248.694791 317.421963 
L 248.907845 365.971711 
L 248.969986 366.406456 
L 249.032127 366.207208 
L 249.298445 364.168202 
L 249.822205 358.435536 
L 250.692177 345.890671 
L 251.943873 328.778543 
L 252.600791 319.049363 
L 252.858232 311.576176 
L 253.0269 299.47531 
L 253.151182 270.618906 
L 253.257709 170.064513 
L 253.346482 96.700457 
L 253.408623 107.334605 
L 254.0034 321.717991 
L 254.207577 365.986622 
L 254.269718 366.406199 
L 254.331859 366.202838 
L 254.598177 364.160746 
L 255.121936 358.424738 
L 255.983032 346.011504 
L 257.22585 328.99373 
L 257.900523 319.032652 
L 258.157964 311.539926 
L 258.326632 299.375815 
L 258.450914 270.253576 
L 258.557441 168.824552 
L 258.646214 96.673205 
L 258.708355 107.581672 
L 259.312009 326.021475 
L 259.507309 366.00102 
L 259.56945 366.405942 
L 259.631591 366.19821 
L 259.897909 364.153033 
L 260.421668 358.414198 
L 261.291641 345.865733 
L 262.525582 328.983189 
L 263.200255 319.015427 
L 263.457695 311.503162 
L 263.626364 299.274778 
L 263.750645 269.881305 
L 263.857173 167.578318 
L 263.945945 96.652895 
L 264.008086 107.829767 
L 264.620618 330.285624 
L 264.807041 366.015417 
L 264.869182 366.405427 
L 264.922445 366.239602 
L 265.171009 364.382875 
L 265.685891 358.853056 
L 266.511477 347.055303 
L 267.807559 329.198119 
L 268.499986 318.998458 
L 268.757427 311.466397 
L 268.926095 299.17374 
L 269.050377 269.509034 
L 269.156905 166.341365 
L 269.245677 96.64004 
L 269.298941 105.50333 
L 269.8227 289.614498 
L 270.133405 366.320072 
L 270.168914 366.40517 
L 270.222177 366.235489 
L 270.470741 364.375676 
L 270.985623 358.842515 
L 271.802332 347.176651 
L 273.098414 329.300185 
L 273.790841 319.162227 
L 274.048282 311.816044 
L 274.21695 300.125756 
L 274.341232 272.954341 
L 274.438882 191.095872 
L 274.545409 96.635669 
L 274.598673 105.734457 
L 275.131309 293.304044 
L 275.424259 366.259398 
L 275.459768 366.405684 
L 275.521909 366.231375 
L 275.770473 364.368477 
L 276.285355 358.832231 
L 277.110941 347.030365 
L 278.389268 329.402251 
L 279.090573 319.145516 
L 279.348014 311.780822 
L 279.516682 300.031403 
L 279.640964 272.62012 
L 279.738614 189.941472 
L 279.845141 96.636955 
L 279.898405 105.966612 
L 280.439918 297.093341 
L 280.715114 366.176871 
L 280.7595 366.406199 
L 280.821641 366.227262 
L 281.079082 364.282351 
L 281.593964 358.710112 
L 282.428427 346.75039 
L 283.706755 329.166497 
L 284.390305 319.128805 
L 284.647745 311.745601 
L 284.816414 299.936793 
L 284.940695 272.283328 
L 285.038345 188.78247 
L 285.144873 96.644668 
L 285.198136 106.199024 
L 285.748527 300.984448 
L 286.014845 366.186384 
L 286.059232 366.406456 
L 286.121373 366.222891 
L 286.378814 364.275153 
L 286.893695 358.699828 
L 287.728159 346.73805 
L 289.006486 329.156213 
L 289.690036 319.112351 
L 289.947477 311.710379 
L 290.116145 299.841925 
L 290.240427 271.944222 
L 290.338077 187.622491 
L 290.444605 96.658551 
L 290.497868 106.431694 
L 291.057136 304.977363 
L 291.3057 366.080976 
L 291.358964 366.406713 
L 291.421105 366.218778 
L 291.678545 364.267954 
L 292.193427 358.689544 
L 293.027891 346.72571 
L 294.315095 329.033066 
L 294.989768 319.09564 
L 295.247209 311.675157 
L 295.415877 299.746544 
L 295.540159 271.601002 
L 295.637809 186.452922 
L 295.744336 96.67809 
L 295.7976 106.667191 
L 296.365745 309.070288 
L 296.605432 366.092802 
L 296.658695 366.406713 
L 296.720836 366.214664 
L 296.978277 364.260755 
L 297.493159 358.679261 
L 298.327623 346.713626 
L 299.60595 329.135646 
L 300.2895 319.079186 
L 300.546941 311.639678 
L 300.715609 299.649363 
L 300.839891 271.250327 
L 300.937541 185.268777 
L 301.044068 96.704313 
L 301.097332 106.90526 
L 301.674355 313.25191 
L 301.905164 366.104371 
L 301.958427 366.406713 
L 302.020568 366.210551 
L 302.286886 364.173858 
L 302.810645 358.443506 
L 303.671741 346.033614 
L 304.914559 329.012498 
L 305.589232 319.062475 
L 305.846673 311.603942 
L 306.015341 299.551667 
L 306.139623 270.896309 
L 306.24615 171.01622 
L 306.334923 96.725909 
L 306.397064 107.146156 
L 306.982964 317.504747 
L 307.196018 365.975053 
L 307.258159 366.406456 
L 307.3203 366.20618 
L 307.586618 364.166402 
L 308.110377 358.432965 
L 308.971473 346.021274 
L 310.214291 329.001957 
L 310.888964 319.045764 
L 311.146405 311.567949 
L 311.315073 299.452943 
L 311.439355 270.536379 
L 311.545882 169.783792 
L 311.634655 96.693772 
L 311.696795 107.390395 
L 312.291573 321.801803 
L 312.49575 365.989965 
L 312.557891 366.406199 
L 312.620032 366.20181 
L 312.88635 364.158946 
L 313.410109 358.422425 
L 314.280082 345.875245 
L 315.531777 328.765431 
L 316.188695 319.028538 
L 316.446136 311.531442 
L 316.614805 299.352934 
L 316.739086 270.169764 
L 316.845614 168.541364 
L 316.934386 96.668063 
L 316.996527 107.637975 
L 317.600182 326.105545 
L 317.795482 366.004362 
L 317.857623 366.405942 
L 317.910886 366.242687 
L 318.15945 364.388531 
L 318.674332 358.861026 
L 319.491041 347.198761 
L 320.796 329.206089 
L 321.488427 319.01157 
L 321.745868 311.494677 
L 321.914536 299.251639 
L 322.038818 269.796207 
L 322.145345 167.294898 
L 322.234118 96.649295 
L 322.296259 107.886585 
L 322.908791 330.368408 
L 323.095214 366.018759 
L 323.157355 366.405427 
L 323.210618 366.238574 
L 323.459182 364.381332 
L 323.974064 358.850485 
L 324.790773 347.186164 
L 326.095732 329.195548 
L 326.779282 319.175082 
L 327.036723 311.843296 
L 327.205391 300.198514 
L 327.329673 273.211434 
L 327.427323 191.988397 
L 327.53385 96.63824 
L 327.595991 108.135451 
L 328.2174 334.536918 
L 328.403823 366.159389 
L 328.457086 366.404913 
L 328.51035 366.23446 
L 328.758914 364.373876 
L 329.273795 358.840201 
L 329.318182 358.27691 
L 329.335936 359.159768 
L 329.531236 363.074784 
L 329.620009 363.25912 
L 329.664395 363.202817 
L 329.815309 362.607389 
L 330.214786 359.843379 
L 332.176664 345.363629 
L 332.869091 342.202154 
L 333.428359 340.577838 
L 333.889977 339.848722 
L 334.262823 339.626079 
L 334.617914 339.665414 
L 335.106164 339.982153 
L 336.553159 341.015154 
L 337.156814 341.110021 
L 338.106682 341.000243 
L 339.908768 340.799196 
L 342.101455 340.846758 
L 345.803277 340.842902 
L 435.845455 340.844958 
L 435.845455 340.844958 
" clip-path="url(#p8178de6775)" style="fill: none; stroke: #1f77b4; stroke-width: 1.5; stroke-linecap: square"/>
   </g>
   <g id="line2d_14">
    <path d="M 80.754545 340.912574 
L 81.074127 335.923781 
L 82.112768 322.391032 
L 82.272559 314.056747 
L 82.379086 295.573905 
L 82.458982 232.84098 
L 82.565509 68.6913 
L 82.645405 80.943413 
L 82.964986 187.781946 
L 83.524255 369.36 
L 83.613027 369.148253 
L 84.012505 367.355277 
L 84.509632 364.015586 
L 85.219814 357.473978 
L 86.507018 345.678395 
L 87.234955 341.088941 
L 87.838609 338.575274 
L 88.29135 337.522835 
L 88.628686 337.201622 
L 88.903882 337.217781 
L 89.250095 337.496049 
L 90.262105 338.423604 
L 90.697091 338.455412 
L 91.504923 338.222174 
L 92.374895 338.068231 
L 93.520064 338.150602 
L 95.0292 338.172173 
L 98.9352 338.160587 
L 138.217132 338.160123 
L 151.772727 338.160123 
L 152.278732 297.780808 
L 152.358627 241.682761 
L 152.465155 66.96 
L 152.562805 82.17815 
L 152.953405 213.141718 
L 153.432777 368.39233 
L 153.539305 368.00074 
L 153.956536 365.327026 
L 154.471418 360.463469 
L 155.403532 348.962957 
L 156.397786 337.900648 
L 157.924677 322.177074 
L 158.1111 315.738218 
L 158.235382 303.080644 
L 158.324155 269.294895 
L 158.421805 96.680246 
L 158.466191 75.884405 
L 158.537209 86.805839 
L 158.874545 202.270484 
L 159.389427 368.281488 
L 159.4782 367.957505 
L 159.886555 365.334071 
L 160.401436 360.473777 
L 161.33355 348.978452 
L 162.327805 337.932702 
L 163.899082 321.872264 
L 164.085505 315.182798 
L 164.209786 301.525543 
L 164.298559 262.969754 
L 164.431718 76.160366 
L 164.564877 104.997798 
L 165.354955 368.275387 
L 165.461482 367.860226 
L 165.887591 365.044107 
L 166.420227 359.866922 
L 167.654168 344.676398 
L 168.577405 335.285677 
L 169.775836 323.572617 
L 169.988891 318.23175 
L 170.130927 308.498671 
L 170.237455 281.589862 
L 170.31735 178.672849 
L 170.397245 76.195293 
L 170.459386 84.458696 
L 170.725705 174.510477 
L 171.320482 368.274985 
L 171.382623 368.082821 
L 171.755468 365.798939 
L 172.252595 361.327824 
L 173.033795 351.89425 
L 174.170086 338.791394 
L 175.865645 321.057287 
L 176.034314 314.14119 
L 176.158595 297.876532 
L 176.247368 245.680951 
L 176.362773 76.220554 
L 176.460423 93.559346 
L 177.0552 300.036607 
L 177.286009 368.274817 
L 177.303764 368.253589 
L 177.463555 367.480138 
L 177.907418 364.317777 
L 178.466686 358.550911 
L 180.66825 333.88168 
L 181.671382 324.157765 
L 181.902191 318.951726 
L 182.053105 309.663975 
L 182.159632 286.445754 
L 182.239527 202.276881 
L 182.337177 76.209355 
L 182.399318 86.23036 
L 182.710023 192.545233 
L 183.251536 368.274555 
L 183.331432 368.005077 
L 183.730909 365.476832 
L 184.245791 360.676596 
L 185.133518 349.769064 
L 186.154405 338.284103 
L 187.778945 321.525724 
L 187.956491 314.811096 
L 188.080773 300.272255 
L 188.169545 257.294838 
L 188.302705 76.188538 
L 188.418109 101.218819 
L 189.083905 350.925794 
L 189.217064 368.274158 
L 189.234818 368.25688 
L 189.376855 367.588049 
L 189.820718 364.48148 
L 190.371109 358.879942 
L 192.6792 333.199326 
L 193.584682 324.441 
L 193.815491 319.599634 
L 193.975282 310.71557 
L 194.081809 290.504559 
L 194.161705 222.264941 
L 194.268232 76.172021 
L 194.33925 88.10993 
L 194.720973 218.645176 
L 195.182591 368.27365 
L 195.289118 367.878057 
L 195.70635 365.142306 
L 196.230109 360.104707 
L 197.277627 347.143007 
L 198.227495 336.944112 
L 199.665614 322.511296 
L 199.860914 316.395826 
L 199.994073 303.950262 
L 200.091723 266.59539 
L 200.233759 76.159312 
L 200.375795 109.505172 
L 201.156995 368.273079 
L 201.236891 367.97171 
L 201.645245 365.356503 
L 202.160127 360.505567 
L 203.083364 349.125992 
L 204.086495 337.961803 
L 205.66665 321.777911 
L 205.844195 315.469817 
L 205.968477 302.488453 
L 206.05725 267.15796 
L 206.199286 76.15031 
L 206.341323 109.268542 
L 207.122523 368.273634 
L 207.211295 367.930639 
L 207.628527 365.223426 
L 208.152286 360.219157 
L 209.155418 347.812047 
L 210.114164 337.375751 
L 211.614423 322.178251 
L 211.800845 316.003309 
L 211.934005 302.619985 
L 212.022777 267.716587 
L 212.164814 76.145508 
L 212.30685 109.031328 
L 213.08805 368.2741 
L 213.176823 367.934183 
L 213.594055 365.228926 
L 214.117814 360.226933 
L 215.120945 347.820659 
L 216.079691 337.382387 
L 217.57995 322.19299 
L 217.766373 316.041262 
L 217.899532 302.75153 
L 217.988305 268.273444 
L 218.130341 76.14462 
L 218.281255 111.807012 
L 219.053577 368.27447 
L 219.133473 367.982179 
L 219.541827 365.372826 
L 220.056709 360.528708 
L 220.971068 349.263737 
L 221.9742 338.067505 
L 223.572109 321.623872 
L 223.749655 315.070561 
L 223.873936 301.163094 
L 223.962709 261.373666 
L 224.095868 76.148227 
L 224.22015 102.703895 
L 225.019105 368.274747 
L 225.143386 367.756479 
L 225.578373 364.812701 
L 226.119886 359.441824 
L 228.641032 331.788161 
L 229.377845 324.501567 
L 229.617532 319.448321 
L 229.768445 311.119021 
L 229.874973 291.987088 
L 229.954868 229.418449 
L 230.061395 76.15599 
L 230.141291 89.324499 
L 230.602909 245.645962 
L 230.984632 368.274943 
L 231.091159 367.854023 
L 231.517268 365.034558 
L 232.049905 359.853493 
L 233.328232 344.151828 
L 234.251468 334.87902 
L 235.396636 323.700546 
L 235.609691 318.533556 
L 235.760605 308.369831 
L 235.867132 281.028307 
L 235.947027 176.030808 
L 236.026923 76.167902 
L 236.089064 84.709088 
L 236.355382 174.893359 
L 236.950159 368.275023 
L 237.0123 368.07781 
L 237.385145 365.790967 
L 237.89115 361.222401 
L 238.690105 351.54037 
L 239.799764 338.780701 
L 241.495323 321.02961 
L 241.663991 314.067315 
L 241.788273 297.602724 
L 241.877045 244.298603 
L 241.99245 76.185036 
L 242.0901 93.872446 
L 242.693755 304.834152 
L 242.915686 368.275021 
L 242.924564 368.268625 
L 243.031091 367.814986 
L 243.4572 364.97459 
L 243.989836 359.769303 
L 246.661895 330.736683 
L 247.274427 324.532098 
L 247.514114 319.518302 
L 247.665027 311.316682 
L 247.771555 292.697719 
L 247.85145 232.784049 
L 247.957977 76.207514 
L 248.037873 88.760258 
L 248.455105 230.853593 
L 248.881214 368.274905 
L 248.987741 367.865091 
L 249.41385 365.051624 
L 249.946486 359.8775 
L 251.162673 344.893409 
L 252.085909 335.453438 
L 253.302095 323.589857 
L 253.51515 318.273613 
L 253.657186 308.624521 
L 253.763714 282.132162 
L 253.843609 181.236146 
L 253.932382 76.221906 
L 253.985645 84.216355 
L 254.243086 170.984216 
L 254.846741 368.274705 
L 254.908882 368.087671 
L 255.27285 365.87165 
L 255.769977 361.432369 
L 256.5423 352.134595 
L 257.696345 338.801803 
L 259.391905 321.084332 
L 259.560573 314.212899 
L 259.684855 298.138766 
L 259.773627 246.989949 
L 259.897909 76.198753 
L 259.995559 95.855949 
L 260.616968 317.590301 
L 260.812268 368.274376 
L 260.856655 368.168 
L 261.158482 366.437751 
L 261.637855 362.436556 
L 262.312527 354.633772 
L 263.706259 338.373709 
L 265.339677 321.533789 
L 265.517223 314.83247 
L 265.641505 300.34613 
L 265.730277 257.637369 
L 265.863436 76.179969 
L 265.978841 101.110521 
L 266.635759 346.567108 
L 266.777795 368.273924 
L 266.786673 368.272096 
L 266.875445 367.921704 
L 267.292677 365.20958 
L 267.816436 360.199589 
L 268.828445 347.681309 
L 269.787191 337.275075 
L 271.278573 322.141295 
L 271.464995 315.908034 
L 271.598155 302.287746 
L 271.686927 266.301311 
L 271.828964 76.165518 
L 271.971 109.627416 
L 272.743323 368.273383 
L 272.832095 367.969906 
L 273.24045 365.353697 
L 273.755332 360.501591 
L 274.678568 349.121454 
L 275.6817 337.958321 
L 277.261855 321.769781 
L 277.4394 315.448944 
L 277.563682 302.420115 
L 277.652455 266.867026 
L 277.794491 76.154481 
L 277.936527 109.39141 
L 278.717727 368.273353 
L 278.797623 367.973382 
L 279.205977 365.359106 
L 279.720859 360.509257 
L 280.644095 349.130203 
L 281.647227 337.965033 
L 283.227382 321.785444 
L 283.404927 315.489145 
L 283.529209 302.551688 
L 283.617982 267.426812 
L 283.760018 76.147355 
L 283.902055 109.155026 
L 284.683255 368.27387 
L 284.772027 367.932337 
L 285.189259 365.226059 
L 285.713018 360.222879 
L 286.71615 347.816169 
L 287.674895 337.378927 
L 289.175155 322.185305 
L 289.361577 316.021477 
L 289.494736 302.683123 
L 289.583509 267.984081 
L 289.725545 76.144608 
L 289.867582 108.916449 
L 290.648782 368.274292 
L 290.737555 367.935904 
L 291.154786 365.231598 
L 291.678545 360.230711 
L 292.6728 347.93416 
L 293.640423 337.385611 
L 295.140682 322.20007 
L 295.327105 316.059454 
L 295.460264 302.814354 
L 295.549036 268.538172 
L 295.691073 76.145778 
L 295.841986 111.690033 
L 296.614309 368.274612 
L 296.694205 367.983869 
L 297.093682 365.443819 
L 297.608564 360.629571 
L 298.505168 349.602824 
L 299.517177 338.242308 
L 301.132841 321.631734 
L 301.310386 315.091222 
L 301.434668 301.233288 
L 301.523441 261.690443 
L 301.6566 76.151318 
L 301.789759 105.481869 
L 302.579836 368.274855 
L 302.686364 367.85208 
L 303.112473 365.031565 
L 303.645109 359.849286 
L 304.950068 343.844153 
L 305.873305 334.639124 
L 306.982964 323.837552 
L 307.204895 318.519499 
L 307.355809 308.325259 
L 307.462336 280.833255 
L 307.542232 175.125401 
L 307.622127 76.161301 
L 307.684268 84.794921 
L 307.959464 178.153727 
L 308.545364 368.27499 
L 308.607505 368.076099 
L 308.98035 365.788251 
L 309.486355 361.218487 
L 310.285309 351.535664 
L 311.394968 338.777064 
L 313.090527 321.020227 
L 313.259195 314.042188 
L 313.383477 297.508905 
L 313.47225 243.819873 
L 313.587655 76.175444 
L 313.685305 93.979748 
L 314.288959 305.016584 
L 314.510891 368.275037 
L 314.519768 368.268088 
L 314.626295 367.813045 
L 315.052405 364.971616 
L 315.585041 359.765135 
L 318.2571 330.733502 
L 318.869632 324.526817 
L 319.109318 319.506188 
L 319.260232 311.282629 
L 319.366759 292.576031 
L 319.446655 232.212146 
L 319.553182 76.195381 
L 319.633077 88.857266 
L 320.059186 233.797357 
L 320.476418 368.274971 
L 320.591823 367.816777 
L 321.017932 364.977334 
L 321.550568 359.773151 
L 324.222627 330.739626 
L 324.835159 324.537002 
L 325.074845 319.529565 
L 325.225759 311.348349 
L 325.332286 292.810599 
L 325.412182 233.310857 
L 325.518709 76.219703 
L 325.607482 91.059142 
L 326.157873 277.783874 
L 326.441945 368.274823 
L 326.504086 368.085963 
L 326.868055 365.868941 
L 327.365182 361.428468 
L 328.137505 352.129846 
L 329.29155 338.798135 
L 329.318182 338.536344 
L 329.327059 339.024395 
L 329.548991 345.002493 
L 329.744291 346.027691 
L 329.833064 345.941267 
L 330.019486 345.251637 
L 331.599641 338.168118 
L 332.016873 337.472355 
L 332.336455 337.312466 
L 332.638282 337.414581 
L 333.153164 337.886059 
L 333.78345 338.362599 
L 334.236191 338.429892 
L 334.964127 338.263128 
L 335.985014 338.085791 
L 337.29885 338.16628 
L 339.065427 338.161457 
L 344.267509 338.159908 
L 435.845455 338.160123 
L 435.845455 338.160123 
" clip-path="url(#p8178de6775)" style="fill: none; stroke: #ff0000; stroke-width: 1.5; stroke-linecap: square"/>
   </g>
   <g id="patch_3">
    <path d="M 63 384.48 
L 63 51.84 
" style="fill: none; stroke: #000000; stroke-width: 0.8; stroke-linejoin: miter; stroke-linecap: square"/>
   </g>
   <g id="patch_4">
    <path d="M 453.6 384.48 
L 453.6 51.84 
" style="fill: none; stroke: #000000; stroke-width: 0.8; stroke-linejoin: miter; stroke-linecap: square"/>
   </g>
   <g id="patch_5">
    <path d="M 63 384.48 
L 453.6 384.48 
" style="fill: none; stroke: #000000; stroke-width: 0.8; stroke-linejoin: miter; stroke-linecap: square"/>
   </g>
   <g id="patch_6">
    <path d="M 63 51.84 
L 453.6 51.84 
" style="fill: none; stroke: #000000; stroke-width: 0.8; stroke-linejoin: miter; stroke-linecap: square"/>
   </g>
   <g id="legend_1">
    <g id="patch_7">
     <path d="M 383.460938 89.19625 
L 446.6 89.19625 
Q 448.6 89.19625 448.6 87.19625 
L 448.6 58.84 
Q 448.6 56.84 446.6 56.84 
L 383.460938 56.84 
Q 381.460938 56.84 381.460938 58.84 
L 381.460938 87.19625 
Q 381.460938 89.19625 383.460938 89.19625 
z
" style="fill: #ffffff; opacity: 0.8; stroke: #cccccc; stroke-linejoin: miter"/>
    </g>
    <g id="line2d_15">
     <path d="M 385.460938 64.938437 
L 395.460938 64.938437 
L 405.460938 64.938437 
" style="fill: none; stroke: #1f77b4; stroke-width: 1.5; stroke-linecap: square"/>
    </g>
    <g id="text_15">
     <!-- target -->
     <g transform="translate(413.460938 68.438437)scale(0.1 -0.1)">
      <defs>
       <path id="DejaVuSans-72" d="M 2631 2963 
Q 2534 3019 2420 3045 
Q 2306 3072 2169 3072 
Q 1681 3072 1420 2755 
Q 1159 2438 1159 1844 
L 1159 0 
L 581 0 
L 581 3500 
L 1159 3500 
L 1159 2956 
Q 1341 3275 1631 3429 
Q 1922 3584 2338 3584 
Q 2397 3584 2469 3576 
Q 2541 3569 2628 3553 
L 2631 2963 
z
" transform="scale(0.015625)"/>
      </defs>
      <use xlink:href="#DejaVuSans-74"/>
      <use xlink:href="#DejaVuSans-61" x="39.208984"/>
      <use xlink:href="#DejaVuSans-72" x="100.488281"/>
      <use xlink:href="#DejaVuSans-67" x="139.851562"/>
      <use xlink:href="#DejaVuSans-65" x="203.328125"/>
      <use xlink:href="#DejaVuSans-74" x="264.851562"/>
     </g>
    </g>
    <g id="line2d_16">
     <path d="M 385.460938 79.616562 
L 395.460938 79.616562 
L 405.460938 79.616562 
" style="fill: none; stroke: #ff0000; stroke-width: 1.5; stroke-linecap: square"/>
    </g>
    <g id="text_16">
     <!-- model -->
     <g transform="translate(413.460938 83.116562)scale(0.1 -0.1)">
      <defs>
       <path id="DejaVuSans-64" d="M 2906 2969 
L 2906 4863 
L 3481 4863 
L 3481 0 
L 2906 0 
L 2906 525 
Q 2725 213 2448 61 
Q 2172 -91 1784 -91 
Q 1150 -91 751 415 
Q 353 922 353 1747 
Q 353 2572 751 3078 
Q 1150 3584 1784 3584 
Q 2172 3584 2448 3432 
Q 2725 3281 2906 2969 
z
M 947 1747 
Q 947 1113 1208 752 
Q 1469 391 1925 391 
Q 2381 391 2643 752 
Q 2906 1113 2906 1747 
Q 2906 2381 2643 2742 
Q 2381 3103 1925 3103 
Q 1469 3103 1208 2742 
Q 947 2381 947 1747 
z
" transform="scale(0.015625)"/>
      </defs>
      <use xlink:href="#DejaVuSans-6d"/>
      <use xlink:href="#DejaVuSans-6f" x="97.412109"/>
      <use xlink:href="#DejaVuSans-64" x="158.59375"/>
      <use xlink:href="#DejaVuSans-65" x="222.070312"/>
      <use xlink:href="#DejaVuSans-6c" x="283.59375"/>
     </g>
    </g>
   </g>
  </g>
 </g>
 <defs>
  <clipPath id="p8178de6775">
   <rect x="63" y="51.84" width="390.6" height="332.64"/>
  </clipPath>
 </defs>
</svg>
