<?xml version="1.0" encoding="utf-8" standalone="no"?>
<!DOCTYPE svg PUBLIC "-//W3C//DTD SVG 1.1//EN"
  "http://www.w3.org/Graphics/SVG/1.1/DTD/svg11.dtd">
<svg xmlns:xlink="http://www.w3.org/1999/xlink" width="504pt" height="432pt" viewBox="0 0 504 432" xmlns="http://www.w3.org/2000/svg" version="1.1">
 <metadata>
  <rdf:RDF xmlns:dc="http://purl.org/dc/elements/1.1/" xmlns:cc="http://creativecommons.org/ns#" xmlns:rdf="http://www.w3.org/1999/02/22-rdf-syntax-ns#">
   <cc:Work>
    <dc:type rdf:resource="http://purl.org/dc/dcmitype/StillImage"/>
    <dc:date>2022-01-31T18:29:10.654182</dc:date>
    <dc:format>image/svg+xml</dc:format>
    <dc:creator>
     <cc:Agent>
      <dc:title>Matplotlib v3.5.1, https://matplotlib.org/</dc:title>
     </cc:Agent>
    </dc:creator>
   </cc:Work>
  </rdf:RDF>
 </metadata>
 <defs>
  <style type="text/css">*{stroke-linejoin: round; stroke-linecap: butt}</style>
 </defs>
 <g id="figure_1">
  <g id="patch_1">
   <path d="M 0 432 
L 504 432 
L 504 0 
L 0 0 
z
" style="fill: #ffffff"/>
  </g>
  <g id="axes_1">
   <g id="patch_2">
    <path d="M 63 384.48 
L 453.6 384.48 
L 453.6 51.84 
L 63 51.84 
z
" style="fill: #ffffff"/>
   </g>
   <g id="matplotlib.axis_1">
    <g id="xtick_1">
     <g id="line2d_1">
      <defs>
       <path id="m1a2e985b2e" d="M 0 0 
L 0 3.5 
" style="stroke: #000000; stroke-width: 0.8"/>
      </defs>
      <g>
       <use xlink:href="#m1a2e985b2e" x="80.754545" y="384.48" style="stroke: #000000; stroke-width: 0.8"/>
      </g>
     </g>
     <g id="text_1">
      <!-- 0 -->
      <g transform="translate(77.573295 399.078438)scale(0.1 -0.1)">
       <defs>
        <path id="DejaVuSans-30" d="M 2034 4250 
Q 1547 4250 1301 3770 
Q 1056 3291 1056 2328 
Q 1056 1369 1301 889 
Q 1547 409 2034 409 
Q 2525 409 2770 889 
Q 3016 1369 3016 2328 
Q 3016 3291 2770 3770 
Q 2525 4250 2034 4250 
z
M 2034 4750 
Q 2819 4750 3233 4129 
Q 3647 3509 3647 2328 
Q 3647 1150 3233 529 
Q 2819 -91 2034 -91 
Q 1250 -91 836 529 
Q 422 1150 422 2328 
Q 422 3509 836 4129 
Q 1250 4750 2034 4750 
z
" transform="scale(0.015625)"/>
       </defs>
       <use xlink:href="#DejaVuSans-30"/>
      </g>
     </g>
    </g>
    <g id="xtick_2">
     <g id="line2d_2">
      <g>
       <use xlink:href="#m1a2e985b2e" x="151.772727" y="384.48" style="stroke: #000000; stroke-width: 0.8"/>
      </g>
     </g>
     <g id="text_2">
      <!-- 200 -->
      <g transform="translate(142.228977 399.078438)scale(0.1 -0.1)">
       <defs>
        <path id="DejaVuSans-32" d="M 1228 531 
L 3431 531 
L 3431 0 
L 469 0 
L 469 531 
Q 828 903 1448 1529 
Q 2069 2156 2228 2338 
Q 2531 2678 2651 2914 
Q 2772 3150 2772 3378 
Q 2772 3750 2511 3984 
Q 2250 4219 1831 4219 
Q 1534 4219 1204 4116 
Q 875 4013 500 3803 
L 500 4441 
Q 881 4594 1212 4672 
Q 1544 4750 1819 4750 
Q 2544 4750 2975 4387 
Q 3406 4025 3406 3419 
Q 3406 3131 3298 2873 
Q 3191 2616 2906 2266 
Q 2828 2175 2409 1742 
Q 1991 1309 1228 531 
z
" transform="scale(0.015625)"/>
       </defs>
       <use xlink:href="#DejaVuSans-32"/>
       <use xlink:href="#DejaVuSans-30" x="63.623047"/>
       <use xlink:href="#DejaVuSans-30" x="127.246094"/>
      </g>
     </g>
    </g>
    <g id="xtick_3">
     <g id="line2d_3">
      <g>
       <use xlink:href="#m1a2e985b2e" x="222.790909" y="384.48" style="stroke: #000000; stroke-width: 0.8"/>
      </g>
     </g>
     <g id="text_3">
      <!-- 400 -->
      <g transform="translate(213.247159 399.078438)scale(0.1 -0.1)">
       <defs>
        <path id="DejaVuSans-34" d="M 2419 4116 
L 825 1625 
L 2419 1625 
L 2419 4116 
z
M 2253 4666 
L 3047 4666 
L 3047 1625 
L 3713 1625 
L 3713 1100 
L 3047 1100 
L 3047 0 
L 2419 0 
L 2419 1100 
L 313 1100 
L 313 1709 
L 2253 4666 
z
" transform="scale(0.015625)"/>
       </defs>
       <use xlink:href="#DejaVuSans-34"/>
       <use xlink:href="#DejaVuSans-30" x="63.623047"/>
       <use xlink:href="#DejaVuSans-30" x="127.246094"/>
      </g>
     </g>
    </g>
    <g id="xtick_4">
     <g id="line2d_4">
      <g>
       <use xlink:href="#m1a2e985b2e" x="293.809091" y="384.48" style="stroke: #000000; stroke-width: 0.8"/>
      </g>
     </g>
     <g id="text_4">
      <!-- 600 -->
      <g transform="translate(284.265341 399.078438)scale(0.1 -0.1)">
       <defs>
        <path id="DejaVuSans-36" d="M 2113 2584 
Q 1688 2584 1439 2293 
Q 1191 2003 1191 1497 
Q 1191 994 1439 701 
Q 1688 409 2113 409 
Q 2538 409 2786 701 
Q 3034 994 3034 1497 
Q 3034 2003 2786 2293 
Q 2538 2584 2113 2584 
z
M 3366 4563 
L 3366 3988 
Q 3128 4100 2886 4159 
Q 2644 4219 2406 4219 
Q 1781 4219 1451 3797 
Q 1122 3375 1075 2522 
Q 1259 2794 1537 2939 
Q 1816 3084 2150 3084 
Q 2853 3084 3261 2657 
Q 3669 2231 3669 1497 
Q 3669 778 3244 343 
Q 2819 -91 2113 -91 
Q 1303 -91 875 529 
Q 447 1150 447 2328 
Q 447 3434 972 4092 
Q 1497 4750 2381 4750 
Q 2619 4750 2861 4703 
Q 3103 4656 3366 4563 
z
" transform="scale(0.015625)"/>
       </defs>
       <use xlink:href="#DejaVuSans-36"/>
       <use xlink:href="#DejaVuSans-30" x="63.623047"/>
       <use xlink:href="#DejaVuSans-30" x="127.246094"/>
      </g>
     </g>
    </g>
    <g id="xtick_5">
     <g id="line2d_5">
      <g>
       <use xlink:href="#m1a2e985b2e" x="364.827273" y="384.48" style="stroke: #000000; stroke-width: 0.8"/>
      </g>
     </g>
     <g id="text_5">
      <!-- 800 -->
      <g transform="translate(355.283523 399.078438)scale(0.1 -0.1)">
       <defs>
        <path id="DejaVuSans-38" d="M 2034 2216 
Q 1584 2216 1326 1975 
Q 1069 1734 1069 1313 
Q 1069 891 1326 650 
Q 1584 409 2034 409 
Q 2484 409 2743 651 
Q 3003 894 3003 1313 
Q 3003 1734 2745 1975 
Q 2488 2216 2034 2216 
z
M 1403 2484 
Q 997 2584 770 2862 
Q 544 3141 544 3541 
Q 544 4100 942 4425 
Q 1341 4750 2034 4750 
Q 2731 4750 3128 4425 
Q 3525 4100 3525 3541 
Q 3525 3141 3298 2862 
Q 3072 2584 2669 2484 
Q 3125 2378 3379 2068 
Q 3634 1759 3634 1313 
Q 3634 634 3220 271 
Q 2806 -91 2034 -91 
Q 1263 -91 848 271 
Q 434 634 434 1313 
Q 434 1759 690 2068 
Q 947 2378 1403 2484 
z
M 1172 3481 
Q 1172 3119 1398 2916 
Q 1625 2713 2034 2713 
Q 2441 2713 2670 2916 
Q 2900 3119 2900 3481 
Q 2900 3844 2670 4047 
Q 2441 4250 2034 4250 
Q 1625 4250 1398 4047 
Q 1172 3844 1172 3481 
z
" transform="scale(0.015625)"/>
       </defs>
       <use xlink:href="#DejaVuSans-38"/>
       <use xlink:href="#DejaVuSans-30" x="63.623047"/>
       <use xlink:href="#DejaVuSans-30" x="127.246094"/>
      </g>
     </g>
    </g>
    <g id="text_6">
     <!-- time [ms] -->
     <g transform="translate(234.038281 412.756563)scale(0.1 -0.1)">
      <defs>
       <path id="DejaVuSans-74" d="M 1172 4494 
L 1172 3500 
L 2356 3500 
L 2356 3053 
L 1172 3053 
L 1172 1153 
Q 1172 725 1289 603 
Q 1406 481 1766 481 
L 2356 481 
L 2356 0 
L 1766 0 
Q 1100 0 847 248 
Q 594 497 594 1153 
L 594 3053 
L 172 3053 
L 172 3500 
L 594 3500 
L 594 4494 
L 1172 4494 
z
" transform="scale(0.015625)"/>
       <path id="DejaVuSans-69" d="M 603 3500 
L 1178 3500 
L 1178 0 
L 603 0 
L 603 3500 
z
M 603 4863 
L 1178 4863 
L 1178 4134 
L 603 4134 
L 603 4863 
z
" transform="scale(0.015625)"/>
       <path id="DejaVuSans-6d" d="M 3328 2828 
Q 3544 3216 3844 3400 
Q 4144 3584 4550 3584 
Q 5097 3584 5394 3201 
Q 5691 2819 5691 2113 
L 5691 0 
L 5113 0 
L 5113 2094 
Q 5113 2597 4934 2840 
Q 4756 3084 4391 3084 
Q 3944 3084 3684 2787 
Q 3425 2491 3425 1978 
L 3425 0 
L 2847 0 
L 2847 2094 
Q 2847 2600 2669 2842 
Q 2491 3084 2119 3084 
Q 1678 3084 1418 2786 
Q 1159 2488 1159 1978 
L 1159 0 
L 581 0 
L 581 3500 
L 1159 3500 
L 1159 2956 
Q 1356 3278 1631 3431 
Q 1906 3584 2284 3584 
Q 2666 3584 2933 3390 
Q 3200 3197 3328 2828 
z
" transform="scale(0.015625)"/>
       <path id="DejaVuSans-65" d="M 3597 1894 
L 3597 1613 
L 953 1613 
Q 991 1019 1311 708 
Q 1631 397 2203 397 
Q 2534 397 2845 478 
Q 3156 559 3463 722 
L 3463 178 
Q 3153 47 2828 -22 
Q 2503 -91 2169 -91 
Q 1331 -91 842 396 
Q 353 884 353 1716 
Q 353 2575 817 3079 
Q 1281 3584 2069 3584 
Q 2775 3584 3186 3129 
Q 3597 2675 3597 1894 
z
M 3022 2063 
Q 3016 2534 2758 2815 
Q 2500 3097 2075 3097 
Q 1594 3097 1305 2825 
Q 1016 2553 972 2059 
L 3022 2063 
z
" transform="scale(0.015625)"/>
       <path id="DejaVuSans-20" transform="scale(0.015625)"/>
       <path id="DejaVuSans-5b" d="M 550 4863 
L 1875 4863 
L 1875 4416 
L 1125 4416 
L 1125 -397 
L 1875 -397 
L 1875 -844 
L 550 -844 
L 550 4863 
z
" transform="scale(0.015625)"/>
       <path id="DejaVuSans-73" d="M 2834 3397 
L 2834 2853 
Q 2591 2978 2328 3040 
Q 2066 3103 1784 3103 
Q 1356 3103 1142 2972 
Q 928 2841 928 2578 
Q 928 2378 1081 2264 
Q 1234 2150 1697 2047 
L 1894 2003 
Q 2506 1872 2764 1633 
Q 3022 1394 3022 966 
Q 3022 478 2636 193 
Q 2250 -91 1575 -91 
Q 1294 -91 989 -36 
Q 684 19 347 128 
L 347 722 
Q 666 556 975 473 
Q 1284 391 1588 391 
Q 1994 391 2212 530 
Q 2431 669 2431 922 
Q 2431 1156 2273 1281 
Q 2116 1406 1581 1522 
L 1381 1569 
Q 847 1681 609 1914 
Q 372 2147 372 2553 
Q 372 3047 722 3315 
Q 1072 3584 1716 3584 
Q 2034 3584 2315 3537 
Q 2597 3491 2834 3397 
z
" transform="scale(0.015625)"/>
       <path id="DejaVuSans-5d" d="M 1947 4863 
L 1947 -844 
L 622 -844 
L 622 -397 
L 1369 -397 
L 1369 4416 
L 622 4416 
L 622 4863 
L 1947 4863 
z
" transform="scale(0.015625)"/>
      </defs>
      <use xlink:href="#DejaVuSans-74"/>
      <use xlink:href="#DejaVuSans-69" x="39.208984"/>
      <use xlink:href="#DejaVuSans-6d" x="66.992188"/>
      <use xlink:href="#DejaVuSans-65" x="164.404297"/>
      <use xlink:href="#DejaVuSans-20" x="225.927734"/>
      <use xlink:href="#DejaVuSans-5b" x="257.714844"/>
      <use xlink:href="#DejaVuSans-6d" x="296.728516"/>
      <use xlink:href="#DejaVuSans-73" x="394.140625"/>
      <use xlink:href="#DejaVuSans-5d" x="446.240234"/>
     </g>
    </g>
   </g>
   <g id="matplotlib.axis_2">
    <g id="ytick_1">
     <g id="line2d_6">
      <defs>
       <path id="m482d854206" d="M 0 0 
L -3.5 0 
" style="stroke: #000000; stroke-width: 0.8"/>
      </defs>
      <g>
       <use xlink:href="#m482d854206" x="63" y="381.67026" style="stroke: #000000; stroke-width: 0.8"/>
      </g>
     </g>
     <g id="text_7">
      <!-- −80 -->
      <g transform="translate(34.895313 385.469479)scale(0.1 -0.1)">
       <defs>
        <path id="DejaVuSans-2212" d="M 678 2272 
L 4684 2272 
L 4684 1741 
L 678 1741 
L 678 2272 
z
" transform="scale(0.015625)"/>
       </defs>
       <use xlink:href="#DejaVuSans-2212"/>
       <use xlink:href="#DejaVuSans-38" x="83.789062"/>
       <use xlink:href="#DejaVuSans-30" x="147.412109"/>
      </g>
     </g>
    </g>
    <g id="ytick_2">
     <g id="line2d_7">
      <g>
       <use xlink:href="#m482d854206" x="63" y="331.518462" style="stroke: #000000; stroke-width: 0.8"/>
      </g>
     </g>
     <g id="text_8">
      <!-- −60 -->
      <g transform="translate(34.895313 335.317681)scale(0.1 -0.1)">
       <use xlink:href="#DejaVuSans-2212"/>
       <use xlink:href="#DejaVuSans-36" x="83.789062"/>
       <use xlink:href="#DejaVuSans-30" x="147.412109"/>
      </g>
     </g>
    </g>
    <g id="ytick_3">
     <g id="line2d_8">
      <g>
       <use xlink:href="#m482d854206" x="63" y="281.366664" style="stroke: #000000; stroke-width: 0.8"/>
      </g>
     </g>
     <g id="text_9">
      <!-- −40 -->
      <g transform="translate(34.895313 285.165883)scale(0.1 -0.1)">
       <use xlink:href="#DejaVuSans-2212"/>
       <use xlink:href="#DejaVuSans-34" x="83.789062"/>
       <use xlink:href="#DejaVuSans-30" x="147.412109"/>
      </g>
     </g>
    </g>
    <g id="ytick_4">
     <g id="line2d_9">
      <g>
       <use xlink:href="#m482d854206" x="63" y="231.214865" style="stroke: #000000; stroke-width: 0.8"/>
      </g>
     </g>
     <g id="text_10">
      <!-- −20 -->
      <g transform="translate(34.895313 235.014084)scale(0.1 -0.1)">
       <use xlink:href="#DejaVuSans-2212"/>
       <use xlink:href="#DejaVuSans-32" x="83.789062"/>
       <use xlink:href="#DejaVuSans-30" x="147.412109"/>
      </g>
     </g>
    </g>
    <g id="ytick_5">
     <g id="line2d_10">
      <g>
       <use xlink:href="#m482d854206" x="63" y="181.063067" style="stroke: #000000; stroke-width: 0.8"/>
      </g>
     </g>
     <g id="text_11">
      <!-- 0 -->
      <g transform="translate(49.6375 184.862286)scale(0.1 -0.1)">
       <use xlink:href="#DejaVuSans-30"/>
      </g>
     </g>
    </g>
    <g id="ytick_6">
     <g id="line2d_11">
      <g>
       <use xlink:href="#m482d854206" x="63" y="130.911269" style="stroke: #000000; stroke-width: 0.8"/>
      </g>
     </g>
     <g id="text_12">
      <!-- 20 -->
      <g transform="translate(43.275 134.710488)scale(0.1 -0.1)">
       <use xlink:href="#DejaVuSans-32"/>
       <use xlink:href="#DejaVuSans-30" x="63.623047"/>
      </g>
     </g>
    </g>
    <g id="ytick_7">
     <g id="line2d_12">
      <g>
       <use xlink:href="#m482d854206" x="63" y="80.759471" style="stroke: #000000; stroke-width: 0.8"/>
      </g>
     </g>
     <g id="text_13">
      <!-- 40 -->
      <g transform="translate(43.275 84.558689)scale(0.1 -0.1)">
       <use xlink:href="#DejaVuSans-34"/>
       <use xlink:href="#DejaVuSans-30" x="63.623047"/>
      </g>
     </g>
    </g>
    <g id="text_14">
     <!-- voltage [mV] -->
     <g transform="translate(28.815625 250.624062)rotate(-90)scale(0.1 -0.1)">
      <defs>
       <path id="DejaVuSans-76" d="M 191 3500 
L 800 3500 
L 1894 563 
L 2988 3500 
L 3597 3500 
L 2284 0 
L 1503 0 
L 191 3500 
z
" transform="scale(0.015625)"/>
       <path id="DejaVuSans-6f" d="M 1959 3097 
Q 1497 3097 1228 2736 
Q 959 2375 959 1747 
Q 959 1119 1226 758 
Q 1494 397 1959 397 
Q 2419 397 2687 759 
Q 2956 1122 2956 1747 
Q 2956 2369 2687 2733 
Q 2419 3097 1959 3097 
z
M 1959 3584 
Q 2709 3584 3137 3096 
Q 3566 2609 3566 1747 
Q 3566 888 3137 398 
Q 2709 -91 1959 -91 
Q 1206 -91 779 398 
Q 353 888 353 1747 
Q 353 2609 779 3096 
Q 1206 3584 1959 3584 
z
" transform="scale(0.015625)"/>
       <path id="DejaVuSans-6c" d="M 603 4863 
L 1178 4863 
L 1178 0 
L 603 0 
L 603 4863 
z
" transform="scale(0.015625)"/>
       <path id="DejaVuSans-61" d="M 2194 1759 
Q 1497 1759 1228 1600 
Q 959 1441 959 1056 
Q 959 750 1161 570 
Q 1363 391 1709 391 
Q 2188 391 2477 730 
Q 2766 1069 2766 1631 
L 2766 1759 
L 2194 1759 
z
M 3341 1997 
L 3341 0 
L 2766 0 
L 2766 531 
Q 2569 213 2275 61 
Q 1981 -91 1556 -91 
Q 1019 -91 701 211 
Q 384 513 384 1019 
Q 384 1609 779 1909 
Q 1175 2209 1959 2209 
L 2766 2209 
L 2766 2266 
Q 2766 2663 2505 2880 
Q 2244 3097 1772 3097 
Q 1472 3097 1187 3025 
Q 903 2953 641 2809 
L 641 3341 
Q 956 3463 1253 3523 
Q 1550 3584 1831 3584 
Q 2591 3584 2966 3190 
Q 3341 2797 3341 1997 
z
" transform="scale(0.015625)"/>
       <path id="DejaVuSans-67" d="M 2906 1791 
Q 2906 2416 2648 2759 
Q 2391 3103 1925 3103 
Q 1463 3103 1205 2759 
Q 947 2416 947 1791 
Q 947 1169 1205 825 
Q 1463 481 1925 481 
Q 2391 481 2648 825 
Q 2906 1169 2906 1791 
z
M 3481 434 
Q 3481 -459 3084 -895 
Q 2688 -1331 1869 -1331 
Q 1566 -1331 1297 -1286 
Q 1028 -1241 775 -1147 
L 775 -588 
Q 1028 -725 1275 -790 
Q 1522 -856 1778 -856 
Q 2344 -856 2625 -561 
Q 2906 -266 2906 331 
L 2906 616 
Q 2728 306 2450 153 
Q 2172 0 1784 0 
Q 1141 0 747 490 
Q 353 981 353 1791 
Q 353 2603 747 3093 
Q 1141 3584 1784 3584 
Q 2172 3584 2450 3431 
Q 2728 3278 2906 2969 
L 2906 3500 
L 3481 3500 
L 3481 434 
z
" transform="scale(0.015625)"/>
       <path id="DejaVuSans-56" d="M 1831 0 
L 50 4666 
L 709 4666 
L 2188 738 
L 3669 4666 
L 4325 4666 
L 2547 0 
L 1831 0 
z
" transform="scale(0.015625)"/>
      </defs>
      <use xlink:href="#DejaVuSans-76"/>
      <use xlink:href="#DejaVuSans-6f" x="59.179688"/>
      <use xlink:href="#DejaVuSans-6c" x="120.361328"/>
      <use xlink:href="#DejaVuSans-74" x="148.144531"/>
      <use xlink:href="#DejaVuSans-61" x="187.353516"/>
      <use xlink:href="#DejaVuSans-67" x="248.632812"/>
      <use xlink:href="#DejaVuSans-65" x="312.109375"/>
      <use xlink:href="#DejaVuSans-20" x="373.632812"/>
      <use xlink:href="#DejaVuSans-5b" x="405.419922"/>
      <use xlink:href="#DejaVuSans-6d" x="444.433594"/>
      <use xlink:href="#DejaVuSans-56" x="541.845703"/>
      <use xlink:href="#DejaVuSans-5d" x="610.253906"/>
     </g>
    </g>
   </g>
   <g id="line2d_13">
    <path d="M 80.754545 344.056412 
L 81.988486 343.925515 
L 83.852714 343.983692 
L 87.918505 343.987453 
L 151.772727 343.990462 
L 152.314241 301.457223 
L 152.420768 254.995845 
L 152.562805 81.572431 
L 152.678209 105.662848 
L 153.565936 369.36 
L 153.610323 369.263959 
L 153.8145 367.946722 
L 154.293873 363.405477 
L 154.959668 354.691853 
L 157.42755 317.538899 
L 157.613973 306.908975 
L 157.738255 285.925212 
L 157.835905 226.16483 
L 157.969064 104.844621 
L 158.031205 117.409151 
L 158.883423 368.954523 
L 158.945564 368.779242 
L 159.203005 366.888519 
L 159.717886 361.469116 
L 160.534595 350.075129 
L 161.8218 332.755205 
L 162.514227 322.851981 
L 162.771668 315.667485 
L 162.940336 304.212062 
L 163.064618 277.495697 
L 163.162268 196.868732 
L 163.268795 105.723782 
L 163.322059 114.811789 
L 163.863573 301.191419 
L 164.147645 368.785762 
L 164.183155 368.924181 
L 164.245295 368.750906 
L 164.493859 366.932402 
L 165.008741 361.531806 
L 165.834327 350.020213 
L 167.112655 332.826421 
L 167.813959 322.818128 
L 168.0714 315.624354 
L 168.240068 304.131317 
L 168.36435 277.260485 
L 168.462 196.156451 
L 168.568527 105.797254 
L 168.621791 115.023931 
L 169.172182 304.966596 
L 169.4385 368.703764 
L 169.482886 368.922175 
L 169.545027 368.745139 
L 169.802468 366.846643 
L 170.31735 361.410188 
L 171.151814 349.744127 
L 172.430141 332.594469 
L 173.113691 322.800575 
L 173.371132 315.589499 
L 173.5398 304.03979 
L 173.664082 276.937508 
L 173.761732 195.056597 
L 173.868259 105.813303 
L 173.921523 115.249364 
L 174.480791 308.855867 
L 174.729355 368.599197 
L 174.782618 368.922175 
L 174.844759 368.741127 
L 175.1022 366.839621 
L 175.617082 361.399907 
L 176.451545 349.73184 
L 177.729873 332.584188 
L 178.413423 322.784526 
L 178.670864 315.555145 
L 178.839532 303.947009 
L 178.963814 276.606004 
L 179.061464 193.924546 
L 179.167991 105.829853 
L 179.221255 115.477304 
L 179.7894 312.843688 
L 180.029086 368.610983 
L 180.08235 368.922426 
L 180.144491 368.736864 
L 180.401932 366.8326 
L 180.916814 361.389876 
L 181.751277 349.720054 
L 183.029605 332.574157 
L 183.713155 322.768227 
L 183.970595 315.52054 
L 184.139264 303.853226 
L 184.263545 276.266727 
L 184.361195 192.772584 
L 184.467723 105.852672 
L 184.520986 115.708754 
L 185.098009 316.919274 
L 185.328818 368.622518 
L 185.382082 368.922426 
L 185.444223 368.732852 
L 185.701664 366.825328 
L 186.216545 361.379846 
L 187.051009 349.708018 
L 188.329336 332.564127 
L 189.012886 322.752179 
L 189.270327 315.485684 
L 189.438995 303.757937 
L 189.563277 275.922435 
L 189.660927 191.616034 
L 189.767455 105.881008 
L 189.820718 115.942462 
L 190.406618 321.063818 
L 190.619673 368.494631 
L 190.681814 368.922175 
L 190.743955 368.728589 
L 191.010273 366.740572 
L 191.525155 361.259983 
L 192.368495 349.435192 
L 193.637945 332.443763 
L 194.312618 322.735628 
L 194.570059 315.450829 
L 194.738727 303.662147 
L 194.863009 275.574883 
L 194.969536 177.69249 
L 195.058309 105.868219 
L 195.12045 116.178677 
L 195.715227 325.252496 
L 195.919405 368.509426 
L 195.981545 368.922175 
L 196.043686 368.724326 
L 196.310005 366.7333 
L 196.833764 361.139619 
L 197.703736 348.902329 
L 198.955432 332.213315 
L 199.61235 322.719329 
L 199.869791 315.415472 
L 200.038459 303.565354 
L 200.162741 275.22031 
L 200.269268 176.485562 
L 200.358041 105.840134 
L 200.420182 116.418904 
L 201.023836 329.449951 
L 201.219136 368.523468 
L 201.281277 368.921673 
L 201.343418 368.720063 
L 201.609736 366.726028 
L 202.133495 361.129087 
L 202.994591 349.020186 
L 204.255164 332.203034 
L 204.912082 322.702528 
L 205.169523 315.379613 
L 205.338191 303.467057 
L 205.462473 274.858465 
L 205.569 175.270534 
L 205.657773 105.81882 
L 205.719914 116.660886 
L 206.332445 333.610294 
L 206.518868 368.537511 
L 206.581009 368.921423 
L 206.634273 368.760184 
L 206.873959 367.026186 
L 207.388841 361.66546 
L 208.187795 350.572886 
L 209.510509 332.742668 
L 210.202936 322.862011 
L 210.460377 315.71889 
L 210.629045 304.387342 
L 210.753327 278.170991 
L 210.850977 199.314987 
L 210.957505 105.804276 
L 211.019645 116.903872 
L 211.641055 337.681867 
L 211.827477 368.676682 
L 211.880741 368.920921 
L 211.934005 368.756172 
L 212.182568 366.942934 
L 212.69745 361.546851 
L 213.514159 350.168913 
L 214.810241 332.732386 
L 215.502668 322.845712 
L 215.760109 315.684536 
L 215.928777 304.295314 
L 216.053059 277.84676 
L 216.150709 198.188577 
L 216.257236 105.798257 
L 216.319377 117.146356 
L 216.949664 341.603989 
L 217.127209 368.686712 
L 217.171595 368.921423 
L 217.233736 368.75216 
L 217.4823 366.935913 
L 217.997182 361.536821 
L 218.822768 350.026231 
L 220.101095 332.831938 
L 220.8024 322.829412 
L 221.059841 315.650433 
L 221.228509 304.203536 
L 221.352791 277.521275 
L 221.450441 197.06272 
L 221.556968 105.798759 
L 221.610232 114.847146 
L 222.151745 301.244329 
L 222.426941 368.696241 
L 222.471327 368.921673 
L 222.533468 368.748148 
L 222.782032 366.928892 
L 223.296914 361.526791 
L 224.1225 350.013944 
L 225.418582 332.602242 
L 226.111009 322.636328 
L 226.36845 315.236932 
L 226.537118 303.072111 
L 226.652523 277.193282 
L 226.750173 195.932373 
L 226.8567 105.804526 
L 226.909964 115.074083 
L 227.460355 305.038563 
L 227.726673 368.705519 
L 227.771059 368.922175 
L 227.8332 368.744136 
L 228.090641 366.844887 
L 228.605523 361.40768 
L 229.439986 349.741118 
L 230.718314 332.591961 
L 231.401864 322.796814 
L 231.659305 315.581474 
L 231.827973 304.018727 
L 231.952255 276.863032 
L 232.049905 194.801826 
L 232.156432 105.816814 
L 232.209695 115.300769 
L 232.768964 308.930844 
L 233.017527 368.601956 
L 233.070791 368.922175 
L 233.132932 368.740124 
L 233.390373 366.837866 
L 233.905255 361.39765 
L 234.739718 349.729082 
L 236.018045 332.581931 
L 236.701595 322.780765 
L 236.959036 315.547371 
L 237.127705 303.925946 
L 237.251986 276.529774 
L 237.349636 193.66481 
L 237.456164 105.834367 
L 237.509427 115.529712 
L 238.077573 312.920921 
L 238.317259 368.61349 
L 238.370523 368.922426 
L 238.432664 368.736112 
L 238.698982 366.75336 
L 239.213864 361.278038 
L 240.057205 349.456507 
L 241.317777 332.571901 
L 242.001327 322.764716 
L 242.258768 315.512766 
L 242.427436 303.83166 
L 242.551718 276.188741 
L 242.649368 192.510165 
L 242.755895 105.85869 
L 242.809159 115.761664 
L 243.386182 316.998263 
L 243.616991 368.625025 
L 243.670255 368.922426 
L 243.732395 368.731849 
L 243.989836 366.823824 
L 244.504718 361.377589 
L 245.348059 349.574865 
L 246.617509 332.56162 
L 247.301059 322.748417 
L 247.5585 315.477911 
L 247.727168 303.736121 
L 247.85145 275.843948 
L 247.9491 191.352486 
L 248.055627 105.888531 
L 248.108891 115.995873 
L 248.694791 321.144563 
L 248.907845 368.498141 
L 248.969986 368.922175 
L 249.032127 368.727837 
L 249.298445 366.739067 
L 249.822205 361.147643 
L 250.692177 348.911858 
L 251.943873 332.22134 
L 252.600791 322.731867 
L 252.858232 315.442805 
L 253.0269 303.64008 
L 253.151182 275.49464 
L 253.257709 177.417708 
L 253.346482 105.861198 
L 253.408623 116.233342 
L 254.0034 325.334745 
L 254.207577 368.512685 
L 254.269718 368.921924 
L 254.331859 368.723574 
L 254.598177 366.731795 
L 255.121936 361.137111 
L 255.983032 349.029715 
L 257.22585 332.431225 
L 257.900523 322.715568 
L 258.157964 315.407448 
L 258.326632 303.543037 
L 258.450914 275.138312 
L 258.557441 176.208298 
L 258.646214 105.834617 
L 258.708355 116.474321 
L 259.312009 329.5322 
L 259.507309 368.526728 
L 259.56945 368.921673 
L 259.631591 368.71906 
L 259.897909 366.724272 
L 260.421668 361.12683 
L 261.291641 348.887534 
L 262.525582 332.420944 
L 263.200255 322.698767 
L 263.457695 315.371589 
L 263.626364 303.444488 
L 263.750645 274.775213 
L 263.857173 174.992769 
L 263.945945 105.814807 
L 264.008086 116.716304 
L 264.620618 333.691289 
L 264.807041 368.54077 
L 264.869182 368.921172 
L 264.922445 368.759432 
L 265.171009 366.948451 
L 265.685891 361.554876 
L 266.511477 350.047796 
L 267.807559 332.630578 
L 268.499986 322.682217 
L 268.757427 315.335731 
L 268.926095 303.34594 
L 269.050377 274.412114 
L 269.156905 173.786292 
L 269.245677 105.80227 
L 269.298941 114.447186 
L 269.8227 294.022219 
L 270.133405 368.83792 
L 270.168914 368.920921 
L 270.222177 368.75542 
L 270.470741 366.94143 
L 270.985623 361.544595 
L 271.802332 350.166155 
L 273.098414 332.73013 
L 273.790841 322.84195 
L 274.048282 315.676763 
L 274.21695 304.274501 
L 274.341232 277.772535 
L 274.438882 197.930897 
L 274.545409 105.798007 
L 274.598673 114.672618 
L 275.131309 297.620862 
L 275.424259 368.778741 
L 275.459768 368.921423 
L 275.521909 368.751408 
L 275.770473 366.934408 
L 276.285355 361.534564 
L 277.110941 350.023473 
L 278.389268 332.829681 
L 279.090573 322.825651 
L 279.348014 315.642409 
L 279.516682 304.182472 
L 279.640964 277.446548 
L 279.738614 196.804939 
L 279.845141 105.79926 
L 279.898405 114.899053 
L 280.439918 301.316798 
L 280.715114 368.698247 
L 280.7595 368.921924 
L 280.821641 368.747396 
L 281.079082 366.850404 
L 281.593964 361.415454 
L 282.428427 349.750396 
L 283.706755 332.599735 
L 284.390305 322.809352 
L 284.647745 315.608055 
L 284.816414 304.090193 
L 284.940695 277.118054 
L 285.038345 195.674493 
L 285.144873 105.806783 
L 285.198136 115.12574 
L 285.748527 305.112036 
L 286.014845 368.707525 
L 286.059232 368.922175 
L 286.121373 368.743133 
L 286.378814 366.843383 
L 286.902573 361.295842 
L 287.754791 349.347426 
L 289.006486 332.589705 
L 289.690036 322.793303 
L 289.947477 315.573701 
L 290.116145 303.997663 
L 290.240427 276.787303 
L 290.338077 194.543093 
L 290.444605 105.820324 
L 290.497868 115.352676 
L 291.057136 309.006574 
L 291.3057 368.604714 
L 291.358964 368.922426 
L 291.421105 368.739121 
L 291.678545 366.836362 
L 292.193427 361.395393 
L 293.027891 349.726323 
L 294.315095 332.469591 
L 294.989768 322.777004 
L 295.247209 315.539347 
L 295.415877 303.904631 
L 295.540159 276.45254 
L 295.637809 193.40234 
L 295.744336 105.839382 
L 295.7976 115.582372 
L 296.365745 312.998657 
L 296.605432 368.616249 
L 296.658695 368.922426 
L 296.720836 368.735109 
L 296.978277 366.82934 
L 297.493159 361.385363 
L 298.327623 349.714538 
L 299.60595 332.569644 
L 300.2895 322.760955 
L 300.546941 315.504742 
L 300.715609 303.809844 
L 300.839891 276.110505 
L 300.937541 192.24737 
L 301.044068 105.864959 
L 301.097332 115.814575 
L 301.674355 317.077252 
L 301.905164 368.627533 
L 301.958427 368.922426 
L 302.020568 368.731096 
L 302.286886 366.744584 
L 302.810645 361.155417 
L 303.671741 349.05128 
L 304.914559 332.44953 
L 305.589232 322.744656 
L 305.846673 315.469887 
L 306.015341 303.714556 
L 306.139623 275.765209 
L 306.24615 178.345968 
L 306.334923 105.886023 
L 306.397064 116.049536 
L 306.982964 321.225307 
L 307.196018 368.501401 
L 307.258159 368.922175 
L 307.3203 368.726834 
L 307.586618 366.737312 
L 308.110377 361.145135 
L 308.971473 349.039244 
L 310.214291 332.439249 
L 310.888964 322.728356 
L 311.146405 315.43478 
L 311.315073 303.618264 
L 311.439355 275.414147 
L 311.545882 177.143905 
L 311.634655 105.854678 
L 311.696795 116.287757 
L 312.291573 325.416493 
L 312.49575 368.515945 
L 312.557891 368.921924 
L 312.620032 368.722571 
L 312.88635 366.73004 
L 313.410109 361.134854 
L 314.280082 348.896812 
L 315.531777 332.208551 
L 316.188695 322.711556 
L 316.446136 315.399173 
L 316.614805 303.520719 
L 316.739086 275.056565 
L 316.845614 175.932087 
L 316.934386 105.829602 
L 316.996527 116.529238 
L 317.600182 329.614198 
L 317.795482 368.529988 
L 317.857623 368.921673 
L 317.910886 368.762441 
L 318.15945 366.953967 
L 318.674332 361.562649 
L 319.491041 350.18772 
L 320.796 332.638352 
L 321.488427 322.695005 
L 321.745868 315.363314 
L 321.914536 303.42192 
L 322.038818 274.692212 
L 322.145345 174.716332 
L 322.234118 105.811297 
L 322.296259 116.771722 
L 322.908791 333.772033 
L 323.095214 368.54403 
L 323.157355 368.921172 
L 323.210618 368.758429 
L 323.459182 366.946946 
L 323.974064 361.552368 
L 324.790773 350.175433 
L 326.095732 332.628071 
L 326.779282 322.854488 
L 327.036723 315.703343 
L 327.205391 304.345466 
L 327.329673 278.023294 
L 327.427323 198.801432 
L 327.53385 105.800514 
L 327.595991 117.014456 
L 328.2174 337.837839 
L 328.403823 368.681195 
L 328.457086 368.92067 
L 328.51035 368.754417 
L 328.758914 366.939674 
L 329.273795 361.542338 
L 329.318182 360.992925 
L 329.335936 361.854031 
L 329.531236 365.672589 
L 329.620009 365.852383 
L 329.664395 365.797467 
L 329.815309 365.216709 
L 330.214786 362.520799 
L 332.176664 348.397802 
L 332.869091 345.314219 
L 333.428359 343.729923 
L 333.889977 343.018771 
L 334.262823 342.801614 
L 334.617914 342.83998 
L 335.115041 343.155936 
L 336.473264 344.12863 
L 337.121305 344.248493 
L 338.133314 344.137407 
L 339.926523 343.945576 
L 342.163595 343.993471 
L 345.918682 343.988456 
L 435.845455 343.990462 
L 435.845455 343.990462 
" clip-path="url(#p7c5665ddd4)" style="fill: none; stroke: #1f77b4; stroke-width: 1.5; stroke-linecap: square"/>
   </g>
   <g id="line2d_14">
    <path d="M 80.754545 344.056412 
L 81.269427 298.307625 
L 81.3582 246.207136 
L 81.500236 66.96 
L 81.597886 73.119033 
L 81.819818 107.905332 
L 82.831827 334.952189 
L 83.044882 358.328844 
L 83.133655 359.071041 
L 83.178041 358.92084 
L 83.337832 357.324845 
L 84.234436 344.571528 
L 85.610414 324.293439 
L 85.841223 315.640867 
L 85.992136 300.998941 
L 86.098664 266.773988 
L 86.205191 130.048928 
L 86.293964 81.556708 
L 86.33835 85.145474 
L 86.542527 125.273241 
L 87.598923 354.538123 
L 87.758714 358.300951 
L 87.767591 358.298264 
L 87.829732 358.029166 
L 88.033909 355.739792 
L 90.1467 325.706442 
L 90.404141 317.572518 
L 90.572809 304.114314 
L 90.688214 273.757095 
L 90.785864 167.55979 
L 90.892391 81.85108 
L 90.936777 84.957338 
L 91.132077 122.7208 
L 92.215105 355.451364 
L 92.357141 358.265762 
L 92.374895 358.253414 
L 92.454791 357.796635 
L 92.729986 354.372468 
L 94.878286 322.283489 
L 95.082464 312.895724 
L 95.2245 294.793519 
L 95.32215 250.697532 
L 95.490818 81.866426 
L 95.597345 94.372385 
L 95.952436 178.882206 
L 96.715882 345.97687 
L 96.902305 357.971843 
L 96.964445 358.263516 
L 97.017709 358.063485 
L 97.195255 356.195826 
L 99.174886 328.930591 
L 99.494468 321.729315 
L 99.698645 311.545314 
L 99.831805 292.688429 
L 99.929455 242.66935 
L 100.089245 81.867122 
L 100.178018 91.315028 
L 100.479845 160.575006 
L 101.296555 343.077802 
L 101.491855 357.858811 
L 101.562873 358.263464 
L 101.616136 358.063562 
L 101.793682 356.196057 
L 103.773314 328.930919 
L 104.092895 321.729953 
L 104.297073 311.54693 
L 104.430232 292.693456 
L 104.527882 242.688907 
L 104.687673 81.86717 
L 104.776445 91.311745 
L 105.078273 160.569888 
L 105.894982 343.074341 
L 106.090282 357.85853 
L 106.1613 358.263476 
L 106.214564 358.063684 
L 106.392109 356.196313 
L 108.371741 328.931254 
L 108.691323 321.730587 
L 108.8955 311.548519 
L 109.028659 292.698375 
L 109.126309 242.707993 
L 109.2861 81.867192 
L 109.374873 91.308514 
L 109.6767 160.564836 
L 110.493409 343.070926 
L 110.688709 357.858255 
L 110.759727 358.26349 
L 110.812991 358.063808 
L 110.990536 356.196567 
L 112.970168 328.931586 
L 113.28975 321.731217 
L 113.493927 311.550096 
L 113.627086 292.703254 
L 113.724736 242.726917 
L 113.884527 81.867216 
L 113.9733 91.305309 
L 114.275127 160.559825 
L 115.091836 343.067538 
L 115.287136 357.857983 
L 115.358155 358.263503 
L 115.411418 358.063931 
L 115.588964 356.19682 
L 117.568595 328.931915 
L 117.888177 321.731841 
L 118.092355 311.551661 
L 118.225514 292.708094 
L 118.323164 242.745693 
L 118.482955 81.86724 
L 118.571727 91.302131 
L 118.873555 160.554855 
L 119.690264 343.064177 
L 119.885564 357.857713 
L 119.956582 358.263517 
L 120.009845 358.064052 
L 120.187391 356.197071 
L 122.167023 328.932242 
L 122.486605 321.732461 
L 122.690782 311.553212 
L 122.823941 292.712894 
L 122.921591 242.764314 
L 123.081382 81.867267 
L 123.170155 91.298979 
L 123.471982 160.549927 
L 124.288691 343.060844 
L 124.483991 357.857446 
L 124.555009 358.26353 
L 124.608273 358.064173 
L 124.785818 356.19732 
L 126.76545 328.932566 
L 127.085032 321.733075 
L 127.289209 311.554751 
L 127.422368 292.717654 
L 127.520018 242.782775 
L 127.679809 81.867295 
L 127.768582 91.295855 
L 128.070409 160.545042 
L 128.887118 343.05754 
L 129.082418 357.85718 
L 129.153436 358.263544 
L 129.2067 358.064292 
L 129.384245 356.197566 
L 131.363877 328.932887 
L 131.683459 321.733684 
L 131.887636 311.556276 
L 132.020795 292.722371 
L 132.118445 242.801071 
L 132.278236 81.867325 
L 132.367009 91.292757 
L 132.668836 160.540195 
L 133.485545 343.054263 
L 133.680845 357.856917 
L 133.751864 358.263557 
L 133.805127 358.064411 
L 133.982673 356.197811 
L 135.962305 328.933205 
L 136.281886 321.734288 
L 136.486064 311.557789 
L 136.619223 292.727051 
L 136.716873 242.81922 
L 136.876664 81.867358 
L 136.965436 91.289674 
L 137.267264 160.535374 
L 138.083973 343.051003 
L 138.279273 357.856655 
L 138.350291 358.26357 
L 138.403555 358.064529 
L 138.5811 356.198054 
L 140.551855 329.082864 
L 140.880314 321.734889 
L 141.084491 311.559294 
L 141.21765 292.731706 
L 141.3153 242.837275 
L 141.475091 81.867393 
L 141.563864 91.286609 
L 141.865691 160.530578 
L 142.6824 343.04776 
L 142.8777 357.856394 
L 142.948718 358.263583 
L 143.001982 358.064646 
L 143.179527 356.198296 
L 145.150282 329.083176 
L 145.478741 321.735487 
L 145.682918 311.560791 
L 145.816077 292.736336 
L 145.913727 242.855231 
L 146.073518 81.86743 
L 146.162291 91.283561 
L 146.464118 160.525809 
L 147.280827 343.044536 
L 147.476127 357.856135 
L 147.547145 358.263596 
L 147.600409 358.064763 
L 147.777955 356.198537 
L 149.748709 329.083486 
L 150.077168 321.736081 
L 150.281345 311.562279 
L 150.414505 292.740939 
L 150.512155 242.873081 
L 150.671945 81.867469 
L 150.760718 91.280529 
L 151.062545 160.521066 
L 151.834868 331.406282 
L 152.0568 351.909936 
L 152.118941 352.330145 
L 152.172205 352.078641 
L 152.34975 349.600989 
L 153.317373 330.884782 
L 153.752359 319.614064 
L 153.965414 307.849402 
L 154.10745 285.499568 
L 154.213977 222.036631 
L 154.364891 93.76266 
L 154.427032 100.275275 
L 154.711105 168.852698 
L 155.297005 294.123473 
L 155.705359 351.284438 
L 155.7675 351.669692 
L 155.820764 351.411962 
L 155.998309 348.942912 
L 156.957055 330.44615 
L 157.383164 319.315588 
L 157.596218 307.348413 
L 157.738255 284.242998 
L 157.844782 218.009566 
L 157.995695 94.280811 
L 158.048959 99.857034 
L 158.3064 161.15341 
L 158.910055 292.046915 
L 159.336164 351.317227 
L 159.389427 351.619151 
L 159.442691 351.382773 
L 159.611359 349.092321 
L 160.507964 331.910716 
L 160.987336 319.989068 
L 161.209268 308.213376 
L 161.351305 287.047316 
L 161.457832 228.839944 
L 161.617623 94.29694 
L 161.679764 101.170986 
L 161.972714 172.629772 
L 162.540859 293.526064 
L 162.949214 351.170331 
L 163.011355 351.615329 
L 163.064618 351.386874 
L 163.233286 349.105924 
L 164.121014 332.106769 
L 164.600386 320.329183 
L 164.822318 309.016023 
L 164.964355 289.502662 
L 165.070882 238.134228 
L 165.23955 94.289163 
L 165.319445 104.238493 
L 165.710045 202.098065 
L 166.304823 322.17644 
L 166.553386 350.80486 
L 166.633282 351.615119 
L 166.686545 351.393535 
L 166.855214 349.120737 
L 167.734064 332.30267 
L 168.222314 320.359445 
L 168.444245 309.086031 
L 168.586282 289.710573 
L 168.692809 238.908584 
L 168.861477 94.283644 
L 168.941373 104.073209 
L 169.323095 199.665783 
L 169.908995 318.288289 
L 170.166436 350.557239 
L 170.255209 351.614985 
L 170.308473 351.400156 
L 170.477141 349.135362 
L 171.355991 332.320022 
L 171.844241 320.389178 
L 172.066173 309.154618 
L 172.208209 289.913792 
L 172.314736 239.665696 
L 172.483405 94.281446 
L 172.5633 103.908856 
L 172.936145 197.216447 
L 173.513168 314.371401 
L 173.797241 350.763884 
L 173.877136 351.614723 
L 173.9304 351.406718 
L 174.090191 349.298819 
L 174.9069 333.746409 
L 175.448414 321.013743 
L 175.679223 309.904987 
L 175.830136 290.115948 
L 175.936664 240.418111 
L 176.105332 94.283101 
L 176.194105 105.454574 
L 176.637968 216.542445 
L 177.268255 339.37642 
L 177.463555 351.455785 
L 177.499064 351.61432 
L 177.552327 351.413225 
L 177.712118 349.313321 
L 178.51995 333.937994 
L 179.070341 321.042294 
L 179.30115 309.970162 
L 179.452064 290.317698 
L 179.558591 241.16701 
L 179.727259 94.289473 
L 179.816032 105.283542 
L 180.251018 214.230341 
L 180.881305 337.940656 
L 181.076605 351.355768 
L 181.120991 351.613751 
L 181.183132 351.350376 
L 181.360677 348.87707 
L 182.319423 330.381313 
L 182.745532 319.212615 
L 182.958586 307.116127 
L 183.100623 283.50433 
L 183.20715 215.236859 
L 183.349186 94.300492 
L 183.411327 100.287579 
L 183.677645 164.203938 
L 184.272423 292.543822 
L 184.689655 351.226452 
L 184.751795 351.613519 
L 184.805059 351.357535 
L 184.982605 348.892078 
L 185.94135 330.399496 
L 186.367459 319.245234 
L 186.580514 307.195683 
L 186.72255 283.770296 
L 186.829077 216.262248 
L 186.971114 94.316365 
L 187.033255 100.143325 
L 187.299573 163.971521 
L 187.89435 292.379896 
L 188.311582 351.21321 
L 188.373723 351.614048 
L 188.426986 351.364611 
L 188.604532 348.907099 
L 189.5544 330.602038 
L 189.989386 319.277818 
L 190.202441 307.275025 
L 190.344477 284.033367 
L 190.451005 217.27449 
L 190.601918 94.334347 
L 190.655182 99.999608 
L 190.912623 161.385294 
L 191.516277 292.215574 
L 191.942386 351.323759 
L 191.99565 351.614502 
L 192.048914 351.371674 
L 192.226459 348.922177 
L 193.176327 330.620235 
L 193.611314 319.310416 
L 193.824368 307.354219 
L 193.966405 284.294058 
L 194.072932 218.275784 
L 194.223845 94.316164 
L 194.277109 99.85703 
L 194.53455 161.152091 
L 195.138205 292.051544 
L 195.564314 351.312571 
L 195.617577 351.614798 
L 195.670841 351.37866 
L 195.839509 349.088606 
L 196.736114 331.907428 
L 197.215486 319.984331 
L 197.437418 308.203431 
L 197.579455 287.018455 
L 197.685982 228.734589 
L 197.845773 94.301522 
L 197.907914 101.191932 
L 198.200864 172.662179 
L 198.769009 293.5495 
L 199.177364 351.171942 
L 199.239505 351.614977 
L 199.292768 351.385595 
L 199.461436 349.103554 
L 200.349164 332.104042 
L 200.828536 320.324595 
L 201.050468 309.00549 
L 201.192505 289.471524 
L 201.299032 238.018556 
L 201.4677 94.290596 
L 201.547595 104.263522 
L 201.938195 202.130752 
L 202.532973 322.203574 
L 202.781536 350.807856 
L 202.861432 351.615086 
L 202.914695 351.39249 
L 203.083364 349.118492 
L 203.962214 332.300019 
L 204.450464 320.354907 
L 204.672395 309.075561 
L 204.814432 289.679535 
L 204.920959 238.793045 
L 205.089627 94.284302 
L 205.169523 104.098065 
L 205.551245 199.698538 
L 206.137145 318.315703 
L 206.394586 350.56083 
L 206.483359 351.615007 
L 206.536623 351.399156 
L 206.705291 349.133152 
L 207.584141 332.3174 
L 208.072391 320.384689 
L 208.294323 309.144274 
L 208.436359 289.88317 
L 208.542886 239.551696 
L 208.711555 94.281537 
L 208.79145 103.933729 
L 209.164295 197.24962 
L 209.741318 314.399026 
L 210.016514 350.536842 
L 210.105286 351.614776 
L 210.15855 351.40573 
L 210.318341 349.296627 
L 211.13505 333.74382 
L 211.676564 321.009427 
L 211.907373 309.895127 
L 212.058286 290.085358 
L 212.164814 240.304255 
L 212.333482 94.282577 
L 212.422255 105.480489 
L 212.866118 216.573536 
L 213.496405 339.395176 
L 213.691705 351.456945 
L 213.727214 351.61439 
L 213.780477 351.412246 
L 213.940268 349.311128 
L 214.7481 333.935406 
L 215.298491 321.037975 
L 215.5293 309.960308 
L 215.680214 290.287217 
L 215.786741 241.053939 
L 215.955409 94.288117 
L 216.044182 105.309459 
L 216.479168 214.261819 
L 217.109455 337.960763 
L 217.304755 351.357319 
L 217.349141 351.613853 
L 217.411282 351.349288 
L 217.588827 348.874801 
L 218.547573 330.378566 
L 218.973682 319.207682 
L 219.186736 307.104081 
L 219.328773 283.464013 
L 219.4353 215.08132 
L 219.577336 94.298608 
L 219.639477 100.309545 
L 219.905795 164.239162 
L 220.500573 292.568708 
L 220.917805 351.22843 
L 220.979945 351.61342 
L 221.033209 351.356448 
L 221.210755 348.889793 
L 222.1695 330.396727 
L 222.595609 319.240271 
L 222.808664 307.183589 
L 222.9507 283.729899 
L 223.057227 216.106582 
L 223.199264 94.313501 
L 223.261405 100.16524 
L 223.527723 164.006974 
L 224.1225 292.404869 
L 224.539732 351.21525 
L 224.601873 351.613983 
L 224.655136 351.363545 
L 224.832682 348.904818 
L 225.78255 330.599282 
L 226.217536 319.272867 
L 226.430591 307.262975 
L 226.572627 283.993575 
L 226.679155 217.121422 
L 226.821191 94.333088 
L 226.883332 100.021387 
L 227.140773 161.420758 
L 227.744427 292.240521 
L 228.161659 351.201821 
L 228.2238 351.614441 
L 228.277064 351.370604 
L 228.454609 348.919884 
L 229.404477 330.617467 
L 229.839464 319.30547 
L 230.052518 307.342236 
L 230.194555 284.254696 
L 230.301082 218.124444 
L 230.451995 94.318673 
L 230.505259 99.878675 
L 230.7627 161.187629 
L 231.366355 292.076516 
L 231.792464 351.3143 
L 231.845727 351.614767 
L 231.898991 351.377603 
L 232.067659 349.086332 
L 232.964264 331.904718 
L 233.443636 319.979597 
L 233.665568 308.192096 
L 233.807605 286.982979 
L 233.914132 228.599104 
L 234.073923 94.303528 
L 234.136064 101.215102 
L 234.429014 172.697619 
L 234.997159 293.574841 
L 235.405514 351.174097 
L 235.467655 351.614954 
L 235.520918 351.384537 
L 235.689586 349.10127 
L 236.577314 332.101331 
L 237.056686 320.319958 
L 237.278618 308.994736 
L 237.420655 289.439561 
L 237.527182 237.899452 
L 237.69585 94.291952 
L 237.775745 104.289029 
L 238.166345 202.163954 
L 238.761123 322.231195 
L 239.009686 350.810928 
L 239.089582 351.615075 
L 239.142845 351.391447 
L 239.311514 349.116228 
L 240.190364 332.297339 
L 240.678614 320.350312 
L 240.900545 309.064953 
L 241.042582 289.648066 
L 241.149109 238.675943 
L 241.317777 94.284989 
L 241.397673 104.123042 
L 241.779395 199.731396 
L 242.365295 318.343233 
L 242.622736 350.56444 
L 242.711509 351.615036 
L 242.764773 351.39816 
L 242.933441 349.13094 
L 243.812291 332.314775 
L 244.300541 320.380192 
L 244.522473 309.133904 
L 244.664509 289.852461 
L 244.771036 239.437352 
L 244.939705 94.281676 
L 245.0196 103.958669 
L 245.392445 197.282853 
L 245.969468 314.426649 
L 246.244664 350.540516 
L 246.333436 351.614824 
L 246.3867 351.404738 
L 246.546491 349.294433 
L 247.3632 333.741229 
L 247.904714 321.005107 
L 248.135523 309.885253 
L 248.286436 290.054717 
L 248.392964 240.190177 
L 248.561632 94.282162 
L 248.650405 105.50648 
L 249.103145 218.690338 
L 249.742309 341.781441 
L 249.928732 351.525483 
L 249.955364 351.614454 
L 250.008627 351.41126 
L 250.168418 349.308928 
L 250.97625 333.932811 
L 251.526641 321.033645 
L 251.75745 309.950428 
L 251.908364 290.256648 
L 252.014891 240.940522 
L 252.183559 94.286855 
L 252.272332 105.3355 
L 252.707318 214.293433 
L 253.337605 337.980917 
L 253.532905 351.358864 
L 253.577291 351.613947 
L 253.639432 351.348188 
L 253.816977 348.87252 
L 254.775723 330.375804 
L 255.201832 319.202722 
L 255.414886 307.091966 
L 255.556923 283.423448 
L 255.66345 214.924807 
L 255.805486 94.29681 
L 255.867627 100.331693 
L 256.133945 164.274643 
L 256.728723 292.593778 
L 257.145955 351.230414 
L 257.208095 351.613315 
L 257.261359 351.35535 
L 257.438905 348.88749 
L 258.39765 330.393938 
L 258.823759 319.235269 
L 259.036814 307.171396 
L 259.17885 283.689162 
L 259.285377 215.949577 
L 259.427414 94.310768 
L 259.489555 100.187322 
L 259.755873 164.042648 
L 260.35065 292.43 
L 260.767882 351.217294 
L 260.830023 351.613912 
L 260.883286 351.362467 
L 261.060832 348.90252 
L 262.0107 330.596504 
L 262.445686 319.267878 
L 262.658741 307.250832 
L 262.800777 283.953348 
L 262.907305 216.966864 
L 263.049341 94.329888 
L 263.111482 100.043353 
L 263.3778 163.809361 
L 263.972577 292.265668 
L 264.389809 351.203883 
L 264.45195 351.614374 
L 264.505214 351.369524 
L 264.682759 348.917576 
L 265.632627 330.614684 
L 266.067614 319.300491 
L 266.280668 307.330155 
L 266.422705 284.214974 
L 266.529232 217.97178 
L 266.680145 94.321298 
L 266.733409 99.900475 
L 266.99085 161.223371 
L 267.594505 292.101641 
L 268.020614 351.316037 
L 268.073877 351.614734 
L 268.127141 351.376539 
L 268.295809 349.084045 
L 269.192414 331.901993 
L 269.671786 319.974836 
L 269.893718 308.180693 
L 270.035755 286.94728 
L 270.142282 228.462736 
L 270.302073 94.305655 
L 270.364214 101.238368 
L 270.657164 172.733164 
L 271.225309 293.600273 
L 271.633664 351.176254 
L 271.695805 351.614929 
L 271.749068 351.383475 
L 271.917736 349.098978 
L 272.805464 332.09861 
L 273.284836 320.315305 
L 273.506768 308.983945 
L 273.648805 289.407478 
L 273.755332 237.779876 
L 273.924 94.293406 
L 274.003895 104.314677 
L 274.394495 202.197319 
L 274.989273 322.258975 
L 275.237836 350.814014 
L 275.317732 351.615062 
L 275.370995 351.390398 
L 275.539664 349.113951 
L 276.427391 332.116384 
L 276.906764 320.345691 
L 277.128695 309.054282 
L 277.270732 289.616406 
L 277.377259 238.558104 
L 277.545927 94.285765 
L 277.625823 104.14814 
L 278.007545 199.764383 
L 278.593445 318.370876 
L 278.850886 350.568045 
L 278.939659 351.615058 
L 278.992923 351.397155 
L 279.161591 349.128719 
L 280.040441 332.31214 
L 280.528691 320.375677 
L 280.750623 309.123491 
L 280.892659 289.821612 
L 280.999186 239.322461 
L 281.167855 94.281891 
L 281.24775 103.983661 
L 281.620595 197.316124 
L 282.197618 314.454325 
L 282.472814 350.544181 
L 282.561586 351.614865 
L 282.61485 351.403742 
L 282.774641 349.292236 
L 283.59135 333.738635 
L 284.132864 321.000779 
L 284.363673 309.875359 
L 284.514586 290.024 
L 284.621114 240.075791 
L 284.789782 94.281865 
L 284.878555 105.53256 
L 285.331295 218.721311 
L 285.970459 341.797876 
L 286.156882 351.526321 
L 286.183514 351.614512 
L 286.236777 351.410268 
L 286.396568 349.306721 
L 287.2044 333.930208 
L 287.754791 321.029301 
L 287.9856 309.940513 
L 288.136514 290.225967 
L 288.243041 240.826665 
L 288.411709 94.285708 
L 288.500482 105.361659 
L 288.944345 216.430878 
L 289.574632 339.308861 
L 289.769932 351.451571 
L 289.805441 351.614036 
L 289.867582 351.347082 
L 290.045127 348.870228 
L 291.003873 330.373031 
L 291.429982 319.19774 
L 291.643036 307.079796 
L 291.785073 283.382689 
L 291.8916 214.768207 
L 292.033636 94.295056 
L 292.095777 100.353775 
L 292.362095 164.309979 
L 292.956873 292.618746 
L 293.374105 351.232396 
L 293.436245 351.613216 
L 293.489509 351.354262 
L 293.667055 348.885202 
L 294.6258 330.391164 
L 295.051909 319.230294 
L 295.264964 307.159263 
L 295.407 283.64861 
L 295.513527 215.793251 
L 295.655564 94.308197 
L 295.717705 100.209302 
L 295.984023 164.078108 
L 296.5788 292.454999 
L 296.996032 351.219317 
L 297.058173 351.613833 
L 297.111436 351.36139 
L 297.288982 348.900231 
L 298.23885 330.59374 
L 298.673836 319.262913 
L 298.886891 307.238741 
L 299.028927 283.913284 
L 299.135455 216.812925 
L 299.277491 94.3268 
L 299.339632 100.065275 
L 299.60595 163.844986 
L 300.200727 292.290757 
L 300.617959 351.205933 
L 300.6801 351.6143 
L 300.733364 351.368442 
L 300.910909 348.915271 
L 301.860777 330.611903 
L 302.295764 319.295518 
L 302.508818 307.318068 
L 302.650855 284.175196 
L 302.757382 217.819086 
L 302.908295 94.323999 
L 302.961559 99.922268 
L 303.219 161.259061 
L 303.822655 292.126746 
L 304.248764 351.317758 
L 304.302027 351.614693 
L 304.355291 351.375472 
L 304.523959 349.081759 
L 305.420564 331.899271 
L 305.899936 319.970079 
L 306.121868 308.169296 
L 306.263905 286.911589 
L 306.370432 228.326435 
L 306.530223 94.307856 
L 306.592364 101.261645 
L 306.885314 172.7687 
L 307.453459 293.625699 
L 307.861814 351.17841 
L 307.923955 351.614904 
L 307.977218 351.382414 
L 308.145886 349.096687 
L 309.033614 332.095892 
L 309.512986 320.310651 
L 309.734918 308.973135 
L 309.876955 289.375309 
L 309.983482 237.659942 
L 310.15215 94.294979 
L 310.232045 104.340413 
L 310.622645 202.230773 
L 311.217423 322.28685 
L 311.465986 350.817106 
L 311.545882 351.615047 
L 311.599145 351.389344 
L 311.767814 349.111665 
L 312.655541 332.113671 
L 313.134914 320.341053 
L 313.356845 309.043571 
L 313.498882 289.584619 
L 313.605409 238.439771 
L 313.774077 94.286651 
L 313.853973 104.173376 
L 314.235695 199.79753 
L 314.821595 318.39865 
L 315.079036 350.571659 
L 315.167809 351.615074 
L 315.221073 351.396141 
L 315.389741 349.126484 
L 316.268591 332.309489 
L 316.756841 320.371136 
L 316.978773 309.113015 
L 317.120809 289.790574 
L 317.227336 239.206795 
L 317.396005 94.282249 
L 317.4759 104.008755 
L 317.857623 199.58072 
L 318.443523 318.217081 
L 318.709841 350.776492 
L 318.789736 351.614904 
L 318.843 351.40274 
L 319.002791 349.290029 
L 319.8195 333.736031 
L 320.361014 320.996434 
L 320.591823 309.865424 
L 320.742736 289.993151 
L 320.849264 239.961029 
L 321.017932 94.281623 
L 321.097827 103.844355 
L 321.470673 197.130327 
L 322.038818 312.436398 
L 322.331768 350.755636 
L 322.411664 351.614573 
L 322.464927 351.409277 
L 322.624718 349.304514 
L 323.43255 333.927604 
L 323.982941 321.024956 
L 324.21375 309.930594 
L 324.364664 290.195263 
L 324.471191 240.712697 
L 324.639859 94.284796 
L 324.728632 105.387635 
L 325.172495 216.46209 
L 325.802782 339.327767 
L 325.998082 351.452755 
L 326.033591 351.61412 
L 326.095732 351.34598 
L 326.273277 348.867951 
L 327.232023 330.370276 
L 327.658132 319.192791 
L 327.871186 307.067707 
L 328.013223 283.342196 
L 328.11975 214.612517 
L 328.261786 94.293361 
L 328.323927 100.37572 
L 328.590245 164.345068 
L 329.185023 292.643528 
L 329.637764 357.524123 
L 329.691027 357.721805 
L 329.744291 357.52686 
L 329.921836 355.675336 
L 331.883714 328.77949 
L 332.203295 321.549746 
L 332.407473 311.246586 
L 332.540632 291.97625 
L 332.638282 240.337718 
L 332.798073 82.107333 
L 332.886845 91.945144 
L 333.19755 163.964936 
L 333.996505 342.256765 
L 334.191805 357.766144 
L 334.262823 358.241475 
L 334.316086 358.06885 
L 334.484755 356.348185 
L 336.32235 331.347261 
L 336.721827 323.884177 
L 336.952636 314.911028 
L 337.10355 299.171539 
L 337.210077 260.489313 
L 337.387623 81.924142 
L 337.529659 100.350185 
L 338.044541 225.752017 
L 338.728091 356.102284 
L 338.86125 358.264056 
L 338.887882 358.213324 
L 339.003286 357.309339 
L 339.438273 351.341602 
L 340.867514 332.115703 
L 341.293623 324.557581 
L 341.533309 315.94075 
L 341.6931 300.700152 
L 341.799627 266.18963 
L 341.906155 129.707272 
L 341.98605 81.911592 
L 342.039314 85.56464 
L 342.243491 126.04802 
L 343.291009 354.158639 
L 343.459677 358.265058 
L 343.512941 358.086516 
L 343.681609 356.358537 
L 345.528082 331.220968 
L 345.918682 323.88635 
L 346.149491 314.909997 
L 346.300405 299.159616 
L 346.406932 260.427266 
L 346.584477 81.911365 
L 346.726514 100.356405 
L 347.241395 225.750903 
L 347.924945 356.103786 
L 348.058105 358.265105 
L 348.084736 358.214323 
L 348.200141 357.310212 
L 348.635127 351.342383 
L 350.064368 332.116296 
L 350.490477 324.558404 
L 350.730164 315.942356 
L 350.889955 300.704589 
L 350.996482 266.20519 
L 351.103009 129.74469 
L 351.182905 81.911688 
L 351.236168 85.561078 
L 351.440345 126.041155 
L 352.487864 354.156702 
L 352.656532 358.265109 
L 352.709795 358.086733 
L 352.878464 356.358948 
L 354.724936 331.221426 
L 355.115536 323.887152 
L 355.346345 314.911863 
L 355.497259 299.165176 
L 355.603786 260.44858 
L 355.781332 81.912036 
L 355.923368 100.350327 
L 356.43825 225.743896 
L 357.1218 356.102478 
L 357.254959 358.265111 
L 357.281591 358.214431 
L 357.396995 357.310545 
L 357.831982 351.342831 
L 359.261223 332.11673 
L 359.687332 324.559155 
L 359.927018 315.944062 
L 360.086809 300.709719 
L 360.193336 266.223931 
L 360.299864 129.791535 
L 360.379759 81.912386 
L 360.433023 85.557253 
L 360.6372 126.033723 
L 361.684718 354.154594 
L 361.853386 358.265113 
L 361.90665 358.086916 
L 362.075318 356.35934 
L 363.921791 331.221877 
L 364.312391 323.887952 
L 364.5432 314.913733 
L 364.694114 299.170764 
L 364.800641 260.470036 
L 364.978186 81.912734 
L 365.120223 100.344215 
L 365.635105 225.736858 
L 366.318655 356.101157 
L 366.451814 358.265115 
L 366.478445 358.214537 
L 366.59385 357.310877 
L 367.028836 351.343281 
L 368.458077 332.117164 
L 368.884186 324.559908 
L 369.123873 315.945774 
L 369.283664 300.714866 
L 369.390191 266.242732 
L 369.496718 129.83867 
L 369.576614 81.913085 
L 369.629877 85.553399 
L 369.834055 126.026235 
L 370.881573 354.152466 
L 371.050241 358.265117 
L 371.103505 358.087101 
L 371.272173 356.359735 
L 373.118645 331.222332 
L 373.509245 323.888758 
L 373.740055 314.915619 
L 373.890968 299.176401 
L 373.997495 260.491674 
L 374.175041 81.913439 
L 374.317077 100.33804 
L 374.831959 225.729746 
L 375.515509 356.099822 
L 375.648668 358.265119 
L 375.6753 358.214644 
L 375.790705 357.311214 
L 376.225691 351.343735 
L 377.654932 332.117604 
L 378.081041 324.560669 
L 378.320727 315.947503 
L 378.480518 300.720067 
L 378.587045 266.261707 
L 378.693573 129.886302 
L 378.773468 81.913794 
L 378.826732 85.549506 
L 379.030909 126.018667 
L 380.078427 354.150314 
L 380.247095 358.26512 
L 380.300359 358.087287 
L 380.469027 356.360135 
L 382.3155 331.222793 
L 382.7061 323.889573 
L 382.936909 314.917526 
L 383.087823 299.182097 
L 383.19435 260.513476 
L 383.371895 81.914154 
L 383.513932 100.331794 
L 384.028814 225.722548 
L 384.712364 356.098468 
L 384.845523 358.265121 
L 384.872155 358.214752 
L 384.987559 357.311554 
L 385.422545 351.344195 
L 386.851786 332.118049 
L 387.277895 324.561439 
L 387.517582 315.949253 
L 387.677373 300.725328 
L 387.7839 266.280866 
L 387.890427 129.93455 
L 387.9792 81.914266 
L 388.023586 85.545563 
L 388.227764 126.011001 
L 389.275282 354.148128 
L 389.44395 358.265123 
L 389.497214 358.087475 
L 389.665882 356.36054 
L 391.512355 331.223259 
L 391.902955 323.890399 
L 392.133764 314.919456 
L 392.284677 299.187864 
L 392.391205 260.535545 
L 392.577627 81.913951 
L 392.710786 100.325468 
L 393.216791 223.681751 
L 393.900341 355.692868 
L 394.042377 358.265124 
L 394.060132 358.241259 
L 394.148905 357.671349 
L 394.459609 353.666895 
L 396.581277 321.569461 
L 396.776577 311.858287 
L 396.909736 293.649148 
L 397.007386 246.379472 
L 397.176055 81.913635 
L 397.273705 93.67144 
L 397.611041 173.302655 
L 398.383364 343.923331 
L 398.578664 357.924329 
L 398.640805 358.265125 
L 398.694068 358.087665 
L 398.862736 356.360949 
L 400.709209 331.22373 
L 401.099809 323.891234 
L 401.330618 314.921409 
L 401.481532 299.193699 
L 401.588059 260.557875 
L 401.774482 81.913313 
L 401.907641 100.319063 
L 402.413645 223.67431 
L 403.097195 355.691294 
L 403.239232 358.265126 
L 403.256986 358.241336 
L 403.345759 357.67165 
L 403.656464 353.66736 
L 405.778132 321.570515 
L 405.982309 311.144576 
L 406.115468 291.426245 
L 406.213118 237.720705 
L 406.372909 81.912989 
L 406.452805 90.666567 
L 406.745755 157.263286 
L 407.580218 343.917831 
L 407.775518 357.923917 
L 407.837659 358.265128 
L 407.890923 358.087859 
L 408.059591 356.361365 
L 409.906064 331.22421 
L 410.296664 323.892083 
L 410.527473 314.923394 
L 410.678386 299.199629 
L 410.784914 260.580565 
L 410.971336 81.912656 
L 411.104495 100.31254 
L 411.6105 223.666722 
L 412.29405 355.68969 
L 412.436086 358.26513 
L 412.453841 358.241417 
L 412.542614 357.671959 
L 412.853318 353.667835 
L 414.974986 321.571591 
L 415.179164 311.147321 
L 415.312323 291.435 
L 415.409973 237.755418 
L 415.569764 81.912318 
L 415.649659 90.661167 
L 415.942609 157.25468 
L 416.777073 343.912201 
L 416.972373 357.923495 
L 417.034514 358.265132 
L 417.087777 358.088058 
L 417.256445 356.361793 
L 419.102918 331.224701 
L 419.493518 323.892953 
L 419.724327 314.925428 
L 419.875241 299.205704 
L 419.981768 260.603811 
L 420.168191 81.911978 
L 420.30135 100.305849 
L 420.807355 223.658933 
L 421.490905 355.688044 
L 421.632941 358.265134 
L 421.650695 358.241499 
L 421.739468 357.672276 
L 422.050173 353.668323 
L 424.171841 321.572696 
L 424.376018 311.150139 
L 424.509177 291.443985 
L 424.606827 237.791036 
L 424.766618 81.911635 
L 424.846514 90.655627 
L 425.139464 157.24585 
L 425.973927 343.906425 
L 426.169227 357.923063 
L 426.231368 358.265136 
L 426.284632 358.088263 
L 426.4533 356.362231 
L 428.299773 331.225206 
L 428.690373 323.893845 
L 428.921182 314.927514 
L 429.072095 299.211934 
L 429.178623 260.62765 
L 429.365045 81.911288 
L 429.498205 100.298989 
L 430.004209 223.650948 
L 430.687759 355.686357 
L 430.829795 358.265138 
L 430.84755 358.241584 
L 430.936323 357.6726 
L 431.247027 353.668823 
L 433.368695 321.573827 
L 433.572873 311.153026 
L 433.706032 291.453193 
L 433.803682 237.827537 
L 433.963473 81.910939 
L 434.043368 90.649952 
L 434.336318 157.236804 
L 435.170782 343.900508 
L 435.366082 357.922619 
L 435.428223 358.26514 
L 435.481486 358.088473 
L 435.650155 356.36268 
L 435.845455 353.669078 
L 435.845455 353.669078 
" clip-path="url(#p7c5665ddd4)" style="fill: none; stroke: #ff0000; stroke-width: 1.5; stroke-linecap: square"/>
   </g>
   <g id="patch_3">
    <path d="M 63 384.48 
L 63 51.84 
" style="fill: none; stroke: #000000; stroke-width: 0.8; stroke-linejoin: miter; stroke-linecap: square"/>
   </g>
   <g id="patch_4">
    <path d="M 453.6 384.48 
L 453.6 51.84 
" style="fill: none; stroke: #000000; stroke-width: 0.8; stroke-linejoin: miter; stroke-linecap: square"/>
   </g>
   <g id="patch_5">
    <path d="M 63 384.48 
L 453.6 384.48 
" style="fill: none; stroke: #000000; stroke-width: 0.8; stroke-linejoin: miter; stroke-linecap: square"/>
   </g>
   <g id="patch_6">
    <path d="M 63 51.84 
L 453.6 51.84 
" style="fill: none; stroke: #000000; stroke-width: 0.8; stroke-linejoin: miter; stroke-linecap: square"/>
   </g>
   <g id="legend_1">
    <g id="patch_7">
     <path d="M 226.730469 89.19625 
L 289.869531 89.19625 
Q 291.869531 89.19625 291.869531 87.19625 
L 291.869531 58.84 
Q 291.869531 56.84 289.869531 56.84 
L 226.730469 56.84 
Q 224.730469 56.84 224.730469 58.84 
L 224.730469 87.19625 
Q 224.730469 89.19625 226.730469 89.19625 
z
" style="fill: #ffffff; opacity: 0.8; stroke: #cccccc; stroke-linejoin: miter"/>
    </g>
    <g id="line2d_15">
     <path d="M 228.730469 64.938437 
L 238.730469 64.938437 
L 248.730469 64.938437 
" style="fill: none; stroke: #1f77b4; stroke-width: 1.5; stroke-linecap: square"/>
    </g>
    <g id="text_15">
     <!-- target -->
     <g transform="translate(256.730469 68.438437)scale(0.1 -0.1)">
      <defs>
       <path id="DejaVuSans-72" d="M 2631 2963 
Q 2534 3019 2420 3045 
Q 2306 3072 2169 3072 
Q 1681 3072 1420 2755 
Q 1159 2438 1159 1844 
L 1159 0 
L 581 0 
L 581 3500 
L 1159 3500 
L 1159 2956 
Q 1341 3275 1631 3429 
Q 1922 3584 2338 3584 
Q 2397 3584 2469 3576 
Q 2541 3569 2628 3553 
L 2631 2963 
z
" transform="scale(0.015625)"/>
      </defs>
      <use xlink:href="#DejaVuSans-74"/>
      <use xlink:href="#DejaVuSans-61" x="39.208984"/>
      <use xlink:href="#DejaVuSans-72" x="100.488281"/>
      <use xlink:href="#DejaVuSans-67" x="139.851562"/>
      <use xlink:href="#DejaVuSans-65" x="203.328125"/>
      <use xlink:href="#DejaVuSans-74" x="264.851562"/>
     </g>
    </g>
    <g id="line2d_16">
     <path d="M 228.730469 79.616562 
L 238.730469 79.616562 
L 248.730469 79.616562 
" style="fill: none; stroke: #ff0000; stroke-width: 1.5; stroke-linecap: square"/>
    </g>
    <g id="text_16">
     <!-- model -->
     <g transform="translate(256.730469 83.116562)scale(0.1 -0.1)">
      <defs>
       <path id="DejaVuSans-64" d="M 2906 2969 
L 2906 4863 
L 3481 4863 
L 3481 0 
L 2906 0 
L 2906 525 
Q 2725 213 2448 61 
Q 2172 -91 1784 -91 
Q 1150 -91 751 415 
Q 353 922 353 1747 
Q 353 2572 751 3078 
Q 1150 3584 1784 3584 
Q 2172 3584 2448 3432 
Q 2725 3281 2906 2969 
z
M 947 1747 
Q 947 1113 1208 752 
Q 1469 391 1925 391 
Q 2381 391 2643 752 
Q 2906 1113 2906 1747 
Q 2906 2381 2643 2742 
Q 2381 3103 1925 3103 
Q 1469 3103 1208 2742 
Q 947 2381 947 1747 
z
" transform="scale(0.015625)"/>
      </defs>
      <use xlink:href="#DejaVuSans-6d"/>
      <use xlink:href="#DejaVuSans-6f" x="97.412109"/>
      <use xlink:href="#DejaVuSans-64" x="158.59375"/>
      <use xlink:href="#DejaVuSans-65" x="222.070312"/>
      <use xlink:href="#DejaVuSans-6c" x="283.59375"/>
     </g>
    </g>
   </g>
  </g>
 </g>
 <defs>
  <clipPath id="p7c5665ddd4">
   <rect x="63" y="51.84" width="390.6" height="332.64"/>
  </clipPath>
 </defs>
</svg>
