<?xml version="1.0" encoding="utf-8" standalone="no"?>
<!DOCTYPE svg PUBLIC "-//W3C//DTD SVG 1.1//EN"
  "http://www.w3.org/Graphics/SVG/1.1/DTD/svg11.dtd">
<svg xmlns:xlink="http://www.w3.org/1999/xlink" width="504pt" height="432pt" viewBox="0 0 504 432" xmlns="http://www.w3.org/2000/svg" version="1.1">
 <metadata>
  <rdf:RDF xmlns:dc="http://purl.org/dc/elements/1.1/" xmlns:cc="http://creativecommons.org/ns#" xmlns:rdf="http://www.w3.org/1999/02/22-rdf-syntax-ns#">
   <cc:Work>
    <dc:type rdf:resource="http://purl.org/dc/dcmitype/StillImage"/>
    <dc:date>2022-01-31T18:39:19.684527</dc:date>
    <dc:format>image/svg+xml</dc:format>
    <dc:creator>
     <cc:Agent>
      <dc:title>Matplotlib v3.5.1, https://matplotlib.org/</dc:title>
     </cc:Agent>
    </dc:creator>
   </cc:Work>
  </rdf:RDF>
 </metadata>
 <defs>
  <style type="text/css">*{stroke-linejoin: round; stroke-linecap: butt}</style>
 </defs>
 <g id="figure_1">
  <g id="patch_1">
   <path d="M 0 432 
L 504 432 
L 504 0 
L 0 0 
z
" style="fill: #ffffff"/>
  </g>
  <g id="axes_1">
   <g id="patch_2">
    <path d="M 63 384.48 
L 453.6 384.48 
L 453.6 51.84 
L 63 51.84 
z
" style="fill: #ffffff"/>
   </g>
   <g id="matplotlib.axis_1">
    <g id="xtick_1">
     <g id="line2d_1">
      <defs>
       <path id="mb9931ccb03" d="M 0 0 
L 0 3.5 
" style="stroke: #000000; stroke-width: 0.8"/>
      </defs>
      <g>
       <use xlink:href="#mb9931ccb03" x="80.754545" y="384.48" style="stroke: #000000; stroke-width: 0.8"/>
      </g>
     </g>
     <g id="text_1">
      <!-- 0 -->
      <g transform="translate(77.573295 399.078438)scale(0.1 -0.1)">
       <defs>
        <path id="DejaVuSans-30" d="M 2034 4250 
Q 1547 4250 1301 3770 
Q 1056 3291 1056 2328 
Q 1056 1369 1301 889 
Q 1547 409 2034 409 
Q 2525 409 2770 889 
Q 3016 1369 3016 2328 
Q 3016 3291 2770 3770 
Q 2525 4250 2034 4250 
z
M 2034 4750 
Q 2819 4750 3233 4129 
Q 3647 3509 3647 2328 
Q 3647 1150 3233 529 
Q 2819 -91 2034 -91 
Q 1250 -91 836 529 
Q 422 1150 422 2328 
Q 422 3509 836 4129 
Q 1250 4750 2034 4750 
z
" transform="scale(0.015625)"/>
       </defs>
       <use xlink:href="#DejaVuSans-30"/>
      </g>
     </g>
    </g>
    <g id="xtick_2">
     <g id="line2d_2">
      <g>
       <use xlink:href="#mb9931ccb03" x="151.772727" y="384.48" style="stroke: #000000; stroke-width: 0.8"/>
      </g>
     </g>
     <g id="text_2">
      <!-- 200 -->
      <g transform="translate(142.228977 399.078438)scale(0.1 -0.1)">
       <defs>
        <path id="DejaVuSans-32" d="M 1228 531 
L 3431 531 
L 3431 0 
L 469 0 
L 469 531 
Q 828 903 1448 1529 
Q 2069 2156 2228 2338 
Q 2531 2678 2651 2914 
Q 2772 3150 2772 3378 
Q 2772 3750 2511 3984 
Q 2250 4219 1831 4219 
Q 1534 4219 1204 4116 
Q 875 4013 500 3803 
L 500 4441 
Q 881 4594 1212 4672 
Q 1544 4750 1819 4750 
Q 2544 4750 2975 4387 
Q 3406 4025 3406 3419 
Q 3406 3131 3298 2873 
Q 3191 2616 2906 2266 
Q 2828 2175 2409 1742 
Q 1991 1309 1228 531 
z
" transform="scale(0.015625)"/>
       </defs>
       <use xlink:href="#DejaVuSans-32"/>
       <use xlink:href="#DejaVuSans-30" x="63.623047"/>
       <use xlink:href="#DejaVuSans-30" x="127.246094"/>
      </g>
     </g>
    </g>
    <g id="xtick_3">
     <g id="line2d_3">
      <g>
       <use xlink:href="#mb9931ccb03" x="222.790909" y="384.48" style="stroke: #000000; stroke-width: 0.8"/>
      </g>
     </g>
     <g id="text_3">
      <!-- 400 -->
      <g transform="translate(213.247159 399.078438)scale(0.1 -0.1)">
       <defs>
        <path id="DejaVuSans-34" d="M 2419 4116 
L 825 1625 
L 2419 1625 
L 2419 4116 
z
M 2253 4666 
L 3047 4666 
L 3047 1625 
L 3713 1625 
L 3713 1100 
L 3047 1100 
L 3047 0 
L 2419 0 
L 2419 1100 
L 313 1100 
L 313 1709 
L 2253 4666 
z
" transform="scale(0.015625)"/>
       </defs>
       <use xlink:href="#DejaVuSans-34"/>
       <use xlink:href="#DejaVuSans-30" x="63.623047"/>
       <use xlink:href="#DejaVuSans-30" x="127.246094"/>
      </g>
     </g>
    </g>
    <g id="xtick_4">
     <g id="line2d_4">
      <g>
       <use xlink:href="#mb9931ccb03" x="293.809091" y="384.48" style="stroke: #000000; stroke-width: 0.8"/>
      </g>
     </g>
     <g id="text_4">
      <!-- 600 -->
      <g transform="translate(284.265341 399.078438)scale(0.1 -0.1)">
       <defs>
        <path id="DejaVuSans-36" d="M 2113 2584 
Q 1688 2584 1439 2293 
Q 1191 2003 1191 1497 
Q 1191 994 1439 701 
Q 1688 409 2113 409 
Q 2538 409 2786 701 
Q 3034 994 3034 1497 
Q 3034 2003 2786 2293 
Q 2538 2584 2113 2584 
z
M 3366 4563 
L 3366 3988 
Q 3128 4100 2886 4159 
Q 2644 4219 2406 4219 
Q 1781 4219 1451 3797 
Q 1122 3375 1075 2522 
Q 1259 2794 1537 2939 
Q 1816 3084 2150 3084 
Q 2853 3084 3261 2657 
Q 3669 2231 3669 1497 
Q 3669 778 3244 343 
Q 2819 -91 2113 -91 
Q 1303 -91 875 529 
Q 447 1150 447 2328 
Q 447 3434 972 4092 
Q 1497 4750 2381 4750 
Q 2619 4750 2861 4703 
Q 3103 4656 3366 4563 
z
" transform="scale(0.015625)"/>
       </defs>
       <use xlink:href="#DejaVuSans-36"/>
       <use xlink:href="#DejaVuSans-30" x="63.623047"/>
       <use xlink:href="#DejaVuSans-30" x="127.246094"/>
      </g>
     </g>
    </g>
    <g id="xtick_5">
     <g id="line2d_5">
      <g>
       <use xlink:href="#mb9931ccb03" x="364.827273" y="384.48" style="stroke: #000000; stroke-width: 0.8"/>
      </g>
     </g>
     <g id="text_5">
      <!-- 800 -->
      <g transform="translate(355.283523 399.078438)scale(0.1 -0.1)">
       <defs>
        <path id="DejaVuSans-38" d="M 2034 2216 
Q 1584 2216 1326 1975 
Q 1069 1734 1069 1313 
Q 1069 891 1326 650 
Q 1584 409 2034 409 
Q 2484 409 2743 651 
Q 3003 894 3003 1313 
Q 3003 1734 2745 1975 
Q 2488 2216 2034 2216 
z
M 1403 2484 
Q 997 2584 770 2862 
Q 544 3141 544 3541 
Q 544 4100 942 4425 
Q 1341 4750 2034 4750 
Q 2731 4750 3128 4425 
Q 3525 4100 3525 3541 
Q 3525 3141 3298 2862 
Q 3072 2584 2669 2484 
Q 3125 2378 3379 2068 
Q 3634 1759 3634 1313 
Q 3634 634 3220 271 
Q 2806 -91 2034 -91 
Q 1263 -91 848 271 
Q 434 634 434 1313 
Q 434 1759 690 2068 
Q 947 2378 1403 2484 
z
M 1172 3481 
Q 1172 3119 1398 2916 
Q 1625 2713 2034 2713 
Q 2441 2713 2670 2916 
Q 2900 3119 2900 3481 
Q 2900 3844 2670 4047 
Q 2441 4250 2034 4250 
Q 1625 4250 1398 4047 
Q 1172 3844 1172 3481 
z
" transform="scale(0.015625)"/>
       </defs>
       <use xlink:href="#DejaVuSans-38"/>
       <use xlink:href="#DejaVuSans-30" x="63.623047"/>
       <use xlink:href="#DejaVuSans-30" x="127.246094"/>
      </g>
     </g>
    </g>
    <g id="text_6">
     <!-- time [ms] -->
     <g transform="translate(234.038281 412.756563)scale(0.1 -0.1)">
      <defs>
       <path id="DejaVuSans-74" d="M 1172 4494 
L 1172 3500 
L 2356 3500 
L 2356 3053 
L 1172 3053 
L 1172 1153 
Q 1172 725 1289 603 
Q 1406 481 1766 481 
L 2356 481 
L 2356 0 
L 1766 0 
Q 1100 0 847 248 
Q 594 497 594 1153 
L 594 3053 
L 172 3053 
L 172 3500 
L 594 3500 
L 594 4494 
L 1172 4494 
z
" transform="scale(0.015625)"/>
       <path id="DejaVuSans-69" d="M 603 3500 
L 1178 3500 
L 1178 0 
L 603 0 
L 603 3500 
z
M 603 4863 
L 1178 4863 
L 1178 4134 
L 603 4134 
L 603 4863 
z
" transform="scale(0.015625)"/>
       <path id="DejaVuSans-6d" d="M 3328 2828 
Q 3544 3216 3844 3400 
Q 4144 3584 4550 3584 
Q 5097 3584 5394 3201 
Q 5691 2819 5691 2113 
L 5691 0 
L 5113 0 
L 5113 2094 
Q 5113 2597 4934 2840 
Q 4756 3084 4391 3084 
Q 3944 3084 3684 2787 
Q 3425 2491 3425 1978 
L 3425 0 
L 2847 0 
L 2847 2094 
Q 2847 2600 2669 2842 
Q 2491 3084 2119 3084 
Q 1678 3084 1418 2786 
Q 1159 2488 1159 1978 
L 1159 0 
L 581 0 
L 581 3500 
L 1159 3500 
L 1159 2956 
Q 1356 3278 1631 3431 
Q 1906 3584 2284 3584 
Q 2666 3584 2933 3390 
Q 3200 3197 3328 2828 
z
" transform="scale(0.015625)"/>
       <path id="DejaVuSans-65" d="M 3597 1894 
L 3597 1613 
L 953 1613 
Q 991 1019 1311 708 
Q 1631 397 2203 397 
Q 2534 397 2845 478 
Q 3156 559 3463 722 
L 3463 178 
Q 3153 47 2828 -22 
Q 2503 -91 2169 -91 
Q 1331 -91 842 396 
Q 353 884 353 1716 
Q 353 2575 817 3079 
Q 1281 3584 2069 3584 
Q 2775 3584 3186 3129 
Q 3597 2675 3597 1894 
z
M 3022 2063 
Q 3016 2534 2758 2815 
Q 2500 3097 2075 3097 
Q 1594 3097 1305 2825 
Q 1016 2553 972 2059 
L 3022 2063 
z
" transform="scale(0.015625)"/>
       <path id="DejaVuSans-20" transform="scale(0.015625)"/>
       <path id="DejaVuSans-5b" d="M 550 4863 
L 1875 4863 
L 1875 4416 
L 1125 4416 
L 1125 -397 
L 1875 -397 
L 1875 -844 
L 550 -844 
L 550 4863 
z
" transform="scale(0.015625)"/>
       <path id="DejaVuSans-73" d="M 2834 3397 
L 2834 2853 
Q 2591 2978 2328 3040 
Q 2066 3103 1784 3103 
Q 1356 3103 1142 2972 
Q 928 2841 928 2578 
Q 928 2378 1081 2264 
Q 1234 2150 1697 2047 
L 1894 2003 
Q 2506 1872 2764 1633 
Q 3022 1394 3022 966 
Q 3022 478 2636 193 
Q 2250 -91 1575 -91 
Q 1294 -91 989 -36 
Q 684 19 347 128 
L 347 722 
Q 666 556 975 473 
Q 1284 391 1588 391 
Q 1994 391 2212 530 
Q 2431 669 2431 922 
Q 2431 1156 2273 1281 
Q 2116 1406 1581 1522 
L 1381 1569 
Q 847 1681 609 1914 
Q 372 2147 372 2553 
Q 372 3047 722 3315 
Q 1072 3584 1716 3584 
Q 2034 3584 2315 3537 
Q 2597 3491 2834 3397 
z
" transform="scale(0.015625)"/>
       <path id="DejaVuSans-5d" d="M 1947 4863 
L 1947 -844 
L 622 -844 
L 622 -397 
L 1369 -397 
L 1369 4416 
L 622 4416 
L 622 4863 
L 1947 4863 
z
" transform="scale(0.015625)"/>
      </defs>
      <use xlink:href="#DejaVuSans-74"/>
      <use xlink:href="#DejaVuSans-69" x="39.208984"/>
      <use xlink:href="#DejaVuSans-6d" x="66.992188"/>
      <use xlink:href="#DejaVuSans-65" x="164.404297"/>
      <use xlink:href="#DejaVuSans-20" x="225.927734"/>
      <use xlink:href="#DejaVuSans-5b" x="257.714844"/>
      <use xlink:href="#DejaVuSans-6d" x="296.728516"/>
      <use xlink:href="#DejaVuSans-73" x="394.140625"/>
      <use xlink:href="#DejaVuSans-5d" x="446.240234"/>
     </g>
    </g>
   </g>
   <g id="matplotlib.axis_2">
    <g id="ytick_1">
     <g id="line2d_6">
      <defs>
       <path id="m6b8240f2e7" d="M 0 0 
L -3.5 0 
" style="stroke: #000000; stroke-width: 0.8"/>
      </defs>
      <g>
       <use xlink:href="#m6b8240f2e7" x="63" y="377.420942" style="stroke: #000000; stroke-width: 0.8"/>
      </g>
     </g>
     <g id="text_7">
      <!-- −80 -->
      <g transform="translate(34.895313 381.220161)scale(0.1 -0.1)">
       <defs>
        <path id="DejaVuSans-2212" d="M 678 2272 
L 4684 2272 
L 4684 1741 
L 678 1741 
L 678 2272 
z
" transform="scale(0.015625)"/>
       </defs>
       <use xlink:href="#DejaVuSans-2212"/>
       <use xlink:href="#DejaVuSans-38" x="83.789062"/>
       <use xlink:href="#DejaVuSans-30" x="147.412109"/>
      </g>
     </g>
    </g>
    <g id="ytick_2">
     <g id="line2d_7">
      <g>
       <use xlink:href="#m6b8240f2e7" x="63" y="327.809366" style="stroke: #000000; stroke-width: 0.8"/>
      </g>
     </g>
     <g id="text_8">
      <!-- −60 -->
      <g transform="translate(34.895313 331.608585)scale(0.1 -0.1)">
       <use xlink:href="#DejaVuSans-2212"/>
       <use xlink:href="#DejaVuSans-36" x="83.789062"/>
       <use xlink:href="#DejaVuSans-30" x="147.412109"/>
      </g>
     </g>
    </g>
    <g id="ytick_3">
     <g id="line2d_8">
      <g>
       <use xlink:href="#m6b8240f2e7" x="63" y="278.197791" style="stroke: #000000; stroke-width: 0.8"/>
      </g>
     </g>
     <g id="text_9">
      <!-- −40 -->
      <g transform="translate(34.895313 281.997009)scale(0.1 -0.1)">
       <use xlink:href="#DejaVuSans-2212"/>
       <use xlink:href="#DejaVuSans-34" x="83.789062"/>
       <use xlink:href="#DejaVuSans-30" x="147.412109"/>
      </g>
     </g>
    </g>
    <g id="ytick_4">
     <g id="line2d_9">
      <g>
       <use xlink:href="#m6b8240f2e7" x="63" y="228.586215" style="stroke: #000000; stroke-width: 0.8"/>
      </g>
     </g>
     <g id="text_10">
      <!-- −20 -->
      <g transform="translate(34.895313 232.385434)scale(0.1 -0.1)">
       <use xlink:href="#DejaVuSans-2212"/>
       <use xlink:href="#DejaVuSans-32" x="83.789062"/>
       <use xlink:href="#DejaVuSans-30" x="147.412109"/>
      </g>
     </g>
    </g>
    <g id="ytick_5">
     <g id="line2d_10">
      <g>
       <use xlink:href="#m6b8240f2e7" x="63" y="178.974639" style="stroke: #000000; stroke-width: 0.8"/>
      </g>
     </g>
     <g id="text_11">
      <!-- 0 -->
      <g transform="translate(49.6375 182.773858)scale(0.1 -0.1)">
       <use xlink:href="#DejaVuSans-30"/>
      </g>
     </g>
    </g>
    <g id="ytick_6">
     <g id="line2d_11">
      <g>
       <use xlink:href="#m6b8240f2e7" x="63" y="129.363064" style="stroke: #000000; stroke-width: 0.8"/>
      </g>
     </g>
     <g id="text_12">
      <!-- 20 -->
      <g transform="translate(43.275 133.162282)scale(0.1 -0.1)">
       <use xlink:href="#DejaVuSans-32"/>
       <use xlink:href="#DejaVuSans-30" x="63.623047"/>
      </g>
     </g>
    </g>
    <g id="ytick_7">
     <g id="line2d_12">
      <g>
       <use xlink:href="#m6b8240f2e7" x="63" y="79.751488" style="stroke: #000000; stroke-width: 0.8"/>
      </g>
     </g>
     <g id="text_13">
      <!-- 40 -->
      <g transform="translate(43.275 83.550707)scale(0.1 -0.1)">
       <use xlink:href="#DejaVuSans-34"/>
       <use xlink:href="#DejaVuSans-30" x="63.623047"/>
      </g>
     </g>
    </g>
    <g id="text_14">
     <!-- voltage [mV] -->
     <g transform="translate(28.815625 250.624062)rotate(-90)scale(0.1 -0.1)">
      <defs>
       <path id="DejaVuSans-76" d="M 191 3500 
L 800 3500 
L 1894 563 
L 2988 3500 
L 3597 3500 
L 2284 0 
L 1503 0 
L 191 3500 
z
" transform="scale(0.015625)"/>
       <path id="DejaVuSans-6f" d="M 1959 3097 
Q 1497 3097 1228 2736 
Q 959 2375 959 1747 
Q 959 1119 1226 758 
Q 1494 397 1959 397 
Q 2419 397 2687 759 
Q 2956 1122 2956 1747 
Q 2956 2369 2687 2733 
Q 2419 3097 1959 3097 
z
M 1959 3584 
Q 2709 3584 3137 3096 
Q 3566 2609 3566 1747 
Q 3566 888 3137 398 
Q 2709 -91 1959 -91 
Q 1206 -91 779 398 
Q 353 888 353 1747 
Q 353 2609 779 3096 
Q 1206 3584 1959 3584 
z
" transform="scale(0.015625)"/>
       <path id="DejaVuSans-6c" d="M 603 4863 
L 1178 4863 
L 1178 0 
L 603 0 
L 603 4863 
z
" transform="scale(0.015625)"/>
       <path id="DejaVuSans-61" d="M 2194 1759 
Q 1497 1759 1228 1600 
Q 959 1441 959 1056 
Q 959 750 1161 570 
Q 1363 391 1709 391 
Q 2188 391 2477 730 
Q 2766 1069 2766 1631 
L 2766 1759 
L 2194 1759 
z
M 3341 1997 
L 3341 0 
L 2766 0 
L 2766 531 
Q 2569 213 2275 61 
Q 1981 -91 1556 -91 
Q 1019 -91 701 211 
Q 384 513 384 1019 
Q 384 1609 779 1909 
Q 1175 2209 1959 2209 
L 2766 2209 
L 2766 2266 
Q 2766 2663 2505 2880 
Q 2244 3097 1772 3097 
Q 1472 3097 1187 3025 
Q 903 2953 641 2809 
L 641 3341 
Q 956 3463 1253 3523 
Q 1550 3584 1831 3584 
Q 2591 3584 2966 3190 
Q 3341 2797 3341 1997 
z
" transform="scale(0.015625)"/>
       <path id="DejaVuSans-67" d="M 2906 1791 
Q 2906 2416 2648 2759 
Q 2391 3103 1925 3103 
Q 1463 3103 1205 2759 
Q 947 2416 947 1791 
Q 947 1169 1205 825 
Q 1463 481 1925 481 
Q 2391 481 2648 825 
Q 2906 1169 2906 1791 
z
M 3481 434 
Q 3481 -459 3084 -895 
Q 2688 -1331 1869 -1331 
Q 1566 -1331 1297 -1286 
Q 1028 -1241 775 -1147 
L 775 -588 
Q 1028 -725 1275 -790 
Q 1522 -856 1778 -856 
Q 2344 -856 2625 -561 
Q 2906 -266 2906 331 
L 2906 616 
Q 2728 306 2450 153 
Q 2172 0 1784 0 
Q 1141 0 747 490 
Q 353 981 353 1791 
Q 353 2603 747 3093 
Q 1141 3584 1784 3584 
Q 2172 3584 2450 3431 
Q 2728 3278 2906 2969 
L 2906 3500 
L 3481 3500 
L 3481 434 
z
" transform="scale(0.015625)"/>
       <path id="DejaVuSans-56" d="M 1831 0 
L 50 4666 
L 709 4666 
L 2188 738 
L 3669 4666 
L 4325 4666 
L 2547 0 
L 1831 0 
z
" transform="scale(0.015625)"/>
      </defs>
      <use xlink:href="#DejaVuSans-76"/>
      <use xlink:href="#DejaVuSans-6f" x="59.179688"/>
      <use xlink:href="#DejaVuSans-6c" x="120.361328"/>
      <use xlink:href="#DejaVuSans-74" x="148.144531"/>
      <use xlink:href="#DejaVuSans-61" x="187.353516"/>
      <use xlink:href="#DejaVuSans-67" x="248.632812"/>
      <use xlink:href="#DejaVuSans-65" x="312.109375"/>
      <use xlink:href="#DejaVuSans-20" x="373.632812"/>
      <use xlink:href="#DejaVuSans-5b" x="405.419922"/>
      <use xlink:href="#DejaVuSans-6d" x="444.433594"/>
      <use xlink:href="#DejaVuSans-56" x="541.845703"/>
      <use xlink:href="#DejaVuSans-5d" x="610.253906"/>
     </g>
    </g>
   </g>
   <g id="line2d_13">
    <path d="M 80.754545 340.21226 
L 81.988486 340.082774 
L 83.870468 340.14082 
L 86.089786 340.153967 
L 151.772727 340.147021 
L 152.314241 298.07194 
L 152.420768 252.111032 
L 152.562805 80.555692 
L 152.678209 104.386612 
L 153.565936 365.243285 
L 153.610323 365.148278 
L 153.8145 363.84523 
L 154.293873 359.352902 
L 154.959668 350.733139 
L 157.42755 313.980388 
L 157.613973 303.464966 
L 157.738255 282.707235 
L 157.835905 223.590577 
L 157.969064 103.577199 
L 158.031205 116.006387 
L 158.883423 364.842175 
L 158.945564 364.668783 
L 159.203005 362.798426 
L 159.717886 357.437399 
L 160.534595 346.166145 
L 161.8218 329.032788 
L 162.514227 319.236238 
L 162.771668 312.129132 
L 162.940336 300.797104 
L 163.064618 274.368521 
L 163.162268 194.61005 
L 163.268795 104.44689 
L 163.322059 113.437004 
L 163.863573 297.808998 
L 164.147645 364.675232 
L 164.183155 364.81216 
L 164.245295 364.640752 
L 164.493859 362.841836 
L 165.008741 357.499414 
L 165.834327 346.111821 
L 167.112655 329.103236 
L 167.813959 319.20275 
L 168.0714 312.086466 
L 168.240068 300.717229 
L 168.36435 274.135843 
L 168.462 193.905441 
L 168.568527 104.519571 
L 168.621791 113.646861 
L 169.172182 301.54351 
L 169.4385 364.594117 
L 169.482886 364.810176 
L 169.545027 364.635047 
L 169.802468 362.757 
L 170.31735 357.379106 
L 171.151814 345.838709 
L 172.430141 328.873783 
L 173.113691 319.185386 
L 173.371132 312.051986 
L 173.5398 300.626688 
L 173.664082 273.816344 
L 173.761732 192.817435 
L 173.868259 104.535447 
L 173.921523 113.869865 
L 174.480791 305.390887 
L 174.729355 364.490677 
L 174.782618 364.810176 
L 174.844759 364.631078 
L 175.1022 362.750055 
L 175.617082 357.368935 
L 176.451545 345.826554 
L 177.729873 328.863612 
L 178.413423 319.16951 
L 178.670864 312.018002 
L 178.839532 300.534906 
L 178.963814 273.488412 
L 179.061464 191.697578 
L 179.167991 104.551819 
L 179.221255 114.095349 
L 179.7894 309.335752 
L 180.029086 364.502336 
L 180.08235 364.810424 
L 180.144491 364.626861 
L 180.401932 362.743109 
L 180.916814 357.359013 
L 181.751277 345.814895 
L 183.029605 328.85369 
L 183.713155 319.153387 
L 183.970595 311.98377 
L 184.139264 300.442133 
L 184.263545 273.15279 
L 184.361195 190.558024 
L 184.467723 104.574392 
L 184.520986 114.324307 
L 185.098009 313.367437 
L 185.328818 364.513746 
L 185.382082 364.810424 
L 185.444223 364.622892 
L 185.701664 362.735916 
L 186.216545 357.349091 
L 187.051009 345.802989 
L 188.329336 328.843768 
L 189.012886 319.137511 
L 189.270327 311.94929 
L 189.438995 300.347871 
L 189.563277 272.812206 
L 189.660927 189.413932 
L 189.767455 104.602422 
L 189.820718 114.555497 
L 190.406618 317.467337 
L 190.619673 364.387237 
L 190.681814 364.810176 
L 190.743955 364.618675 
L 191.010273 362.652072 
L 191.525155 357.230519 
L 192.368495 345.533102 
L 193.637945 328.7247 
L 194.312618 319.121139 
L 194.570059 311.91481 
L 194.738727 300.253113 
L 194.863009 272.468398 
L 194.969536 175.640369 
L 195.058309 104.589771 
L 195.12045 114.789167 
L 195.715227 321.610896 
L 195.919405 364.401872 
L 195.981545 364.810176 
L 196.043686 364.614458 
L 196.310005 362.644878 
L 196.833764 357.111451 
L 197.703736 345.005979 
L 198.955432 328.496735 
L 199.61235 319.105015 
L 199.869791 311.879834 
L 200.038459 300.157362 
L 200.162741 272.117644 
L 200.269268 174.446442 
L 200.358041 104.561989 
L 200.420182 115.026807 
L 201.023836 325.763137 
L 201.219136 364.415763 
L 201.281277 364.809679 
L 201.343418 364.610241 
L 201.609736 362.637685 
L 202.133495 357.101033 
L 202.994591 345.122566 
L 204.255164 328.486564 
L 204.912082 319.088395 
L 205.169523 311.844361 
L 205.338191 300.060124 
L 205.462473 271.759696 
L 205.569 173.244502 
L 205.657773 104.540904 
L 205.719914 115.266183 
L 206.332445 329.878665 
L 206.518868 364.429655 
L 206.581009 364.809431 
L 206.634273 364.64993 
L 206.873959 362.93461 
L 207.388841 357.631629 
L 208.187795 346.65854 
L 209.510509 329.020385 
L 210.202936 319.24616 
L 210.460377 312.179984 
L 210.629045 300.970496 
L 210.753327 275.036541 
L 210.850977 197.029954 
L 210.957505 104.526517 
L 211.019645 115.506551 
L 211.641055 333.906381 
L 211.827477 364.567327 
L 211.880741 364.808935 
L 211.934005 364.645961 
L 212.182568 362.852255 
L 212.69745 357.514297 
L 213.514159 346.258919 
L 214.810241 329.010214 
L 215.502668 319.230037 
L 215.760109 312.146 
L 215.928777 300.879459 
L 216.053059 274.715802 
L 216.150709 195.915678 
L 216.257236 104.520563 
L 216.319377 115.746423 
L 216.949664 337.786254 
L 217.127209 364.577249 
L 217.171595 364.809431 
L 217.233736 364.641992 
L 217.4823 362.845309 
L 217.997182 357.504375 
L 218.822768 346.117774 
L 220.101095 329.108693 
L 220.8024 319.213913 
L 221.059841 312.112264 
L 221.228509 300.78867 
L 221.352791 274.393823 
L 221.450441 194.801947 
L 221.556968 104.521059 
L 221.610232 113.47198 
L 222.151745 297.861339 
L 222.426941 364.586675 
L 222.471327 364.809679 
L 222.533468 364.638023 
L 222.782032 362.838363 
L 223.296914 357.494453 
L 224.1225 346.105619 
L 225.418582 328.881472 
L 226.111009 319.022908 
L 226.36845 311.703216 
L 226.537118 299.669433 
L 226.652523 274.069363 
L 226.750173 193.683777 
L 226.8567 104.526765 
L 226.909964 113.696472 
L 227.460355 301.614702 
L 227.726673 364.595854 
L 227.771059 364.810176 
L 227.8332 364.634054 
L 228.090641 362.755264 
L 228.605523 357.376625 
L 229.439986 345.835732 
L 230.718314 328.871302 
L 231.401864 319.181665 
L 231.659305 312.044048 
L 231.827973 300.605851 
L 231.952255 273.742671 
L 232.049905 192.565408 
L 232.156432 104.53892 
L 232.209695 113.920717 
L 232.768964 305.465057 
L 233.017527 364.493406 
L 233.070791 364.810176 
L 233.132932 364.630085 
L 233.390373 362.748318 
L 233.905255 357.366703 
L 234.739718 345.823826 
L 236.018045 328.86138 
L 236.701595 319.16579 
L 236.959036 312.010312 
L 237.127705 300.51407 
L 237.251986 273.413002 
L 237.349636 191.440639 
L 237.456164 104.556284 
L 237.509427 114.147193 
L 238.077573 309.412154 
L 238.317259 364.504816 
L 238.370523 364.810424 
L 238.432664 364.626117 
L 238.698982 362.664723 
L 239.213864 357.248379 
L 240.057205 345.554187 
L 241.317777 328.851457 
L 242.001327 319.149914 
L 242.258768 311.97608 
L 242.427436 300.4208 
L 242.551718 273.075644 
L 242.649368 190.298432 
L 242.755895 104.580345 
L 242.809159 114.376647 
L 243.386182 313.445575 
L 243.616991 364.516227 
L 243.670255 364.810424 
L 243.732395 364.6219 
L 243.989836 362.734427 
L 244.504718 357.346858 
L 245.348059 345.67127 
L 246.617509 328.841287 
L 247.301059 319.13379 
L 247.5585 311.9416 
L 247.727168 300.32629 
L 247.85145 272.734564 
L 247.9491 189.153223 
L 248.055627 104.609864 
L 248.108891 114.608333 
L 248.694791 317.547212 
L 248.907845 364.39071 
L 248.969986 364.810176 
L 249.032127 364.617931 
L 249.298445 362.650584 
L 249.822205 357.119389 
L 250.692177 345.015405 
L 251.943873 328.504673 
L 252.600791 319.117418 
L 252.858232 311.906872 
L 253.0269 300.231284 
L 253.151182 272.389019 
L 253.257709 175.368548 
L 253.346482 104.582826 
L 253.408623 114.843244 
L 254.0034 321.692259 
L 254.207577 364.405097 
L 254.269718 364.809927 
L 254.331859 364.613714 
L 254.598177 362.64339 
L 255.121936 357.108971 
L 255.983032 345.131992 
L 257.22585 328.712297 
L 257.900523 319.101294 
L 258.157964 311.871896 
L 258.326632 300.135285 
L 258.450914 272.036529 
L 258.557441 174.172164 
L 258.646214 104.556532 
L 258.708355 115.081628 
L 259.312009 325.8445 
L 259.507309 364.418988 
L 259.56945 364.809679 
L 259.631591 364.609249 
L 259.897909 362.635948 
L 260.421668 357.0988 
L 261.291641 344.991343 
L 262.525582 328.702127 
L 263.200255 319.084675 
L 263.457695 311.836423 
L 263.626364 300.037798 
L 263.750645 271.677341 
L 263.857173 172.969729 
L 263.945945 104.536935 
L 264.008086 115.321003 
L 264.620618 329.958788 
L 264.807041 364.432879 
L 264.869182 364.809183 
L 264.922445 364.649186 
L 265.171009 362.857712 
L 265.685891 357.522235 
L 266.511477 346.139107 
L 267.807559 328.909503 
L 268.499986 319.068303 
L 268.757427 311.800951 
L 268.926095 299.940312 
L 269.050377 271.318153 
L 269.156905 171.776248 
L 269.245677 104.524532 
L 269.298941 113.076328 
L 269.8227 290.717024 
L 270.133405 364.726828 
L 270.168914 364.808935 
L 270.222177 364.645217 
L 270.470741 362.850766 
L 270.985623 357.512065 
L 271.802332 346.25619 
L 273.098414 329.007982 
L 273.790841 319.226316 
L 274.048282 312.13831 
L 274.21695 300.85887 
L 274.341232 274.642377 
L 274.438882 195.660773 
L 274.545409 104.520315 
L 274.598673 113.299332 
L 275.131309 294.276902 
L 275.424259 364.668286 
L 275.468645 364.808191 
L 275.521909 364.641248 
L 275.770473 362.843821 
L 276.285355 357.502142 
L 277.110941 346.115045 
L 278.389268 329.106461 
L 279.090573 319.210192 
L 279.348014 312.104326 
L 279.516682 300.767833 
L 279.640964 274.319902 
L 279.738614 194.546944 
L 279.845141 104.521556 
L 279.898405 113.523328 
L 280.439918 297.933027 
L 280.715114 364.58866 
L 280.7595 364.809927 
L 280.821641 364.637279 
L 281.079082 362.760721 
L 281.593964 357.384315 
L 282.428427 345.84491 
L 283.706755 328.878992 
L 284.390305 319.194068 
L 284.647745 312.070342 
L 284.816414 300.676548 
L 284.940695 273.994946 
L 285.038345 193.428674 
L 285.144873 104.528997 
L 285.198136 113.747572 
L 285.748527 301.687383 
L 286.014845 364.597838 
L 286.059232 364.810176 
L 286.121373 364.633062 
L 286.378814 362.753776 
L 286.902573 357.265991 
L 287.754791 345.446281 
L 289.006486 328.86907 
L 289.690036 319.178192 
L 289.947477 312.036358 
L 290.116145 300.585014 
L 290.240427 273.667758 
L 290.338077 192.309462 
L 290.444605 104.542392 
L 290.497868 113.972065 
L 291.057136 305.53997 
L 291.3057 364.496134 
L 291.358964 364.810424 
L 291.421105 364.629093 
L 291.678545 362.74683 
L 292.193427 357.36447 
L 293.027891 345.821097 
L 294.315095 328.75025 
L 294.989768 319.162069 
L 295.247209 312.002374 
L 295.415877 300.492985 
L 295.540159 273.3366 
L 295.637809 191.180997 
L 295.744336 104.561245 
L 295.7976 114.199286 
L 296.365745 309.489052 
L 296.605432 364.507545 
L 296.658695 364.810424 
L 296.720836 364.625124 
L 296.978277 362.739884 
L 297.493159 357.354548 
L 298.327623 345.809438 
L 299.60595 328.849225 
L 300.2895 319.146193 
L 300.546941 311.968142 
L 300.715609 300.399219 
L 300.839891 272.998249 
L 300.937541 190.038467 
L 301.044068 104.586547 
L 301.097332 114.428987 
L 301.674355 313.523713 
L 301.905164 364.518708 
L 301.958427 364.810424 
L 302.020568 364.621155 
L 302.286886 362.656041 
L 302.810645 357.127079 
L 303.671741 345.153325 
L 304.914559 328.730405 
L 305.589232 319.130069 
L 305.846673 311.933662 
L 306.015341 300.304957 
L 306.139623 272.656674 
L 306.24615 176.286808 
L 306.334923 104.607384 
L 306.397064 114.661417 
L 306.982964 317.627087 
L 307.196018 364.393934 
L 307.258159 364.810176 
L 307.3203 364.616938 
L 307.586618 362.648847 
L 308.110377 357.116908 
L 308.971473 345.141418 
L 310.214291 328.720235 
L 310.888964 319.113945 
L 311.146405 311.898934 
L 311.315073 300.209703 
L 311.439355 272.309393 
L 311.545882 175.097693 
L 311.634655 104.576376 
L 311.696795 114.897072 
L 312.291573 321.773126 
L 312.49575 364.408322 
L 312.557891 364.809927 
L 312.620032 364.612721 
L 312.88635 362.641654 
L 313.410109 357.106738 
L 314.280082 345.000521 
L 315.531777 328.492022 
L 316.188695 319.097326 
L 316.446136 311.86371 
L 316.614805 300.113208 
L 316.739086 271.955662 
L 316.845614 173.898929 
L 316.934386 104.551571 
L 316.996527 115.135952 
L 317.600182 325.925615 
L 317.795482 364.422213 
L 317.857623 364.809679 
L 317.910886 364.652163 
L 318.15945 362.863169 
L 318.674332 357.529925 
L 319.491041 346.277523 
L 320.796 328.917193 
L 321.488427 319.080954 
L 321.745868 311.828237 
L 321.914536 300.015473 
L 322.038818 271.595234 
L 322.145345 172.69627 
L 322.234118 104.533462 
L 322.296259 115.375824 
L 322.908791 330.038662 
L 323.095214 364.436104 
L 323.157355 364.809183 
L 323.210618 364.648194 
L 323.459182 362.856224 
L 323.974064 357.519754 
L 324.790773 346.265369 
L 326.095732 328.907022 
L 326.779282 319.238719 
L 327.036723 312.164604 
L 327.205391 300.92907 
L 327.329673 274.890435 
L 327.427323 196.521931 
L 327.53385 104.522796 
L 327.595991 115.615944 
L 328.2174 334.060673 
L 328.403823 364.571792 
L 328.457086 364.808687 
L 328.51035 364.644225 
L 328.758914 362.84903 
L 329.273795 357.509832 
L 329.318182 356.966337 
L 329.335936 357.818168 
L 329.531236 361.595593 
L 329.620009 361.773451 
L 329.664395 361.719126 
L 329.815309 361.144624 
L 330.214786 358.477754 
L 332.176664 344.506886 
L 332.869091 341.456519 
L 333.428359 339.889289 
L 333.889977 339.185797 
L 334.262823 338.970979 
L 334.626791 339.012404 
L 335.115041 339.321484 
L 336.482141 340.286926 
L 337.121305 340.402273 
L 338.133314 340.292383 
L 339.9354 340.102371 
L 435.845455 340.147021 
L 435.845455 340.147021 
" clip-path="url(#pb46c33a59c)" style="fill: none; stroke: #1f77b4; stroke-width: 1.5; stroke-linecap: square"/>
   </g>
   <g id="line2d_14">
    <path d="M 80.754545 340.21226 
L 81.109636 350.293279 
L 81.393709 353.445542 
L 81.615641 354.079628 
L 81.757677 354.038519 
L 81.961855 353.640673 
L 82.414595 352.140648 
L 83.515377 348.503649 
L 84.065768 347.407712 
L 84.527386 346.932041 
L 84.935741 346.807256 
L 85.406236 346.911949 
L 87.376991 347.606235 
L 88.48665 347.530997 
L 90.368632 347.43635 
L 103.205168 347.4607 
L 151.772727 347.460653 
L 152.260977 309.077518 
L 152.34975 262.364321 
L 152.456277 66.96 
L 152.589436 87.548861 
L 153.059932 239.559746 
L 153.468286 368.566245 
L 153.583691 368.366832 
L 153.983168 367.180283 
L 154.418155 365.146955 
L 154.924159 361.611888 
L 155.616586 354.968867 
L 157.400918 337.253296 
L 158.652614 325.845323 
L 158.856791 320.786032 
L 158.998827 310.627914 
L 159.096477 284.540778 
L 159.167495 193.036272 
L 159.247391 78.928039 
L 159.309532 87.127467 
L 159.558095 168.993122 
L 160.179505 368.484273 
L 160.232768 368.418056 
L 160.570105 367.489727 
L 161.005091 365.627425 
L 161.493341 362.453572 
L 162.123627 356.714415 
L 164.342945 335.143228 
L 165.425973 325.744397 
L 165.639027 321.174772 
L 165.781064 312.838521 
L 165.887591 290.61081 
L 165.967486 204.235948 
L 166.056259 79.668568 
L 166.1184 88.852818 
L 166.393595 180.994452 
L 166.979495 368.478075 
L 167.041636 368.395921 
L 167.396727 367.392863 
L 167.831714 365.476068 
L 168.328841 362.162489 
L 168.976882 356.149035 
L 171.018655 336.130411 
L 172.279227 325.040843 
L 172.474527 320.191305 
L 172.607686 310.954828 
L 172.705336 287.026919 
L 172.776355 206.401295 
L 172.865127 79.72231 
L 172.927268 88.701848 
L 173.193586 177.669087 
L 173.788364 368.477321 
L 173.850505 368.396752 
L 174.205595 367.39433 
L 174.640582 365.478354 
L 175.137709 362.165834 
L 175.78575 356.153419 
L 177.827523 336.134254 
L 179.088095 325.058576 
L 179.283395 320.242329 
L 179.425432 310.010624 
L 179.523082 283.135597 
L 179.5941 188.455872 
L 179.673995 79.725214 
L 179.736136 88.39496 
L 179.993577 174.082442 
L 180.606109 368.477649 
L 180.650495 368.417302 
L 180.978955 367.519605 
L 181.405064 365.720552 
L 181.893314 362.590483 
L 182.514723 356.986345 
L 184.822814 334.663125 
L 185.852577 325.73998 
L 186.065632 321.257055 
L 186.207668 313.175687 
L 186.314195 292.093761 
L 186.394091 212.533579 
L 186.482864 79.739542 
L 186.553882 90.134985 
L 186.855709 192.017758 
L 187.414977 368.478016 
L 187.485995 368.364619 
L 187.867718 367.246283 
L 188.302705 365.248751 
L 188.808709 361.759797 
L 189.492259 355.255036 
L 191.320977 337.172834 
L 192.732464 324.664523 
L 192.918886 319.626314 
L 193.052045 309.197244 
L 193.149695 279.592839 
L 193.229591 148.763018 
L 193.291732 79.773201 
L 193.36275 89.786969 
L 193.6557 188.493817 
L 194.223845 368.478145 
L 194.285986 368.386937 
L 194.649955 367.346889 
L 195.084941 365.40455 
L 195.582068 362.058094 
L 196.238986 355.920586 
L 198.218618 336.456985 
L 199.523577 324.985283 
L 199.718877 320.060722 
L 199.852036 310.564758 
L 199.949686 285.458651 
L 200.020705 199.133294 
L 200.109477 79.794082 
L 200.171618 89.43986 
L 200.455691 184.93918 
L 201.032714 368.478096 
L 201.094855 368.39004 
L 201.458823 367.352069 
L 201.893809 365.412598 
L 202.390936 362.069822 
L 203.047855 355.935878 
L 205.036364 336.396642 
L 206.332445 325.009387 
L 206.527745 320.121238 
L 206.660905 310.749814 
L 206.758555 286.210229 
L 206.829573 202.618614 
L 206.918345 79.754103 
L 206.980486 89.091813 
L 207.255682 181.351695 
L 207.841582 368.477877 
L 207.903723 368.393168 
L 208.267691 367.357308 
L 208.702677 365.42074 
L 209.199805 362.081693 
L 209.856723 355.951367 
L 211.845232 336.408793 
L 213.150191 324.889158 
L 213.345491 319.817079 
L 213.47865 309.805341 
L 213.5763 282.255707 
L 213.647318 184.473235 
L 213.727214 79.730367 
L 213.789355 88.750106 
L 214.055673 177.7424 
L 214.65045 368.477368 
L 214.712591 368.396264 
L 215.067682 367.393519 
L 215.502668 365.477091 
L 215.999795 362.163988 
L 216.647836 356.151006 
L 218.689609 336.132408 
L 219.950182 325.056063 
L 220.145482 320.236879 
L 220.287518 309.993339 
L 220.385168 283.062434 
L 220.456186 188.122435 
L 220.536082 79.725367 
L 220.598223 88.425351 
L 220.855664 174.129615 
L 221.468195 368.477603 
L 221.512582 368.417036 
L 221.841041 367.519152 
L 222.26715 365.719847 
L 222.7554 362.589443 
L 223.376809 356.984965 
L 225.6849 334.662066 
L 226.714664 325.738153 
L 226.927718 321.252766 
L 227.069755 313.163156 
L 227.176282 292.043294 
L 227.256177 212.258856 
L 227.34495 79.737575 
L 227.415968 90.166105 
L 227.717795 192.061748 
L 228.277064 368.477991 
L 228.348082 368.364334 
L 228.729805 367.245811 
L 229.164791 365.248023 
L 229.670795 361.758739 
L 230.354345 355.253672 
L 232.183064 337.171766 
L 233.59455 324.662267 
L 233.780973 319.620603 
L 233.914132 309.178714 
L 234.011782 279.509389 
L 234.091677 148.408749 
L 234.153818 79.769383 
L 234.224836 89.818434 
L 234.517786 188.539127 
L 235.085932 368.478141 
L 235.148073 368.386656 
L 235.512041 367.34642 
L 235.947027 365.403822 
L 236.444155 362.057033 
L 237.101073 355.919203 
L 239.080705 336.455903 
L 240.385664 324.983147 
L 240.580964 320.055382 
L 240.714123 310.548433 
L 240.811773 285.392292 
L 240.882791 198.825777 
L 240.971564 79.798255 
L 241.033705 89.470415 
L 241.317777 184.983991 
L 241.8948 368.478107 
L 241.956941 368.389768 
L 242.320909 367.351613 
L 242.755895 365.41189 
L 243.253023 362.06879 
L 243.909941 355.934533 
L 245.89845 336.395588 
L 247.194532 325.007267 
L 247.389832 320.115919 
L 247.522991 310.733566 
L 247.620641 286.144315 
L 247.691659 202.311994 
L 247.780432 79.756994 
L 247.842573 89.122568 
L 248.117768 181.397682 
L 248.703668 368.477907 
L 248.765809 368.39289 
L 249.129777 367.356842 
L 249.564764 365.420016 
L 250.061891 362.080636 
L 250.718809 355.949989 
L 252.707318 336.407712 
L 254.012277 324.887016 
L 254.207577 319.811621 
L 254.340736 309.788073 
L 254.438386 282.181328 
L 254.509405 184.13914 
L 254.5893 79.731734 
L 254.651441 88.779939 
L 254.917759 177.787858 
L 255.512536 368.477422 
L 255.574677 368.395993 
L 255.929768 367.393066 
L 256.364755 365.476385 
L 256.861882 362.162955 
L 257.509923 356.149655 
L 259.551695 336.131354 
L 260.812268 325.054061 
L 261.007568 320.231977 
L 261.149605 309.977063 
L 261.247255 282.992751 
L 261.318273 187.80373 
L 261.398168 79.725124 
L 261.460309 88.453857 
L 261.71775 174.173856 
L 262.330282 368.477562 
L 262.374668 368.41679 
L 262.712005 367.489007 
L 263.146991 365.626303 
L 263.635241 362.45195 
L 264.265527 356.712385 
L 266.475968 335.218502 
L 267.585627 325.610841 
L 267.798682 320.945092 
L 267.940718 312.245137 
L 268.047245 288.221182 
L 268.118264 211.986828 
L 268.207036 79.735684 
L 268.278055 90.196896 
L 268.579882 192.105241 
L 269.13915 368.477964 
L 269.210168 368.364052 
L 269.591891 367.245346 
L 270.026877 365.247305 
L 270.532882 361.757695 
L 271.216432 355.252326 
L 273.036273 337.24397 
L 274.456636 324.66003 
L 274.643059 319.614931 
L 274.776218 309.1603 
L 274.873868 279.426435 
L 274.953764 148.057117 
L 275.015905 79.765733 
L 275.086923 89.84978 
L 275.379873 188.584241 
L 275.948018 368.478137 
L 276.010159 368.386376 
L 276.374127 367.345953 
L 276.809114 365.403096 
L 277.306241 362.055977 
L 277.963159 355.917825 
L 279.942791 336.454826 
L 281.24775 324.981033 
L 281.44305 320.050105 
L 281.576209 310.532304 
L 281.673859 285.326721 
L 281.744877 198.521914 
L 281.83365 79.802613 
L 281.895791 89.500422 
L 282.179864 185.027942 
L 282.756886 368.478115 
L 282.819027 368.3895 
L 283.182995 367.351165 
L 283.617982 365.411193 
L 284.115109 362.067775 
L 284.772027 355.933209 
L 286.760536 336.394551 
L 288.056618 325.005216 
L 288.251918 320.110791 
L 288.385077 310.717919 
L 288.482727 286.080848 
L 288.553745 202.017317 
L 288.642518 79.759922 
L 288.704659 89.152145 
L 288.979855 181.441856 
L 289.565755 368.477933 
L 289.627895 368.392624 
L 289.991864 367.356394 
L 290.42685 365.41932 
L 290.923977 362.079622 
L 291.580895 355.948666 
L 293.569405 336.406674 
L 294.874364 324.884953 
L 295.069664 319.806355 
L 295.202823 309.771405 
L 295.300473 282.109509 
L 295.371491 183.816596 
L 295.451386 79.733251 
L 295.513527 88.808726 
L 295.779845 177.831697 
L 296.374623 368.477473 
L 296.436764 368.395731 
L 296.791855 367.392628 
L 297.226841 365.475702 
L 297.723968 362.161956 
L 298.372009 356.148348 
L 300.413782 336.130335 
L 301.674355 325.052152 
L 301.869655 320.227298 
L 302.011691 309.961534 
L 302.109341 282.926261 
L 302.180359 187.50081 
L 302.260255 79.724989 
L 302.322395 88.480889 
L 302.588714 177.33018 
L 303.192368 368.477524 
L 303.245632 368.398693 
L 303.600723 367.397598 
L 304.035709 365.483447 
L 304.532836 362.173284 
L 305.180877 356.16317 
L 307.231527 336.070048 
L 308.483223 325.074637 
L 308.678523 320.282683 
L 308.820559 310.145361 
L 308.918209 283.712552 
L 308.989227 191.089158 
L 309.069123 79.734105 
L 309.131264 88.159685 
L 309.388705 173.714978 
L 310.001236 368.477936 
L 310.045623 368.419325 
L 310.374082 367.523063 
L 310.800191 365.725938 
L 311.288441 362.598421 
L 311.90985 356.996889 
L 314.217941 334.671253 
L 315.247705 325.7547 
L 315.460759 321.292229 
L 315.602795 313.279003 
L 315.709323 292.507939 
L 315.789218 214.784283 
L 315.877991 79.762284 
L 315.949009 89.879605 
L 316.241959 188.627094 
L 316.810105 368.478134 
L 316.872245 368.386111 
L 317.236214 367.345512 
L 317.6712 365.402411 
L 318.168327 362.054978 
L 318.825245 355.916524 
L 320.804877 336.453808 
L 322.109836 324.979013 
L 322.305136 320.04505 
L 322.438295 310.51684 
L 322.535945 285.263759 
L 322.606964 198.230138 
L 322.695736 79.806809 
L 322.757877 89.529192 
L 323.04195 185.070025 
L 323.618973 368.478124 
L 323.681114 368.389243 
L 324.045082 367.350736 
L 324.480068 365.410527 
L 324.977195 362.066803 
L 325.634114 355.931941 
L 327.622623 336.393558 
L 328.918705 325.003221 
L 329.114005 320.105784 
L 329.247164 310.702616 
L 329.353691 283.303326 
L 329.424709 190.796207 
L 329.504605 80.14635 
L 329.566745 88.556613 
L 329.824186 174.216794 
L 330.454473 369.36 
L 330.489982 369.341498 
L 330.862827 368.911137 
L 331.315568 368.062275 
L 331.803818 366.632498 
L 332.380841 364.178662 
L 333.233059 359.420023 
L 334.6623 351.542703 
L 335.381359 348.788671 
L 335.940627 347.429799 
L 336.402245 346.837461 
L 336.792845 346.668919 
L 337.2012 346.743764 
L 337.911382 347.15846 
L 338.745845 347.554467 
L 339.464905 347.635731 
L 340.778741 347.494139 
L 342.341141 347.430734 
L 350.881077 347.460872 
L 435.845455 347.460653 
L 435.845455 347.460653 
" clip-path="url(#pb46c33a59c)" style="fill: none; stroke: #ff0000; stroke-width: 1.5; stroke-linecap: square"/>
   </g>
   <g id="patch_3">
    <path d="M 63 384.48 
L 63 51.84 
" style="fill: none; stroke: #000000; stroke-width: 0.8; stroke-linejoin: miter; stroke-linecap: square"/>
   </g>
   <g id="patch_4">
    <path d="M 453.6 384.48 
L 453.6 51.84 
" style="fill: none; stroke: #000000; stroke-width: 0.8; stroke-linejoin: miter; stroke-linecap: square"/>
   </g>
   <g id="patch_5">
    <path d="M 63 384.48 
L 453.6 384.48 
" style="fill: none; stroke: #000000; stroke-width: 0.8; stroke-linejoin: miter; stroke-linecap: square"/>
   </g>
   <g id="patch_6">
    <path d="M 63 51.84 
L 453.6 51.84 
" style="fill: none; stroke: #000000; stroke-width: 0.8; stroke-linejoin: miter; stroke-linecap: square"/>
   </g>
   <g id="legend_1">
    <g id="patch_7">
     <path d="M 383.460938 89.19625 
L 446.6 89.19625 
Q 448.6 89.19625 448.6 87.19625 
L 448.6 58.84 
Q 448.6 56.84 446.6 56.84 
L 383.460938 56.84 
Q 381.460938 56.84 381.460938 58.84 
L 381.460938 87.19625 
Q 381.460938 89.19625 383.460938 89.19625 
z
" style="fill: #ffffff; opacity: 0.8; stroke: #cccccc; stroke-linejoin: miter"/>
    </g>
    <g id="line2d_15">
     <path d="M 385.460938 64.938437 
L 395.460938 64.938437 
L 405.460938 64.938437 
" style="fill: none; stroke: #1f77b4; stroke-width: 1.5; stroke-linecap: square"/>
    </g>
    <g id="text_15">
     <!-- target -->
     <g transform="translate(413.460938 68.438437)scale(0.1 -0.1)">
      <defs>
       <path id="DejaVuSans-72" d="M 2631 2963 
Q 2534 3019 2420 3045 
Q 2306 3072 2169 3072 
Q 1681 3072 1420 2755 
Q 1159 2438 1159 1844 
L 1159 0 
L 581 0 
L 581 3500 
L 1159 3500 
L 1159 2956 
Q 1341 3275 1631 3429 
Q 1922 3584 2338 3584 
Q 2397 3584 2469 3576 
Q 2541 3569 2628 3553 
L 2631 2963 
z
" transform="scale(0.015625)"/>
      </defs>
      <use xlink:href="#DejaVuSans-74"/>
      <use xlink:href="#DejaVuSans-61" x="39.208984"/>
      <use xlink:href="#DejaVuSans-72" x="100.488281"/>
      <use xlink:href="#DejaVuSans-67" x="139.851562"/>
      <use xlink:href="#DejaVuSans-65" x="203.328125"/>
      <use xlink:href="#DejaVuSans-74" x="264.851562"/>
     </g>
    </g>
    <g id="line2d_16">
     <path d="M 385.460938 79.616562 
L 395.460938 79.616562 
L 405.460938 79.616562 
" style="fill: none; stroke: #ff0000; stroke-width: 1.5; stroke-linecap: square"/>
    </g>
    <g id="text_16">
     <!-- model -->
     <g transform="translate(413.460938 83.116562)scale(0.1 -0.1)">
      <defs>
       <path id="DejaVuSans-64" d="M 2906 2969 
L 2906 4863 
L 3481 4863 
L 3481 0 
L 2906 0 
L 2906 525 
Q 2725 213 2448 61 
Q 2172 -91 1784 -91 
Q 1150 -91 751 415 
Q 353 922 353 1747 
Q 353 2572 751 3078 
Q 1150 3584 1784 3584 
Q 2172 3584 2448 3432 
Q 2725 3281 2906 2969 
z
M 947 1747 
Q 947 1113 1208 752 
Q 1469 391 1925 391 
Q 2381 391 2643 752 
Q 2906 1113 2906 1747 
Q 2906 2381 2643 2742 
Q 2381 3103 1925 3103 
Q 1469 3103 1208 2742 
Q 947 2381 947 1747 
z
" transform="scale(0.015625)"/>
      </defs>
      <use xlink:href="#DejaVuSans-6d"/>
      <use xlink:href="#DejaVuSans-6f" x="97.412109"/>
      <use xlink:href="#DejaVuSans-64" x="158.59375"/>
      <use xlink:href="#DejaVuSans-65" x="222.070312"/>
      <use xlink:href="#DejaVuSans-6c" x="283.59375"/>
     </g>
    </g>
   </g>
  </g>
 </g>
 <defs>
  <clipPath id="pb46c33a59c">
   <rect x="63" y="51.84" width="390.6" height="332.64"/>
  </clipPath>
 </defs>
</svg>
