<?xml version="1.0" encoding="utf-8" standalone="no"?>
<!DOCTYPE svg PUBLIC "-//W3C//DTD SVG 1.1//EN"
  "http://www.w3.org/Graphics/SVG/1.1/DTD/svg11.dtd">
<svg xmlns:xlink="http://www.w3.org/1999/xlink" width="504pt" height="432pt" viewBox="0 0 504 432" xmlns="http://www.w3.org/2000/svg" version="1.1">
 <metadata>
  <rdf:RDF xmlns:dc="http://purl.org/dc/elements/1.1/" xmlns:cc="http://creativecommons.org/ns#" xmlns:rdf="http://www.w3.org/1999/02/22-rdf-syntax-ns#">
   <cc:Work>
    <dc:type rdf:resource="http://purl.org/dc/dcmitype/StillImage"/>
    <dc:date>2022-01-30T23:46:38.157154</dc:date>
    <dc:format>image/svg+xml</dc:format>
    <dc:creator>
     <cc:Agent>
      <dc:title>Matplotlib v3.5.1, https://matplotlib.org/</dc:title>
     </cc:Agent>
    </dc:creator>
   </cc:Work>
  </rdf:RDF>
 </metadata>
 <defs>
  <style type="text/css">*{stroke-linejoin: round; stroke-linecap: butt}</style>
 </defs>
 <g id="figure_1">
  <g id="patch_1">
   <path d="M 0 432 
L 504 432 
L 504 0 
L 0 0 
z
" style="fill: #ffffff"/>
  </g>
  <g id="axes_1">
   <g id="patch_2">
    <path d="M 63 384.48 
L 453.6 384.48 
L 453.6 51.84 
L 63 51.84 
z
" style="fill: #ffffff"/>
   </g>
   <g id="matplotlib.axis_1">
    <g id="xtick_1">
     <g id="line2d_1">
      <defs>
       <path id="m82067b4640" d="M 0 0 
L 0 3.5 
" style="stroke: #000000; stroke-width: 0.8"/>
      </defs>
      <g>
       <use xlink:href="#m82067b4640" x="80.754545" y="384.48" style="stroke: #000000; stroke-width: 0.8"/>
      </g>
     </g>
     <g id="text_1">
      <!-- 0 -->
      <g transform="translate(77.573295 399.078438)scale(0.1 -0.1)">
       <defs>
        <path id="DejaVuSans-30" d="M 2034 4250 
Q 1547 4250 1301 3770 
Q 1056 3291 1056 2328 
Q 1056 1369 1301 889 
Q 1547 409 2034 409 
Q 2525 409 2770 889 
Q 3016 1369 3016 2328 
Q 3016 3291 2770 3770 
Q 2525 4250 2034 4250 
z
M 2034 4750 
Q 2819 4750 3233 4129 
Q 3647 3509 3647 2328 
Q 3647 1150 3233 529 
Q 2819 -91 2034 -91 
Q 1250 -91 836 529 
Q 422 1150 422 2328 
Q 422 3509 836 4129 
Q 1250 4750 2034 4750 
z
" transform="scale(0.015625)"/>
       </defs>
       <use xlink:href="#DejaVuSans-30"/>
      </g>
     </g>
    </g>
    <g id="xtick_2">
     <g id="line2d_2">
      <g>
       <use xlink:href="#m82067b4640" x="151.772727" y="384.48" style="stroke: #000000; stroke-width: 0.8"/>
      </g>
     </g>
     <g id="text_2">
      <!-- 200 -->
      <g transform="translate(142.228977 399.078438)scale(0.1 -0.1)">
       <defs>
        <path id="DejaVuSans-32" d="M 1228 531 
L 3431 531 
L 3431 0 
L 469 0 
L 469 531 
Q 828 903 1448 1529 
Q 2069 2156 2228 2338 
Q 2531 2678 2651 2914 
Q 2772 3150 2772 3378 
Q 2772 3750 2511 3984 
Q 2250 4219 1831 4219 
Q 1534 4219 1204 4116 
Q 875 4013 500 3803 
L 500 4441 
Q 881 4594 1212 4672 
Q 1544 4750 1819 4750 
Q 2544 4750 2975 4387 
Q 3406 4025 3406 3419 
Q 3406 3131 3298 2873 
Q 3191 2616 2906 2266 
Q 2828 2175 2409 1742 
Q 1991 1309 1228 531 
z
" transform="scale(0.015625)"/>
       </defs>
       <use xlink:href="#DejaVuSans-32"/>
       <use xlink:href="#DejaVuSans-30" x="63.623047"/>
       <use xlink:href="#DejaVuSans-30" x="127.246094"/>
      </g>
     </g>
    </g>
    <g id="xtick_3">
     <g id="line2d_3">
      <g>
       <use xlink:href="#m82067b4640" x="222.790909" y="384.48" style="stroke: #000000; stroke-width: 0.8"/>
      </g>
     </g>
     <g id="text_3">
      <!-- 400 -->
      <g transform="translate(213.247159 399.078438)scale(0.1 -0.1)">
       <defs>
        <path id="DejaVuSans-34" d="M 2419 4116 
L 825 1625 
L 2419 1625 
L 2419 4116 
z
M 2253 4666 
L 3047 4666 
L 3047 1625 
L 3713 1625 
L 3713 1100 
L 3047 1100 
L 3047 0 
L 2419 0 
L 2419 1100 
L 313 1100 
L 313 1709 
L 2253 4666 
z
" transform="scale(0.015625)"/>
       </defs>
       <use xlink:href="#DejaVuSans-34"/>
       <use xlink:href="#DejaVuSans-30" x="63.623047"/>
       <use xlink:href="#DejaVuSans-30" x="127.246094"/>
      </g>
     </g>
    </g>
    <g id="xtick_4">
     <g id="line2d_4">
      <g>
       <use xlink:href="#m82067b4640" x="293.809091" y="384.48" style="stroke: #000000; stroke-width: 0.8"/>
      </g>
     </g>
     <g id="text_4">
      <!-- 600 -->
      <g transform="translate(284.265341 399.078438)scale(0.1 -0.1)">
       <defs>
        <path id="DejaVuSans-36" d="M 2113 2584 
Q 1688 2584 1439 2293 
Q 1191 2003 1191 1497 
Q 1191 994 1439 701 
Q 1688 409 2113 409 
Q 2538 409 2786 701 
Q 3034 994 3034 1497 
Q 3034 2003 2786 2293 
Q 2538 2584 2113 2584 
z
M 3366 4563 
L 3366 3988 
Q 3128 4100 2886 4159 
Q 2644 4219 2406 4219 
Q 1781 4219 1451 3797 
Q 1122 3375 1075 2522 
Q 1259 2794 1537 2939 
Q 1816 3084 2150 3084 
Q 2853 3084 3261 2657 
Q 3669 2231 3669 1497 
Q 3669 778 3244 343 
Q 2819 -91 2113 -91 
Q 1303 -91 875 529 
Q 447 1150 447 2328 
Q 447 3434 972 4092 
Q 1497 4750 2381 4750 
Q 2619 4750 2861 4703 
Q 3103 4656 3366 4563 
z
" transform="scale(0.015625)"/>
       </defs>
       <use xlink:href="#DejaVuSans-36"/>
       <use xlink:href="#DejaVuSans-30" x="63.623047"/>
       <use xlink:href="#DejaVuSans-30" x="127.246094"/>
      </g>
     </g>
    </g>
    <g id="xtick_5">
     <g id="line2d_5">
      <g>
       <use xlink:href="#m82067b4640" x="364.827273" y="384.48" style="stroke: #000000; stroke-width: 0.8"/>
      </g>
     </g>
     <g id="text_5">
      <!-- 800 -->
      <g transform="translate(355.283523 399.078438)scale(0.1 -0.1)">
       <defs>
        <path id="DejaVuSans-38" d="M 2034 2216 
Q 1584 2216 1326 1975 
Q 1069 1734 1069 1313 
Q 1069 891 1326 650 
Q 1584 409 2034 409 
Q 2484 409 2743 651 
Q 3003 894 3003 1313 
Q 3003 1734 2745 1975 
Q 2488 2216 2034 2216 
z
M 1403 2484 
Q 997 2584 770 2862 
Q 544 3141 544 3541 
Q 544 4100 942 4425 
Q 1341 4750 2034 4750 
Q 2731 4750 3128 4425 
Q 3525 4100 3525 3541 
Q 3525 3141 3298 2862 
Q 3072 2584 2669 2484 
Q 3125 2378 3379 2068 
Q 3634 1759 3634 1313 
Q 3634 634 3220 271 
Q 2806 -91 2034 -91 
Q 1263 -91 848 271 
Q 434 634 434 1313 
Q 434 1759 690 2068 
Q 947 2378 1403 2484 
z
M 1172 3481 
Q 1172 3119 1398 2916 
Q 1625 2713 2034 2713 
Q 2441 2713 2670 2916 
Q 2900 3119 2900 3481 
Q 2900 3844 2670 4047 
Q 2441 4250 2034 4250 
Q 1625 4250 1398 4047 
Q 1172 3844 1172 3481 
z
" transform="scale(0.015625)"/>
       </defs>
       <use xlink:href="#DejaVuSans-38"/>
       <use xlink:href="#DejaVuSans-30" x="63.623047"/>
       <use xlink:href="#DejaVuSans-30" x="127.246094"/>
      </g>
     </g>
    </g>
    <g id="text_6">
     <!-- time [ms] -->
     <g transform="translate(234.038281 412.756563)scale(0.1 -0.1)">
      <defs>
       <path id="DejaVuSans-74" d="M 1172 4494 
L 1172 3500 
L 2356 3500 
L 2356 3053 
L 1172 3053 
L 1172 1153 
Q 1172 725 1289 603 
Q 1406 481 1766 481 
L 2356 481 
L 2356 0 
L 1766 0 
Q 1100 0 847 248 
Q 594 497 594 1153 
L 594 3053 
L 172 3053 
L 172 3500 
L 594 3500 
L 594 4494 
L 1172 4494 
z
" transform="scale(0.015625)"/>
       <path id="DejaVuSans-69" d="M 603 3500 
L 1178 3500 
L 1178 0 
L 603 0 
L 603 3500 
z
M 603 4863 
L 1178 4863 
L 1178 4134 
L 603 4134 
L 603 4863 
z
" transform="scale(0.015625)"/>
       <path id="DejaVuSans-6d" d="M 3328 2828 
Q 3544 3216 3844 3400 
Q 4144 3584 4550 3584 
Q 5097 3584 5394 3201 
Q 5691 2819 5691 2113 
L 5691 0 
L 5113 0 
L 5113 2094 
Q 5113 2597 4934 2840 
Q 4756 3084 4391 3084 
Q 3944 3084 3684 2787 
Q 3425 2491 3425 1978 
L 3425 0 
L 2847 0 
L 2847 2094 
Q 2847 2600 2669 2842 
Q 2491 3084 2119 3084 
Q 1678 3084 1418 2786 
Q 1159 2488 1159 1978 
L 1159 0 
L 581 0 
L 581 3500 
L 1159 3500 
L 1159 2956 
Q 1356 3278 1631 3431 
Q 1906 3584 2284 3584 
Q 2666 3584 2933 3390 
Q 3200 3197 3328 2828 
z
" transform="scale(0.015625)"/>
       <path id="DejaVuSans-65" d="M 3597 1894 
L 3597 1613 
L 953 1613 
Q 991 1019 1311 708 
Q 1631 397 2203 397 
Q 2534 397 2845 478 
Q 3156 559 3463 722 
L 3463 178 
Q 3153 47 2828 -22 
Q 2503 -91 2169 -91 
Q 1331 -91 842 396 
Q 353 884 353 1716 
Q 353 2575 817 3079 
Q 1281 3584 2069 3584 
Q 2775 3584 3186 3129 
Q 3597 2675 3597 1894 
z
M 3022 2063 
Q 3016 2534 2758 2815 
Q 2500 3097 2075 3097 
Q 1594 3097 1305 2825 
Q 1016 2553 972 2059 
L 3022 2063 
z
" transform="scale(0.015625)"/>
       <path id="DejaVuSans-20" transform="scale(0.015625)"/>
       <path id="DejaVuSans-5b" d="M 550 4863 
L 1875 4863 
L 1875 4416 
L 1125 4416 
L 1125 -397 
L 1875 -397 
L 1875 -844 
L 550 -844 
L 550 4863 
z
" transform="scale(0.015625)"/>
       <path id="DejaVuSans-73" d="M 2834 3397 
L 2834 2853 
Q 2591 2978 2328 3040 
Q 2066 3103 1784 3103 
Q 1356 3103 1142 2972 
Q 928 2841 928 2578 
Q 928 2378 1081 2264 
Q 1234 2150 1697 2047 
L 1894 2003 
Q 2506 1872 2764 1633 
Q 3022 1394 3022 966 
Q 3022 478 2636 193 
Q 2250 -91 1575 -91 
Q 1294 -91 989 -36 
Q 684 19 347 128 
L 347 722 
Q 666 556 975 473 
Q 1284 391 1588 391 
Q 1994 391 2212 530 
Q 2431 669 2431 922 
Q 2431 1156 2273 1281 
Q 2116 1406 1581 1522 
L 1381 1569 
Q 847 1681 609 1914 
Q 372 2147 372 2553 
Q 372 3047 722 3315 
Q 1072 3584 1716 3584 
Q 2034 3584 2315 3537 
Q 2597 3491 2834 3397 
z
" transform="scale(0.015625)"/>
       <path id="DejaVuSans-5d" d="M 1947 4863 
L 1947 -844 
L 622 -844 
L 622 -397 
L 1369 -397 
L 1369 4416 
L 622 4416 
L 622 4863 
L 1947 4863 
z
" transform="scale(0.015625)"/>
      </defs>
      <use xlink:href="#DejaVuSans-74"/>
      <use xlink:href="#DejaVuSans-69" x="39.208984"/>
      <use xlink:href="#DejaVuSans-6d" x="66.992188"/>
      <use xlink:href="#DejaVuSans-65" x="164.404297"/>
      <use xlink:href="#DejaVuSans-20" x="225.927734"/>
      <use xlink:href="#DejaVuSans-5b" x="257.714844"/>
      <use xlink:href="#DejaVuSans-6d" x="296.728516"/>
      <use xlink:href="#DejaVuSans-73" x="394.140625"/>
      <use xlink:href="#DejaVuSans-5d" x="446.240234"/>
     </g>
    </g>
   </g>
   <g id="matplotlib.axis_2">
    <g id="ytick_1">
     <g id="line2d_6">
      <defs>
       <path id="m4705c9e67c" d="M 0 0 
L -3.5 0 
" style="stroke: #000000; stroke-width: 0.8"/>
      </defs>
      <g>
       <use xlink:href="#m4705c9e67c" x="63" y="381.628533" style="stroke: #000000; stroke-width: 0.8"/>
      </g>
     </g>
     <g id="text_7">
      <!-- −80 -->
      <g transform="translate(34.895313 385.427752)scale(0.1 -0.1)">
       <defs>
        <path id="DejaVuSans-2212" d="M 678 2272 
L 4684 2272 
L 4684 1741 
L 678 1741 
L 678 2272 
z
" transform="scale(0.015625)"/>
       </defs>
       <use xlink:href="#DejaVuSans-2212"/>
       <use xlink:href="#DejaVuSans-38" x="83.789062"/>
       <use xlink:href="#DejaVuSans-30" x="147.412109"/>
      </g>
     </g>
    </g>
    <g id="ytick_2">
     <g id="line2d_7">
      <g>
       <use xlink:href="#m4705c9e67c" x="63" y="329.041706" style="stroke: #000000; stroke-width: 0.8"/>
      </g>
     </g>
     <g id="text_8">
      <!-- −60 -->
      <g transform="translate(34.895313 332.840925)scale(0.1 -0.1)">
       <use xlink:href="#DejaVuSans-2212"/>
       <use xlink:href="#DejaVuSans-36" x="83.789062"/>
       <use xlink:href="#DejaVuSans-30" x="147.412109"/>
      </g>
     </g>
    </g>
    <g id="ytick_3">
     <g id="line2d_8">
      <g>
       <use xlink:href="#m4705c9e67c" x="63" y="276.454878" style="stroke: #000000; stroke-width: 0.8"/>
      </g>
     </g>
     <g id="text_9">
      <!-- −40 -->
      <g transform="translate(34.895313 280.254097)scale(0.1 -0.1)">
       <use xlink:href="#DejaVuSans-2212"/>
       <use xlink:href="#DejaVuSans-34" x="83.789062"/>
       <use xlink:href="#DejaVuSans-30" x="147.412109"/>
      </g>
     </g>
    </g>
    <g id="ytick_4">
     <g id="line2d_9">
      <g>
       <use xlink:href="#m4705c9e67c" x="63" y="223.86805" style="stroke: #000000; stroke-width: 0.8"/>
      </g>
     </g>
     <g id="text_10">
      <!-- −20 -->
      <g transform="translate(34.895313 227.667269)scale(0.1 -0.1)">
       <use xlink:href="#DejaVuSans-2212"/>
       <use xlink:href="#DejaVuSans-32" x="83.789062"/>
       <use xlink:href="#DejaVuSans-30" x="147.412109"/>
      </g>
     </g>
    </g>
    <g id="ytick_5">
     <g id="line2d_10">
      <g>
       <use xlink:href="#m4705c9e67c" x="63" y="171.281223" style="stroke: #000000; stroke-width: 0.8"/>
      </g>
     </g>
     <g id="text_11">
      <!-- 0 -->
      <g transform="translate(49.6375 175.080442)scale(0.1 -0.1)">
       <use xlink:href="#DejaVuSans-30"/>
      </g>
     </g>
    </g>
    <g id="ytick_6">
     <g id="line2d_11">
      <g>
       <use xlink:href="#m4705c9e67c" x="63" y="118.694395" style="stroke: #000000; stroke-width: 0.8"/>
      </g>
     </g>
     <g id="text_12">
      <!-- 20 -->
      <g transform="translate(43.275 122.493614)scale(0.1 -0.1)">
       <use xlink:href="#DejaVuSans-32"/>
       <use xlink:href="#DejaVuSans-30" x="63.623047"/>
      </g>
     </g>
    </g>
    <g id="ytick_7">
     <g id="line2d_12">
      <g>
       <use xlink:href="#m4705c9e67c" x="63" y="66.107568" style="stroke: #000000; stroke-width: 0.8"/>
      </g>
     </g>
     <g id="text_13">
      <!-- 40 -->
      <g transform="translate(43.275 69.906786)scale(0.1 -0.1)">
       <use xlink:href="#DejaVuSans-34"/>
       <use xlink:href="#DejaVuSans-30" x="63.623047"/>
      </g>
     </g>
    </g>
    <g id="text_14">
     <!-- voltage [mV] -->
     <g transform="translate(28.815625 250.624062)rotate(-90)scale(0.1 -0.1)">
      <defs>
       <path id="DejaVuSans-76" d="M 191 3500 
L 800 3500 
L 1894 563 
L 2988 3500 
L 3597 3500 
L 2284 0 
L 1503 0 
L 191 3500 
z
" transform="scale(0.015625)"/>
       <path id="DejaVuSans-6f" d="M 1959 3097 
Q 1497 3097 1228 2736 
Q 959 2375 959 1747 
Q 959 1119 1226 758 
Q 1494 397 1959 397 
Q 2419 397 2687 759 
Q 2956 1122 2956 1747 
Q 2956 2369 2687 2733 
Q 2419 3097 1959 3097 
z
M 1959 3584 
Q 2709 3584 3137 3096 
Q 3566 2609 3566 1747 
Q 3566 888 3137 398 
Q 2709 -91 1959 -91 
Q 1206 -91 779 398 
Q 353 888 353 1747 
Q 353 2609 779 3096 
Q 1206 3584 1959 3584 
z
" transform="scale(0.015625)"/>
       <path id="DejaVuSans-6c" d="M 603 4863 
L 1178 4863 
L 1178 0 
L 603 0 
L 603 4863 
z
" transform="scale(0.015625)"/>
       <path id="DejaVuSans-61" d="M 2194 1759 
Q 1497 1759 1228 1600 
Q 959 1441 959 1056 
Q 959 750 1161 570 
Q 1363 391 1709 391 
Q 2188 391 2477 730 
Q 2766 1069 2766 1631 
L 2766 1759 
L 2194 1759 
z
M 3341 1997 
L 3341 0 
L 2766 0 
L 2766 531 
Q 2569 213 2275 61 
Q 1981 -91 1556 -91 
Q 1019 -91 701 211 
Q 384 513 384 1019 
Q 384 1609 779 1909 
Q 1175 2209 1959 2209 
L 2766 2209 
L 2766 2266 
Q 2766 2663 2505 2880 
Q 2244 3097 1772 3097 
Q 1472 3097 1187 3025 
Q 903 2953 641 2809 
L 641 3341 
Q 956 3463 1253 3523 
Q 1550 3584 1831 3584 
Q 2591 3584 2966 3190 
Q 3341 2797 3341 1997 
z
" transform="scale(0.015625)"/>
       <path id="DejaVuSans-67" d="M 2906 1791 
Q 2906 2416 2648 2759 
Q 2391 3103 1925 3103 
Q 1463 3103 1205 2759 
Q 947 2416 947 1791 
Q 947 1169 1205 825 
Q 1463 481 1925 481 
Q 2391 481 2648 825 
Q 2906 1169 2906 1791 
z
M 3481 434 
Q 3481 -459 3084 -895 
Q 2688 -1331 1869 -1331 
Q 1566 -1331 1297 -1286 
Q 1028 -1241 775 -1147 
L 775 -588 
Q 1028 -725 1275 -790 
Q 1522 -856 1778 -856 
Q 2344 -856 2625 -561 
Q 2906 -266 2906 331 
L 2906 616 
Q 2728 306 2450 153 
Q 2172 0 1784 0 
Q 1141 0 747 490 
Q 353 981 353 1791 
Q 353 2603 747 3093 
Q 1141 3584 1784 3584 
Q 2172 3584 2450 3431 
Q 2728 3278 2906 2969 
L 2906 3500 
L 3481 3500 
L 3481 434 
z
" transform="scale(0.015625)"/>
       <path id="DejaVuSans-56" d="M 1831 0 
L 50 4666 
L 709 4666 
L 2188 738 
L 3669 4666 
L 4325 4666 
L 2547 0 
L 1831 0 
z
" transform="scale(0.015625)"/>
      </defs>
      <use xlink:href="#DejaVuSans-76"/>
      <use xlink:href="#DejaVuSans-6f" x="59.179688"/>
      <use xlink:href="#DejaVuSans-6c" x="120.361328"/>
      <use xlink:href="#DejaVuSans-74" x="148.144531"/>
      <use xlink:href="#DejaVuSans-61" x="187.353516"/>
      <use xlink:href="#DejaVuSans-67" x="248.632812"/>
      <use xlink:href="#DejaVuSans-65" x="312.109375"/>
      <use xlink:href="#DejaVuSans-20" x="373.632812"/>
      <use xlink:href="#DejaVuSans-5b" x="405.419922"/>
      <use xlink:href="#DejaVuSans-6d" x="444.433594"/>
      <use xlink:href="#DejaVuSans-56" x="541.845703"/>
      <use xlink:href="#DejaVuSans-5d" x="610.253906"/>
     </g>
    </g>
   </g>
   <g id="line2d_13">
    <path d="M 80.754545 342.188413 
L 81.952977 342.05195 
L 83.772818 342.109007 
L 85.965505 342.127938 
L 151.772727 342.119261 
L 152.314241 297.520898 
L 152.420768 248.803672 
L 152.562805 66.96 
L 152.678209 92.220083 
L 153.565936 368.720571 
L 153.610323 368.619867 
L 153.8145 367.238674 
L 154.293873 362.476937 
L 154.959668 353.340238 
L 157.42755 314.383391 
L 157.613973 303.237349 
L 157.738255 281.234758 
L 157.835905 218.57282 
L 157.969064 91.362129 
L 158.031205 104.536706 
L 158.883423 368.295406 
L 158.945564 368.111615 
L 159.203005 366.129092 
L 159.717886 360.446559 
L 160.534595 348.499358 
L 161.8218 330.338497 
L 162.514227 319.954439 
L 162.771668 312.421113 
L 162.940336 300.409493 
L 163.064618 272.395964 
L 163.162268 187.854303 
L 163.268795 92.283976 
L 163.322059 101.813235 
L 163.863573 297.242188 
L 164.147645 368.118452 
L 164.183155 368.263591 
L 164.245295 368.081904 
L 164.493859 366.175105 
L 165.008741 360.512293 
L 165.834327 348.441775 
L 167.112655 330.41317 
L 167.813959 319.918943 
L 168.0714 312.375888 
L 168.240068 300.324828 
L 168.36435 272.149332 
L 168.462 187.107439 
L 168.568527 92.361015 
L 168.621791 102.035677 
L 169.172182 301.200662 
L 169.4385 368.032472 
L 169.482886 368.261488 
L 169.545027 368.075856 
L 169.802468 366.085182 
L 170.31735 360.38477 
L 171.151814 348.152285 
L 172.430141 330.169956 
L 173.113691 319.900538 
L 173.371132 312.339341 
L 173.5398 300.228857 
L 173.664082 271.810672 
L 173.761732 185.954184 
L 173.868259 92.377843 
L 173.921523 102.272055 
L 174.480791 305.27877 
L 174.729355 367.922829 
L 174.782618 368.261488 
L 174.844759 368.071649 
L 175.1022 366.07782 
L 175.617082 360.373989 
L 176.451545 348.139401 
L 177.729873 330.159176 
L 178.413423 319.88371 
L 178.670864 312.303319 
L 178.839532 300.131571 
L 178.963814 271.463074 
L 179.061464 184.767167 
L 179.167991 92.395197 
L 179.221255 102.511062 
L 179.7894 309.460212 
L 180.029086 367.935186 
L 180.08235 368.261751 
L 180.144491 368.067179 
L 180.401932 366.070458 
L 180.916814 360.363472 
L 181.751277 348.127043 
L 183.029605 330.148658 
L 183.713155 319.866619 
L 183.970595 312.267034 
L 184.139264 300.033234 
L 184.263545 271.107324 
L 184.361195 183.559274 
L 184.467723 92.419124 
L 184.520986 102.75375 
L 185.098009 313.73368 
L 185.328818 367.947281 
L 185.382082 368.261751 
L 185.444223 368.062972 
L 185.701664 366.062832 
L 186.216545 360.352955 
L 187.051009 348.114422 
L 188.329336 330.138141 
L 189.012886 319.849791 
L 189.270327 312.230486 
L 189.438995 299.933319 
L 189.563277 270.746315 
L 189.660927 182.346569 
L 189.767455 92.448835 
L 189.820718 102.998805 
L 190.406618 318.079456 
L 190.619673 367.813185 
L 190.681814 368.261488 
L 190.743955 368.058503 
L 191.010273 365.973961 
L 191.525155 360.227272 
L 192.368495 347.82835 
L 193.637945 330.011933 
L 194.312618 319.832438 
L 194.570059 312.193938 
L 194.738727 299.832878 
L 194.863009 270.381888 
L 194.969536 167.746994 
L 195.058309 92.435426 
L 195.12045 103.246489 
L 195.715227 322.471508 
L 195.919405 367.828698 
L 195.981545 368.261488 
L 196.043686 368.054033 
L 196.310005 365.966336 
L 196.833764 360.101064 
L 197.703736 347.269615 
L 198.955432 329.770296 
L 199.61235 319.815347 
L 199.869791 312.156864 
L 200.038459 299.731386 
L 200.162741 270.010099 
L 200.269268 166.481465 
L 200.358041 92.405977 
L 200.420182 103.49838 
L 201.023836 326.872762 
L 201.219136 367.843422 
L 201.281277 368.260962 
L 201.343418 368.049563 
L 201.609736 365.958711 
L 202.133495 360.090021 
L 202.994591 347.393194 
L 204.255164 329.759516 
L 204.912082 319.79773 
L 205.169523 312.119265 
L 205.338191 299.628315 
L 205.462473 269.630686 
L 205.569 165.207444 
L 205.657773 92.383628 
L 205.719914 103.752111 
L 206.332445 331.235102 
L 206.518868 367.858147 
L 206.581009 368.260699 
L 206.634273 368.091632 
L 206.873959 366.273443 
L 207.388841 360.652437 
L 208.187795 349.021282 
L 209.510509 330.32535 
L 210.202936 319.964956 
L 210.460377 312.475015 
L 210.629045 300.593284 
L 210.753327 273.104045 
L 210.850977 190.419331 
L 210.957505 92.368378 
L 211.019645 104.006894 
L 211.641055 335.504364 
L 211.827477 368.004075 
L 211.880741 368.260173 
L 211.934005 368.087425 
L 212.182568 366.186149 
L 212.69745 360.528069 
L 213.514159 348.597695 
L 214.810241 330.31457 
L 215.502668 319.947866 
L 215.760109 312.438993 
L 215.928777 300.496787 
L 216.053059 272.764072 
L 216.150709 189.238231 
L 216.257236 92.362067 
L 216.319377 104.261152 
L 216.949664 339.616917 
L 217.127209 368.014593 
L 217.171595 368.260699 
L 217.233736 368.083218 
L 217.4823 366.178786 
L 217.997182 360.517551 
L 218.822768 348.448086 
L 220.101095 330.418955 
L 220.8024 319.930775 
L 221.059841 312.403234 
L 221.228509 300.400553 
L 221.352791 272.422783 
L 221.450441 188.057709 
L 221.556968 92.362593 
L 221.610232 101.850308 
L 222.151745 297.297667 
L 222.426941 368.024584 
L 222.471327 368.260962 
L 222.533468 368.079011 
L 222.782032 366.171424 
L 223.296914 360.507034 
L 224.1225 348.435202 
L 225.418582 330.178107 
L 226.111009 319.728316 
L 226.36845 311.969655 
L 226.537118 299.214194 
L 226.652523 272.078865 
L 226.750173 186.872481 
L 226.8567 92.36864 
L 226.909964 102.088264 
L 227.460355 301.276124 
L 227.726673 368.034313 
L 227.771059 368.261488 
L 227.8332 368.074804 
L 228.090641 366.083341 
L 228.605523 360.38214 
L 229.439986 348.14913 
L 230.718314 330.167327 
L 231.401864 319.896594 
L 231.659305 312.330927 
L 231.827973 300.206771 
L 231.952255 271.732581 
L 232.049905 185.687042 
L 232.156432 92.381524 
L 232.209695 102.325956 
L 232.768964 305.357387 
L 233.017527 367.925721 
L 233.070791 368.261488 
L 233.132932 368.070598 
L 233.390373 366.075979 
L 233.905255 360.371623 
L 234.739718 348.136509 
L 236.018045 330.156809 
L 236.701595 319.879766 
L 236.959036 312.295168 
L 237.127705 300.109485 
L 237.251986 271.383142 
L 237.349636 184.49482 
L 237.456164 92.39993 
L 237.509427 102.566015 
L 238.077573 309.541195 
L 238.317259 367.937816 
L 238.370523 368.261751 
L 238.432664 368.066391 
L 238.690105 366.068617 
L 239.204986 360.361106 
L 240.03945 348.124151 
L 241.317777 330.146292 
L 242.001327 319.862938 
L 242.258768 312.258883 
L 242.427436 300.010622 
L 242.551718 271.025551 
L 242.649368 183.284114 
L 242.755895 92.425434 
L 242.809159 102.809229 
L 243.386182 313.816504 
L 243.616991 367.949911 
L 243.670255 368.261751 
L 243.732395 368.061921 
L 243.989836 366.061255 
L 244.504718 360.350588 
L 245.348059 347.974804 
L 246.617509 330.135512 
L 247.301059 319.845847 
L 247.5585 312.222335 
L 247.727168 299.910444 
L 247.85145 270.664017 
L 247.9491 182.070226 
L 248.055627 92.456723 
L 248.108891 103.05481 
L 248.694791 318.16412 
L 248.907845 367.816866 
L 248.969986 368.261488 
L 249.032127 368.057714 
L 249.298445 365.972383 
L 249.822205 360.109478 
L 250.692177 347.279606 
L 251.943873 329.77871 
L 252.600791 319.828494 
L 252.858232 312.185524 
L 253.0269 299.80974 
L 253.151182 270.297749 
L 253.257709 167.45887 
L 253.346482 92.428064 
L 253.408623 103.303808 
L 254.0034 322.55775 
L 254.207577 367.832116 
L 254.269718 368.261225 
L 254.331859 368.053244 
L 254.598177 365.964758 
L 255.121936 360.098434 
L 255.983032 347.403185 
L 257.22585 329.998786 
L 257.900523 319.811403 
L 258.157964 312.14845 
L 258.326632 299.707985 
L 258.450914 269.92412 
L 258.557441 166.190739 
L 258.646214 92.400193 
L 258.708355 103.556488 
L 259.312009 326.959004 
L 259.507309 367.846841 
L 259.56945 368.260962 
L 259.631591 368.048511 
L 259.897909 365.95687 
L 260.421668 360.087654 
L 261.291641 347.254102 
L 262.525582 329.988006 
L 263.200255 319.793786 
L 263.457695 312.110851 
L 263.626364 299.604651 
L 263.750645 269.543391 
L 263.857173 164.916192 
L 263.945945 92.379421 
L 264.008086 103.810219 
L 264.620618 331.32003 
L 264.807041 367.861565 
L 264.869182 368.260436 
L 264.922445 368.090843 
L 265.171009 366.191933 
L 265.685891 360.536483 
L 266.511477 348.470698 
L 267.807559 330.207819 
L 268.499986 319.776433 
L 268.757427 312.073251 
L 268.926095 299.501318 
L 269.050377 269.162663 
L 269.156905 163.651137 
L 269.245677 92.366274 
L 269.298941 101.430928 
L 269.8227 289.724901 
L 270.133405 368.173142 
L 270.168914 368.260173 
L 270.222177 368.086637 
L 270.470741 366.184571 
L 270.985623 360.525702 
L 271.802332 348.594803 
L 273.098414 330.312204 
L 273.790841 319.943922 
L 274.048282 312.430842 
L 274.21695 300.474963 
L 274.341232 272.686243 
L 274.438882 188.96804 
L 274.545409 92.361804 
L 274.598673 101.667306 
L 275.131309 293.498269 
L 275.424259 368.111089 
L 275.459768 368.260699 
L 275.521909 368.08243 
L 275.770473 366.177209 
L 276.285355 360.515185 
L 277.110941 348.445193 
L 278.389268 330.416588 
L 279.090573 319.926831 
L 279.348014 312.39482 
L 279.516682 300.378467 
L 279.640964 272.344429 
L 279.738614 187.787413 
L 279.845141 92.363119 
L 279.898405 101.904736 
L 280.439918 297.373655 
L 280.715114 368.026688 
L 280.7595 368.261225 
L 280.821641 368.078223 
L 281.079082 366.089126 
L 281.593964 360.390291 
L 282.428427 348.158858 
L 283.706755 330.175478 
L 284.390305 319.90974 
L 284.647745 312.358798 
L 284.816414 300.281707 
L 284.940695 271.999985 
L 285.038345 186.60208 
L 285.144873 92.371007 
L 285.198136 102.142428 
L 285.748527 301.353163 
L 286.014845 368.036416 
L 286.059232 368.261488 
L 286.121373 368.073753 
L 286.378814 366.081764 
L 286.893695 360.379774 
L 287.728159 348.146237 
L 289.006486 330.16496 
L 289.690036 319.892912 
L 289.947477 312.322776 
L 290.116145 300.184684 
L 290.240427 271.653175 
L 290.338077 185.415747 
L 290.444605 92.385205 
L 290.497868 102.380384 
L 291.057136 305.436794 
L 291.3057 367.928613 
L 291.358964 368.261751 
L 291.421105 368.069546 
L 291.678545 366.074402 
L 292.193427 360.369257 
L 293.027891 348.133616 
L 294.315095 330.039015 
L 294.989768 319.875822 
L 295.247209 312.286754 
L 295.415877 300.087136 
L 295.540159 271.302158 
L 295.637809 184.219607 
L 295.744336 92.405188 
L 295.7976 102.621231 
L 296.365745 309.622705 
L 296.605432 367.940708 
L 296.658695 368.261751 
L 296.720836 368.065339 
L 296.978277 366.067039 
L 297.493159 360.358739 
L 298.327623 348.121259 
L 299.60595 330.143926 
L 300.2895 319.858994 
L 300.546941 312.250469 
L 300.715609 299.987746 
L 300.839891 270.943516 
L 300.937541 183.008559 
L 301.044068 92.432008 
L 301.097332 102.864708 
L 301.674355 313.899329 
L 301.905164 367.95254 
L 301.958427 368.261751 
L 302.020568 368.061132 
L 302.286886 365.978168 
L 302.810645 360.117629 
L 303.671741 347.425798 
L 304.914559 330.01798 
L 305.589232 319.841903 
L 305.846673 312.213921 
L 306.015341 299.887831 
L 306.139623 270.581455 
L 306.24615 168.4322 
L 306.334923 92.454094 
L 306.397064 103.111078 
L 306.982964 318.248785 
L 307.196018 367.820284 
L 307.258159 368.261488 
L 307.3203 368.056662 
L 307.586618 365.970543 
L 308.110377 360.106848 
L 308.971473 347.413177 
L 310.214291 330.0072 
L 310.888964 319.824812 
L 311.146405 312.17711 
L 311.315073 299.786865 
L 311.439355 270.213348 
L 311.545882 167.171773 
L 311.634655 92.421227 
L 311.696795 103.360865 
L 312.291573 322.643466 
L 312.49575 367.835534 
L 312.557891 368.261225 
L 312.620032 368.052192 
L 312.88635 365.962917 
L 313.410109 360.096068 
L 314.280082 347.26383 
L 315.531777 329.765301 
L 316.188695 319.807196 
L 316.446136 312.139773 
L 316.614805 299.684583 
L 316.739086 269.838403 
L 316.845614 165.901117 
L 316.934386 92.394934 
L 316.996527 103.614071 
L 317.600182 327.044984 
L 317.795482 367.850259 
L 317.857623 368.260962 
L 317.910886 368.093999 
L 318.150573 366.277387 
L 318.665455 360.658221 
L 319.464409 349.028118 
L 320.787123 330.331398 
L 321.488427 319.789842 
L 321.745868 312.102174 
L 321.914536 299.580987 
L 322.038818 269.45636 
L 322.145345 164.626333 
L 322.234118 92.37574 
L 322.296259 103.868328 
L 322.908791 331.404695 
L 323.095214 367.864983 
L 323.157355 368.260436 
L 323.210618 368.089792 
L 323.459182 366.190355 
L 323.974064 360.533853 
L 324.790773 348.604532 
L 326.095732 330.205189 
L 326.779282 319.957068 
L 327.036723 312.458713 
L 327.205391 300.549374 
L 327.329673 272.949177 
L 327.427323 189.880842 
L 327.53385 92.364434 
L 327.595991 104.122848 
L 328.2174 335.667909 
L 328.403823 368.008808 
L 328.457086 368.25991 
L 328.51035 368.085585 
L 328.758914 366.18273 
L 329.273795 360.523336 
L 329.318182 359.947247 
L 329.335936 360.850163 
L 329.531236 364.854124 
L 329.620009 365.042648 
L 329.664395 364.985065 
L 329.815309 364.37611 
L 330.214786 361.549305 
L 332.176664 346.740591 
L 332.869091 343.50729 
L 333.428359 341.846072 
L 333.889977 341.100391 
L 334.262823 340.87269 
L 334.609036 340.909501 
L 335.061777 341.199517 
L 336.553159 342.293323 
L 337.156814 342.390346 
L 338.097805 342.279914 
L 339.580309 342.084817 
L 342.101455 342.121102 
L 345.714505 342.117158 
L 435.845455 342.119261 
L 435.845455 342.119261 
" clip-path="url(#p8b79ee4756)" style="fill: none; stroke: #1f77b4; stroke-width: 1.5; stroke-linecap: square"/>
   </g>
   <g id="line2d_14">
    <path d="M 80.754545 342.188413 
L 81.118514 332.89596 
L 81.677782 319.642863 
L 81.855327 308.266636 
L 81.970732 285.007429 
L 82.059505 209.721623 
L 82.166032 69.897308 
L 82.23705 80.608415 
L 82.565509 194.632937 
L 83.160286 369.36 
L 83.178041 369.33421 
L 83.3112 368.659537 
L 83.790573 364.953561 
L 84.509632 357.397934 
L 85.725818 344.858061 
L 86.436 339.826517 
L 87.057409 336.860294 
L 87.581168 335.346527 
L 87.971768 334.794871 
L 88.29135 334.685047 
L 88.628686 334.820561 
L 89.3655 335.456708 
L 89.960277 335.800528 
L 90.519545 335.862159 
L 91.567064 335.684117 
L 92.712232 335.602045 
L 103.187414 335.653367 
L 151.772727 335.653452 
L 152.323118 291.602133 
L 152.420768 234.581492 
L 152.553927 74.420574 
L 152.6427 92.915044 
L 153.317373 338.369505 
L 153.486041 366.980636 
L 153.512673 367.05146 
L 153.565936 366.81292 
L 153.867764 363.900791 
L 154.471418 355.946433 
L 156.104836 333.432978 
L 157.454182 317.191641 
L 157.676114 310.060991 
L 157.827027 296.962755 
L 157.933555 266.284787 
L 158.040082 144.896937 
L 158.119977 92.707288 
L 158.173241 102.432137 
L 158.688123 282.16999 
L 159.016582 366.680865 
L 159.025459 366.666901 
L 159.123109 366.014531 
L 159.566973 361.068822 
L 160.401436 348.888723 
L 161.422323 335.134531 
L 163.046864 315.159061 
L 163.242164 307.074069 
L 163.375323 291.583992 
L 163.48185 246.507972 
L 163.632764 93.502977 
L 163.739291 118.340125 
L 164.529368 366.652298 
L 164.547123 366.622563 
L 164.662527 365.774821 
L 165.1419 360.262478 
L 166.153909 345.332137 
L 167.068268 333.636134 
L 168.506386 316.539024 
L 168.719441 309.43675 
L 168.870355 295.635709 
L 168.976882 262.233127 
L 169.092286 124.288542 
L 169.154427 93.551079 
L 169.216568 105.222133 
L 169.802468 315.407305 
L 170.0244 366.577485 
L 170.051032 366.648489 
L 170.104295 366.407277 
L 170.397245 363.50126 
L 171.027532 355.025677 
L 172.518914 334.382431 
L 174.054682 315.829317 
L 174.258859 308.223037 
L 174.400895 293.431713 
L 174.507423 253.922906 
L 174.667214 93.601168 
L 174.782618 121.250514 
L 175.563818 366.649686 
L 175.608205 366.496496 
L 175.839014 364.342267 
L 176.424914 356.79959 
L 178.191491 332.665587 
L 179.514205 317.120091 
L 179.736136 310.355306 
L 179.88705 298.352801 
L 180.002455 267.503524 
L 180.108982 150.088037 
L 180.188877 93.548946 
L 180.242141 102.493586 
L 180.703759 263.844743 
L 181.085482 366.64882 
L 181.120991 366.524631 
L 181.334045 364.583488 
L 181.902191 357.382911 
L 183.79305 331.761534 
L 185.000359 317.739248 
L 185.231168 311.361785 
L 185.390959 300.086229 
L 185.506364 273.838574 
L 185.604014 185.541997 
L 185.701664 93.631232 
L 185.763805 103.612684 
L 186.296441 290.439849 
L 186.598268 366.64942 
L 186.642655 366.501135 
L 186.873464 364.350601 
L 187.459364 356.810838 
L 189.234818 332.577524 
L 190.548655 317.136113 
L 190.770586 310.392253 
L 190.9215 298.457901 
L 191.036905 267.90099 
L 191.143432 151.298929 
L 191.223327 93.547371 
L 191.285468 104.767867 
L 191.853614 306.755424 
L 192.0933 366.565701 
L 192.119932 366.649226 
L 192.173195 366.417822 
L 192.457268 363.619477 
L 193.078677 355.313351 
L 194.605568 334.199489 
L 196.114705 316.077189 
L 196.318882 308.822666 
L 196.460918 295.233604 
L 196.567445 260.758659 
L 196.744991 93.618122 
L 196.87815 130.455661 
L 197.614964 366.593505 
L 197.632718 366.649032 
L 197.685982 366.450318 
L 197.9523 363.872951 
L 198.555955 355.911494 
L 200.171618 333.658238 
L 201.618614 316.391927 
L 201.831668 309.088717 
L 201.982582 294.558864 
L 202.089109 258.241847 
L 202.257777 93.551413 
L 202.382059 125.370622 
L 203.145505 366.643026 
L 203.163259 366.638701 
L 203.181014 366.578161 
L 203.340805 365.239674 
L 203.873441 358.78647 
L 206.110514 329.184154 
L 207.007118 318.865124 
L 207.264559 312.793718 
L 207.433227 303.08145 
L 207.557509 280.991347 
L 207.655159 212.909497 
L 207.779441 93.592752 
L 207.841582 105.724957 
L 208.436359 320.285904 
L 208.640536 366.515706 
L 208.667168 366.648475 
L 208.729309 366.395129 
L 209.031136 363.380021 
L 209.661423 354.867163 
L 211.126173 334.564241 
L 212.688573 315.569934 
L 212.883873 308.122489 
L 213.025909 293.122339 
L 213.132436 252.719302 
L 213.292227 93.561156 
L 213.407632 121.856093 
L 214.188832 366.649703 
L 214.233218 366.486148 
L 214.472905 364.227851 
L 215.058805 356.645622 
L 216.79875 332.840623 
L 218.139218 317.085362 
L 218.36115 310.275286 
L 218.512064 298.124499 
L 218.627468 266.634717 
L 218.733995 147.506772 
L 218.813891 93.572569 
L 218.867155 102.955667 
L 219.364282 276.488391 
L 219.701618 366.647793 
L 219.72825 366.602073 
L 219.870286 365.470254 
L 220.385168 359.353429 
L 222.799786 327.792028 
L 223.554355 318.957937 
L 223.811795 312.9909 
L 223.980464 303.602881 
L 224.104745 282.76194 
L 224.202395 219.885169 
L 224.326677 93.576424 
L 224.397695 106.697239 
L 225.019105 334.084846 
L 225.19665 366.546236 
L 225.223282 366.649768 
L 225.276545 366.434 
L 225.551741 363.746312 
L 226.164273 355.612495 
L 227.73555 333.92757 
L 229.209177 316.336179 
L 229.422232 308.953839 
L 229.564268 295.616983 
L 229.670795 262.169218 
L 229.7862 124.166214 
L 229.848341 93.558246 
L 229.910482 105.258928 
L 230.496382 315.464748 
L 230.718314 366.578153 
L 230.744945 366.648189 
L 230.798209 366.406216 
L 231.091159 363.499608 
L 231.721445 355.023512 
L 233.212827 334.380815 
L 234.748595 315.826423 
L 234.952773 308.216175 
L 235.094809 293.410949 
L 235.201336 253.842884 
L 235.361127 93.597953 
L 235.476532 121.291159 
L 236.257732 366.649697 
L 236.302118 366.495797 
L 236.532927 364.341029 
L 237.118827 356.79792 
L 238.885405 332.66434 
L 240.208118 317.117757 
L 240.43005 310.349943 
L 240.580964 298.337529 
L 240.696368 267.445714 
L 240.802895 149.914161 
L 240.882791 93.549802 
L 240.936055 102.52433 
L 241.397673 263.88212 
L 241.779395 366.648752 
L 241.814905 366.523997 
L 242.027959 364.582292 
L 242.596105 357.381287 
L 244.486964 331.76033 
L 245.694273 317.737124 
L 245.925082 311.357069 
L 246.084873 300.072873 
L 246.200277 273.791507 
L 246.297927 185.369886 
L 246.395577 93.626545 
L 246.457718 103.644298 
L 246.990355 290.483447 
L 247.292182 366.649464 
L 247.336568 366.500463 
L 247.567377 364.34939 
L 248.153277 356.809203 
L 249.928732 332.576303 
L 251.242568 317.133795 
L 251.4645 310.386916 
L 251.615414 298.442772 
L 251.730818 267.843981 
L 251.837345 151.124199 
L 251.917241 93.547217 
L 251.979382 104.80064 
L 252.547527 306.8048 
L 252.787214 366.566567 
L 252.813845 366.649173 
L 252.867109 366.417049 
L 253.151182 363.618205 
L 253.772591 355.311676 
L 255.299482 334.198222 
L 256.808618 316.074555 
L 257.012795 308.816377 
L 257.154832 295.21509 
L 257.261359 260.690216 
L 257.438905 93.622206 
L 257.572064 130.497878 
L 258.308877 366.594183 
L 258.326632 366.649097 
L 258.379895 366.449576 
L 258.646214 363.871694 
L 259.249868 355.909827 
L 260.865532 333.656984 
L 262.312527 316.389371 
L 262.525582 309.082542 
L 262.676495 294.539406 
L 262.783023 258.168393 
L 262.951691 93.55056 
L 263.075973 125.412637 
L 263.839418 366.643238 
L 263.857173 366.638464 
L 263.874927 366.577634 
L 264.034718 365.238525 
L 264.567355 358.784872 
L 266.804427 329.182978 
L 267.701032 318.863226 
L 267.958473 312.789661 
L 268.127141 303.07062 
L 268.251423 280.954117 
L 268.349073 212.762928 
L 268.473355 93.596103 
L 268.535495 105.758917 
L 269.130273 320.338881 
L 269.33445 366.516862 
L 269.361082 366.64856 
L 269.423223 366.394319 
L 269.72505 363.378707 
L 270.355336 354.86545 
L 271.820086 334.562939 
L 273.382486 315.567079 
L 273.577786 308.115622 
L 273.719823 293.101029 
L 273.82635 252.6356 
L 273.986141 93.559309 
L 274.101545 121.897602 
L 274.882745 366.649689 
L 274.927132 366.485438 
L 275.166818 364.226597 
L 275.752718 356.64394 
L 277.492664 332.839365 
L 278.833132 317.082987 
L 279.055064 310.269804 
L 279.205977 298.108834 
L 279.321382 266.574964 
L 279.427909 147.332593 
L 279.507805 93.575143 
L 279.561068 102.987354 
L 280.058195 276.528825 
L 280.395532 366.647906 
L 280.422164 366.601623 
L 280.5642 365.469134 
L 281.079082 359.351856 
L 283.4937 327.790854 
L 284.248268 318.956057 
L 284.505709 312.986929 
L 284.674377 303.592487 
L 284.798659 282.727247 
L 284.896309 219.748922 
L 285.020591 93.573863 
L 285.091609 106.731994 
L 285.713018 334.136444 
L 285.890564 366.547227 
L 285.917195 366.649766 
L 285.970459 366.433223 
L 286.245655 363.745017 
L 286.858186 355.610785 
L 288.429464 333.926282 
L 289.903091 316.333574 
L 290.116145 308.947536 
L 290.258182 295.598641 
L 290.364709 262.101991 
L 290.480114 124.027783 
L 290.542255 93.559976 
L 290.604395 105.292865 
L 291.190295 315.517743 
L 291.412227 366.578958 
L 291.438859 366.648089 
L 291.492123 366.405406 
L 291.785073 363.498286 
L 292.415359 355.02178 
L 293.906741 334.379504 
L 295.442509 315.823642 
L 295.646686 308.209347 
L 295.788723 293.389999 
L 295.89525 253.761712 
L 296.055041 93.594377 
L 296.170445 121.331989 
L 296.951645 366.649715 
L 296.996032 366.495109 
L 297.226841 364.339806 
L 297.812741 356.796269 
L 299.579318 332.663105 
L 300.902032 317.115409 
L 301.123964 310.344528 
L 301.274877 298.322083 
L 301.390282 267.387197 
L 301.496809 149.738593 
L 301.576705 93.550751 
L 301.629968 102.555411 
L 302.091586 263.919891 
L 302.473309 366.648682 
L 302.508818 366.523356 
L 302.721873 364.581082 
L 303.290018 357.379644 
L 305.172 331.853814 
L 306.388186 317.734971 
L 306.618995 311.352287 
L 306.778786 300.059323 
L 306.894191 273.743749 
L 306.991841 185.195708 
L 307.089491 93.621941 
L 307.151632 103.676293 
L 307.684268 290.527571 
L 307.986095 366.649508 
L 308.030482 366.499782 
L 308.261291 364.348165 
L 308.847191 356.807549 
L 310.622645 332.57507 
L 311.936482 317.131447 
L 312.158414 310.381507 
L 312.309327 298.427437 
L 312.424732 267.786091 
L 312.531259 150.947254 
L 312.611155 93.547224 
L 312.673295 104.833851 
L 313.250318 310.785548 
L 313.481127 366.56744 
L 313.507759 366.649117 
L 313.561023 366.416266 
L 313.845095 363.616915 
L 314.466505 355.30998 
L 315.993395 334.196939 
L 317.502532 316.071888 
L 317.706709 308.810009 
L 317.848745 295.196345 
L 317.955273 260.620914 
L 318.132818 93.626441 
L 318.265977 130.540499 
L 319.002791 366.594865 
L 319.020545 366.649163 
L 319.073809 366.448827 
L 319.340127 363.870427 
L 319.943782 355.908146 
L 321.559445 333.65572 
L 323.006441 316.386789 
L 323.219495 309.076303 
L 323.370409 294.519742 
L 323.476936 258.094152 
L 323.645605 93.549815 
L 323.769886 125.455141 
L 324.533332 366.643451 
L 324.551086 366.638221 
L 324.568841 366.577099 
L 324.737509 365.148232 
L 325.279023 358.535658 
L 327.445077 329.730319 
L 328.403823 318.712841 
L 328.661264 312.464261 
L 328.829932 302.187922 
L 328.954214 277.846354 
L 329.051864 200.629451 
L 329.167268 93.599622 
L 329.220532 103.237427 
L 329.708782 275.351135 
L 330.063873 368.965331 
L 330.07275 368.961561 
L 330.152645 368.641989 
L 330.534368 365.827808 
L 331.182409 359.314562 
L 332.647159 344.232764 
L 333.348464 339.472462 
L 333.960995 336.699738 
L 334.467 335.328238 
L 334.8576 334.824269 
L 335.177182 334.738177 
L 335.532273 334.892987 
L 337.10355 335.850862 
L 337.7871 335.803674 
L 339.553677 335.606947 
L 353.588645 335.653436 
L 435.845455 335.653452 
L 435.845455 335.653452 
" clip-path="url(#p8b79ee4756)" style="fill: none; stroke: #ff0000; stroke-width: 1.5; stroke-linecap: square"/>
   </g>
   <g id="patch_3">
    <path d="M 63 384.48 
L 63 51.84 
" style="fill: none; stroke: #000000; stroke-width: 0.8; stroke-linejoin: miter; stroke-linecap: square"/>
   </g>
   <g id="patch_4">
    <path d="M 453.6 384.48 
L 453.6 51.84 
" style="fill: none; stroke: #000000; stroke-width: 0.8; stroke-linejoin: miter; stroke-linecap: square"/>
   </g>
   <g id="patch_5">
    <path d="M 63 384.48 
L 453.6 384.48 
" style="fill: none; stroke: #000000; stroke-width: 0.8; stroke-linejoin: miter; stroke-linecap: square"/>
   </g>
   <g id="patch_6">
    <path d="M 63 51.84 
L 453.6 51.84 
" style="fill: none; stroke: #000000; stroke-width: 0.8; stroke-linejoin: miter; stroke-linecap: square"/>
   </g>
   <g id="legend_1">
    <g id="patch_7">
     <path d="M 383.460938 89.19625 
L 446.6 89.19625 
Q 448.6 89.19625 448.6 87.19625 
L 448.6 58.84 
Q 448.6 56.84 446.6 56.84 
L 383.460938 56.84 
Q 381.460938 56.84 381.460938 58.84 
L 381.460938 87.19625 
Q 381.460938 89.19625 383.460938 89.19625 
z
" style="fill: #ffffff; opacity: 0.8; stroke: #cccccc; stroke-linejoin: miter"/>
    </g>
    <g id="line2d_15">
     <path d="M 385.460938 64.938437 
L 395.460938 64.938437 
L 405.460938 64.938437 
" style="fill: none; stroke: #1f77b4; stroke-width: 1.5; stroke-linecap: square"/>
    </g>
    <g id="text_15">
     <!-- target -->
     <g transform="translate(413.460938 68.438437)scale(0.1 -0.1)">
      <defs>
       <path id="DejaVuSans-72" d="M 2631 2963 
Q 2534 3019 2420 3045 
Q 2306 3072 2169 3072 
Q 1681 3072 1420 2755 
Q 1159 2438 1159 1844 
L 1159 0 
L 581 0 
L 581 3500 
L 1159 3500 
L 1159 2956 
Q 1341 3275 1631 3429 
Q 1922 3584 2338 3584 
Q 2397 3584 2469 3576 
Q 2541 3569 2628 3553 
L 2631 2963 
z
" transform="scale(0.015625)"/>
      </defs>
      <use xlink:href="#DejaVuSans-74"/>
      <use xlink:href="#DejaVuSans-61" x="39.208984"/>
      <use xlink:href="#DejaVuSans-72" x="100.488281"/>
      <use xlink:href="#DejaVuSans-67" x="139.851562"/>
      <use xlink:href="#DejaVuSans-65" x="203.328125"/>
      <use xlink:href="#DejaVuSans-74" x="264.851562"/>
     </g>
    </g>
    <g id="line2d_16">
     <path d="M 385.460938 79.616562 
L 395.460938 79.616562 
L 405.460938 79.616562 
" style="fill: none; stroke: #ff0000; stroke-width: 1.5; stroke-linecap: square"/>
    </g>
    <g id="text_16">
     <!-- model -->
     <g transform="translate(413.460938 83.116562)scale(0.1 -0.1)">
      <defs>
       <path id="DejaVuSans-64" d="M 2906 2969 
L 2906 4863 
L 3481 4863 
L 3481 0 
L 2906 0 
L 2906 525 
Q 2725 213 2448 61 
Q 2172 -91 1784 -91 
Q 1150 -91 751 415 
Q 353 922 353 1747 
Q 353 2572 751 3078 
Q 1150 3584 1784 3584 
Q 2172 3584 2448 3432 
Q 2725 3281 2906 2969 
z
M 947 1747 
Q 947 1113 1208 752 
Q 1469 391 1925 391 
Q 2381 391 2643 752 
Q 2906 1113 2906 1747 
Q 2906 2381 2643 2742 
Q 2381 3103 1925 3103 
Q 1469 3103 1208 2742 
Q 947 2381 947 1747 
z
" transform="scale(0.015625)"/>
      </defs>
      <use xlink:href="#DejaVuSans-6d"/>
      <use xlink:href="#DejaVuSans-6f" x="97.412109"/>
      <use xlink:href="#DejaVuSans-64" x="158.59375"/>
      <use xlink:href="#DejaVuSans-65" x="222.070312"/>
      <use xlink:href="#DejaVuSans-6c" x="283.59375"/>
     </g>
    </g>
   </g>
  </g>
 </g>
 <defs>
  <clipPath id="p8b79ee4756">
   <rect x="63" y="51.84" width="390.6" height="332.64"/>
  </clipPath>
 </defs>
</svg>
