<?xml version="1.0" encoding="utf-8" standalone="no"?>
<!DOCTYPE svg PUBLIC "-//W3C//DTD SVG 1.1//EN"
  "http://www.w3.org/Graphics/SVG/1.1/DTD/svg11.dtd">
<svg xmlns:xlink="http://www.w3.org/1999/xlink" width="504pt" height="432pt" viewBox="0 0 504 432" xmlns="http://www.w3.org/2000/svg" version="1.1">
 <metadata>
  <rdf:RDF xmlns:dc="http://purl.org/dc/elements/1.1/" xmlns:cc="http://creativecommons.org/ns#" xmlns:rdf="http://www.w3.org/1999/02/22-rdf-syntax-ns#">
   <cc:Work>
    <dc:type rdf:resource="http://purl.org/dc/dcmitype/StillImage"/>
    <dc:date>2022-02-01T14:44:33.366581</dc:date>
    <dc:format>image/svg+xml</dc:format>
    <dc:creator>
     <cc:Agent>
      <dc:title>Matplotlib v3.5.1, https://matplotlib.org/</dc:title>
     </cc:Agent>
    </dc:creator>
   </cc:Work>
  </rdf:RDF>
 </metadata>
 <defs>
  <style type="text/css">*{stroke-linejoin: round; stroke-linecap: butt}</style>
 </defs>
 <g id="figure_1">
  <g id="patch_1">
   <path d="M 0 432 
L 504 432 
L 504 0 
L 0 0 
z
" style="fill: #ffffff"/>
  </g>
  <g id="axes_1">
   <g id="patch_2">
    <path d="M 63 384.48 
L 453.6 384.48 
L 453.6 51.84 
L 63 51.84 
z
" style="fill: #ffffff"/>
   </g>
   <g id="matplotlib.axis_1">
    <g id="xtick_1">
     <g id="line2d_1">
      <defs>
       <path id="m403d2c82a6" d="M 0 0 
L 0 3.5 
" style="stroke: #000000; stroke-width: 0.8"/>
      </defs>
      <g>
       <use xlink:href="#m403d2c82a6" x="80.754545" y="384.48" style="stroke: #000000; stroke-width: 0.8"/>
      </g>
     </g>
     <g id="text_1">
      <!-- 0 -->
      <g transform="translate(77.573295 399.078438)scale(0.1 -0.1)">
       <defs>
        <path id="DejaVuSans-30" d="M 2034 4250 
Q 1547 4250 1301 3770 
Q 1056 3291 1056 2328 
Q 1056 1369 1301 889 
Q 1547 409 2034 409 
Q 2525 409 2770 889 
Q 3016 1369 3016 2328 
Q 3016 3291 2770 3770 
Q 2525 4250 2034 4250 
z
M 2034 4750 
Q 2819 4750 3233 4129 
Q 3647 3509 3647 2328 
Q 3647 1150 3233 529 
Q 2819 -91 2034 -91 
Q 1250 -91 836 529 
Q 422 1150 422 2328 
Q 422 3509 836 4129 
Q 1250 4750 2034 4750 
z
" transform="scale(0.015625)"/>
       </defs>
       <use xlink:href="#DejaVuSans-30"/>
      </g>
     </g>
    </g>
    <g id="xtick_2">
     <g id="line2d_2">
      <g>
       <use xlink:href="#m403d2c82a6" x="151.772727" y="384.48" style="stroke: #000000; stroke-width: 0.8"/>
      </g>
     </g>
     <g id="text_2">
      <!-- 200 -->
      <g transform="translate(142.228977 399.078438)scale(0.1 -0.1)">
       <defs>
        <path id="DejaVuSans-32" d="M 1228 531 
L 3431 531 
L 3431 0 
L 469 0 
L 469 531 
Q 828 903 1448 1529 
Q 2069 2156 2228 2338 
Q 2531 2678 2651 2914 
Q 2772 3150 2772 3378 
Q 2772 3750 2511 3984 
Q 2250 4219 1831 4219 
Q 1534 4219 1204 4116 
Q 875 4013 500 3803 
L 500 4441 
Q 881 4594 1212 4672 
Q 1544 4750 1819 4750 
Q 2544 4750 2975 4387 
Q 3406 4025 3406 3419 
Q 3406 3131 3298 2873 
Q 3191 2616 2906 2266 
Q 2828 2175 2409 1742 
Q 1991 1309 1228 531 
z
" transform="scale(0.015625)"/>
       </defs>
       <use xlink:href="#DejaVuSans-32"/>
       <use xlink:href="#DejaVuSans-30" x="63.623047"/>
       <use xlink:href="#DejaVuSans-30" x="127.246094"/>
      </g>
     </g>
    </g>
    <g id="xtick_3">
     <g id="line2d_3">
      <g>
       <use xlink:href="#m403d2c82a6" x="222.790909" y="384.48" style="stroke: #000000; stroke-width: 0.8"/>
      </g>
     </g>
     <g id="text_3">
      <!-- 400 -->
      <g transform="translate(213.247159 399.078438)scale(0.1 -0.1)">
       <defs>
        <path id="DejaVuSans-34" d="M 2419 4116 
L 825 1625 
L 2419 1625 
L 2419 4116 
z
M 2253 4666 
L 3047 4666 
L 3047 1625 
L 3713 1625 
L 3713 1100 
L 3047 1100 
L 3047 0 
L 2419 0 
L 2419 1100 
L 313 1100 
L 313 1709 
L 2253 4666 
z
" transform="scale(0.015625)"/>
       </defs>
       <use xlink:href="#DejaVuSans-34"/>
       <use xlink:href="#DejaVuSans-30" x="63.623047"/>
       <use xlink:href="#DejaVuSans-30" x="127.246094"/>
      </g>
     </g>
    </g>
    <g id="xtick_4">
     <g id="line2d_4">
      <g>
       <use xlink:href="#m403d2c82a6" x="293.809091" y="384.48" style="stroke: #000000; stroke-width: 0.8"/>
      </g>
     </g>
     <g id="text_4">
      <!-- 600 -->
      <g transform="translate(284.265341 399.078438)scale(0.1 -0.1)">
       <defs>
        <path id="DejaVuSans-36" d="M 2113 2584 
Q 1688 2584 1439 2293 
Q 1191 2003 1191 1497 
Q 1191 994 1439 701 
Q 1688 409 2113 409 
Q 2538 409 2786 701 
Q 3034 994 3034 1497 
Q 3034 2003 2786 2293 
Q 2538 2584 2113 2584 
z
M 3366 4563 
L 3366 3988 
Q 3128 4100 2886 4159 
Q 2644 4219 2406 4219 
Q 1781 4219 1451 3797 
Q 1122 3375 1075 2522 
Q 1259 2794 1537 2939 
Q 1816 3084 2150 3084 
Q 2853 3084 3261 2657 
Q 3669 2231 3669 1497 
Q 3669 778 3244 343 
Q 2819 -91 2113 -91 
Q 1303 -91 875 529 
Q 447 1150 447 2328 
Q 447 3434 972 4092 
Q 1497 4750 2381 4750 
Q 2619 4750 2861 4703 
Q 3103 4656 3366 4563 
z
" transform="scale(0.015625)"/>
       </defs>
       <use xlink:href="#DejaVuSans-36"/>
       <use xlink:href="#DejaVuSans-30" x="63.623047"/>
       <use xlink:href="#DejaVuSans-30" x="127.246094"/>
      </g>
     </g>
    </g>
    <g id="xtick_5">
     <g id="line2d_5">
      <g>
       <use xlink:href="#m403d2c82a6" x="364.827273" y="384.48" style="stroke: #000000; stroke-width: 0.8"/>
      </g>
     </g>
     <g id="text_5">
      <!-- 800 -->
      <g transform="translate(355.283523 399.078438)scale(0.1 -0.1)">
       <defs>
        <path id="DejaVuSans-38" d="M 2034 2216 
Q 1584 2216 1326 1975 
Q 1069 1734 1069 1313 
Q 1069 891 1326 650 
Q 1584 409 2034 409 
Q 2484 409 2743 651 
Q 3003 894 3003 1313 
Q 3003 1734 2745 1975 
Q 2488 2216 2034 2216 
z
M 1403 2484 
Q 997 2584 770 2862 
Q 544 3141 544 3541 
Q 544 4100 942 4425 
Q 1341 4750 2034 4750 
Q 2731 4750 3128 4425 
Q 3525 4100 3525 3541 
Q 3525 3141 3298 2862 
Q 3072 2584 2669 2484 
Q 3125 2378 3379 2068 
Q 3634 1759 3634 1313 
Q 3634 634 3220 271 
Q 2806 -91 2034 -91 
Q 1263 -91 848 271 
Q 434 634 434 1313 
Q 434 1759 690 2068 
Q 947 2378 1403 2484 
z
M 1172 3481 
Q 1172 3119 1398 2916 
Q 1625 2713 2034 2713 
Q 2441 2713 2670 2916 
Q 2900 3119 2900 3481 
Q 2900 3844 2670 4047 
Q 2441 4250 2034 4250 
Q 1625 4250 1398 4047 
Q 1172 3844 1172 3481 
z
" transform="scale(0.015625)"/>
       </defs>
       <use xlink:href="#DejaVuSans-38"/>
       <use xlink:href="#DejaVuSans-30" x="63.623047"/>
       <use xlink:href="#DejaVuSans-30" x="127.246094"/>
      </g>
     </g>
    </g>
    <g id="text_6">
     <!-- time [ms] -->
     <g transform="translate(234.038281 412.756563)scale(0.1 -0.1)">
      <defs>
       <path id="DejaVuSans-74" d="M 1172 4494 
L 1172 3500 
L 2356 3500 
L 2356 3053 
L 1172 3053 
L 1172 1153 
Q 1172 725 1289 603 
Q 1406 481 1766 481 
L 2356 481 
L 2356 0 
L 1766 0 
Q 1100 0 847 248 
Q 594 497 594 1153 
L 594 3053 
L 172 3053 
L 172 3500 
L 594 3500 
L 594 4494 
L 1172 4494 
z
" transform="scale(0.015625)"/>
       <path id="DejaVuSans-69" d="M 603 3500 
L 1178 3500 
L 1178 0 
L 603 0 
L 603 3500 
z
M 603 4863 
L 1178 4863 
L 1178 4134 
L 603 4134 
L 603 4863 
z
" transform="scale(0.015625)"/>
       <path id="DejaVuSans-6d" d="M 3328 2828 
Q 3544 3216 3844 3400 
Q 4144 3584 4550 3584 
Q 5097 3584 5394 3201 
Q 5691 2819 5691 2113 
L 5691 0 
L 5113 0 
L 5113 2094 
Q 5113 2597 4934 2840 
Q 4756 3084 4391 3084 
Q 3944 3084 3684 2787 
Q 3425 2491 3425 1978 
L 3425 0 
L 2847 0 
L 2847 2094 
Q 2847 2600 2669 2842 
Q 2491 3084 2119 3084 
Q 1678 3084 1418 2786 
Q 1159 2488 1159 1978 
L 1159 0 
L 581 0 
L 581 3500 
L 1159 3500 
L 1159 2956 
Q 1356 3278 1631 3431 
Q 1906 3584 2284 3584 
Q 2666 3584 2933 3390 
Q 3200 3197 3328 2828 
z
" transform="scale(0.015625)"/>
       <path id="DejaVuSans-65" d="M 3597 1894 
L 3597 1613 
L 953 1613 
Q 991 1019 1311 708 
Q 1631 397 2203 397 
Q 2534 397 2845 478 
Q 3156 559 3463 722 
L 3463 178 
Q 3153 47 2828 -22 
Q 2503 -91 2169 -91 
Q 1331 -91 842 396 
Q 353 884 353 1716 
Q 353 2575 817 3079 
Q 1281 3584 2069 3584 
Q 2775 3584 3186 3129 
Q 3597 2675 3597 1894 
z
M 3022 2063 
Q 3016 2534 2758 2815 
Q 2500 3097 2075 3097 
Q 1594 3097 1305 2825 
Q 1016 2553 972 2059 
L 3022 2063 
z
" transform="scale(0.015625)"/>
       <path id="DejaVuSans-20" transform="scale(0.015625)"/>
       <path id="DejaVuSans-5b" d="M 550 4863 
L 1875 4863 
L 1875 4416 
L 1125 4416 
L 1125 -397 
L 1875 -397 
L 1875 -844 
L 550 -844 
L 550 4863 
z
" transform="scale(0.015625)"/>
       <path id="DejaVuSans-73" d="M 2834 3397 
L 2834 2853 
Q 2591 2978 2328 3040 
Q 2066 3103 1784 3103 
Q 1356 3103 1142 2972 
Q 928 2841 928 2578 
Q 928 2378 1081 2264 
Q 1234 2150 1697 2047 
L 1894 2003 
Q 2506 1872 2764 1633 
Q 3022 1394 3022 966 
Q 3022 478 2636 193 
Q 2250 -91 1575 -91 
Q 1294 -91 989 -36 
Q 684 19 347 128 
L 347 722 
Q 666 556 975 473 
Q 1284 391 1588 391 
Q 1994 391 2212 530 
Q 2431 669 2431 922 
Q 2431 1156 2273 1281 
Q 2116 1406 1581 1522 
L 1381 1569 
Q 847 1681 609 1914 
Q 372 2147 372 2553 
Q 372 3047 722 3315 
Q 1072 3584 1716 3584 
Q 2034 3584 2315 3537 
Q 2597 3491 2834 3397 
z
" transform="scale(0.015625)"/>
       <path id="DejaVuSans-5d" d="M 1947 4863 
L 1947 -844 
L 622 -844 
L 622 -397 
L 1369 -397 
L 1369 4416 
L 622 4416 
L 622 4863 
L 1947 4863 
z
" transform="scale(0.015625)"/>
      </defs>
      <use xlink:href="#DejaVuSans-74"/>
      <use xlink:href="#DejaVuSans-69" x="39.208984"/>
      <use xlink:href="#DejaVuSans-6d" x="66.992188"/>
      <use xlink:href="#DejaVuSans-65" x="164.404297"/>
      <use xlink:href="#DejaVuSans-20" x="225.927734"/>
      <use xlink:href="#DejaVuSans-5b" x="257.714844"/>
      <use xlink:href="#DejaVuSans-6d" x="296.728516"/>
      <use xlink:href="#DejaVuSans-73" x="394.140625"/>
      <use xlink:href="#DejaVuSans-5d" x="446.240234"/>
     </g>
    </g>
   </g>
   <g id="matplotlib.axis_2">
    <g id="ytick_1">
     <g id="line2d_6">
      <defs>
       <path id="m2f76a34fd6" d="M 0 0 
L -3.5 0 
" style="stroke: #000000; stroke-width: 0.8"/>
      </defs>
      <g>
       <use xlink:href="#m2f76a34fd6" x="63" y="380.76809" style="stroke: #000000; stroke-width: 0.8"/>
      </g>
     </g>
     <g id="text_7">
      <!-- −80 -->
      <g transform="translate(34.895313 384.567309)scale(0.1 -0.1)">
       <defs>
        <path id="DejaVuSans-2212" d="M 678 2272 
L 4684 2272 
L 4684 1741 
L 678 1741 
L 678 2272 
z
" transform="scale(0.015625)"/>
       </defs>
       <use xlink:href="#DejaVuSans-2212"/>
       <use xlink:href="#DejaVuSans-38" x="83.789062"/>
       <use xlink:href="#DejaVuSans-30" x="147.412109"/>
      </g>
     </g>
    </g>
    <g id="ytick_2">
     <g id="line2d_7">
      <g>
       <use xlink:href="#m2f76a34fd6" x="63" y="328.325058" style="stroke: #000000; stroke-width: 0.8"/>
      </g>
     </g>
     <g id="text_8">
      <!-- −60 -->
      <g transform="translate(34.895313 332.124277)scale(0.1 -0.1)">
       <use xlink:href="#DejaVuSans-2212"/>
       <use xlink:href="#DejaVuSans-36" x="83.789062"/>
       <use xlink:href="#DejaVuSans-30" x="147.412109"/>
      </g>
     </g>
    </g>
    <g id="ytick_3">
     <g id="line2d_8">
      <g>
       <use xlink:href="#m2f76a34fd6" x="63" y="275.882026" style="stroke: #000000; stroke-width: 0.8"/>
      </g>
     </g>
     <g id="text_9">
      <!-- −40 -->
      <g transform="translate(34.895313 279.681245)scale(0.1 -0.1)">
       <use xlink:href="#DejaVuSans-2212"/>
       <use xlink:href="#DejaVuSans-34" x="83.789062"/>
       <use xlink:href="#DejaVuSans-30" x="147.412109"/>
      </g>
     </g>
    </g>
    <g id="ytick_4">
     <g id="line2d_9">
      <g>
       <use xlink:href="#m2f76a34fd6" x="63" y="223.438994" style="stroke: #000000; stroke-width: 0.8"/>
      </g>
     </g>
     <g id="text_10">
      <!-- −20 -->
      <g transform="translate(34.895313 227.238213)scale(0.1 -0.1)">
       <use xlink:href="#DejaVuSans-2212"/>
       <use xlink:href="#DejaVuSans-32" x="83.789062"/>
       <use xlink:href="#DejaVuSans-30" x="147.412109"/>
      </g>
     </g>
    </g>
    <g id="ytick_5">
     <g id="line2d_10">
      <g>
       <use xlink:href="#m2f76a34fd6" x="63" y="170.995962" style="stroke: #000000; stroke-width: 0.8"/>
      </g>
     </g>
     <g id="text_11">
      <!-- 0 -->
      <g transform="translate(49.6375 174.795181)scale(0.1 -0.1)">
       <use xlink:href="#DejaVuSans-30"/>
      </g>
     </g>
    </g>
    <g id="ytick_6">
     <g id="line2d_11">
      <g>
       <use xlink:href="#m2f76a34fd6" x="63" y="118.55293" style="stroke: #000000; stroke-width: 0.8"/>
      </g>
     </g>
     <g id="text_12">
      <!-- 20 -->
      <g transform="translate(43.275 122.352149)scale(0.1 -0.1)">
       <use xlink:href="#DejaVuSans-32"/>
       <use xlink:href="#DejaVuSans-30" x="63.623047"/>
      </g>
     </g>
    </g>
    <g id="ytick_7">
     <g id="line2d_12">
      <g>
       <use xlink:href="#m2f76a34fd6" x="63" y="66.109898" style="stroke: #000000; stroke-width: 0.8"/>
      </g>
     </g>
     <g id="text_13">
      <!-- 40 -->
      <g transform="translate(43.275 69.909117)scale(0.1 -0.1)">
       <use xlink:href="#DejaVuSans-34"/>
       <use xlink:href="#DejaVuSans-30" x="63.623047"/>
      </g>
     </g>
    </g>
    <g id="text_14">
     <!-- voltage [mV] -->
     <g transform="translate(28.815625 250.624062)rotate(-90)scale(0.1 -0.1)">
      <defs>
       <path id="DejaVuSans-76" d="M 191 3500 
L 800 3500 
L 1894 563 
L 2988 3500 
L 3597 3500 
L 2284 0 
L 1503 0 
L 191 3500 
z
" transform="scale(0.015625)"/>
       <path id="DejaVuSans-6f" d="M 1959 3097 
Q 1497 3097 1228 2736 
Q 959 2375 959 1747 
Q 959 1119 1226 758 
Q 1494 397 1959 397 
Q 2419 397 2687 759 
Q 2956 1122 2956 1747 
Q 2956 2369 2687 2733 
Q 2419 3097 1959 3097 
z
M 1959 3584 
Q 2709 3584 3137 3096 
Q 3566 2609 3566 1747 
Q 3566 888 3137 398 
Q 2709 -91 1959 -91 
Q 1206 -91 779 398 
Q 353 888 353 1747 
Q 353 2609 779 3096 
Q 1206 3584 1959 3584 
z
" transform="scale(0.015625)"/>
       <path id="DejaVuSans-6c" d="M 603 4863 
L 1178 4863 
L 1178 0 
L 603 0 
L 603 4863 
z
" transform="scale(0.015625)"/>
       <path id="DejaVuSans-61" d="M 2194 1759 
Q 1497 1759 1228 1600 
Q 959 1441 959 1056 
Q 959 750 1161 570 
Q 1363 391 1709 391 
Q 2188 391 2477 730 
Q 2766 1069 2766 1631 
L 2766 1759 
L 2194 1759 
z
M 3341 1997 
L 3341 0 
L 2766 0 
L 2766 531 
Q 2569 213 2275 61 
Q 1981 -91 1556 -91 
Q 1019 -91 701 211 
Q 384 513 384 1019 
Q 384 1609 779 1909 
Q 1175 2209 1959 2209 
L 2766 2209 
L 2766 2266 
Q 2766 2663 2505 2880 
Q 2244 3097 1772 3097 
Q 1472 3097 1187 3025 
Q 903 2953 641 2809 
L 641 3341 
Q 956 3463 1253 3523 
Q 1550 3584 1831 3584 
Q 2591 3584 2966 3190 
Q 3341 2797 3341 1997 
z
" transform="scale(0.015625)"/>
       <path id="DejaVuSans-67" d="M 2906 1791 
Q 2906 2416 2648 2759 
Q 2391 3103 1925 3103 
Q 1463 3103 1205 2759 
Q 947 2416 947 1791 
Q 947 1169 1205 825 
Q 1463 481 1925 481 
Q 2391 481 2648 825 
Q 2906 1169 2906 1791 
z
M 3481 434 
Q 3481 -459 3084 -895 
Q 2688 -1331 1869 -1331 
Q 1566 -1331 1297 -1286 
Q 1028 -1241 775 -1147 
L 775 -588 
Q 1028 -725 1275 -790 
Q 1522 -856 1778 -856 
Q 2344 -856 2625 -561 
Q 2906 -266 2906 331 
L 2906 616 
Q 2728 306 2450 153 
Q 2172 0 1784 0 
Q 1141 0 747 490 
Q 353 981 353 1791 
Q 353 2603 747 3093 
Q 1141 3584 1784 3584 
Q 2172 3584 2450 3431 
Q 2728 3278 2906 2969 
L 2906 3500 
L 3481 3500 
L 3481 434 
z
" transform="scale(0.015625)"/>
       <path id="DejaVuSans-56" d="M 1831 0 
L 50 4666 
L 709 4666 
L 2188 738 
L 3669 4666 
L 4325 4666 
L 2547 0 
L 1831 0 
z
" transform="scale(0.015625)"/>
      </defs>
      <use xlink:href="#DejaVuSans-76"/>
      <use xlink:href="#DejaVuSans-6f" x="59.179688"/>
      <use xlink:href="#DejaVuSans-6c" x="120.361328"/>
      <use xlink:href="#DejaVuSans-74" x="148.144531"/>
      <use xlink:href="#DejaVuSans-61" x="187.353516"/>
      <use xlink:href="#DejaVuSans-67" x="248.632812"/>
      <use xlink:href="#DejaVuSans-65" x="312.109375"/>
      <use xlink:href="#DejaVuSans-20" x="373.632812"/>
      <use xlink:href="#DejaVuSans-5b" x="405.419922"/>
      <use xlink:href="#DejaVuSans-6d" x="444.433594"/>
      <use xlink:href="#DejaVuSans-56" x="541.845703"/>
      <use xlink:href="#DejaVuSans-5d" x="610.253906"/>
     </g>
    </g>
   </g>
   <g id="line2d_13">
    <path d="M 80.754545 341.435816 
L 81.961855 341.299464 
L 83.772818 341.356627 
L 85.974382 341.375507 
L 151.772727 341.366854 
L 152.314241 296.890443 
L 152.420768 248.306431 
L 152.562805 66.96 
L 152.678209 92.15101 
L 153.565936 367.895424 
L 153.610323 367.794995 
L 153.8145 366.417579 
L 154.293873 361.668863 
L 154.959668 352.557148 
L 157.42755 313.706825 
L 157.613973 302.591263 
L 157.738255 280.648836 
L 157.835905 218.158243 
L 157.969064 91.295402 
L 158.031205 104.433955 
L 158.883423 367.471422 
L 158.945564 367.288133 
L 159.203005 365.311031 
L 159.717886 359.644037 
L 160.534595 347.729505 
L 161.8218 329.618304 
L 162.514227 319.26264 
L 162.771668 311.749914 
L 162.940336 299.771139 
L 163.064618 271.834211 
L 163.162268 187.523725 
L 163.268795 92.214729 
L 163.322059 101.717931 
L 163.863573 296.612495 
L 164.147645 367.294951 
L 164.183155 367.439694 
L 164.245295 367.258503 
L 164.493859 365.356919 
L 165.008741 359.709591 
L 165.834327 347.672079 
L 167.112655 329.692773 
L 167.813959 319.227241 
L 168.0714 311.704813 
L 168.240068 299.686705 
L 168.36435 271.588253 
L 168.462 186.778903 
L 168.568527 92.291558 
L 168.621791 101.939765 
L 169.172182 300.560144 
L 169.4385 367.209207 
L 169.482886 367.437596 
L 169.545027 367.252472 
L 169.802468 365.267241 
L 170.31735 359.582416 
L 171.151814 347.383381 
L 172.430141 329.450224 
L 173.113691 319.208886 
L 173.371132 311.668365 
L 173.5398 299.590997 
L 173.664082 271.25052 
L 173.761732 185.628801 
L 173.868259 92.30834 
L 173.921523 102.175496 
L 174.480791 304.627101 
L 174.729355 367.099863 
L 174.782618 367.437596 
L 174.844759 367.248277 
L 175.1022 365.259899 
L 175.617082 359.571666 
L 176.451545 347.370532 
L 177.729873 329.439473 
L 178.413423 319.192104 
L 178.670864 311.632441 
L 178.839532 299.493977 
L 178.963814 270.903872 
L 179.061464 184.44503 
L 179.167991 92.325646 
L 179.221255 102.41385 
L 179.7894 308.797109 
L 180.029086 367.112187 
L 180.08235 367.437858 
L 180.144491 367.243819 
L 180.401932 365.252557 
L 180.916814 359.561177 
L 181.751277 347.358208 
L 183.029605 329.428984 
L 183.713155 319.17506 
L 183.970595 311.596256 
L 184.139264 299.395909 
L 184.263545 270.549094 
L 184.361195 183.24044 
L 184.467723 92.349507 
L 184.520986 102.655874 
L 185.098009 313.058892 
L 185.328818 367.124249 
L 185.382082 367.437858 
L 185.444223 367.239624 
L 185.701664 365.244953 
L 186.216545 359.550688 
L 187.051009 347.345622 
L 188.329336 329.418496 
L 189.012886 319.158279 
L 189.270327 311.559808 
L 189.438995 299.296267 
L 189.563277 270.189073 
L 189.660927 182.031051 
L 189.767455 92.379138 
L 189.820718 102.900259 
L 190.406618 317.392784 
L 190.619673 366.990519 
L 190.681814 367.437596 
L 190.743955 367.235166 
L 191.010273 365.156324 
L 191.525155 359.42535 
L 192.368495 347.060332 
L 193.637945 329.292632 
L 194.312618 319.140972 
L 194.570059 311.52336 
L 194.738727 299.196101 
L 194.863009 269.825643 
L 194.969536 167.471397 
L 195.058309 92.365765 
L 195.12045 103.147265 
L 195.715227 321.772826 
L 195.919405 367.00599 
L 195.981545 367.437596 
L 196.043686 367.230708 
L 196.310005 365.14872 
L 196.833764 359.299486 
L 197.703736 346.503124 
L 198.955432 329.051657 
L 199.61235 319.123928 
L 199.869791 311.486387 
L 200.038459 299.094886 
L 200.162741 269.454871 
L 200.269268 166.20933 
L 200.358041 92.336397 
L 200.420182 103.398467 
L 201.023836 326.162045 
L 201.219136 367.020674 
L 201.281277 367.437072 
L 201.343418 367.226251 
L 201.609736 365.141116 
L 202.133495 359.288473 
L 202.994591 346.626365 
L 204.255164 329.040906 
L 204.912082 319.10636 
L 205.169523 311.448891 
L 205.338191 298.992097 
L 205.462473 269.076494 
L 205.569 164.938792 
L 205.657773 92.314108 
L 205.719914 103.651505 
L 206.332445 330.512457 
L 206.518868 367.035358 
L 206.581009 367.436809 
L 206.634273 367.268205 
L 206.873959 365.454987 
L 207.388841 359.849352 
L 208.187795 348.250002 
L 209.510509 329.605193 
L 210.202936 319.273129 
L 210.460377 311.803668 
L 210.629045 299.954427 
L 210.753327 272.540356 
L 210.850977 190.081739 
L 210.957505 92.2989 
L 211.019645 103.905592 
L 211.641055 334.770045 
L 211.827477 367.180887 
L 211.880741 367.436285 
L 211.934005 367.26401 
L 212.182568 365.367932 
L 212.69745 359.725324 
L 213.514159 347.827573 
L 214.810241 329.594442 
L 215.502668 319.256085 
L 215.760109 311.767744 
L 215.928777 299.858194 
L 216.053059 272.201312 
L 216.150709 188.903868 
L 216.257236 92.292607 
L 216.319377 104.159154 
L 216.949664 338.871352 
L 217.127209 367.191376 
L 217.171595 367.436809 
L 217.233736 367.259814 
L 217.4823 365.36059 
L 217.997182 359.714835 
L 218.822768 347.678373 
L 220.101095 329.698541 
L 220.8024 319.239041 
L 221.059841 311.732083 
L 221.228509 299.762223 
L 221.352791 271.860957 
L 221.450441 187.726574 
L 221.556968 92.293131 
L 221.610232 101.754903 
L 222.151745 296.667822 
L 222.426941 367.20134 
L 222.471327 367.437072 
L 222.533468 367.255619 
L 222.782032 365.353248 
L 223.296914 359.704347 
L 224.1225 347.665524 
L 225.418582 329.458352 
L 226.111009 319.037135 
L 226.36845 311.29969 
L 226.537118 298.579108 
L 226.652523 271.517979 
L 226.750173 186.544587 
L 226.8567 92.299162 
L 226.909964 101.992208 
L 227.460355 300.6354 
L 227.726673 367.211042 
L 227.771059 367.437596 
L 227.8332 367.251423 
L 228.090641 365.265406 
L 228.605523 359.579794 
L 229.439986 347.380234 
L 230.718314 329.447601 
L 231.401864 319.204953 
L 231.659305 311.659974 
L 231.827973 299.568971 
L 231.952255 271.172642 
L 232.049905 185.36239 
L 232.156432 92.312011 
L 232.209695 102.22925 
L 232.768964 304.705503 
L 233.017527 367.102747 
L 233.070791 367.437596 
L 233.132932 367.247228 
L 233.390373 365.258064 
L 233.905255 359.569306 
L 234.739718 347.367648 
L 236.018045 329.437113 
L 236.701595 319.188171 
L 236.959036 311.624313 
L 237.127705 299.471951 
L 237.251986 270.824158 
L 237.349636 184.173428 
L 237.456164 92.330366 
L 237.509427 102.468653 
L 238.077573 308.877871 
L 238.317259 367.114809 
L 238.370523 367.437858 
L 238.432664 367.243032 
L 238.690105 365.250722 
L 239.204986 359.558817 
L 240.03945 347.355324 
L 241.317777 329.426624 
L 242.001327 319.171389 
L 242.258768 311.588127 
L 242.427436 299.373358 
L 242.551718 270.467546 
L 242.649368 182.966032 
L 242.755895 92.3558 
L 242.809159 102.711202 
L 243.386182 313.14149 
L 243.616991 367.126871 
L 243.670255 367.437858 
L 243.732395 367.238575 
L 243.989836 365.24338 
L 244.504718 359.548329 
L 245.348059 347.206385 
L 246.617509 329.415873 
L 247.301059 319.154345 
L 247.5585 311.551679 
L 247.727168 299.273454 
L 247.85145 270.107 
L 247.9491 181.755463 
L 248.055627 92.387004 
L 248.108891 102.956111 
L 248.694791 317.477217 
L 248.907845 366.99419 
L 248.969986 367.437596 
L 249.032127 367.234379 
L 249.298445 365.154751 
L 249.822205 359.307877 
L 250.692177 346.513088 
L 251.943873 329.060047 
L 252.600791 319.137039 
L 252.858232 311.514969 
L 253.0269 299.173026 
L 253.151182 269.741734 
L 253.257709 167.184062 
L 253.346482 92.358423 
L 253.408623 103.204428 
L 254.0034 321.858833 
L 254.207577 367.009399 
L 254.269718 367.437334 
L 254.331859 367.229922 
L 254.598177 365.147147 
L 255.121936 359.296864 
L 255.983032 346.63633 
L 257.22585 329.279522 
L 257.900523 319.119995 
L 258.157964 311.477997 
L 258.326632 299.071548 
L 258.450914 269.369126 
L 258.557441 165.919398 
L 258.646214 92.330628 
L 258.708355 103.456417 
L 259.312009 326.248052 
L 259.507309 367.024083 
L 259.56945 367.437072 
L 259.631591 367.225202 
L 259.897909 365.13928 
L 260.421668 359.286113 
L 261.291641 346.487654 
L 262.525582 329.268771 
L 263.200255 319.102427 
L 263.457695 311.4405 
L 263.626364 298.968498 
L 263.750645 268.989439 
L 263.857173 164.648336 
L 263.945945 92.309913 
L 264.008086 103.709455 
L 264.620618 330.597153 
L 264.807041 367.038767 
L 264.869182 367.436547 
L 264.922445 367.267418 
L 265.171009 365.373701 
L 265.685891 359.733715 
L 266.511477 347.700923 
L 267.807559 329.487983 
L 268.499986 319.085121 
L 268.757427 311.403003 
L 268.926095 298.865447 
L 269.050377 268.609751 
L 269.156905 163.386741 
L 269.245677 92.296802 
L 269.298941 101.33667 
L 269.8227 289.115763 
L 270.133405 367.349492 
L 270.168914 367.436285 
L 270.222177 367.263223 
L 270.470741 365.366358 
L 270.985623 359.722964 
L 271.802332 347.824689 
L 273.098414 329.592082 
L 273.790841 319.252152 
L 274.048282 311.759616 
L 274.21695 299.83643 
L 274.341232 272.123696 
L 274.438882 188.634416 
L 274.545409 92.292344 
L 274.598673 101.572401 
L 275.131309 292.878813 
L 275.424259 367.287609 
L 275.459768 367.436809 
L 275.521909 367.259028 
L 275.770473 365.359016 
L 276.285355 359.712475 
L 277.110941 347.675488 
L 278.389268 329.696181 
L 279.090573 319.235108 
L 279.348014 311.723692 
L 279.516682 299.740197 
L 279.640964 271.782817 
L 279.738614 187.457017 
L 279.845141 92.293655 
L 279.898405 101.809181 
L 280.439918 296.743602 
L 280.715114 367.203438 
L 280.7595 367.437334 
L 280.821641 367.254832 
L 281.079082 365.271174 
L 281.593964 359.587923 
L 282.428427 347.389936 
L 283.706755 329.45573 
L 284.390305 319.218064 
L 284.647745 311.687769 
L 284.816414 299.643702 
L 284.940695 271.439315 
L 285.038345 186.274925 
L 285.144873 92.301522 
L 285.198136 102.046224 
L 285.748527 300.712229 
L 286.014845 367.21314 
L 286.059232 367.437596 
L 286.121373 367.250374 
L 286.378814 365.263832 
L 286.893695 359.577434 
L 287.728159 347.37735 
L 289.006486 329.445242 
L 289.690036 319.201282 
L 289.947477 311.651845 
L 290.116145 299.546945 
L 290.240427 271.093453 
L 290.338077 185.091837 
L 290.444605 92.315682 
L 290.497868 102.283529 
L 291.057136 304.784692 
L 291.3057 367.105632 
L 291.358964 367.437858 
L 291.421105 367.246179 
L 291.678545 365.25649 
L 292.193427 359.566946 
L 293.027891 347.364763 
L 294.315095 329.31964 
L 294.989768 319.184238 
L 295.247209 311.615922 
L 295.415877 299.449663 
L 295.540159 270.743396 
L 295.637809 183.898967 
L 295.744336 92.33561 
L 295.7976 102.523718 
L 296.365745 308.959158 
L 296.605432 367.117694 
L 296.658695 367.437858 
L 296.720836 367.241984 
L 296.978277 365.249148 
L 297.493159 359.556457 
L 298.327623 347.352439 
L 299.60595 329.424264 
L 300.2895 319.167456 
L 300.546941 311.579736 
L 300.715609 299.350545 
L 300.839891 270.385734 
L 300.937541 182.691231 
L 301.044068 92.362356 
L 301.097332 102.766529 
L 301.674355 313.224087 
L 301.905164 367.129493 
L 301.958427 367.437858 
L 302.020568 367.237788 
L 302.286886 365.16052 
L 302.810645 359.316006 
L 303.671741 346.65888 
L 304.914559 329.298663 
L 305.589232 319.150412 
L 305.846673 311.543288 
L 306.015341 299.250904 
L 306.139623 270.024664 
L 306.24615 168.15473 
L 306.334923 92.384382 
L 306.397064 103.012225 
L 306.982964 317.56165 
L 307.196018 366.997599 
L 307.258159 367.437596 
L 307.3203 367.23333 
L 307.586618 365.152915 
L 308.110377 359.305255 
L 308.971473 346.646294 
L 310.214291 329.287912 
L 310.888964 319.133368 
L 311.146405 311.506578 
L 311.315073 299.150213 
L 311.439355 269.657563 
L 311.545882 166.897749 
L 311.634655 92.351605 
L 311.696795 103.261329 
L 312.291573 321.944315 
L 312.49575 367.012807 
L 312.557891 367.437334 
L 312.620032 367.228873 
L 312.88635 365.145311 
L 313.410109 359.294504 
L 314.280082 346.497356 
L 315.531777 329.046674 
L 316.188695 319.1158 
L 316.446136 311.469343 
L 316.614805 299.048211 
L 316.739086 269.283644 
L 316.845614 165.630568 
L 316.934386 92.325383 
L 316.996527 103.513842 
L 317.600182 326.333796 
L 317.795482 367.027492 
L 317.857623 367.437072 
L 317.910886 367.270565 
L 318.150573 365.45892 
L 318.665455 359.85512 
L 319.464409 348.256819 
L 320.787123 329.611224 
L 321.488427 319.098494 
L 321.745868 311.431847 
L 321.914536 298.944899 
L 322.038818 268.902645 
L 322.145345 164.35927 
L 322.234118 92.306242 
L 322.296259 103.767404 
L 322.908791 330.681586 
L 323.095214 367.042176 
L 323.157355 367.436547 
L 323.210618 367.26637 
L 323.459182 365.372127 
L 323.974064 359.731092 
L 324.790773 347.834391 
L 326.095732 329.48536 
L 326.779282 319.265262 
L 327.036723 311.78741 
L 327.205391 299.910637 
L 327.329673 272.385912 
L 327.427323 189.544722 
L 327.53385 92.294967 
L 327.595991 104.021228 
L 328.2174 334.933143 
L 328.403823 367.185607 
L 328.457086 367.436023 
L 328.51035 367.262174 
L 328.758914 365.364523 
L 329.273795 359.720604 
L 329.318182 359.14609 
L 329.335936 360.046537 
L 329.531236 364.03955 
L 329.620009 364.227558 
L 329.664395 364.170133 
L 329.815309 363.562843 
L 330.214786 360.743767 
L 332.176664 345.975547 
L 332.869091 342.751088 
L 333.428359 341.094412 
L 333.889977 340.35077 
L 334.262823 340.123692 
L 334.609036 340.160402 
L 335.061777 340.449625 
L 336.553159 341.54044 
L 337.156814 341.637198 
L 338.097805 341.527067 
L 339.580309 341.332504 
L 342.101455 341.368689 
L 345.723382 341.364756 
L 435.845455 341.366854 
L 435.845455 341.366854 
" clip-path="url(#pb80fa74c5d)" style="fill: none; stroke: #1f77b4; stroke-width: 1.5; stroke-linecap: square"/>
   </g>
   <g id="line2d_14">
    <path d="M 80.754545 341.435816 
L 81.074127 340.065718 
L 81.402586 339.450378 
L 81.668905 339.350805 
L 81.952977 339.509125 
L 83.462114 340.704682 
L 84.110155 340.687954 
L 86.072032 340.538537 
L 97.115359 340.558727 
L 151.772727 340.558762 
L 152.376382 292.728877 
L 152.456277 236.099869 
L 152.571682 67.022649 
L 152.660455 84.692844 
L 153.237477 295.052423 
L 153.486041 369.36 
L 153.503795 369.338827 
L 153.654709 368.61392 
L 154.098573 365.451035 
L 154.657841 359.653832 
L 156.726245 336.330635 
L 157.321023 332.650572 
L 157.7205 331.330001 
L 157.951309 331.135431 
L 158.119977 331.278455 
L 158.368541 331.868129 
L 159.318409 334.471588 
L 159.549218 334.488025 
L 159.833291 334.246248 
L 160.996214 333.036086 
L 161.369059 333.040153 
L 161.901695 333.312543 
L 162.611877 333.617246 
L 163.162268 333.584341 
L 164.742423 333.36593 
L 167.059391 333.440477 
L 169.216568 333.449051 
L 186.678164 333.442153 
L 329.318182 333.442153 
L 329.593377 344.777468 
L 329.833064 347.805926 
L 329.966223 348.053851 
L 329.992855 348.035636 
L 330.126014 347.730763 
L 330.472227 346.177209 
L 331.333323 342.408931 
L 331.848205 341.087117 
L 332.300945 340.481347 
L 332.7093 340.282715 
L 333.19755 340.310929 
L 335.035145 340.608548 
L 353.384468 340.558785 
L 435.845455 340.558762 
L 435.845455 340.558762 
" clip-path="url(#pb80fa74c5d)" style="fill: none; stroke: #ff0000; stroke-width: 1.5; stroke-linecap: square"/>
   </g>
   <g id="patch_3">
    <path d="M 63 384.48 
L 63 51.84 
" style="fill: none; stroke: #000000; stroke-width: 0.8; stroke-linejoin: miter; stroke-linecap: square"/>
   </g>
   <g id="patch_4">
    <path d="M 453.6 384.48 
L 453.6 51.84 
" style="fill: none; stroke: #000000; stroke-width: 0.8; stroke-linejoin: miter; stroke-linecap: square"/>
   </g>
   <g id="patch_5">
    <path d="M 63 384.48 
L 453.6 384.48 
" style="fill: none; stroke: #000000; stroke-width: 0.8; stroke-linejoin: miter; stroke-linecap: square"/>
   </g>
   <g id="patch_6">
    <path d="M 63 51.84 
L 453.6 51.84 
" style="fill: none; stroke: #000000; stroke-width: 0.8; stroke-linejoin: miter; stroke-linecap: square"/>
   </g>
   <g id="legend_1">
    <g id="patch_7">
     <path d="M 383.460938 89.19625 
L 446.6 89.19625 
Q 448.6 89.19625 448.6 87.19625 
L 448.6 58.84 
Q 448.6 56.84 446.6 56.84 
L 383.460938 56.84 
Q 381.460938 56.84 381.460938 58.84 
L 381.460938 87.19625 
Q 381.460938 89.19625 383.460938 89.19625 
z
" style="fill: #ffffff; opacity: 0.8; stroke: #cccccc; stroke-linejoin: miter"/>
    </g>
    <g id="line2d_15">
     <path d="M 385.460938 64.938437 
L 395.460938 64.938437 
L 405.460938 64.938437 
" style="fill: none; stroke: #1f77b4; stroke-width: 1.5; stroke-linecap: square"/>
    </g>
    <g id="text_15">
     <!-- target -->
     <g transform="translate(413.460938 68.438437)scale(0.1 -0.1)">
      <defs>
       <path id="DejaVuSans-72" d="M 2631 2963 
Q 2534 3019 2420 3045 
Q 2306 3072 2169 3072 
Q 1681 3072 1420 2755 
Q 1159 2438 1159 1844 
L 1159 0 
L 581 0 
L 581 3500 
L 1159 3500 
L 1159 2956 
Q 1341 3275 1631 3429 
Q 1922 3584 2338 3584 
Q 2397 3584 2469 3576 
Q 2541 3569 2628 3553 
L 2631 2963 
z
" transform="scale(0.015625)"/>
      </defs>
      <use xlink:href="#DejaVuSans-74"/>
      <use xlink:href="#DejaVuSans-61" x="39.208984"/>
      <use xlink:href="#DejaVuSans-72" x="100.488281"/>
      <use xlink:href="#DejaVuSans-67" x="139.851562"/>
      <use xlink:href="#DejaVuSans-65" x="203.328125"/>
      <use xlink:href="#DejaVuSans-74" x="264.851562"/>
     </g>
    </g>
    <g id="line2d_16">
     <path d="M 385.460938 79.616562 
L 395.460938 79.616562 
L 405.460938 79.616562 
" style="fill: none; stroke: #ff0000; stroke-width: 1.5; stroke-linecap: square"/>
    </g>
    <g id="text_16">
     <!-- model -->
     <g transform="translate(413.460938 83.116562)scale(0.1 -0.1)">
      <defs>
       <path id="DejaVuSans-64" d="M 2906 2969 
L 2906 4863 
L 3481 4863 
L 3481 0 
L 2906 0 
L 2906 525 
Q 2725 213 2448 61 
Q 2172 -91 1784 -91 
Q 1150 -91 751 415 
Q 353 922 353 1747 
Q 353 2572 751 3078 
Q 1150 3584 1784 3584 
Q 2172 3584 2448 3432 
Q 2725 3281 2906 2969 
z
M 947 1747 
Q 947 1113 1208 752 
Q 1469 391 1925 391 
Q 2381 391 2643 752 
Q 2906 1113 2906 1747 
Q 2906 2381 2643 2742 
Q 2381 3103 1925 3103 
Q 1469 3103 1208 2742 
Q 947 2381 947 1747 
z
" transform="scale(0.015625)"/>
      </defs>
      <use xlink:href="#DejaVuSans-6d"/>
      <use xlink:href="#DejaVuSans-6f" x="97.412109"/>
      <use xlink:href="#DejaVuSans-64" x="158.59375"/>
      <use xlink:href="#DejaVuSans-65" x="222.070312"/>
      <use xlink:href="#DejaVuSans-6c" x="283.59375"/>
     </g>
    </g>
   </g>
  </g>
 </g>
 <defs>
  <clipPath id="pb80fa74c5d">
   <rect x="63" y="51.84" width="390.6" height="332.64"/>
  </clipPath>
 </defs>
</svg>
