<?xml version="1.0" encoding="utf-8" standalone="no"?>
<!DOCTYPE svg PUBLIC "-//W3C//DTD SVG 1.1//EN"
  "http://www.w3.org/Graphics/SVG/1.1/DTD/svg11.dtd">
<svg xmlns:xlink="http://www.w3.org/1999/xlink" width="504pt" height="432pt" viewBox="0 0 504 432" xmlns="http://www.w3.org/2000/svg" version="1.1">
 <metadata>
  <rdf:RDF xmlns:dc="http://purl.org/dc/elements/1.1/" xmlns:cc="http://creativecommons.org/ns#" xmlns:rdf="http://www.w3.org/1999/02/22-rdf-syntax-ns#">
   <cc:Work>
    <dc:type rdf:resource="http://purl.org/dc/dcmitype/StillImage"/>
    <dc:date>2022-01-31T18:42:51.649428</dc:date>
    <dc:format>image/svg+xml</dc:format>
    <dc:creator>
     <cc:Agent>
      <dc:title>Matplotlib v3.5.1, https://matplotlib.org/</dc:title>
     </cc:Agent>
    </dc:creator>
   </cc:Work>
  </rdf:RDF>
 </metadata>
 <defs>
  <style type="text/css">*{stroke-linejoin: round; stroke-linecap: butt}</style>
 </defs>
 <g id="figure_1">
  <g id="patch_1">
   <path d="M 0 432 
L 504 432 
L 504 0 
L 0 0 
z
" style="fill: #ffffff"/>
  </g>
  <g id="axes_1">
   <g id="patch_2">
    <path d="M 63 384.48 
L 453.6 384.48 
L 453.6 51.84 
L 63 51.84 
z
" style="fill: #ffffff"/>
   </g>
   <g id="matplotlib.axis_1">
    <g id="xtick_1">
     <g id="line2d_1">
      <defs>
       <path id="mc46397ffdf" d="M 0 0 
L 0 3.5 
" style="stroke: #000000; stroke-width: 0.8"/>
      </defs>
      <g>
       <use xlink:href="#mc46397ffdf" x="80.754545" y="384.48" style="stroke: #000000; stroke-width: 0.8"/>
      </g>
     </g>
     <g id="text_1">
      <!-- 0 -->
      <g transform="translate(77.573295 399.078438)scale(0.1 -0.1)">
       <defs>
        <path id="DejaVuSans-30" d="M 2034 4250 
Q 1547 4250 1301 3770 
Q 1056 3291 1056 2328 
Q 1056 1369 1301 889 
Q 1547 409 2034 409 
Q 2525 409 2770 889 
Q 3016 1369 3016 2328 
Q 3016 3291 2770 3770 
Q 2525 4250 2034 4250 
z
M 2034 4750 
Q 2819 4750 3233 4129 
Q 3647 3509 3647 2328 
Q 3647 1150 3233 529 
Q 2819 -91 2034 -91 
Q 1250 -91 836 529 
Q 422 1150 422 2328 
Q 422 3509 836 4129 
Q 1250 4750 2034 4750 
z
" transform="scale(0.015625)"/>
       </defs>
       <use xlink:href="#DejaVuSans-30"/>
      </g>
     </g>
    </g>
    <g id="xtick_2">
     <g id="line2d_2">
      <g>
       <use xlink:href="#mc46397ffdf" x="151.772727" y="384.48" style="stroke: #000000; stroke-width: 0.8"/>
      </g>
     </g>
     <g id="text_2">
      <!-- 200 -->
      <g transform="translate(142.228977 399.078438)scale(0.1 -0.1)">
       <defs>
        <path id="DejaVuSans-32" d="M 1228 531 
L 3431 531 
L 3431 0 
L 469 0 
L 469 531 
Q 828 903 1448 1529 
Q 2069 2156 2228 2338 
Q 2531 2678 2651 2914 
Q 2772 3150 2772 3378 
Q 2772 3750 2511 3984 
Q 2250 4219 1831 4219 
Q 1534 4219 1204 4116 
Q 875 4013 500 3803 
L 500 4441 
Q 881 4594 1212 4672 
Q 1544 4750 1819 4750 
Q 2544 4750 2975 4387 
Q 3406 4025 3406 3419 
Q 3406 3131 3298 2873 
Q 3191 2616 2906 2266 
Q 2828 2175 2409 1742 
Q 1991 1309 1228 531 
z
" transform="scale(0.015625)"/>
       </defs>
       <use xlink:href="#DejaVuSans-32"/>
       <use xlink:href="#DejaVuSans-30" x="63.623047"/>
       <use xlink:href="#DejaVuSans-30" x="127.246094"/>
      </g>
     </g>
    </g>
    <g id="xtick_3">
     <g id="line2d_3">
      <g>
       <use xlink:href="#mc46397ffdf" x="222.790909" y="384.48" style="stroke: #000000; stroke-width: 0.8"/>
      </g>
     </g>
     <g id="text_3">
      <!-- 400 -->
      <g transform="translate(213.247159 399.078438)scale(0.1 -0.1)">
       <defs>
        <path id="DejaVuSans-34" d="M 2419 4116 
L 825 1625 
L 2419 1625 
L 2419 4116 
z
M 2253 4666 
L 3047 4666 
L 3047 1625 
L 3713 1625 
L 3713 1100 
L 3047 1100 
L 3047 0 
L 2419 0 
L 2419 1100 
L 313 1100 
L 313 1709 
L 2253 4666 
z
" transform="scale(0.015625)"/>
       </defs>
       <use xlink:href="#DejaVuSans-34"/>
       <use xlink:href="#DejaVuSans-30" x="63.623047"/>
       <use xlink:href="#DejaVuSans-30" x="127.246094"/>
      </g>
     </g>
    </g>
    <g id="xtick_4">
     <g id="line2d_4">
      <g>
       <use xlink:href="#mc46397ffdf" x="293.809091" y="384.48" style="stroke: #000000; stroke-width: 0.8"/>
      </g>
     </g>
     <g id="text_4">
      <!-- 600 -->
      <g transform="translate(284.265341 399.078438)scale(0.1 -0.1)">
       <defs>
        <path id="DejaVuSans-36" d="M 2113 2584 
Q 1688 2584 1439 2293 
Q 1191 2003 1191 1497 
Q 1191 994 1439 701 
Q 1688 409 2113 409 
Q 2538 409 2786 701 
Q 3034 994 3034 1497 
Q 3034 2003 2786 2293 
Q 2538 2584 2113 2584 
z
M 3366 4563 
L 3366 3988 
Q 3128 4100 2886 4159 
Q 2644 4219 2406 4219 
Q 1781 4219 1451 3797 
Q 1122 3375 1075 2522 
Q 1259 2794 1537 2939 
Q 1816 3084 2150 3084 
Q 2853 3084 3261 2657 
Q 3669 2231 3669 1497 
Q 3669 778 3244 343 
Q 2819 -91 2113 -91 
Q 1303 -91 875 529 
Q 447 1150 447 2328 
Q 447 3434 972 4092 
Q 1497 4750 2381 4750 
Q 2619 4750 2861 4703 
Q 3103 4656 3366 4563 
z
" transform="scale(0.015625)"/>
       </defs>
       <use xlink:href="#DejaVuSans-36"/>
       <use xlink:href="#DejaVuSans-30" x="63.623047"/>
       <use xlink:href="#DejaVuSans-30" x="127.246094"/>
      </g>
     </g>
    </g>
    <g id="xtick_5">
     <g id="line2d_5">
      <g>
       <use xlink:href="#mc46397ffdf" x="364.827273" y="384.48" style="stroke: #000000; stroke-width: 0.8"/>
      </g>
     </g>
     <g id="text_5">
      <!-- 800 -->
      <g transform="translate(355.283523 399.078438)scale(0.1 -0.1)">
       <defs>
        <path id="DejaVuSans-38" d="M 2034 2216 
Q 1584 2216 1326 1975 
Q 1069 1734 1069 1313 
Q 1069 891 1326 650 
Q 1584 409 2034 409 
Q 2484 409 2743 651 
Q 3003 894 3003 1313 
Q 3003 1734 2745 1975 
Q 2488 2216 2034 2216 
z
M 1403 2484 
Q 997 2584 770 2862 
Q 544 3141 544 3541 
Q 544 4100 942 4425 
Q 1341 4750 2034 4750 
Q 2731 4750 3128 4425 
Q 3525 4100 3525 3541 
Q 3525 3141 3298 2862 
Q 3072 2584 2669 2484 
Q 3125 2378 3379 2068 
Q 3634 1759 3634 1313 
Q 3634 634 3220 271 
Q 2806 -91 2034 -91 
Q 1263 -91 848 271 
Q 434 634 434 1313 
Q 434 1759 690 2068 
Q 947 2378 1403 2484 
z
M 1172 3481 
Q 1172 3119 1398 2916 
Q 1625 2713 2034 2713 
Q 2441 2713 2670 2916 
Q 2900 3119 2900 3481 
Q 2900 3844 2670 4047 
Q 2441 4250 2034 4250 
Q 1625 4250 1398 4047 
Q 1172 3844 1172 3481 
z
" transform="scale(0.015625)"/>
       </defs>
       <use xlink:href="#DejaVuSans-38"/>
       <use xlink:href="#DejaVuSans-30" x="63.623047"/>
       <use xlink:href="#DejaVuSans-30" x="127.246094"/>
      </g>
     </g>
    </g>
    <g id="text_6">
     <!-- time [ms] -->
     <g transform="translate(234.038281 412.756563)scale(0.1 -0.1)">
      <defs>
       <path id="DejaVuSans-74" d="M 1172 4494 
L 1172 3500 
L 2356 3500 
L 2356 3053 
L 1172 3053 
L 1172 1153 
Q 1172 725 1289 603 
Q 1406 481 1766 481 
L 2356 481 
L 2356 0 
L 1766 0 
Q 1100 0 847 248 
Q 594 497 594 1153 
L 594 3053 
L 172 3053 
L 172 3500 
L 594 3500 
L 594 4494 
L 1172 4494 
z
" transform="scale(0.015625)"/>
       <path id="DejaVuSans-69" d="M 603 3500 
L 1178 3500 
L 1178 0 
L 603 0 
L 603 3500 
z
M 603 4863 
L 1178 4863 
L 1178 4134 
L 603 4134 
L 603 4863 
z
" transform="scale(0.015625)"/>
       <path id="DejaVuSans-6d" d="M 3328 2828 
Q 3544 3216 3844 3400 
Q 4144 3584 4550 3584 
Q 5097 3584 5394 3201 
Q 5691 2819 5691 2113 
L 5691 0 
L 5113 0 
L 5113 2094 
Q 5113 2597 4934 2840 
Q 4756 3084 4391 3084 
Q 3944 3084 3684 2787 
Q 3425 2491 3425 1978 
L 3425 0 
L 2847 0 
L 2847 2094 
Q 2847 2600 2669 2842 
Q 2491 3084 2119 3084 
Q 1678 3084 1418 2786 
Q 1159 2488 1159 1978 
L 1159 0 
L 581 0 
L 581 3500 
L 1159 3500 
L 1159 2956 
Q 1356 3278 1631 3431 
Q 1906 3584 2284 3584 
Q 2666 3584 2933 3390 
Q 3200 3197 3328 2828 
z
" transform="scale(0.015625)"/>
       <path id="DejaVuSans-65" d="M 3597 1894 
L 3597 1613 
L 953 1613 
Q 991 1019 1311 708 
Q 1631 397 2203 397 
Q 2534 397 2845 478 
Q 3156 559 3463 722 
L 3463 178 
Q 3153 47 2828 -22 
Q 2503 -91 2169 -91 
Q 1331 -91 842 396 
Q 353 884 353 1716 
Q 353 2575 817 3079 
Q 1281 3584 2069 3584 
Q 2775 3584 3186 3129 
Q 3597 2675 3597 1894 
z
M 3022 2063 
Q 3016 2534 2758 2815 
Q 2500 3097 2075 3097 
Q 1594 3097 1305 2825 
Q 1016 2553 972 2059 
L 3022 2063 
z
" transform="scale(0.015625)"/>
       <path id="DejaVuSans-20" transform="scale(0.015625)"/>
       <path id="DejaVuSans-5b" d="M 550 4863 
L 1875 4863 
L 1875 4416 
L 1125 4416 
L 1125 -397 
L 1875 -397 
L 1875 -844 
L 550 -844 
L 550 4863 
z
" transform="scale(0.015625)"/>
       <path id="DejaVuSans-73" d="M 2834 3397 
L 2834 2853 
Q 2591 2978 2328 3040 
Q 2066 3103 1784 3103 
Q 1356 3103 1142 2972 
Q 928 2841 928 2578 
Q 928 2378 1081 2264 
Q 1234 2150 1697 2047 
L 1894 2003 
Q 2506 1872 2764 1633 
Q 3022 1394 3022 966 
Q 3022 478 2636 193 
Q 2250 -91 1575 -91 
Q 1294 -91 989 -36 
Q 684 19 347 128 
L 347 722 
Q 666 556 975 473 
Q 1284 391 1588 391 
Q 1994 391 2212 530 
Q 2431 669 2431 922 
Q 2431 1156 2273 1281 
Q 2116 1406 1581 1522 
L 1381 1569 
Q 847 1681 609 1914 
Q 372 2147 372 2553 
Q 372 3047 722 3315 
Q 1072 3584 1716 3584 
Q 2034 3584 2315 3537 
Q 2597 3491 2834 3397 
z
" transform="scale(0.015625)"/>
       <path id="DejaVuSans-5d" d="M 1947 4863 
L 1947 -844 
L 622 -844 
L 622 -397 
L 1369 -397 
L 1369 4416 
L 622 4416 
L 622 4863 
L 1947 4863 
z
" transform="scale(0.015625)"/>
      </defs>
      <use xlink:href="#DejaVuSans-74"/>
      <use xlink:href="#DejaVuSans-69" x="39.208984"/>
      <use xlink:href="#DejaVuSans-6d" x="66.992188"/>
      <use xlink:href="#DejaVuSans-65" x="164.404297"/>
      <use xlink:href="#DejaVuSans-20" x="225.927734"/>
      <use xlink:href="#DejaVuSans-5b" x="257.714844"/>
      <use xlink:href="#DejaVuSans-6d" x="296.728516"/>
      <use xlink:href="#DejaVuSans-73" x="394.140625"/>
      <use xlink:href="#DejaVuSans-5d" x="446.240234"/>
     </g>
    </g>
   </g>
   <g id="matplotlib.axis_2">
    <g id="ytick_1">
     <g id="line2d_6">
      <defs>
       <path id="m69a698f8af" d="M 0 0 
L -3.5 0 
" style="stroke: #000000; stroke-width: 0.8"/>
      </defs>
      <g>
       <use xlink:href="#m69a698f8af" x="63" y="378.73866" style="stroke: #000000; stroke-width: 0.8"/>
      </g>
     </g>
     <g id="text_7">
      <!-- −80 -->
      <g transform="translate(34.895313 382.537878)scale(0.1 -0.1)">
       <defs>
        <path id="DejaVuSans-2212" d="M 678 2272 
L 4684 2272 
L 4684 1741 
L 678 1741 
L 678 2272 
z
" transform="scale(0.015625)"/>
       </defs>
       <use xlink:href="#DejaVuSans-2212"/>
       <use xlink:href="#DejaVuSans-38" x="83.789062"/>
       <use xlink:href="#DejaVuSans-30" x="147.412109"/>
      </g>
     </g>
    </g>
    <g id="ytick_2">
     <g id="line2d_7">
      <g>
       <use xlink:href="#m69a698f8af" x="63" y="328.069447" style="stroke: #000000; stroke-width: 0.8"/>
      </g>
     </g>
     <g id="text_8">
      <!-- −60 -->
      <g transform="translate(34.895313 331.868665)scale(0.1 -0.1)">
       <use xlink:href="#DejaVuSans-2212"/>
       <use xlink:href="#DejaVuSans-36" x="83.789062"/>
       <use xlink:href="#DejaVuSans-30" x="147.412109"/>
      </g>
     </g>
    </g>
    <g id="ytick_3">
     <g id="line2d_8">
      <g>
       <use xlink:href="#m69a698f8af" x="63" y="277.400233" style="stroke: #000000; stroke-width: 0.8"/>
      </g>
     </g>
     <g id="text_9">
      <!-- −40 -->
      <g transform="translate(34.895313 281.199452)scale(0.1 -0.1)">
       <use xlink:href="#DejaVuSans-2212"/>
       <use xlink:href="#DejaVuSans-34" x="83.789062"/>
       <use xlink:href="#DejaVuSans-30" x="147.412109"/>
      </g>
     </g>
    </g>
    <g id="ytick_4">
     <g id="line2d_9">
      <g>
       <use xlink:href="#m69a698f8af" x="63" y="226.73102" style="stroke: #000000; stroke-width: 0.8"/>
      </g>
     </g>
     <g id="text_10">
      <!-- −20 -->
      <g transform="translate(34.895313 230.530239)scale(0.1 -0.1)">
       <use xlink:href="#DejaVuSans-2212"/>
       <use xlink:href="#DejaVuSans-32" x="83.789062"/>
       <use xlink:href="#DejaVuSans-30" x="147.412109"/>
      </g>
     </g>
    </g>
    <g id="ytick_5">
     <g id="line2d_10">
      <g>
       <use xlink:href="#m69a698f8af" x="63" y="176.061807" style="stroke: #000000; stroke-width: 0.8"/>
      </g>
     </g>
     <g id="text_11">
      <!-- 0 -->
      <g transform="translate(49.6375 179.861026)scale(0.1 -0.1)">
       <use xlink:href="#DejaVuSans-30"/>
      </g>
     </g>
    </g>
    <g id="ytick_6">
     <g id="line2d_11">
      <g>
       <use xlink:href="#m69a698f8af" x="63" y="125.392594" style="stroke: #000000; stroke-width: 0.8"/>
      </g>
     </g>
     <g id="text_12">
      <!-- 20 -->
      <g transform="translate(43.275 129.191813)scale(0.1 -0.1)">
       <use xlink:href="#DejaVuSans-32"/>
       <use xlink:href="#DejaVuSans-30" x="63.623047"/>
      </g>
     </g>
    </g>
    <g id="ytick_7">
     <g id="line2d_12">
      <g>
       <use xlink:href="#m69a698f8af" x="63" y="74.723381" style="stroke: #000000; stroke-width: 0.8"/>
      </g>
     </g>
     <g id="text_13">
      <!-- 40 -->
      <g transform="translate(43.275 78.5226)scale(0.1 -0.1)">
       <use xlink:href="#DejaVuSans-34"/>
       <use xlink:href="#DejaVuSans-30" x="63.623047"/>
      </g>
     </g>
    </g>
    <g id="text_14">
     <!-- voltage [mV] -->
     <g transform="translate(28.815625 250.624062)rotate(-90)scale(0.1 -0.1)">
      <defs>
       <path id="DejaVuSans-76" d="M 191 3500 
L 800 3500 
L 1894 563 
L 2988 3500 
L 3597 3500 
L 2284 0 
L 1503 0 
L 191 3500 
z
" transform="scale(0.015625)"/>
       <path id="DejaVuSans-6f" d="M 1959 3097 
Q 1497 3097 1228 2736 
Q 959 2375 959 1747 
Q 959 1119 1226 758 
Q 1494 397 1959 397 
Q 2419 397 2687 759 
Q 2956 1122 2956 1747 
Q 2956 2369 2687 2733 
Q 2419 3097 1959 3097 
z
M 1959 3584 
Q 2709 3584 3137 3096 
Q 3566 2609 3566 1747 
Q 3566 888 3137 398 
Q 2709 -91 1959 -91 
Q 1206 -91 779 398 
Q 353 888 353 1747 
Q 353 2609 779 3096 
Q 1206 3584 1959 3584 
z
" transform="scale(0.015625)"/>
       <path id="DejaVuSans-6c" d="M 603 4863 
L 1178 4863 
L 1178 0 
L 603 0 
L 603 4863 
z
" transform="scale(0.015625)"/>
       <path id="DejaVuSans-61" d="M 2194 1759 
Q 1497 1759 1228 1600 
Q 959 1441 959 1056 
Q 959 750 1161 570 
Q 1363 391 1709 391 
Q 2188 391 2477 730 
Q 2766 1069 2766 1631 
L 2766 1759 
L 2194 1759 
z
M 3341 1997 
L 3341 0 
L 2766 0 
L 2766 531 
Q 2569 213 2275 61 
Q 1981 -91 1556 -91 
Q 1019 -91 701 211 
Q 384 513 384 1019 
Q 384 1609 779 1909 
Q 1175 2209 1959 2209 
L 2766 2209 
L 2766 2266 
Q 2766 2663 2505 2880 
Q 2244 3097 1772 3097 
Q 1472 3097 1187 3025 
Q 903 2953 641 2809 
L 641 3341 
Q 956 3463 1253 3523 
Q 1550 3584 1831 3584 
Q 2591 3584 2966 3190 
Q 3341 2797 3341 1997 
z
" transform="scale(0.015625)"/>
       <path id="DejaVuSans-67" d="M 2906 1791 
Q 2906 2416 2648 2759 
Q 2391 3103 1925 3103 
Q 1463 3103 1205 2759 
Q 947 2416 947 1791 
Q 947 1169 1205 825 
Q 1463 481 1925 481 
Q 2391 481 2648 825 
Q 2906 1169 2906 1791 
z
M 3481 434 
Q 3481 -459 3084 -895 
Q 2688 -1331 1869 -1331 
Q 1566 -1331 1297 -1286 
Q 1028 -1241 775 -1147 
L 775 -588 
Q 1028 -725 1275 -790 
Q 1522 -856 1778 -856 
Q 2344 -856 2625 -561 
Q 2906 -266 2906 331 
L 2906 616 
Q 2728 306 2450 153 
Q 2172 0 1784 0 
Q 1141 0 747 490 
Q 353 981 353 1791 
Q 353 2603 747 3093 
Q 1141 3584 1784 3584 
Q 2172 3584 2450 3431 
Q 2728 3278 2906 2969 
L 2906 3500 
L 3481 3500 
L 3481 434 
z
" transform="scale(0.015625)"/>
       <path id="DejaVuSans-56" d="M 1831 0 
L 50 4666 
L 709 4666 
L 2188 738 
L 3669 4666 
L 4325 4666 
L 2547 0 
L 1831 0 
z
" transform="scale(0.015625)"/>
      </defs>
      <use xlink:href="#DejaVuSans-76"/>
      <use xlink:href="#DejaVuSans-6f" x="59.179688"/>
      <use xlink:href="#DejaVuSans-6c" x="120.361328"/>
      <use xlink:href="#DejaVuSans-74" x="148.144531"/>
      <use xlink:href="#DejaVuSans-61" x="187.353516"/>
      <use xlink:href="#DejaVuSans-67" x="248.632812"/>
      <use xlink:href="#DejaVuSans-65" x="312.109375"/>
      <use xlink:href="#DejaVuSans-20" x="373.632812"/>
      <use xlink:href="#DejaVuSans-5b" x="405.419922"/>
      <use xlink:href="#DejaVuSans-6d" x="444.433594"/>
      <use xlink:href="#DejaVuSans-56" x="541.845703"/>
      <use xlink:href="#DejaVuSans-5d" x="610.253906"/>
     </g>
    </g>
   </g>
   <g id="line2d_13">
    <path d="M 80.754545 340.73675 
L 81.979609 340.604503 
L 151.772727 340.67012 
L 152.314241 297.698067 
L 152.420768 250.757348 
L 152.562805 75.544729 
L 152.678209 99.883685 
L 153.565936 366.301395 
L 153.610323 366.204363 
L 153.8145 364.873536 
L 154.293873 360.285439 
L 154.959668 351.481917 
L 157.42755 313.945657 
L 157.613973 303.206064 
L 157.738255 282.005812 
L 157.835905 221.628884 
L 157.969064 99.057017 
L 158.031205 111.751175 
L 158.883423 365.891734 
L 158.945564 365.714645 
L 159.203005 363.804416 
L 159.717886 358.329101 
L 160.534595 346.817562 
L 161.8218 329.318949 
L 162.514227 319.313553 
L 162.771668 312.054935 
L 162.940336 300.481327 
L 163.064618 273.48933 
L 163.162268 192.030539 
L 163.268795 99.945249 
L 163.322059 109.127017 
L 163.863573 297.42952 
L 164.147645 365.721232 
L 164.183155 365.861079 
L 164.245295 365.686017 
L 164.493859 363.848751 
L 165.008741 358.392437 
L 165.834327 346.762079 
L 167.112655 329.3909 
L 167.813959 319.279351 
L 168.0714 312.01136 
L 168.240068 300.399749 
L 168.36435 273.251692 
L 168.462 191.31091 
L 168.568527 100.019479 
L 168.621791 109.341347 
L 169.172182 301.243645 
L 169.4385 365.638388 
L 169.482886 365.859052 
L 169.545027 365.68019 
L 169.802468 363.762107 
L 170.31735 358.269564 
L 171.151814 346.483145 
L 172.430141 329.156555 
L 173.113691 319.261617 
L 173.371132 311.976144 
L 173.5398 300.307278 
L 173.664082 272.925382 
L 173.761732 190.199708 
L 173.868259 100.035693 
L 173.921523 109.569106 
L 174.480791 305.173043 
L 174.729355 365.532743 
L 174.782618 365.859052 
L 174.844759 365.676137 
L 175.1022 363.755013 
L 175.617082 358.259177 
L 176.451545 346.470731 
L 177.729873 329.146167 
L 178.413423 319.245403 
L 178.670864 311.941436 
L 178.839532 300.21354 
L 178.963814 272.590458 
L 179.061464 189.055978 
L 179.167991 100.052414 
L 179.221255 109.799397 
L 179.7894 309.202005 
L 180.029086 365.54465 
L 180.08235 365.859306 
L 180.144491 365.67183 
L 180.401932 363.74792 
L 180.916814 358.249043 
L 181.751277 346.458824 
L 183.029605 329.136034 
L 183.713155 319.228936 
L 183.970595 311.906474 
L 184.139264 300.118789 
L 184.263545 272.247681 
L 184.361195 187.892131 
L 184.467723 100.075468 
L 184.520986 110.033236 
L 185.098009 313.319639 
L 185.328818 365.556304 
L 185.382082 365.859306 
L 185.444223 365.667776 
L 185.701664 363.740573 
L 186.216545 358.238909 
L 187.051009 346.446663 
L 188.329336 329.1259 
L 189.012886 319.212721 
L 189.270327 311.871259 
L 189.438995 300.022517 
L 189.563277 271.899837 
L 189.660927 186.723648 
L 189.767455 100.104097 
L 189.820718 110.269354 
L 190.406618 317.506942 
L 190.619673 365.427097 
L 190.681814 365.859052 
L 190.743955 365.663469 
L 191.010273 363.654942 
L 191.525155 358.11781 
L 192.368495 346.171023 
L 193.637945 329.004294 
L 194.312618 319.196001 
L 194.570059 311.836044 
L 194.738727 299.925739 
L 194.863009 271.548699 
L 194.969536 172.656456 
L 195.058309 100.091176 
L 195.12045 110.508006 
L 195.715227 321.738835 
L 195.919405 365.442045 
L 195.981545 365.859052 
L 196.043686 365.659162 
L 196.310005 363.647595 
L 196.833764 357.996204 
L 197.703736 345.632663 
L 198.955432 328.771469 
L 199.61235 319.179533 
L 199.869791 311.800322 
L 200.038459 299.827947 
L 200.162741 271.190468 
L 200.269268 171.437076 
L 200.358041 100.062801 
L 200.420182 110.750712 
L 201.023836 325.979595 
L 201.219136 365.456232 
L 201.281277 365.858546 
L 201.343418 365.654855 
L 201.609736 363.640248 
L 202.133495 357.985563 
L 202.994591 345.751735 
L 204.255164 328.761081 
L 204.912082 319.162559 
L 205.169523 311.764094 
L 205.338191 299.728636 
L 205.462473 270.82489 
L 205.569 170.209513 
L 205.657773 100.041267 
L 205.719914 110.995191 
L 206.332445 330.182859 
L 206.518868 365.47042 
L 206.581009 365.858292 
L 206.634273 365.695391 
L 206.873959 363.943503 
L 207.388841 358.527471 
L 208.187795 347.320454 
L 209.510509 329.306282 
L 210.202936 319.323687 
L 210.460377 312.106871 
L 210.629045 300.658416 
L 210.753327 274.171591 
L 210.850977 194.502031 
L 210.957505 100.026573 
L 211.019645 111.240683 
L 211.641055 334.29644 
L 211.827477 365.611027 
L 211.880741 365.857786 
L 211.934005 365.691337 
L 212.182568 363.859392 
L 212.69745 358.407638 
L 213.514159 346.912314 
L 214.810241 329.295895 
L 215.502668 319.30722 
L 215.760109 312.072163 
L 215.928777 300.565438 
L 216.053059 273.844015 
L 216.150709 193.364001 
L 216.257236 100.020492 
L 216.319377 111.485669 
L 216.949664 338.259025 
L 217.127209 365.62116 
L 217.171595 365.858292 
L 217.233736 365.687284 
L 217.4823 363.852298 
L 217.997182 358.397504 
L 218.822768 346.76816 
L 220.101095 329.396473 
L 220.8024 319.290752 
L 221.059841 312.037708 
L 221.228509 300.472713 
L 221.352791 273.515172 
L 221.450441 192.226528 
L 221.556968 100.020999 
L 221.610232 109.162738 
L 222.151745 297.482976 
L 222.426941 365.630788 
L 222.471327 365.858546 
L 222.533468 365.68323 
L 222.782032 363.845205 
L 223.296914 358.38737 
L 224.1225 346.755746 
L 225.418582 329.164408 
L 226.111009 319.095676 
L 226.36845 311.61994 
L 226.537118 299.329616 
L 226.652523 273.183795 
L 226.750173 191.08452 
L 226.8567 100.026826 
L 226.909964 109.392017 
L 227.460355 301.316355 
L 227.726673 365.640161 
L 227.771059 365.859052 
L 227.8332 365.679177 
L 228.090641 363.760334 
L 228.605523 358.267031 
L 229.439986 346.480105 
L 230.718314 329.154021 
L 231.401864 319.257817 
L 231.659305 311.968037 
L 231.827973 300.285997 
L 231.952255 272.850138 
L 232.049905 189.942309 
L 232.156432 100.03924 
L 232.209695 109.621042 
L 232.768964 305.248793 
L 233.017527 365.535529 
L 233.070791 365.859052 
L 233.132932 365.675123 
L 233.390373 363.75324 
L 233.905255 358.256897 
L 234.739718 346.467945 
L 236.018045 329.143887 
L 236.701595 319.241603 
L 236.959036 311.933582 
L 237.127705 300.192259 
L 237.251986 272.513441 
L 237.349636 188.793562 
L 237.456164 100.056974 
L 237.509427 109.852346 
L 238.077573 309.280036 
L 238.317259 365.547183 
L 238.370523 365.859306 
L 238.432664 365.67107 
L 238.690105 363.746146 
L 239.204986 358.246763 
L 240.03945 346.456037 
L 241.317777 329.133753 
L 242.001327 319.225389 
L 242.258768 311.898621 
L 242.427436 300.097001 
L 242.551718 272.168891 
L 242.649368 187.627004 
L 242.755895 100.081549 
L 242.809159 110.086692 
L 243.386182 313.399443 
L 243.616991 365.558837 
L 243.670255 365.859306 
L 243.732395 365.666763 
L 243.989836 363.739053 
L 244.504718 358.236629 
L 245.348059 346.312137 
L 246.617509 329.123366 
L 247.301059 319.208921 
L 247.5585 311.863405 
L 247.727168 300.000476 
L 247.85145 271.82054 
L 247.9491 186.457382 
L 248.055627 100.111697 
L 248.108891 110.323317 
L 248.694791 317.58852 
L 248.907845 365.430644 
L 248.969986 365.859052 
L 249.032127 365.662709 
L 249.298445 363.653422 
L 249.822205 358.004311 
L 250.692177 345.64229 
L 251.943873 328.779576 
L 252.600791 319.1922 
L 252.858232 311.827937 
L 253.0269 299.903444 
L 253.151182 271.467629 
L 253.257709 172.378839 
L 253.346482 100.084082 
L 253.408623 110.563236 
L 254.0034 321.821933 
L 254.207577 365.445338 
L 254.269718 365.858799 
L 254.331859 365.658402 
L 254.598177 363.646075 
L 255.121936 357.99367 
L 255.983032 345.761362 
L 257.22585 328.991626 
L 257.900523 319.175733 
L 258.157964 311.792215 
L 258.326632 299.805399 
L 258.450914 271.107624 
L 258.557441 171.156951 
L 258.646214 100.057228 
L 258.708355 110.806701 
L 259.312009 326.062692 
L 259.507309 365.459526 
L 259.56945 365.858546 
L 259.631591 365.653842 
L 259.897909 363.638474 
L 260.421668 357.983283 
L 261.291641 345.617715 
L 262.525582 328.981239 
L 263.200255 319.158759 
L 263.457695 311.755987 
L 263.626364 299.705834 
L 263.750645 270.740779 
L 263.857173 169.928882 
L 263.945945 100.037213 
L 264.008086 111.05118 
L 264.620618 330.26469 
L 264.807041 365.473713 
L 264.869182 365.858039 
L 264.922445 365.694631 
L 265.171009 363.864966 
L 265.685891 358.415745 
L 266.511477 346.789947 
L 267.807559 329.193036 
L 268.499986 319.142038 
L 268.757427 311.719758 
L 268.926095 299.606269 
L 269.050377 270.373934 
L 269.156905 168.709958 
L 269.245677 100.024546 
L 269.298941 108.758652 
L 269.8227 290.186356 
L 270.133405 365.773928 
L 270.168914 365.857786 
L 270.222177 365.690577 
L 270.470741 363.857872 
L 270.985623 358.405358 
L 271.802332 346.909527 
L 273.098414 329.293615 
L 273.790841 319.303419 
L 274.048282 312.064309 
L 274.21695 300.54441 
L 274.341232 273.769024 
L 274.438882 193.103662 
L 274.545409 100.020239 
L 274.598673 108.98641 
L 275.131309 293.822125 
L 275.424259 365.714138 
L 275.459768 365.858292 
L 275.521909 365.686524 
L 275.770473 363.850778 
L 276.285355 358.395224 
L 277.110941 346.765373 
L 278.389268 329.394193 
L 279.090573 319.286952 
L 279.348014 312.0296 
L 279.516682 300.451432 
L 279.640964 273.439674 
L 279.738614 191.966088 
L 279.845141 100.021506 
L 279.898405 109.215181 
L 280.439918 297.556193 
L 280.715114 365.632814 
L 280.7595 365.858799 
L 280.821641 365.68247 
L 281.079082 363.765907 
L 281.593964 358.274885 
L 282.428427 346.489479 
L 283.706755 329.161875 
L 284.390305 319.270484 
L 284.647745 311.994892 
L 284.816414 300.358201 
L 284.940695 273.107791 
L 285.038345 190.823978 
L 285.144873 100.029106 
L 285.198136 109.444206 
L 285.748527 301.390586 
L 286.014845 365.642188 
L 286.059232 365.859052 
L 286.121373 365.678163 
L 286.378814 363.758814 
L 286.902573 358.154039 
L 287.754791 346.082352 
L 289.006486 329.151741 
L 289.690036 319.25427 
L 289.947477 311.960184 
L 290.116145 300.264716 
L 290.240427 272.773628 
L 290.338077 189.680906 
L 290.444605 100.042787 
L 290.497868 109.673484 
L 291.057136 305.325304 
L 291.3057 365.538316 
L 291.358964 365.859306 
L 291.421105 365.67411 
L 291.678545 363.75172 
L 292.193427 358.254617 
L 293.027891 346.465158 
L 294.315095 329.030388 
L 294.989768 319.237803 
L 295.247209 311.925475 
L 295.415877 300.170724 
L 295.540159 272.435411 
L 295.637809 188.528384 
L 295.744336 100.062041 
L 295.7976 109.905549 
L 296.365745 309.358573 
L 296.605432 365.54997 
L 296.658695 365.859306 
L 296.720836 365.670056 
L 296.978277 363.744626 
L 297.493159 358.244483 
L 298.327623 346.45325 
L 299.60595 329.131473 
L 300.2895 319.221589 
L 300.546941 311.890513 
L 300.715609 300.07496 
L 300.839891 272.089847 
L 300.937541 187.361498 
L 301.044068 100.087882 
L 301.097332 110.140148 
L 301.674355 313.479247 
L 301.905164 365.561371 
L 301.958427 365.859306 
L 302.020568 365.666003 
L 302.286886 363.658995 
L 302.810645 358.012165 
L 303.671741 345.78315 
L 304.914559 329.010121 
L 305.589232 319.205121 
L 305.846673 311.855298 
L 306.015341 299.978688 
L 306.139623 271.740989 
L 306.24615 173.316676 
L 306.334923 100.109163 
L 306.397064 110.377533 
L 306.982964 317.670097 
L 307.196018 365.433938 
L 307.258159 365.859052 
L 307.3203 365.661696 
L 307.586618 363.651648 
L 308.110377 358.001778 
L 308.971473 345.77099 
L 310.214291 328.999733 
L 310.888964 319.188654 
L 311.146405 311.81983 
L 311.315073 299.881403 
L 311.439355 271.386305 
L 311.545882 172.102211 
L 311.634655 100.077495 
L 311.696795 110.618212 
L 312.291573 321.904523 
L 312.49575 365.448632 
L 312.557891 365.858799 
L 312.620032 365.657389 
L 312.88635 363.644301 
L 313.410109 357.99139 
L 314.280082 345.627089 
L 315.531777 328.766655 
L 316.188695 319.171679 
L 316.446136 311.783855 
L 316.614805 299.782852 
L 316.739086 271.025033 
L 316.845614 170.877891 
L 316.934386 100.052161 
L 316.996527 110.862184 
L 317.600182 326.145537 
L 317.795482 365.462819 
L 317.857623 365.858546 
L 317.910886 365.697671 
L 318.15945 363.870539 
L 318.674332 358.423599 
L 319.491041 346.931314 
L 320.796 329.20089 
L 321.488427 319.154959 
L 321.745868 311.747626 
L 321.914536 299.683033 
L 322.038818 270.656921 
L 322.145345 169.649593 
L 322.234118 100.033666 
L 322.296259 111.10717 
L 322.908791 330.346268 
L 323.095214 365.477007 
L 323.157355 365.858039 
L 323.210618 365.693617 
L 323.459182 363.863445 
L 323.974064 358.413212 
L 324.790773 346.918901 
L 326.095732 329.190503 
L 326.779282 319.316087 
L 327.036723 312.091164 
L 327.205391 300.616107 
L 327.329673 274.02237 
L 327.427323 193.983179 
L 327.53385 100.022772 
L 327.595991 111.352409 
L 328.2174 334.454021 
L 328.403823 365.615587 
L 328.457086 365.857532 
L 328.51035 365.689564 
L 328.758914 363.856098 
L 329.273795 358.403078 
L 329.318182 357.847996 
L 329.335936 358.717987 
L 329.531236 362.575941 
L 329.620009 362.75759 
L 329.664395 362.702107 
L 329.815309 362.115358 
L 330.214786 359.391634 
L 332.176664 345.12293 
L 332.869091 342.007534 
L 333.428359 340.406893 
L 333.889977 339.688404 
L 334.262823 339.469006 
L 334.617914 339.507768 
L 335.106164 339.81989 
L 336.553159 340.837835 
L 337.165691 340.93132 
L 338.115559 340.821621 
L 339.917645 340.624771 
L 435.845455 340.67012 
L 435.845455 340.67012 
" clip-path="url(#p25b3b24c38)" style="fill: none; stroke: #1f77b4; stroke-width: 1.5; stroke-linecap: square"/>
   </g>
   <g id="line2d_14">
    <path d="M 80.754545 340.73675 
L 81.06525 339.520374 
L 81.420341 338.850086 
L 81.668905 338.761108 
L 81.908591 338.930128 
L 82.325823 339.572078 
L 82.929477 340.40074 
L 83.302323 340.557493 
L 83.710677 340.472102 
L 85.184305 339.977225 
L 86.169682 340.097546 
L 87.332605 340.143499 
L 91.007795 340.114133 
L 120.782168 340.11163 
L 151.772727 340.11163 
L 152.260977 302.076589 
L 152.340873 242.248466 
L 152.438523 66.96 
L 152.536173 80.350428 
L 152.838 177.816272 
L 153.4239 368.714131 
L 153.512673 368.474477 
L 153.91215 366.589029 
L 154.382645 363.206561 
L 155.004055 356.915569 
L 156.744 338.482602 
L 158.217627 324.931626 
L 158.40405 319.222315 
L 158.528332 307.623048 
L 158.617105 274.58019 
L 158.697 117.564203 
L 158.750264 74.299503 
L 158.821282 83.582991 
L 159.0876 170.702722 
L 159.691255 368.641086 
L 159.762273 368.46222 
L 160.143995 366.676499 
L 160.614491 363.33653 
L 161.2359 357.088126 
L 163.002477 338.408873 
L 164.520491 324.541436 
L 164.698036 318.931764 
L 164.822318 306.946704 
L 164.911091 271.820351 
L 165.04425 74.473067 
L 165.195164 107.259656 
L 165.985241 368.635994 
L 166.100645 368.273265 
L 166.517877 366.166959 
L 167.006127 362.428269 
L 167.689677 355.195715 
L 169.118918 339.916646 
L 170.281841 330.518995 
L 170.716827 326.113058 
L 170.929882 321.43407 
L 171.071918 312.657495 
L 171.169568 291.229667 
L 171.240586 218.198653 
L 171.338236 74.519467 
L 171.400377 83.325826 
L 171.657818 167.234965 
L 172.27035 368.636962 
L 172.341368 368.461302 
L 172.723091 366.675391 
L 173.193586 363.334889 
L 173.814995 357.085992 
L 175.581573 338.408529 
L 177.099586 324.57722 
L 177.277132 319.04213 
L 177.401414 307.335702 
L 177.490186 273.650006 
L 177.578959 98.143788 
L 177.623345 74.50837 
L 177.694364 84.06985 
L 177.969559 174.563768 
L 178.564336 368.636761 
L 178.635355 368.449417 
L 179.017077 366.656397 
L 179.487573 363.306648 
L 180.108982 357.048574 
L 181.866682 338.456105 
L 183.393573 324.511911 
L 183.571118 318.869853 
L 183.6954 306.752767 
L 183.784173 270.925283 
L 183.917332 74.488402 
L 184.059368 104.768235 
L 184.734041 357.062913 
L 184.849445 368.635936 
L 184.876077 368.606 
L 185.089132 367.777809 
L 185.524118 365.279919 
L 186.039 360.896912 
L 186.908973 351.146489 
L 187.983123 339.985572 
L 189.128291 330.724976 
L 189.589909 326.097159 
L 189.802964 321.396407 
L 189.945 312.54073 
L 190.04265 290.767138 
L 190.113668 215.895937 
L 190.211318 74.54632 
L 190.273459 83.563404 
L 190.5309 167.609108 
L 191.143432 368.637115 
L 191.21445 368.457481 
L 191.596173 366.669268 
L 192.066668 363.325782 
L 192.688077 357.073919 
L 194.454655 338.399375 
L 195.972668 324.556275 
L 196.150214 318.987022 
L 196.274495 307.150237 
L 196.363268 272.789723 
L 196.496427 74.492514 
L 196.647341 106.895329 
L 197.437418 368.636379 
L 197.552823 368.2774 
L 197.970055 366.173474 
L 198.458305 362.437809 
L 199.141855 355.207882 
L 200.571095 339.926106 
L 201.725141 330.599691 
L 202.169005 326.129695 
L 202.382059 321.475136 
L 202.524095 312.786385 
L 202.621745 291.734327 
L 202.692764 220.698961 
L 202.790414 74.499495 
L 202.861432 85.077831 
L 203.154382 182.164565 
L 203.722527 368.63649 
L 203.8113 368.400899 
L 204.210777 366.475942 
L 204.69015 362.962344 
L 205.329314 356.394744 
L 206.953855 339.110588 
L 208.587273 323.858334 
L 208.755941 317.606892 
L 208.871345 304.142948 
L 208.951241 266.978693 
L 209.075523 74.537963 
L 209.208682 100.591457 
L 209.847845 331.557263 
L 210.016514 368.637023 
L 210.087532 368.453686 
L 210.469255 366.663205 
L 210.93975 363.316767 
L 211.561159 357.061974 
L 213.318859 338.466284 
L 214.84575 324.53539 
L 215.023295 318.931924 
L 215.147577 306.964346 
L 215.23635 271.924152 
L 215.369509 74.485513 
L 215.520423 107.234526 
L 216.3105 368.635827 
L 216.425905 368.273271 
L 216.843136 366.166973 
L 217.331386 362.42829 
L 218.014936 355.195745 
L 219.444177 339.916719 
L 220.6071 330.519368 
L 221.042086 326.114449 
L 221.255141 321.438272 
L 221.397177 312.67149 
L 221.494827 291.285546 
L 221.565845 218.477896 
L 221.663495 74.51738 
L 221.725636 83.297579 
L 221.983077 167.190313 
L 222.595609 368.636912 
L 222.666627 368.461744 
L 223.04835 366.676101 
L 223.518845 363.335945 
L 224.140255 357.087392 
L 225.906832 338.409595 
L 227.424845 324.579739 
L 227.602391 319.04879 
L 227.726673 307.358132 
L 227.815445 273.75371 
L 227.904218 98.355522 
L 227.948605 74.511143 
L 228.019623 84.040146 
L 228.294818 174.518508 
L 228.889595 368.636795 
L 228.960614 368.449886 
L 229.342336 366.657145 
L 229.812832 363.30776 
L 230.434241 357.050046 
L 232.191941 338.457222 
L 233.718832 324.514504 
L 233.896377 318.876721 
L 234.020659 306.77637 
L 234.109432 271.037043 
L 234.242591 74.487534 
L 234.384627 104.726675 
L 235.050423 353.346272 
L 235.174705 368.635855 
L 235.192459 368.624114 
L 235.343373 368.088492 
L 235.769482 365.821229 
L 236.266609 361.84326 
L 237.003423 353.840267 
L 238.272873 340.306306 
L 239.382532 331.294787 
L 239.897414 326.350539 
L 240.119345 321.706019 
L 240.261382 313.488361 
L 240.367909 290.824533 
L 240.438927 216.182099 
L 240.536577 74.542648 
L 240.598718 83.534218 
L 240.856159 167.563366 
L 241.468691 368.63711 
L 241.539709 368.457948 
L 241.921432 366.670015 
L 242.391927 363.326892 
L 243.013336 357.075391 
L 244.779914 338.400491 
L 246.297927 324.558843 
L 246.475473 318.993787 
L 246.599755 307.173032 
L 246.688527 272.895774 
L 246.821686 74.493858 
L 246.9726 106.853037 
L 247.762677 368.636435 
L 247.878082 368.27792 
L 248.295314 366.174293 
L 248.783564 362.439008 
L 249.467114 355.209411 
L 250.896355 339.927288 
L 252.0504 330.600752 
L 252.494264 326.131584 
L 252.707318 321.479681 
L 252.849355 312.800446 
L 252.947005 291.788903 
L 253.018023 220.966424 
L 253.115673 74.497688 
L 253.186691 85.047359 
L 253.479641 182.120166 
L 254.047786 368.636431 
L 254.136559 368.401386 
L 254.536036 366.476715 
L 255.006532 363.040913 
L 255.645695 356.497415 
L 257.287991 339.034064 
L 258.903655 324.057148 
L 259.072323 318.147602 
L 259.196605 304.170743 
L 259.2765 267.101422 
L 259.400782 74.541988 
L 259.542818 103.306694 
L 260.199736 346.785027 
L 260.341773 368.63704 
L 260.35065 368.630716 
L 260.474932 368.216253 
L 260.892164 366.077537 
L 261.380414 362.297662 
L 262.072841 354.926828 
L 263.466573 340.027064 
L 264.611741 330.76227 
L 265.073359 326.164029 
L 265.286414 321.557751 
L 265.42845 313.040204 
L 265.5261 292.710071 
L 265.597118 225.46945 
L 265.694768 74.485817 
L 265.765786 84.526003 
L 266.049859 178.311374 
L 266.635759 368.635906 
L 266.715655 368.409724 
L 267.115132 366.489976 
L 267.585627 363.060438 
L 268.224791 356.522997 
L 269.875964 338.97618 
L 271.48275 324.105475 
L 271.651418 318.276259 
L 271.7757 304.646335 
L 271.864473 260.333236 
L 271.988755 74.514916 
L 272.104159 97.199198 
L 272.725568 314.695929 
L 272.920868 368.636869 
L 272.929745 368.633252 
L 273.036273 368.29562 
L 273.444627 366.256764 
L 273.924 362.63978 
L 274.589795 355.671621 
L 276.090055 339.650795 
L 277.794491 323.63281 
L 277.963159 316.971299 
L 278.078564 301.870446 
L 278.158459 256.50528 
L 278.273864 74.513913 
L 278.389268 95.572873 
L 279.0018 306.971932 
L 279.214855 368.63683 
L 279.223732 368.629333 
L 279.356891 368.176031 
L 279.774123 366.014771 
L 280.262373 362.20636 
L 280.963677 354.708259 
L 282.330777 340.097297 
L 283.467068 330.896559 
L 283.946441 326.14883 
L 284.159495 321.5212 
L 284.301532 312.928445 
L 284.399182 292.283236 
L 284.4702 223.382815 
L 284.56785 74.486747 
L 284.638868 84.76975 
L 284.922941 178.673397 
L 285.499964 368.635775 
L 285.579859 368.438399 
L 285.970459 366.587635 
L 286.440955 363.204652 
L 287.071241 356.813454 
L 288.775677 338.73561 
L 290.346955 324.270323 
L 290.5245 318.215614 
L 290.648782 304.423133 
L 290.728677 268.212898 
L 290.861836 74.539146 
L 290.994995 102.932911 
L 291.643036 341.227323 
L 291.79395 368.637101 
L 291.802827 368.632157 
L 291.918232 368.256471 
L 292.335464 366.140558 
L 292.823714 362.389643 
L 293.507264 355.146537 
L 294.927627 339.958153 
L 296.081673 330.628669 
L 296.525536 326.181104 
L 296.738591 321.598714 
L 296.880627 313.164543 
L 296.978277 293.181133 
L 297.049295 227.756976 
L 297.146945 74.495481 
L 297.226841 86.349232 
L 297.5553 195.919174 
L 298.087936 368.636486 
L 298.185586 368.347337 
L 298.593941 366.338082 
L 299.073314 362.759014 
L 299.730232 355.92749 
L 301.274877 339.454519 
L 302.952682 323.73722 
L 303.12135 317.268607 
L 303.236755 302.953552 
L 303.31665 261.631246 
L 303.440932 74.495993 
L 303.556336 96.847894 
L 304.177745 314.037252 
L 304.373045 368.63637 
L 304.381923 368.634321 
L 304.479573 368.334674 
L 304.887927 366.318104 
L 305.3673 362.729673 
L 306.024218 355.889579 
L 307.559986 339.503854 
L 309.246668 323.660482 
L 309.415336 317.05075 
L 309.530741 302.162886 
L 309.610636 257.911908 
L 309.726041 74.546129 
L 309.841445 95.229712 
L 310.453977 306.361689 
L 310.667032 368.637056 
L 310.675909 368.630878 
L 310.800191 368.216769 
L 311.217423 366.078344 
L 311.705673 362.298837 
L 312.3981 354.928316 
L 313.791832 340.028215 
L 314.937 330.76331 
L 315.398618 326.165885 
L 315.611673 321.562215 
L 315.753709 313.053776 
L 315.851359 292.761553 
L 315.922377 225.719491 
L 316.020027 74.486312 
L 316.091045 84.496739 
L 316.375118 178.267763 
L 316.961018 368.63598 
L 317.040914 368.410191 
L 317.440391 366.49072 
L 317.910886 363.061534 
L 318.55005 356.524434 
L 320.201223 338.977283 
L 321.808009 324.108216 
L 321.976677 318.283545 
L 322.100959 304.673093 
L 322.189732 260.475824 
L 322.314014 74.512572 
L 322.429418 97.161387 
L 323.050827 314.625156 
L 323.246127 368.636821 
L 323.255005 368.63337 
L 323.361532 368.296118 
L 323.769886 366.257544 
L 324.249259 362.640921 
L 324.915055 355.673089 
L 326.415314 339.651928 
L 328.11975 323.635824 
L 328.288418 316.979984 
L 328.403823 301.902472 
L 328.483718 256.660019 
L 328.599123 74.516836 
L 328.714527 95.535292 
L 329.327059 307.164284 
L 329.540114 369.36 
L 329.548991 369.359366 
L 329.655518 369.122809 
L 330.063873 367.662121 
L 330.534368 365.088877 
L 331.1469 360.333815 
L 333.00225 345.046529 
L 333.676923 341.606647 
L 334.191805 339.969635 
L 334.591282 339.324872 
L 334.884232 339.212188 
L 335.177182 339.351652 
L 335.789714 339.988638 
L 336.304595 340.349236 
L 336.748459 340.390298 
L 337.485273 340.180048 
L 338.337491 340.025808 
L 339.491536 340.108472 
L 341.00955 340.120074 
L 344.959936 340.111491 
L 399.706077 340.11163 
L 435.845455 340.11163 
L 435.845455 340.11163 
" clip-path="url(#p25b3b24c38)" style="fill: none; stroke: #ff0000; stroke-width: 1.5; stroke-linecap: square"/>
   </g>
   <g id="patch_3">
    <path d="M 63 384.48 
L 63 51.84 
" style="fill: none; stroke: #000000; stroke-width: 0.8; stroke-linejoin: miter; stroke-linecap: square"/>
   </g>
   <g id="patch_4">
    <path d="M 453.6 384.48 
L 453.6 51.84 
" style="fill: none; stroke: #000000; stroke-width: 0.8; stroke-linejoin: miter; stroke-linecap: square"/>
   </g>
   <g id="patch_5">
    <path d="M 63 384.48 
L 453.6 384.48 
" style="fill: none; stroke: #000000; stroke-width: 0.8; stroke-linejoin: miter; stroke-linecap: square"/>
   </g>
   <g id="patch_6">
    <path d="M 63 51.84 
L 453.6 51.84 
" style="fill: none; stroke: #000000; stroke-width: 0.8; stroke-linejoin: miter; stroke-linecap: square"/>
   </g>
   <g id="legend_1">
    <g id="patch_7">
     <path d="M 383.460938 89.19625 
L 446.6 89.19625 
Q 448.6 89.19625 448.6 87.19625 
L 448.6 58.84 
Q 448.6 56.84 446.6 56.84 
L 383.460938 56.84 
Q 381.460938 56.84 381.460938 58.84 
L 381.460938 87.19625 
Q 381.460938 89.19625 383.460938 89.19625 
z
" style="fill: #ffffff; opacity: 0.8; stroke: #cccccc; stroke-linejoin: miter"/>
    </g>
    <g id="line2d_15">
     <path d="M 385.460938 64.938437 
L 395.460938 64.938437 
L 405.460938 64.938437 
" style="fill: none; stroke: #1f77b4; stroke-width: 1.5; stroke-linecap: square"/>
    </g>
    <g id="text_15">
     <!-- target -->
     <g transform="translate(413.460938 68.438437)scale(0.1 -0.1)">
      <defs>
       <path id="DejaVuSans-72" d="M 2631 2963 
Q 2534 3019 2420 3045 
Q 2306 3072 2169 3072 
Q 1681 3072 1420 2755 
Q 1159 2438 1159 1844 
L 1159 0 
L 581 0 
L 581 3500 
L 1159 3500 
L 1159 2956 
Q 1341 3275 1631 3429 
Q 1922 3584 2338 3584 
Q 2397 3584 2469 3576 
Q 2541 3569 2628 3553 
L 2631 2963 
z
" transform="scale(0.015625)"/>
      </defs>
      <use xlink:href="#DejaVuSans-74"/>
      <use xlink:href="#DejaVuSans-61" x="39.208984"/>
      <use xlink:href="#DejaVuSans-72" x="100.488281"/>
      <use xlink:href="#DejaVuSans-67" x="139.851562"/>
      <use xlink:href="#DejaVuSans-65" x="203.328125"/>
      <use xlink:href="#DejaVuSans-74" x="264.851562"/>
     </g>
    </g>
    <g id="line2d_16">
     <path d="M 385.460938 79.616562 
L 395.460938 79.616562 
L 405.460938 79.616562 
" style="fill: none; stroke: #ff0000; stroke-width: 1.5; stroke-linecap: square"/>
    </g>
    <g id="text_16">
     <!-- model -->
     <g transform="translate(413.460938 83.116562)scale(0.1 -0.1)">
      <defs>
       <path id="DejaVuSans-64" d="M 2906 2969 
L 2906 4863 
L 3481 4863 
L 3481 0 
L 2906 0 
L 2906 525 
Q 2725 213 2448 61 
Q 2172 -91 1784 -91 
Q 1150 -91 751 415 
Q 353 922 353 1747 
Q 353 2572 751 3078 
Q 1150 3584 1784 3584 
Q 2172 3584 2448 3432 
Q 2725 3281 2906 2969 
z
M 947 1747 
Q 947 1113 1208 752 
Q 1469 391 1925 391 
Q 2381 391 2643 752 
Q 2906 1113 2906 1747 
Q 2906 2381 2643 2742 
Q 2381 3103 1925 3103 
Q 1469 3103 1208 2742 
Q 947 2381 947 1747 
z
" transform="scale(0.015625)"/>
      </defs>
      <use xlink:href="#DejaVuSans-6d"/>
      <use xlink:href="#DejaVuSans-6f" x="97.412109"/>
      <use xlink:href="#DejaVuSans-64" x="158.59375"/>
      <use xlink:href="#DejaVuSans-65" x="222.070312"/>
      <use xlink:href="#DejaVuSans-6c" x="283.59375"/>
     </g>
    </g>
   </g>
  </g>
 </g>
 <defs>
  <clipPath id="p25b3b24c38">
   <rect x="63" y="51.84" width="390.6" height="332.64"/>
  </clipPath>
 </defs>
</svg>
