<?xml version="1.0" encoding="utf-8" standalone="no"?>
<!DOCTYPE svg PUBLIC "-//W3C//DTD SVG 1.1//EN"
  "http://www.w3.org/Graphics/SVG/1.1/DTD/svg11.dtd">
<svg xmlns:xlink="http://www.w3.org/1999/xlink" width="504pt" height="432pt" viewBox="0 0 504 432" xmlns="http://www.w3.org/2000/svg" version="1.1">
 <metadata>
  <rdf:RDF xmlns:dc="http://purl.org/dc/elements/1.1/" xmlns:cc="http://creativecommons.org/ns#" xmlns:rdf="http://www.w3.org/1999/02/22-rdf-syntax-ns#">
   <cc:Work>
    <dc:type rdf:resource="http://purl.org/dc/dcmitype/StillImage"/>
    <dc:date>2022-01-31T18:30:15.794491</dc:date>
    <dc:format>image/svg+xml</dc:format>
    <dc:creator>
     <cc:Agent>
      <dc:title>Matplotlib v3.5.1, https://matplotlib.org/</dc:title>
     </cc:Agent>
    </dc:creator>
   </cc:Work>
  </rdf:RDF>
 </metadata>
 <defs>
  <style type="text/css">*{stroke-linejoin: round; stroke-linecap: butt}</style>
 </defs>
 <g id="figure_1">
  <g id="patch_1">
   <path d="M 0 432 
L 504 432 
L 504 0 
L 0 0 
z
" style="fill: #ffffff"/>
  </g>
  <g id="axes_1">
   <g id="patch_2">
    <path d="M 63 384.48 
L 453.6 384.48 
L 453.6 51.84 
L 63 51.84 
z
" style="fill: #ffffff"/>
   </g>
   <g id="matplotlib.axis_1">
    <g id="xtick_1">
     <g id="line2d_1">
      <defs>
       <path id="me6c1c63871" d="M 0 0 
L 0 3.5 
" style="stroke: #000000; stroke-width: 0.8"/>
      </defs>
      <g>
       <use xlink:href="#me6c1c63871" x="80.754545" y="384.48" style="stroke: #000000; stroke-width: 0.8"/>
      </g>
     </g>
     <g id="text_1">
      <!-- 0 -->
      <g transform="translate(77.573295 399.078438)scale(0.1 -0.1)">
       <defs>
        <path id="DejaVuSans-30" d="M 2034 4250 
Q 1547 4250 1301 3770 
Q 1056 3291 1056 2328 
Q 1056 1369 1301 889 
Q 1547 409 2034 409 
Q 2525 409 2770 889 
Q 3016 1369 3016 2328 
Q 3016 3291 2770 3770 
Q 2525 4250 2034 4250 
z
M 2034 4750 
Q 2819 4750 3233 4129 
Q 3647 3509 3647 2328 
Q 3647 1150 3233 529 
Q 2819 -91 2034 -91 
Q 1250 -91 836 529 
Q 422 1150 422 2328 
Q 422 3509 836 4129 
Q 1250 4750 2034 4750 
z
" transform="scale(0.015625)"/>
       </defs>
       <use xlink:href="#DejaVuSans-30"/>
      </g>
     </g>
    </g>
    <g id="xtick_2">
     <g id="line2d_2">
      <g>
       <use xlink:href="#me6c1c63871" x="151.772727" y="384.48" style="stroke: #000000; stroke-width: 0.8"/>
      </g>
     </g>
     <g id="text_2">
      <!-- 200 -->
      <g transform="translate(142.228977 399.078438)scale(0.1 -0.1)">
       <defs>
        <path id="DejaVuSans-32" d="M 1228 531 
L 3431 531 
L 3431 0 
L 469 0 
L 469 531 
Q 828 903 1448 1529 
Q 2069 2156 2228 2338 
Q 2531 2678 2651 2914 
Q 2772 3150 2772 3378 
Q 2772 3750 2511 3984 
Q 2250 4219 1831 4219 
Q 1534 4219 1204 4116 
Q 875 4013 500 3803 
L 500 4441 
Q 881 4594 1212 4672 
Q 1544 4750 1819 4750 
Q 2544 4750 2975 4387 
Q 3406 4025 3406 3419 
Q 3406 3131 3298 2873 
Q 3191 2616 2906 2266 
Q 2828 2175 2409 1742 
Q 1991 1309 1228 531 
z
" transform="scale(0.015625)"/>
       </defs>
       <use xlink:href="#DejaVuSans-32"/>
       <use xlink:href="#DejaVuSans-30" x="63.623047"/>
       <use xlink:href="#DejaVuSans-30" x="127.246094"/>
      </g>
     </g>
    </g>
    <g id="xtick_3">
     <g id="line2d_3">
      <g>
       <use xlink:href="#me6c1c63871" x="222.790909" y="384.48" style="stroke: #000000; stroke-width: 0.8"/>
      </g>
     </g>
     <g id="text_3">
      <!-- 400 -->
      <g transform="translate(213.247159 399.078438)scale(0.1 -0.1)">
       <defs>
        <path id="DejaVuSans-34" d="M 2419 4116 
L 825 1625 
L 2419 1625 
L 2419 4116 
z
M 2253 4666 
L 3047 4666 
L 3047 1625 
L 3713 1625 
L 3713 1100 
L 3047 1100 
L 3047 0 
L 2419 0 
L 2419 1100 
L 313 1100 
L 313 1709 
L 2253 4666 
z
" transform="scale(0.015625)"/>
       </defs>
       <use xlink:href="#DejaVuSans-34"/>
       <use xlink:href="#DejaVuSans-30" x="63.623047"/>
       <use xlink:href="#DejaVuSans-30" x="127.246094"/>
      </g>
     </g>
    </g>
    <g id="xtick_4">
     <g id="line2d_4">
      <g>
       <use xlink:href="#me6c1c63871" x="293.809091" y="384.48" style="stroke: #000000; stroke-width: 0.8"/>
      </g>
     </g>
     <g id="text_4">
      <!-- 600 -->
      <g transform="translate(284.265341 399.078438)scale(0.1 -0.1)">
       <defs>
        <path id="DejaVuSans-36" d="M 2113 2584 
Q 1688 2584 1439 2293 
Q 1191 2003 1191 1497 
Q 1191 994 1439 701 
Q 1688 409 2113 409 
Q 2538 409 2786 701 
Q 3034 994 3034 1497 
Q 3034 2003 2786 2293 
Q 2538 2584 2113 2584 
z
M 3366 4563 
L 3366 3988 
Q 3128 4100 2886 4159 
Q 2644 4219 2406 4219 
Q 1781 4219 1451 3797 
Q 1122 3375 1075 2522 
Q 1259 2794 1537 2939 
Q 1816 3084 2150 3084 
Q 2853 3084 3261 2657 
Q 3669 2231 3669 1497 
Q 3669 778 3244 343 
Q 2819 -91 2113 -91 
Q 1303 -91 875 529 
Q 447 1150 447 2328 
Q 447 3434 972 4092 
Q 1497 4750 2381 4750 
Q 2619 4750 2861 4703 
Q 3103 4656 3366 4563 
z
" transform="scale(0.015625)"/>
       </defs>
       <use xlink:href="#DejaVuSans-36"/>
       <use xlink:href="#DejaVuSans-30" x="63.623047"/>
       <use xlink:href="#DejaVuSans-30" x="127.246094"/>
      </g>
     </g>
    </g>
    <g id="xtick_5">
     <g id="line2d_5">
      <g>
       <use xlink:href="#me6c1c63871" x="364.827273" y="384.48" style="stroke: #000000; stroke-width: 0.8"/>
      </g>
     </g>
     <g id="text_5">
      <!-- 800 -->
      <g transform="translate(355.283523 399.078438)scale(0.1 -0.1)">
       <defs>
        <path id="DejaVuSans-38" d="M 2034 2216 
Q 1584 2216 1326 1975 
Q 1069 1734 1069 1313 
Q 1069 891 1326 650 
Q 1584 409 2034 409 
Q 2484 409 2743 651 
Q 3003 894 3003 1313 
Q 3003 1734 2745 1975 
Q 2488 2216 2034 2216 
z
M 1403 2484 
Q 997 2584 770 2862 
Q 544 3141 544 3541 
Q 544 4100 942 4425 
Q 1341 4750 2034 4750 
Q 2731 4750 3128 4425 
Q 3525 4100 3525 3541 
Q 3525 3141 3298 2862 
Q 3072 2584 2669 2484 
Q 3125 2378 3379 2068 
Q 3634 1759 3634 1313 
Q 3634 634 3220 271 
Q 2806 -91 2034 -91 
Q 1263 -91 848 271 
Q 434 634 434 1313 
Q 434 1759 690 2068 
Q 947 2378 1403 2484 
z
M 1172 3481 
Q 1172 3119 1398 2916 
Q 1625 2713 2034 2713 
Q 2441 2713 2670 2916 
Q 2900 3119 2900 3481 
Q 2900 3844 2670 4047 
Q 2441 4250 2034 4250 
Q 1625 4250 1398 4047 
Q 1172 3844 1172 3481 
z
" transform="scale(0.015625)"/>
       </defs>
       <use xlink:href="#DejaVuSans-38"/>
       <use xlink:href="#DejaVuSans-30" x="63.623047"/>
       <use xlink:href="#DejaVuSans-30" x="127.246094"/>
      </g>
     </g>
    </g>
    <g id="text_6">
     <!-- time [ms] -->
     <g transform="translate(234.038281 412.756563)scale(0.1 -0.1)">
      <defs>
       <path id="DejaVuSans-74" d="M 1172 4494 
L 1172 3500 
L 2356 3500 
L 2356 3053 
L 1172 3053 
L 1172 1153 
Q 1172 725 1289 603 
Q 1406 481 1766 481 
L 2356 481 
L 2356 0 
L 1766 0 
Q 1100 0 847 248 
Q 594 497 594 1153 
L 594 3053 
L 172 3053 
L 172 3500 
L 594 3500 
L 594 4494 
L 1172 4494 
z
" transform="scale(0.015625)"/>
       <path id="DejaVuSans-69" d="M 603 3500 
L 1178 3500 
L 1178 0 
L 603 0 
L 603 3500 
z
M 603 4863 
L 1178 4863 
L 1178 4134 
L 603 4134 
L 603 4863 
z
" transform="scale(0.015625)"/>
       <path id="DejaVuSans-6d" d="M 3328 2828 
Q 3544 3216 3844 3400 
Q 4144 3584 4550 3584 
Q 5097 3584 5394 3201 
Q 5691 2819 5691 2113 
L 5691 0 
L 5113 0 
L 5113 2094 
Q 5113 2597 4934 2840 
Q 4756 3084 4391 3084 
Q 3944 3084 3684 2787 
Q 3425 2491 3425 1978 
L 3425 0 
L 2847 0 
L 2847 2094 
Q 2847 2600 2669 2842 
Q 2491 3084 2119 3084 
Q 1678 3084 1418 2786 
Q 1159 2488 1159 1978 
L 1159 0 
L 581 0 
L 581 3500 
L 1159 3500 
L 1159 2956 
Q 1356 3278 1631 3431 
Q 1906 3584 2284 3584 
Q 2666 3584 2933 3390 
Q 3200 3197 3328 2828 
z
" transform="scale(0.015625)"/>
       <path id="DejaVuSans-65" d="M 3597 1894 
L 3597 1613 
L 953 1613 
Q 991 1019 1311 708 
Q 1631 397 2203 397 
Q 2534 397 2845 478 
Q 3156 559 3463 722 
L 3463 178 
Q 3153 47 2828 -22 
Q 2503 -91 2169 -91 
Q 1331 -91 842 396 
Q 353 884 353 1716 
Q 353 2575 817 3079 
Q 1281 3584 2069 3584 
Q 2775 3584 3186 3129 
Q 3597 2675 3597 1894 
z
M 3022 2063 
Q 3016 2534 2758 2815 
Q 2500 3097 2075 3097 
Q 1594 3097 1305 2825 
Q 1016 2553 972 2059 
L 3022 2063 
z
" transform="scale(0.015625)"/>
       <path id="DejaVuSans-20" transform="scale(0.015625)"/>
       <path id="DejaVuSans-5b" d="M 550 4863 
L 1875 4863 
L 1875 4416 
L 1125 4416 
L 1125 -397 
L 1875 -397 
L 1875 -844 
L 550 -844 
L 550 4863 
z
" transform="scale(0.015625)"/>
       <path id="DejaVuSans-73" d="M 2834 3397 
L 2834 2853 
Q 2591 2978 2328 3040 
Q 2066 3103 1784 3103 
Q 1356 3103 1142 2972 
Q 928 2841 928 2578 
Q 928 2378 1081 2264 
Q 1234 2150 1697 2047 
L 1894 2003 
Q 2506 1872 2764 1633 
Q 3022 1394 3022 966 
Q 3022 478 2636 193 
Q 2250 -91 1575 -91 
Q 1294 -91 989 -36 
Q 684 19 347 128 
L 347 722 
Q 666 556 975 473 
Q 1284 391 1588 391 
Q 1994 391 2212 530 
Q 2431 669 2431 922 
Q 2431 1156 2273 1281 
Q 2116 1406 1581 1522 
L 1381 1569 
Q 847 1681 609 1914 
Q 372 2147 372 2553 
Q 372 3047 722 3315 
Q 1072 3584 1716 3584 
Q 2034 3584 2315 3537 
Q 2597 3491 2834 3397 
z
" transform="scale(0.015625)"/>
       <path id="DejaVuSans-5d" d="M 1947 4863 
L 1947 -844 
L 622 -844 
L 622 -397 
L 1369 -397 
L 1369 4416 
L 622 4416 
L 622 4863 
L 1947 4863 
z
" transform="scale(0.015625)"/>
      </defs>
      <use xlink:href="#DejaVuSans-74"/>
      <use xlink:href="#DejaVuSans-69" x="39.208984"/>
      <use xlink:href="#DejaVuSans-6d" x="66.992188"/>
      <use xlink:href="#DejaVuSans-65" x="164.404297"/>
      <use xlink:href="#DejaVuSans-20" x="225.927734"/>
      <use xlink:href="#DejaVuSans-5b" x="257.714844"/>
      <use xlink:href="#DejaVuSans-6d" x="296.728516"/>
      <use xlink:href="#DejaVuSans-73" x="394.140625"/>
      <use xlink:href="#DejaVuSans-5d" x="446.240234"/>
     </g>
    </g>
   </g>
   <g id="matplotlib.axis_2">
    <g id="ytick_1">
     <g id="line2d_6">
      <defs>
       <path id="m7ff0df40a5" d="M 0 0 
L -3.5 0 
" style="stroke: #000000; stroke-width: 0.8"/>
      </defs>
      <g>
       <use xlink:href="#m7ff0df40a5" x="63" y="378.570257" style="stroke: #000000; stroke-width: 0.8"/>
      </g>
     </g>
     <g id="text_7">
      <!-- −80 -->
      <g transform="translate(34.895313 382.369475)scale(0.1 -0.1)">
       <defs>
        <path id="DejaVuSans-2212" d="M 678 2272 
L 4684 2272 
L 4684 1741 
L 678 1741 
L 678 2272 
z
" transform="scale(0.015625)"/>
       </defs>
       <use xlink:href="#DejaVuSans-2212"/>
       <use xlink:href="#DejaVuSans-38" x="83.789062"/>
       <use xlink:href="#DejaVuSans-30" x="147.412109"/>
      </g>
     </g>
    </g>
    <g id="ytick_2">
     <g id="line2d_7">
      <g>
       <use xlink:href="#m7ff0df40a5" x="63" y="329.813096" style="stroke: #000000; stroke-width: 0.8"/>
      </g>
     </g>
     <g id="text_8">
      <!-- −60 -->
      <g transform="translate(34.895313 333.612314)scale(0.1 -0.1)">
       <use xlink:href="#DejaVuSans-2212"/>
       <use xlink:href="#DejaVuSans-36" x="83.789062"/>
       <use xlink:href="#DejaVuSans-30" x="147.412109"/>
      </g>
     </g>
    </g>
    <g id="ytick_3">
     <g id="line2d_8">
      <g>
       <use xlink:href="#m7ff0df40a5" x="63" y="281.055934" style="stroke: #000000; stroke-width: 0.8"/>
      </g>
     </g>
     <g id="text_9">
      <!-- −40 -->
      <g transform="translate(34.895313 284.855153)scale(0.1 -0.1)">
       <use xlink:href="#DejaVuSans-2212"/>
       <use xlink:href="#DejaVuSans-34" x="83.789062"/>
       <use xlink:href="#DejaVuSans-30" x="147.412109"/>
      </g>
     </g>
    </g>
    <g id="ytick_4">
     <g id="line2d_9">
      <g>
       <use xlink:href="#m7ff0df40a5" x="63" y="232.298773" style="stroke: #000000; stroke-width: 0.8"/>
      </g>
     </g>
     <g id="text_10">
      <!-- −20 -->
      <g transform="translate(34.895313 236.097992)scale(0.1 -0.1)">
       <use xlink:href="#DejaVuSans-2212"/>
       <use xlink:href="#DejaVuSans-32" x="83.789062"/>
       <use xlink:href="#DejaVuSans-30" x="147.412109"/>
      </g>
     </g>
    </g>
    <g id="ytick_5">
     <g id="line2d_10">
      <g>
       <use xlink:href="#m7ff0df40a5" x="63" y="183.541612" style="stroke: #000000; stroke-width: 0.8"/>
      </g>
     </g>
     <g id="text_11">
      <!-- 0 -->
      <g transform="translate(49.6375 187.340831)scale(0.1 -0.1)">
       <use xlink:href="#DejaVuSans-30"/>
      </g>
     </g>
    </g>
    <g id="ytick_6">
     <g id="line2d_11">
      <g>
       <use xlink:href="#m7ff0df40a5" x="63" y="134.784451" style="stroke: #000000; stroke-width: 0.8"/>
      </g>
     </g>
     <g id="text_12">
      <!-- 20 -->
      <g transform="translate(43.275 138.58367)scale(0.1 -0.1)">
       <use xlink:href="#DejaVuSans-32"/>
       <use xlink:href="#DejaVuSans-30" x="63.623047"/>
      </g>
     </g>
    </g>
    <g id="ytick_7">
     <g id="line2d_12">
      <g>
       <use xlink:href="#m7ff0df40a5" x="63" y="86.02729" style="stroke: #000000; stroke-width: 0.8"/>
      </g>
     </g>
     <g id="text_13">
      <!-- 40 -->
      <g transform="translate(43.275 89.826508)scale(0.1 -0.1)">
       <use xlink:href="#DejaVuSans-34"/>
       <use xlink:href="#DejaVuSans-30" x="63.623047"/>
      </g>
     </g>
    </g>
    <g id="text_14">
     <!-- voltage [mV] -->
     <g transform="translate(28.815625 250.624062)rotate(-90)scale(0.1 -0.1)">
      <defs>
       <path id="DejaVuSans-76" d="M 191 3500 
L 800 3500 
L 1894 563 
L 2988 3500 
L 3597 3500 
L 2284 0 
L 1503 0 
L 191 3500 
z
" transform="scale(0.015625)"/>
       <path id="DejaVuSans-6f" d="M 1959 3097 
Q 1497 3097 1228 2736 
Q 959 2375 959 1747 
Q 959 1119 1226 758 
Q 1494 397 1959 397 
Q 2419 397 2687 759 
Q 2956 1122 2956 1747 
Q 2956 2369 2687 2733 
Q 2419 3097 1959 3097 
z
M 1959 3584 
Q 2709 3584 3137 3096 
Q 3566 2609 3566 1747 
Q 3566 888 3137 398 
Q 2709 -91 1959 -91 
Q 1206 -91 779 398 
Q 353 888 353 1747 
Q 353 2609 779 3096 
Q 1206 3584 1959 3584 
z
" transform="scale(0.015625)"/>
       <path id="DejaVuSans-6c" d="M 603 4863 
L 1178 4863 
L 1178 0 
L 603 0 
L 603 4863 
z
" transform="scale(0.015625)"/>
       <path id="DejaVuSans-61" d="M 2194 1759 
Q 1497 1759 1228 1600 
Q 959 1441 959 1056 
Q 959 750 1161 570 
Q 1363 391 1709 391 
Q 2188 391 2477 730 
Q 2766 1069 2766 1631 
L 2766 1759 
L 2194 1759 
z
M 3341 1997 
L 3341 0 
L 2766 0 
L 2766 531 
Q 2569 213 2275 61 
Q 1981 -91 1556 -91 
Q 1019 -91 701 211 
Q 384 513 384 1019 
Q 384 1609 779 1909 
Q 1175 2209 1959 2209 
L 2766 2209 
L 2766 2266 
Q 2766 2663 2505 2880 
Q 2244 3097 1772 3097 
Q 1472 3097 1187 3025 
Q 903 2953 641 2809 
L 641 3341 
Q 956 3463 1253 3523 
Q 1550 3584 1831 3584 
Q 2591 3584 2966 3190 
Q 3341 2797 3341 1997 
z
" transform="scale(0.015625)"/>
       <path id="DejaVuSans-67" d="M 2906 1791 
Q 2906 2416 2648 2759 
Q 2391 3103 1925 3103 
Q 1463 3103 1205 2759 
Q 947 2416 947 1791 
Q 947 1169 1205 825 
Q 1463 481 1925 481 
Q 2391 481 2648 825 
Q 2906 1169 2906 1791 
z
M 3481 434 
Q 3481 -459 3084 -895 
Q 2688 -1331 1869 -1331 
Q 1566 -1331 1297 -1286 
Q 1028 -1241 775 -1147 
L 775 -588 
Q 1028 -725 1275 -790 
Q 1522 -856 1778 -856 
Q 2344 -856 2625 -561 
Q 2906 -266 2906 331 
L 2906 616 
Q 2728 306 2450 153 
Q 2172 0 1784 0 
Q 1141 0 747 490 
Q 353 981 353 1791 
Q 353 2603 747 3093 
Q 1141 3584 1784 3584 
Q 2172 3584 2450 3431 
Q 2728 3278 2906 2969 
L 2906 3500 
L 3481 3500 
L 3481 434 
z
" transform="scale(0.015625)"/>
       <path id="DejaVuSans-56" d="M 1831 0 
L 50 4666 
L 709 4666 
L 2188 738 
L 3669 4666 
L 4325 4666 
L 2547 0 
L 1831 0 
z
" transform="scale(0.015625)"/>
      </defs>
      <use xlink:href="#DejaVuSans-76"/>
      <use xlink:href="#DejaVuSans-6f" x="59.179688"/>
      <use xlink:href="#DejaVuSans-6c" x="120.361328"/>
      <use xlink:href="#DejaVuSans-74" x="148.144531"/>
      <use xlink:href="#DejaVuSans-61" x="187.353516"/>
      <use xlink:href="#DejaVuSans-67" x="248.632812"/>
      <use xlink:href="#DejaVuSans-65" x="312.109375"/>
      <use xlink:href="#DejaVuSans-20" x="373.632812"/>
      <use xlink:href="#DejaVuSans-5b" x="405.419922"/>
      <use xlink:href="#DejaVuSans-6d" x="444.433594"/>
      <use xlink:href="#DejaVuSans-56" x="541.845703"/>
      <use xlink:href="#DejaVuSans-5d" x="610.253906"/>
     </g>
    </g>
   </g>
   <g id="line2d_13">
    <path d="M 80.754545 342.002386 
L 82.006241 341.874642 
L 151.772727 341.93827 
L 152.314241 300.587809 
L 152.420768 255.418444 
L 152.562805 86.817643 
L 152.678209 110.238146 
L 153.565936 366.602324 
L 153.610323 366.508954 
L 153.8145 365.228347 
L 154.293873 360.813386 
L 154.959668 352.342073 
L 157.42755 316.222281 
L 157.613973 305.887957 
L 157.738255 285.487717 
L 157.835905 227.389171 
L 157.969064 109.442673 
L 158.031205 121.657804 
L 158.883423 366.208122 
L 158.945564 366.037716 
L 159.203005 364.199571 
L 159.717886 358.930872 
L 160.534595 347.853733 
L 161.8218 331.015447 
L 162.514227 321.387614 
L 162.771668 314.402907 
L 162.940336 303.26604 
L 163.064618 277.292613 
L 163.162268 198.907748 
L 163.268795 110.297386 
L 163.322059 119.132671 
L 163.863573 300.329396 
L 164.147645 366.044054 
L 164.183155 366.178624 
L 164.245295 366.010168 
L 164.493859 364.242233 
L 165.008741 358.991819 
L 165.834327 347.800344 
L 167.112655 331.084682 
L 167.813959 321.354703 
L 168.0714 314.360976 
L 168.240068 303.187541 
L 168.36435 277.063942 
L 168.462 198.215275 
L 168.568527 110.368815 
L 168.621791 119.338914 
L 169.172182 303.999592 
L 169.4385 365.964336 
L 169.482886 366.176674 
L 169.545027 366.004561 
L 169.802468 364.158859 
L 170.31735 358.873582 
L 171.151814 347.531935 
L 172.430141 330.85918 
L 173.113691 321.337638 
L 173.371132 314.32709 
L 173.5398 303.098559 
L 173.664082 276.749946 
L 173.761732 197.146006 
L 173.868259 110.384417 
L 173.921523 119.558077 
L 174.480791 307.78071 
L 174.729355 365.862678 
L 174.782618 366.176674 
L 174.844759 366.000661 
L 175.1022 364.152033 
L 175.617082 358.863587 
L 176.451545 347.51999 
L 177.729873 330.849185 
L 178.413423 321.322036 
L 178.670864 314.293691 
L 178.839532 303.008359 
L 178.963814 276.427661 
L 179.061464 196.045435 
L 179.167991 110.400507 
L 179.221255 119.779678 
L 179.7894 311.657635 
L 180.029086 365.874136 
L 180.08235 366.176918 
L 180.144491 365.996516 
L 180.401932 364.145207 
L 180.916814 358.853836 
L 181.751277 347.508532 
L 183.029605 330.839434 
L 183.713155 321.30619 
L 183.970595 314.260049 
L 184.139264 302.917183 
L 184.263545 276.097819 
L 184.361195 194.925507 
L 184.467723 110.422692 
L 184.520986 120.004693 
L 185.098009 315.619886 
L 185.328818 365.88535 
L 185.382082 366.176918 
L 185.444223 365.992616 
L 185.701664 364.138137 
L 186.216545 358.844084 
L 187.051009 347.49683 
L 188.329336 330.829682 
L 189.012886 321.290588 
L 189.270327 314.226162 
L 189.438995 302.824544 
L 189.563277 275.763101 
L 189.660927 193.801118 
L 189.767455 110.450239 
L 189.820718 120.231901 
L 190.406618 319.649178 
L 190.619673 365.761019 
L 190.681814 366.176674 
L 190.743955 365.988471 
L 191.010273 364.055737 
L 191.525155 358.727555 
L 192.368495 347.231591 
L 193.637945 330.712665 
L 194.312618 321.274498 
L 194.570059 314.192276 
L 194.738727 302.731418 
L 194.863009 275.425214 
L 194.969536 180.264765 
L 195.058309 110.437806 
L 195.12045 120.461547 
L 195.715227 323.721376 
L 195.919405 365.775402 
L 195.981545 366.176674 
L 196.043686 365.984327 
L 196.310005 364.048668 
L 196.833764 358.610538 
L 197.703736 346.713546 
L 198.955432 330.488626 
L 199.61235 321.258652 
L 199.869791 314.157902 
L 200.038459 302.637317 
L 200.162741 275.0805 
L 200.269268 179.0914 
L 200.358041 110.410502 
L 200.420182 120.695094 
L 201.023836 327.802106 
L 201.219136 365.789054 
L 201.281277 366.176186 
L 201.343418 365.980182 
L 201.609736 364.041598 
L 202.133495 358.600299 
L 202.994591 346.828126 
L 204.255164 330.478631 
L 204.912082 321.242318 
L 205.169523 314.123041 
L 205.338191 302.541753 
L 205.462473 274.728718 
L 205.569 177.91016 
L 205.657773 110.38978 
L 205.719914 120.930347 
L 206.332445 331.846757 
L 206.518868 365.802706 
L 206.581009 366.175943 
L 206.634273 366.019188 
L 206.873959 364.333409 
L 207.388841 359.121756 
L 208.187795 348.337648 
L 209.510509 331.003258 
L 210.202936 321.397366 
L 210.460377 314.452883 
L 210.629045 303.436446 
L 210.753327 277.949128 
L 210.850977 201.285976 
L 210.957505 110.375641 
L 211.019645 121.166576 
L 211.641055 335.805107 
L 211.827477 365.938008 
L 211.880741 366.175455 
L 211.934005 366.015288 
L 212.182568 364.252472 
L 212.69745 359.006446 
L 213.514159 347.944909 
L 214.810241 330.993263 
L 215.502668 321.38152 
L 215.760109 314.419485 
L 215.928777 303.346977 
L 216.053059 277.633913 
L 216.150709 200.190891 
L 216.257236 110.36979 
L 216.319377 121.402317 
L 216.949664 339.618161 
L 217.127209 365.947759 
L 217.171595 366.175943 
L 217.233736 366.011387 
L 217.4823 364.245646 
L 217.997182 358.996694 
L 218.822768 347.806194 
L 220.101095 331.090046 
L 220.8024 321.365674 
L 221.059841 314.38633 
L 221.228509 303.257751 
L 221.352791 277.317479 
L 221.450441 199.096341 
L 221.556968 110.370278 
L 221.610232 119.167045 
L 222.151745 300.380835 
L 222.426941 365.957023 
L 222.471327 366.176186 
L 222.533468 366.007487 
L 222.782032 364.23882 
L 223.296914 358.986943 
L 224.1225 347.794249 
L 225.418582 330.866738 
L 226.111009 321.177958 
L 226.36845 313.984327 
L 226.537118 302.15779 
L 226.652523 276.998607 
L 226.750173 197.997428 
L 226.8567 110.375885 
L 226.909964 119.387671 
L 227.460355 304.069558 
L 227.726673 365.966043 
L 227.771059 366.176674 
L 227.8332 366.003586 
L 228.090641 364.157152 
L 228.605523 358.871145 
L 229.439986 347.52901 
L 230.718314 330.856743 
L 231.401864 321.333981 
L 231.659305 314.319289 
L 231.827973 303.078081 
L 231.952255 276.677541 
L 232.049905 196.898319 
L 232.156432 110.38783 
L 232.209695 119.608053 
L 232.768964 307.853601 
L 233.017527 365.865359 
L 233.070791 366.176674 
L 233.132932 365.999685 
L 233.390373 364.150326 
L 233.905255 358.861393 
L 234.739718 347.517308 
L 236.018045 330.846991 
L 236.701595 321.318379 
L 236.959036 314.286134 
L 237.127705 302.987881 
L 237.251986 276.35355 
L 237.349636 195.792921 
L 237.456164 110.404895 
L 237.509427 119.83063 
L 238.077573 311.732721 
L 238.317259 365.876574 
L 238.370523 366.176918 
L 238.432664 365.995785 
L 238.698982 364.06817 
L 239.213864 358.745107 
L 240.057205 347.252313 
L 241.317777 330.83724 
L 242.001327 321.302777 
L 242.258768 314.252491 
L 242.427436 302.896217 
L 242.551718 276.022001 
L 242.649368 194.670385 
L 242.755895 110.428542 
L 242.809159 120.056131 
L 243.386182 315.696678 
L 243.616991 365.887788 
L 243.670255 366.176918 
L 243.732395 365.99164 
L 243.989836 364.136674 
L 244.504718 358.84189 
L 245.348059 347.36738 
L 246.617509 330.827244 
L 247.301059 321.286931 
L 247.5585 314.218605 
L 247.727168 302.803335 
L 247.85145 275.686796 
L 247.9491 193.544899 
L 248.055627 110.457553 
L 248.108891 120.283827 
L 248.694791 319.727677 
L 248.907845 365.764432 
L 248.969986 366.176674 
L 249.032127 365.98774 
L 249.298445 364.054275 
L 249.822205 358.618339 
L 250.692177 346.72281 
L 251.943873 330.496427 
L 252.600791 321.270841 
L 252.858232 314.184475 
L 253.0269 302.709965 
L 253.151182 275.347202 
L 253.257709 179.997625 
L 253.346482 110.43098 
L 253.408623 120.514693 
L 254.0034 323.801338 
L 254.207577 365.778572 
L 254.269718 366.17643 
L 254.331859 365.983596 
L 254.598177 364.047205 
L 255.121936 358.6081 
L 255.983032 346.83739 
L 257.22585 330.700476 
L 257.900523 321.254995 
L 258.157964 314.150101 
L 258.326632 302.61562 
L 258.450914 275.000783 
L 258.557441 178.821846 
L 258.646214 110.405139 
L 258.708355 120.748971 
L 259.312009 327.882068 
L 259.507309 365.792224 
L 259.56945 366.176186 
L 259.631591 365.979207 
L 259.906786 363.96383 
L 260.430545 358.490351 
L 261.309395 346.446357 
L 262.552214 330.369171 
L 263.200255 321.238661 
L 263.457695 314.11524 
L 263.626364 302.519812 
L 263.750645 274.647781 
L 263.857173 177.640118 
L 263.945945 110.38588 
L 264.008086 120.984224 
L 264.620618 331.9255 
L 264.807041 365.805876 
L 264.869182 366.175699 
L 264.922445 366.018457 
L 265.171009 364.257836 
L 265.685891 359.014247 
L 266.511477 347.82716 
L 267.807559 330.894286 
L 268.499986 321.222571 
L 268.757427 314.080379 
L 268.926095 302.424004 
L 269.050377 274.294779 
L 269.156905 176.467192 
L 269.245677 110.373691 
L 269.298941 118.778206 
L 269.8227 293.35956 
L 270.133405 366.094762 
L 270.168914 366.175455 
L 270.222177 366.014556 
L 270.470741 364.25101 
L 270.985623 359.004252 
L 271.802332 347.942227 
L 273.098414 330.991069 
L 273.790841 321.377863 
L 274.048282 314.411927 
L 274.21695 303.326743 
L 274.341232 277.561752 
L 274.438882 199.940376 
L 274.545409 110.369546 
L 274.598673 118.99737 
L 275.131309 296.85813 
L 275.424259 366.037228 
L 275.468645 366.174724 
L 275.521909 366.010656 
L 275.770473 364.244184 
L 276.285355 358.9945 
L 277.110941 347.803513 
L 278.389268 331.087851 
L 279.090573 321.362017 
L 279.348014 314.378529 
L 279.516682 303.237273 
L 279.640964 277.244831 
L 279.738614 198.845729 
L 279.845141 110.370765 
L 279.898405 119.217508 
L 280.439918 300.451289 
L 280.715114 365.958973 
L 280.7595 366.17643 
L 280.821641 366.006755 
L 281.079082 364.162516 
L 281.593964 358.878702 
L 282.428427 347.53803 
L 283.706755 330.8643 
L 284.390305 321.346171 
L 284.647745 314.34513 
L 284.816414 303.14756 
L 284.940695 276.925471 
L 285.038345 197.746718 
L 285.144873 110.378079 
L 285.198136 119.437891 
L 285.748527 304.140987 
L 286.014845 365.967993 
L 286.059232 366.176674 
L 286.121373 366.002611 
L 286.378814 364.15569 
L 286.902573 358.762416 
L 287.754791 347.146266 
L 289.006486 330.854548 
L 289.690036 321.330568 
L 289.947477 314.311731 
L 290.116145 303.057603 
L 290.240427 276.603918 
L 290.338077 196.646781 
L 290.444605 110.391243 
L 290.497868 119.658517 
L 291.057136 307.927225 
L 291.3057 365.868041 
L 291.358964 366.176918 
L 291.421105 365.99871 
L 291.678545 364.148864 
L 292.193427 358.859199 
L 293.027891 347.514627 
L 294.315095 330.737775 
L 294.989768 321.314722 
L 295.247209 314.278333 
L 295.415877 302.967159 
L 295.540159 276.278464 
L 295.637809 195.537751 
L 295.744336 110.409771 
L 295.7976 119.881825 
L 296.365745 311.808295 
L 296.605432 365.879255 
L 296.658695 366.176918 
L 296.720836 365.99481 
L 296.987155 364.066708 
L 297.510914 358.635891 
L 298.372009 346.869813 
L 299.632582 330.51398 
L 300.298377 321.126276 
L 300.555818 313.871942 
L 300.724486 301.843062 
L 300.839891 275.94594 
L 300.937541 194.414898 
L 301.044068 110.434637 
L 301.097332 120.10757 
L 301.674355 315.773471 
L 301.905164 365.890226 
L 301.958427 366.176918 
L 302.020568 365.990909 
L 302.286886 364.059638 
L 302.810645 358.625896 
L 303.671741 346.858355 
L 304.914559 330.718272 
L 305.589232 321.283274 
L 305.846673 314.210804 
L 306.015341 302.782369 
L 306.139623 275.610247 
L 306.24615 180.900071 
L 306.334923 110.455115 
L 306.397064 120.335998 
L 306.982964 319.806176 
L 307.196018 365.767601 
L 307.258159 366.176674 
L 307.3203 365.986765 
L 307.586618 364.052568 
L 308.110377 358.615901 
L 308.971473 346.846654 
L 310.214291 330.708277 
L 310.888964 321.267428 
L 311.146405 314.176674 
L 311.315073 302.688755 
L 311.439355 275.268947 
L 311.545882 179.731435 
L 311.634655 110.424642 
L 311.696795 120.567594 
L 312.291573 323.880812 
L 312.49575 365.781741 
L 312.557891 366.17643 
L 312.620032 365.98262 
L 312.88635 364.045498 
L 313.410109 358.605906 
L 314.280082 346.708183 
L 315.531777 330.483994 
L 316.188695 321.251094 
L 316.446136 314.142056 
L 316.614805 302.593923 
L 316.739086 274.921308 
L 316.845614 178.553316 
L 316.934386 110.400263 
L 316.996527 120.80236 
L 317.600182 327.961786 
L 317.795482 365.795393 
L 317.857623 366.176186 
L 317.910886 366.021382 
L 318.15945 364.263199 
L 318.674332 359.021804 
L 319.491041 347.963193 
L 320.796 330.901843 
L 321.488427 321.235004 
L 321.745868 314.107195 
L 321.914536 302.497871 
L 322.038818 274.567088 
L 322.145345 177.371369 
L 322.234118 110.382467 
L 322.296259 121.038101 
L 322.908791 332.003999 
L 323.095214 365.809045 
L 323.157355 366.175699 
L 323.210618 366.017482 
L 323.459182 364.256373 
L 323.974064 359.011809 
L 324.790773 347.951247 
L 326.095732 330.891848 
L 326.779282 321.390052 
L 327.036723 314.437769 
L 327.205391 303.395734 
L 327.329673 277.805538 
L 327.427323 200.786703 
L 327.53385 110.371984 
L 327.595991 121.274085 
L 328.2174 335.956742 
L 328.403823 365.942396 
L 328.457086 366.175211 
L 328.51035 366.013581 
L 328.758914 364.249303 
L 329.273795 359.002058 
L 329.318182 358.467923 
L 329.335936 359.305083 
L 329.531236 363.017454 
L 329.620009 363.192248 
L 329.664395 363.138859 
L 329.815309 362.574251 
L 330.214786 359.95331 
L 332.176664 346.223049 
L 332.869091 343.225215 
L 333.428359 341.684977 
L 333.889977 340.9936 
L 334.2717 340.780775 
L 334.644545 340.83002 
L 335.15055 341.155474 
L 336.482141 342.075765 
L 337.121305 342.189126 
L 338.151068 342.078203 
L 339.944277 341.894389 
L 342.234614 341.942414 
L 435.845455 341.93827 
L 435.845455 341.93827 
" clip-path="url(#pbb944db815)" style="fill: none; stroke: #1f77b4; stroke-width: 1.5; stroke-linecap: square"/>
   </g>
   <g id="line2d_14">
    <path d="M 80.754545 342.002386 
L 81.011986 316.414071 
L 81.083005 275.916005 
L 81.189532 66.96 
L 81.331568 76.011719 
L 81.5535 113.862913 
L 82.290314 297.741241 
L 82.547755 369.36 
L 82.592141 369.301708 
L 82.893968 368.300809 
L 83.337832 366.068181 
L 83.861591 362.17564 
L 84.651668 354.367069 
L 85.574905 343.299725 
L 85.885609 336.828917 
L 86.063155 327.827368 
L 86.169682 309.33298 
L 86.2407 242.802017 
L 86.33835 68.550785 
L 86.409368 72.225711 
L 86.586914 97.192371 
L 87.0219 201.224256 
L 87.519027 352.68808 
L 87.661064 369.345073 
L 87.669941 369.342139 
L 87.785345 369.056428 
L 88.1937 367.440643 
L 88.664195 364.589644 
L 89.26785 359.401498 
L 90.315368 348.128712 
L 90.839127 340.562055 
L 91.078814 333.573618 
L 91.22085 321.977804 
L 91.309623 292.665357 
L 91.371764 160.399023 
L 91.442782 68.546776 
L 91.496045 70.707861 
L 91.646959 88.922698 
L 91.975418 162.315136 
L 92.765495 369.344128 
L 92.898655 369.034846 
L 93.307009 367.40643 
L 93.777505 364.538897 
L 94.390036 359.246857 
L 95.446432 347.83304 
L 95.952436 340.422567 
L 96.183245 333.661488 
L 96.325282 322.26136 
L 96.414055 294.009377 
L 96.476195 168.54472 
L 96.547214 68.546829 
L 96.609355 71.202731 
L 96.769145 91.620828 
L 97.133114 175.41411 
L 97.878805 369.344049 
L 97.994209 369.068065 
L 98.402564 367.459159 
L 98.873059 364.617156 
L 99.476714 359.438453 
L 100.524232 348.174003 
L 101.047991 340.637707 
L 101.287677 333.748189 
L 101.429714 322.537261 
L 101.518486 295.282741 
L 101.580627 176.529945 
L 101.651645 68.556016 
L 101.713786 71.063424 
L 101.873577 91.289534 
L 102.228668 172.659635 
L 102.983236 369.344613 
L 103.107518 369.046646 
L 103.515873 367.425125 
L 103.986368 364.566614 
L 104.590023 359.370621 
L 105.646418 347.985097 
L 106.1613 340.499203 
L 106.400986 333.427214 
L 106.543023 321.497997 
L 106.631795 290.299182 
L 106.693936 146.826049 
L 106.764955 68.564257 
L 106.818218 70.92711 
L 106.978009 90.960229 
L 107.3331 172.172969 
L 108.087668 369.344787 
L 108.21195 369.052527 
L 108.620305 367.434457 
L 109.0908 364.580461 
L 109.694455 359.389187 
L 110.75085 348.007881 
L 111.265732 340.537264 
L 111.505418 333.51639 
L 111.647455 321.791385 
L 111.736227 291.752328 
L 111.798368 155.00986 
L 111.869386 68.551019 
L 111.92265 70.793692 
L 112.073564 89.131013 
L 112.4109 164.892618 
L 113.1921 369.344561 
L 113.316382 369.058389 
L 113.724736 367.443767 
L 114.195232 364.594285 
L 114.798886 359.407735 
L 115.846405 348.136422 
L 116.370164 340.575136 
L 116.60985 333.604153 
L 116.751886 322.077018 
L 116.840659 293.140077 
L 116.9028 163.250364 
L 116.973818 68.545934 
L 117.027082 70.662834 
L 117.177995 88.812624 
L 117.506455 162.147043 
L 118.296532 369.343805 
L 118.429691 369.036891 
L 118.838045 367.409667 
L 119.308541 364.543695 
L 119.921073 359.253295 
L 120.977468 347.840961 
L 121.483473 340.435875 
L 121.714282 333.691542 
L 121.856318 322.3572 
L 121.945091 294.455559 
L 122.007232 171.316573 
L 122.07825 68.548852 
L 122.140391 71.154327 
L 122.300182 91.506294 
L 122.655273 172.978263 
L 123.409841 369.34429 
L 123.525245 369.070074 
L 123.9336 367.46236 
L 124.404095 364.621914 
L 125.00775 359.444848 
L 126.055268 348.181818 
L 126.579027 340.650681 
L 126.818714 333.777949 
L 126.96075 322.631573 
L 127.049523 295.710238 
L 127.111664 179.245 
L 127.182682 68.561548 
L 127.244823 71.016014 
L 127.404614 91.175609 
L 127.759705 172.491833 
L 128.514273 369.344711 
L 128.638555 369.048668 
L 129.046909 367.428332 
L 129.517405 364.571373 
L 130.121059 359.377 
L 131.177455 347.992927 
L 131.692336 340.512303 
L 131.932023 333.457953 
L 132.074059 321.599343 
L 132.162832 290.802997 
L 132.224973 149.617589 
L 132.295991 68.558945 
L 132.349255 70.881222 
L 132.509045 90.848149 
L 132.864136 172.006921 
L 133.618705 369.344755 
L 133.742986 369.054526 
L 134.151341 367.437631 
L 134.621836 364.585174 
L 135.225491 359.395509 
L 136.281886 348.015639 
L 136.796768 340.55018 
L 137.036455 333.54645 
L 137.178491 321.889778 
L 137.267264 292.236999 
L 137.329405 157.851642 
L 137.400423 68.548383 
L 137.453686 70.748369 
L 137.6046 89.021346 
L 137.933059 162.466096 
L 138.723136 369.344357 
L 138.847418 369.060405 
L 139.255773 367.446972 
L 139.726268 364.599045 
L 140.329923 359.414125 
L 141.377441 348.144239 
L 141.9012 340.588172 
L 142.140886 333.63424 
L 142.282923 322.173958 
L 142.371695 293.597847 
L 142.433836 166.020926 
L 142.504855 68.545844 
L 142.566995 71.246754 
L 142.726786 91.724459 
L 143.090755 175.565801 
L 143.836445 369.343797 
L 143.95185 369.06625 
L 144.360205 367.456271 
L 144.8307 364.612863 
L 145.434355 359.432684 
L 146.481873 348.166944 
L 147.005632 340.625976 
L 147.245318 333.721254 
L 147.387355 322.45173 
L 147.476127 294.891076 
L 147.538268 174.048006 
L 147.609286 68.552173 
L 147.671427 71.10688 
L 147.831218 91.393467 
L 148.186309 172.81284 
L 148.940877 369.344477 
L 149.065159 369.04479 
L 149.473514 367.422182 
L 149.944009 364.562249 
L 150.547664 359.364772 
L 151.604059 347.97792 
L 151.790482 344.585329 
L 152.118941 315.689562 
L 152.198836 268.386728 
L 152.305364 68.732338 
L 152.420768 76.344335 
L 152.6427 114.914946 
L 153.397268 307.129664 
L 153.628077 368.568004 
L 153.645832 368.54795 
L 153.8145 367.879718 
L 154.240609 365.347077 
L 154.737736 360.909589 
L 155.430164 352.461427 
L 156.166977 340.956757 
L 156.442173 333.180048 
L 156.593086 322.091899 
L 156.690736 293.513486 
L 156.752877 179.800585 
L 156.832773 70.487131 
L 156.886036 73.193339 
L 157.045827 95.519666 
L 157.454182 193.527849 
L 158.119977 368.541093 
L 158.244259 368.131398 
L 158.652614 365.865805 
L 159.131986 361.844661 
L 159.780027 354.271584 
L 160.587859 342.225322 
L 160.898564 334.404823 
L 161.067232 323.654269 
L 161.164882 300.750473 
L 161.227023 223.343598 
L 161.315795 70.487469 
L 161.377936 73.614818 
L 161.546605 98.178479 
L 161.999345 208.321338 
L 162.478718 355.496819 
L 162.611877 368.538645 
L 162.620755 368.527898 
L 162.762791 367.988925 
L 163.180023 365.5814 
L 163.668273 361.340816 
L 164.342945 353.260401 
L 165.106391 341.616303 
L 165.399341 333.847046 
L 165.559132 323.017869 
L 165.656782 297.959404 
L 165.718923 206.789755 
L 165.798818 70.513346 
L 165.860959 73.324373 
L 166.029627 97.514716 
L 166.473491 205.232647 
L 166.970618 357.431029 
L 167.0949 368.540126 
L 167.112655 368.517435 
L 167.2902 367.798345 
L 167.716309 365.22072 
L 168.222314 360.633692 
L 168.932495 351.86627 
L 169.642677 340.617006 
L 169.908995 332.86211 
L 170.059909 321.140772 
L 170.148682 294.787143 
L 170.210823 187.58807 
L 170.290718 70.48893 
L 170.343982 73.046224 
L 170.503773 95.184739 
L 170.912127 193.114693 
L 171.577923 368.539769 
L 171.702205 368.137319 
L 172.110559 365.875126 
L 172.589932 361.858298 
L 173.237973 354.289561 
L 174.045805 342.251216 
L 174.356509 334.457863 
L 174.525177 323.815604 
L 174.622827 301.423812 
L 174.684968 227.205933 
L 174.773741 70.493588 
L 174.844759 74.282386 
L 175.022305 101.410387 
L 175.554941 231.903003 
L 175.910032 343.051126 
L 176.069823 368.539421 
L 176.149718 368.300188 
L 176.531441 366.306947 
L 177.001936 362.581088 
L 177.614468 355.707786 
L 178.457809 343.58421 
L 178.8129 335.524508 
L 178.990445 325.973419 
L 179.096973 306.527483 
L 179.167991 235.888861 
L 179.265641 70.50096 
L 179.336659 74.800741 
L 179.523082 104.339431 
L 180.18 264.669833 
L 180.401932 345.73161 
L 180.552845 368.540231 
L 180.561723 368.534836 
L 180.66825 368.166766 
L 181.076605 365.921475 
L 181.555977 361.926176 
L 182.195141 354.494893 
L 183.002973 342.541213 
L 183.322555 334.711401 
L 183.491223 324.55979 
L 183.588873 304.420981 
L 183.651014 243.720594 
L 183.748664 70.48703 
L 183.828559 75.341165 
L 184.023859 107.345493 
L 184.742918 284.69555 
L 185.035868 368.539007 
L 185.133518 368.255823 
L 185.532995 366.1216 
L 186.003491 362.306998 
L 186.6249 355.228572 
L 187.459364 343.082845 
L 187.7967 335.151603 
L 187.974245 324.917479 
L 188.080773 302.076029 
L 188.142914 230.90167 
L 188.231686 70.50567 
L 188.302705 74.152754 
L 188.48025 101.127155 
L 189.004009 229.433342 
L 189.367977 342.346012 
L 189.527768 368.539972 
L 189.598786 368.340926 
L 189.971632 366.427996 
L 190.43325 362.84418 
L 191.028027 356.28491 
L 191.871368 344.359495 
L 192.253091 336.145958 
L 192.439514 326.880908 
L 192.554918 307.038655 
L 192.625936 239.204324 
L 192.723586 70.491377 
L 192.794605 74.664519 
L 192.981027 104.047565 
L 193.629068 262.193642 
L 193.851 340.627705 
L 194.010791 368.539999 
L 194.064055 368.420008 
L 194.392514 366.824636 
L 194.845255 363.517478 
L 195.4134 357.527917 
L 196.256741 345.98724 
L 196.700605 337.295691 
L 196.904782 328.524926 
L 197.020186 313.348299 
L 197.100082 262.471388 
L 197.206609 70.490393 
L 197.313136 78.152319 
L 197.535068 118.84477 
L 198.298514 320.916446 
L 198.502691 368.539095 
L 198.582586 368.297652 
L 198.973186 366.246035 
L 199.443682 362.490735 
L 200.056214 355.586913 
L 200.899555 343.41938 
L 201.245768 335.503374 
L 201.423314 325.915425 
L 201.529841 306.297001 
L 201.600859 234.371743 
L 201.698509 70.506721 
L 201.76065 74.027479 
L 201.938195 100.850709 
L 202.453077 226.958968 
L 202.825923 341.656443 
L 202.985714 368.540232 
L 203.047855 368.38018 
L 203.402945 366.600742 
L 203.864564 363.10184 
L 204.450464 356.743512 
L 205.302682 344.821001 
L 205.702159 336.462289 
L 205.888582 327.711554 
L 206.003986 310.383828 
L 206.075005 259.247356 
L 206.181532 70.487227 
L 206.279182 77.341874 
L 206.492236 115.26635 
L 207.246805 309.776981 
L 207.468736 368.5394 
L 207.486491 368.525688 
L 207.637405 367.942635 
L 208.054636 365.50932 
L 208.551764 361.14462 
L 209.235314 352.886588 
L 209.989882 341.243486 
L 210.273955 333.429741 
L 210.424868 322.863814 
L 210.522518 297.262166 
L 210.584659 202.566901 
L 210.664555 70.499469 
L 210.726695 73.42972 
L 210.895364 97.757789 
L 211.339227 205.550022 
L 211.836355 357.850284 
L 211.960636 368.539751 
L 211.978391 368.514663 
L 212.164814 367.749687 
L 212.590923 365.145339 
L 213.096927 360.525279 
L 213.815986 351.605574 
L 214.508414 340.590744 
L 214.774732 332.8054 
L 214.925645 320.961105 
L 215.014418 293.987536 
L 215.076559 182.771968 
L 215.156455 70.495001 
L 215.209718 73.148317 
L 215.369509 95.422198 
L 215.777864 193.439001 
L 216.443659 368.54015 
L 216.567941 368.131838 
L 216.976295 365.866519 
L 217.455668 361.845709 
L 218.103709 354.272995 
L 218.911541 342.227629 
L 219.222245 334.410077 
L 219.390914 323.67118 
L 219.488564 300.822706 
L 219.550705 223.763894 
L 219.639477 70.488279 
L 219.701618 73.602529 
L 219.870286 98.151053 
L 220.323027 208.287428 
L 220.8024 355.446648 
L 220.935559 368.538705 
L 220.944436 368.528095 
L 221.086473 367.989503 
L 221.503705 365.582301 
L 221.991955 361.342124 
L 222.666627 353.262105 
L 223.430073 341.618783 
L 223.723023 333.852223 
L 223.882814 323.033329 
L 223.980464 298.028597 
L 224.042605 207.210268 
L 224.131377 70.51355 
L 224.184641 73.313736 
L 224.353309 97.490024 
L 224.797173 205.200305 
L 225.2943 357.387635 
L 225.418582 368.540149 
L 225.436336 368.51771 
L 225.613882 367.798959 
L 226.039991 365.221672 
L 226.545995 360.635063 
L 227.256177 351.868029 
L 227.966359 340.619679 
L 228.232677 332.867873 
L 228.383591 321.158984 
L 228.472364 294.867984 
L 228.534505 188.077867 
L 228.6144 70.488576 
L 228.667664 73.035843 
L 228.827455 95.160435 
L 229.235809 193.081506 
L 229.901605 368.539713 
L 230.025886 368.137879 
L 230.434241 365.876006 
L 230.913614 361.859585 
L 231.561655 354.291256 
L 232.369486 342.253628 
L 232.680191 334.462745 
L 232.848859 323.830328 
L 232.946509 301.484933 
L 233.00865 227.55376 
L 233.097423 70.494429 
L 233.168441 74.270402 
L 233.345986 101.384331 
L 233.878623 231.871973 
L 234.233714 342.986356 
L 234.393505 368.539481 
L 234.4734 368.300708 
L 234.855123 366.307774 
L 235.325618 362.582316 
L 235.93815 355.709432 
L 236.781491 343.586448 
L 237.136582 335.528849 
L 237.314127 325.985317 
L 237.420655 306.574703 
L 237.491673 236.196898 
L 237.589323 70.499844 
L 237.660341 74.788234 
L 237.846764 104.312737 
L 238.503682 264.638603 
L 238.725614 345.669019 
L 238.876527 368.540222 
L 238.885405 368.534987 
L 238.991932 368.16732 
L 239.400286 365.922349 
L 239.879659 361.927457 
L 240.518823 354.49658 
L 241.326655 342.54358 
L 241.646236 334.716131 
L 241.814905 324.573394 
L 241.912555 304.47381 
L 241.974695 244.000787 
L 242.072345 70.487131 
L 242.152241 75.328038 
L 242.347541 107.318016 
L 243.0666 284.657821 
L 243.35955 368.538918 
L 243.4572 368.256353 
L 243.856677 366.122443 
L 244.327173 362.30824 
L 244.948582 355.230224 
L 245.783045 343.085126 
L 246.120382 335.156093 
L 246.297927 324.930543 
L 246.404455 302.134584 
L 246.466595 231.232003 
L 246.555368 70.507116 
L 246.626386 74.141029 
L 246.803932 101.101407 
L 247.327691 229.402467 
L 247.691659 342.281839 
L 247.85145 368.540008 
L 247.922468 368.341426 
L 248.295314 366.428798 
L 248.756932 362.84537 
L 249.351709 356.286514 
L 250.19505 344.361626 
L 250.576773 336.149971 
L 250.763195 326.891712 
L 250.8786 307.084666 
L 250.949618 239.502399 
L 251.047268 70.490783 
L 251.118286 74.652115 
L 251.304709 104.02086 
L 251.95275 262.162786 
L 252.174682 340.562544 
L 252.334473 368.53996 
L 252.387736 368.420462 
L 252.716195 366.825388 
L 253.168936 363.518608 
L 253.737082 357.52947 
L 254.580423 345.989249 
L 255.024286 337.299283 
L 255.228464 328.534147 
L 255.343868 313.380339 
L 255.423764 262.667674 
L 255.530291 70.490961 
L 255.636818 78.13688 
L 255.85875 118.81538 
L 256.622195 320.854541 
L 256.826373 368.539163 
L 256.906268 368.298169 
L 257.296868 366.246862 
L 257.767364 362.49196 
L 258.379895 355.588548 
L 259.223236 343.421616 
L 259.56945 335.507679 
L 259.746995 325.927248 
L 259.853523 306.344035 
L 259.924541 234.683215 
L 260.022191 70.505495 
L 260.084332 74.016117 
L 260.261877 100.825507 
L 260.776759 226.928529 
L 261.149605 341.592887 
L 261.309395 368.540236 
L 261.371536 368.380651 
L 261.726627 366.601506 
L 262.188245 363.102985 
L 262.774145 356.745065 
L 263.626364 344.823053 
L 264.025841 336.4661 
L 264.212264 327.721296 
L 264.327668 310.421361 
L 264.398686 259.45508 
L 264.505214 70.487044 
L 264.602864 77.327179 
L 264.815918 115.237742 
L 265.570486 309.723088 
L 265.792418 368.539328 
L 265.810173 368.525916 
L 265.961086 367.943221 
L 266.378318 365.51023 
L 266.875445 361.145943 
L 267.558995 352.888302 
L 268.313564 341.246018 
L 268.597636 333.435122 
L 268.74855 322.879621 
L 268.8462 297.33426 
L 268.908341 203.003354 
L 268.988236 70.500595 
L 269.050377 73.418938 
L 269.219045 97.733036 
L 269.662909 205.517714 
L 270.160036 357.808059 
L 270.284318 368.539801 
L 270.302073 368.514951 
L 270.488495 367.750309 
L 270.914605 365.1463 
L 271.420609 360.526659 
L 272.139668 351.607343 
L 272.832095 340.593431 
L 273.098414 332.811209 
L 273.249327 320.979539 
L 273.3381 294.069743 
L 273.400241 183.264397 
L 273.480136 70.494157 
L 273.5334 73.137878 
L 273.693191 95.398047 
L 274.101545 193.406016 
L 274.767341 368.540127 
L 274.891623 368.132398 
L 275.299977 365.867398 
L 275.77935 361.846995 
L 276.427391 354.274687 
L 277.235223 342.230039 
L 277.545927 334.414963 
L 277.714595 323.685972 
L 277.812245 300.8844 
L 277.874386 224.119443 
L 277.963159 70.488609 
L 278.0253 73.591566 
L 278.193968 98.1263 
L 278.646709 208.255432 
L 279.126082 355.399059 
L 279.259241 368.538789 
L 279.268118 368.528308 
L 279.410155 367.990082 
L 279.827386 365.583205 
L 280.315636 361.343434 
L 280.990309 353.26381 
L 281.753755 341.621253 
L 282.046705 333.857349 
L 282.206495 323.048596 
L 282.304145 298.096828 
L 282.366286 207.62366 
L 282.455059 70.512077 
L 282.508323 73.303253 
L 282.676991 97.465662 
L 283.120855 205.168326 
L 283.626859 360.100601 
L 283.742264 368.54017 
L 283.768895 368.496492 
L 283.999705 367.492187 
L 284.434691 364.680355 
L 284.95845 359.667371 
L 285.721895 349.892223 
L 286.334427 339.663488 
L 286.582991 331.595434 
L 286.725027 318.380277 
L 286.8138 281.170811 
L 286.938082 70.488231 
L 287.097873 85.952374 
L 287.3997 152.008583 
L 288.225286 368.539657 
L 288.358445 368.099781 
L 288.7668 365.816303 
L 289.246173 361.77237 
L 289.894214 354.176641 
L 290.693168 342.256035 
L 291.003873 334.467613 
L 291.172541 323.845001 
L 291.270191 301.545815 
L 291.332332 227.9001 
L 291.421105 70.495342 
L 291.492123 74.258385 
L 291.669668 101.358174 
L 292.202305 231.840811 
L 292.557395 342.921314 
L 292.717186 368.539538 
L 292.797082 368.30123 
L 293.178805 366.308603 
L 293.6493 362.583547 
L 294.261832 355.711083 
L 295.105173 343.588692 
L 295.460264 335.533201 
L 295.637809 325.997243 
L 295.744336 306.622009 
L 295.815355 236.504094 
L 295.913005 70.498773 
L 295.984023 74.775772 
L 296.170445 104.286125 
L 296.827364 264.607486 
L 297.049295 345.60664 
L 297.200209 368.540212 
L 297.209086 368.535137 
L 297.315614 368.167872 
L 297.723968 365.923219 
L 298.203341 361.928732 
L 298.842505 354.498259 
L 299.650336 342.545937 
L 299.969918 334.720839 
L 300.138586 324.58693 
L 300.236236 304.526162 
L 300.298377 244.276406 
L 300.396027 70.487277 
L 300.475923 75.315056 
L 300.671223 107.290822 
L 301.390282 284.620481 
L 301.683232 368.538826 
L 301.780882 368.256877 
L 302.180359 366.123279 
L 302.650855 362.30947 
L 303.272264 355.231859 
L 304.106727 343.087385 
L 304.444064 335.160538 
L 304.621609 324.943472 
L 304.728136 302.191886 
L 304.790277 231.554926 
L 304.87905 70.508589 
L 304.950068 74.129569 
L 305.127614 101.076224 
L 305.651373 229.372277 
L 306.015341 342.21921 
L 306.175132 368.540041 
L 306.24615 368.341913 
L 306.618995 366.42958 
L 307.080614 362.846532 
L 307.675391 356.288078 
L 308.518732 344.363705 
L 308.900455 336.153887 
L 309.086877 326.90225 
L 309.202282 307.129526 
L 309.2733 239.792904 
L 309.37095 70.490242 
L 309.441968 74.63996 
L 309.628391 103.994665 
L 310.267555 260.015637 
L 310.498364 340.49793 
L 310.658155 368.539916 
L 310.711418 368.420909 
L 311.039877 366.826127 
L 311.492618 363.519722 
L 312.060764 357.530998 
L 312.904105 345.991225 
L 313.347968 337.302817 
L 313.552145 328.543217 
L 313.66755 313.411835 
L 313.747445 262.859603 
L 313.853973 70.491548 
L 313.9605 78.12153 
L 314.182432 118.786093 
L 314.945877 320.79277 
L 315.150055 368.539232 
L 315.22995 368.298686 
L 315.62055 366.247691 
L 316.091045 362.493188 
L 316.703577 355.590188 
L 317.546918 343.423858 
L 317.893132 335.511993 
L 318.070677 325.939088 
L 318.177205 306.391107 
L 318.248223 234.99469 
L 318.345873 70.504306 
L 318.408014 74.004669 
L 318.585559 100.800081 
L 319.100441 226.897796 
L 319.473286 341.528748 
L 319.633077 368.540237 
L 319.695218 368.381126 
L 320.050309 366.602276 
L 320.511927 363.104139 
L 321.097827 356.746632 
L 321.950045 344.825122 
L 322.349523 336.469943 
L 322.535945 327.731114 
L 322.65135 310.459168 
L 322.722368 259.664249 
L 322.828895 70.486936 
L 322.926545 77.312226 
L 323.1396 115.208609 
L 323.894168 309.668241 
L 324.1161 368.53925 
L 324.133855 368.526146 
L 324.284768 367.943817 
L 324.702 365.511157 
L 325.199127 361.14729 
L 325.882677 352.890049 
L 326.637245 341.248594 
L 326.921318 333.440598 
L 327.072232 322.895601 
L 327.169882 297.407074 
L 327.232023 203.443506 
L 327.311918 70.501798 
L 327.374059 73.40796 
L 327.542727 97.707794 
L 327.986591 205.484718 
L 328.483718 357.764891 
L 328.608 368.53985 
L 328.625755 368.515246 
L 328.812177 367.750944 
L 329.238286 365.147283 
L 329.318182 364.529501 
L 329.335936 365.198178 
L 329.398077 365.811864 
L 329.460218 365.608464 
L 329.797555 363.199993 
L 330.498859 356.597044 
L 331.555255 344.477803 
L 331.910345 337.913756 
L 332.096768 330.135847 
L 332.212173 315.479105 
L 332.292068 266.254901 
L 332.398595 68.569485 
L 332.505123 75.316762 
L 332.718177 110.992073 
L 333.454991 294.696072 
L 333.721309 369.342578 
L 333.774573 369.263378 
L 334.103032 368.131631 
L 334.546895 365.809509 
L 335.088409 361.656049 
L 335.93175 353.154946 
L 336.775091 342.798923 
L 337.068041 336.392508 
L 337.236709 327.405407 
L 337.343236 307.664391 
L 337.405377 251.995895 
L 337.503027 68.547652 
L 337.5918 73.432394 
L 337.778223 101.546509 
L 338.293105 226.519912 
L 338.66595 342.26887 
L 338.825741 369.342962 
L 338.887882 369.246079 
L 339.234095 368.027474 
L 339.686836 365.594011 
L 340.237227 361.275509 
L 341.116077 352.303252 
L 341.906155 342.396161 
L 342.190227 335.859079 
L 342.350018 326.743558 
L 342.456545 304.818608 
L 342.518686 236.338539 
L 342.607459 68.556678 
L 342.678477 71.730099 
L 342.847145 94.428663 
L 343.237745 186.23368 
L 343.93905 369.344628 
L 344.063332 369.046904 
L 344.471686 367.425534 
L 344.942182 364.567221 
L 345.545836 359.371435 
L 346.602232 347.986097 
L 347.117114 340.500876 
L 347.3568 333.431144 
L 347.498836 321.510967 
L 347.587609 290.364154 
L 347.64975 147.182114 
L 347.720768 68.563533 
L 347.774032 70.921236 
L 347.933823 90.94592 
L 348.288914 172.151801 
L 349.043482 369.344786 
L 349.167764 369.052782 
L 349.576118 367.434861 
L 350.046614 364.581062 
L 350.650268 359.389992 
L 351.706664 348.008869 
L 352.221545 340.538909 
L 352.461232 333.520236 
L 352.603268 321.803998 
L 352.692041 291.81453 
L 352.754182 155.370398 
L 352.8252 68.550613 
L 352.878464 70.787895 
L 353.029377 89.117024 
L 353.366714 164.871259 
L 354.147914 369.344538 
L 354.272195 369.058647 
L 354.68055 367.444178 
L 355.151045 364.594895 
L 355.7547 359.408554 
L 356.802218 348.137424 
L 357.325977 340.576807 
L 357.565664 333.608011 
L 357.7077 322.089461 
L 357.796473 293.198892 
L 357.858614 163.606178 
L 357.929632 68.545871 
L 357.982895 70.657197 
L 358.133809 88.798788 
L 358.462268 162.125799 
L 359.252345 369.343762 
L 359.385505 369.037151 
L 359.793859 367.410078 
L 360.264355 364.544303 
L 360.876886 359.254111 
L 361.933282 347.841965 
L 362.439286 340.437561 
L 362.670095 333.695345 
L 362.812132 322.369309 
L 362.900905 294.511442 
L 362.963045 171.666625 
L 363.034064 68.549207 
L 363.096205 71.14821 
L 363.255995 91.491772 
L 363.611086 172.956943 
L 364.365655 369.344316 
L 364.481059 369.070329 
L 364.889414 367.462765 
L 365.359909 364.622517 
L 365.963564 359.445659 
L 367.011082 348.182809 
L 367.534841 340.652326 
L 367.774527 333.78172 
L 367.916564 322.643508 
L 368.005336 295.764236 
L 368.067477 179.586302 
L 368.138495 68.56228 
L 368.200636 71.010003 
L 368.360427 91.161121 
L 368.715518 172.47038 
L 369.470086 369.344722 
L 369.594368 369.048929 
L 370.002723 367.428746 
L 370.473218 364.571987 
L 371.076873 359.377824 
L 372.133268 347.993937 
L 372.64815 340.513991 
L 372.887836 333.461911 
L 373.029873 321.612373 
L 373.118645 290.867545 
L 373.180786 149.979738 
L 373.251805 68.558316 
L 373.305068 70.875284 
L 373.464859 90.833592 
L 373.81995 171.9853 
L 374.574518 369.344748 
L 374.6988 369.054787 
L 375.107155 367.438045 
L 375.57765 364.585789 
L 376.181305 359.396333 
L 377.2377 348.016651 
L 377.752582 340.551864 
L 377.992268 333.550348 
L 378.134305 321.902484 
L 378.223077 292.299495 
L 378.285218 158.221147 
L 378.356236 68.548145 
L 378.4095 70.742535 
L 378.560414 89.007181 
L 378.888873 162.444566 
L 379.67895 369.344326 
L 379.803232 369.060663 
L 380.211586 367.447382 
L 380.682082 364.599654 
L 381.285736 359.414943 
L 382.333255 348.14524 
L 382.857014 340.589841 
L 383.0967 333.638091 
L 383.238736 322.18635 
L 383.327509 293.656286 
L 383.38965 166.376369 
L 383.460668 68.545927 
L 383.522809 71.240569 
L 383.6826 91.709936 
L 384.046568 175.544573 
L 384.792259 369.343833 
L 384.907664 369.066504 
L 385.316018 367.456675 
L 385.786514 364.613463 
L 386.390168 359.43349 
L 387.437686 348.16793 
L 387.961445 340.627616 
L 388.201132 333.725021 
L 388.343168 322.463703 
L 388.431941 294.946158 
L 388.494082 174.397515 
L 388.5651 68.552672 
L 388.627241 71.100757 
L 388.787032 91.378847 
L 389.142123 172.791315 
L 389.896691 369.344499 
L 390.020973 369.045051 
L 390.429327 367.422595 
L 390.899823 364.562862 
L 391.503477 359.365594 
L 392.559873 347.978928 
L 393.074755 340.488878 
L 393.314441 333.402845 
L 393.456477 321.4175 
L 393.54525 289.894794 
L 393.607391 144.633351 
L 393.669532 68.56887 
L 393.731673 70.963672 
L 393.891464 91.049086 
L 394.246555 172.304637 
L 395.001123 369.344773 
L 395.125405 369.050936 
L 395.533759 367.431932 
L 396.004255 364.576715 
L 396.607909 359.384162 
L 397.664305 348.001716 
L 398.179186 340.526991 
L 398.418873 333.492362 
L 398.560909 321.712514 
L 398.649682 291.362968 
L 398.711823 152.774236 
L 398.782841 68.55393 
L 398.836105 70.829836 
L 398.987018 89.217988 
L 399.324355 165.025401 
L 400.105555 369.344666 
L 400.229836 369.056783 
L 400.638191 367.441216 
L 401.108686 364.590496 
L 401.712341 359.40265 
L 402.759859 348.130203 
L 403.283618 340.56476 
L 403.523305 333.580181 
L 403.665341 321.999634 
L 403.754114 292.770971 
L 403.816255 161.032927 
L 403.887273 68.546594 
L 403.940536 70.697965 
L 404.09145 88.898617 
L 404.419909 162.278759 
L 405.209986 369.344058 
L 405.343145 369.035282 
L 405.7515 367.407119 
L 406.221995 364.539919 
L 406.834527 359.248228 
L 407.890923 347.834729 
L 408.396927 340.425409 
L 408.627736 333.667914 
L 408.769773 322.281878 
L 408.858545 294.105268 
L 408.920686 169.139438 
L 408.991705 68.547178 
L 409.053845 71.192363 
L 409.213636 91.596345 
L 409.577605 175.378203 
L 410.323295 369.344103 
L 410.4387 369.068493 
L 410.847055 367.459842 
L 411.31755 364.61817 
L 411.921205 359.439816 
L 412.968723 348.17567 
L 413.492482 340.640473 
L 413.732168 333.754537 
L 413.874205 322.557397 
L 413.962977 295.374273 
L 414.025118 177.110501 
L 414.096136 68.557099 
L 414.158277 71.053284 
L 414.318068 91.265215 
L 414.673159 172.623841 
L 415.427727 369.344638 
L 415.552009 369.047077 
L 415.960364 367.425809 
L 416.430859 364.567629 
L 417.034514 359.371982 
L 418.090909 347.986768 
L 418.605791 340.501998 
L 418.845477 333.433778 
L 418.987514 321.519655 
L 419.076286 290.407666 
L 419.138427 147.420788 
L 419.209445 68.56306 
L 419.262709 70.917305 
L 419.4225 90.936338 
L 419.777591 172.137631 
L 420.532159 369.344785 
L 420.656441 369.052952 
L 421.064795 367.435131 
L 421.535291 364.581463 
L 422.138945 359.39053 
L 423.195341 348.009529 
L 423.710223 340.540009 
L 423.949909 333.522807 
L 424.091945 321.81243 
L 424.180718 291.856098 
L 424.242859 155.6121 
L 424.313877 68.550349 
L 424.367141 70.784018 
L 424.518055 89.107664 
L 424.855391 164.856966 
L 425.636591 369.344523 
L 425.760873 369.05882 
L 426.169227 367.444453 
L 426.639723 364.595304 
L 427.243377 359.409102 
L 428.290895 348.138094 
L 428.814655 340.577925 
L 429.054341 333.610593 
L 429.196377 322.097784 
L 429.28515 293.238227 
L 429.347291 163.845001 
L 429.418309 68.545827 
L 429.471573 70.65341 
L 429.622486 88.78949 
L 429.950945 162.111496 
L 430.741023 369.343733 
L 430.874182 369.037326 
L 431.282536 367.410355 
L 431.753032 364.544714 
L 432.365564 359.254663 
L 433.421959 347.842643 
L 433.927964 340.438699 
L 434.158773 333.697912 
L 434.300809 322.377483 
L 434.389582 294.549126 
L 434.451723 171.902668 
L 434.522741 68.549456 
L 434.584882 71.144092 
L 434.744673 91.481993 
L 435.099764 172.942588 
L 435.845455 369.342464 
L 435.845455 369.342464 
" clip-path="url(#pbb944db815)" style="fill: none; stroke: #ff0000; stroke-width: 1.5; stroke-linecap: square"/>
   </g>
   <g id="patch_3">
    <path d="M 63 384.48 
L 63 51.84 
" style="fill: none; stroke: #000000; stroke-width: 0.8; stroke-linejoin: miter; stroke-linecap: square"/>
   </g>
   <g id="patch_4">
    <path d="M 453.6 384.48 
L 453.6 51.84 
" style="fill: none; stroke: #000000; stroke-width: 0.8; stroke-linejoin: miter; stroke-linecap: square"/>
   </g>
   <g id="patch_5">
    <path d="M 63 384.48 
L 453.6 384.48 
" style="fill: none; stroke: #000000; stroke-width: 0.8; stroke-linejoin: miter; stroke-linecap: square"/>
   </g>
   <g id="patch_6">
    <path d="M 63 51.84 
L 453.6 51.84 
" style="fill: none; stroke: #000000; stroke-width: 0.8; stroke-linejoin: miter; stroke-linecap: square"/>
   </g>
   <g id="legend_1">
    <g id="patch_7">
     <path d="M 383.460938 234.338125 
L 446.6 234.338125 
Q 448.6 234.338125 448.6 232.338125 
L 448.6 203.981875 
Q 448.6 201.981875 446.6 201.981875 
L 383.460938 201.981875 
Q 381.460938 201.981875 381.460938 203.981875 
L 381.460938 232.338125 
Q 381.460938 234.338125 383.460938 234.338125 
z
" style="fill: #ffffff; opacity: 0.8; stroke: #cccccc; stroke-linejoin: miter"/>
    </g>
    <g id="line2d_15">
     <path d="M 385.460938 210.080312 
L 395.460938 210.080312 
L 405.460938 210.080312 
" style="fill: none; stroke: #1f77b4; stroke-width: 1.5; stroke-linecap: square"/>
    </g>
    <g id="text_15">
     <!-- target -->
     <g transform="translate(413.460938 213.580312)scale(0.1 -0.1)">
      <defs>
       <path id="DejaVuSans-72" d="M 2631 2963 
Q 2534 3019 2420 3045 
Q 2306 3072 2169 3072 
Q 1681 3072 1420 2755 
Q 1159 2438 1159 1844 
L 1159 0 
L 581 0 
L 581 3500 
L 1159 3500 
L 1159 2956 
Q 1341 3275 1631 3429 
Q 1922 3584 2338 3584 
Q 2397 3584 2469 3576 
Q 2541 3569 2628 3553 
L 2631 2963 
z
" transform="scale(0.015625)"/>
      </defs>
      <use xlink:href="#DejaVuSans-74"/>
      <use xlink:href="#DejaVuSans-61" x="39.208984"/>
      <use xlink:href="#DejaVuSans-72" x="100.488281"/>
      <use xlink:href="#DejaVuSans-67" x="139.851562"/>
      <use xlink:href="#DejaVuSans-65" x="203.328125"/>
      <use xlink:href="#DejaVuSans-74" x="264.851562"/>
     </g>
    </g>
    <g id="line2d_16">
     <path d="M 385.460938 224.758437 
L 395.460938 224.758437 
L 405.460938 224.758437 
" style="fill: none; stroke: #ff0000; stroke-width: 1.5; stroke-linecap: square"/>
    </g>
    <g id="text_16">
     <!-- model -->
     <g transform="translate(413.460938 228.258437)scale(0.1 -0.1)">
      <defs>
       <path id="DejaVuSans-64" d="M 2906 2969 
L 2906 4863 
L 3481 4863 
L 3481 0 
L 2906 0 
L 2906 525 
Q 2725 213 2448 61 
Q 2172 -91 1784 -91 
Q 1150 -91 751 415 
Q 353 922 353 1747 
Q 353 2572 751 3078 
Q 1150 3584 1784 3584 
Q 2172 3584 2448 3432 
Q 2725 3281 2906 2969 
z
M 947 1747 
Q 947 1113 1208 752 
Q 1469 391 1925 391 
Q 2381 391 2643 752 
Q 2906 1113 2906 1747 
Q 2906 2381 2643 2742 
Q 2381 3103 1925 3103 
Q 1469 3103 1208 2742 
Q 947 2381 947 1747 
z
" transform="scale(0.015625)"/>
      </defs>
      <use xlink:href="#DejaVuSans-6d"/>
      <use xlink:href="#DejaVuSans-6f" x="97.412109"/>
      <use xlink:href="#DejaVuSans-64" x="158.59375"/>
      <use xlink:href="#DejaVuSans-65" x="222.070312"/>
      <use xlink:href="#DejaVuSans-6c" x="283.59375"/>
     </g>
    </g>
   </g>
  </g>
 </g>
 <defs>
  <clipPath id="pbb944db815">
   <rect x="63" y="51.84" width="390.6" height="332.64"/>
  </clipPath>
 </defs>
</svg>
